<?xml version="1.0" encoding="utf-8"?>
<!-- Generator: Adobe Illustrator 22.0.1, SVG Export Plug-In . SVG Version: 6.00 Build 0)  -->
<svg version="1.1" id="Layer_1" xmlns="http://www.w3.org/2000/svg" xmlns:xlink="http://www.w3.org/1999/xlink" x="0px" y="0px"
	 width="47.2px" height="39px" viewBox="0 0 47.2 39" style="enable-background:new 0 0 47.2 39;" xml:space="preserve">
<style type="text/css">
	.st0{fill:none;stroke:#000000;stroke-miterlimit:10;}
</style>
<g>
	<path class="st0" d="M43.9,3.4c-2.5-2.5-6.2-3.5-9.6-2.5c0,0-12.5,3.3-12.6,3.3C14.9,6-2.3,9.4,0.9,17c3.3,8,13.9,17,21.8,20.1
		c11.8,4.6,18-3.6,20.7-12.1c0.1-0.2,0.1-0.4,0.2-0.5l0-0.1l0-0.1c0.2-0.6,0.3-1.2,0.4-1.8l2.4-9.6C47.3,9.5,46.4,5.9,43.9,3.4z
		 M38.6,10.9l-3.1,12.2c-0.2,0.8-1,1.4-1.8,1.4c-0.9,0-1.6-0.7-1.7-1.5l-1-5.1c-0.1-0.3-0.2-0.7-0.5-0.9c-0.3-0.3-0.6-0.4-0.9-0.5
		l-5.1-1c-0.4-0.1-0.7-0.2-1-0.5c-0.3-0.3-0.5-0.7-0.6-1.2c0-0.9,0.6-1.6,1.4-1.8l12.2-3.1c0.6-0.2,1.3,0,1.7,0.5
		c0.3,0.3,0.5,0.8,0.5,1.3C38.7,10.6,38.7,10.7,38.6,10.9z"/>
</g>
</svg>
