<?xml version="1.0" encoding="utf-8"?>
<!-- Generator: Adobe Illustrator 22.0.1, SVG Export Plug-In . SVG Version: 6.00 Build 0)  -->
<svg version="1.1" id="Layer_1" xmlns="http://www.w3.org/2000/svg" xmlns:xlink="http://www.w3.org/1999/xlink" x="0px" y="0px"
	 width="61.1px" height="44.2px" viewBox="0 0 61.1 44.2" style="enable-background:new 0 0 61.1 44.2;" xml:space="preserve">
<style type="text/css">
	.st0{fill:none;stroke:#000000;stroke-miterlimit:10;}
	.st1{stroke:#000000;stroke-miterlimit:10;}
</style>
<g>
	<path class="st0" d="M30.6,13.8c7,0,12.7,5.7,12.7,12.7c0,7-5.7,12.7-12.7,12.7c-7,0-12.7-5.7-12.7-12.7
		C17.9,19.5,23.6,13.8,30.6,13.8z"/>
	<path class="st1" d="M31.9,18.6c0.5,0,0.9,0.1,1.3,0.2c0.4,0.1,0.7,0.2,1,0.3l0,1.9c-0.6-0.2-0.9-0.3-1.5-0.4
		c-0.7-0.2-1.2-0.2-1.6-0.2c-0.8,0-1.5,0.2-2,0.7c-0.5,0.4-0.7,1-0.7,1.7c0,0.4,0.1,0.8,0.2,1.1c0.1,0.3,0.3,0.6,0.6,0.8
		c0.2,0.2,0.8,0.5,1.7,0.9l1.2,0.6c1,0.5,1.8,1.1,2.2,1.7c0.4,0.7,0.6,1.5,0.6,2.4c0,1-0.3,1.8-0.9,2.5c-0.6,0.7-1.2,1-2.1,1.3
		l0,1.8h-2l0-1.6c-1,0-1.7-0.3-2.2-0.6l0-1.9c0.3,0.2,0.7,0.4,1.3,0.6c0.6,0.2,1.1,0.3,1.6,0.3c0.7,0,1.3-0.2,1.7-0.6
		c0.4-0.4,0.6-0.9,0.6-1.6c0-0.4-0.1-0.7-0.2-1.1c-0.1-0.3-0.4-0.6-0.6-0.8c-0.3-0.2-0.8-0.5-1.6-0.9l-1-0.4
		c-1.1-0.5-1.9-1.1-2.4-1.9c-0.5-0.7-0.8-1.7-0.8-2.8c0-0.9,0.3-1.8,1-2.5c0.7-0.7,1.4-1.1,2.6-1.3l0-1.8h2L31.9,18.6z"/>
	<g>
		<path class="st0" d="M51.7,27.4c0-0.4-0.3-0.6-0.6-0.6s-0.6,0.3-0.6,0.6c0,0.4,0.3,0.6,0.6,0.6S51.7,27.7,51.7,27.4z"/>
		<g>
			<path class="st0" d="M10.7,27.4c0-0.4-0.3-0.6-0.6-0.6c-0.4,0-0.6,0.3-0.6,0.6c0,0.4,0.3,0.6,0.6,0.6
				C10.5,28,10.7,27.7,10.7,27.4z"/>
			<g>
				<rect x="0.5" y="9.3" class="st0" width="60.1" height="34.5"/>
				<g>
					<polyline class="st0" points="5.9,9.3 5.9,4.4 55.3,4.4 55.3,9.3 					"/>
					<polyline class="st0" points="10,4.4 10,0.5 51.1,0.5 51.1,4.4 					"/>
				</g>
			</g>
		</g>
	</g>
</g>
</svg>
