<?xml version="1.0" encoding="utf-8"?>
<!-- Generator: Adobe Illustrator 22.0.1, SVG Export Plug-In . SVG Version: 6.00 Build 0)  -->
<svg version="1.1" id="Layer_1" xmlns="http://www.w3.org/2000/svg" xmlns:xlink="http://www.w3.org/1999/xlink" x="0px" y="0px"
	 width="48.3px" height="48.3px" viewBox="0 0 48.3 48.3" style="enable-background:new 0 0 48.3 48.3;" xml:space="preserve">
<style type="text/css">
	.st0{fill:none;stroke:#000000;stroke-miterlimit:10;}
</style>
<g>
	<path class="st0" d="M36.8,24.2c0,7-5.7,12.6-12.6,12.6c-7,0-12.6-5.7-12.6-12.6c0-7,5.7-12.6,12.6-12.6
		C31.1,11.5,36.8,17.2,36.8,24.2z"/>
	<path class="st0" d="M25.7,0.5h-3c-1.3,0-2.4,1.1-2.4,2.4c0,1.1-0.7,2-1.7,2.3c-1.4,0.4-2.6,0.9-3.9,1.6c-0.9,0.5-2.1,0.3-2.8-0.4
		l0,0c-0.9-0.9-2.5-0.9-3.4,0L6.4,8.5c-0.9,0.9-0.9,2.5,0,3.4l0,0c0.7,0.7,0.9,1.9,0.4,2.8c-0.7,1.2-1.2,2.5-1.6,3.9
		c-0.3,1-1.2,1.7-2.3,1.7c-1.3,0-2.4,1.1-2.4,2.4v3c0,1.3,1.1,2.4,2.4,2.4c1.1,0,2,0.7,2.3,1.7c0.4,1.4,0.9,2.6,1.6,3.9
		c0.5,0.9,0.3,2.1-0.4,2.8l0,0c-0.9,0.9-0.9,2.5,0,3.4L8.5,42c0.9,0.9,2.5,0.9,3.4,0l0,0c0.7-0.7,1.9-0.9,2.8-0.4
		c1.2,0.7,2.5,1.2,3.9,1.6c1,0.3,1.7,1.2,1.7,2.3c0,1.3,1.1,2.4,2.4,2.4h3c1.3,0,2.4-1.1,2.4-2.4c0-1.1,0.7-2,1.7-2.3
		c1.4-0.4,2.6-0.9,3.9-1.6c0.9-0.5,2.1-0.3,2.8,0.4l0,0c0.9,0.9,2.5,0.9,3.4,0l2.1-2.1c0.9-0.9,0.9-2.5,0-3.4l0,0
		c-0.7-0.7-0.9-1.9-0.4-2.8c0.7-1.2,1.2-2.5,1.6-3.9c0.3-1,1.2-1.7,2.3-1.7c1.3,0,2.4-1.1,2.4-2.4v-3c0-1.3-1.1-2.4-2.4-2.4
		c-1.1,0-2-0.7-2.3-1.7c-0.4-1.4-0.9-2.6-1.6-3.9c-0.5-0.9-0.3-2.1,0.4-2.8l0,0c0.9-0.9,0.9-2.5,0-3.4l-2.1-2.1
		c-0.9-0.9-2.5-0.9-3.4,0l0,0c-0.7,0.7-1.9,0.9-2.8,0.4c-1.2-0.7-2.5-1.2-3.9-1.6c-1-0.3-1.7-1.2-1.7-2.3C28.1,1.6,27,0.5,25.7,0.5z
		"/>
</g>
</svg>
