<?xml version="1.0" encoding="utf-8"?>
<!-- Generator: Adobe Illustrator 22.0.1, SVG Export Plug-In . SVG Version: 6.00 Build 0)  -->
<svg version="1.1" id="Layer_1" xmlns="http://www.w3.org/2000/svg" xmlns:xlink="http://www.w3.org/1999/xlink" x="0px" y="0px"
	 width="73.4px" height="49.1px" viewBox="0 0 73.4 49.1" style="enable-background:new 0 0 73.4 49.1;" xml:space="preserve">
<g>
	<g>
		<g>
			<path d="M43.7,36.9c0.9-1.4,1.4-3.1,1.4-4.8c0-4.7-3.9-8.7-8.6-8.7s-8.6,3.9-8.6,8.7c0,1.8,0.6,3.5,1.4,4.8
				c-4.4,2.3-7.5,6.5-8.3,11.5c0,0.2,0,0.3,0.2,0.5c0.1,0.2,0.2,0.2,0.5,0.2h29.6c0.2,0,0.3-0.1,0.5-0.2c0.1-0.2,0.2-0.3,0.2-0.5
				C51.1,43.5,48.1,39.2,43.7,36.9 M36.5,24.6c4.1,0,7.4,3.4,7.4,7.5c0,2.6-1.3,4.8-3.2,6.2c0,0-0.1,0-0.1,0.1
				c-0.3,0.2-0.7,0.5-1.1,0.6c-0.1,0-0.1,0.1-0.2,0.1c-0.4,0.2-0.8,0.3-1.2,0.4c-0.1,0-0.2,0-0.2,0c-0.4,0.1-0.9,0.2-1.3,0.2l0,0
				c-0.5,0-1-0.1-1.4-0.2h-0.1c-0.5-0.1-0.9-0.2-1.4-0.4l0,0c-2.6-1.1-4.5-3.8-4.5-6.9C29.1,28,32.4,24.6,36.5,24.6 M22.5,47.9
				c0.9-4.3,3.7-8,7.7-10c1.4,1.6,3.4,2.6,5.5,2.9c0.1,0,0.2,0,0.2,0c0.2,0,0.4,0,0.6,0l0,0l0,0c0.6,0,1.2-0.1,1.8-0.2
				c0.1,0,0.2-0.1,0.2-0.1c0.2-0.1,0.4-0.1,0.6-0.2c0.2-0.1,0.3-0.1,0.4-0.2c0.1-0.1,0.2-0.1,0.3-0.2c0.2-0.1,0.3-0.2,0.6-0.2
				c0.1,0,0.2-0.1,0.2-0.1c0.2-0.1,0.4-0.2,0.6-0.3c0.1,0,0.1-0.1,0.2-0.1c0.2-0.2,0.4-0.2,0.6-0.4c0.1,0,0.1-0.1,0.2-0.1
				c0.2-0.2,0.3-0.3,0.5-0.5c0.1-0.1,0.1-0.1,0.2-0.2c0.1-0.1,0.2-0.2,0.2-0.3c3.9,2,6.7,5.7,7.7,10H22.5V47.9z"/>
			<path d="M18.6,31.5c0.1-0.2,0.2-0.3,0.2-0.5c-0.5-3-2.2-5.5-4.8-6.9c0.5-0.8,0.8-1.8,0.8-2.8c0-3-2.4-5.4-5.4-5.4S4,18.3,4,21.3
				c0,1,0.3,1.9,0.8,2.8C2.2,25.5,0.4,28,0,31c0,0.2,0,0.3,0.2,0.5c0,0.2,0.2,0.2,0.4,0.2h17.7C18.4,31.7,18.5,31.7,18.6,31.5
				 M9.4,17.1c2.2,0,4.2,1.9,4.2,4.3c0,1-0.4,1.9-1,2.7c-0.2,0.2-0.3,0.3-0.5,0.5c-0.1,0.1-0.1,0.1-0.2,0.2
				c-0.2,0.2-0.4,0.2-0.6,0.4c-0.1,0-0.1,0.1-0.2,0.1c-0.2,0.1-0.5,0.2-0.7,0.2c-0.1,0-0.1,0-0.2,0.1c-0.3,0.1-0.6,0.1-0.9,0.1
				s-0.6,0-0.9-0.1c-0.1,0-0.2-0.1-0.3-0.1c-0.2-0.1-0.3-0.1-0.5-0.2C7.4,25.1,7.2,25,7.1,25c-0.2-0.1-0.2-0.2-0.4-0.2
				c0.1-0.1,0-0.2-0.1-0.3c-0.1-0.2-0.2-0.3-0.4-0.5c-0.6-0.7-1-1.7-1-2.7C5.2,19,7.1,17.1,9.4,17.1 M1.3,30.5
				c0.6-2.3,2.1-4.3,4.3-5.5l0,0c0.2,0.2,0.2,0.2,0.4,0.4c0.2,0.1,0.2,0.2,0.4,0.3c0.1,0,0.1,0.1,0.2,0.1c0.8,0.6,1.8,0.8,2.8,0.8
				c1.5,0,2.9-0.6,3.9-1.7l0,0c2.2,1.1,3.7,3.1,4.3,5.5L1.3,30.5L1.3,30.5z"/>
			<path d="M68.3,24.1c0.5-0.8,0.8-1.8,0.8-2.8c0-3-2.4-5.4-5.4-5.4c-3,0-5.4,2.4-5.4,5.4c0,1,0.3,1.9,0.8,2.8
				c-2.6,1.4-4.4,3.9-4.8,6.9c0,0.2,0,0.3,0.2,0.5c0.1,0.2,0.2,0.2,0.5,0.2h17.7c0.2,0,0.3-0.1,0.5-0.2c0.1-0.2,0.2-0.3,0.2-0.5
				C72.6,28,70.9,25.6,68.3,24.1 M63.7,17.1c2.3,0,4.2,1.9,4.2,4.3c0,1-0.4,2-1,2.7c-0.2,0.2-0.2,0.3-0.4,0.4
				c-0.1,0.1-0.2,0.2-0.3,0.2c-0.2,0.1-0.2,0.2-0.4,0.2c-0.1,0.1-0.2,0.2-0.3,0.2c-0.2,0.1-0.3,0.1-0.5,0.2c-0.1,0-0.2,0.1-0.3,0.1
				c-0.3,0.1-0.6,0.1-0.9,0.1c-0.3,0-0.6,0-0.9-0.1c-0.1,0-0.1,0-0.2-0.1c-0.2-0.1-0.5-0.2-0.7-0.2c-0.1,0-0.1-0.1-0.2-0.1
				c-0.2-0.1-0.4-0.2-0.6-0.4c-0.1-0.1-0.1-0.1-0.2-0.2c-0.2-0.2-0.3-0.3-0.5-0.5c-0.6-0.7-1-1.7-1-2.7C59.6,19,61.4,17.1,63.7,17.1
				 M55.6,30.5c0.6-2.3,2.1-4.3,4.3-5.5l0,0c1,1,2.3,1.7,3.9,1.7c1,0,2-0.3,2.8-0.8c0.1,0,0.1-0.1,0.2-0.1c0.2-0.1,0.2-0.2,0.4-0.3
				c0.2-0.1,0.3-0.2,0.4-0.4c0,0,0,0,0.1,0c2.2,1.1,3.7,3.1,4.3,5.5L55.6,30.5L55.6,30.5z"/>
			<path d="M63.7,33c-0.3,0-0.6,0.2-0.6,0.6v7.1c0,1.4-1.2,2.6-2.6,2.6h-8.8c-0.3,0-0.6,0.2-0.6,0.6s0.2,0.6,0.6,0.6h8.7
				c2.1,0,3.8-1.7,3.8-3.8v-7.1C64.3,33.3,64.1,33,63.7,33"/>
			<path d="M21.8,44c0-0.3-0.2-0.6-0.6-0.6h-8.7c-1.4,0-2.6-1.2-2.6-2.6v-7.1c0-0.3-0.2-0.6-0.6-0.6c-0.4,0-0.6,0.2-0.6,0.6v7.1
				c0,2.1,1.7,3.8,3.8,3.8h8.7C21.6,44.6,21.8,44.3,21.8,44"/>
		</g>
		<g>
			<path d="M42.8,20.7c-0.1,0-0.2,0-0.2-0.1l-6-3.1h-0.1l-6,3.1c-0.2,0.1-0.4,0.1-0.5,0c-0.2-0.1-0.2-0.3-0.2-0.5l1-6.7l0,0
				c0,0,0,0,0-0.1l0,0L26,8.5c-0.1-0.1-0.2-0.3-0.1-0.5c0.1-0.2,0.2-0.3,0.4-0.4l6.8-1.1l0,0c0,0,0,0,0-0.1l3.1-6.1
				c0.2-0.4,0.8-0.4,0.9,0l3.1,6.1v0.1l0,0l6.7,1.1c0.2,0,0.4,0.2,0.4,0.4c0.1,0.2,0,0.4-0.1,0.5l-4.8,4.8v0.1l1,6.6
				c0,0.2-0.1,0.4-0.2,0.5C43,20.7,42.9,20.7,42.8,20.7z M31.3,12.6c0.4,0.3,0.4,0.7,0.4,0.9l-0.9,5.8l5.1-2.6
				c0.3-0.2,0.8-0.2,1.1,0l5.1,2.6l-0.9-5.7c0-0.3,0-0.6,0.3-1l4.1-4.1l-5.7-0.9c-0.4,0-0.7-0.4-0.8-0.6l-2.6-5.3l-2.6,5.2
				c-0.1,0.3-0.4,0.6-0.8,0.6l-5.8,0.9L31.3,12.6z M30.8,13.4L30.8,13.4L30.8,13.4z M33,6.5L33,6.5L33,6.5z M40.1,6.5L40.1,6.5
				L40.1,6.5z"/>
		</g>
	</g>
</g>
</svg>
