<?xml version="1.0" encoding="utf-8"?>
<!-- Generator: Adobe Illustrator 22.0.1, SVG Export Plug-In . SVG Version: 6.00 Build 0)  -->
<svg version="1.1" id="Layer_1" xmlns="http://www.w3.org/2000/svg" xmlns:xlink="http://www.w3.org/1999/xlink" x="0px" y="0px"
	 width="53.3px" height="53.3px" viewBox="0 0 53.3 53.3" style="enable-background:new 0 0 53.3 53.3;" xml:space="preserve">
<style type="text/css">
	.st0{fill:#FFDA30;}
	.st1{fill:#232323;}
</style>
<g>
	<polygon class="st0" points="21.5,35.3 22,11.9 22.9,10.5 51.2,10.5 53.3,12.8 52,31.3 51.2,33.1 28.3,33.3 	"/>
	<path class="st1" d="M5.2,20.2c0.3,0,0.5-0.1,0.7-0.3c0.2-0.2,0.3-0.5,0.3-0.7c0-0.3-0.1-0.5-0.3-0.7c-0.2-0.2-0.5-0.3-0.7-0.3
		c-0.3,0-0.5,0.1-0.7,0.3c-0.2,0.2-0.3,0.5-0.3,0.7c0,0.3,0.1,0.5,0.3,0.7C4.7,20.1,4.9,20.2,5.2,20.2"/>
	<path class="st1" d="M18.1,47.9c-0.6,0-1,0.5-1,1c0,0.6,0.5,1,1,1h0c0.6,0,1-0.5,1-1C19.2,48.4,18.7,47.9,18.1,47.9"/>
	<path class="st1" d="M13.6,42.1L13.6,42.1c0.6,0,1.1-0.5,1.1-1c0-0.6-0.5-1-1-1h0c-0.6,0-1,0.5-1,1C12.6,41.6,13.1,42.1,13.6,42.1"
		/>
	<path class="st1" d="M18.1,42.1L18.1,42.1c0.6,0,1.1-0.5,1.1-1c0-0.6-0.5-1-1-1h0c-0.6,0-1,0.5-1,1C17.1,41.6,17.5,42.1,18.1,42.1"
		/>
	<path class="st1" d="M22.6,42.1L22.6,42.1c0.6,0,1.1-0.5,1.1-1c0-0.6-0.5-1-1-1h0c-0.6,0-1,0.5-1,1C21.5,41.6,22,42.1,22.6,42.1"/>
	<path class="st1" d="M50.3,9.8h-14V4.2c0-2.3-1.9-4.2-4.2-4.2H4.2C1.9,0,0,1.9,0,4.2v45c0,2.3,1.9,4.2,4.2,4.2h27.9
		c2.3,0,4.2-1.9,4.2-4.2v-15h14c1.7,0,3-1.4,3-3V12.8C53.3,11.2,51.9,9.8,50.3,9.8 M34.1,49.1c0,1.1-0.9,2.1-2.1,2.1H4.2
		c-1.1,0-2.1-0.9-2.1-2.1v-45C2.1,3,3,2.1,4.2,2.1h27.9c1.1,0,2.1,0.9,2.1,2.1v5.6h-2.1V6.7c0-0.6-0.5-1-1-1H5.2c-0.6,0-1,0.5-1,1
		V15c0,0.6,0.5,1,1,1c0.6,0,1-0.5,1-1V7.7H30v2.1h-6.1c-1.7,0-3,1.4-3,3v23.2c0,0.4,0.2,0.7,0.5,0.9c0.2,0.1,0.4,0.2,0.6,0.2
		c0.1,0,0.3,0,0.4-0.1l6.1-2.9H30v10.4H6.2V23.4c0-0.6-0.5-1-1-1c-0.6,0-1,0.5-1,1v22.2c0,0.6,0.5,1,1,1H31c0.6,0,1-0.5,1-1V34.1
		h2.1V49.1z M51.2,31.1c0,0.5-0.4,1-1,1H28.1c-0.2,0-0.3,0-0.4,0.1l-4.8,2.3V12.8c0-0.5,0.4-1,1-1h26.4c0.5,0,1,0.4,1,1V31.1z"/>
	<path class="st1" d="M42.2,15.9h-2.8c-0.6,0-1,0.5-1,1v10c0,0.6,0.5,1,1,1h2.8c2.7,0,4.9-2.2,4.9-4.9v-2.2
		C47.2,18.1,45,15.9,42.2,15.9 M45.1,23.1c0,1.6-1.3,2.9-2.9,2.9h-1.8V18h1.8c1.6,0,2.9,1.3,2.9,2.9V23.1z"/>
	<path class="st1" d="M32.3,16.6c-0.1-0.4-0.5-0.7-1-0.7c-0.4,0-0.8,0.3-1,0.7L28,23.8c0,0,0,0,0,0l-1,2.9c-0.2,0.5,0.1,1.1,0.7,1.3
		c0.5,0.2,1.1-0.1,1.3-0.7l0.7-2.2H33l0.7,2.2c0.1,0.4,0.6,0.7,1,0.7c0.1,0,0.2,0,0.3-0.1c0.5-0.2,0.8-0.8,0.7-1.3L32.3,16.6z
		 M30.4,23l0.9-2.8l0.9,2.8H30.4z"/>
</g>
</svg>
