<?xml version="1.0" encoding="utf-8"?>
<!-- Generator: Adobe Illustrator 22.0.1, SVG Export Plug-In . SVG Version: 6.00 Build 0)  -->
<svg version="1.1" id="Layer_1" xmlns="http://www.w3.org/2000/svg" xmlns:xlink="http://www.w3.org/1999/xlink" x="0px" y="0px"
	 width="42.4px" height="42.4px" viewBox="0 0 42.4 42.4" style="enable-background:new 0 0 42.4 42.4;" xml:space="preserve">
<style type="text/css">
	.st0{fill:#FFDA30;}
	.st1{fill:#232323;}
</style>
<g>
	<polygon class="st0" points="0.4,15.1 13.1,15.1 15.3,16.4 15.3,32.1 17.4,32.1 16,34.2 13.1,35 1.1,35 	"/>
	<path class="st1" d="M6.4,21.9H0.7c-0.4,0-0.7,0.3-0.7,0.7v5.7C0,28.7,0.3,29,0.7,29h5.7c0.4,0,0.7-0.3,0.7-0.7v-5.7
		C7.1,22.2,6.8,21.9,6.4,21.9 M5.7,27.6H1.4v-4.2h4.2L5.7,27.6L5.7,27.6z"/>
	<path class="st1" d="M39.2,0h-36C1.4,0,0,1.4,0,3.2v36.1c0,1.8,1.4,3.2,3.2,3.2h36.1c1.8,0,3.2-1.4,3.2-3.2V3.2
		C42.4,1.4,41,0,39.2,0 M41,39.2c0,1-0.8,1.8-1.8,1.8h-36c-1,0-1.8-0.8-1.8-1.8v-36c0-1,0.8-1.8,1.8-1.8h36.1c1,0,1.8,0.8,1.8,1.8
		L41,39.2L41,39.2z"/>
	<path class="st1" d="M6.4,2.8H3.5c-0.4,0-0.7,0.3-0.7,0.7v2.8C2.8,6.7,3.1,7,3.5,7h2.8C6.7,7,7,6.7,7,6.3V3.5
		C7.1,3.1,6.8,2.8,6.4,2.8 M5.7,5.7H4.2V4.2h1.4L5.7,5.7L5.7,5.7z"/>
	<path class="st1" d="M12,2.8H9.2c-0.4,0-0.7,0.3-0.7,0.7v2.8C8.5,6.7,8.8,7,9.2,7H12c0.4,0,0.7-0.3,0.7-0.7V3.5
		C12.7,3.1,12.4,2.8,12,2.8 M11.3,5.7H9.9V4.2h1.4C11.3,4.2,11.3,5.7,11.3,5.7z"/>
	<path class="st1" d="M17.7,2.8h-2.8c-0.4,0-0.7,0.3-0.7,0.7v2.8c0,0.4,0.3,0.7,0.7,0.7h2.8c0.4,0,0.7-0.3,0.7-0.7V3.5
		C18.4,3.1,18.1,2.8,17.7,2.8 M17,5.7h-1.4V4.2H17V5.7z"/>
	<path class="st1" d="M39.2,0h-36C1.4,0,0,1.4,0,3.2v6c0,0.4,0.3,0.7,0.7,0.7h41c0.4,0,0.7-0.3,0.7-0.7v-6C42.4,1.4,41,0,39.2,0
		 M41,8.5H1.4V3.2c0-1,0.8-1.8,1.8-1.8h36.1c1,0,1.8,0.8,1.8,1.8L41,8.5L41,8.5z"/>
	<path class="st1" d="M35.3,19.8H21.9c-0.4,0-0.7,0.3-0.7,0.7c0,0.4,0.3,0.7,0.7,0.7h13.4c0.4,0,0.7-0.3,0.7-0.7
		C36.1,20.1,35.7,19.8,35.3,19.8"/>
	<path class="st1" d="M31.8,17h-9.9c-0.4,0-0.7,0.3-0.7,0.7c0,0.4,0.3,0.7,0.7,0.7h9.9c0.4,0,0.7-0.3,0.7-0.7S32.2,17,31.8,17"/>
	<path class="st1" d="M37.5,22.6H21.9c-0.4,0-0.7,0.3-0.7,0.7s0.3,0.7,0.7,0.7h15.6c0.4,0,0.7-0.3,0.7-0.7S37.9,22.6,37.5,22.6"/>
	<path class="st1" d="M35.3,30.4H21.9c-0.4,0-0.7,0.3-0.7,0.7s0.3,0.7,0.7,0.7h13.4c0.4,0,0.7-0.3,0.7-0.7S35.7,30.4,35.3,30.4"/>
	<path class="st1" d="M31.8,27.6h-9.9c-0.4,0-0.7,0.3-0.7,0.7c0,0.4,0.3,0.7,0.7,0.7h9.9c0.4,0,0.7-0.3,0.7-0.7S32.2,27.6,31.8,27.6
		"/>
	<path class="st1" d="M37.5,33.2H21.9c-0.4,0-0.7,0.3-0.7,0.7s0.3,0.7,0.7,0.7h15.6c0.4,0,0.7-0.3,0.7-0.7S37.9,33.2,37.5,33.2"/>
	<path class="st1" d="M12,17.7H0.7C0.3,17.7,0,18,0,18.4v14.1c0,0.4,0.3,0.7,0.7,0.7H12c0.4,0,0.7-0.3,0.7-0.7V18.4
		C12.7,18,12.4,17.7,12,17.7 M11.3,31.8H1.4V19.1h9.9C11.3,19.1,11.3,31.8,11.3,31.8z"/>
	<path class="st1" d="M12.9,14.8H0.7c-0.4,0-0.7,0.3-0.7,0.7v17c0,0.4,0.3,0.7,0.7,0.7h14.1c0.4,0,0.7-0.3,0.7-0.7v-15
		C15.6,16,14.4,14.8,12.9,14.8 M14.1,31.8H1.4V16.3h11.5c0.7,0,1.2,0.5,1.2,1.2C14.1,17.5,14.1,31.8,14.1,31.8z"/>
	<path class="st1" d="M17,31.8H0.7c-0.4,0-0.7,0.3-0.7,0.7v2.8C0,35.7,0.3,36,0.7,36h13.4c1.9,0,3.5-1.6,3.5-3.5
		C17.7,32.1,17.4,31.8,17,31.8 M14.1,34.6H1.4v-1.4h14.7C15.8,34,15.1,34.6,14.1,34.6"/>
</g>
</svg>
