<?xml version="1.0" encoding="utf-8"?>
<!-- Generator: Adobe Illustrator 22.0.1, SVG Export Plug-In . SVG Version: 6.00 Build 0)  -->
<svg version="1.1" id="Layer_1" xmlns="http://www.w3.org/2000/svg" xmlns:xlink="http://www.w3.org/1999/xlink" x="0px" y="0px"
	 width="57.3px" height="45.1px" viewBox="0 0 57.3 45.1" style="enable-background:new 0 0 57.3 45.1;" xml:space="preserve">
<style type="text/css">
	.st0{fill:none;stroke:#000000;stroke-width:1.776;stroke-linecap:round;stroke-linejoin:round;stroke-miterlimit:22.926;}
	.st1{fill:#FDDA2E;}
	.st2{fill:none;stroke:#000000;stroke-width:1.5;stroke-linecap:round;stroke-linejoin:round;stroke-miterlimit:22.926;}
</style>
<g>
	<path class="st0" d="M1.4,39l0,1.3c0,2,1.6,3.6,3.6,3.6h47.3c2,0,3.6-1.6,3.6-3.6l0-1.3H1.4z"/>
	<line class="st0" x1="5" y1="9.4" x2="31.2" y2="9.4"/>
	<path class="st0" d="M10.9,39v-2.6c0-1.9,1.2-3.7,2.9-4.4l5.1-2.1c0.9-0.4,1.5-1.2,1.5-2.2v0c-1.7-1.8-1.8-5.1-1.8-8.2
		c0-2.9,2.4-5.3,5.3-5.3c3,0,5.3,2.4,5.3,5.3c0,3.2-0.1,6.5-1.8,8.2v0c0,1,0.6,1.8,1.5,2.2L34,32c1.8,0.7,2.9,2.5,2.9,4.4V39"/>
	<path class="st0" d="M34,4.7H8.5C6.6,4.7,5,6.3,5,8.2V39"/>
	<line class="st0" x1="52.3" y1="39" x2="52.3" y2="18.2"/>
	<path class="st1" d="M43.5,1.1C36.6,1.1,31,5.6,31,11.2c0,4.1,3.1,7.7,7.4,9.2l-1.8,3.2c2.8-0.5,4.5-1.1,6.1-2.4c0.2,0,0.4,0,0.6,0
		c6.9,0,12.4-4.5,12.4-10.1C55.9,5.6,50.3,1.1,43.5,1.1"/>
	<path class="st2" d="M43.5,1.1C36.6,1.1,31,5.6,31,11.2c0,4.1,3.1,7.7,7.4,9.2l-1.8,3.2c2.8-0.5,4.5-1.1,6.1-2.4c0.2,0,0.4,0,0.6,0
		c6.9,0,12.4-4.5,12.4-10.1C55.9,5.6,50.3,1.1,43.5,1.1z"/>
</g>
</svg>
