<?xml version="1.0" encoding="utf-8"?>
<!-- Generator: Adobe Illustrator 22.0.1, SVG Export Plug-In . SVG Version: 6.00 Build 0)  -->
<svg version="1.1" id="Layer_1" xmlns="http://www.w3.org/2000/svg" xmlns:xlink="http://www.w3.org/1999/xlink" x="0px" y="0px"
	 width="41.5px" height="48.7px" viewBox="0 0 41.5 48.7" style="enable-background:new 0 0 41.5 48.7;" xml:space="preserve">
<style type="text/css">
	.st0{fill:none;stroke:#000000;stroke-width:1.776;stroke-linecap:round;stroke-linejoin:round;stroke-miterlimit:22.926;}
	.st1{fill:#FFDB2D;}
</style>
<g>
	<path class="st0" d="M9.4,41.2v-4.2c0-1.6,1-3.1,2.5-3.7l4.3-1.8c0.8-0.3,1.2-1.1,1.2-1.9v0c-1.4-1.5-1.5-4.3-1.5-7
		c0-2.5,2-4.5,4.5-4.5c2.5,0,4.5,2,4.5,4.5c0,2.7-0.1,5.5-1.5,6.9v0c0,0.8,0.5,1.5,1.2,1.9l4.3,1.8c1.5,0.6,2.5,2.1,2.5,3.7v4.2"/>
	<path class="st1" d="M36.4,1.2h-30c-2.8,0-5,2.2-5,5c0,2.8,2.2,5,5,5h30V1.2"/>
	<path class="st0" d="M36.4,1.2h-30c-2.8,0-5,2.2-5,5c0,2.8,2.2,5,5,5h30V1.2"/>
	<line class="st0" x1="34.9" y1="11.2" x2="40.4" y2="11.2"/>
	<path class="st0" d="M40.4,47.2h-34c-2.8,0-5-2.2-5-5v-36"/>
	<line class="st0" x1="39.4" y1="11.2" x2="39.4" y2="47.2"/>
	<line class="st0" x1="36.4" y1="6.2" x2="6.4" y2="6.2"/>
</g>
</svg>
