<?xml version="1.0" encoding="utf-8"?>
<!-- Generator: Adobe Illustrator 22.0.1, SVG Export Plug-In . SVG Version: 6.00 Build 0)  -->
<svg version="1.1" id="Layer_1" xmlns="http://www.w3.org/2000/svg" xmlns:xlink="http://www.w3.org/1999/xlink" x="0px" y="0px"
	 width="61.3px" height="59.2px" viewBox="0 0 61.3 59.2" style="enable-background:new 0 0 61.3 59.2;" xml:space="preserve">
<style type="text/css">
	.st0{fill:#FFDA30;}
	.st1{fill:#232323;}
	.st2{fill:none;stroke:#000000;stroke-width:1.44;stroke-linecap:round;stroke-linejoin:round;stroke-miterlimit:22.926;}
</style>
<g>
	<path class="st0" d="M35.7,27.1c0,2.5-2,4.5-4.5,4.5s-4.5-2-4.5-4.5c0-2.5,2-4.5,4.5-4.5S35.7,24.6,35.7,27.1"/>
	<path class="st1" d="M35.7,27.3h4.6c0.2,0,0.4-0.2,0.4-0.4c0-0.2-0.2-0.4-0.4-0.4h-4.6C35.5,24,33.5,22,31,21.8v-4.6
		c0-0.2-0.2-0.4-0.4-0.4c-0.2,0-0.4,0.2-0.4,0.4v4.6c-2.5,0.2-4.5,2.2-4.7,4.7h-4.6c-0.2,0-0.4,0.2-0.4,0.4c0,0.2,0.2,0.4,0.4,0.4
		h4.6c0.2,2.5,2.2,4.5,4.7,4.7v4.6c0,0.2,0.2,0.4,0.4,0.4c0.2,0,0.4-0.2,0.4-0.4V32C33.5,31.8,35.5,29.8,35.7,27.3 M31,31.2v-1.1
		c0-0.2-0.2-0.4-0.4-0.4c-0.2,0-0.4,0.2-0.4,0.4v1.1c-2.1-0.2-3.7-1.8-3.9-3.9h1.4c0.2,0,0.4-0.2,0.4-0.4c0-0.2-0.2-0.4-0.4-0.4
		h-1.4c0.2-2.1,1.8-3.7,3.9-3.9v1.1c0,0.2,0.2,0.4,0.4,0.4c0.2,0,0.4-0.2,0.4-0.4v-1.1c2.1,0.2,3.7,1.8,3.9,3.9h-1.2
		c-0.2,0-0.4,0.2-0.4,0.4c0,0.2,0.2,0.4,0.4,0.4h1.2C34.7,29.4,33.1,31,31,31.2"/>
	<polygon class="st0" points="50.6,54.7 45.3,58 37,44.4 42.3,41.2 	"/>
	<polygon class="st2" points="50.6,54.7 45.3,58 37,44.4 42.3,41.2 	"/>
	<path class="st2" d="M34.1,8.5c10,2.4,16.3,12.5,13.9,22.5c-2.4,10-12.5,16.3-22.5,13.9c-10-2.4-16.3-12.5-13.9-22.5
		C13.9,12.3,24,6.1,34.1,8.5z"/>
	<path class="st2" d="M32.7,13.7c7.3,1.7,11.8,9,10,16.3"/>
	<path class="st2" d="M3.2,1.1c0,0,0,9,7,12"/>
	<polyline class="st2" points="6.2,4.1 3.2,1.1 1.2,5.1 	"/>
	<path class="st2" d="M58.2,1.1c0,0,0,9-7,12"/>
	<polyline class="st2" points="55.2,4.1 58.2,1.1 60.2,5.1 	"/>
	<path class="st2" d="M3.2,55.1c0,0,0-9,7-12"/>
	<polyline class="st2" points="6.2,52.1 3.2,55.1 1.2,51.1 	"/>
	<path class="st2" d="M58.2,55.1c0,0,0-9-7-12"/>
	<polyline class="st2" points="55.2,52.1 58.2,55.1 60.2,51.1 	"/>
</g>
</svg>
