<?xml version="1.0" encoding="utf-8"?>
<!-- Generator: Adobe Illustrator 22.0.1, SVG Export Plug-In . SVG Version: 6.00 Build 0)  -->
<svg version="1.1" id="Layer_1" xmlns="http://www.w3.org/2000/svg" xmlns:xlink="http://www.w3.org/1999/xlink" x="0px" y="0px"
	 width="47.5px" height="41.5px" viewBox="0 0 47.5 41.5" style="enable-background:new 0 0 47.5 41.5;" xml:space="preserve">
<style type="text/css">
	.st0{fill:none;stroke:#000000;stroke-width:1.5;stroke-linecap:round;stroke-linejoin:round;stroke-miterlimit:22.926;}
	.st1{fill:#FFDB2D;}
</style>
<g>
	<path class="st0" d="M0.8,36.8v1c0,1.7,1.3,3,3,3h40c1.7,0,3-1.3,3-3v-1H0.8z"/>
	<line class="st0" x1="3.8" y1="11.7" x2="8.7" y2="11.7"/>
	<path class="st0" d="M3.8,36.7v-26c0-1.7,1.3-3,3-3h2"/>
	<line class="st0" x1="43.8" y1="36.7" x2="43.8" y2="15.4"/>
	<polygon class="st1" points="29,30.1 40.8,18.3 36.2,13.7 24.4,25.5 22.8,31.8 	"/>
	<polygon class="st0" points="29,30.1 40.8,18.3 36.2,13.7 24.4,25.5 22.8,31.8 	"/>
	<path class="st0" d="M44.3,14.8l-4.6-4.6l1.6-1.6c1.2-1.2,3.2-1.1,4.5,0.1c1.3,1.3,1.3,3.3,0.1,4.5L44.3,14.8z"/>
	<rect x="37.8" y="11" transform="matrix(0.7071 -0.7071 0.7071 0.7071 1.7289 32.6391)" class="st0" width="5" height="6.5"/>
	<line class="st0" x1="24.4" y1="25.5" x2="29" y2="30.1"/>
	<polyline class="st0" points="38.8,11.1 38.8,0.8 8.8,0.8 8.8,36.8 	"/>
	<line class="st0" x1="38.8" y1="36.8" x2="38.8" y2="20.4"/>
	<line class="st0" x1="13.8" y1="6.8" x2="33.8" y2="6.8"/>
	<line class="st0" x1="13.8" y1="13.8" x2="28.8" y2="13.8"/>
	<line class="st0" x1="13.8" y1="17.8" x2="24.8" y2="17.8"/>
	<line class="st0" x1="13.8" y1="21.8" x2="20.8" y2="21.8"/>
</g>
</svg>
