<?xml version="1.0" encoding="utf-8"?>
<!-- Generator: Adobe Illustrator 22.0.1, SVG Export Plug-In . SVG Version: 6.00 Build 0)  -->
<svg version="1.1" id="Layer_1" xmlns="http://www.w3.org/2000/svg" xmlns:xlink="http://www.w3.org/1999/xlink" x="0px" y="0px"
	 width="40.8px" height="48.8px" viewBox="0 0 40.8 48.8" style="enable-background:new 0 0 40.8 48.8;" xml:space="preserve">
<style type="text/css">
	.st0{fill:none;stroke:#000000;stroke-width:1.787;stroke-linecap:round;stroke-linejoin:round;stroke-miterlimit:22.926;}
	.st1{fill:#FFDB2D;}
</style>
<g>
	<path class="st0" d="M1.4,43.4l0,1.1c0,1.7,1.4,3,3,3h32.2c1.7,0,3-1.4,3-3l0-1.1H1.4z"/>
	<path class="st0" d="M1.4,43.4V23.2c0-1.7,1.4-3,3-3h32.2c1.7,0,3,1.4,3,3v20.1"/>
	<path class="st0" d="M27.8,7.8c0-3.7-2.5-6.7-7.3-6.7c-4.8,0-7.3,3-7.3,6.7c0,0.2,0,0.8,0,1.5c2.5,0,7-0.5,9.2-3.8
		c0,0,0.1-0.1,0.1,0c0,0,0.1,0,0.1,0.1c0.2,1.1,1.5,3.6,5.2,4.1C27.8,8.7,27.8,8,27.8,7.8z"/>
	<path class="st0" d="M13.8,16.4c0.2,1.5,0.6,2.8,1.3,3.8h11c0.6-1,1.1-2.2,1.3-3.8c3.5-0.8,3.1-5.5,1.3-5.5l-0.8,0
		c0-0.8,0-2.8,0-3.1c0-3.7-2.5-6.7-7.3-6.7c-4.8,0-7.3,3-7.3,6.7c0,0.3,0,2.4,0,3.1h-0.8C10.8,10.9,10.3,15.6,13.8,16.4z"/>
	<path class="st1" d="M26.3,31.8c0-3.1-2.6-5.7-5.7-5.7c-3.2,0-5.7,2.6-5.7,5.7s2.6,5.7,5.7,5.7C23.7,37.5,26.3,34.9,26.3,31.8"/>
	<path class="st0" d="M26.3,31.8c0-3.1-2.6-5.7-5.7-5.7c-3.2,0-5.7,2.6-5.7,5.7s2.6,5.7,5.7,5.7C23.7,37.5,26.3,34.9,26.3,31.8z"/>
</g>
</svg>
