<?xml version="1.0" encoding="utf-8"?>
<!-- Generator: Adobe Illustrator 22.0.1, SVG Export Plug-In . SVG Version: 6.00 Build 0)  -->
<svg version="1.1" id="Layer_1" xmlns="http://www.w3.org/2000/svg" xmlns:xlink="http://www.w3.org/1999/xlink" x="0px" y="0px"
	 width="32.1px" height="49.4px" viewBox="0 0 32.1 49.4" style="enable-background:new 0 0 32.1 49.4;" xml:space="preserve">
<style type="text/css">
	.st0{fill:#FFDA30;}
	.st1{fill:none;stroke:#000000;stroke-width:1.5;stroke-miterlimit:22.926;}
	.st2{fill:none;stroke:#000000;stroke-width:1.5;stroke-linecap:round;stroke-linejoin:round;stroke-miterlimit:22.926;}
</style>
<g>
	<path class="st0" d="M19.9,42.4c0,3,2.4,5.5,5.5,5.5c3,0,5.5-2.4,5.5-5.5c0-3-2.4-5.5-5.5-5.5C22.4,36.9,19.9,39.4,19.9,42.4"/>
	<path class="st1" d="M19.9,42.4c0,3,2.4,5.5,5.5,5.5c3,0,5.5-2.4,5.5-5.5c0-3-2.4-5.5-5.5-5.5C22.4,36.9,19.9,39.4,19.9,42.4z"/>
	<path class="st0" d="M1.8,24.5c0,3,2.4,5.5,5.5,5.5c3,0,5.5-2.4,5.5-5.5c0-3-2.4-5.5-5.5-5.5C4.2,19,1.8,21.5,1.8,24.5"/>
	<path class="st1" d="M1.8,24.5c0,3,2.4,5.5,5.5,5.5c3,0,5.5-2.4,5.5-5.5c0-3-2.4-5.5-5.5-5.5C4.2,19,1.8,21.5,1.8,24.5z"/>
	<path class="st0" d="M18,6.6c0,3,2.4,5.5,5.5,5.5c3,0,5.5-2.4,5.5-5.5s-2.4-5.5-5.5-5.5C20.4,1.2,18,3.6,18,6.6"/>
	<path class="st1" d="M18,6.6c0,3,2.4,5.5,5.5,5.5c3,0,5.5-2.4,5.5-5.5s-2.4-5.5-5.5-5.5C20.4,1.2,18,3.6,18,6.6z"/>
	<line class="st2" x1="20.4" y1="37.5" x2="12.1" y2="29.1"/>
	<line class="st2" x1="11.7" y1="19.6" x2="19.5" y2="11.1"/>
</g>
</svg>
