<?xml version="1.0" encoding="utf-8"?>
<!-- Generator: Adobe Illustrator 23.1.0, SVG Export Plug-In . SVG Version: 6.00 Build 0)  -->
<svg version="1.1" id="Layer_1" xmlns="http://www.w3.org/2000/svg" xmlns:xlink="http://www.w3.org/1999/xlink" x="0px" y="0px"
	 width="125.8px" height="82.58px" viewBox="0 0 125.8 82.58" style="enable-background:new 0 0 125.8 82.58;" xml:space="preserve"
	>
<style type="text/css">
	.st0{fill:#283343;}
	.st1{fill:url(#SVGID_1_);}
</style>
<g>
	<path class="st0" d="M11.81,78.45c-4.15,0-7.51-3.43-7.51-7.67c0-4.24,3.36-7.67,7.51-7.67c4.15,0,7.51,3.44,7.51,7.67
		C19.32,75.01,15.96,78.45,11.81,78.45L11.81,78.45z M19.34,79.42c0,0.7,1.2,2.68,2.68,2.68h0.96c0.37,0,0.67-0.3,0.67-0.67v-21h0
		c-0.02-0.36-0.31-0.64-0.67-0.64h-2.96c-0.36,0-0.65,0.28-0.67,0.64h0v1.71c-1.81-2.23-4.67-3.16-7.54-3.16
		C5.28,58.97,0,64.26,0,70.77c0,6.52,5.28,11.8,11.8,11.8C14.67,82.58,17.8,81.47,19.34,79.42L19.34,79.42L19.34,79.42z
		 M30.73,76.41c1.98,1.37,4.13,2.03,6.21,2.03c1.98,0,4.02-1.02,4.02-2.81c0-2.38-4.45-2.75-7.24-3.7c-2.8-0.95-5.2-2.91-5.2-6.09
		c0-4.87,4.34-6.88,8.38-6.88c2.56,0,5.21,0.85,6.93,2.06c0.59,0.45,0.23,0.96,0.23,0.96l-1.64,2.34c-0.18,0.26-0.57,0.47-0.97,0.21
		c-1.1-0.73-2.33-1.43-4.55-1.43c-2.75,0-3.96,1.14-3.96,2.55c0,1.7,1.93,2.23,4.2,2.81c3.95,1.06,8.25,2.34,8.25,7.18
		c0,4.29-4.01,6.94-8.44,6.94c-3.36,0-6.22-0.96-8.62-2.72c-0.5-0.5-0.15-0.96-0.15-0.96l1.63-2.33
		C30.12,76.13,30.54,76.29,30.73,76.41L30.73,76.41z M67.58,79.42c0,0.7,1.2,2.68,2.68,2.68h0.96c0.37,0,0.67-0.3,0.67-0.67v-21h0
		c-0.02-0.36-0.31-0.64-0.67-0.64h-2.96c-0.36,0-0.65,0.28-0.67,0.64h0v1.71c-1.81-2.23-4.67-3.16-7.54-3.16
		c-6.52,0-11.8,5.28-11.8,11.8c0,6.52,5.28,11.8,11.8,11.8C62.9,82.58,66.03,81.47,67.58,79.42L67.58,79.42L67.58,79.42z
		 M60.05,78.45c-4.15,0-7.51-3.44-7.51-7.67c0-4.24,3.36-7.67,7.51-7.67c4.15,0,7.51,3.44,7.51,7.67
		C67.55,75.01,64.19,78.45,60.05,78.45L60.05,78.45z M98.41,80.14l0-10.86c0-6.12-3.86-10.26-10.03-10.26c-2.94,0-5.35,1.7-6.2,3.16
		v-0.02l0,0.02c0-1.48-1.2-2.34-2.68-2.34h-0.95c-0.37,0-0.67,0.3-0.67,0.67v21h0c0.02,0.35,0.31,0.64,0.67,0.64h2.96
		c0.05,0,0.09-0.01,0.13-0.01c0.02,0,0.04-0.01,0.06-0.02c0.02-0.01,0.05-0.01,0.07-0.02c0.03-0.01,0.05-0.03,0.08-0.04
		c0.01-0.01,0.02-0.01,0.04-0.02c0.03-0.02,0.06-0.04,0.08-0.07c0,0,0.01-0.01,0.01-0.01c0.12-0.12,0.2-0.28,0.21-0.45h0v-12.4
		c0-3.29,2.67-5.96,5.96-5.96c3.29,0,5.96,2.67,5.96,5.96l0,10.37l0,0c0,0.01,0,0.02,0,0.03v2.01h0c0.02,0.35,0.31,0.64,0.67,0.64
		h2.96c0.05,0,0.09-0.01,0.13-0.01c0.02,0,0.03-0.01,0.05-0.02c0.02-0.01,0.05-0.01,0.07-0.02c0.02-0.01,0.05-0.02,0.07-0.04
		c0.01-0.01,0.03-0.01,0.04-0.02c0.03-0.02,0.05-0.04,0.08-0.06c0.01,0,0.01-0.01,0.02-0.02c0.03-0.03,0.05-0.06,0.08-0.09
		c0.08-0.1,0.12-0.23,0.13-0.36l0,0h0L98.41,80.14L98.41,80.14z M121.5,79.42c0,0.7,1.2,2.68,2.68,2.68h0.96
		c0.37,0,0.67-0.3,0.67-0.67v-21h0c-0.02-0.36-0.31-0.64-0.67-0.64h-2.96c-0.36,0-0.65,0.28-0.67,0.64h0v1.71
		c-1.81-2.23-4.67-3.16-7.54-3.16c-6.52,0-11.8,5.28-11.8,11.8c0,6.52,5.28,11.8,11.8,11.8C116.82,82.58,119.95,81.47,121.5,79.42
		L121.5,79.42L121.5,79.42z M113.97,78.45c-4.15,0-7.51-3.44-7.51-7.67c0-4.24,3.36-7.67,7.51-7.67c4.14,0,7.5,3.44,7.5,7.67
		C121.47,75.01,118.11,78.45,113.97,78.45L113.97,78.45z"/>
	
		<radialGradient id="SVGID_1_" cx="-81.4061" cy="191.4445" r="0.0334" gradientTransform="matrix(944.8934 0 0 -873.3772 76983.1797 167227.2969)" gradientUnits="userSpaceOnUse">
		<stop  offset="0" style="stop-color:#FFB900"/>
		<stop  offset="0.6" style="stop-color:#F95D8F"/>
		<stop  offset="0.9991" style="stop-color:#F95353"/>
	</radialGradient>
	<path class="st1" d="M76.53,23.27c-5.71,0-10.34,4.63-10.34,10.34c0,5.71,4.63,10.34,10.34,10.34c5.71,0,10.34-4.63,10.34-10.34
		C86.87,27.9,82.24,23.27,76.53,23.27L76.53,23.27z M49.66,23.27c-5.71,0-10.34,4.63-10.34,10.34c0,5.71,4.63,10.34,10.34,10.34
		c5.71,0,10.34-4.63,10.34-10.34C60,27.9,55.37,23.27,49.66,23.27L49.66,23.27z M73.44,10.34c0,5.71-4.63,10.34-10.34,10.34
		c-5.71,0-10.34-4.63-10.34-10.34S57.38,0,63.09,0C68.81,0,73.44,4.63,73.44,10.34L73.44,10.34z"/>
</g>
</svg>
