<?xml version="1.0" encoding="utf-8"?>
<!-- Generator: Adobe Illustrator 23.1.0, SVG Export Plug-In . SVG Version: 6.00 Build 0)  -->
<svg version="1.1" id="Layer_1" xmlns="http://www.w3.org/2000/svg" xmlns:xlink="http://www.w3.org/1999/xlink" x="0px" y="0px"
	 width="152.37px" height="52.1px" viewBox="0 0 152.37 52.1" style="enable-background:new 0 0 152.37 52.1;" xml:space="preserve"
	>
<style type="text/css">
	.st0{fill:#FF3366;}
	.st1{fill:#FFFFFF;}
</style>
<g id="mdb-atlas-competitive-hires-comp">
	<g id="D---180426-atlas-competitive-dynamo-2" transform="translate(-1145.000000, -136.000000)">
		<g id="Hero" transform="translate(153.000000, -385.000000)">
			<g id="Grid" transform="translate(547.122366, 0.736576)">
				<g id="logo-invision" transform="translate(445.514531, 520.369318)">
					<path id="Fill-1" class="st0" d="M45.54-0.11H3.96c-2.54,0-4.6,2.13-4.6,4.72v42.65c0,2.59,2.08,4.72,4.6,4.72h41.58
						c2.54,0,4.6-2.13,4.6-4.72V4.62C50.14,2.03,48.05-0.11,45.54-0.11z"/>
					<path id="Fill-3" class="st0" d="M70.86,40.61h4.9V18.54h-4.9V40.61z M88.8,27.55c-2.51-0.81-4.83-1.52-4.83-3.1v-0.08
						c0-1.3,1.09-2.21,3.02-2.21c0.91,0,1.96,0.23,3.05,0.61c0,0,0,0,0.05,0c0.08,0.05,0.18,0.08,0.3,0.13
						c0.79,0.25,2.84,0.61,4.65-2.24c-2.26-1.55-5.18-2.51-7.87-2.51c-4.27,0-7.62,2.54-7.62,6.73v0.08c0,4.24,3.51,5.56,6.71,6.48
						c2.51,0.79,4.78,1.37,4.78,3.1v0.08c0,1.47-1.22,2.39-3.3,2.39c-1.37,0-2.92-0.38-4.47-1.12c-0.46-0.18-2.72-0.99-4.7,1.85
						c2.67,2.16,5.99,3.28,9.04,3.28c4.44,0,7.95-2.29,7.95-6.96v-0.05C95.45,30.02,91.92,28.57,88.8,27.55z M57.53,34.74
						l-5.74-16.26h-5.28l8.79,22.25h4.39l8.74-22.2h-5.16L57.53,34.74z M118.21,18.06c-6.58,0-11.43,5.23-11.43,11.58
						c0,6.3,4.83,11.46,11.35,11.46c6.6,0,11.48-5.23,11.48-11.53C129.59,23.21,124.74,18.06,118.21,18.06z M118.21,36.72
						c-3.81,0-6.53-3.25-6.53-7.16c0-3.89,2.51-7.09,6.45-7.09c3.86,0,6.58,3.25,6.58,7.16C124.66,33.52,122.15,36.72,118.21,36.72z
						 M144.12,18.06c-3.3,0-5.31,1.8-6.71,3.89v-3.4h-4.9v22.07h4.9V28.14c0-3.4,1.96-5.49,4.83-5.49c2.92,0,4.57,1.96,4.57,5.41
						v12.52h4.93v-14C151.74,21.43,148.94,18.06,144.12,18.06z M98.68,40.61h4.9V18.54h-4.9V40.61z"/>
					<path id="Fill-4" class="st1" d="M16.89,15.64c1.65,0,3.02-1.32,3.02-3.02c0-1.73-1.37-3.02-3.02-3.02s-3.02,1.32-3.02,3.02
						S15.24,15.64,16.89,15.64z"/>
					<path id="Fill-5" class="st1" d="M10.34,33.12c-0.18,0.79-0.3,1.6-0.3,2.26c0,2.69,1.47,4.47,4.65,4.47
						c2.62,0,4.72-1.52,6.25-3.96l-0.94,3.68h5.21l2.97-11.66c0.76-2.92,2.21-4.5,4.34-4.5c1.73,0,2.79,1.04,2.79,2.77
						c0,0.51-0.05,1.04-0.2,1.65l-1.52,5.36c-0.2,0.79-0.33,1.52-0.33,2.26c0,2.57,1.52,4.42,4.72,4.42c2.74,0,4.95-1.73,6.12-5.87
						l-2.03-0.79c-1.02,2.77-1.9,3.25-2.62,3.25c-0.69,0-1.07-0.46-1.07-1.37c0-0.41,0.08-0.86,0.2-1.4l1.57-5.21
						c0.38-1.24,0.51-2.31,0.51-3.3c0-3.91-2.41-5.94-5.33-5.94c-2.74,0-5.54,2.39-6.93,4.95l1.02-4.57h-7.95l-1.14,4.01h3.71
						l-2.29,8.97c-1.83,3.91-5.11,3.96-5.49,3.89c-0.69-0.18-1.09-0.41-1.09-1.27c0-0.51,0.08-1.19,0.33-2.06l3.45-13.49h-8.79
						l-1.14,4.01h3.68L10.34,33.12z"/>
				</g>
			</g>
		</g>
	</g>
</g>
</svg>
