<?xml version="1.0" encoding="utf-8"?>
<!-- Generator: Adobe Illustrator 22.0.1, SVG Export Plug-In . SVG Version: 6.00 Build 0)  -->
<svg version="1.1" id="Layer_1" xmlns="http://www.w3.org/2000/svg" xmlns:xlink="http://www.w3.org/1999/xlink" x="0px" y="0px"
	 width="56.8px" height="56.7px" viewBox="0 0 56.8 56.7" style="enable-background:new 0 0 56.8 56.7;" xml:space="preserve">
<style type="text/css">
	.st0{fill:#0037FF;}
	.st1{fill:#080738;}
</style>
<g>
	<path class="st0" d="M21,6.1c-2.7,2.7-4.5,5.9-5.4,9.4c1.7-0.5,3.5-0.7,5.2-0.7l-5.9,5.9c0,1.3,0.1,2.6,0.3,3.9l9.5-9.5
		c1.2,0.2,2.4,0.5,3.6,1c0.3-0.5,0.7-1,1.2-1.5c3.5-3.5,9.2-3.5,12.7,0c3.5,3.5,3.5,9.2,0,12.7c-0.5,0.5-1,0.9-1.5,1.2
		c0.4,1.2,0.8,2.4,1,3.6l-9.5,9.5c1.3,0.2,2.6,0.3,3.9,0.3l5.9-5.9c0,1.8-0.3,3.5-0.7,5.2c3.4-0.9,6.7-2.7,9.4-5.4
		c8.2-8.2,8.2-21.5,0-29.6C42.4-2,29.1-2,21,6.1"/>
	<path class="st1" d="M26.8,21.4c-0.1-1.8,0.4-3.7,1.4-5.3c-1.2-0.4-2.4-0.8-3.6-1l-9.5,9.5c0.2,1.2,0.5,2.4,1,3.6
		c0.3,0.9,0.7,1.8,1.2,2.7L26.8,21.4z M35.3,29.9l-9.5,9.5c0.9,0.5,1.8,0.9,2.7,1.2c1.2,0.4,2.4,0.8,3.6,1l9.5-9.5
		c-0.2-1.2-0.5-2.4-1-3.6C39,29.5,37.1,30,35.3,29.9 M41.2,41.2c0.5-1.7,0.7-3.5,0.7-5.2L36,41.9C37.7,41.9,39.5,41.7,41.2,41.2
		 M15.5,15.5c-0.5,1.7-0.7,3.5-0.7,5.2l5.9-5.9C19,14.8,17.2,15.1,15.5,15.5 M31.9,29.1c-0.9-0.4-1.7-1-2.5-1.8
		c-0.7-0.7-1.3-1.6-1.8-2.5L19,33.5c0.6,0.8,1.2,1.5,2,2.3c0.7,0.7,1.5,1.4,2.3,2L31.9,29.1z"/>
	<path class="st0" d="M15.5,15.5c-3.4,0.9-6.7,2.7-9.4,5.4c-4,4-6.1,9.3-6.1,14.6l14.8-14.8C14.8,19,15.1,17.2,15.5,15.5 M21.2,56.7
		c5.3-0.1,10.6-2.1,14.6-6.1c2.7-2.7,4.5-5.9,5.4-9.4c-1.7,0.5-3.5,0.7-5.2,0.7L21.2,56.7z M14.6,29.4c0.5-0.5,1-0.9,1.5-1.2
		c-0.4-1.2-0.8-2.4-1-3.6L0.3,39.5c0.4,2.2,1.1,4.3,2.2,6.3l9.5-9.5C11.9,33.8,12.7,31.3,14.6,29.4 M28.5,40.6
		c-0.3,0.5-0.7,1-1.2,1.5c-1.8,1.8-4.3,2.8-6.8,2.6L11,54.2c2,1.1,4.1,1.8,6.3,2.2l14.8-14.8C30.9,41.4,29.7,41.1,28.5,40.6
		 M14.6,42.1c-0.7-0.7-1.3-1.6-1.8-2.5l-8.7,8.7c0.6,0.8,1.2,1.5,2,2.3c0.7,0.7,1.5,1.4,2.3,2l8.7-8.7
		C16.2,43.4,15.4,42.9,14.6,42.1"/>
</g>
</svg>
