<?xml version="1.0" encoding="utf-8"?>
<!-- Generator: Adobe Illustrator 23.1.0, SVG Export Plug-In . SVG Version: 6.00 Build 0)  -->
<svg version="1.1" id="Layer_1" xmlns="http://www.w3.org/2000/svg" xmlns:xlink="http://www.w3.org/1999/xlink" x="0px" y="0px"
	 width="132.32px" height="85px" viewBox="0 0 132.32 85" style="enable-background:new 0 0 132.32 85;" xml:space="preserve">
<style type="text/css">
	.st0{fill:#FFFFFF;}
	.st1{fill:#02A234;}
	.st2{fill:#010101;}
	.st3{fill:#050505;}
	.st4{fill:#040404;}
	.st5{fill:#030303;}
	.st6{fill:#060606;}
	.st7{fill:#0C7826;}
	.st8{fill:#0B7D27;}
	.st9{fill:#127B2C;}
	.st10{fill:#28813F;}
	.st11{fill:#84B191;}
	.st12{fill:#86BF9B;}
	.st13{fill:#73A583;}
	.st14{fill:#04A234;}
	.st15{fill:#13802F;}
</style>
<g>
	<rect x="40.32" y="5.27" class="st0" width="51.02" height="41.29"/>
	<path class="st1" d="M66.14,0c7.11,0,14.22,0,21.32,0c4.39,0,6.44,2.05,6.44,6.44c0,13.68,0,27.36,0,41.03
		c0,4.33-2.06,6.42-6.35,6.42c-14.3,0-28.6,0-42.89,0c-4.22,0-6.32-2.1-6.32-6.32c0-13.76,0-27.52,0-41.28
		c0-4.2,2.11-6.29,6.35-6.29C51.85,0,59,0,66.14,0z M67.85,12.57l0.01,0.01c-0.09-0.08-0.18-0.17-0.28-0.25l0.02,0.02
		c-0.08-0.23-0.25-0.29-0.47-0.29c-2.1-0.76-4.29-0.11-4.7,2.99c-0.11,0.03-0.22,0.06-0.34,0.09l-0.03-0.04
		c0.02-0.16-0.05-0.23-0.21-0.21l-0.04-0.03c-0.03-0.25-0.19-0.33-0.42-0.32c-1.18-0.97-2.55-1.5-4.03-1.75
		c-2.99-0.5-6.01-0.2-9.01-0.24c-3.25-0.05-4.53,1.29-4.54,4.58c-0.01,6.85,0,13.69-0.01,20.54c0,1.17,0.18,2.29,0.76,3.32
		c0.11,1.21,1.18,2.55,2.24,2.8c1.54,0.36,2.89-0.16,3.66-1.41c0.37-0.61,0.55-1.26,0.54-1.99C50.98,38.26,51,36.13,51,33.89
		c1.72,0,3.24,0.05,4.76-0.01c2.36-0.1,4.67-0.46,6.62-1.97c0.01,1.84,0.04,3.69,0.02,5.53c-0.01,1.17,0.19,2.27,0.78,3.29
		c0.12,1.38,1.26,2.68,2.49,2.83c1.7,0.21,3.08-0.54,3.64-1.93c0.34-0.83,0.3-1.7,0.3-2.56c0-2.59,0-5.18,0-7.91
		c4.13,0,8.09,0,12.04,0c0.02,2.01,0.05,4.01,0.05,6.02c0,1.15,0.06,2.29,0.58,3.35c0.08,0.1,0.16,0.21,0.24,0.31l-0.01-0.02
		c0.08,1.55,1.1,2.62,2.61,2.74c2.4,0.2,3.81-1.25,3.82-4.03c0.02-7.31,0.03-14.62-0.02-21.93c-0.01-1.51-0.31-3.02-1.24-4.3
		l0.01,0.02c0-0.23-0.05-0.43-0.32-0.49l0.05,0.05c-0.09-0.1-0.18-0.2-0.28-0.3l0.04,0.04c-0.04-0.23-0.22-0.3-0.42-0.34
		c-2.89-1.27-4.92-0.03-5.05,3.14c-0.07,1.73,0,3.47-0.03,5.2c-0.02,0.93,0.17,1.87-0.14,2.81c-4.02,0-7.98,0-11.95,0
		c-0.01-2.21,0.09-4.43-0.06-6.64c-0.1-1.42-0.23-2.94-1.48-3.99l0.02,0.02C68.02,12.75,67.93,12.66,67.85,12.57z"/>
	<path class="st2" d="M78.53,64.71c1.48,0,2.92,0,4.44,0c0,2.68,0,5.31,0,8.01c2.96,0,5.83,0,8.85,0c0-2.62,0-5.28,0-8
		c1.57,0,3,0,4.51,0c0,6.6,0,13.23,0,19.92c-1.42,0-2.85,0-4.39,0c0-2.79,0-5.58,0-8.46c-3.02,0-5.92,0-8.92,0c0,2.79,0,5.58,0,8.45
		c-1.52,0-2.95,0-4.49,0C78.53,78.05,78.53,71.42,78.53,64.71z"/>
	<path class="st3" d="M4.57,84.67c-1.64,0-3.07,0-4.57,0c0-6.66,0-13.28,0-20.03c3.72,0.16,7.43-0.36,11.1,0.31
		c3.92,0.71,6.01,3.44,5.69,7.12c-0.23,2.58-2.24,4.59-5.18,5.23c-2.28,0.5-4.6,0.21-7.04,0.36C4.57,79.95,4.57,82.24,4.57,84.67z
		 M4.51,74.33c1.86-0.12,3.59,0.17,5.3-0.19c1.63-0.34,2.43-1.27,2.45-2.79c0.03-1.5-0.87-2.81-2.31-3.14
		c-1.77-0.41-3.58-0.15-5.45-0.21c0,0.44,0,0.68,0,0.93C4.51,70.65,4.51,72.39,4.51,74.33z"/>
	<path class="st4" d="M121.92,71.03c3.27-2.76,9.47-1.79,10.25,4.23c0.24,1.83,0.22,3.64-0.33,5.39c-1.35,4.29-6.3,5.72-9.77,2.85
		c-0.09-0.08-0.2-0.13-0.35-0.22c-0.11,0.47-0.22,0.9-0.33,1.37c-1.26,0-2.52,0-3.83,0c0-7.02,0-13.98,0-21.02c1.43,0,2.85,0,4.37,0
		C121.92,66.06,121.92,68.44,121.92,71.03z M121.92,77.31c0,0.58,0,1.16,0,1.74c0,1.56,0.49,2.23,1.89,2.59
		c1.52,0.39,3.03-0.07,3.54-1.29c0.85-2.01,0.86-4.12,0-6.14c-0.54-1.26-2.08-1.73-3.65-1.32c-1.25,0.33-1.77,1.09-1.78,2.56
		C121.92,76.07,121.92,76.69,121.92,77.31z"/>
	<path class="st4" d="M47.49,77.21c0.03-4.72,3.06-7.69,7.81-7.65c4.75,0.04,7.78,3.06,7.74,7.74c-0.03,4.67-3.14,7.72-7.83,7.67
		C50.46,84.93,47.46,81.91,47.49,77.21z M51.84,77.06c0.08,0.74,0.08,1.44,0.23,2.12c0.35,1.57,1.5,2.51,3.04,2.57
		c1.56,0.06,2.84-0.82,3.24-2.32c0.38-1.41,0.38-2.86,0.02-4.27c-0.38-1.48-1.55-2.35-3.06-2.38c-1.58-0.03-2.65,0.71-3.12,2.26
		C52,75.7,51.95,76.41,51.84,77.06z"/>
	<path class="st5" d="M109.84,80.28c0-3.46,0-6.92,0-10.42c1.46,0,2.85,0,4.31,0c0,4.93,0,9.82,0,14.78c-1.34,0-2.65,0-3.98,0
		c-0.26-0.34-0.07-0.78-0.21-1.17c-0.35-0.17-0.49,0.17-0.71,0.32c-2.09,1.42-4.32,1.54-6.6,0.61c-1.55-0.63-2.37-1.96-2.52-3.57
		c-0.33-3.62-0.07-7.25-0.15-10.95c1.49,0,2.87,0,4.38,0c0,2.69,0,5.36,0,8.03c0,0.21-0.01,0.41,0,0.62
		c0.04,1.19-0.09,2.47,1.36,3.02C107.07,82.07,108.66,81.6,109.84,80.28z"/>
	<path class="st4" d="M37.7,69.56c4.74,0.03,7.8,3.07,7.77,7.73c-0.03,4.66-3.15,7.72-7.84,7.69c-4.74-0.03-7.75-3.06-7.74-7.76
		C29.91,72.51,32.95,69.53,37.7,69.56z M34.29,77.14c0.04,0.57,0.04,1.19,0.15,1.8c0.3,1.75,1.53,2.81,3.22,2.82
		c1.69,0.01,2.89-1.05,3.23-2.8c0.23-1.19,0.22-2.37-0.03-3.55c-0.32-1.54-1.39-2.5-2.86-2.6c-1.73-0.12-2.83,0.62-3.39,2.22
		C34.35,75.71,34.41,76.41,34.29,77.14z"/>
	<path class="st6" d="M75.11,63.54c0.16,1.03,0.04,2-0.01,3.03c-1.15,0.08-2.38-0.31-3.27,0.69c-0.64,0.72-0.51,1.6-0.43,2.55
		c1.04,0,2.06,0,3.13,0c0,0.99,0,1.88,0,2.87c-1.02,0-2.04,0-3.18,0c0,4.04,0,7.98,0,11.98c-1.5,0-2.89,0-4.42,0
		c0-3.96,0-7.9,0-11.93c-0.87,0-1.59,0-2.39,0c0-0.98,0-1.87,0-2.78c0.72-0.27,1.48-0.01,2.31-0.19c0.06-2.13,0.17-4.32,2.35-5.56
		C71.06,63.12,73.05,63.14,75.11,63.54z"/>
	<path class="st3" d="M28.91,69.71c0,1.27,0,2.49,0,3.84c-0.97-0.14-1.87-0.15-2.76,0.03c-1.47,0.29-2.02,0.96-2.02,2.45
		c0,2.84,0,5.68,0,8.61c-1.46,0-2.84,0-4.31,0c0-4.88,0-9.8,0-14.76c1.33,0,2.64,0,3.93,0c0.33,0.44,0.09,0.92,0.33,1.49
		C25.32,69.86,26.91,69.25,28.91,69.71z"/>
	<path class="st7" d="M63.18,40.74c1.02,0.99,2.2,1.45,3.59,0.9c1.35-0.53,1.85-1.65,1.97-3.02c0.21-2.51,0.04-5.03,0.1-7.54
		c0.01-0.49,0-0.97,0-1.55c4.3,0,8.49,0,12.74,0c0.23,0.51,0.13,1.07,0.06,1.63c-3.96,0-7.91,0-12.04,0c0,2.74,0,5.33,0,7.91
		c0,0.87,0.04,1.73-0.3,2.56c-0.56,1.39-1.95,2.13-3.64,1.93C64.44,43.42,63.3,42.12,63.18,40.74z"/>
	<path class="st8" d="M44.58,40.99c1.01,1.05,2.23,1.45,3.6,0.95c1.35-0.5,1.93-1.65,1.96-3.03c0.04-2.18,0.01-4.37,0.01-6.45
		c0.64-0.46,1.2-0.3,1.72-0.3c1.94-0.01,3.89,0.06,5.81-0.26c1.84-0.31,3.43-1.14,4.74-2.49c0.04,0.69,0.07,1.38,0.11,2.07
		c-0.04,0.15-0.09,0.29-0.13,0.44c-1.96,1.5-4.26,1.86-6.62,1.97c-1.52,0.07-3.04,0.01-4.76,0.01c0,2.24-0.02,4.37,0.01,6.49
		c0.01,0.74-0.16,1.39-0.54,1.99c-0.77,1.25-2.12,1.76-3.66,1.41C45.76,43.54,44.68,42.2,44.58,40.99z"/>
	<path class="st9" d="M82.51,40.82c1.01,0.94,2.16,1.33,3.51,0.82c1.43-0.55,1.92-1.75,2-3.14c0.08-1.36,0.04-2.72,0.05-4.08
		c0-5.65-0.01-11.3,0.01-16.95c0-1.4-0.02-2.8-0.38-4.17c0.93,1.28,1.23,2.79,1.24,4.3c0.05,7.31,0.03,14.62,0.02,21.93
		c-0.01,2.78-1.42,4.23-3.82,4.03C83.61,43.44,82.59,42.37,82.51,40.82z"/>
	<path class="st10" d="M69.61,23.44c-0.25,0.05-0.49,0.06-0.84-0.21c0-2.13-0.02-4.37,0.01-6.61c0.02-1.32-0.11-2.6-0.7-3.81
		c1.25,1.05,1.38,2.56,1.48,3.98C69.71,19.01,69.61,21.23,69.61,23.44z"/>
	<path class="st11" d="M62.66,15.54c-0.39,0.14-0.48-0.13-0.56-0.41c0.11-0.03,0.22-0.06,0.34-0.09
		C62.6,15.17,62.7,15.33,62.66,15.54z"/>
	<path class="st10" d="M67.61,12.34c-0.22,0-0.36-0.12-0.47-0.29C67.36,12.05,67.54,12.12,67.61,12.34z"/>
	<path class="st11" d="M61.82,14.86c-0.21-0.01-0.36-0.11-0.42-0.32C61.63,14.54,61.79,14.61,61.82,14.86z"/>
	<path class="st9" d="M87.71,13.32c-0.23-0.08-0.33-0.25-0.32-0.49C87.65,12.89,87.7,13.09,87.71,13.32z"/>
	<path class="st9" d="M87.2,12.63c-0.22-0.01-0.34-0.15-0.42-0.34C86.98,12.33,87.15,12.4,87.2,12.63z"/>
	<path class="st10" d="M67.86,12.58c-0.09-0.08-0.18-0.17-0.28-0.25C67.68,12.41,67.77,12.5,67.86,12.58z"/>
	<path class="st9" d="M82.29,40.53c0.08,0.1,0.16,0.21,0.24,0.31C82.45,40.74,82.37,40.63,82.29,40.53z"/>
	<path class="st11" d="M62.07,15.1c-0.14,0-0.21-0.07-0.21-0.21C62.02,14.87,62.09,14.94,62.07,15.1z"/>
	<path class="st9" d="M87.43,12.89c-0.18-0.02-0.27-0.13-0.28-0.3C87.25,12.68,87.34,12.79,87.43,12.89z"/>
	<path class="st10" d="M68.1,12.84c-0.17-0.01-0.24-0.12-0.25-0.28C67.93,12.66,68.02,12.75,68.1,12.84z"/>
	<path class="st12" d="M62.51,31.48c-0.04-0.69-0.07-1.38-0.11-2.07c-0.06-0.13,0.01-0.2,0.12-0.24c0.97,0.02,1.07-0.87,1.47-1.43
		c1.05-1.5,1.09-3.35,1.65-5.01C66.36,25.35,64.78,30.49,62.51,31.48z"/>
	<path class="st13" d="M65.65,22.72c-0.57,1.67-0.6,3.51-1.65,5.01c-0.39,0.56-0.5,1.45-1.47,1.43c2.12-2.75,2.63-5.87,2.08-9.22
		c-0.05-0.31-0.25-0.64,0.03-0.94C65.39,20.13,65.49,21.44,65.65,22.72z"/>
	<path class="st11" d="M64.23,18.55c-0.45-1.04-1.36-1.85-1.58-3.02c1.05,0.74,1.52,1.85,1.96,2.99
		C64.49,18.53,64.36,18.54,64.23,18.55z"/>
	<path class="st13" d="M64.23,18.55c0.13-0.01,0.26-0.02,0.39-0.03c0.01,0.17,0.02,0.33,0.03,0.5
		C64.25,19.09,64.31,18.76,64.23,18.55z"/>
	<path class="st14" d="M58.27,21.47c0.63,2.78-1.42,4.58-3.34,4.76c-1.31,0.12-2.61,0.21-3.92,0.07c0.05-2.03-0.13-4.07,0.12-6.21
		C53.7,20,56.2,19.51,58.27,21.47z"/>
	<path class="st15" d="M58.27,21.47c-2.07-1.96-4.58-1.47-7.15-1.38c-0.25,2.14-0.08,4.18-0.12,6.21c-0.52,0.12-0.8-0.08-0.8-0.61
		c-0.01-2.38,0-4.76,0-7.35c2.17,0.02,4.26-0.43,6.24,0.53C57.48,19.38,58.17,20.25,58.27,21.47z"/>
</g>
</svg>
