<?xml version="1.0" encoding="utf-8"?>
<!-- Generator: Adobe Illustrator 23.1.0, SVG Export Plug-In . SVG Version: 6.00 Build 0)  -->
<svg version="1.1" id="Layer_1" xmlns="http://www.w3.org/2000/svg" xmlns:xlink="http://www.w3.org/1999/xlink" x="0px" y="0px"
	 width="158.08px" height="40px" viewBox="0 0 158.08 40" style="enable-background:new 0 0 158.08 40;" xml:space="preserve">
<style type="text/css">
	.st0{fill-rule:evenodd;clip-rule:evenodd;}
	.st1{fill-rule:evenodd;clip-rule:evenodd;fill:#E01E5A;}
	.st2{fill-rule:evenodd;clip-rule:evenodd;fill:#36C5F0;}
	.st3{fill-rule:evenodd;clip-rule:evenodd;fill:#2EB67D;}
	.st4{fill-rule:evenodd;clip-rule:evenodd;fill:#ECB22E;}
</style>
<g>
	<path class="st0" d="M50.57,31.5l1.97-4.58c2.13,1.59,4.97,2.42,7.77,2.42c2.07,0,3.38-0.8,3.38-2c-0.03-3.38-12.39-0.73-12.48-9.2
		c-0.03-4.3,3.79-7.61,9.2-7.61c3.22,0,6.43,0.8,8.73,2.61l-1.85,4.68c-2.1-1.34-4.71-2.3-7.2-2.3c-1.69,0-2.8,0.8-2.8,1.81
		c0.03,3.31,12.48,1.5,12.61,9.59c0,4.39-3.72,7.49-9.07,7.49C56.91,34.39,53.31,33.47,50.57,31.5 M126.33,25.25
		c-0.99,1.72-2.83,2.9-4.97,2.9c-3.16,0-5.7-2.55-5.7-5.7s2.55-5.7,5.7-5.7c2.13,0,3.98,1.18,4.97,2.9l5.44-3.02
		c-2.04-3.63-5.96-6.11-10.41-6.11c-6.6,0-11.94,5.35-11.94,11.94s5.35,11.94,11.94,11.94c4.49,0,8.38-2.45,10.41-6.11L126.33,25.25
		z M72.64,0.61h6.82v33.34h-6.82V0.61z M134.45,0.61v33.34h6.82v-10l8.09,10h8.73l-10.29-11.88l9.52-11.08h-8.35l-7.71,9.2V0.61
		L134.45,0.61z"/>
	<path d="M99.71,25.32c-0.99,1.63-3.02,2.83-5.32,2.83c-3.16,0-5.7-2.55-5.7-5.7s2.55-5.7,5.7-5.7c2.3,0,4.33,1.27,5.32,2.93V25.32z
		 M99.71,10.99v2.71c-1.11-1.88-3.88-3.19-6.78-3.19c-5.99,0-10.7,5.29-10.7,11.91s4.71,11.98,10.7,11.98c2.9,0,5.67-1.3,6.78-3.19
		v2.71h6.82V10.99L99.71,10.99z"/>
	<g>
		<path class="st1" d="M8.44,25.29c0,2.33-1.88,4.2-4.2,4.2s-4.2-1.88-4.2-4.2s1.88-4.2,4.2-4.2h4.2V25.29z M10.54,25.29
			c0-2.33,1.88-4.2,4.2-4.2s4.2,1.88,4.2,4.2V35.8c0,2.33-1.88,4.2-4.2,4.2s-4.2-1.88-4.2-4.2L10.54,25.29z"/>
		<path class="st2" d="M14.75,8.41c-2.33,0-4.2-1.88-4.2-4.2S12.42,0,14.75,0s4.2,1.88,4.2,4.2v4.2H14.75z M14.75,10.54
			c2.33,0,4.2,1.88,4.2,4.2s-1.88,4.2-4.2,4.2H4.2c-2.33,0-4.2-1.88-4.2-4.2s1.88-4.2,4.2-4.2L14.75,10.54z"/>
		<path class="st3" d="M31.59,14.75c0-2.33,1.88-4.2,4.2-4.2s4.2,1.88,4.2,4.2s-1.88,4.2-4.2,4.2h-4.2L31.59,14.75z M29.49,14.75
			c0,2.33-1.88,4.2-4.2,4.2s-4.2-1.88-4.2-4.2V4.2c0-2.33,1.88-4.2,4.2-4.2s4.2,1.88,4.2,4.2V14.75z"/>
		<path class="st4" d="M25.29,31.59c2.33,0,4.2,1.88,4.2,4.2s-1.88,4.2-4.2,4.2s-4.2-1.88-4.2-4.2v-4.2L25.29,31.59z M25.29,29.49
			c-2.33,0-4.2-1.88-4.2-4.2s1.88-4.2,4.2-4.2h10.54c2.33,0,4.2,1.88,4.2,4.2s-1.88,4.2-4.2,4.2H25.29z"/>
	</g>
</g>
</svg>
