<?xml version="1.0" encoding="utf-8"?>
<!-- Generator: Adobe Illustrator 23.1.0, SVG Export Plug-In . SVG Version: 6.00 Build 0)  -->
<svg version="1.1" id="Layer_1" xmlns="http://www.w3.org/2000/svg" xmlns:xlink="http://www.w3.org/1999/xlink" x="0px" y="0px"
	 width="142px" height="55px" viewBox="0 0 142 55" style="enable-background:new 0 0 142 55;" xml:space="preserve">
<g>
	<path d="M24.25,0.63c0.14,0.28,0.44,0.34,0.68,0.48C31.95,5.24,38.96,9.37,46,13.47c0.69,0.4,0.97,0.87,0.97,1.67
		c-0.02,8.28-0.02,16.56,0,24.84c0,0.8-0.27,1.27-0.96,1.67c-7.06,4.11-14.1,8.25-21.13,12.41c-0.7,0.41-1.23,0.41-1.93,0
		C15.92,49.9,8.87,45.77,1.83,41.63c-0.33-0.19-0.63-0.43-0.95-0.64c0-8.93,0-17.87,0-26.8c0.29-0.29,0.63-0.52,0.99-0.73
		c4.36-2.56,8.72-5.11,13.08-7.68c2.9-1.71,5.79-3.44,8.68-5.15C23.84,0.63,24.05,0.63,24.25,0.63z M5.49,27.57
		c0,3.3,0.01,6.59-0.01,9.89c0,0.64,0.19,1.06,0.76,1.39c5.64,3.29,11.28,6.6,16.91,9.93c0.53,0.31,0.97,0.33,1.51,0.01
		c2.56-1.53,5.13-3.04,7.71-4.53c0.56-0.33,0.78-0.74,0.77-1.39c-0.02-6.59-0.02-13.19,0-19.78c0-0.69-0.25-1.09-0.84-1.43
		c-5.6-3.27-11.19-6.55-16.77-9.85c-0.62-0.37-1.12-0.34-1.72,0.02c-2.47,1.48-4.95,2.94-7.45,4.37c-0.65,0.37-0.9,0.81-0.9,1.55
		C5.5,21.02,5.49,24.3,5.49,27.57z M37.85,40.83c0.31,0.07,0.5-0.1,0.69-0.22c1.03-0.6,2.05-1.22,3.09-1.8
		c0.51-0.29,0.72-0.67,0.72-1.26c-0.01-6.67-0.01-13.34,0-20.01c0-0.56-0.19-0.92-0.67-1.2c-5.71-3.34-11.41-6.69-17.1-10.04
		c-0.45-0.27-0.85-0.28-1.31-0.01c-1.11,0.67-2.23,1.32-3.35,1.98c-0.15,0.09-0.33,0.16-0.34,0.4c0.14,0.3,0.46,0.39,0.72,0.54
		c5.48,3.22,10.95,6.45,16.44,9.64c0.72,0.42,1.01,0.9,1,1.73c-0.03,6.41-0.02,12.82-0.01,19.23
		C37.73,40.15,37.65,40.49,37.85,40.83z"/>
	<path d="M141.12,40.99c-1.11,0.17-2.21,0.06-3.36,0.06c-0.67-3.82-1.36-7.59-1.85-11.39c-0.47,3.81-1.13,7.58-1.78,11.37
		c-1.02,0-1.97,0-3,0c0.35-1.94,0.69-3.82,1.03-5.71c0.48-2.65,1.01-5.3,1.44-7.96c0.19-1.17-0.29-2.3-0.5-3.44
		c-0.56-3.09-1.18-6.16-1.77-9.25c-0.03-0.15-0.02-0.3-0.04-0.52c1.09,0,2.13,0,3.28,0c0.61,3.24,1.2,6.52,1.74,9.84
		c0.53-3.27,1.06-6.53,1.6-9.85c1,0,1.94,0,2.98,0c-0.32,1.72-0.63,3.4-0.94,5.07c-0.44,2.34-0.87,4.69-1.34,7.03
		c-0.21,1.04,0.14,2,0.32,2.99c0.66,3.73,1.36,7.45,2.05,11.17c0.02,0.1,0.09,0.18,0.13,0.27
		C141.12,40.78,141.12,40.89,141.12,40.99z"/>
	<path d="M100.77,14.08c2.35,0.06,4.64-0.15,6.9,0.14c1.36,0.17,2.12,1,2.23,2.59c0.18,2.54,0.16,5.08,0,7.62
		c-0.07,1.07-0.49,2.01-1.71,2.48c1.48,0.63,1.75,1.85,1.76,3.18c0.02,2.54,0.04,5.09-0.01,7.63c-0.05,2.37-0.88,3.23-3.26,3.32
		c-1.96,0.07-3.93,0.01-5.92,0.01C100.77,32.05,100.77,23.13,100.77,14.08z M104.11,28.48c0,3.2,0,6.29,0,9.43c0.42,0,0.78,0,1.14,0
		c1.21-0.01,1.42-0.19,1.42-1.38c0.01-2.28,0.01-4.56-0.01-6.84c-0.01-0.97-0.25-1.19-1.19-1.21
		C105.04,28.47,104.6,28.48,104.11,28.48z M104.09,25.29c0.59,0,1.1-0.01,1.62,0c0.61,0.01,0.94-0.31,0.95-0.89
		c0.02-2.07,0.02-4.15,0-6.22c0-0.43-0.17-0.84-0.69-0.89c-0.61-0.06-1.23-0.08-1.88,0.02C104.09,19.97,104.09,22.57,104.09,25.29z"
		/>
	<path d="M125.53,27.56c0,3.24,0.01,6.49,0,9.73c-0.01,3.1-0.9,3.98-4,3.98c-0.93,0-1.87,0.05-2.8-0.1
		c-1.44-0.23-2.17-0.93-2.37-2.36c-0.08-0.59-0.14-1.19-0.14-1.78c-0.01-6.31-0.01-12.61,0-18.92c0-0.78,0.06-1.55,0.27-2.31
		c0.27-0.98,0.92-1.57,1.89-1.74c1.65-0.28,3.31-0.27,4.96-0.01c1.12,0.18,1.78,0.9,2.01,2c0.13,0.61,0.18,1.23,0.18,1.86
		C125.53,21.12,125.53,24.34,125.53,27.56z M119.91,37.92c1.71,0.58,2.31,0.19,2.31-1.55c0.01-1.92,0-3.84,0-5.76
		c0-4.02,0.01-8.04-0.01-12.06c0-1.36-0.37-1.66-1.71-1.49c-0.2,0.03-0.4,0.09-0.54,0.13c-0.35,0.32-0.36,0.68-0.36,1.05
		c0,6.23,0,12.45,0,18.68C119.61,37.29,119.61,37.65,119.91,37.92z"/>
	<path d="M79.82,28.23c-0.06,2.87,0.12,6.43-0.08,9.98c-0.11,2.06-0.87,2.83-2.92,3.01c-1.32,0.12-2.64,0.13-3.96-0.08
		c-1.22-0.19-1.89-0.83-2.17-2.02c-0.16-0.69-0.17-1.39-0.17-2.09c0-6.31,0-12.61,0-18.92c0-0.7,0.02-1.4,0.18-2.09
		c0.26-1.14,0.95-1.82,2.11-2c1.47-0.22,2.95-0.23,4.42-0.04c1.64,0.21,2.34,1,2.51,2.66c0.12,1.19,0.09,2.38,0.09,3.58
		C79.82,22.67,79.82,25.11,79.82,28.23z M76.12,37.96c0.35-0.33,0.35-0.72,0.35-1.11c0-6.17,0-12.35,0-18.52
		c0-0.39,0.01-0.79-0.32-1.08c-1.68-0.6-2.29-0.19-2.29,1.54c0,5.91-0.01,11.83,0,17.74c0,1.49,0.37,1.78,1.85,1.54
		C75.86,38.05,76,37.99,76.12,37.96z"/>
	<path d="M90.29,26.34c0.5-4.06,1.15-8.1,1.77-12.2c0.96,0,1.91,0,2.93,0c-0.04,1.14-0.34,2.24-0.53,3.34
		c-0.84,4.75-1.73,9.49-2.56,14.24c-0.3,1.72-0.09,3.47-0.12,5.21c-0.03,1.35-0.01,2.69-0.01,4.09c-1.13,0-2.18,0-3.23,0
		c-0.15-0.33-0.1-0.64-0.08-0.95c0.36-5.72-0.51-11.32-1.63-16.9c-0.6-2.97-1.07-5.96-1.62-9.02c1.1,0,2.15,0,3.3,0
		C89.16,18.18,89.87,22.23,90.29,26.34z"/>
	<path d="M62.74,41.02c-1.16,0-2.21,0-3.36,0c0-7.93,0-15.83,0-23.72c-0.77-0.23-1.48,0.01-2.19-0.19c0-0.98,0-1.96,0-2.98
		c2.58,0,5.14,0,7.72,0c0,1.02,0,1.99,0,3.06c-0.73,0-1.41,0-2.17,0C62.74,25.16,62.74,33.04,62.74,41.02z"/>
	<path d="M28.5,32.97c0,2.39-0.02,4.77,0.01,7.16c0.01,0.68-0.2,1.12-0.81,1.44c-1.05,0.57-2.07,1.18-3.09,1.8
		c-0.47,0.29-0.88,0.31-1.37,0.02c-4.15-2.45-8.31-4.89-12.47-7.32c-0.48-0.28-0.69-0.64-0.69-1.2c0.01-4.88,0.01-9.75,0-14.63
		c0-0.56,0.21-0.93,0.69-1.2c1.1-0.63,2.2-1.27,3.29-1.93c0.46-0.28,0.85-0.25,1.3,0.01c4.15,2.45,8.31,4.89,12.47,7.32
		c0.52,0.31,0.68,0.71,0.67,1.28C28.49,28.15,28.5,30.56,28.5,32.97z"/>
</g>
</svg>
