<?xml version="1.0" encoding="utf-8"?>
<!-- Generator: Adobe Illustrator 22.0.1, SVG Export Plug-In . SVG Version: 6.00 Build 0)  -->
<svg version="1.1" id="Layer_1" xmlns="http://www.w3.org/2000/svg" xmlns:xlink="http://www.w3.org/1999/xlink" x="0px" y="0px"
	 width="55px" height="55px" viewBox="0 0 55 55" style="enable-background:new 0 0 55 55;" xml:space="preserve">
<style type="text/css">
	.st0{fill:#278CC0;}
</style>
<path class="st0" d="M27.5,0C12.3,0,0,12.3,0,27.5S12.3,55,27.5,55C42.7,55,55,42.7,55,27.5S42.7,0,27.5,0z M19.9,46.8
	c0.3-1.8,0.6-3.6,0.9-5.4c-6.1-3-9.9-9.1-8.9-16.2c1.3-9.6,8.7-14.5,18-13.7c0.7-1,1.5-2,2.4-2.9c1.6-1.8,3.9-1.8,2.8,0.3
	c-2.1,4-2.9,7-4.8,11.9c-1.8,5.2-4.6,12.7-8.3,26C21.7,48,19.8,47.8,19.9,46.8L19.9,46.8z M43.2,29.2c-1.2,9.2-9.8,14.4-18.3,13.5
	c0.6-2.1,0.9-3,1.6-4.7c0.5-1,2.6-1.4,4.1-2c3.2-1.1,5.6-4,6.1-7.6c0.3-2.5-0.4-5-1.9-6.9c-1-1.3-2-2.1-1.7-3.3
	c0.5-1.6,0.9-2.9,1.8-4.9C40.6,16.3,44.1,22.6,43.2,29.2L43.2,29.2z M18.3,26c-0.3,2.5,0.4,4.8,1.7,6.6c0.9,1.2,1.6,1.9,1.9,2.4
	c1.1-6,1.9-9.1,3-12.5c0.5-1.4,1.3-3.5,1.8-4.9C26,18,25,18.2,24.2,18.5C21.1,19.7,18.7,22.5,18.3,26L18.3,26z"/>
</svg>
