<?xml version="1.0" encoding="utf-8"?>
<!-- Generator: Adobe Illustrator 23.1.0, SVG Export Plug-In . SVG Version: 6.00 Build 0)  -->
<svg version="1.1" id="Layer_1" xmlns="http://www.w3.org/2000/svg" xmlns:xlink="http://www.w3.org/1999/xlink" x="0px" y="0px"
	 width="175.59px" height="50px" viewBox="0 0 175.59 50" style="enable-background:new 0 0 175.59 50;" xml:space="preserve">
<style type="text/css">
	.st0{fill:#3B22CD;}
	.st1{fill:#3A22CD;}
	.st2{fill:#3A21CD;}
</style>
<g>
	<path class="st0" d="M26.59,0c0.58,0.07,1.16,0.14,1.74,0.21c4.8,0.64,9.07,2.52,12.78,5.62c4.74,3.96,7.65,9.03,8.62,15.11
		c1.23,7.74-0.78,14.65-5.91,20.58c-3.86,4.46-8.78,7.12-14.58,8.15c-1.07,0.19-2.15,0.3-3.23,0.33c-0.62,0-1.24,0-1.86,0
		c-2.53-0.1-4.98-0.58-7.37-1.41C7.47,45.38,0.8,36.66,0.13,26.84C0.1,26.39,0.16,25.92,0,25.48c0-0.35,0-0.69,0-1.04
		c0.13-0.06,0.07-0.17,0.07-0.26c0.01-0.75,0.08-1.5,0.17-2.25c0.51-4.03,1.9-7.75,4.22-11.08C8.71,4.78,14.55,1.26,21.88,0.21
		c0.58-0.08,1.17-0.07,1.74-0.21C24.61,0,25.6,0,26.59,0z M45.73,25.05C45.7,13.26,36.25,4.58,25.59,4.36
		C13.54,4.12,4.51,13.75,4.42,24.75c-0.1,11.85,9.34,20.81,20.36,20.92C37.09,45.78,45.77,35.81,45.73,25.05z"/>
	<path class="st1" d="M175.59,26.81c-0.16,0.32-0.13,0.69-0.22,1.03c-0.71,2.82-2.3,4.89-5.16,5.71c-2.29,0.66-4.42,0.27-6.24-1.45
		c0,2.43,0,4.84,0,7.28c-1.53,0-3.02,0-4.52,0c0-6.99,0-13.97,0-20.98c1.49,0,2.98,0,4.49,0c0,0.43,0,0.84,0,1.33
		c0.19-0.18,0.33-0.31,0.47-0.43c1.06-0.91,2.31-1.26,3.68-1.33c3.54-0.16,6.5,2.48,7.27,5.98c0.09,0.4,0.15,0.81,0.22,1.22
		C175.59,25.72,175.59,26.27,175.59,26.81z M163.95,25.88c0,1.14,0.33,2.15,1.24,2.89c1.42,1.16,3.76,1.01,4.96-0.31
		c1.23-1.35,1.22-3.84-0.01-5.13c-1-1.05-2.66-1.38-4.11-0.81C164.73,23.04,163.95,24.29,163.95,25.88z"/>
	<path class="st2" d="M100.64,29.03c1.43,0,2.86,0,4.32,0c-0.07,0.44-0.26,0.81-0.45,1.17c-0.94,1.79-2.41,2.91-4.37,3.36
		c-2.43,0.56-4.77,0.31-6.9-1.05c-2.11-1.34-3.17-3.35-3.4-5.81c-0.17-1.85,0.17-3.6,1.18-5.16c1.52-2.34,3.75-3.45,6.5-3.56
		c1.87-0.07,3.57,0.41,5.03,1.59c1.89,1.54,2.75,3.58,2.84,5.98c0.03,0.7,0.01,1.41-0.17,2.13c-3.54,0-7.09,0-10.69,0
		c0.36,1.16,1.05,1.95,2.17,2.28C98.16,30.4,99.51,30.22,100.64,29.03z M94.53,24.26c2.12,0,4.23,0,6.33,0
		c-0.09-1.12-1.29-2.15-2.62-2.27C96.39,21.84,94.94,22.71,94.53,24.26z"/>
	<path class="st1" d="M157.73,33.39c-1.45,0-2.88,0-4.33,0c-0.08-0.34-0.01-0.68-0.04-1.02c-0.05-0.03-0.08-0.02-0.12,0.02
		c-1.11,1.16-2.51,1.49-4.05,1.43c-0.94-0.04-1.83-0.27-2.63-0.78c-1.18-0.74-1.82-1.83-1.97-3.19c-0.16-1.45,0.08-2.81,1.12-3.92
		c0.96-1.02,2.19-1.43,3.56-1.48c1.45-0.05,2.82,0.22,4.1,1.12c-0.03-0.89,0.11-1.72-0.22-2.52c-0.29-0.71-1.03-1.03-2.03-0.9
		c-0.85,0.11-1.33,0.55-1.45,1.33c-0.01,0.05-0.02,0.1-0.03,0.16c-1.44,0-2.88,0-4.36,0c-0.04-0.6,0.06-1.18,0.22-1.74
		c0.45-1.54,1.44-2.63,2.89-3.27c2-0.88,4.05-0.92,6.07-0.06c2.1,0.9,3.2,2.6,3.26,4.84c0.09,3.29,0.03,6.59,0.03,9.88
		C157.75,33.31,157.74,33.33,157.73,33.39z M151.12,30.63c0.49-0.02,1-0.07,1.47-0.32c0.48-0.26,0.78-0.65,0.77-1.21
		c-0.01-0.56-0.31-0.96-0.81-1.18c-0.84-0.36-1.7-0.4-2.56-0.09c-0.59,0.21-0.91,0.66-0.92,1.25c-0.01,0.62,0.28,1.08,0.87,1.33
		C150.3,30.58,150.69,30.62,151.12,30.63z"/>
	<path class="st0" d="M61.7,18.17c1.5,0,2.97,0,4.45,0c0.09,0.14,0.05,0.29,0.05,0.44c0,2.87,0,5.75,0,8.62
		c0,0.32,0.02,0.64,0.12,0.95c0.32,1,1.36,1.48,2.54,1.18c0.88-0.22,1.41-0.92,1.49-1.98c0.02-0.21,0.02-0.42,0.02-0.63
		c0-2.71,0-5.43,0-8.14c0-0.13,0-0.27,0-0.43c1.5,0,2.99,0,4.49,0c0,4.98,0,9.96,0,14.97c-1.47,0-2.96,0-4.48,0c0-0.39,0-0.79,0-1.2
		c-0.25,0.22-0.46,0.44-0.69,0.63c-1.02,0.83-2.23,1.1-3.5,1.01c-2.33-0.18-3.87-1.66-4.34-4.09c-0.1-0.53-0.17-1.07-0.17-1.62
		c0-3.12,0-6.24,0-9.36C61.68,18.41,61.69,18.3,61.7,18.17z"/>
	<path class="st2" d="M143.23,33.39c-1.53,0-2.99,0-4.46,0c-0.1-0.12-0.05-0.26-0.05-0.39c0-2.9,0-5.8,0-8.7
		c0-0.46-0.07-0.91-0.31-1.31c-0.45-0.73-1.16-0.9-1.96-0.84c-0.76,0.06-1.34,0.39-1.66,1.11c-0.22,0.5-0.26,1.03-0.26,1.56
		c0,2.7,0,5.41,0,8.11c0,0.15,0,0.29,0,0.46c-1.51,0-3,0-4.49,0c0-5,0-9.98,0-14.98c1.49,0,2.97,0,4.49,0c0,0.41,0,0.81,0,1.33
		c0.43-0.54,0.85-0.94,1.38-1.19c2.54-1.21,6.34-0.74,7.18,3.67c0.11,0.57,0.15,1.15,0.15,1.73c0,3.01,0,6.02,0,9.03
		C143.23,33.1,143.23,33.23,143.23,33.39z"/>
	<path class="st1" d="M88.48,23.09c-1.47,0-2.92,0-4.37,0c-0.26-1.29-1.49-1.84-2.66-1.21c-0.3,0.16-0.49,0.41-0.5,0.76
		c-0.01,0.38,0.2,0.63,0.51,0.8c0.61,0.33,1.28,0.42,1.95,0.56c0.98,0.2,1.96,0.38,2.88,0.78c1.83,0.8,2.61,2.23,2.48,4.27
		c-0.13,2-1.22,3.33-3.06,4c-2.27,0.82-4.55,0.82-6.75-0.24c-1.72-0.83-2.71-2.53-2.64-4.54c1.44,0,2.88,0,4.32,0
		c0.06,0.04,0.06,0.1,0.07,0.16c0.07,0.61,0.43,0.97,1,1.14c0.62,0.18,1.25,0.16,1.86-0.03c0.39-0.12,0.68-0.38,0.7-0.81
		c0.03-0.41-0.23-0.66-0.57-0.83c-0.67-0.33-1.41-0.42-2.13-0.57c-0.86-0.18-1.71-0.36-2.52-0.7c-2-0.84-2.79-2.41-2.57-4.54
		c0.17-1.69,1.08-2.91,2.61-3.59c2.3-1.03,4.65-1.09,6.91,0.11C87.73,19.54,88.44,21.13,88.48,23.09z"/>
	<path class="st1" d="M116.31,28.49c1.45,0,2.9,0,4.35,0c0.24,1.1,0.92,1.54,2.21,1.4c0.28-0.03,0.56-0.06,0.83-0.19
		c0.33-0.15,0.54-0.38,0.57-0.75c0.03-0.38-0.19-0.63-0.5-0.8c-0.56-0.31-1.18-0.41-1.8-0.53c-0.88-0.18-1.76-0.35-2.61-0.66
		c-1.58-0.58-2.66-1.58-2.87-3.33c-0.23-1.94,0.35-3.53,2.03-4.63c2.27-1.47,5.97-1.39,8.05,0.18c1.35,1.02,1.89,2.44,1.92,4.11
		c-1.47,0-2.92,0-4.37,0c-0.31-1.27-1.29-1.76-2.53-1.27c-0.36,0.14-0.6,0.39-0.63,0.79c-0.03,0.39,0.18,0.65,0.51,0.83
		c0.61,0.33,1.28,0.43,1.94,0.56c0.88,0.18,1.76,0.35,2.61,0.67c2.12,0.81,2.97,2.41,2.72,4.68c-0.19,1.73-1.16,2.93-2.73,3.57
		c-2.35,0.97-4.74,0.99-7.06-0.12C117.21,32.19,116.25,30.49,116.31,28.49z"/>
	<path class="st0" d="M106.82,33.38c0-4.99,0-9.97,0-14.97c1.49,0,2.97,0,4.49,0c0,0.7,0,1.39,0,2.09c0.75-1.69,2.12-2.35,3.89-2.41
		c0,1.71,0,3.39,0,5.1c-0.49-0.03-0.97-0.07-1.45,0.02c-1.54,0.29-2.43,1.39-2.43,3.06c0,2.23,0,4.46,0,6.7c0,0.13,0,0.27,0,0.42
		C109.81,33.38,108.33,33.38,106.82,33.38z"/>
	<path class="st1" d="M25.61,40.74c-6.95,0-12.74-4.85-13.96-11.63c-0.12-0.68,0.07-1.19,0.56-1.49c0.51-0.31,1.05-0.25,1.61,0.17
		c2.83,2.12,6.01,3.16,9.52,2.83c5.86-0.56,9.91-3.66,12.13-9.11c0.23-0.56,0.55-0.99,1.15-1.14c0.79-0.2,1.48,0.14,1.81,0.9
		c0.47,1.09,0.8,2.23,0.95,3.41c0.58,4.4-0.6,8.28-3.59,11.57c-2.19,2.41-4.94,3.83-8.15,4.35C26.94,40.71,26.23,40.76,25.61,40.74z
		"/>
</g>
</svg>
