<?xml version="1.0" encoding="utf-8"?>
<!-- Generator: Adobe Illustrator 23.1.0, SVG Export Plug-In . SVG Version: 6.00 Build 0)  -->
<svg version="1.1" id="Layer_1" xmlns="http://www.w3.org/2000/svg" xmlns:xlink="http://www.w3.org/1999/xlink" x="0px" y="0px"
	 width="65.4px" height="63.77px" viewBox="0 0 65.4 63.77" style="enable-background:new 0 0 65.4 63.77;" xml:space="preserve">
<style type="text/css">
	.st0{fill:#2E001E;}
	.st1{fill:#FF2BC2;}
</style>
<g>
	<path class="st0" d="M2.73,2.73h59.95v58.32H2.73V2.73z"/>
	<path class="st1" d="M0,0v63.77h65.4V0H0z M2.73,2.73h59.95v58.32H2.73V2.73z"/>
	<path class="st1" d="M47.5,26.79c-0.41-0.19-0.93-0.27-1.58-0.27c-3.43,0-5.72,2.64-5.72,7.03c0,5.01,2.34,7.03,5.4,7.03
		c0.65,0,1.36-0.08,1.88-0.3V26.79H47.5z M35.29,33.76c0-6.35,4.09-11.31,10.79-11.31c0.57,0,0.87,0,1.42,0.05v-7.09
		c0-0.16,0.14-0.27,0.27-0.27h4.39c0.22,0,0.27,0.08,0.27,0.22v24.91c0,0.74,0,1.66,0.14,2.67c0,0.19,0,0.22-0.16,0.3
		c-2.29,1.09-4.69,1.58-6.98,1.58C39.51,44.83,35.29,41.18,35.29,33.76L35.29,33.76z M26,29.35l7.63,14.8
		c0.14,0.22,0.05,0.44-0.16,0.44h-4.74c-0.3,0-0.44-0.08-0.57-0.35c-1.74-3.6-3.52-7.33-5.34-11.2h-0.05
		c-1.64,3.65-3.43,7.63-5.18,11.23c-0.14,0.22-0.27,0.3-0.49,0.3h-4.52c-0.27,0-0.3-0.22-0.16-0.38l7.47-14.36l-7.22-14.28
		c-0.16-0.22,0-0.41,0.19-0.41h4.69c0.27,0,0.41,0.05,0.49,0.3c1.72,3.62,3.46,7.19,5.1,10.85h0.05c1.58-3.6,3.32-7.22,4.99-10.79
		c0.14-0.22,0.22-0.35,0.49-0.35h4.39c0.22,0,0.3,0.16,0.16,0.41L26,29.35L26,29.35z"/>
</g>
</svg>
