<?xml version="1.0" encoding="utf-8"?>
<!-- Generator: Adobe Illustrator 23.1.0, SVG Export Plug-In . SVG Version: 6.00 Build 0)  -->
<svg version="1.1" id="Layer_1" xmlns="http://www.w3.org/2000/svg" xmlns:xlink="http://www.w3.org/1999/xlink" x="0px" y="0px"
	 width="184.11px" height="55.32px" viewBox="0 0 184.11 55.32" style="enable-background:new 0 0 184.11 55.32;"
	 xml:space="preserve">
<style type="text/css">
	.st0{fill-rule:evenodd;clip-rule:evenodd;fill:#F89920;}
	.st1{fill-rule:evenodd;clip-rule:evenodd;fill:#FFBE22;}
	.st2{fill-rule:evenodd;clip-rule:evenodd;fill:#F0670A;}
	.st3{fill-rule:evenodd;clip-rule:evenodd;fill:#FFD00E;}
	.st4{fill:#F0670A;}
	.st5{fill-rule:evenodd;clip-rule:evenodd;fill:#574751;}
	.st6{fill:#574751;}
</style>
<g id="g884" transform="translate(0.64018885)">
	<g id="g891" transform="matrix(1.2117164,0,0,1.2117164,-46.63877,7.1317533)">
		<path id="path4" class="st0" d="M44.04,26.63l-6.08-6.79l18.6-6.77l2.89,7.95L44.04,26.63z"/>
		<path id="path6" class="st1" d="M43.99,26.5l-0.29,9.11l18.6-6.77l-2.89-7.95L43.99,26.5z"/>
		<path id="path8" class="st2" d="M95.67,7.85c2.65,7.69-5.9,17.79-19.2,22.63c-13.3,4.84-26.34,2.6-29.25-5L95.67,7.85z"/>
		<path id="path10" class="st3" d="M95.67,7.85c-2.89-7.61-15.95-9.87-29.26-5.02C53.1,7.67,44.54,17.79,47.22,25.48L95.67,7.85z"/>
		<path id="path12" class="st0" d="M95.67,7.85c1.65,5.14-7.63,13.15-20.89,17.98c-13.26,4.83-25.52,4.66-27.56-0.35L95.67,7.85z"/>
		<path id="path14" class="st1" d="M95.67,7.85C93.66,2.82,81.38,2.64,68.1,7.48c-13.28,4.83-22.57,12.86-20.88,18L95.67,7.85z"/>
		<path id="path16" class="st4" d="M73.32,0.87c-1.27-4.38-2.71-6.8-4.34-6.76c-3.16,0.09-4.23,10.12-3.2,22.98
			c1.04,13,3.72,22.76,7.07,22.67c2-0.05,3.12-3.25,3.52-8.79c0.01-0.11-0.12-0.03-0.11-0.15c0,0-0.02-0.2-0.09-0.21l-0.42-0.03
			c-0.35,5.38-1.4,8.49-2.91,8.53c-2.75,0.07-5.41-9.58-6.4-22.07C65.44,4.77,66.5-5.16,69-5.23c1.18-0.03,2.51,2.2,3.68,6.23
			C72.68,1,73.32,0.87,73.32,0.87z"/>
		<path id="path18" class="st4" d="M57.64-2.25c-2.7,1.66,1.4,10.88,8.72,21.51c7.39,10.74,14.6,17.85,17.46,16.1
			c1.6-0.98,1.15-3.95-0.91-8.43c-0.07-0.17-0.26-0.25-0.42-0.18c-0.17,0.07-0.25,0.26-0.18,0.42c0,0.01,0.01,0.02,0.01,0.02
			c1.91,4.17,2.32,6.89,1.16,7.6c-2.35,1.44-9.47-5.6-16.58-15.91C59.9,8.74,55.85-0.39,57.98-1.7c1.13-0.7,3.82,0.98,7.37,4.61
			c0.04,0.04,0.27,0.28,0.32,0.29c0.11,0.03,0.05-0.2,0.14-0.29c0.13-0.13,0.13-0.33,0.01-0.46c0,0,0,0,0,0
			C62.02-1.42,59.17-3.2,57.64-2.25L57.64-2.25z"/>
	</g>
	<g id="g897" transform="matrix(1.3793172,0,0,1.3793172,-0.50366556,-30.454672)">
		<g id="g26" transform="matrix(0.35954067,0,0,0.35954067,-1.3281281,-4.029219)">
			<path id="path20" class="st5" d="M216.07,137.81h17.38v8.69h-27.52v-36.21h27.52v8.69h-17.38v4.35h10.86v8.69h-10.86
				L216.07,137.81z M295.01,137.81h15.93v8.69h-26.07v-36.21h10.14L295.01,137.81z M321.08,110.28h10.14v36.21h-10.14V110.28z
				 M342.81,110.28v36.21h9.42v-20.28l13.04,20.28h9.42v-36.21h-9.42v20.58l-13.04-20.53L342.81,110.28z"/>
			<path id="path22" class="st6" d="M253.72,126.94h7.25c2.4,0,4.34-1.95,4.34-4.34c0,0,0,0,0,0c0-2.4-1.94-4.34-4.34-4.35
				c0,0,0,0,0,0h-7.26L253.72,126.94L253.72,126.94z M262.42,110.29c6.8,0,12.31,5.51,12.31,12.31c0,0,0,0,0,0
				c0,6.8-5.51,12.31-12.31,12.31h-7.68v11.59h-10.43v-36.21L262.42,110.29L262.42,110.29z"/>
			<path id="path24" class="st5" d="M194.34,118.98v-8.69h-29.69v8.69h16.66l-16.66,18.83v8.69h29.69v-8.69h-15.93L194.34,118.98z"
				/>
		</g>
	</g>
</g>
</svg>
