<?xml version="1.0" encoding="utf-8"?>
<!-- Generator: Adobe Illustrator 22.0.1, SVG Export Plug-In . SVG Version: 6.00 Build 0)  -->
<svg version="1.1" id="Layer_1" xmlns="http://www.w3.org/2000/svg" xmlns:xlink="http://www.w3.org/1999/xlink" x="0px" y="0px"
	 width="50px" height="50px" viewBox="0 0 50 50" style="enable-background:new 0 0 50 50;" xml:space="preserve">
<style type="text/css">
	.st0{fill:none;stroke:#000000;stroke-miterlimit:10;}
</style>
<g>
	<line class="st0" x1="1.3" y1="25" x2="48.8" y2="25"/>
	<line class="st0" x1="25" y1="1.2" x2="25" y2="25"/>
	<path class="st0" d="M1.3,25C1.3,11.9,11.9,1.2,25,1.2S48.8,11.9,48.8,25"/>
	<path class="st0" d="M25,1.2c0,0-12.7,5.1-12.7,23.8"/>
	<path class="st0" d="M12.3,25"/>
	<path class="st0" d="M25,1.2c0,0,12.7,5.1,12.7,23.8"/>
	<path class="st0" d="M37.7,25"/>
	<path class="st0" d="M25,14.8c-13.1,0-16.5-6.9-16.5-6.9"/>
	<path class="st0" d="M41.5,7.9c0,0-3.4,6.9-16.5,6.9"/>
	<path class="st0" d="M35.3,12.7"/>
	<line class="st0" x1="25" y1="48.8" x2="25" y2="25"/>
	<path class="st0" d="M48.8,25c0,13.1-10.6,23.8-23.8,23.8S1.3,38.1,1.3,25"/>
	<path class="st0" d="M25,48.8c0,0,12.7-5.1,12.7-23.8"/>
	<path class="st0" d="M37.7,25"/>
	<path class="st0" d="M25,48.8c0,0-12.7-5.1-12.7-23.8"/>
	<path class="st0" d="M12.3,25"/>
	<path class="st0" d="M41.5,42.1c0,0-3.4-6.9-16.5-6.9"/>
	<path class="st0" d="M8.5,42.1c0,0,3.4-6.9,16.5-6.9"/>
	<path class="st0" d="M14.7,37.3"/>
</g>
</svg>
