<?xml version="1.0" encoding="utf-8"?>
<!-- Generator: Adobe Illustrator 22.0.1, SVG Export Plug-In . SVG Version: 6.00 Build 0)  -->
<svg version="1.1" id="Layer_1" xmlns="http://www.w3.org/2000/svg" xmlns:xlink="http://www.w3.org/1999/xlink" x="0px" y="0px"
	 width="169.2px" height="22px" viewBox="0 0 169.2 22" style="enable-background:new 0 0 169.2 22;" xml:space="preserve">
<style type="text/css">
	.st0{fill:#E00024;}
</style>
<path class="st0" d="M73.1,14.3h11.2l-5.9-9.5L67.5,22h-4.9L75.7,1.3C76.3,0.5,77.3,0,78.3,0c1,0,2,0.5,2.5,1.3L94.1,22h-4.9
	l-2.3-3.8H75.5L73.1,14.3L73.1,14.3z M124.4,18.2V0.2h-4.2v19.7c0,0.5,0.2,1.1,0.6,1.5c0.4,0.4,0.9,0.6,1.5,0.6h19.1l2.5-3.8H124.4
	L124.4,18.2z M55,14.9c4.1,0,7.4-3.3,7.4-7.4c0-4.1-3.3-7.4-7.4-7.4H36.7V22h4.2V4.1h13.9c1.9,0,3.5,1.6,3.5,3.5
	c0,1.9-1.6,3.5-3.5,3.5l-11.8,0L55.4,22h6.1l-8.4-7.1L55,14.9L55,14.9z M10.9,22C4.9,22,0,17.1,0,11.1c0-6,4.9-10.9,10.9-10.9h12.7
	c6,0,10.9,4.9,10.9,10.9c0,6-4.9,10.9-10.9,10.9H10.9L10.9,22z M23.3,18.2c3.9,0,7.1-3.1,7.1-7c0-3.9-3.2-7.1-7.1-7.1H11.2
	c-3.9,0-7.1,3.2-7.1,7.1c0,3.9,3.2,7,7.1,7H23.3L23.3,18.2z M102.9,22c-6,0-10.9-4.9-10.9-10.9c0-6,4.9-10.9,10.9-10.9h15l-2.5,3.8
	h-12.3c-3.9,0-7.1,3.2-7.1,7.1c0,3.9,3.2,7,7.1,7h15.1l-2.5,3.8H102.9L102.9,22z M154.1,18.2c-3.2,0-5.9-2.2-6.8-5.1h17.9l2.5-3.8
	h-20.4c0.8-3,3.6-5.1,6.8-5.1h12.3l2.5-3.8h-15.1c-6,0-10.9,4.9-10.9,10.9c0,6,4.9,10.9,10.9,10.9h12.9l2.5-3.8H154.1L154.1,18.2z"
	/>
</svg>
