<?xml version="1.0" encoding="utf-8"?>
<!-- Generator: Adobe Illustrator 22.0.1, SVG Export Plug-In . SVG Version: 6.00 Build 0)  -->
<svg version="1.1" id="Layer_1" xmlns="http://www.w3.org/2000/svg" xmlns:xlink="http://www.w3.org/1999/xlink" x="0px" y="0px"
	 width="155px" height="41.5px" viewBox="0 0 155 41.5" style="enable-background:new 0 0 155 41.5;" xml:space="preserve">
<style type="text/css">
	.st0{fill:#000586;}
</style>
<g id="Page-1_1_">
	<g id="Global-Elements_1_" transform="translate(-389.000000, -140.000000)">
		<g id="Global-Nav-Copy-16_1_" transform="translate(290.000000, 125.000000)">
			<g id="WWR_logo_1_" transform="translate(99.000000, 15.000000)">
				<g id="Group-10_1_">
					<path id="Fill-1_1_" class="st0" d="M38.7,39.6c0,0.7-0.5,1.2-1.2,1.2c-0.7,0-1.2-0.5-1.2-1.2c0-0.7,0.5-1.2,1.2-1.2
						C38.2,38.4,38.7,38.9,38.7,39.6z M38.5,39.6c0-0.6-0.4-1-1-1s-1,0.4-1,1c0,0.6,0.4,1,1,1C38.1,40.6,38.5,40.2,38.5,39.6z
						 M37.8,40.2c0,0,0-0.1-0.1-0.1l0-0.2c0-0.1-0.1-0.1-0.2-0.1h-0.2v0.4h-0.3V39h0.6c0.3,0,0.4,0.1,0.4,0.4c0,0.2-0.1,0.3-0.3,0.3
						c0.1,0,0.2,0.1,0.2,0.2l0.1,0.2c0,0.1,0,0.1,0.1,0.1L37.8,40.2L37.8,40.2z M37.6,39.2h-0.2v0.3h0.2c0.1,0,0.2-0.1,0.2-0.2
						C37.7,39.3,37.7,39.2,37.6,39.2z"/>
					<path id="Fill-3_1_" class="st0" d="M41.5,20.8C41.5,9.3,32.2,0,20.8,0S0,9.3,0,20.8s9.3,20.8,20.8,20.8S41.5,32.2,41.5,20.8z
						 M27,21.6h4.1L27,35.4h-4.3l-1.9-8.5h-0.1l-1.9,8.5h-4.3l-4.1-13.8h4.1L10.5,7.7h4.3l2,8.9h0.1l2.1-8.9h3.7l2.1,8.9h0.1l2-8.9
						h4.3L27,21.6z M24.7,30.5l2-8.9h-4l-1.9-8.5h-0.1l-1.9,8.5h-4l2,8.9h0.1l2.1-8.9h3.7L24.7,30.5L24.7,30.5z"/>
					<path id="Fill-6_1_" class="st0" d="M54,23.8c-1.4-0.3-2.4,0.5-2.7,1.8l-0.3-1.7H49v7.4h2.4v-3.4c0-1.3,0.7-1.8,1.6-1.8
						c0.4,0,0.7,0.1,0.9,0.2L54,23.8z M57.8,29.7c-0.8,0-1.4-0.6-1.4-1.7H61c0.1-0.3,0.1-0.7,0.1-1c0-1.8-1.1-3.3-3.2-3.3
						c-2.3,0-3.7,1.5-3.7,4c0,2.4,1.4,3.8,3.7,3.8c1.4,0,2.8-0.6,3.2-2.1l-2-0.7C58.9,29.4,58.4,29.7,57.8,29.7z M56.5,26.9
						c0.1-0.9,0.6-1.5,1.3-1.5c0.7,0,1.1,0.5,1.1,1.1c0,0.1,0,0.2,0,0.3H56.5z M64.8,21.8c0-0.8-0.7-1.3-1.4-1.3S62,21,62,21.8
						c0,0.8,0.7,1.3,1.4,1.3S64.8,22.6,64.8,21.8z M62.2,31.3h2.4v-7.4h-2.4V31.3z M73,25.3c-0.3-1-1.1-1.6-2.2-1.6
						c-1,0-1.9,0.6-2.3,1.6l-0.3-1.4h-2.1v7.4h2.4v-4c0-1.1,0.5-1.6,1.1-1.6c0.7,0,0.9,0.4,0.9,1.2v4.4h2.4v-4
						c0-1.1,0.5-1.6,1.1-1.6c0.7,0,0.9,0.4,0.9,1.2v4.4h2.4v-5.2c0-1.6-1-2.4-2.3-2.4C74.2,23.7,73.3,24.3,73,25.3z M85.3,26.2
						c0-1.6-1-2.5-3.1-2.5c-1.9,0-3.1,0.9-3.2,2.4l2.2,0.3c0-0.6,0.3-1,0.9-1c0.6,0,0.8,0.3,0.8,0.9V27c-0.3,0-0.6,0-0.9,0
						c-2.1,0-3.4,0.8-3.4,2.3c0,1.4,1,2.2,2.4,2.2c1,0,1.8-0.4,2.1-1.2c0.1,0.2,0.1,0.4,0.3,0.5c0.3,0.4,0.9,0.7,1.5,0.7
						c0.5,0,1-0.1,1.3-0.4l-0.1-1.6c-0.1,0.1-0.3,0.2-0.4,0.2c-0.3,0-0.5-0.1-0.5-0.5V26.2z M82.9,28.7c0,0.9-0.6,1.2-1.1,1.2
						c-0.6,0-0.9-0.3-0.9-0.8c0-0.6,0.5-0.9,1.5-0.9c0.2,0,0.4,0,0.5,0L82.9,28.7L82.9,28.7z M89.2,26.2c0-0.7,0.4-1.1,1-1.1
						c0.6,0,1,0.4,1,1.1c0,0.7-0.4,1.1-1,1.1C89.6,27.3,89.2,26.9,89.2,26.2z M94.4,31.6c0-1.5-1-2.2-3.1-2.2h-2
						c-0.3,0-0.5-0.1-0.5-0.4c0-0.2,0.1-0.4,0.4-0.5c0.3,0.1,0.7,0.1,1.1,0.1c1.9,0,3.4-0.8,3.4-2.5c0-0.5-0.1-0.9-0.4-1.3
						c0.6-0.1,1.3-0.6,1.4-1.4l-1.9-0.6c0,0.5-0.2,0.9-0.4,1.2c-0.6-0.3-1.2-0.4-2-0.4c-2,0-3.4,0.9-3.4,2.5c0,1,0.5,1.7,1.4,2.1
						c-0.8,0.2-1.4,0.7-1.4,1.5c0,0.7,0.4,1.2,1.1,1.4c-0.9,0.1-1.6,0.6-1.6,1.4c0,1.4,1.9,1.9,3.6,1.9
						C92.1,34.4,94.4,33.7,94.4,31.6z M88.3,32.1c0-0.4,0.3-0.6,0.9-0.6h2.1c0.6,0,1,0.2,1,0.6c0,0.6-0.9,0.9-2.2,0.9
						C89,33,88.3,32.7,88.3,32.1z M97.9,21.8c0-0.8-0.7-1.3-1.4-1.3s-1.4,0.5-1.4,1.3c0,0.8,0.7,1.3,1.4,1.3
						C97.2,23.1,97.9,22.6,97.9,21.8z M95.2,31.3h2.4v-7.4h-2.4V31.3z M101.3,23.9h-2.1v7.4h2.4v-4c0-1.1,0.6-1.6,1.2-1.6
						c0.7,0,1,0.4,1,1.2v4.4h2.4v-5.2c0-1.6-1-2.4-2.3-2.4c-1.1,0-2,0.6-2.4,1.6L101.3,23.9z M111,29.7c-0.8,0-1.4-0.6-1.4-1.7h4.5
						c0.1-0.3,0.1-0.7,0.1-1c0-1.8-1.1-3.3-3.2-3.3c-2.3,0-3.7,1.5-3.7,4c0,2.4,1.4,3.8,3.7,3.8c1.4,0,2.8-0.6,3.2-2.1l-2-0.7
						C112.1,29.4,111.6,29.7,111,29.7z M109.7,26.9c0.1-0.9,0.6-1.5,1.3-1.5c0.7,0,1.1,0.5,1.1,1.1c0,0.1,0,0.2,0,0.3H109.7z
						 M120.2,27.9c0,1.2-0.6,1.7-1.3,1.7c-0.8,0-1.4-0.7-1.4-1.9c0-1.5,0.5-2.2,1.4-2.2c0.6,0,1.3,0.5,1.3,1.5V27.9z M120.6,31.3
						h2.1V20.7h-2.4v4.1c-0.3-0.7-1-1.1-2-1.1c-1.9,0-3.1,1.5-3.1,4.1c0,2.4,1.3,3.7,3,3.7c1.1,0,1.9-0.5,2.2-1.5L120.6,31.3z"/>
					<path id="Fill-8_1_" class="st0" d="M53.5,10.6l-1.1,4.8h0l-1-4.8h-2.4l2,7.4h2.3l1.1-4.6h0l1.1,4.6h2.3l2-7.4h-2.3l-1,4.8h0
						l-1.1-4.8C55.3,10.6,53.5,10.6,53.5,10.6z M63.7,16.5c-0.8,0-1.4-0.6-1.4-1.7h4.5c0.1-0.3,0.1-0.7,0.1-1c0-1.8-1.1-3.3-3.2-3.3
						c-2.3,0-3.7,1.5-3.7,4c0,2.4,1.4,3.8,3.7,3.8c1.4,0,2.8-0.6,3.2-2.1l-2-0.7C64.8,16.2,64.3,16.5,63.7,16.5z M62.4,13.6
						c0.1-0.9,0.6-1.5,1.3-1.5c0.7,0,1.1,0.5,1.1,1.1c0,0.1,0,0.2,0,0.3C64.7,13.6,62.4,13.6,62.4,13.6z M70.7,8.6
						c0-0.8-0.7-1.3-1.4-1.3s-1.4,0.5-1.4,1.3c0,0.8,0.7,1.3,1.4,1.3C70.1,9.9,70.7,9.4,70.7,8.6z M68.1,18.1h2.4v-7.4h-2.4V18.1z
						 M74.1,13c0-0.7,0.4-1.1,1-1.1c0.6,0,1,0.4,1,1.1c0,0.7-0.4,1.1-1,1.1C74.5,14.1,74.1,13.6,74.1,13z M79.2,18.4
						c0-1.5-1-2.2-3.1-2.2h-2c-0.3,0-0.5-0.1-0.5-0.4c0-0.2,0.1-0.4,0.4-0.5c0.3,0.1,0.7,0.1,1.1,0.1c1.9,0,3.4-0.8,3.4-2.5
						c0-0.5-0.1-0.9-0.4-1.3c0.6-0.1,1.3-0.6,1.4-1.4l-1.9-0.6c0,0.5-0.2,0.9-0.4,1.2c-0.6-0.3-1.2-0.4-2-0.4c-2,0-3.4,0.9-3.4,2.5
						c0,1,0.5,1.7,1.4,2.1c-0.8,0.2-1.4,0.7-1.4,1.5c0,0.7,0.4,1.2,1.1,1.4c-0.9,0.1-1.6,0.6-1.6,1.4c0,1.4,1.9,1.9,3.6,1.9
						C77,21.2,79.2,20.4,79.2,18.4z M73.2,18.9c0-0.4,0.3-0.6,0.9-0.6h2.1c0.6,0,1,0.2,1,0.6c0,0.6-0.8,0.9-2.2,0.9
						C73.9,19.7,73.2,19.5,73.2,18.9z M82.6,7.5h-2.4v10.6h2.4v-4c0-1.1,0.6-1.6,1.2-1.6c0.7,0,1,0.4,1,1.2v4.4h2.4v-5.2
						c0-1.6-1-2.4-2.3-2.4c-1.1,0-1.9,0.5-2.3,1.5L82.6,7.5L82.6,7.5z M93.4,15.9c-0.4,0.3-0.7,0.4-1.1,0.4c-0.5,0-0.8-0.3-0.8-0.9
						v-3h1.9v-1.8h-1.9V8.8L89,9.1v1.6h-1v1.8h1v3.3c0,1.8,1.1,2.5,2.7,2.5c0.8,0,1.5-0.2,2-0.6L93.4,15.9z M98.6,10.6l-1.1,4.8h0
						l-1-4.8H94l2,7.4h2.3l1.1-4.6h0l1.1,4.6h2.3l2-7.4h-2.3l-1,4.8h0l-1.1-4.8C100.4,10.6,98.6,10.6,98.6,10.6z M111.7,13
						c0-1.6-1-2.5-3.1-2.5c-1.9,0-3.1,0.9-3.2,2.4l2.2,0.3c0-0.6,0.3-1,0.9-1c0.6,0,0.8,0.3,0.8,0.9v0.7c-0.3,0-0.6,0-0.9,0
						c-2.1,0-3.4,0.8-3.4,2.3c0,1.4,1,2.2,2.4,2.2c1,0,1.8-0.4,2.1-1.2c0.1,0.2,0.1,0.4,0.3,0.5c0.3,0.4,0.9,0.7,1.5,0.7
						c0.5,0,1-0.1,1.3-0.4l-0.1-1.6c-0.1,0.1-0.3,0.2-0.4,0.2c-0.3,0-0.5-0.1-0.5-0.5V13z M109.4,15.4c0,0.9-0.6,1.2-1.1,1.2
						c-0.6,0-0.9-0.3-0.9-0.8c0-0.6,0.5-0.9,1.5-0.9c0.2,0,0.4,0,0.5,0L109.4,15.4L109.4,15.4z M118.1,15.9
						c-0.4,0.3-0.7,0.4-1.1,0.4c-0.5,0-0.8-0.3-0.8-0.9v-3h1.9v-1.8h-1.9V8.8l-2.4,0.3v1.6h-1v1.8h1v3.3c0,1.8,1.1,2.5,2.7,2.5
						c0.8,0,1.5-0.2,2-0.6L118.1,15.9z M118.9,14.4c0,2.4,1.5,3.9,3.7,3.9c1.7,0,2.9-0.9,3.2-2.3l-2.1-0.6c-0.1,0.8-0.5,1.2-1.1,1.2
						c-0.9,0-1.3-0.8-1.3-2.1c0-1.3,0.4-2.1,1.3-2.1c0.7,0,1,0.5,1,1.2l2.1-0.5c-0.1-1.5-1.3-2.5-3.2-2.5
						C120.3,10.5,118.9,11.9,118.9,14.4z M129.2,7.5h-2.4v10.6h2.4v-4c0-1.1,0.6-1.6,1.2-1.6c0.7,0,1,0.4,1,1.2v4.4h2.4v-5.2
						c0-1.6-1-2.4-2.3-2.4c-1.1,0-1.9,0.5-2.3,1.5L129.2,7.5L129.2,7.5z M138.6,16.5c-0.8,0-1.4-0.6-1.4-1.7h4.5
						c0.1-0.3,0.1-0.7,0.1-1c0-1.8-1.1-3.3-3.2-3.3c-2.3,0-3.7,1.5-3.7,4c0,2.4,1.4,3.8,3.7,3.8c1.4,0,2.8-0.6,3.2-2.1l-2-0.7
						C139.6,16.2,139.2,16.5,138.6,16.5z M137.2,13.6c0.1-0.9,0.6-1.5,1.3-1.5c0.7,0,1.1,0.5,1.1,1.1c0,0.1,0,0.2,0,0.3
						C139.6,13.6,137.2,13.6,137.2,13.6z M148.1,10.5c-1.4-0.3-2.4,0.5-2.7,1.8l-0.3-1.7H143v7.4h2.4v-3.4c0-1.3,0.7-1.8,1.6-1.8
						c0.4,0,0.7,0.1,0.9,0.2L148.1,10.5z M148.4,16.2c0.3,1.4,1.6,2,3.2,2c1.9,0,3.3-0.9,3.3-2.5c0-3-4-1.8-4-3.1
						c0-0.4,0.3-0.7,0.9-0.7c0.6,0,1,0.3,1.1,0.9l2-0.2c-0.2-1.4-1.3-2.2-3.1-2.2c-1.7,0-3.1,0.9-3.1,2.5c0,2.9,4,1.7,4,3
						c0,0.5-0.4,0.7-1,0.7c-0.6,0-1.1-0.4-1.2-0.9L148.4,16.2z"/>
				</g>
			</g>
		</g>
	</g>
</g>
</svg>
