<?xml version="1.0" encoding="utf-8"?>
<!-- Generator: Adobe Illustrator 22.0.1, SVG Export Plug-In . SVG Version: 6.00 Build 0)  -->
<svg version="1.1" id="Layer_1" xmlns="http://www.w3.org/2000/svg" xmlns:xlink="http://www.w3.org/1999/xlink" x="0px" y="0px"
	 width="58.7px" height="47px" viewBox="0 0 58.7 47" style="enable-background:new 0 0 58.7 47;" xml:space="preserve">
<style type="text/css">
	.st0{fill:#7A7A79;}
	.st1{fill:#FFDA30;}
	.st2{font-family:'Montserrat-Medium';}
	.st3{font-size:18.2447px;}
</style>
<g>
	<g id="euro_x2C__currency_x2C__money_3_">
		<g id="purse_3_">
			<g>
				<g>
					<path class="st0" d="M1.8,10.1c-0.5,0-1-0.4-1-1s0.4-1,1-1c27.4,0,44,0,48.8-7.2c0.2-0.4,0.7-0.5,1.1-0.4
						c0.4,0.1,0.7,0.5,0.7,0.9v4.8c0,0.5-0.4,1-1,1c-0.5,0-1-0.4-1-1V4C43.7,10.1,27.3,10.1,1.8,10.1z"/>
				</g>
			</g>
			<g>
				<g>
					<g>
						<path class="st0" d="M25.6,14c-3.4,0-7,0-10.9-0.1c-4.1,0-8.4-0.1-12.9-0.1c-0.5,0-1-0.4-1-1c0-0.5,0.4-1,1-1
							c4.5,0,8.8,0,12.9,0.1c20.2,0.1,36.2,0.2,39.8-3.6c0.3-0.3,0.7-0.4,1-0.2c0.4,0.1,0.6,0.5,0.6,0.9v3.8c0,0.5-0.4,1-1,1
							c-0.5,0-1-0.4-1-1V11C49.7,13.6,39.7,14,25.6,14z"/>
					</g>
				</g>
			</g>
		</g>
		<g>
			<g>
				<g>
					<path class="st0" d="M1.8,15.8c-0.5,0-1,0.4-1,1c0,0.5,0.4,1,1,1h54.4v26.7H1.8c-0.5,0-1,0.4-1,1l0,0c0,0.5,0.4,1,1,1h55.3
						c0.5,0,1-0.4,1-1V16.8c0-0.5-0.4-1-1-1H1.8z"/>
				</g>
			</g>
			<g>
				<g>
					<path class="st0" d="M0.8,20.6v24.8c0,0.5,0.4,1,1,1l0,0c0.5,0,1-0.4,1-1V20.6c0-0.5-0.4-1-1-1C1.3,19.6,0.8,20,0.8,20.6z"/>
				</g>
			</g>
		</g>
	</g>
	<text transform="matrix(1 0 0 1 23.5258 37.8887)" class="st1 st2 st3">$</text>
</g>
</svg>
