<?xml version="1.0" encoding="utf-8"?>
<!-- Generator: Adobe Illustrator 22.0.1, SVG Export Plug-In . SVG Version: 6.00 Build 0)  -->
<svg version="1.1" id="Layer_1" xmlns="http://www.w3.org/2000/svg" xmlns:xlink="http://www.w3.org/1999/xlink" x="0px" y="0px"
	 width="71px" height="73.8px" viewBox="0 0 71 73.8" style="enable-background:new 0 0 71 73.8;" xml:space="preserve">
<style type="text/css">
	.st0{fill:#FFDA30;}
	.st1{fill:#7A7A79;}
</style>
<g>
	<path class="st0" d="M37.1,2.6c0,0.9-0.7,1.6-1.6,1.6c-0.9,0-1.6-0.7-1.6-1.6c0-0.9,0.7-1.6,1.6-1.6C36.4,1.1,37.1,1.8,37.1,2.6z"
		/>
	<g>
		<path class="st1" d="M69.9,39c-0.4,0-0.6-0.3-0.6-0.6c0-18.6-15.1-33.7-33.7-33.7S1.8,19.8,1.8,38.4c0,0.4-0.3,0.6-0.6,0.6
			s-0.6-0.3-0.6-0.6c0-19.3,15.7-35,35-35s35,15.7,35,35C70.5,38.8,70.3,39,69.9,39z"/>
	</g>
	<g>
		<path class="st1" d="M18.4,39c-0.4,0-0.6-0.3-0.6-0.6c0-4.4-3.5-7.9-7.9-7.9C5.5,30.5,2,34,2,38.4C2,38.8,1.7,39,1.3,39
			c-0.4,0-0.6-0.3-0.6-0.6c0-5.1,4.1-9.2,9.2-9.2c5.1,0,9.2,4.1,9.2,9.2C19.1,38.8,18.8,39,18.4,39z"/>
	</g>
	<g>
		<path class="st1" d="M35.6,39c-0.4,0-0.6-0.3-0.6-0.6c0-4.4-3.5-7.9-7.9-7.9c-4.4,0-7.9,3.5-7.9,7.9c0,0.4-0.3,0.6-0.6,0.6
			c-0.4,0-0.6-0.3-0.6-0.6c0-5.1,4.1-9.2,9.2-9.2c5.1,0,9.2,4.1,9.2,9.2C36.2,38.8,35.9,39,35.6,39z"/>
	</g>
	<g>
		<path class="st0" d="M31.3,73.2c-2.7,0-4.9-2.2-4.9-4.9c0-0.4,0.3-0.6,0.6-0.6s0.6,0.3,0.6,0.6c0,2,1.6,3.6,3.6,3.6
			c2,0,3.6-1.6,3.6-3.6c0-0.4,0.3-0.6,0.6-0.6s0.6,0.3,0.6,0.6C36.2,71,34,73.2,31.3,73.2z"/>
	</g>
	<g>
		<path class="st1" d="M52.6,39c-0.4,0-0.6-0.3-0.6-0.6c0-4.4-3.6-7.9-7.9-7.9c-4.4,0-7.9,3.5-7.9,7.9c0,0.4-0.3,0.6-0.6,0.6
			c-0.4,0-0.6-0.3-0.6-0.6c0-5.1,4.1-9.2,9.2-9.2c5.1,0,9.2,4.1,9.2,9.2C53.3,38.8,53,39,52.6,39z"/>
	</g>
	<g>
		<path class="st1" d="M69.7,39c-0.4,0-0.6-0.3-0.6-0.6c0-4.4-3.5-7.9-7.9-7.9c-4.4,0-7.9,3.5-7.9,7.9c0,0.4-0.3,0.6-0.6,0.6
			c-0.4,0-0.6-0.3-0.6-0.6c0-5.1,4.1-9.2,9.2-9.2c5.1,0,9.2,4.1,9.2,9.2C70.4,38.8,70.1,39,69.7,39z"/>
	</g>
	<g>
		<path class="st0" d="M35.5,68.8c-0.4,0-0.6-0.3-0.6-0.6l-0.1-27.3c0-0.4,0.3-0.6,0.6-0.6c0,0,0,0,0,0c0.4,0,0.6,0.3,0.6,0.6
			l0.1,27.3C36.2,68.5,35.9,68.8,35.5,68.8C35.5,68.8,35.5,68.8,35.5,68.8z"/>
	</g>
	<g>
		<path class="st1" d="M37,3.2c-0.4,0-0.6-0.3-0.6-0.6c0-0.4-0.4-0.8-0.8-0.8c-0.4,0-0.8,0.4-0.8,0.8c0,0.4-0.3,0.6-0.6,0.6
			s-0.6-0.3-0.6-0.6c0-1.2,0.9-2.1,2.1-2.1c1.2,0,2.1,0.9,2.1,2.1C37.6,2.9,37.3,3.2,37,3.2z"/>
	</g>
</g>
</svg>
