<?xml version="1.0" encoding="utf-8"?>
<!-- Generator: Adobe Illustrator 22.0.1, SVG Export Plug-In . SVG Version: 6.00 Build 0)  -->
<svg version="1.1" id="Layer_1" xmlns="http://www.w3.org/2000/svg" xmlns:xlink="http://www.w3.org/1999/xlink" x="0px" y="0px"
	 width="53.4px" height="52.8px" viewBox="0 0 53.4 52.8" style="enable-background:new 0 0 53.4 52.8;" xml:space="preserve">
<style type="text/css">
	.st0{fill:#7A7A79;}
	.st1{fill:#FFDA30;}
</style>
<path class="st0" d="M52.8,32l-4.4-3v-9l4.4-2.9c0.2-0.2,0.4-0.4,0.4-0.7c0-0.3-0.2-0.6-0.4-0.7L29.9,0.3c-0.3-0.2-0.7-0.2-1,0
	L0.7,19.1c-0.1,0.1-0.2,0.1-0.2,0.2c0,0,0,0,0,0.1c-0.1,0.2-0.1,0.3-0.1,0.5v16.5c0,0.3,0.2,0.6,0.4,0.7l22.9,15.2
	c0.2,0.1,0.3,0.2,0.5,0.2c0.2,0,0.4-0.1,0.5-0.2l28.3-18.8c0.2-0.2,0.4-0.4,0.4-0.7C53.2,32.4,53,32.1,52.8,32z M29.4,2.1l21.2,14.2
	l-3.5,2.3c-0.2,0.1-0.4,0.2-0.5,0.3L24,34L7,22.6c-0.1-0.1-0.1-0.1-0.1-0.1l-4.1-2.7L29.4,2.1z M7.3,25l16.2,10.8
	c0.3,0.2,0.7,0.2,1,0l22-14.7v7.4L24.1,43.3L7.3,32.5V25L7.3,25z M24,50.5l-22-14.6V21.6l3.5,2.3V33c0,0.3,0.2,0.6,0.4,0.8
	l17.8,11.4c0.1,0.1,0.3,0.1,0.5,0.1c0.2,0,0.4-0.1,0.5-0.1l22.4-14.8l3.5,2.4L24,50.5z"/>
<path class="st0" d="M25.5,10.3l10.7,7.3c0.2,0.1,0.4,0.2,0.5,0.2c0.3,0,0.5-0.1,0.7-0.4c0.3-0.4,0.2-1-0.2-1.3L26.5,8.8
	c-0.4-0.3-1-0.2-1.3,0.2S25.1,10,25.5,10.3z"/>
<path class="st1" d="M23.5,35.8L7.3,25v7.4l16.9,10.8l22.4-14.8v-7.4l-22,14.7C24.2,36,23.8,36,23.5,35.8z"/>
</svg>
