<?xml version="1.0" encoding="utf-8"?>
<!-- Generator: Adobe Illustrator 22.0.1, SVG Export Plug-In . SVG Version: 6.00 Build 0)  -->
<svg version="1.1" id="Layer_1" xmlns="http://www.w3.org/2000/svg" xmlns:xlink="http://www.w3.org/1999/xlink" x="0px" y="0px"
	 width="64.3px" height="64.3px" viewBox="0 0 64.3 64.3" style="enable-background:new 0 0 64.3 64.3;" xml:space="preserve">
<style type="text/css">
	.st0{fill:none;stroke:#7A7A79;stroke-width:2;stroke-miterlimit:10;}
	.st1{fill:#FFDA30;}
</style>
<g id="baby_clothes-onesie-romper_4_">
	<path class="st0" d="M7.2,25.2h-6v-2.1c0-6.7,3.7-12.8,9.7-16l10.7-5.6c0.4-0.2,0.9-0.4,1.4-0.4h11.2"/>
	<path class="st0" d="M13.2,21.2v28c0,0,12.3-0.9,13.8,11.4c0.2,1.5,1.5,2.6,3,2.6h4.4c1.5,0,2.8-1.1,3-2.6
		c1.5-12.2,13.8-11.4,13.8-11.4v-28"/>
	<path class="st0" d="M22.2,2.2c0.5,5.1,4.8,9,10,9c5,0,9.2-3.7,9.9-8.5c0.1-0.7,0.8-1.1,1.5-0.8c2,1.1,6,3.2,10,5.2
		c6,3.1,9.7,9.3,9.7,16v2h-6"/>
	<path class="st0" d="M15.5,56.2c2.7,4.2,7.3,7,12.7,7h2"/>
	<path class="st0" d="M48.9,56.2c-2.7,4.2-7.3,7-12.7,7h-2"/>
	<path class="st1" d="M32.2,27.2c-0.7-1.2-1.9-2-3.2-2c-2.1,0-3.8,1.8-3.8,4.1c0,5.2,7,9.9,7,9.9s7-4.7,7-9.9c0-2.3-1.7-4.1-3.8-4.1
		C34,25.2,32.8,26,32.2,27.2z"/>
</g>
</svg>
