<?xml version="1.0" encoding="utf-8"?>
<!-- Generator: Adobe Illustrator 22.0.1, SVG Export Plug-In . SVG Version: 6.00 Build 0)  -->
<svg version="1.1" id="Layer_1" xmlns="http://www.w3.org/2000/svg" xmlns:xlink="http://www.w3.org/1999/xlink" x="0px" y="0px"
	 width="61.9px" height="63.4px" viewBox="0 0 61.9 63.4" style="enable-background:new 0 0 61.9 63.4;" xml:space="preserve">
<style type="text/css">
	.st0{fill:none;stroke:#7A7A79;stroke-width:2;stroke-miterlimit:10;}
	.st1{fill:none;stroke:#FFDA30;stroke-width:2;stroke-miterlimit:10;}
</style>
<g>
	<line class="st0" x1="29.5" y1="5.7" x2="29.5" y2="10.2"/>
	<line class="st0" x1="5.7" y1="29.5" x2="10.1" y2="29.5"/>
	<line class="st0" x1="48.8" y1="29.5" x2="53.2" y2="29.5"/>
	<polyline class="st1" points="17.6,16.1 29.5,31 41.3,23.5 	"/>
	<path class="st0" d="M42.8,41.4c-2.5,0-4.5,2-4.5,4.5s2,4.5,4.5,4.5c2.5,0,4.5-2,4.5-4.5S45.3,41.4,42.8,41.4z"/>
	<path class="st0" d="M56.2,62.2L56.2,62.2c-2.5,0-4.5-2-4.5-4.5l0,0c0-2.5,2-4.5,4.5-4.5l0,0c2.5,0,4.5,2,4.5,4.5l0,0
		C60.7,60.2,58.7,62.2,56.2,62.2z"/>
	<line class="st0" x1="41.3" y1="62.2" x2="57.7" y2="41.4"/>
	<path class="st0" d="M33.9,57.4c-1.5,0.2-2.9,0.3-4.5,0.3c-15.6,0-28.2-12.6-28.2-28.2c0-15.6,12.6-28.2,28.2-28.2
		c15.6,0,28.2,12.6,28.2,28.2c0,2-0.2,4-0.6,5.9"/>
</g>
</svg>
