<?xml version="1.0" encoding="utf-8"?>
<!-- Generator: Adobe Illustrator 22.0.1, SVG Export Plug-In . SVG Version: 6.00 Build 0)  -->
<svg version="1.1" id="Layer_1" xmlns="http://www.w3.org/2000/svg" xmlns:xlink="http://www.w3.org/1999/xlink" x="0px" y="0px"
	 width="69.5px" height="60.8px" viewBox="0 0 69.5 60.8" style="enable-background:new 0 0 69.5 60.8;" xml:space="preserve">
<style type="text/css">
	.st0{fill:#FFDA30;}
	.st1{fill:none;stroke:#7A7A79;stroke-width:1.8;stroke-miterlimit:10;}
</style>
<g>
	<path class="st0" d="M40,15.7L10.2,3.1L2.9,8.2l22.6,16.7L12.7,33"/>
	<path class="st1" d="M58.4,5.1l-14,8.8L14.7,1.3L7.4,6.4L30,23.1l-12.9,8.2L6.7,27.7l-4.6,3l13.3,7.5l1.1,15.2l4.7-2.8l1.3-11
		l12.9-8.2l5.4,27.6l7.8-4.4l1.3-32.3L64.6,13c2.5-1.6,4.9-5.1,3.1-7.9C66,2.3,60.9,3.5,58.4,5.1z"/>
</g>
</svg>
