<?xml version="1.0" encoding="utf-8"?>
<!-- Generator: Adobe Illustrator 22.0.1, SVG Export Plug-In . SVG Version: 6.00 Build 0)  -->
<svg version="1.1" id="Layer_1" xmlns="http://www.w3.org/2000/svg" xmlns:xlink="http://www.w3.org/1999/xlink" x="0px" y="0px"
	 width="52px" height="52px" viewBox="0 0 52 52" style="enable-background:new 0 0 52 52;" xml:space="preserve">
<style type="text/css">
	.st0{fill:#FFDA30;}
	.st1{fill:#7A7A79;}
</style>
<g>
	<polygon class="st0" points="24.4,22.1 22.7,24.1 19.2,25.3 15.4,23.5 11.9,19.3 10.2,15.4 9.8,14.1 12.5,13.1 18.9,13.4 
		22.7,15.5 24.7,17.6 25.1,20.5 	"/>
	<polygon class="st0" points="33,22 30.5,18.5 30,12.2 34.3,6.7 42.2,2.7 48.8,1.4 51,1.4 51.4,6.2 48.5,16.5 43.9,22 39.8,24.3 
		35.3,23.8 	"/>
	<g>
		<path class="st1" d="M32.2,20.6c0.5-0.3,0.6-1,0.2-1.5c-2-2.7-1.8-6.3,0.4-8.9c4.3-5.2,11.2-7,16.6-7.6c0.2,3.1-0.2,6.6-1.2,9.9
			c-0.4,1.2-3.8,11.9-11.2,9.7c-0.3-0.1-2.2-1-2.7-1.2c-0.2-0.2-0.5-0.2-0.8-0.2c-1.3,0.2-2.8,5.2-2.9,7.5c0,0.6,0.4,1.1,1,1.1
			c0,0,0,0,0,0c0.6,0,1-0.4,1-1c0.1-2,0.9-4.1,1.4-5.2c0.2,0.1,0.4,0.2,0.6,0.2c0.3,0.1,1.5,0.7,1.7,0.7c7.1,2.1,11.9-4.6,13.8-11.1
			c1.2-4,1.6-8.1,1.2-11.7c0,0,0-0.1,0-0.1c-0.1-0.6-0.6-1-1.2-0.9c-8.4,0.8-15,3.7-19,8.5c-2.8,3.3-3,8-0.5,11.5
			C31.1,20.8,31.8,20.9,32.2,20.6z"/>
		<path class="st1" d="M20,26.3c2.1,0.1,3.6-0.9,4.5-1.7c1.1,1.2,2,2.6,2.6,4.1c0.2,0.4,0.6,0.6,1,0.6c0.1,0,0.3,0,0.4-0.1
			c0.5-0.2,0.8-0.9,0.5-1.4c-0.9-2.1-2.2-3.9-3.9-5.6C25,22.1,24.7,22,24.4,22c-0.3,0-0.6,0.2-0.8,0.5c0,0-1.2,1.9-3.3,1.7
			c-3.7-0.5-6.2-5-7.7-8.7c-0.1-0.2-0.3-0.8-0.5-1.4c2.6-0.5,7.8-1,11.1,1.4c1.5,1,2.2,2.9,1.7,4.6c-0.1,0.6,0.2,1.1,0.8,1.3
			c0.6,0.1,1.1-0.2,1.3-0.8c0.6-2.6-0.4-5.4-2.6-6.9c-4.5-3.1-11.2-2-13.9-1.4c-0.3,0.1-0.5,0.3-0.6,0.6c-0.2,0.4-0.3,0.6,0.9,3.4
			C13,22.4,16.1,25.8,20,26.3z"/>
		<path class="st1" d="M46.8,32.7L34,38.1c-0.5,0.2-0.8,0.8-0.6,1.4c0.2,0.5,0.8,0.8,1.4,0.6l12.9-5.4c0.6-0.2,1.2-0.1,1.6,0.4
			c0.2,0.3,0.3,0.7,0.3,1c-0.1,0.4-0.3,0.7-0.6,0.9c-5.6,3.7-18.4,10.9-19,11.2c0,0,0,0-0.1,0l0,0c-1.6,0.9-3.3,1.2-5.5,0.8
			c-0.1,0-3.1-0.4-10.2-1.2l-3.6-0.4V33.3c0.6,0,1.1-0.1,1.3-0.1H12c4.9-0.3,9.5,0.6,14.4,1.6c0.6,0.1,1.3,0.2,1.9,0.4
			c0.7,0.1,1.2,0.7,1.2,1.4c0,0,0,0.1,0,0.2c0,0.4-0.2,0.7-0.4,0.8c-0.3,0.3-0.6,0.4-1,0.4h-9.8c-0.6,0-1,0.5-1,1s0.5,1,1,1H28
			c0.9,0,1.8-0.4,2.5-1c0.6-0.6,0.9-1.3,1-2c0-0.1,0-0.3,0-0.5c0-1.7-1.2-3.1-2.8-3.4c-0.6-0.1-1.2-0.2-1.9-0.4c-4.8-1-9.8-2-15-1.7
			h-0.1c-0.2,0-0.7,0-1.3,0.1c-0.1-0.4-0.5-0.8-1-0.8H1.7c-0.6,0-1,0.5-1,1V49c0,0.6,0.5,1,1,1h7.8c0.4,0,0.8-0.2,0.9-0.6l3.5,0.4
			C18,50.3,23.7,51,24,51.1c0.8,0.1,1.5,0.2,2.2,0.2c1.7,0,3.3-0.4,4.7-1.2c0,0,0,0,0,0C31,49.9,44.2,42.5,50,38.7
			c0.8-0.5,1.4-1.4,1.5-2.3c0.1-1-0.1-1.9-0.7-2.7C49.9,32.5,48.3,32.1,46.8,32.7z M8.5,47.9H2.8V32.5h5.7V47.9z"/>
	</g>
</g>
</svg>
