<svg xmlns="http://www.w3.org/2000/svg" viewBox="0 0 60.6 60.6"><defs><style>.cls-1{fill:#ffdb2d;}.cls-1,.cls-2{stroke:#231f20;stroke-linecap:round;stroke-linejoin:round;stroke-width:2px;}.cls-2{fill:none;}</style></defs><g id="Layer_2" data-name="Layer 2"><g id="_1170px_grid" data-name="1170px grid"><path class="cls-1" d="M55.78,5.9,54.69,4.82a13.13,13.13,0,0,0-18.51,0l-13,13a13.13,13.13,0,0,0,0,18.51l1.09,1.08a12.8,12.8,0,0,0,3.88,2.68l3.64-3.65a4.07,4.07,0,0,0,1.13-3.61,4,4,0,0,1-2.16-1.12l-1.87-1.87a4.1,4.1,0,0,1,0-5.77L42.43,10.52a4.1,4.1,0,0,1,5.77,0l1.87,1.87a4.09,4.09,0,0,1,0,5.77l-9.9,9.91a13.2,13.2,0,0,1-.43,11.61,13.07,13.07,0,0,0,3-2.26l13-13a13.13,13.13,0,0,0,0-18.51Z"/><path class="cls-2" d="M4.82,54.69,5.9,55.78a13.13,13.13,0,0,0,18.51,0l13-13a13.13,13.13,0,0,0,0-18.51l-1.08-1.09a13,13,0,0,0-3.88-2.67l-3.65,3.65a4,4,0,0,0-1.12,3.6,4.13,4.13,0,0,1,2.16,1.13l1.87,1.87a4.1,4.1,0,0,1,0,5.77L18.16,50.07a4.1,4.1,0,0,1-5.77,0L10.52,48.2a4.1,4.1,0,0,1,0-5.77l9.91-9.9a13.23,13.23,0,0,1,.42-11.61,13,13,0,0,0-3,2.25l-13,13a13.13,13.13,0,0,0,0,18.51Z"/></g></g></svg>