<?xml version="1.0" encoding="utf-8"?>
<!-- Generator: Adobe Illustrator 22.0.1, SVG Export Plug-In . SVG Version: 6.00 Build 0)  -->
<svg version="1.1" id="Layer_1" xmlns="http://www.w3.org/2000/svg" xmlns:xlink="http://www.w3.org/1999/xlink" x="0px" y="0px"
	 width="52.8px" height="47.1px" viewBox="0 0 52.8 47.1" style="enable-background:new 0 0 52.8 47.1;" xml:space="preserve">
<style type="text/css">
	.st0{fill:#FFDA30;}
	.st1{fill:#303030;}
</style>
<rect x="19.9" y="13.7" class="st0" width="28.8" height="12.1"/>
<rect x="3.9" y="13.5" class="st0" width="12.8" height="28.9"/>
<path class="st1" d="M19.3,38.2c0-0.3,0.3-0.6,0.6-0.6h29.1c0.3,0,0.6,0.3,0.6,0.6c0,0.3-0.3,0.6-0.6,0.6H19.9
	C19.5,38.8,19.3,38.5,19.3,38.2 M19.9,42.8h14.9c0.3,0,0.6-0.3,0.6-0.6c0-0.3-0.3-0.6-0.6-0.6H19.9c-0.3,0-0.6,0.3-0.6,0.6
	C19.3,42.5,19.5,42.8,19.9,42.8L19.9,42.8z M19.3,26V13.6c0-0.3,0.3-0.6,0.6-0.6h29.1c0.3,0,0.6,0.3,0.6,0.6V26
	c0,0.3-0.3,0.6-0.6,0.6H19.9C19.5,26.6,19.3,26.3,19.3,26 M20.5,25.4h27.9V14.2H20.5V25.4L20.5,25.4z M19.9,34.7h29.1
	c0.3,0,0.6-0.3,0.6-0.6c0-0.3-0.3-0.6-0.6-0.6H19.9c-0.3,0-0.6,0.3-0.6,0.6C19.3,34.5,19.5,34.7,19.9,34.7 M3.3,42.3V13.6
	c0-0.3,0.3-0.6,0.6-0.6h12.9c0.3,0,0.6,0.3,0.6,0.6v28.7c0,0.3-0.3,0.6-0.6,0.6H3.9C3.6,42.9,3.3,42.6,3.3,42.3 M4.5,41.7h11.7V14.2
	H4.5V41.7z M19.9,30.7h29.1c0.3,0,0.6-0.3,0.6-0.6c0-0.3-0.3-0.6-0.6-0.6H19.9c-0.3,0-0.6,0.3-0.6,0.6
	C19.3,30.5,19.5,30.7,19.9,30.7 M2.9,4.9c0-1.1,0.9-2,2-2c1.1,0,2,0.9,2,2c0,1.1-0.9,2-2,2C3.8,6.9,2.9,6,2.9,4.9 M4,4.9
	c0,0.5,0.4,0.8,0.8,0.8c0.5,0,0.8-0.4,0.8-0.8C5.7,4.4,5.3,4,4.9,4C4.4,4,4,4.4,4,4.9 M52.8,0.6v45.9c0,0.3-0.3,0.6-0.6,0.6H0.6
	c-0.3,0-0.6-0.3-0.6-0.6V0.6C0,0.3,0.3,0,0.6,0h51.6C52.6,0,52.8,0.3,52.8,0.6L52.8,0.6L52.8,0.6z M51.6,9.8H1.2v36.1h50.5V9.8z
	 M51.6,1.2H1.2v7.4h50.5V1.2z M7.7,4.9c0-1.1,0.9-2,2-2c1.1,0,2,0.9,2,2c0,1.1-0.9,2-2,2C8.6,6.9,7.7,6,7.7,4.9 M8.9,4.9
	c0,0.5,0.4,0.8,0.8,0.8c0.5,0,0.8-0.4,0.8-0.8c0-0.5-0.4-0.8-0.8-0.8C9.3,4,8.9,4.4,8.9,4.9 M12.6,4.9c0-1.1,0.9-2,2-2
	c1.1,0,2,0.9,2,2c0,1.1-0.9,2-2,2C13.5,6.9,12.6,6,12.6,4.9 M13.8,4.9c0,0.5,0.4,0.8,0.8,0.8c0.5,0,0.8-0.4,0.8-0.8
	c0-0.5-0.4-0.8-0.8-0.8C14.2,4,13.8,4.4,13.8,4.9"/>
</svg>
