<?xml version="1.0" encoding="utf-8"?>
<!-- Generator: Adobe Illustrator 21.0.0, SVG Export Plug-In . SVG Version: 6.00 Build 0)  -->
<svg version="1.1" id="Layer_1" xmlns="http://www.w3.org/2000/svg" xmlns:xlink="http://www.w3.org/1999/xlink" x="0px" y="0px"
	 width="53px" height="45.2px" viewBox="0 0 53 45.2" style="enable-background:new 0 0 53 45.2;" xml:space="preserve">
<style type="text/css">
	.st0{fill:#FFDA30;}
	.st1{fill:#232323;}
	.st2{fill:none;stroke:#161616;stroke-width:1.5;stroke-linecap:round;stroke-linejoin:round;stroke-miterlimit:10;}
	.st3{fill:#FFD330;}
</style>
<polygon class="st0" points="1153.7,75.3 1161.9,71.8 1167.5,84.3 1164.2,86.2 1161.1,92.6 "/>
<polygon class="st0" points="1181.9,68.5 1188.2,69.4 1190.1,64.6 1189.7,60.1 1185.6,54.6 1184.7,59.1 1181.9,62.6 1180.3,65.6 "/>
<path class="st1" d="M1186.2,67.3c0.3,0,0.5-0.1,0.7-0.3c1.1-1.5,1.5-3.3,1.2-5.1c-0.1-0.3-0.3-0.5-0.6-0.6s-0.6,0-0.8,0.2
	c-0.2,0.2-0.3,0.5-0.2,0.8c0.2,1.3-0.1,2.6-0.9,3.6c-0.2,0.3-0.2,0.6-0.1,0.9C1185.6,67.1,1185.9,67.3,1186.2,67.3L1186.2,67.3z"/>
<g>
	<path class="st1" d="M1159.5,239.7c0.3-1.5,0.3-3,0-4.4l4-9.6l0,0c0.6-1.8,1.6-3.4,2.8-4.8c0.3-0.3,0.4-0.8,0.3-1.2l-1.6-7
		c0-0.1,0-0.1-0.1-0.2l0,0c0,0,0,0-0.1-0.1c0-0.1-0.1-0.1-0.1-0.1s-0.1,0-0.1-0.1l-0.1-0.1c-0.1,0-0.1,0-0.2,0c0,0,0,0-0.1,0
		c-0.2,0-0.3,0-0.5,0.1l0,0l0,0l-6.1,3.8c-0.4,0.2-0.6,0.6-0.6,1.1c-0.2,1.9-0.7,3.7-1.5,5.4l0,0l-2,4.8c-1-0.5-2-0.9-3.1-1.1
		c0.4-2.8,0.6-5.7,0.4-8.5c1.6-1.9,2.4-4.4,2.1-6.9c-0.5-5-5.1-8.7-5.3-8.8c-0.3-0.2-0.7-0.2-1,0s-0.5,0.6-0.4,0.9
		c0.4,1.7,0.1,3.4-3.2,7.1c-1.5,1.4-1.9,3.6-1.2,5.5c0.3,0.7,0.7,1.4,1.2,2c-0.2,1.3-0.4,2.6-0.5,3.8c-0.2,2-0.2,4.1-0.2,6.1
		c-0.8,0.4-1.5,0.9-2.2,1.5l-4.2-17.9l0,0c0-0.1,0-0.1-0.1-0.2l-4.3-7.9c-0.4-0.8-1.3-1.2-2.2-1c-0.9,0.2-1.5,1-1.5,1.9l-0.3,9
		c0,0.1,0,0.1,0,0.2l0,0l4.3,18.3c-0.7,0-1.3,0.1-2,0.3l-4.7-11.4c-0.4-0.9-1.4-1.3-2.3-0.9l-7.2,3c-0.9,0.4-1.3,1.4-0.9,2.3
		l6.4,15.4c-3.7,0.2-6.6,3.3-6.5,7.1c0.1,3.7,3.2,6.7,6.9,6.7h38c2.5,0,4.7-1.4,5.9-3.5c1.2-2.2,1.2-4.8-0.1-6.9
		C1164.3,241,1162,239.7,1159.5,239.7 M1158.7,217.4l3.6-2.3l-1.3,3.1c-0.2,0.4,0,0.9,0.5,1.1s0.9,0,1.1-0.5l1.3-3.1l1,4.2
		c-1,1.3-1.9,2.6-2.5,4.1c-0.9,0.4-1.9,0.4-2.9,0.1c-0.9-0.4-1.6-1.1-2-2.1C1158.1,220.6,1158.5,219,1158.7,217.4 M1156.7,224.2
		c0.6,0.7,1.3,1.2,2.2,1.6c0.7,0.3,1.4,0.4,2.1,0.4c0.2,0,0.4,0,0.5,0l-2.8,6.7c-0.8-1.8-2.1-3.4-3.7-4.6L1156.7,224.2z M1144.8,218
		l4.3,0.3c0,0.8,0,1.6,0,2.5c-1.4,0.1-2.9,0-4.3-0.2c-0.1,0-0.2,0-0.3,0C1144.6,219.7,1144.7,218.9,1144.8,218L1144.8,218z
		 M1144.4,211c2.3-2.5,3.5-4.5,3.8-6.3c1.6,1.7,2.7,3.9,3.1,6.2c0.2,2-0.4,4.1-1.7,5.6c-1.7-0.1-3.4-0.2-5.1-0.3
		c-0.7-0.7-1.1-1.6-1.1-2.6C1143.3,212.7,1143.7,211.7,1144.4,211L1144.4,211z M1144.4,222.2h0.3c1.1,0.2,2.2,0.3,3.4,0.3
		c0.4,0,0.7,0,1.1-0.1c-0.1,1.1-0.2,2.3-0.4,3.5c-0.2,0-0.4,0-0.6,0c-1.3,0-2.6,0.2-3.8,0.7C1144.2,225.1,1144.2,223.7,1144.4,222.2
		L1144.4,222.2z M1137.7,232.3l-2.5-10.5c-0.1-0.5-0.6-0.7-1-0.6c-0.5,0.1-0.7,0.6-0.6,1l2.2,9.5c-0.6-0.2-1.2-0.4-1.9-0.5
		l-3.8-16.2c0.5,0.2,1.1,0.4,1.7,0.4c0.1,0,0.1,0,0.2,0l0.6,2.6c0.1,0.3,0.3,0.6,0.6,0.6c0.3,0.1,0.6,0,0.9-0.2
		c0.2-0.2,0.3-0.5,0.2-0.8l-0.6-2.6c0.6-0.3,1.1-0.7,1.5-1.1l3.9,16.5C1138.5,230.9,1138,231.6,1137.7,232.3 M1132.4,213.6
		c-1.1,0.2-2.2-0.2-2.9-1.2l0.1-3c0.3,0.1,0.6,0.1,0.9,0.1s0.6,0,0.9-0.1c0.6-0.2,1.1-0.4,1.6-0.8l1.5,2.7
		C1134.3,212.4,1133.5,213.3,1132.4,213.6L1132.4,213.6z M1130,203.5c0.1,0,0.2,0,0.3,0.1l1.9,3.4c-0.3,0.3-0.7,0.5-1.2,0.6
		c-0.4,0.1-0.9,0.1-1.3-0.1l0.1-3.9C1129.8,203.6,1129.9,203.5,1130,203.5 M1123.8,220.7l0.7,1.6l-3.2,1.3c-0.4,0.2-0.6,0.6-0.5,1
		s0.4,0.7,0.8,0.7c0.1,0,0.2,0,0.3-0.1l3.2-1.3l0.7,1.6l-1.6,0.7c-0.4,0.2-0.6,0.6-0.5,1s0.4,0.7,0.8,0.7c0.1,0,0.2,0,0.3-0.1
		l1.6-0.7l0.7,1.6l-3.2,1.3c-0.4,0.2-0.6,0.6-0.5,1s0.4,0.7,0.8,0.7c0.1,0,0.2,0,0.3-0.1l3.2-1.3l0.7,1.7c-2.8,1.3-4.9,3.8-5.6,6.8
		l-6.3-15.1L1123.8,220.7z M1159.7,251.8h-38c-2.9,0-5.2-2.3-5.2-5.2s2.3-5.2,5.2-5.2c0.5,0,1,0.1,1.5,0.2c0.3,0.1,0.5,0,0.8-0.1
		s0.3-0.4,0.4-0.7c0.1-3.1,1.8-5.9,4.6-7.2c2.8-1.3,6.1-1,8.5,0.8c0.2,0.2,0.5,0.2,0.8,0.1c0.3-0.1,0.5-0.3,0.6-0.5
		c1.7-4.5,6.4-7.1,11.1-6.3c4.7,0.9,8.2,5,8.2,9.8c0,1-0.1,2-0.4,2.9c-0.1,0.3,0,0.6,0.2,0.8s0.5,0.3,0.8,0.3
		c0.4-0.1,0.8-0.1,1.2-0.1c2.9,0,5.2,2.3,5.2,5.2C1164.9,249.5,1162.6,251.8,1159.7,251.8"/>
	<path class="st1" d="M1147.1,241.5c-0.6,0-1.3,0.1-1.9,0.4c-1.6-2.1-4.5-2.8-6.7-1.4c-2.3,1.3-3.2,4.1-2.2,6.5
		c0.1,0.3,0.4,0.5,0.8,0.5c0.1,0,0.2,0,0.3-0.1c0.2-0.1,0.4-0.3,0.5-0.5s0.1-0.5,0-0.7c-0.2-0.4-0.3-0.9-0.3-1.4
		c0-1.9,1.5-3.5,3.5-3.5c1.3,0,2.6,0.8,3.1,2c0,0,0,0.1,0.1,0.1v0.1c0,0,0,0,0.1,0l0.1,0.1l0.1,0.1c0.1,0,0.1,0,0.2,0s0.1,0,0.2,0
		s0.2,0,0.3-0.1c0,0,0,0,0.1,0c0,0,0.1,0,0.1-0.1h0.1c0.5-0.4,1-0.6,1.6-0.6c1,0,1.9,0.6,2.4,1.5c0.2,0.4,0.7,0.6,1.1,0.4
		c0.4-0.2,0.6-0.7,0.4-1.1C1150.3,242.5,1148.8,241.5,1147.1,241.5"/>
	<path class="st1" d="M1130.1,235.5c-0.1,0-3.2,1.1-3.2,4.3c0,0.5,0.4,0.9,0.9,0.9s0.9-0.4,0.9-0.9c0.1-1.2,0.9-2.2,2-2.6
		c0.5-0.2,0.7-0.6,0.5-1.1C1131,235.6,1130.5,235.3,1130.1,235.5L1130.1,235.5z"/>
</g>
<path class="st1" d="M1180.2,86.5c0.1,0,0.1,0,0.2,0c0.4,0,0.7-0.3,0.8-0.7c0.4-1.6,1.8-2.8,3.5-2.8c0.5,0,0.9-0.4,0.9-0.9
	s-0.4-0.9-0.9-0.9c-2.5,0-4.6,1.7-5.2,4.1C1179.5,85.9,1179.8,86.4,1180.2,86.5"/>
<g>
	<polyline class="st2" points="46.7,14.2 46.7,0.8 0.8,0.8 0.8,38.8 22,38.8 	"/>
	<line class="st2" x1="46.7" y1="9.7" x2="0.8" y2="9.7"/>
	<line class="st2" x1="37.7" y1="5.2" x2="34.3" y2="5.2"/>
	<line class="st2" x1="43.3" y1="5.2" x2="39.9" y2="5.2"/>
	<line class="st2" x1="32.1" y1="5.2" x2="28.7" y2="5.2"/>
	<line class="st2" x1="24.3" y1="5.2" x2="4.1" y2="5.2"/>
	<path class="st3" d="M52.1,32.1c0.1-0.7,0.2-1.5,0.2-2.2c0-0.8-0.1-1.5-0.2-2.2h-3.4c-0.3-1.4-0.9-2.8-1.6-3.9l2.4-2.4
		c-0.9-1.2-2-2.3-3.2-3.2l-2.4,2.4c-1.2-0.8-2.5-1.3-3.9-1.6v-3.4c-0.7-0.1-1.5-0.2-2.2-0.2c-0.8,0-1.5,0.1-2.2,0.2V19
		c-1.4,0.3-2.8,0.9-3.9,1.6l-2.4-2.4c-1.2,0.9-2.3,2-3.2,3.2l2.4,2.4c-0.8,1.2-1.3,2.5-1.6,3.9h-3.4c-0.1,0.7-0.2,1.5-0.2,2.2
		c0,0.8,0.1,1.5,0.2,2.2h3.4c0.3,1.4,0.9,2.8,1.6,3.9l-2.4,2.4c0.9,1.2,1.9,2.3,3.2,3.2l2.4-2.4c1.2,0.8,2.5,1.4,3.9,1.6v3.4
		c0.7,0.1,1.5,0.2,2.2,0.2c0.8,0,1.5-0.1,2.2-0.2v-3.4c1.4-0.3,2.8-0.9,3.9-1.6l2.4,2.4c1.2-0.9,2.3-2,3.2-3.2L47,36
		c0.8-1.2,1.3-2.5,1.6-3.9H52.1z M37.7,36.6c-3.7,0-6.7-3-6.7-6.7s3-6.7,6.7-6.7s6.7,3,6.7,6.7S41.4,36.6,37.7,36.6"/>
	<path class="st2" d="M52.1,32.1c0.1-0.7,0.2-1.5,0.2-2.2c0-0.8-0.1-1.5-0.2-2.2h-3.4c-0.3-1.4-0.9-2.8-1.6-3.9l2.4-2.4
		c-0.9-1.2-2-2.3-3.2-3.2l-2.4,2.4c-1.2-0.8-2.5-1.3-3.9-1.6v-3.4c-0.7-0.1-1.5-0.2-2.2-0.2c-0.8,0-1.5,0.1-2.2,0.2V19
		c-1.4,0.3-2.8,0.9-3.9,1.6l-2.4-2.4c-1.2,0.9-2.3,2-3.2,3.2l2.4,2.4c-0.8,1.2-1.3,2.5-1.6,3.9h-3.4c-0.1,0.7-0.2,1.5-0.2,2.2
		c0,0.8,0.1,1.5,0.2,2.2h3.4c0.3,1.4,0.9,2.8,1.6,3.9l-2.4,2.4c0.9,1.2,1.9,2.3,3.2,3.2l2.4-2.4c1.2,0.8,2.5,1.4,3.9,1.6v3.4
		c0.7,0.1,1.5,0.2,2.2,0.2c0.8,0,1.5-0.1,2.2-0.2v-3.4c1.4-0.3,2.8-0.9,3.9-1.6l2.4,2.4c1.2-0.9,2.3-2,3.2-3.2L47,36
		c0.8-1.2,1.3-2.5,1.6-3.9H52.1z M37.7,36.6c-3.7,0-6.7-3-6.7-6.7s3-6.7,6.7-6.7s6.7,3,6.7,6.7S41.4,36.6,37.7,36.6z"/>
	<rect x="5.2" y="14.2" class="st2" width="11.2" height="11.2"/>
	<line class="st2" x1="4.1" y1="29.9" x2="17.5" y2="29.9"/>
	<line class="st2" x1="7.5" y1="34.3" x2="14.2" y2="34.3"/>
</g>
</svg>
