<?xml version="1.0" encoding="utf-8"?>
<!-- Generator: Adobe Illustrator 16.0.0, SVG Export Plug-In . SVG Version: 6.00 Build 0)  -->
<!DOCTYPE svg PUBLIC "-//W3C//DTD SVG 1.1//EN" "http://www.w3.org/Graphics/SVG/1.1/DTD/svg11.dtd">
<svg version="1.1" id="Layer_1" xmlns="http://www.w3.org/2000/svg" xmlns:xlink="http://www.w3.org/1999/xlink" x="0px" y="0px"
	 width="150px" height="50px" viewBox="-15.523 -15 150 50" enable-background="new -15.523 -15 150 50" xml:space="preserve">
<g>
	<g>
		<path fill="#0680AE" d="M1.433,2.284C1.3,2.328,1.146,2.825,1.123,2.969C1.09,3.18,1.2,3.401,1.188,3.623"/>
	</g>
	<g>
		<path fill="#0680AE" d="M18.424,1.454c-0.396-0.144-1.083-0.144-1.493-0.055"/>
	</g>
	<g>
		<path fill="#0680AE" d="M16.354,1.285c0.277,0,0.57,0.016,0.848-0.016c0.262-0.033,0.506-0.114,0.782-0.098
			c-0.326,0.049-0.604-0.146-0.962-0.032"/>
	</g>
	<g>
		<path fill="#0680AE" d="M18.555,1.546c-0.325-0.212-0.57-0.457-0.96-0.473c-0.295-0.017-0.686-0.065-0.947,0.049"/>
	</g>
	<g>
		<path fill="#0680AE" d="M1.032,2.23c0.017,0.49-0.114,0.979-0.098,1.484c-0.033-0.31-0.065-0.635-0.065-0.946
			C0.789,3.045,0.771,3.404,0.82,3.681c0.081,0.424,0.358,0.766,0.457,1.173"/>
	</g>
	<g>
		<path fill="#0680AE" d="M114.906,7.243c0.268-1.181-0.348-1.213-1.104-1.167c-0.789,0.048-1.586,0.032-2.377,0.003
			c-0.457-0.018-0.646,0.096-0.644,0.604c0.02,3.822,0.017,7.646,0.003,11.465c-0.002,0.437,0.111,0.604,0.568,0.591
			c0.99-0.027,1.982-0.033,2.974,0.003c0.493,0.017,0.625-0.16,0.616-0.633c-0.024-1.471-0.008-2.944-0.008-4.416
			c0-2.215,1.154-3.612,3.358-3.98c0.487-0.081,0.685-0.211,0.654-0.73c-0.05-0.847-0.056-1.701-0.017-2.548
			c0.025-0.591-0.22-0.634-0.713-0.556C117.064,6.059,115.984,6.406,114.906,7.243z"/>
		<path fill="#0680AE" d="M29.926,0.014c-0.113,0.397,0.141,0.707,0.266,1.037c2.112,5.614,4.23,11.227,6.372,16.829
			c0.243,0.64,0.237,0.899-0.558,0.851c-1.016-0.061-2.039-0.039-3.057-0.004c-0.472,0.017-0.716-0.113-0.855-0.586
			c-0.231-0.787-0.553-1.547-0.805-2.326c-0.121-0.379-0.313-0.526-0.729-0.522c-1.841,0.024-3.682,0.022-5.521,0.002
			c-0.412-0.005-0.607,0.136-0.731,0.521c-0.258,0.809-0.563,1.602-0.84,2.402c-0.097,0.279-0.185,0.516-0.564,0.504
			c-2.318-0.072-4.649,0.185-6.957-0.146c-3.493-0.5-6.232-2.028-7.265-5.691C8.554,12.434,8.196,12.475,7.88,12.4
			c-4.381-1.035-7.371-4.381-7.706-8.62C0.18,3.367,0.321,2.938,0.02,2.562c0-0.651,0.043-1.305-0.012-1.952
			C-0.037,0.098,0.108-0.002,0.615,0c5.579,0.022,11.157,0.014,16.736,0.014c0.257,0.24,0.564,0.18,0.868,0.15
			c1.59,0.272,2.947,0.957,3.972,2.232c0.233,0.292,0.424,0.569,0.253,0.994c-0.488,1.226-0.942,2.465-1.456,3.819
			c-0.233-0.552-0.4-0.995-0.604-1.421c-0.684-1.43-1.81-2.236-3.41-2.247c-4.241-0.025-8.485-0.01-12.729-0.033
			C3.66,3.505,3.674,3.781,3.772,4.192c0.47,1.959,1.553,3.434,3.402,4.293c1.178,0.546,2.428,0.79,3.715,0.687
			c0.826-0.067,1.237,0.141,1.06,1.035c-0.022,0.109-0.003,0.227-0.003,0.339c0.001,2.399,0.939,3.638,3.253,4.322
			c1.409,0.417,2.853,0.342,4.293,0.385c0.581,0.019,0.843-0.181,1.043-0.718c1.706-4.582,3.441-9.153,5.161-13.73
			c0.093-0.249,0.309-0.488,0.151-0.791C27.207,0.014,28.567,0.014,29.926,0.014z M27.799,6.076
			c-0.624,1.792-1.155,3.334-1.703,4.869c-0.122,0.344-0.038,0.457,0.318,0.453c1.039-0.01,2.08-0.002,3.234-0.002
			C29.037,9.64,28.459,7.975,27.799,6.076z"/>
		<path fill="#0680AE" d="M86.195,0.16c1.77,0.375,2.438,1.188,2.457,3.102c0.024,2.292,0.004,4.585,0.013,6.879
			c0,0.266-0.083,0.55,0.127,0.891c1.166-1.464,2.323-2.877,3.429-4.33c0.363-0.478,0.75-0.668,1.348-0.649
			c1.32,0.042,2.642,0.013,4.17,0.013c-0.471,0.611-0.816,1.073-1.176,1.525c-1.016,1.289-2.02,2.587-3.064,3.851
			c-0.326,0.396-0.35,0.65-0.014,1.064c1.619,1.994,3.201,4.021,4.942,6.225c-1.212,0-2.247-0.095-3.256,0.023
			c-1.334,0.159-2.188-0.311-2.938-1.418c-1.031-1.518-2.25-2.906-3.424-4.396c-0.238,0.293-0.142,0.606-0.144,0.888
			c-0.013,1.414-0.026,2.831,0.005,4.243c0.01,0.521-0.15,0.691-0.673,0.673c-0.933-0.038-1.868-0.028-2.802-0.004
			c-0.42,0.012-0.6-0.089-0.598-0.558c0.023-6.056,0.03-12.112,0.041-18.167c0.283,0,0.565,0,0.848,0
			C85.688,0.243,85.941,0.203,86.195,0.16z"/>
		<path fill="#0680AE" d="M102.313,19.045c-0.154-0.275-0.453-0.189-0.681-0.249c-3.504-0.916-5.345-3.687-4.922-7.438
			c0.36-3.225,2.985-5.58,6.345-5.739c4.291-0.205,6.983,2.82,6.783,7.337c-0.025,0.6-0.396,0.496-0.749,0.496
			c-2.575,0.003-5.151,0.025-7.726-0.014c-0.829-0.013-0.736,0.313-0.465,0.836c0.875,1.677,3.482,2.108,5.015,0.746
			c0.503-0.446,0.813-0.399,1.28-0.065c0.529,0.375,1.076,0.731,1.652,1.035c0.521,0.274,0.445,0.51,0.104,0.881
			c-1.063,1.149-2.354,1.83-3.906,2.015c-0.462,0.018-0.947-0.16-1.373,0.161c-0.057,0-0.113,0-0.17,0
			c-0.169-0.213-0.341-0.233-0.51,0C102.764,19.045,102.537,19.045,102.313,19.045z M103.268,10.752
			c0.649,0,1.299,0.006,1.949-0.001c0.786-0.007,0.876-0.151,0.565-0.894c-0.403-0.963-1.259-1.432-2.487-1.361
			c-1.148,0.065-2.236,0.831-2.507,1.727c-0.134,0.443,0.044,0.544,0.446,0.535C101.91,10.739,102.591,10.752,103.268,10.752z"/>
		<path fill="#0680AE" d="M55.229,18.889c-1.813-0.287-2.773-1.224-3.047-3.016c-0.077-0.5-0.11-1.014-0.111-1.52
			c-0.009-4.472-0.005-8.941-0.008-13.413c0-0.309-0.032-0.618-0.048-0.928c0.339,0,0.68,0,1.02,0
			c0.148,0.197,0.345,0.186,0.553,0.126c1.814,0.335,2.513,1.173,2.52,3.026c0.004,0.623,0.035,1.249-0.009,1.868
			c-0.038,0.543,0.184,0.68,0.685,0.657c0.764-0.034,1.53,0.018,2.293-0.018c0.496-0.023,0.635,0.165,0.618,0.638
			c-0.032,0.876-0.027,1.756-0.001,2.633c0.014,0.443-0.135,0.597-0.582,0.58c-0.82-0.03-1.642,0.008-2.463-0.014
			c-0.395-0.011-0.555,0.103-0.547,0.523c0.023,1.243-0.014,2.491,0.021,3.735c0.032,1.215,0.479,1.608,1.693,1.58
			c0.283-0.009,0.587,0.021,0.845-0.068c0.889-0.313,1.165,0.018,1.03,0.884c-0.034,0.22-0.005,0.452-0.005,0.678
			c0,1.843,0,1.843-1.867,2.058C56.955,18.896,56.092,18.893,55.229,18.889z"/>
		<path fill="#0680AE" d="M40.621,0.191c1.198,0.635,1.675,1.614,1.353,2.779c-0.274,0.993-1.233,1.686-2.303,1.661
			c-1.073-0.024-2.007-0.814-2.22-1.876C37.227,1.642,37.74,0.791,39.1,0.014c0.341,0,0.681,0,1.021,0
			C40.243,0.202,40.426,0.211,40.621,0.191z"/>
		<path fill="#0680AE" d="M71.704,14.105c0,1.33,0,2.66,0,3.988c0,0.313,0.06,0.643-0.438,0.626c-2.4-0.084-4.816,0.205-7.203-0.202
			c-2.721-0.466-3.959-2.352-3.211-4.813c0.426-1.403,1.463-2.175,2.791-2.613c1.092-0.358,2.225-0.431,3.357-0.356
			c0.674,0.047,0.749-0.253,0.663-0.8c-0.159-1.008-0.915-1.539-2.062-1.378c-0.824,0.116-1.598,0.418-2.252,0.929
			c-0.425,0.33-0.652,0.248-0.941-0.15c-0.434-0.596-0.902-1.163-1.385-1.719c-0.248-0.289-0.191-0.448,0.086-0.681
			c1.984-1.667,6.254-2.004,8.457-0.649c1.457,0.897,2.092,2.256,2.129,3.917C71.727,11.5,71.703,12.805,71.704,14.105z
			 M67.693,14.803c-0.016-1.602,0.143-1.391-0.838-1.402c-1.459-0.02-2.111,0.423-2.109,1.371c0.003,0.922,0.621,1.237,2.064,1.345
			C68.036,16.205,67.634,15.393,67.693,14.803z"/>
		<path fill="#0680AE" d="M79.23,18.915c-0.174-0.009-0.349-0.017-0.523-0.024c-0.689,0-1.383-0.002-2.074-0.004
			c-1.354-0.135-2.578-0.596-3.684-1.391c-0.387-0.275-0.57-0.541-0.145-0.928c0.082-0.074,0.143-0.176,0.213-0.264
			c0.441-0.553,0.778-1.338,1.354-1.594c0.62-0.277,1.126,0.598,1.756,0.846c0.834,0.326,1.648,0.594,2.547,0.291
			c0.403-0.138,0.7-0.361,0.742-0.824c0.045-0.496-0.193-0.83-0.63-0.992c-0.581-0.217-1.183-0.381-1.778-0.562
			c-0.459-0.139-0.935-0.233-1.379-0.409c-1.26-0.492-2.195-1.308-2.393-2.724c-0.223-1.593,0.273-2.923,1.635-3.833
			c1.736-1.162,3.658-1.242,5.632-0.82c0.95,0.202,1.831,0.569,2.631,1.136c0.386,0.273,0.593,0.521,0.144,0.905
			c-0.084,0.072-0.143,0.176-0.213,0.263c-0.426,0.529-0.752,1.26-1.301,1.536c-0.619,0.31-1.102-0.537-1.717-0.743
			C79.27,8.52,78.52,8.385,77.729,8.665c-0.386,0.136-0.629,0.392-0.646,0.803c-0.02,0.424,0.236,0.692,0.615,0.817
			c0.511,0.169,1.025,0.314,1.548,0.445c0.688,0.172,1.373,0.342,2.012,0.655c1.276,0.632,2.144,1.556,2.22,3.058
			c0.082,1.615-0.541,2.865-1.925,3.713C80.841,18.59,80.061,18.83,79.23,18.915z"/>
		<path fill="#0680AE" d="M114.906,7.243c1.078-0.836,2.158-1.184,3.314-1.365c0.493-0.078,0.738-0.035,0.713,0.556
			c-0.039,0.847-0.033,1.701,0.017,2.548c0.028,0.52-0.167,0.65-0.654,0.73c-2.204,0.368-3.358,1.767-3.358,3.981
			c0,1.471-0.018,2.943,0.008,4.416c0.009,0.472-0.123,0.647-0.616,0.632c-0.99-0.036-1.981-0.03-2.974-0.003
			c-0.457,0.014-0.57-0.154-0.568-0.59c0.014-3.82,0.018-7.645-0.003-11.466c-0.005-0.508,0.187-0.622,0.644-0.604
			c0.791,0.028,1.588,0.044,2.377-0.003C114.561,6.03,115.174,6.062,114.906,7.243z"/>
		<path fill="#0680AE" d="M47.088,7.294c1.122-0.91,2.218-1.227,3.372-1.424c0.557-0.095,0.718,0.08,0.679,0.601
			c-0.025,0.337,0.003,0.678,0.003,1.018c0.001,0.623,0.157,1.303-0.046,1.853c-0.234,0.635-1.071,0.383-1.615,0.626
			c-1.479,0.662-2.33,1.874-2.334,3.517c-0.004,1.529-0.02,3.06,0.01,4.586c0.01,0.515-0.138,0.693-0.666,0.673
			c-0.96-0.039-1.924-0.023-2.887-0.007c-0.4,0.009-0.614-0.059-0.612-0.545c0.018-3.848,0.018-7.697,0-11.547
			c-0.002-0.464,0.176-0.575,0.597-0.563c0.849,0.023,1.702,0.056,2.547-0.009C46.907,6.012,47.346,6.183,47.088,7.294z"/>
		<path fill="#0680AE" d="M37.627,12.209c0-1.951,0.017-3.902-0.011-5.851c-0.008-0.534,0.152-0.691,0.682-0.631
			c0.591,0.066,1.184,0.09,1.751,0.285c1.1,0.377,1.758,1.173,1.769,2.335c0.031,3.278,0.005,6.558,0.024,9.834
			c0.003,0.471-0.185,0.566-0.601,0.558c-0.987-0.021-1.979-0.035-2.968,0.004c-0.538,0.022-0.663-0.183-0.656-0.685
			C37.642,16.109,37.627,14.158,37.627,12.209z"/>
		<g>
			<path fill="#0680AE" d="M86.49,1.553c-0.033-0.154-0.453-0.176-0.598-0.165c0.521-0.089,1.272,0.276,1.351,0.807"/>
		</g>
		<g>
			<path fill="#0680AE" d="M85.861,1.31c0.088-0.011,0.176,0.011,0.265,0.044"/>
		</g>
		<g>
			<path fill="#0680AE" d="M53.227,1.864c0.021-0.133-0.011-0.487-0.11-0.542"/>
		</g>
		<g>
			<path fill="#0680AE" d="M40.638,2.328c0-0.254,0.011-0.409-0.134-0.629c-0.1-0.167-0.297-0.499-0.529-0.277"/>
		</g>
		<g>
			<path fill="#0680AE" d="M101.128,17.466c0.022,0.118,0.208,0.206,0.306,0.282c0.131,0.12,0.25,0.25,0.402,0.348
				c0.229,0.141,0.456,0.338,0.695,0.457c0.445,0.207,1.119,0.088,1.574,0.021c0.806-0.131,1.521-0.262,2.229-0.674"/>
		</g>
		<g>
			<path fill="#0680AE" d="M101.939,18.327c0.213,0.058,0.424,0.114,0.637,0.163"/>
		</g>
		<g>
			<path fill="#0680AE" d="M102.12,18.368c0.106,0.179,0.473,0.188,0.659,0.204c0.352,0.031,0.75,0.049,1.093-0.049"/>
		</g>
		<g>
			<path fill="#0680AE" d="M86.689,3.437c0.019-0.472-0.26-1.043-0.39-1.5c-0.05-0.196-0.032-0.522-0.147-0.701
				c-0.098-0.196-0.342-0.18-0.569-0.163"/>
		</g>
		<g>
			<path fill="#0680AE" d="M53.666,3.926c0.115-0.57-0.031-1.173-0.13-1.728c-0.032-0.212-0.064-0.44-0.064-0.652
				c-0.017-0.343,0-0.424-0.36-0.457"/>
		</g>
		<g>
			<path fill="#0680AE" d="M40.562,2.264c0-0.229-0.017-0.392-0.099-0.604c-0.049-0.147-0.179-0.554-0.309-0.636"/>
		</g>
		<g>
			<path fill="#0680AE" d="M116.975,20c-0.648,0-1.176-0.527-1.176-1.174c0-0.648,0.526-1.176,1.176-1.176
				c0.646,0,1.174,0.526,1.174,1.176C118.148,19.473,117.621,20,116.975,20z M116.975,17.963c-0.477,0-0.863,0.387-0.863,0.863
				c0,0.475,0.388,0.861,0.863,0.861c0.475,0,0.861-0.388,0.861-0.861C117.836,18.35,117.448,17.963,116.975,17.963z"/>
		</g>
		<g>
			<path fill="#0680AE" d="M116.863,18.945v0.393h-0.217v-1.023h0.299c0.14,0,0.242,0.024,0.31,0.076
				c0.065,0.051,0.101,0.127,0.101,0.23c0,0.061-0.018,0.113-0.051,0.16s-0.078,0.084-0.141,0.109l0.301,0.446h-0.24l-0.244-0.394
				h-0.117V18.945z M116.863,18.77h0.07c0.068,0,0.119-0.013,0.151-0.035s0.05-0.06,0.05-0.106c0-0.049-0.018-0.084-0.051-0.104
				c-0.033-0.02-0.085-0.029-0.154-0.029h-0.066V18.77z"/>
		</g>
	</g>
</g>
</svg>
