<?xml version="1.0" encoding="utf-8"?>
<!-- Generator: Adobe Illustrator 16.0.0, SVG Export Plug-In . SVG Version: 6.00 Build 0)  -->
<!DOCTYPE svg PUBLIC "-//W3C//DTD SVG 1.1//EN" "http://www.w3.org/Graphics/SVG/1.1/DTD/svg11.dtd">
<svg version="1.1" id="Layer_1" xmlns="http://www.w3.org/2000/svg" xmlns:xlink="http://www.w3.org/1999/xlink" x="0px" y="0px"
	 width="59.521px" height="50px" viewBox="-72.75 3.645 59.521 50" enable-background="new -72.75 3.645 59.521 50"
	 xml:space="preserve">
<path d="M-45.874,15.02c0,2.484-0.691,4.604-2.06,6.351c-1.377,1.745-3.491,3.015-6.4,3.867v0.1l10.627,14.661h-7.825l-9.683-13.808
	h-4.494v13.808h-6.517V4.337h10.85c1.797,0,3.493,0.102,5.024,0.318c1.533,0.204,2.857,0.522,3.975,0.896
	c2.114,0.792,3.702,2.013,4.859,3.548C-46.396,10.687-45.874,12.642-45.874,15.02z M-62.484,20.735c1.482,0,2.753-0.056,3.809-0.208
	c1.054-0.166,1.904-0.317,2.642-0.586c1.326-0.476,2.223-1.167,2.754-2.063c0.534-0.842,0.739-1.849,0.739-2.966
	c0-0.952-0.205-1.797-0.579-2.539c-0.429-0.733-1.063-1.318-2.064-1.742c-0.635-0.261-1.429-0.479-2.325-0.635
	c-0.952-0.162-2.118-0.21-3.492-0.21h-4.656v10.95H-62.484z M-21.967,9.151c-1.793,0-3.42,0.317-4.911,0.902
	c-1.487,0.578-2.806,1.417-3.866,2.54c-1.045,1.1-1.906,2.484-2.541,4.126c-0.578,1.636-0.891,3.54-0.891,5.661
	c0,2.11,0.256,3.958,0.834,5.546c0.533,1.587,1.327,2.915,2.389,3.966c1.013,1.074,2.282,1.855,3.76,2.441
	c1.473,0.537,3.174,0.782,5.029,0.782c1.367,0,2.737-0.099,4.121-0.296c1.438-0.227,2.709-0.535,3.979-0.974v5.614
	c-1.271,0.383-2.598,0.635-4.037,0.849c-1.427,0.226-2.893,0.323-4.502,0.323c-3.006,0-5.659-0.436-7.973-1.27
	c-2.282-0.846-4.236-2.06-5.772-3.662c-1.539-1.572-2.709-3.421-3.492-5.664c-0.783-2.161-1.172-4.595-1.172-7.239
	c0-2.697,0.439-5.238,1.221-7.568c0.848-2.32,2.004-4.337,3.612-6.03c1.515-1.688,3.473-3.07,5.812-4.022
	c2.441-1.007,5.078-1.532,8.047-1.532c1.523,0,2.95,0.11,4.277,0.318c1.382,0.207,2.596,0.476,3.643,0.842v5.565
	c-1.416-0.43-2.734-0.748-3.955-0.952C-19.576,9.248-20.797,9.151-21.967,9.151z M-72.641,45.333h59.412v2.131h-59.412V45.333z
	 M-69.575,50.47c0,0.318-0.111,0.579-0.261,0.804c-0.168,0.198-0.431,0.354-0.803,0.467l1.27,1.79h-0.897l-1.157-1.678h-0.533v1.678
	h-0.793v-4.33h1.326c0.204,0,0.419,0,0.579,0.056c0.206,0,0.373,0.056,0.475,0.113c0.269,0.101,0.478,0.247,0.586,0.409
	C-69.632,49.948-69.575,50.203-69.575,50.47z M-71.591,51.161h0.484c0.102,0,0.205-0.056,0.317-0.056
	c0.15-0.056,0.262-0.169,0.317-0.268c0.053-0.098,0.102-0.198,0.102-0.367c0-0.113,0-0.219-0.049-0.316
	c-0.053-0.098-0.108-0.149-0.269-0.206c-0.049-0.057-0.157-0.057-0.269-0.057h-1.001v1.327h0.366V51.161z M-66.293,52.431h-1.638
	l-0.431,1.1h-0.84l1.688-4.33h0.739l1.701,4.33h-0.805L-66.293,52.431z M-67.091,50.252c-0.154,0.488-0.262,0.854-0.423,1.123
	l-0.156,0.366h1.108l-0.156-0.366C-66.83,51.05-66.928,50.691-67.091,50.252z M-62.328,51.219c0.317,0.409,0.578,0.84,0.747,1.157
	c0-0.579-0.056-0.952-0.056-1.215v-1.96h0.788v4.33h-0.788l-1.434-2.01c-0.268-0.303-0.528-0.732-0.79-1.221
	c0,0.537,0.057,0.974,0.057,1.221v1.955h-0.804v-4.333h0.854L-62.328,51.219z M-59.945,53.531v-4.33h0.792v1.96l1.644-1.96h1.007
	l-1.807,2.125l1.958,2.15h-1.006l-1.739-1.955v1.955h-0.849V53.531z M-55.922,53.531v-4.33h0.786v4.33H-55.922z M-52.011,51.219
	c0.317,0.409,0.586,0.84,0.739,1.157c0-0.579-0.056-0.952-0.056-1.215v-1.96h0.804v4.33h-0.853l-1.427-2.01
	c-0.261-0.303-0.526-0.732-0.795-1.221c0.049,0.537,0.049,0.974,0.049,1.221v1.955h-0.684v-4.333h0.852L-52.011,51.219z
	 M-46.933,51.853h-0.952v-0.692h1.75v2.216c-0.056,0-0.163,0.049-0.261,0.049c-0.113,0-0.22,0.051-0.317,0.051
	c-0.113,0-0.269,0.055-0.374,0.055h-0.374c-0.374,0-0.741-0.055-1.01-0.154c-0.317-0.098-0.521-0.254-0.732-0.423
	c-0.22-0.212-0.317-0.409-0.424-0.691c-0.113-0.253-0.162-0.521-0.162-0.839c0-0.205,0-0.432,0.049-0.635
	c0.057-0.206,0.113-0.375,0.22-0.586c0.098-0.146,0.21-0.312,0.366-0.48c0.162-0.154,0.317-0.252,0.479-0.353
	c0.155-0.113,0.374-0.169,0.579-0.227c0.211-0.056,0.43-0.056,0.69-0.056c0.205,0,0.424,0,0.636,0.056
	c0.204,0.058,0.374,0.058,0.472,0.113v0.691c-0.154-0.057-0.317-0.113-0.528-0.113c-0.155-0.056-0.317-0.056-0.522-0.056
	c-0.219,0-0.486,0.056-0.635,0.112c-0.219,0.057-0.374,0.165-0.536,0.312c-0.155,0.154-0.269,0.324-0.366,0.537
	c-0.106,0.196-0.106,0.421-0.106,0.684c0,0.537,0.155,0.896,0.424,1.172c0.268,0.245,0.635,0.358,1.107,0.358h0.261
	c0.113,0,0.17,0,0.268-0.056V51.853z M-42.281,49.779c-0.195,0-0.417,0.056-0.574,0.112c-0.16,0.057-0.317,0.165-0.478,0.312
	l-0.317,0.488c-0.057,0.195-0.108,0.414-0.108,0.684c0,0.253,0.052,0.479,0.108,0.684c0.056,0.204,0.16,0.373,0.261,0.486
	c0.113,0.1,0.266,0.197,0.485,0.296c0.149,0.058,0.372,0.113,0.623,0.113c0.162,0,0.331,0,0.488-0.056
	c0.146,0,0.309-0.058,0.479-0.107v0.686c-0.17,0.055-0.332,0.055-0.479,0.113c-0.157,0-0.383,0.055-0.537,0.055
	c-0.368,0-0.686-0.055-0.946-0.168c-0.263-0.1-0.531-0.246-0.692-0.409c-0.205-0.227-0.317-0.423-0.425-0.691
	c-0.098-0.269-0.153-0.579-0.153-0.903c0-0.312,0.056-0.635,0.153-0.89c0.107-0.282,0.269-0.526,0.425-0.748
	c0.21-0.218,0.43-0.364,0.692-0.465c0.261-0.113,0.578-0.169,0.946-0.169c0.154,0,0.38,0,0.537,0.056
	c0.146,0,0.309,0.056,0.421,0.113v0.687c-0.169-0.052-0.323-0.108-0.47-0.108C-42.007,49.779-42.119,49.779-42.281,49.779z
	 M-38.196,52.431h-1.644l-0.431,1.1h-0.839l1.699-4.33h0.742l1.686,4.33h-0.855L-38.196,52.431z M-39.057,50.252
	c-0.148,0.488-0.246,0.854-0.409,1.123l-0.17,0.366h1.114l-0.146-0.366C-38.719,51.05-38.888,50.691-39.057,50.252z M-33.285,50.47
	c0,0.318-0.109,0.579-0.256,0.804c-0.153,0.198-0.436,0.354-0.789,0.467l1.271,1.79h-0.97l-1.161-1.678h-0.521v1.678h-0.805v-4.33
	h1.326c0.227,0,0.429,0,0.578,0.056c0.227,0,0.387,0.056,0.485,0.113c0.264,0.101,0.488,0.247,0.586,0.409
	C-33.395,49.948-33.285,50.203-33.285,50.47z M-35.348,51.161h0.488c0.098,0,0.195-0.056,0.305-0.056
	c0.169-0.056,0.281-0.169,0.329-0.268c0.099-0.098,0.099-0.198,0.099-0.367c0-0.113,0-0.219-0.049-0.316
	c-0.05-0.098-0.154-0.149-0.267-0.206c-0.057-0.057-0.17-0.057-0.271-0.057h-0.998v1.327h0.364V51.161z M-28.463,51.375
	c0,0.309-0.049,0.635-0.15,0.888c-0.113,0.282-0.227,0.528-0.436,0.691c-0.146,0.227-0.426,0.374-0.635,0.472
	c-0.257,0.105-0.586,0.164-0.892,0.164c-0.329,0-0.636-0.059-0.915-0.164c-0.244-0.098-0.469-0.245-0.635-0.472
	c-0.146-0.212-0.299-0.409-0.412-0.691c-0.113-0.253-0.169-0.579-0.169-0.888c0-0.325,0.056-0.635,0.169-0.904
	c0.113-0.268,0.217-0.522,0.412-0.691c0.166-0.211,0.439-0.357,0.635-0.467c0.279-0.111,0.586-0.169,0.915-0.169
	c0.306,0,0.635,0.058,0.892,0.169c0.266,0.109,0.488,0.256,0.635,0.467c0.153,0.226,0.322,0.424,0.436,0.691
	C-28.512,50.74-28.463,51.05-28.463,51.375z M-29.306,51.375c0-0.27-0.057-0.488-0.112-0.684c-0.057-0.221-0.168-0.391-0.266-0.488
	s-0.257-0.198-0.427-0.312c-0.159-0.057-0.306-0.112-0.521-0.112c-0.224,0-0.37,0.056-0.522,0.112
	c-0.169,0.057-0.336,0.165-0.434,0.312c-0.098,0.098-0.201,0.324-0.258,0.488c-0.056,0.195-0.113,0.414-0.113,0.684
	c0,0.253,0.058,0.479,0.113,0.684c0.057,0.204,0.16,0.373,0.258,0.486c0.098,0.1,0.265,0.197,0.434,0.296
	c0.152,0.058,0.299,0.113,0.522,0.113c0.216,0,0.362-0.056,0.521-0.113c0.17-0.05,0.329-0.147,0.427-0.296
	c0.098-0.113,0.209-0.339,0.266-0.486C-29.362,51.853-29.306,51.628-29.306,51.375z M-27.047,49.201v3.64h2.018v0.69h-2.799v-4.33
	H-27.047z M-24.451,53.531v-4.33h0.805v4.33H-24.451z M-20.527,51.219c0.316,0.409,0.578,0.84,0.747,1.157
	c0-0.579-0.056-0.952-0.056-1.215v-1.96h0.797v4.33h-0.797l-1.439-2.01c-0.254-0.303-0.522-0.732-0.791-1.221
	c0,0.537,0.049,0.974,0.049,1.221v1.955h-0.781v-4.333h0.832L-20.527,51.219z M-15.67,52.431h-1.626l-0.425,1.1h-0.845l1.679-4.33
	h0.748l1.689,4.33h-0.83L-15.67,52.431z M-16.451,50.252c-0.153,0.488-0.266,0.854-0.436,1.123l-0.15,0.366h1.123l-0.169-0.366
	C-16.139,51.05-16.305,50.691-16.451,50.252z M-13.229,49.835c0,0.466-0.37,0.856-0.835,0.856c-0.483,0-0.861-0.391-0.861-0.856
	c0-0.465,0.378-0.853,0.915-0.853C-13.599,48.982-13.229,49.37-13.229,49.835z M-14.756,49.835c0,0.368,0.258,0.692,0.635,0.692
	c0.355,0,0.636-0.324,0.636-0.692c0-0.364-0.28-0.691-0.636-0.691C-14.449,49.201-14.756,49.47-14.756,49.835z M-14.233,50.301
	h-0.216v-0.83h0.328c0.16,0,0.209,0,0.258,0.049s0.098,0.098,0.098,0.146c0,0.113-0.049,0.169-0.146,0.226
	c0.098,0,0.098,0.113,0.146,0.214c0,0.098,0.054,0.146,0.054,0.195h-0.2c0-0.049-0.049-0.098-0.049-0.195
	c0-0.101-0.049-0.101-0.16-0.101h-0.112V50.301z M-14.233,49.835h0.112c0.111,0,0.209-0.056,0.209-0.112s-0.049-0.105-0.151-0.105
	h-0.113v0.218H-14.233z"/>
</svg>
