<?xml version="1.0" encoding="utf-8"?>
<!-- Generator: Adobe Illustrator 21.0.0, SVG Export Plug-In . SVG Version: 6.00 Build 0)  -->
<svg version="1.1" id="Layer_1" xmlns="http://www.w3.org/2000/svg" xmlns:xlink="http://www.w3.org/1999/xlink" x="0px" y="0px"
	 width="44.7px" height="44.7px" viewBox="0 0 44.7 44.7" style="enable-background:new 0 0 44.7 44.7;" xml:space="preserve">
<style type="text/css">
	.st0{fill:#FFDA30;}
	.st1{fill:#232323;}
</style>
<g>
	<rect x="7.4" y="12.9" class="st0" width="30.5" height="18.2"/>
	<path class="st1" d="M30,40.6c0,0.4,0.3,0.7,0.7,0.7h7.8c0.4,0,0.7-0.3,0.7-0.7s-0.3-0.7-0.7-0.7h-7.8C30.3,39.9,30,40.2,30,40.6"
		/>
	<path class="st1" d="M38.5,41.4h-7.8c-0.4,0-0.8-0.3-0.8-0.8c0-0.4,0.4-0.8,0.8-0.8h7.8c0.4,0,0.8,0.4,0.8,0.8S38.9,41.4,38.5,41.4
		 M30.7,40c-0.3,0-0.5,0.2-0.5,0.5s0.2,0.5,0.5,0.5h7.8c0.3,0,0.5-0.2,0.5-0.5S38.8,40,38.5,40H30.7z"/>
	<path class="st1" d="M43.9,12.9h-6V0.8c0-0.4-0.3-0.7-0.7-0.7H0.8c-0.4,0-0.7,0.3-0.7,0.7v30.4c0,0.4,0.3,0.7,0.7,0.7h6v12.2
		c0,0.4,0.3,0.7,0.7,0.7H44c0.4,0,0.7-0.3,0.7-0.7V13.6C44.6,13.2,44.3,12.9,43.9,12.9 M6.8,13.6v16.9H1.4v-29h35.2V13H7.4
		C7.1,12.9,6.8,13.2,6.8,13.6 M36.7,30.5H8.1V14.2h28.6V30.5z M43.3,43.3H8.1V31.8h29.2c0.4,0,0.7-0.3,0.7-0.7V14.2h5.3
		C43.3,14.2,43.3,43.3,43.3,43.3z"/>
	<path class="st1" d="M44,44.7H7.4c-0.4,0-0.8-0.4-0.8-0.8v-12H0.8c-0.4,0-0.8-0.3-0.8-0.8V0.8C0,0.3,0.3,0,0.8,0h36.5
		c0.4,0,0.8,0.4,0.8,0.8v12H44c0.4,0,0.8,0.4,0.8,0.8V44C44.7,44.4,44.4,44.7,44,44.7 M0.8,0.3c-0.3,0-0.5,0.2-0.5,0.5v30.4
		c0,0.3,0.2,0.5,0.5,0.5h6.1V44c0,0.3,0.2,0.5,0.5,0.5H44c0.3,0,0.5-0.2,0.5-0.5V13.6c0-0.3-0.2-0.5-0.5-0.5h-6.1V0.8
		c0-0.3-0.2-0.5-0.5-0.5H0.8z M43.4,43.4H8V31.7h29.4c0.3,0,0.5-0.2,0.5-0.5v-17h5.6L43.4,43.4L43.4,43.4z M8.2,43.2h35V14.4h-5.1
		v16.8c0,0.4-0.4,0.8-0.8,0.8H8.2V43.2z M36.8,30.6H8V14.1h28.8V30.6z M8.2,30.4h28.3v-16H8.2V30.4z M6.9,30.6H1.3V1.3h35.5V13H7.4
		c-0.3,0-0.5,0.2-0.5,0.5V30.6z M1.6,30.4h5.1V13.6c0-0.4,0.4-0.8,0.8-0.8h29.1V1.6h-35C1.6,1.6,1.6,30.4,1.6,30.4z"/>
	<path class="st1" d="M14.1,3.5H6.2c-0.4,0-0.7,0.3-0.7,0.7s0.3,0.7,0.7,0.7H14c0.4,0,0.7-0.3,0.7-0.7S14.4,3.5,14.1,3.5"/>
	<path class="st1" d="M14.1,4.9H6.2c-0.4,0-0.8-0.4-0.8-0.8s0.4-0.8,0.8-0.8H14c0.4,0,0.8,0.4,0.8,0.8C14.8,4.6,14.5,4.9,14.1,4.9
		 M6.2,3.6c-0.3,0-0.5,0.2-0.5,0.5s0.2,0.5,0.5,0.5H14c0.3,0,0.5-0.2,0.5-0.5S14.3,3.6,14,3.6H6.2z"/>
	<path class="st1" d="M28.9,17.6h4.4V22c0,0.4,0.3,0.7,0.7,0.7s0.7-0.3,0.7-0.7v-5c0-0.4-0.3-0.7-0.7-0.7h-5.1
		c-0.4,0-0.7,0.3-0.7,0.7C28.2,17.3,28.5,17.6,28.9,17.6"/>
	<path class="st1" d="M33.9,22.8c-0.4,0-0.8-0.4-0.8-0.8v-4.3h-4.3c-0.4,0-0.8-0.3-0.8-0.8c0-0.4,0.4-0.8,0.8-0.8h5.1
		c0.4,0,0.8,0.4,0.8,0.8V22C34.7,22.5,34.4,22.8,33.9,22.8 M28.9,16.4c-0.3,0-0.5,0.2-0.5,0.5s0.2,0.5,0.5,0.5h4.5V22
		c0,0.3,0.2,0.5,0.5,0.5s0.5-0.2,0.5-0.5v-5c0-0.3-0.2-0.5-0.5-0.5h-5V16.4z"/>
	<path class="st1" d="M10.8,28.4h5.1c0.4,0,0.7-0.3,0.7-0.7c0-0.4-0.3-0.7-0.7-0.7h-4.4v-4.4c0-0.4-0.3-0.7-0.7-0.7
		s-0.7,0.3-0.7,0.7v5.1C10.1,28.1,10.4,28.4,10.8,28.4"/>
	<path class="st1" d="M15.9,28.5h-5.1c-0.4,0-0.8-0.4-0.8-0.8v-5.1c0-0.4,0.4-0.8,0.8-0.8c0.4,0,0.8,0.4,0.8,0.8V27h4.3
		c0.4,0,0.8,0.3,0.8,0.8C16.7,28.2,16.3,28.5,15.9,28.5 M10.8,28.3h5.1c0.3,0,0.5-0.2,0.5-0.5s-0.2-0.5-0.5-0.5h-4.5v-4.5
		c0-0.3-0.2-0.5-0.5-0.5s-0.5,0.2-0.5,0.5v5.1C10.3,28.1,10.5,28.3,10.8,28.3"/>
</g>
</svg>
