<?xml version="1.0" encoding="utf-8"?>
<!-- Generator: Adobe Illustrator 21.0.0, SVG Export Plug-In . SVG Version: 6.00 Build 0)  -->
<svg version="1.1" id="Layer_1" xmlns="http://www.w3.org/2000/svg" xmlns:xlink="http://www.w3.org/1999/xlink" x="0px" y="0px"
	 width="45.7px" height="45.7px" viewBox="0 0 45.7 45.7" style="enable-background:new 0 0 45.7 45.7;" xml:space="preserve">
<style type="text/css">
	.st0{fill:#FFDA30;}
	.st1{fill:#232323;}
</style>
<g>
	<polygon class="st0" points="0.4,16.3 14.2,16.3 16.4,17.6 16.4,34.6 18.7,34.6 17.2,36.9 14.2,37.7 1.2,37.7 	"/>
	<path class="st1" d="M6.9,23.6H0.8C0.3,23.6,0,24,0,24.4v6.1c0,0.4,0.3,0.8,0.8,0.8h6.1c0.4,0,0.8-0.3,0.8-0.8v-6.1
		C7.6,24,7.3,23.6,6.9,23.6 M6.1,29.7H1.5v-4.6h4.6V29.7z"/>
	<path class="st1" d="M42.3,0H3.4C1.5,0,0,1.5,0,3.4v38.9c0,1.9,1.5,3.4,3.4,3.4h38.9c1.9,0,3.4-1.5,3.4-3.4V3.4
		C45.7,1.5,44.2,0,42.3,0 M44.2,42.3c0,1.1-0.9,1.9-1.9,1.9H3.4c-1,0-1.9-0.9-1.9-1.9V3.4c0-1.1,0.9-1.9,1.9-1.9h38.9
		c1.1,0,1.9,0.9,1.9,1.9C44.2,3.4,44.2,42.3,44.2,42.3z"/>
	<path class="st1" d="M6.9,3h-3C3.4,3,3,3.4,3,3.8v3c0,0.4,0.3,0.8,0.8,0.8h3c0.4,0,0.8-0.3,0.8-0.8v-3C7.6,3.4,7.3,3,6.9,3
		 M6.1,6.1H4.6V4.6h1.5V6.1z"/>
	<path class="st1" d="M13,3h-3C9.5,3,9.1,3.4,9.1,3.8v3c0,0.4,0.3,0.8,0.8,0.8h3c0.4,0,0.8-0.3,0.8-0.8v-3C13.7,3.4,13.4,3,13,3
		 M12.2,6.1h-1.5V4.6h1.5V6.1z"/>
	<path class="st1" d="M19.1,3h-3c-0.4,0-0.8,0.3-0.8,0.8v3c0,0.4,0.3,0.8,0.8,0.8h3c0.4,0,0.8-0.3,0.8-0.8v-3
		C19.8,3.4,19.5,3,19.1,3 M18.3,6.1h-1.5V4.6h1.5V6.1z"/>
	<path class="st1" d="M42.3,0H3.4C1.5,0,0,1.5,0,3.4v6.5c0,0.4,0.3,0.8,0.8,0.8H45c0.4,0,0.8-0.3,0.8-0.8V3.4
		C45.7,1.5,44.2,0,42.3,0 M44.2,9.1H1.5V3.4c0-1,0.9-1.9,1.9-1.9h38.9c1.1,0,1.9,0.9,1.9,1.9C44.2,3.4,44.2,9.1,44.2,9.1z"/>
	<path class="st1" d="M38.1,21.3H23.6c-0.4,0-0.8,0.3-0.8,0.8c0,0.4,0.3,0.8,0.8,0.8h14.5c0.4,0,0.8-0.3,0.8-0.8
		C38.9,21.7,38.5,21.3,38.1,21.3"/>
	<path class="st1" d="M34.3,18.3H23.6c-0.4,0-0.8,0.3-0.8,0.8c0,0.4,0.3,0.8,0.8,0.8h10.7c0.4,0,0.8-0.3,0.8-0.8
		C35.1,18.6,34.7,18.3,34.3,18.3"/>
	<path class="st1" d="M40.4,24.4H23.6c-0.4,0-0.8,0.3-0.8,0.8s0.3,0.8,0.8,0.8h16.8c0.4,0,0.8-0.3,0.8-0.8S40.8,24.4,40.4,24.4"/>
	<path class="st1" d="M38.1,32.8H23.6c-0.4,0-0.8,0.3-0.8,0.8s0.3,0.8,0.8,0.8h14.5c0.4,0,0.8-0.3,0.8-0.8S38.5,32.8,38.1,32.8"/>
	<path class="st1" d="M34.3,29.7H23.6c-0.4,0-0.8,0.3-0.8,0.8s0.3,0.8,0.8,0.8h10.7c0.4,0,0.8-0.3,0.8-0.8S34.7,29.7,34.3,29.7"/>
	<path class="st1" d="M40.4,35.8H23.6c-0.4,0-0.8,0.3-0.8,0.8s0.3,0.8,0.8,0.8h16.8c0.4,0,0.8-0.3,0.8-0.8S40.8,35.8,40.4,35.8"/>
	<path class="st1" d="M13,19.1H0.8c-0.4,0-0.8,0.3-0.8,0.8v15.2c0,0.4,0.3,0.8,0.8,0.8H13c0.4,0,0.8-0.3,0.8-0.8V19.8
		C13.7,19.4,13.4,19.1,13,19.1 M12.2,34.3H1.5V20.6h10.7V34.3z"/>
	<path class="st1" d="M13.9,16H0.8C0.3,16,0,16.3,0,16.8v18.3c0,0.4,0.3,0.8,0.8,0.8H16c0.4,0,0.8-0.3,0.8-0.8V18.8
		C16.8,17.3,15.5,16,13.9,16 M15.2,34.3H1.5V17.5h12.4c0.7,0,1.3,0.6,1.3,1.3V34.3z"/>
	<path class="st1" d="M18.3,34.3H0.8c-0.4,0-0.8,0.3-0.8,0.8v3c0,0.4,0.3,0.8,0.8,0.8h14.5c2.1,0,3.8-1.7,3.8-3.8
		C19.1,34.6,18.7,34.3,18.3,34.3 M15.2,37.3H1.5v-1.5h15.9C17.1,36.7,16.2,37.3,15.2,37.3"/>
</g>
</svg>
