<?xml version="1.0" encoding="utf-8"?>
<!-- Generator: Adobe Illustrator 21.0.0, SVG Export Plug-In . SVG Version: 6.00 Build 0)  -->
<svg version="1.1" id="Layer_1" xmlns="http://www.w3.org/2000/svg" xmlns:xlink="http://www.w3.org/1999/xlink" x="0px" y="0px"
	 width="51.8px" height="51.9px" viewBox="0 0 51.8 51.9" style="enable-background:new 0 0 51.8 51.9;" xml:space="preserve">
<style type="text/css">
	.st0{fill:#FFDA30;}
	.st1{fill:#232323;}
</style>
<g>
	<polygon class="st0" points="0.9,21.6 9.1,18 14.7,30.6 11.4,32.5 8.3,38.9 	"/>
	<polygon class="st0" points="29.1,14.8 35.4,15.7 37.3,10.9 36.9,6.4 32.8,0.9 31.8,5.4 29.1,8.9 27.5,11.9 	"/>
	<path class="st1" d="M44.7,38c0.3-1.5,0.3-3,0-4.4l4-9.6v0c0.6-1.8,1.6-3.4,2.8-4.8c0.3-0.3,0.4-0.8,0.3-1.2l-1.6-7
		c0-0.1,0-0.1-0.1-0.2c0,0,0,0,0,0c0,0,0,0-0.1-0.1c0-0.1-0.1-0.1-0.1-0.1c0,0-0.1,0-0.1-0.1c0,0-0.1-0.1-0.1-0.1
		c-0.1,0-0.1,0-0.2,0c0,0,0,0-0.1,0c-0.2,0-0.3,0-0.5,0.1c0,0,0,0,0,0h0l-6.1,3.8c-0.4,0.2-0.6,0.6-0.6,1.1
		c-0.2,1.9-0.7,3.7-1.5,5.4v0l-2,4.8c-1-0.5-2-0.9-3.1-1.1c0.4-2.8,0.6-5.7,0.4-8.5c1.6-1.9,2.4-4.4,2.1-6.9c-0.5-5-5.1-8.7-5.3-8.8
		c-0.3-0.2-0.7-0.2-1,0c-0.3,0.2-0.5,0.6-0.4,0.9c0.4,1.7,0.1,3.4-3.2,7.1c-1.5,1.4-1.9,3.6-1.2,5.5c0.3,0.7,0.7,1.4,1.2,2
		c-0.2,1.3-0.4,2.6-0.5,3.8c-0.2,2-0.2,4.1-0.1,6.1c-0.8,0.4-1.5,0.9-2.2,1.5L21.4,9.2c0,0,0,0,0,0c0-0.1,0-0.1-0.1-0.2L17,1.1
		c-0.4-0.8-1.3-1.2-2.2-1c-0.9,0.2-1.5,1-1.5,1.9l-0.3,9c0,0.1,0,0.1,0,0.2v0l4.3,18.3c-0.7,0-1.3,0.1-2,0.3l-4.7-11.4
		c-0.4-0.9-1.4-1.3-2.3-0.9l-7.2,3c-0.9,0.4-1.3,1.4-0.9,2.3L6.5,38c-3.7,0.2-6.6,3.3-6.5,7.1c0.1,3.7,3.2,6.7,6.9,6.7h38
		c2.5,0,4.7-1.4,5.9-3.5c1.2-2.2,1.2-4.8-0.1-6.9C49.5,39.3,47.2,38,44.7,38 M43.9,15.7l3.6-2.3l-1.3,3.1c-0.2,0.4,0,0.9,0.5,1.1
		c0.4,0.2,0.9,0,1.1-0.5l1.3-3.1l1,4.2c-1,1.3-1.9,2.6-2.5,4.1c-0.9,0.4-1.9,0.4-2.9,0.1c-0.9-0.4-1.6-1.1-2-2.1
		C43.3,18.9,43.7,17.3,43.9,15.7 M41.9,22.4c0.6,0.7,1.3,1.2,2.2,1.6c0.7,0.3,1.4,0.4,2.1,0.4c0.2,0,0.4,0,0.5,0l-2.8,6.7
		c-0.8-1.8-2.1-3.4-3.7-4.6L41.9,22.4z M30,16.3l4.3,0.3c0,0.8,0,1.6,0,2.5c-1.4,0.1-2.9,0-4.3-0.2c-0.1,0-0.2,0-0.3,0
		C29.8,18,29.9,17.1,30,16.3L30,16.3z M29.6,9.3c2.3-2.5,3.5-4.5,3.8-6.3c1.6,1.7,2.7,3.9,3.1,6.2c0.2,2-0.4,4.1-1.7,5.6
		c-1.7-0.1-3.4-0.2-5.1-0.3c-0.7-0.7-1.1-1.6-1.1-2.6C28.5,10.9,28.9,10,29.6,9.3L29.6,9.3z M29.5,20.5l0.3,0
		c1.1,0.2,2.2,0.3,3.4,0.3c0.4,0,0.7,0,1.1-0.1c-0.1,1.1-0.2,2.3-0.4,3.5c-0.2,0-0.4,0-0.6,0c-1.3,0-2.6,0.2-3.8,0.7
		C29.4,23.4,29.4,21.9,29.5,20.5L29.5,20.5z M22.9,30.6l-2.5-10.5c-0.1-0.5-0.6-0.7-1-0.6c-0.5,0.1-0.7,0.6-0.6,1l2.2,9.5
		c-0.6-0.2-1.2-0.4-1.9-0.5l-3.8-16.2c0.5,0.2,1.1,0.4,1.7,0.4c0.1,0,0.1,0,0.2,0l0.6,2.6c0.1,0.3,0.3,0.6,0.6,0.6
		c0.3,0.1,0.6,0,0.9-0.2c0.2-0.2,0.3-0.5,0.2-0.8l-0.6-2.6c0.6-0.3,1.1-0.7,1.5-1.1l3.9,16.5C23.7,29.2,23.2,29.9,22.9,30.6
		 M17.6,11.8c-1.1,0.2-2.2-0.2-2.9-1.2l0.1-3c0.3,0.1,0.6,0.1,0.9,0.1c0.3,0,0.6,0,0.9-0.1c0.6-0.2,1.1-0.4,1.6-0.8l1.5,2.7
		C19.5,10.6,18.7,11.6,17.6,11.8L17.6,11.8z M15.2,1.8c0.1,0,0.2,0,0.3,0.1l1.9,3.4C17,5.6,16.6,5.8,16.2,6C15.8,6,15.3,6,14.9,5.9
		L15,2C15,1.9,15.1,1.8,15.2,1.8 M9,19l0.7,1.6l-3.2,1.3c-0.4,0.2-0.6,0.6-0.5,1c0.1,0.4,0.4,0.7,0.8,0.7c0.1,0,0.2,0,0.3-0.1
		l3.2-1.3l0.7,1.6l-1.6,0.7c-0.4,0.2-0.6,0.6-0.5,1c0.1,0.4,0.4,0.7,0.8,0.7c0.1,0,0.2,0,0.3-0.1l1.6-0.7l0.7,1.6l-3.2,1.3
		c-0.4,0.2-0.6,0.6-0.5,1C8.6,29.7,9,30,9.4,30c0.1,0,0.2,0,0.3-0.1l3.2-1.3l0.7,1.7c-2.8,1.3-4.9,3.8-5.6,6.8L1.8,22L9,19z
		 M44.9,50.1h-38c-2.9,0-5.2-2.3-5.2-5.2c0-2.9,2.3-5.2,5.2-5.2c0.5,0,1,0.1,1.5,0.2c0.3,0.1,0.5,0,0.8-0.1s0.4-0.4,0.4-0.7
		c0.1-3.1,1.8-5.9,4.6-7.2c2.8-1.3,6.1-1,8.5,0.8c0.2,0.2,0.5,0.2,0.8,0.1c0.3-0.1,0.5-0.3,0.6-0.5c1.7-4.5,6.4-7.1,11.1-6.3
		c4.7,0.9,8.2,5,8.2,9.8c0,1-0.1,2-0.4,2.9c-0.1,0.3,0,0.6,0.2,0.8c0.2,0.2,0.5,0.3,0.8,0.3c0.4-0.1,0.8-0.1,1.2-0.1
		c2.9,0,5.2,2.3,5.2,5.2C50.1,47.8,47.8,50.1,44.9,50.1"/>
	<path class="st1" d="M33.4,13.6c0.3,0,0.5-0.1,0.7-0.3c1.1-1.5,1.5-3.3,1.1-5.1c-0.1-0.3-0.3-0.5-0.6-0.6s-0.6,0-0.8,0.2
		c-0.2,0.2-0.3,0.5-0.2,0.8c0.2,1.3-0.1,2.6-0.9,3.6c-0.2,0.3-0.2,0.6-0.1,0.9C32.8,13.4,33.1,13.6,33.4,13.6L33.4,13.6z"/>
	<path class="st1" d="M32.3,39.8c-0.6,0-1.3,0.1-1.9,0.4c-1.6-2.1-4.5-2.8-6.7-1.4c-2.3,1.3-3.2,4.1-2.2,6.5
		c0.1,0.3,0.4,0.5,0.8,0.5c0.1,0,0.2,0,0.3-0.1c0.2-0.1,0.4-0.3,0.5-0.5c0.1-0.2,0.1-0.5,0-0.7c-0.2-0.4-0.3-0.9-0.3-1.4
		c0-1.9,1.5-3.5,3.5-3.5c1.3,0,2.6,0.8,3.1,2c0,0,0,0.1,0.1,0.1c0,0,0,0.1,0,0.1c0,0,0,0,0.1,0c0,0,0.1,0.1,0.1,0.1
		c0,0,0.1,0.1,0.1,0.1c0,0,0.1,0,0.2,0c0.1,0,0.1,0,0.2,0c0.1,0,0.2,0,0.3-0.1c0,0,0,0,0.1,0c0,0,0.1,0,0.1-0.1c0,0,0.1,0,0.1,0
		c0.5-0.4,1-0.6,1.6-0.6c1,0,1.9,0.6,2.4,1.5c0.2,0.4,0.7,0.6,1.1,0.4c0.4-0.2,0.6-0.7,0.4-1.1C35.5,40.7,34,39.8,32.3,39.8"/>
	<path class="st1" d="M15.3,33.8c-0.1,0-3.2,1.1-3.2,4.3c0,0.5,0.4,0.9,0.9,0.9c0.5,0,0.9-0.4,0.9-0.9c0.1-1.2,0.9-2.2,2-2.6
		c0.5-0.2,0.7-0.6,0.5-1.1C16.2,33.8,15.7,33.6,15.3,33.8L15.3,33.8z"/>
	<path class="st1" d="M27.4,32.8c0.1,0,0.1,0,0.2,0c0.4,0,0.7-0.3,0.8-0.7c0.4-1.6,1.8-2.8,3.5-2.8c0.5,0,0.9-0.4,0.9-0.9
		c0-0.5-0.4-0.9-0.9-0.9c-2.5,0-4.6,1.7-5.2,4.1C26.7,32.2,27,32.7,27.4,32.8"/>
</g>
</svg>
