<?xml version="1.0" encoding="utf-8"?>
<!-- Generator: Adobe Illustrator 21.0.0, SVG Export Plug-In . SVG Version: 6.00 Build 0)  -->
<svg version="1.1" id="Layer_1" xmlns="http://www.w3.org/2000/svg" xmlns:xlink="http://www.w3.org/1999/xlink" x="0px" y="0px"
	 width="56.4px" height="56px" viewBox="0 0 56.4 56" style="enable-background:new 0 0 56.4 56;" xml:space="preserve">
<style type="text/css">
	.st0{fill:#FFDA30;}
	.st1{fill:#232323;}
</style>
<g>
	<path class="st0" d="M55.2,40.4c0,8.4-6.8,15.2-15.2,15.2s-15.2-6.8-15.2-15.2S31.6,25.2,40,25.2S55.2,32,55.2,40.4"/>
	<rect x="3.7" y="13" class="st1" width="1.9" height="1.9"/>
	<rect x="7.5" y="13" class="st1" width="1.9" height="1.9"/>
	<rect x="11.2" y="13" class="st1" width="1.9" height="1.9"/>
	<path class="st1" d="M48.7,26.7l7.1-12.2c1.3-2.2,0.5-5.1-1.7-6.4l0,0l-13-7.5c-2.2-1.3-5.1-0.5-6.4,1.7l0,0l-4,6.9H2.8
		C1.3,9.3,0,10.5,0,12.1v35.5c0,1.6,1.3,2.8,2.8,2.8h25.3c5.7,6.7,15.7,7.5,22.4,1.8s7.5-15.7,1.8-22.4
		C51.3,28.6,50.1,27.6,48.7,26.7 M43,4.9l0.5-0.8L50,7.8l-0.5,0.8c-0.3,0.4-0.8,0.6-1.3,0.3l-4.9-2.8C42.8,6,42.7,5.4,43,4.9L43,4.9
		z M36.3,3.3c0.8-1.3,2.5-1.8,3.8-1l0,0l1.6,0.9L41.3,4c-0.8,1.3-0.3,3.1,1,3.8l0,0l4.9,2.8c1.3,0.8,3.1,0.3,3.8-1l0,0l0.5-0.8
		l1.6,0.9c1.3,0.8,1.8,2.5,1,3.8l0,0L47,25.8c-7.9-3.8-17.3-0.5-21.2,7.3c-0.5,1.1-0.9,2.2-1.2,3.4l-3.3-1.9c-1.3-0.8-1.8-2.5-1-3.8
		L36.3,3.3z M2.8,11.1h26.8l-3.2,5.6H1.9V12C1.9,11.6,2.3,11.1,2.8,11.1 M1.9,47.6v-29h3.7v29.9H2.8C2.3,48.5,1.9,48.1,1.9,47.6
		 M7.5,48.5V18.6h17.8l-6.5,11.3c-1.3,2.2-0.5,5.1,1.7,6.4l3.9,2.2c-0.4,3.5,0.5,7.1,2.3,10.1H7.5V48.5z M40.2,54.2
		c-7.7,0-14-6.3-14-14s6.3-14,14-14s14,6.3,14,14S48,54.1,40.2,54.2"/>
	<path class="st1" d="M40.2,29.8c-5.7,0-10.3,4.6-10.3,10.3h1.9c0-4.6,3.8-8.4,8.4-8.4V29.8z"/>
	<path class="st1" d="M47,32l-5.6,5.6c-0.4-0.2-0.8-0.3-1.2-0.3c-1.5,0-2.8,1.3-2.8,2.8s1.3,2.8,2.8,2.8s2.8-1.3,2.8-2.8
		c0-0.4-0.1-0.8-0.3-1.2l5.6-5.6L47,32z M40.2,41.1c-0.5,0-0.9-0.4-0.9-0.9s0.4-0.9,0.9-0.9s0.9,0.4,0.9,0.9S40.7,41.1,40.2,41.1"/>
	<rect x="11.2" y="21.4" class="st1" width="7.5" height="1.9"/>
	<rect x="11.2" y="25.2" class="st1" width="5.6" height="1.9"/>
	<rect x="11.2" y="28.9" class="st1" width="5.6" height="1.9"/>
	<rect x="11.2" y="32.6" class="st1" width="5.6" height="1.9"/>
	<rect x="11.2" y="36.4" class="st1" width="7.5" height="1.9"/>
	<rect x="11.2" y="40.1" class="st1" width="11.2" height="1.9"/>
	<rect x="11.2" y="43.9" class="st1" width="11.2" height="1.9"/>
</g>
</svg>
