<?xml version="1.0" encoding="utf-8"?>
<!-- Generator: Adobe Illustrator 21.0.0, SVG Export Plug-In . SVG Version: 6.00 Build 0)  -->
<svg version="1.1" id="Layer_1" xmlns="http://www.w3.org/2000/svg" xmlns:xlink="http://www.w3.org/1999/xlink" x="0px" y="0px"
	 width="46.1px" height="46.1px" viewBox="0 0 46.1 46.1" style="enable-background:new 0 0 46.1 46.1;" xml:space="preserve">
<style type="text/css">
	.st0{fill:#FFD530;}
	.st1{fill:#232323;}
</style>
<polygon class="st0" points="28.4,4 39.4,4 42.4,4 44.4,5 45.4,9 45.4,17 42.4,19 37.4,19 31.4,23 31.4,19 27.4,19 26.4,17 28.4,16 
	28.4,13 28.4,12 28.4,5 "/>
<path class="st1" d="M33.4,10.6c0-0.3-0.3-0.6-0.6-0.6c-0.1,0-0.1,0-0.2,0l-2.1,1.4c-0.2,0.1-0.3,0.3-0.3,0.5c0,0.1,0.1,0.3,0.3,0.5
	l2.1,1.4c0,0,0.1,0,0.2,0c0.2,0,0.6-0.3,0.6-0.6c0-0.1-0.1-0.3-0.1-0.3L31.8,12l1.5-0.9C33.3,10.9,33.4,10.8,33.4,10.6"/>
<path class="st1" d="M32.8,13.9c-0.1,0-0.2,0-0.2-0.1l-2.1-1.4c-0.2-0.2-0.3-0.4-0.3-0.6s0.1-0.4,0.3-0.6l2.1-1.4
	c0,0,0.1-0.1,0.2-0.1c0.3,0,0.7,0.3,0.7,0.7c0,0.2-0.1,0.3-0.2,0.4L32,11.9l1.3,0.8c0.1,0.1,0.2,0.2,0.2,0.4
	C33.5,13.6,33.1,13.9,32.8,13.9 M32.8,10.1C32.7,10.1,32.7,10.1,32.8,10.1l-2.2,1.4c-0.1,0.1-0.2,0.2-0.2,0.4s0.1,0.3,0.2,0.4
	l2.1,1.4c0,0,0,0,0.1,0c0.2,0,0.4-0.2,0.4-0.5c0-0.1,0-0.2-0.1-0.2l-1.6-1.1l1.6-1.1c0.1,0,0.1-0.1,0.1-0.2
	C33.2,10.3,33,10.1,32.8,10.1"/>
<path class="st1" d="M37.5,7.8c-0.1,0-0.3,0.1-0.3,0.2l-2.9,6c0,0,0,0.1,0,0.2c0,0.2,0.2,0.4,0.5,0.4c0.2,0,0.3-0.1,0.4-0.2l2.9-6
	c0,0,0-0.1,0-0.2C38,8,37.8,7.8,37.5,7.8"/>
<path class="st1" d="M34.7,14.7c-0.4,0-0.6-0.3-0.6-0.6c0-0.1,0-0.1,0.1-0.2l2.9-6c0.1-0.2,0.3-0.3,0.5-0.3c0.3,0,0.6,0.2,0.6,0.6
	c0,0.1,0,0.1,0,0.2l-2.9,6C35.1,14.6,34.9,14.7,34.7,14.7 M37.5,7.9c-0.1,0-0.2,0-0.2,0.1l-2.9,6v0.1c0,0.1,0.1,0.3,0.3,0.3
	c0.1,0,0.2-0.1,0.3-0.1l2.9-6V8.2C37.9,8,37.7,7.9,37.5,7.9"/>
<path class="st1" d="M41.7,11.4L39.6,10c0,0-0.1,0-0.2,0c-0.2,0-0.6,0.3-0.6,0.6c0,0.1,0.1,0.3,0.1,0.3l1.5,0.9l-1.4,1
	c-0.1,0.1-0.1,0.2-0.1,0.3c0,0.3,0.3,0.6,0.6,0.6c0.1,0,0.1,0,0.2,0l2.1-1.4c0.2-0.1,0.3-0.3,0.3-0.5C42,11.7,41.9,11.5,41.7,11.4"
	/>
<path class="st1" d="M39.5,13.9c-0.3,0-0.7-0.3-0.7-0.7c0-0.2,0.1-0.3,0.2-0.4l1.3-0.8L39,11c-0.1-0.1-0.2-0.2-0.2-0.4
	c0-0.4,0.4-0.7,0.7-0.7c0.1,0,0.2,0,0.2,0.1l2.1,1.4c0.2,0.1,0.3,0.4,0.3,0.6s-0.1,0.4-0.3,0.6L39.7,14
	C39.6,13.9,39.6,13.9,39.5,13.9 M39.5,10.1c-0.2,0-0.4,0.2-0.4,0.5c0,0.1,0,0.2,0.1,0.2l1.6,1.1L39.2,13c-0.1,0-0.1,0.1-0.1,0.2
	c0,0.3,0.3,0.5,0.4,0.5c0.1,0,0.1,0,0.1,0l2.1-1.4c0.1-0.1,0.2-0.2,0.2-0.4s-0.1-0.3-0.2-0.4L39.5,10.1L39.5,10.1"/>
<path class="st1" d="M42.8,3.5H28.3c-0.7-2-2.6-3.3-4.9-3.3h-9.7c-2.9,0-5.2,2.3-5.2,5.2v5.9c-0.6,0.5-0.8,1.3-0.7,2.1l0.4,2.1
	c0.1,0.7,0.5,1.1,0.8,1.3c0.3,0.2,0.7,0.3,1,0.3v0.4c0,1.9,1.1,4,3,5.7c0.4,0.3,0.7,0.6,1.1,0.9v1.1c0,0.3-0.2,0.6-0.6,0.7l0,0
	c0,0-1.2,0.3-2.7,0.7H6c-0.6,0-1.1,0.2-1.5,0.6s-0.6,1-0.5,1.5v0.2C1.8,30,0.4,32,0.3,34.2l0,0l-0.2,9.3c0,0.7,0.3,1.3,0.7,1.8
	C1.3,45.7,2,46,2.6,46h31.9c0.7,0,1.3-0.3,1.8-0.7c0.5-0.5,0.7-1.1,0.7-1.8l-0.2-9.3l0,0c-0.1-2.3-1.6-4.4-3.9-5.4
	c0,0-0.1,0-0.1-0.1l0,0c0-0.6-0.2-1.1-0.5-1.5c-0.4-0.4-0.9-0.6-1.5-0.6h-4.6c-1.5-0.4-2.7-0.7-2.7-0.7l0,0
	c-0.3-0.1-0.6-0.4-0.6-0.7v-1.1c0.4-0.3,0.8-0.6,1.1-0.9c1.2-1.1,2.1-2.4,2.6-3.6H31l-0.8,3.1c-0.1,0.5,0.1,1,0.5,1.3
	c0.3,0,0.5,0,0.8,0s0.5-0.1,0.7-0.3l5.7-4.3h4.9c1.8,0,3.2-1.4,3.2-3.2V6.7C46,4.9,44.5,3.5,42.8,3.5 M27.1,12.4
	c0.3-0.1,0.5-0.1,0.7-0.1c0.2,0.2,0.3,0.5,0.3,0.8l-0.4,2.1c-0.1,0.3-0.2,0.4-0.2,0.4c-0.1,0-0.2,0.1-0.3,0.1L27.1,12.4z M9.9,5.3
	c0-2.1,1.7-3.9,3.9-3.9h9.7c2.1,0,3.8,1.7,3.8,3.9V11c-0.3,0.1-0.7,0.2-1.2,0.4V7.2c0-1.5-1.2-2.7-2.7-2.7h-1.8
	c-0.6,0-1.2,0.2-1.7,0.6l-0.2,0.1c-0.3,0.3-0.7,0.4-1.2,0.4c-0.4,0-0.8-0.1-1.2-0.4l-0.2-0.1c-0.5-0.4-1.1-0.6-1.7-0.6h-1.8
	c-1.5,0-2.7,1.2-2.7,2.7v4.1c-0.4-0.2-0.8-0.3-1.2-0.4V5.3H9.9z M9.7,15.5c0,0-0.1-0.1-0.2-0.4L9.2,13c-0.1-0.3,0-0.6,0.3-0.8
	c0.2,0,0.4,0,0.7,0.1v3.2C9.9,15.6,9.8,15.6,9.7,15.5 M3.8,44.2c0,0.2,0,0.3,0.1,0.5H2.6c-0.3,0-0.6-0.1-0.8-0.3s-0.3-0.5-0.3-0.8
	l0.2-9.2c0.1-1.6,1-3,2.5-3.9L5,42c0,0.2,0.1,0.4,0.1,0.6C4.3,42.7,3.8,43.4,3.8,44.2 M31.9,41.8l0.8-11.7c1.7,0.9,2.7,2.4,2.8,4.1
	l0.2,9.2c0,0.3-0.1,0.6-0.3,0.8s-0.5,0.3-0.8,0.3h-1.2c0-0.2,0.1-0.3,0.1-0.5c0-0.9-0.7-1.7-1.6-1.8C31.8,42.2,31.9,42,31.9,41.8
	 M32,44.2c0,0.3-0.2,0.5-0.5,0.5H5.6c-0.3,0-0.5-0.2-0.5-0.5s0.2-0.5,0.5-0.5h25.9C31.8,43.7,32,43.9,32,44.2 M31.3,28.1
	c0.1,0.1,0.2,0.3,0.2,0.5l-0.9,13.2c0,0.3-0.3,0.6-0.7,0.6h-23c-0.3,0-0.6-0.3-0.7-0.6L5.3,28.6c0-0.2,0-0.4,0.2-0.5
	C5.6,28,5.8,27.9,6,27.9h24.9C31,27.9,31.2,27.9,31.3,28.1 M22.2,26.5H15c0.4-0.4,0.6-0.9,0.6-1.4v-0.3c1.1,0.5,2.1,0.9,3,0.9
	s2-0.3,3-0.9v0.3C21.6,25.6,21.8,26.1,22.2,26.5 M23.2,22c-1.5,1.4-3.3,2.2-4.6,2.2c-1.3,0-3.1-0.9-4.6-2.2
	c-1.6-1.5-2.6-3.2-2.6-4.7v-4.2l0,0c0.1,0,0.2,0,0.4-0.1c0.4-0.1,0.6-0.5,0.6-0.9V7.2c0-0.7,0.6-1.3,1.3-1.3h1.8
	c0.3,0,0.6,0.1,0.9,0.3l0.2,0.1c0.6,0.5,1.3,0.7,2,0.7s1.4-0.3,2-0.7l0.2-0.1C21,6,21.3,5.9,21.6,5.9h1.8c0.7,0,1.3,0.6,1.3,1.3v4.9
	c0,0.4,0.2,0.7,0.6,0.9c0.1,0.1,0.3,0.1,0.4,0.1v4.2C25.8,18.8,24.8,20.5,23.2,22 M44.6,16.2c0,1-0.8,1.9-1.9,1.9h-5.1
	c-0.1,0-0.3,0-0.4,0.1l-5.6,4.3l0.9-3.6c0-0.2,0-0.4-0.1-0.6S32.1,18,31.9,18H27c0-0.3,0.1-0.5,0.1-0.8v-0.4c0.3,0,0.7-0.1,1-0.3
	c0.3-0.2,0.7-0.6,0.8-1.3l0.4-2.1c0.1-0.8-0.1-1.6-0.7-2.1V5.3c0-0.2,0-0.3,0-0.5h14.2c1,0,1.9,0.8,1.9,1.9v9.5H44.6z"/>
<path class="st1" d="M34.5,46.1H2.6c-0.7,0-1.4-0.3-1.9-0.8S0,44.2,0,43.5l0.2-9.3c0.1-2.3,1.5-4.3,3.7-5.4v-0.1
	c0-0.6,0.2-1.2,0.6-1.6s1-0.7,1.6-0.7H11c1.2-0.3,2.2-0.6,2.6-0.7l0,0c0,0,0,0,0.1,0c0.3,0,0.5-0.3,0.5-0.6V24
	c-0.4-0.3-0.7-0.6-1.1-0.9c-2-1.8-3.1-3.9-3.1-5.8V17c-0.4,0-0.7-0.1-1-0.3c-0.3-0.2-0.7-0.6-0.9-1.4l-0.4-2.1
	c-0.1-0.8,0.1-1.6,0.7-2.1V5.3c0-2.9,2.4-5.3,5.3-5.3h9.7c2.2,0,4.1,1.3,4.9,3.3h14.4c1.8,0,3.3,1.5,3.3,3.3v9.5
	c0,1.8-1.5,3.3-3.3,3.3h-4.8l-5.6,4.3c-0.5,0.3-1.1,0.4-1.6,0.1s-0.7-0.9-0.6-1.5l0.7-2.9h-4.1c-0.5,1.3-1.4,2.5-2.6,3.6
	c-0.3,0.3-0.7,0.6-1.1,0.9V25c0,0.3,0.2,0.5,0.5,0.6c0,0,0,0,0.1,0l0,0c0.5,0.1,1.4,0.4,2.6,0.7h4.6c0.6,0,1.2,0.2,1.6,0.7
	c0.4,0.4,0.6,1,0.6,1.5h0.1c2.4,1.1,3.9,3.2,4,5.5l0,0l0.2,9.2c0,0.7-0.3,1.4-0.8,1.9C35.9,45.9,35.2,46.1,34.5,46.1 M6,26.6
	c-0.5,0-1,0.2-1.4,0.6s-0.5,0.9-0.5,1.4v0.3H4c-2.2,1.1-3.5,3-3.7,5.2l-0.2,9.3c0,0.6,0.2,1.3,0.7,1.7c0.5,0.5,1.1,0.7,1.7,0.7h31.9
	c0.6,0,1.2-0.3,1.7-0.7c0.5-0.5,0.7-1.1,0.7-1.7l-0.2-9.3c-0.1-2.3-1.6-4.3-3.8-5.4l-0.2-0.1v-0.1c0-0.5-0.1-1-0.5-1.4
	c-0.4-0.4-0.9-0.6-1.4-0.6h-4.6C25,26.3,24,26,23.6,25.9h-0.1c-0.4-0.1-0.7-0.4-0.7-0.8v-1.2h0.1c0.4-0.3,0.8-0.6,1.1-0.9
	c1.2-1.1,2.1-2.3,2.6-3.6v-0.1h4.6l-0.8,3.2c-0.1,0.5,0.1,0.9,0.5,1.2c0.4,0.3,0.9,0.2,1.3,0l5.7-4.4h4.9c1.7,0,3.1-1.4,3.1-3.1V6.7
	c0-1.7-1.4-3.1-3.1-3.1H28.2V3.5c-0.7-2-2.6-3.3-4.7-3.3h-9.7c-2.8,0-5.1,2.3-5.1,5.1v6l0,0c-0.6,0.5-0.8,1.2-0.7,1.9l0.4,2.1
	c0.1,0.7,0.5,1,0.8,1.2s0.6,0.3,1,0.3h0.1v0.5c0,1.9,1.1,3.9,3,5.6c0.4,0.3,0.7,0.6,1.1,0.9h0.1V25c0,0.4-0.3,0.8-0.7,0.8h-0.1
	c-0.5,0.1-1.5,0.4-2.6,0.7l0,0H6V26.6z M34.5,44.8h-1.4v-0.2c0-0.1,0.1-0.3,0.1-0.5c0-0.9-0.6-1.6-1.5-1.7h-0.2l0.1-0.1
	c0.1-0.2,0.1-0.3,0.1-0.5l0,0l0.8-11.9l0.2,0.1c1.7,0.9,2.8,2.5,2.9,4.2l0.2,9.2c0,0.4-0.1,0.7-0.4,0.9
	C35.2,44.7,34.9,44.8,34.5,44.8 M33.5,44.5h1.1c0.3,0,0.5-0.1,0.7-0.3s0.3-0.5,0.3-0.8l-0.2-9.2c-0.1-1.6-1-3-2.6-3.9L32,41.8
	c0,0.1,0,0.3-0.1,0.4c0.9,0.2,1.6,1,1.6,1.9C33.5,44.3,33.5,44.4,33.5,44.5 M31.5,44.8H5.6c-0.3,0-0.6-0.3-0.6-0.6s0.3-0.6,0.6-0.6
	h25.9c0.3,0,0.6,0.3,0.6,0.6S31.9,44.8,31.5,44.8 M5.6,43.8c-0.2,0-0.4,0.2-0.4,0.4s0.2,0.4,0.4,0.4h25.9c0.2,0,0.4-0.2,0.4-0.4
	s-0.2-0.4-0.4-0.4H5.6z M4,44.8H2.6c-0.3,0-0.7-0.1-0.9-0.4c-0.2-0.2-0.4-0.6-0.4-0.9l0.2-9.2c0.1-1.7,1-3.1,2.5-4l0.2-0.1L5,41.9
	c0,0.2,0.1,0.4,0.1,0.6l0.1,0.1H5.1c-0.7,0.2-1.2,0.9-1.2,1.6c0,0.2,0,0.3,0.1,0.5L4,44.8z M4,30.5c-1.4,0.9-2.2,2.2-2.3,3.7
	l-0.2,9.2c0,0.3,0.1,0.5,0.3,0.7s0.5,0.3,0.7,0.3h1.1c0-0.1,0-0.2,0-0.4c0-0.8,0.5-1.5,1.2-1.8c-0.1-0.2-0.1-0.3-0.1-0.5L4,30.5z
	 M29.9,42.5h-23c-0.4,0-0.8-0.3-0.8-0.7L5.2,28.6c0-0.2,0.1-0.4,0.2-0.6s0.4-0.3,0.6-0.3h24.9c0.2,0,0.4,0.1,0.6,0.3
	c0.1,0.2,0.2,0.4,0.2,0.6l-0.9,13.2C30.7,42.2,30.3,42.5,29.9,42.5 M6,28c-0.2,0-0.3,0.1-0.4,0.2s-0.2,0.3-0.1,0.4l0.9,13.2
	c0,0.3,0.3,0.5,0.5,0.5h23c0.3,0,0.5-0.2,0.5-0.5l0.9-13.2c0-0.2,0-0.3-0.1-0.4C31.1,28,31,28,30.8,28H6z M22.5,26.6h-7.8l0.2-0.2
	c0.4-0.4,0.6-0.8,0.6-1.4v-0.5l0.2,0.1c1.1,0.6,2.1,0.8,3,0.8c0.9,0,1.9-0.3,3-0.8l0.2-0.1V25c0,0.5,0.2,1,0.6,1.4L22.5,26.6z
	 M15.2,26.4h6.7c-0.3-0.4-0.4-0.8-0.4-1.3V25c-1,0.5-2,0.8-2.9,0.8s-1.9-0.3-2.9-0.8v0.1C15.7,25.5,15.5,26,15.2,26.4 M18.6,24.4
	c-1.3,0-3.1-0.9-4.7-2.3c-1.7-1.5-2.6-3.3-2.6-4.8v-4.4h0.1l0,0c0.1,0,0.2,0,0.3-0.1c0.3-0.1,0.5-0.4,0.5-0.8V7.2
	c0-0.8,0.7-1.5,1.5-1.5h1.8c0.4,0,0.7,0.1,1,0.3l0.2,0.1C17.2,6.7,17.9,7,18.6,7s1.4-0.2,1.9-0.7l0.2-0.1c0.3-0.2,0.6-0.3,1-0.3h1.8
	c0.8,0,1.5,0.7,1.5,1.5v4.9c0,0.3,0.2,0.6,0.5,0.8c0.1,0,0.2,0.1,0.3,0.1h0.1v4.4c0,1.5-1,3.3-2.6,4.8
	C21.7,23.5,19.9,24.4,18.6,24.4 M11.5,13.2v4.1c0,1.5,0.9,3.2,2.5,4.6c1.5,1.3,3.2,2.2,4.5,2.2s3-0.9,4.5-2.2
	c1.6-1.5,2.5-3.2,2.5-4.6v-4.1c-0.1,0-0.2,0-0.3-0.1c-0.4-0.2-0.7-0.6-0.7-1V7.2C24.5,6.5,24,6,23.3,6h-1.8c-0.3,0-0.6,0.1-0.8,0.3
	l-0.2,0.1c-0.6,0.5-1.3,0.7-2.1,0.7c-0.8,0-1.5-0.3-2.1-0.7l-0.2-0.1c0-0.2-0.3-0.3-0.6-0.3h-1.8c-0.7,0-1.2,0.5-1.2,1.2v4.9
	c0,0.4-0.3,0.8-0.7,1C11.7,13.2,11.6,13.2,11.5,13.2 M31.5,22.8l1-3.9c0-0.2,0-0.3-0.1-0.5c-0.1-0.1-0.3-0.2-0.4-0.2h-5v-0.1
	c0-0.3,0.1-0.5,0.1-0.8v-0.5h0.1c0.4,0,0.7-0.1,1-0.3c0.3-0.2,0.6-0.5,0.8-1.2l0.4-2.1c0.1-0.7-0.1-1.5-0.7-1.9l0,0v-6
	c0-0.2,0-0.3,0-0.5V4.7H43c1.1,0,2,0.9,2,2v9.5c0,1.1-0.9,2-2,2h-5.1c-0.1,0-0.2,0-0.3,0.1L31.5,22.8z M27.2,18h4.7
	c0.2,0,0.5,0.1,0.6,0.3c0.2,0.2,0.2,0.4,0.1,0.7l-0.8,3.2l5.3-4.1c0.1-0.1,0.3-0.2,0.5-0.2h5.1c1,0,1.7-0.8,1.7-1.7V6.7
	c0-1-0.8-1.7-1.7-1.7h-14c0,0.1,0,0.3,0,0.4v5.8c0.6,0.5,0.8,1.3,0.7,2.1L29,15.4c-0.1,0.8-0.6,1.2-0.9,1.4c-0.3,0.2-0.6,0.3-1,0.3
	v0.3C27.2,17.5,27.2,17.7,27.2,18 M27,15.7v-3.4h0.1c0.3-0.1,0.5-0.1,0.7-0.1h0.1l0,0c0.2,0.2,0.4,0.6,0.3,0.9l-0.4,2.1
	c-0.1,0.4-0.2,0.4-0.3,0.5c-0.1,0.1-0.2,0.1-0.4,0.1L27,15.7z M27.2,12.5v3c0.1,0,0.1,0,0.1,0c0.1-0.1,0.1-0.2,0.1-0.3l0.4-2.1
	c0-0.2,0-0.5-0.2-0.6C27.6,12.4,27.4,12.4,27.2,12.5 M10.2,15.7h-0.1c-0.2,0-0.3,0-0.4-0.1c0,0-0.2-0.1-0.3-0.5l-0.4-2
	c-0.1-0.3,0.1-0.7,0.3-0.9l0,0h0.1c0.2,0,0.4,0.1,0.7,0.1h0.1L10.2,15.7z M9.5,12.4c-0.2,0.2-0.2,0.4-0.2,0.6l0.4,2.1
	c0,0.2,0.1,0.3,0.1,0.3l0,0h0.1v-3C9.8,12.4,9.6,12.4,9.5,12.4 M11.2,11.5L11,11.4c-0.3-0.2-0.7-0.3-1.1-0.4H9.8V5.3
	c0-2.2,1.8-4,4-4h9.7c2.2,0,4,1.8,4,4V11h-0.1c-0.4,0.1-0.8,0.2-1.1,0.4L26,11.5V7.2c0-1.4-1.1-2.5-2.5-2.5h-1.8
	c-0.6,0-1.2,0.2-1.7,0.6l-0.2,0.1C19.1,6,18,6,17.3,5.4l-0.2-0.1c-0.5-0.4-1.1-0.6-1.7-0.6h-1.8c-1.4,0-2.5,1.1-2.5,2.5v4.3H11.2z
	 M21.6,4.4h1.8c1.5,0,2.8,1.3,2.8,2.8v3.9c0.3-0.1,0.6-0.2,0.9-0.3V5.3c0-2.1-1.7-3.7-3.7-3.7h-9.7c-2.1,0-3.7,1.7-3.7,3.7v5.5
	c0.3,0.1,0.6,0.2,0.9,0.3V7.2c0-1.5,1.3-2.8,2.8-2.8h1.8c0.7,0,1.3,0.2,1.8,0.6l0.2,0.1c0.6,0.5,1.5,0.5,2.2,0L19.9,5
	C20.3,4.7,21,4.4,21.6,4.4"/>
<path class="st1" d="M18.6,38.2c1.4,0,2.5-1.1,2.5-2.5s-1.1-2.5-2.5-2.5s-2.5,1.1-2.5,2.5C16.1,37,17.2,38.2,18.6,38.2 M18.6,34.4
	c0.7,0,1.2,0.5,1.2,1.2s-0.5,1.2-1.2,1.2s-1.2-0.5-1.2-1.2C17.4,35,17.9,34.4,18.6,34.4"/>
<path class="st1" d="M18.6,38.3c-1.5,0-2.7-1.2-2.7-2.7s1.2-2.7,2.7-2.7s2.7,1.2,2.7,2.7C21.2,37.1,20,38.3,18.6,38.3 M18.6,33.2
	c-1.3,0-2.4,1.1-2.4,2.4c0,1.3,1.1,2.4,2.4,2.4s2.4-1.1,2.4-2.4S19.9,33.2,18.6,33.2 M18.6,36.9c-0.7,0-1.3-0.6-1.3-1.3
	s0.6-1.3,1.3-1.3c0.7,0,1.3,0.6,1.3,1.3C19.9,36.4,19.3,36.9,18.6,36.9 M18.6,34.6c-0.6,0-1.1,0.5-1.1,1.1s0.5,1.1,1.1,1.1
	s1.1-0.5,1.1-1.1S19.2,34.6,18.6,34.6"/>
</svg>
