<svg xmlns="http://www.w3.org/2000/svg" viewBox="0 0 61.56 61.5"><defs><style>.cls-1{fill:none;stroke:#000;stroke-linecap:round;stroke-linejoin:round;stroke-width:1.5px;}</style></defs><g id="Layer_2" data-name="Layer 2"><g id="_1170px_grid" data-name="1170px grid"><path class="cls-1" d="M18.63,36.51A17.88,17.88,0,1,1,36.51,18.63q0,.93-.09,1.83"/><path class="cls-1" d="M60.81,42.8A17.94,17.94,0,1,1,59.05,35,18,18,0,0,1,60.81,42.8Z"/><polyline class="cls-1" points="42.86 29.95 42.86 42.59 48.99 48.73"/><line class="cls-1" x1="18.92" y1="7.17" x2="18.92" y2="10.56"/><path class="cls-1" d="M24.91,15.11s-.58-4.46-6-4.46-5.83,3.68-5.75,4.17.31,3.64,6.15,3.64,5.7,4.33,5.59,4.44.11,3.44-6,3.44-5.76-4-5.76-4"/><line class="cls-1" x1="18.96" y1="29.72" x2="18.96" y2="26.34"/><path class="cls-1" d="M56.14,21.77A13.7,13.7,0,0,0,42.86,4.82a14,14,0,0,0-2.52.23l5.3-4.3"/><path class="cls-1" d="M5.46,39.42A13.67,13.67,0,0,0,18.74,56.37a13.78,13.78,0,0,0,2.51-.23L16,60.44"/></g></g></svg>