<svg xmlns="http://www.w3.org/2000/svg" viewBox="0 0 91.6 61.07"><defs><style>.cls-1{stroke:#f2f2f2;stroke-miterlimit:10;stroke-width:0.3px;}.cls-2{fill:none;stroke:#000;stroke-linecap:round;stroke-linejoin:round;}</style></defs><g id="Layer_2" data-name="Layer 2"><g id="_1170px_grid" data-name="1170px grid"><path class="cls-1" d="M54.55,45.72a11.15,11.15,0,0,0,1.8-6,10.7,10.7,0,1,0-21.4,0,11.15,11.15,0,0,0,1.8,6A19.6,19.6,0,0,0,26.45,60a.73.73,0,0,0,.2.6.6.6,0,0,0,.6.3h36.9a.86.86,0,0,0,.6-.3A1.42,1.42,0,0,0,65,60a20.18,20.18,0,0,0-10.4-14.3m-8.9-15.3a9.26,9.26,0,0,1,9.2,9.3,9.42,9.42,0,0,1-4,7.7.1.1,0,0,0-.1.1,6.38,6.38,0,0,1-1.4.8c-.1,0-.1.1-.2.1a8.8,8.8,0,0,1-1.5.5h-.2a8.75,8.75,0,0,1-1.6.2h0a11,11,0,0,1-1.8-.2H44a10.93,10.93,0,0,1-1.7-.5h0a9.27,9.27,0,0,1-5.6-8.6,9,9,0,0,1,9-9.4m-17.5,29a18,18,0,0,1,9.6-12.5,10.86,10.86,0,0,0,6.9,3.6h1a15,15,0,0,0,2.2-.2c.1,0,.2-.1.3-.1s.5-.1.7-.2.4-.1.5-.2.3-.1.4-.2a4.88,4.88,0,0,1,.7-.3c.1,0,.2-.1.3-.1s.5-.3.7-.4.1-.1.2-.1c.2-.2.5-.3.7-.5.1,0,.1-.1.2-.1l.6-.6.2-.2a1.38,1.38,0,0,0,.3-.4,18.5,18.5,0,0,1,9.6,12.5Z"/><path class="cls-1" d="M23.35,39a1.42,1.42,0,0,0,.2-.6,12,12,0,0,0-6-8.6,6.82,6.82,0,0,0,1-3.5,6.7,6.7,0,0,0-13.4,0,7.11,7.11,0,0,0,1,3.5,11.72,11.72,0,0,0-6,8.6.73.73,0,0,0,.2.6.6.6,0,0,0,.6.3H23c.1-.1.3-.1.4-.3m-11.5-17.9a5.32,5.32,0,0,1,5.2,5.3,5.84,5.84,0,0,1-1.2,3.4l-.6.6-.2.2c-.2.2-.5.3-.7.5-.1,0-.1.1-.2.1l-.9.3c-.1,0-.1,0-.2.1a4.1,4.1,0,0,1-1.1.1,4.1,4.1,0,0,1-1.1-.1c-.1,0-.3-.1-.4-.1s-.4-.1-.6-.2c-.3-.3-.5-.4-.6-.4s-.3-.2-.5-.3a1.38,1.38,0,0,0-.4-.3,2.65,2.65,0,0,0-.5-.6,5.13,5.13,0,0,1-1.3-3.4,5.31,5.31,0,0,1,5.3-5.2M1.75,37.82A10.38,10.38,0,0,1,7.05,31h0l.5.5c.2.1.3.3.5.4s.1.1.2.1a6.2,6.2,0,0,0,3.5,1,6.49,6.49,0,0,0,4.8-2.1h0a10.38,10.38,0,0,1,5.3,6.8H1.75Z"/><path class="cls-1" d="M85.25,29.82a6.82,6.82,0,0,0,1-3.5,6.7,6.7,0,0,0-13.4,0,7.11,7.11,0,0,0,1,3.5,11.72,11.72,0,0,0-6,8.6.73.73,0,0,0,.2.6.6.6,0,0,0,.6.3h22a.86.86,0,0,0,.6-.3,1.42,1.42,0,0,0,.2-.6,12.82,12.82,0,0,0-6.2-8.6m-5.7-8.7a5.25,5.25,0,0,1,5.2,5.3,5.13,5.13,0,0,1-1.3,3.4c-.2.2-.3.4-.5.5a1.38,1.38,0,0,1-.4.3c-.2.1-.3.2-.5.3a.76.76,0,0,1-.4.2c-.2.1-.4.1-.6.2s-.3.1-.4.1a4.1,4.1,0,0,1-1.1.1,3.75,3.75,0,0,1-1.1-.1c-.1,0-.1,0-.2-.1l-.9-.3c-.1,0-.1-.1-.2-.1a1.79,1.79,0,0,1-.7-.5l-.2-.2-.6-.6a5.18,5.18,0,0,1,3.9-8.5m-10.1,16.7a10.38,10.38,0,0,1,5.3-6.8h0a6.49,6.49,0,0,0,4.8,2.1,6.82,6.82,0,0,0,3.5-1c.1,0,.1-.1.2-.1s.3-.3.5-.4a1.21,1.21,0,0,0,.5-.5h.1a10.38,10.38,0,0,1,5.3,6.8H69.45Z"/><path class="cls-1" d="M79.55,40.92a.68.68,0,0,0-.7.7v8.9a3.31,3.31,0,0,1-3.2,3.3h-11a.7.7,0,1,0,0,1.4h10.9a4.69,4.69,0,0,0,4.7-4.7v-8.9a.75.75,0,0,0-.7-.7"/><path class="cls-1" d="M27.35,54.62a.68.68,0,0,0-.7-.7H15.75a3.31,3.31,0,0,1-3.2-3.3v-8.9a.68.68,0,0,0-.7-.7.77.77,0,0,0-.8.7v8.9a4.69,4.69,0,0,0,4.7,4.7h10.9a.68.68,0,0,0,.7-.7"/><path class="cls-2" d="M41.26,8.54a.71.71,0,0,0,.53-.43L45.65.5l3.86,7.61a.72.72,0,0,0,.54.43l8.36,1.39-6,6a.76.76,0,0,0-.22.64l1.29,8.36L46,21.08a.92.92,0,0,0-.76,0l-7.5,3.86L39,16.58c0-.22,0-.54-.22-.64l-6-6Z"/></g></g></svg>