<svg xmlns="http://www.w3.org/2000/svg" viewBox="0 0 65.91 56.03"><defs><style>.cls-1{fill:none;stroke:#000;stroke-linecap:round;stroke-linejoin:round;stroke-width:1.5px;}</style></defs><g id="Layer_2" data-name="Layer 2"><g id="_1170px_grid" data-name="1170px grid"><polyline class="cls-1" points="58.16 17.51 58.16 0.75 0.75 0.75 0.75 48.28 27.27 48.28"/><line class="cls-1" x1="58.16" y1="11.88" x2="0.75" y2="11.88"/><line class="cls-1" x1="46.9" y1="6.25" x2="42.65" y2="6.25"/><line class="cls-1" x1="53.9" y1="6.25" x2="49.65" y2="6.25"/><line class="cls-1" x1="39.9" y1="6.25" x2="35.64" y2="6.25"/><line class="cls-1" x1="30.14" y1="6.25" x2="4.88" y2="6.25"/><path class="cls-1" d="M64.91,39.9a19.79,19.79,0,0,0,.25-2.75,18.14,18.14,0,0,0-.25-2.76H60.66a15.56,15.56,0,0,0-2-4.87l3-3a20.48,20.48,0,0,0-4-4l-3,3a14.07,14.07,0,0,0-4.88-2V19.26A21.45,21.45,0,0,0,47,19a19.65,19.65,0,0,0-2.76.25v4.25a15.56,15.56,0,0,0-4.87,2l-3-3a20.26,20.26,0,0,0-4,4l3,3a14,14,0,0,0-2,4.87H29.14a21.44,21.44,0,0,0-.25,2.76,19.5,19.5,0,0,0,.25,2.75h4.25a15.56,15.56,0,0,0,2,4.87l-3,3a17.5,17.5,0,0,0,4,4l3-3a11.86,11.86,0,0,0,4.87,2V55a19.8,19.8,0,0,0,2.76.25A18.12,18.12,0,0,0,49.78,55V50.78a15.72,15.72,0,0,0,4.88-2l3,3a20.48,20.48,0,0,0,4-4l-3.13-3a13.76,13.76,0,0,0,2-4.87Zm-18,5.63a8.38,8.38,0,1,1,8.38-8.38,8.38,8.38,0,0,1-8.38,8.38"/><path class="cls-1" d="M64.91,39.9a19.79,19.79,0,0,0,.25-2.75,18.14,18.14,0,0,0-.25-2.76H60.66a15.56,15.56,0,0,0-2-4.87l3-3a20.48,20.48,0,0,0-4-4l-3,3a14.07,14.07,0,0,0-4.88-2V19.26A21.45,21.45,0,0,0,47,19a19.65,19.65,0,0,0-2.76.25v4.25a15.56,15.56,0,0,0-4.87,2l-3-3a20.26,20.26,0,0,0-4,4l3,3a14,14,0,0,0-2,4.87H29.14a21.44,21.44,0,0,0-.25,2.76,19.5,19.5,0,0,0,.25,2.75h4.25a15.56,15.56,0,0,0,2,4.87l-3,3a17.5,17.5,0,0,0,4,4l3-3a11.86,11.86,0,0,0,4.87,2V55a19.8,19.8,0,0,0,2.76.25A18.12,18.12,0,0,0,49.78,55V50.78a15.72,15.72,0,0,0,4.88-2l3,3a20.48,20.48,0,0,0,4-4l-3.13-3a13.76,13.76,0,0,0,2-4.87Zm-18,5.63a8.38,8.38,0,1,1,8.38-8.38A8.38,8.38,0,0,1,46.9,45.53Z"/><rect class="cls-1" x="6.25" y="17.51" width="14.01" height="14.01"/><line class="cls-1" x1="4.88" y1="37.15" x2="21.64" y2="37.15"/><line class="cls-1" x1="9.13" y1="42.65" x2="17.51" y2="42.65"/></g></g></svg>