<svg xmlns="http://www.w3.org/2000/svg" viewBox="0 0 39.99 39.99"><defs><style>.cls-1{fill:white;stroke:#000;stroke-miterlimit:10;stroke-width:1.5px;}</style></defs><g id="Layer_2" data-name="Layer 2"><g id="_1170px_grid" data-name="1170px grid"><circle class="cls-1" cx="20" cy="20" r="19.25"/><path d="M27.15,25v3.3H13.92V25.67l6.75-6.37a7.07,7.07,0,0,0,1.45-1.77,3.18,3.18,0,0,0,.38-1.46,1.93,1.93,0,0,0-.71-1.61,3.31,3.31,0,0,0-2.09-.56,4.84,4.84,0,0,0-2.08.43,4.08,4.08,0,0,0-1.55,1.32l-3-1.9A7,7,0,0,1,16,11.36a9.34,9.34,0,0,1,4.12-.86,8.62,8.62,0,0,1,3.42.63,5.28,5.28,0,0,1,2.27,1.81,4.63,4.63,0,0,1,.81,2.73,6.14,6.14,0,0,1-.6,2.68,10.36,10.36,0,0,1-2.32,2.85l-4,3.8Z"/></g></g></svg>