<svg xmlns="http://www.w3.org/2000/svg" viewBox="0 0 39.99 39.99"><defs><style>.cls-1{fill:none;stroke:#000;stroke-miterlimit:10;stroke-width:1.5px;}</style></defs><g id="Layer_2" data-name="Layer 2"><g id="_1170px_grid" data-name="1170px grid"><circle class="cls-1" cx="20" cy="20" r="19.25"/><path d="M25.77,20.63A4.74,4.74,0,0,1,27,24a5.27,5.27,0,0,1-.8,2.81,5.57,5.57,0,0,1-2.44,2.06,9.28,9.28,0,0,1-4,.78,13.54,13.54,0,0,1-3.64-.49,9.58,9.58,0,0,1-3-1.39l1.58-3.1A7.37,7.37,0,0,0,17,25.78a8.74,8.74,0,0,0,2.69.42,4.3,4.3,0,0,0,2.4-.59A1.89,1.89,0,0,0,22.92,24c0-1.44-1.09-2.15-3.27-2.15H17.8V19.12l3.6-4.07H14V11.8H26.2v2.62l-3.95,4.5A5.87,5.87,0,0,1,25.77,20.63Z"/></g></g></svg>