<svg xmlns="http://www.w3.org/2000/svg" viewBox="0 0 39.99 39.99"><defs><style>.cls-1{fill:none;stroke:#000;stroke-miterlimit:10;stroke-width:1.5px;}</style></defs><g id="Layer_2" data-name="Layer 2"><g id="_1170px_grid" data-name="1170px grid"><circle class="cls-1" cx="20" cy="20" r="19.25"/><path d="M24.54,19.85A4.9,4.9,0,0,1,26.3,23.8a5.54,5.54,0,0,1-.8,2.91,5.64,5.64,0,0,1-2.44,2.1,9.35,9.35,0,0,1-4,.79,13.64,13.64,0,0,1-3.64-.49,9.21,9.21,0,0,1-3-1.39l1.6-3.1a7.67,7.67,0,0,0,2.3,1.17,8.91,8.91,0,0,0,2.67.41,4.18,4.18,0,0,0,2.4-.6,2,2,0,0,0,0-3.38,6.38,6.38,0,0,0-3.17-.57H13.65l.9-9.85H25.22v3.25h-7.3l-.27,3.32h1.42Q22.78,18.37,24.54,19.85Z"/></g></g></svg>