<svg xmlns="http://www.w3.org/2000/svg" viewBox="0 0 39.99 39.99"><defs><style>.cls-1{fill:none;stroke:#000;stroke-miterlimit:10;stroke-width:1.5px;}</style></defs><g id="Layer_2" data-name="Layer 2"><g id="_1170px_grid" data-name="1170px grid"><circle class="cls-1" cx="20" cy="20" r="19.25"/><path d="M24.07,19a5.32,5.32,0,0,1,2.18,1.91,5.17,5.17,0,0,1,.8,2.86,5.51,5.51,0,0,1-.88,3.08,5.66,5.66,0,0,1-2.39,2,7.67,7.67,0,0,1-3.36.72,7.44,7.44,0,0,1-5.75-2.25,9.15,9.15,0,0,1-2.07-6.43,10.79,10.79,0,0,1,1.12-5.1,7.68,7.68,0,0,1,3.14-3.22,9.47,9.47,0,0,1,4.66-1.1,11.26,11.26,0,0,1,2.69.31,7.07,7.07,0,0,1,2.19.89l-1.5,3a5.78,5.78,0,0,0-3.28-.87,4.73,4.73,0,0,0-3.52,1.3,5.37,5.37,0,0,0-1.4,3.77A5.84,5.84,0,0,1,21,18.32,6.8,6.8,0,0,1,24.07,19Zm-1.76,6.87a2.37,2.37,0,0,0,.81-1.9,2.42,2.42,0,0,0-.81-1.91,3.13,3.13,0,0,0-2.16-.71,3.21,3.21,0,0,0-2.18.73A2.43,2.43,0,0,0,17.12,24,2.4,2.4,0,0,0,18,25.85a3.3,3.3,0,0,0,2.25.72A3.11,3.11,0,0,0,22.31,25.87Z"/></g></g></svg>