<svg xmlns="http://www.w3.org/2000/svg" viewBox="0 0 59.65 77.3"><defs><style>.cls-1{fill:none;stroke:#000;stroke-linecap:round;stroke-linejoin:round;}</style></defs><title>ad-management</title><g id="Layer_2" data-name="Layer 2"><g id="_1170px_grid" data-name="1170px grid"><path class="cls-1" d="M43.88,46.25a13.35,13.35,0,0,1,3,.34l.36,3.79a11.37,11.37,0,0,1,2.19.91l2.92-2.43a13,13,0,0,1,2.35,1.87,13.28,13.28,0,0,1,1.86,2.34L54.12,56A11.11,11.11,0,0,1,55,58.19l3.78.36a13.19,13.19,0,0,1,0,6L55,64.86a11.11,11.11,0,0,1-.91,2.19L56.54,70a13.28,13.28,0,0,1-1.86,2.34,12.62,12.62,0,0,1-2.35,1.87l-2.92-2.42a12,12,0,0,1-2.19.9l-.36,3.79a13.19,13.19,0,0,1-6,0l-.36-3.79a11.72,11.72,0,0,1-2.19-.9l-2.93,2.42a13,13,0,0,1-2.35-1.87A13.28,13.28,0,0,1,31.22,70l2.42-2.93a11.75,11.75,0,0,1-.91-2.19L29,64.5a13.19,13.19,0,0,1,0-6l3.78-.36A12,12,0,0,1,33.64,56l-2.42-2.93a13.22,13.22,0,0,1,4.21-4.21l2.93,2.43a11.11,11.11,0,0,1,2.19-.91l.36-3.79a13.26,13.26,0,0,1,3-.34Z"/><path class="cls-1" d="M43.88,46.25a13.35,13.35,0,0,1,3,.34l.36,3.79a11.37,11.37,0,0,1,2.19.91l2.92-2.43a13,13,0,0,1,2.35,1.87,13.28,13.28,0,0,1,1.86,2.34L54.12,56A11.11,11.11,0,0,1,55,58.19l3.78.36a13.19,13.19,0,0,1,0,6L55,64.86a11.11,11.11,0,0,1-.91,2.19L56.54,70a13.28,13.28,0,0,1-1.86,2.34,12.62,12.62,0,0,1-2.35,1.87l-2.92-2.42a12,12,0,0,1-2.19.9l-.36,3.79a13.19,13.19,0,0,1-6,0l-.36-3.79a11.72,11.72,0,0,1-2.19-.9l-2.93,2.42a13,13,0,0,1-2.35-1.87A13.28,13.28,0,0,1,31.22,70l2.42-2.93a11.75,11.75,0,0,1-.91-2.19L29,64.5a13.19,13.19,0,0,1,0-6l3.78-.36A12,12,0,0,1,33.64,56l-2.42-2.93a13.22,13.22,0,0,1,4.21-4.21l2.93,2.43a11.11,11.11,0,0,1,2.19-.91l.36-3.79a13.26,13.26,0,0,1,3-.34Z"/><path class="cls-1" d="M43.88,55.39a6.14,6.14,0,1,1-6.14,6.14,6.13,6.13,0,0,1,6.14-6.14Z"/><path class="cls-1" d="M24.4,65H2.92A2.44,2.44,0,0,1,.5,62.59V2.92A2.43,2.43,0,0,1,2.92.5H29.6"/><line class="cls-1" x1="45.39" y1="16.29" x2="45.39" y2="40.64"/><path class="cls-1" d="M45.39,16.29H32a2.43,2.43,0,0,1-2.43-2.43V.5L45.39,16.29Z"/><line class="cls-1" x1="10.18" y1="13.48" x2="22.95" y2="13.48"/><line class="cls-1" x1="10.18" y1="25.56" x2="35.71" y2="25.56"/><line class="cls-1" x1="10.18" y1="32.61" x2="35.71" y2="32.61"/><line class="cls-1" x1="10.18" y1="39.66" x2="35.71" y2="39.66"/><line class="cls-1" x1="10.18" y1="46.71" x2="22.95" y2="46.71"/><path class="cls-1" d="M43.88,55.39a6.14,6.14,0,1,1-6.14,6.14,6.13,6.13,0,0,1,6.14-6.14Z"/></g></g></svg>