<svg xmlns="http://www.w3.org/2000/svg" viewBox="0 0 82.7 69.96"><defs><style>.cls-1{fill:none;stroke:#000;stroke-linecap:round;stroke-linejoin:round;}</style></defs><title>ad-remarketing</title><g id="Layer_2" data-name="Layer 2"><g id="_1170px_grid" data-name="1170px grid"><polyline class="cls-1" points="64.05 24.99 67.06 9.52 82.2 12.42"/><polyline class="cls-1" points="22.31 27.76 9.45 36.87 0.5 24.31"/><path class="cls-1" d="M18.26,58.33a33.74,33.74,0,0,0,25,11.13A34.57,34.57,0,0,0,68.9,12.3l-1.41-1.92"/><path class="cls-1" d="M9.27,35A34.25,34.25,0,0,1,43.29.5"/><path class="cls-1" d="M29.34,53.91v-11c0-4.11,3.33-8.79,7.4-8.92,2,1.49,4.44,3,7,3s5-1.51,7-3c4.08.13,7.17,4.81,7.17,8.92v11"/><path class="cls-1" d="M53.86,25.05a12.78,12.78,0,0,1-4.5,10h0a9,9,0,0,1-11.46,0h0a12.74,12.74,0,0,1-4.5-10C33.39,18.39,38,13,43.62,13S53.86,18.39,53.86,25.05Z"/></g></g></svg>