<svg xmlns="http://www.w3.org/2000/svg" xmlns:xlink="http://www.w3.org/1999/xlink" viewBox="0 0 90.14 90.14"><defs><style>.cls-1{stroke:#fff;stroke-miterlimit:10;stroke-width:2.82px;fill:url(#linear-gradient);}.cls-2{fill:#fff;}</style><linearGradient id="linear-gradient" x1="14.67" y1="19.26" x2="81.24" y2="75.78" gradientUnits="userSpaceOnUse"><stop offset="0" stop-color="#f7921e"/><stop offset="0.27" stop-color="#f57920"/><stop offset="0.75" stop-color="#f15123"/><stop offset="1" stop-color="#ef4124"/></linearGradient></defs><g id="Layer_2" data-name="Layer 2"><g id="_1170px_grid" data-name="1170px grid"><circle class="cls-1" cx="45.07" cy="45.07" r="43.66"/><path class="cls-2" d="M64.9,50.67a8.11,8.11,0,0,1-1.7-.12.87.87,0,0,1-.56-.22C57.32,45.58,51.89,40.71,46.58,36c-.23-.22-.34-.22-.57-.11-1.92.45-3.84,1-5.76,1.47a7.42,7.42,0,0,1-5.77-.9,5.59,5.59,0,0,1-2.26-2.6,1.6,1.6,0,0,1,1-2.27c3.4-1,6.68-2.26,10.07-3.5a8.08,8.08,0,0,1,3.28-.57c.23,0,.45.12.68.12,3.5,1.24,6.9,2.6,10.4,3.84h.45c2.49-.68,4.87-1.36,7.36-2a.41.41,0,0,1,.56.22,35.91,35.91,0,0,1,2.71,4.53c2,4.07,3.85,8.25,5.55,12.43.11.23,0,.34-.12.46a10.86,10.86,0,0,1-6.1,3.28,15.53,15.53,0,0,1-3.17.34Z"/><path class="cls-2" d="M26.11,46c1.81-.68,3.05-.45,4,.68a3.07,3.07,0,0,1,.22,4,3.27,3.27,0,0,1,3.51,1.47A2.81,2.81,0,0,1,33.35,56a4.34,4.34,0,0,1,1.24.11,3.06,3.06,0,0,1,2.26,4.3c-.11.23-.34.45-.45.68-.9,1-1.81,1.92-2.6,2.94a3,3,0,0,1-4.18.11,71.23,71.23,0,0,1-6.56-7.8c-1.36-1.7-2.6-3.39-4-5.2A4.48,4.48,0,0,1,18,48.52a2.27,2.27,0,0,1,.68-1.81c.67-.79,1.47-1.47,2.15-2.26a3.18,3.18,0,0,1,5,.79A5.63,5.63,0,0,0,26.11,46Z"/><path class="cls-2" d="M44.88,64.35a.38.38,0,0,1-.22-.11L39.12,58.7a1,1,0,0,1,.45-1.81.86.86,0,0,1,1,.34l3.5,3.5c1.25,1.25,2.49,2.38,3.62,3.62a2.37,2.37,0,0,0,2.38.68,3.19,3.19,0,0,0,2.37-1.92c.11-.23.11-.46-.11-.57-3.4-3.39-6.79-6.78-10.18-10.06a1.46,1.46,0,0,1-.45-1.14,1.06,1.06,0,0,1,1.69-.67c.12.11.23.22.34.22L54.16,61.3a.83.83,0,0,0,.67.22,3.15,3.15,0,0,0,3-2.6c0-.22,0-.34-.23-.45-4-3.85-7.8-7.8-11.76-11.65a1.09,1.09,0,0,1-.34-1.13,1.18,1.18,0,0,1,.68-.79,1.09,1.09,0,0,1,1,.22l2.15,2.15,6.9,6.9,2.6,2.6c.23.23.34.23.57.12a3.13,3.13,0,0,0,2.26-4.3.11.11,0,0,0-.11-.11c.9.11,1.92.11,2.82.22a6.59,6.59,0,0,1,.12,1.59,6,6,0,0,1-4.19,5.2.24.24,0,0,0-.22.22A5.67,5.67,0,0,1,55.4,64a1.67,1.67,0,0,0-1.36.91,5.57,5.57,0,0,1-7.8,1.8l-.11-.11c-.23.23-.57.45-.79.68A5.55,5.55,0,0,1,38,66.72l-2.37-2.37c.57-.68,1.13-1.24,1.81-1.92l.23.22,2.26,2.27A3.14,3.14,0,0,0,44.88,64.35Z"/><path class="cls-2" d="M19.89,42.3c-.57.68-1.13,1.24-1.7,1.92a15.66,15.66,0,0,0-1.13-1.47,6.16,6.16,0,0,1-1.24-4,18.13,18.13,0,0,1,2-9.38,20.3,20.3,0,0,1,6.56-7.58,1.06,1.06,0,0,1,.57-.11c4.41,1.47,8.71,2.82,13.12,4.18.68.23,1.47.45,2.15.68a.34.34,0,0,1,.22.11c-1,.34-2,.68-3,1.13a2.81,2.81,0,0,1-2.15,0c-3.28-1.13-6.56-2.15-10-3.28a.33.33,0,0,0-.45.12,17.19,17.19,0,0,0-6.34,13.23A5.77,5.77,0,0,0,20,42.07l.23.23Z"/></g></g></svg>