<svg xmlns="http://www.w3.org/2000/svg" viewBox="0 0 51.81 50.3"><defs><style>.cls-1{fill:none;stroke:#000;stroke-linecap:round;stroke-linejoin:round;}</style></defs><g id="Layer_2" data-name="Layer 2"><g id="_1170px_grid" data-name="1170px grid"><path class="cls-1" d="M27.84,19.49l3.55-3.55a10.93,10.93,0,0,1-.83-2.16A10.56,10.56,0,0,1,45.3,1.52L39.22,7.6l5,5L50.28,6.5A10.56,10.56,0,0,1,38,21.25a10.89,10.89,0,0,1-2.15-.84L32.32,24"/><path class="cls-1" d="M19.13,28.2,3,44.37a2.45,2.45,0,0,0,0,3.47l1,1a2.48,2.48,0,0,0,3.48,0L23.61,32.68"/><path class="cls-1" d="M40.39,34.63l8,8a3.42,3.42,0,0,1,0,4.86l-1.25,1.26a3.45,3.45,0,0,1-4.87,0l-8-8-4,.7-2-4.51,8.33-8.33,4.51,2Z"/><polyline class="cls-1" points="30.62 34.56 10.68 14.63 7.09 14.11 0.5 4.36 3.99 0.87 13.74 7.46 14.26 11.05 34.2 30.99"/></g></g></svg>