<svg xmlns="http://www.w3.org/2000/svg" viewBox="0 0 73.89 64.53"><defs><style>.cls-1{fill:#323548;}</style></defs><g id="Layer_2" data-name="Layer 2"><g id="_1170px_grid" data-name="1170px grid"><path class="cls-1" d="M30.47,39.2a.57.57,0,0,1-.57-.58V24.46a.57.57,0,0,1,.57-.58h7a4.12,4.12,0,1,1,0,8.24H33.23a.58.58,0,0,1,0-1.16h4.21a3,3,0,0,0,2.09-5.06A2.94,2.94,0,0,0,37.44,25H31.05V38.62A.58.58,0,0,1,30.47,39.2Z"/><path class="cls-1" d="M45.69,39.2a.58.58,0,0,1-.58-.58V24.45a.58.58,0,0,1,1.15,0V38.62A.58.58,0,0,1,45.69,39.2Z"/><path class="cls-1" d="M23.68,33.66H15.36a.58.58,0,0,1,0-1.16h8.32a.58.58,0,0,1,0,1.16Z"/><path class="cls-1" d="M26.75,39.2a.57.57,0,0,1-.51-.32L19.66,25.74,13.09,38.88a.58.58,0,0,1-1-.52l7.1-14.16a.6.6,0,0,1,1,0l7.09,14.16a.58.58,0,0,1-.52.84Z"/><path class="cls-1" d="M52.53,43.57H16.11A16.11,16.11,0,0,1,12.79,11.7,14,14,0,0,1,26.57,0a13.84,13.84,0,0,1,8,2.52A14,14,0,0,1,56.37,11.7,16.06,16.06,0,0,1,67,19.45a.56.56,0,0,1-.21.78A.57.57,0,0,1,66,20a14.91,14.91,0,0,0-10.27-7.27.57.57,0,0,1-.47-.49A12.84,12.84,0,0,0,42.59,1.15,12.64,12.64,0,0,0,34.93,3.7a.59.59,0,0,1-.69,0,12.69,12.69,0,0,0-7.67-2.55,12.84,12.84,0,0,0-12.7,11.11.56.56,0,0,1-.47.49,15,15,0,0,0,2.71,29.66H52.53a.58.58,0,1,1,0,1.16Z"/><path class="cls-1" d="M34.58,56.11a.56.56,0,0,1-.57-.57v-3.7a.57.57,0,0,1,.57-.58.58.58,0,0,1,.58.58v3.7A.57.57,0,0,1,34.58,56.11Z"/><path class="cls-1" d="M34.58,50.27a.57.57,0,0,1-.57-.58v-2a.57.57,0,0,1,.57-.58.58.58,0,0,1,.58.58v2A.58.58,0,0,1,34.58,50.27Z"/><path class="cls-1" d="M34.58,45.85a.57.57,0,0,1-.57-.57V44.9a.57.57,0,0,1,.57-.58.58.58,0,0,1,.58.58v.38A.58.58,0,0,1,34.58,45.85Z"/><path class="cls-1" d="M34.58,64.53a4.68,4.68,0,1,1,4.68-4.68A4.68,4.68,0,0,1,34.58,64.53Zm0-8.2a3.53,3.53,0,1,0,3.52,3.52A3.53,3.53,0,0,0,34.58,56.33Z"/><path class="cls-1" d="M34.58,62.09a2.24,2.24,0,1,1,2.24-2.24A2.24,2.24,0,0,1,34.58,62.09Zm0-3.32a1.09,1.09,0,0,0,0,2.17,1.09,1.09,0,1,0,0-2.17Z"/><path class="cls-1" d="M46.84,57.07a.56.56,0,0,1-.57-.57V52.8a.56.56,0,0,1,.57-.57.57.57,0,0,1,.58.57v3.7A.57.57,0,0,1,46.84,57.07Z"/><path class="cls-1" d="M46.84,51.23a.57.57,0,0,1-.57-.58v-1a.57.57,0,0,1,.57-.58.58.58,0,0,1,.58.58v1A.58.58,0,0,1,46.84,51.23Z"/><path class="cls-1" d="M46.84,47.77a.56.56,0,0,1-.57-.57v-.38a.57.57,0,0,1,.57-.58.58.58,0,0,1,.58.58v.38A.57.57,0,0,1,46.84,47.77Z"/><path class="cls-1" d="M46.84,63.05A3.46,3.46,0,1,1,50.3,59.6,3.47,3.47,0,0,1,46.84,63.05Zm0-5.76a2.31,2.31,0,1,0,2.31,2.31A2.31,2.31,0,0,0,46.84,57.29Z"/><path class="cls-1" d="M22.32,57.07a.57.57,0,0,1-.58-.57V52.8a.58.58,0,0,1,1.16,0v3.7A.57.57,0,0,1,22.32,57.07Z"/><path class="cls-1" d="M22.32,51.23a.58.58,0,0,1-.58-.58v-1a.58.58,0,0,1,1.16,0v1A.58.58,0,0,1,22.32,51.23Z"/><path class="cls-1" d="M22.32,47.77a.57.57,0,0,1-.58-.57v-.38a.58.58,0,0,1,1.16,0v.38A.57.57,0,0,1,22.32,47.77Z"/><path class="cls-1" d="M22.32,63.05a3.46,3.46,0,1,1,3.46-3.45A3.46,3.46,0,0,1,22.32,63.05Zm0-5.76a2.31,2.31,0,1,0,2.31,2.31A2.31,2.31,0,0,0,22.32,57.29Z"/><path class="cls-1" d="M63.28,44.13h-4a.58.58,0,0,1-.57-.49L58.4,41.3a8.84,8.84,0,0,1-2-.82L54.56,41.9a.57.57,0,0,1-.75-.06L51,39a.58.58,0,0,1,0-.76l1.42-1.89a8.44,8.44,0,0,1-.81-2l-2.34-.34a.57.57,0,0,1-.49-.57v-4A.57.57,0,0,1,49.2,29l2.34-.34a8.36,8.36,0,0,1,.81-1.95L50.93,24.8A.58.58,0,0,1,51,24l2.82-2.82a.57.57,0,0,1,.76,0l1.89,1.42a8.93,8.93,0,0,1,1.95-.81l.33-2.34A.58.58,0,0,1,59.3,19h4a.57.57,0,0,1,.57.49l.34,2.34a9.14,9.14,0,0,1,2,.81L68,21.16a.59.59,0,0,1,.76.06L71.61,24a.59.59,0,0,1,0,.76l-1.42,1.88a8.81,8.81,0,0,1,.8,1.95L73.4,29a.57.57,0,0,1,.49.57v4a.57.57,0,0,1-.49.57L71,34.43a9.59,9.59,0,0,1-.81,2l1.43,1.9a.58.58,0,0,1-.06.76l-2.8,2.8a.58.58,0,0,1-.76.06l-1.89-1.42a9,9,0,0,1-2,.82l-.34,2.34A.57.57,0,0,1,63.28,44.13ZM59.8,43h3l.32-2.23a.6.6,0,0,1,.44-.48,7.78,7.78,0,0,0,2.33-1,.59.59,0,0,1,.66,0l1.81,1.35,2.1-2.1-1.36-1.8a.59.59,0,0,1,0-.65,8.24,8.24,0,0,0,1-2.34.56.56,0,0,1,.48-.44L72.74,33V30l-2.24-.32a.56.56,0,0,1-.48-.44,8,8,0,0,0-1-2.34.57.57,0,0,1,0-.64l1.36-1.8-2.11-2.11-1.8,1.35a.59.59,0,0,1-.65,0,8.18,8.18,0,0,0-2.34-1,.58.58,0,0,1-.44-.48l-.32-2.22h-3l-.32,2.22a.56.56,0,0,1-.44.48,8.29,8.29,0,0,0-2.34,1,.57.57,0,0,1-.64,0l-1.79-1.35L52.15,24.5l1.35,1.8a.59.59,0,0,1,0,.65,7.66,7.66,0,0,0-1,2.33.56.56,0,0,1-.47.44L49.86,30v3l2.23.32a.56.56,0,0,1,.47.44,8.1,8.1,0,0,0,1,2.35.59.59,0,0,1,0,.65l-1.35,1.79,2.11,2.1,1.8-1.35a.57.57,0,0,1,.65,0,7.89,7.89,0,0,0,2.33,1,.59.59,0,0,1,.44.48Z"/><path class="cls-1" d="M61.29,38.79a7.2,7.2,0,0,1-5.13-2.12,7.28,7.28,0,1,1,5.13,2.12Zm0-13.37a6.11,6.11,0,1,0,4.31,1.79A6.08,6.08,0,0,0,61.31,25.42Z"/><path class="cls-1" d="M58.22,35.18a.54.54,0,0,1-.4-.17,4.92,4.92,0,0,1,7-7,.57.57,0,0,1-.81.81,3.78,3.78,0,0,0-5.34,5.34.56.56,0,0,1,0,.81A.54.54,0,0,1,58.22,35.18Z"/></g></g></svg>