<svg xmlns="http://www.w3.org/2000/svg" viewBox="0 0 89.64 73.98"><defs><style>.cls-1{font-size:12.14px;font-family:Montserrat-Regular, Montserrat;}.cls-2{letter-spacing:-0.01em;}.cls-3{fill:none;stroke:#000;stroke-linecap:round;stroke-linejoin:round;}</style></defs><title>api-module-development</title><g id="Layer_2" data-name="Layer 2"><g id="_1170px_grid" data-name="1170px grid"><text class="cls-1" transform="translate(20.5 48.86)">A<tspan class="cls-2" x="8.7" y="0">P</tspan><tspan x="17.3" y="0">I</tspan></text><path class="cls-3" d="M30.45,14a26,26,0,0,1,5.75.61L36.81,22a19.32,19.32,0,0,1,4.31,1.85l5.75-4.72a19.47,19.47,0,0,1,4.51,3.69,25.14,25.14,0,0,1,3.69,4.51l-4.72,5.75a35.61,35.61,0,0,1,1.85,4.31l7.39.61a27.41,27.41,0,0,1,.61,5.75,25.9,25.9,0,0,1-.61,5.74l-7.39.62a19.25,19.25,0,0,1-1.85,4.31l4.72,5.74a19.47,19.47,0,0,1-3.69,4.51,25.64,25.64,0,0,1-4.51,3.7l-5.75-4.72a37.18,37.18,0,0,1-4.31,1.84l-.61,7.39a27.43,27.43,0,0,1-5.75.62,26,26,0,0,1-5.74-.62l-.62-7.39a19.4,19.4,0,0,1-4.3-1.84L14,68.35a19.77,19.77,0,0,1-4.51-3.7,25.28,25.28,0,0,1-3.7-4.51l4.72-5.74a38.72,38.72,0,0,1-1.84-4.31l-7.39-.62A16.6,16.6,0,0,1,.5,43.93a25.9,25.9,0,0,1,.62-5.74l7.38-.62a19.72,19.72,0,0,1,1.85-4.31L5.63,27.52A19.73,19.73,0,0,1,9.32,23a25.34,25.34,0,0,1,4.52-3.7L19.58,24a39.93,39.93,0,0,1,4.31-1.85l.61-7.38A19.73,19.73,0,0,1,30.45,14Z"/><path class="cls-3" d="M30.45,29.6a14.33,14.33,0,1,1,0,28.66A14.2,14.2,0,0,1,16.12,43.93,14.36,14.36,0,0,1,30.45,29.6Z"/><path class="cls-3" d="M59.4,24.38H82.56s6.91-1.73,6.57-7.95S83.6,9.17,83.6,9.17A8.46,8.46,0,0,0,75.65.53S70.81-.16,67.7,5c0,0-8.3-4.49-9.68,4.5a8.25,8.25,0,0,0-4.84,9.67C54.22,24,59.4,24.38,59.4,24.38Z"/><line class="cls-3" x1="71.5" y1="9.17" x2="78.58" y2="16.26"/><polyline class="cls-3" points="78.76 12.97 78.76 16.43 75.04 16.43"/><line class="cls-3" x1="70.12" y1="18.5" x2="63.03" y2="11.42"/><polyline class="cls-3" points="62.86 14.7 62.86 11.24 66.57 11.24"/></g></g></svg>