<?xml version="1.0" encoding="utf-8"?>
<!-- Generator: Adobe Illustrator 25.2.0, SVG Export Plug-In . SVG Version: 6.00 Build 0)  -->
<svg version="1.1" id="Layer_1" xmlns="http://www.w3.org/2000/svg" xmlns:xlink="http://www.w3.org/1999/xlink" x="0px" y="0px"
	 viewBox="0 0 79.1 63.86" style="enable-background:new 0 0 79.1 63.86;" xml:space="preserve">
<style type="text/css">
	.st0{fill:none;stroke:#010101;stroke-linecap:round;stroke-linejoin:round;stroke-miterlimit:22.9256;}
</style>
<g>
	<g>
		<g>
			<path class="st0" d="M71.33,7.54V0.5l0,0H0.5v50.4c39.71,0,50.53,0,70.83,0V28.99"/>
			<line class="st0" x1="18.97" y1="63.36" x2="52.86" y2="63.36"/>
			<line class="st0" x1="27.38" y1="61.66" x2="27.38" y2="55.15"/>
			<line class="st0" x1="44.45" y1="61.66" x2="44.45" y2="55.15"/>
		</g>
	</g>
	<rect x="10.91" y="7.15" class="st0" width="50" height="11"/>
	<line class="st0" x1="10.91" y1="22.4" x2="40.1" y2="22.4"/>
	<line class="st0" x1="10.91" y1="34.4" x2="40.1" y2="34.4"/>
	<line class="st0" x1="10.91" y1="37.4" x2="40.1" y2="37.4"/>
	<line class="st0" x1="10.91" y1="40.4" x2="40.1" y2="40.4"/>
	<line class="st0" x1="10.91" y1="43.4" x2="40.1" y2="43.4"/>
	<g>
		<path class="st0" d="M55.03,21.4c0.8,0,1.52,0.08,2.23,0.24l0.24,2.87c0.56,0.16,1.12,0.4,1.68,0.72l2.23-1.84
			c0.64,0.4,1.28,0.88,1.76,1.44c0.56,0.56,1.04,1.12,1.44,1.76l-1.84,2.23c0.32,0.56,0.48,1.12,0.72,1.68l2.87,0.24
			c0.16,0.72,0.24,1.52,0.24,2.23c0,0.8-0.08,1.52-0.24,2.23l-2.87,0.24c-0.16,0.56-0.4,1.12-0.72,1.68l1.84,2.23
			c-0.4,0.64-0.88,1.28-1.44,1.76c-0.56,0.56-1.12,1.04-1.76,1.44l-2.23-1.84c-0.56,0.32-1.12,0.48-1.68,0.72l-0.24,2.87
			c-0.72,0.16-1.52,0.24-2.23,0.24c-0.8,0-1.52-0.08-2.23-0.24l-0.24-2.87c-0.56-0.16-1.12-0.4-1.68-0.72l-2.23,1.84
			c-0.64-0.4-1.28-0.88-1.76-1.44c-0.56-0.56-1.04-1.12-1.44-1.76l1.84-2.23c-0.32-0.56-0.48-1.12-0.72-1.68L43.7,35.2
			c-0.24-0.64-0.32-1.44-0.32-2.15c0-0.8,0.08-1.52,0.24-2.23l2.87-0.24c0.16-0.56,0.4-1.12,0.72-1.68l-1.84-2.23
			c0.4-0.64,0.88-1.28,1.44-1.76c0.56-0.56,1.12-1.04,1.76-1.44l2.23,1.84c0.56-0.32,1.12-0.48,1.68-0.72l0.24-2.87
			C53.51,21.48,54.23,21.4,55.03,21.4L55.03,21.4z"/>
		<path class="st0" d="M55.03,28.34c2.55,0,4.71,2.07,4.71,4.71c0,2.55-2.07,4.71-4.71,4.71s-4.71-2.07-4.71-4.71
			S52.47,28.34,55.03,28.34L55.03,28.34z"/>
	</g>
	<g>
		<path class="st0" d="M71.01,10.39c0.52,0,0.99,0.05,1.46,0.16l0.16,1.88c0.37,0.1,0.73,0.26,1.1,0.47l1.46-1.2
			c0.42,0.26,0.84,0.58,1.15,0.94c0.37,0.37,0.68,0.73,0.94,1.15l-1.2,1.46c0.21,0.37,0.31,0.73,0.47,1.1l1.88,0.16
			c0.1,0.47,0.16,0.99,0.16,1.46c0,0.52-0.05,0.99-0.16,1.46l-1.88,0.16c-0.1,0.37-0.26,0.73-0.47,1.1l1.2,1.46
			c-0.26,0.42-0.58,0.84-0.94,1.15c-0.37,0.37-0.73,0.68-1.15,0.94l-1.46-1.2c-0.37,0.21-0.73,0.31-1.1,0.47l-0.16,1.88
			c-0.47,0.1-0.99,0.16-1.46,0.16c-0.52,0-0.99-0.05-1.46-0.16l-0.16-1.88c-0.37-0.1-0.73-0.26-1.1-0.47l-1.46,1.2
			c-0.42-0.26-0.84-0.58-1.15-0.94c-0.37-0.37-0.68-0.73-0.94-1.15l1.2-1.46c-0.21-0.37-0.31-0.73-0.47-1.1l-1.88-0.16
			c-0.16-0.42-0.21-0.94-0.21-1.41c0-0.52,0.05-0.99,0.16-1.46l1.88-0.16c0.1-0.37,0.26-0.73,0.47-1.1l-1.2-1.46
			c0.26-0.42,0.58-0.84,0.94-1.15c0.37-0.37,0.73-0.68,1.15-0.94l1.46,1.2c0.37-0.21,0.73-0.31,1.1-0.47l0.16-1.88
			C70.02,10.44,70.49,10.39,71.01,10.39L71.01,10.39z"/>
		<path class="st0" d="M71.01,14.94c1.67,0,3.09,1.36,3.09,3.09c0,1.67-1.36,3.09-3.09,3.09s-3.09-1.36-3.09-3.09
			C67.93,16.3,69.34,14.94,71.01,14.94L71.01,14.94z"/>
	</g>
</g>
</svg>
