<svg xmlns="http://www.w3.org/2000/svg" viewBox="0 0 64.53 60.36"><defs><style>.cls-1{fill:none;}.cls-1,.cls-2{stroke:#161616;stroke-linecap:round;stroke-linejoin:round;stroke-width:1.36px;}.cls-2{fill:#ffdb2d;}</style></defs><g id="Layer_2" data-name="Layer 2"><g id="_1170px_grid" data-name="1170px grid"><path class="cls-1" d="M5,29.27A28.6,28.6,0,1,1,9,44"/><polyline class="cls-1" points="0.68 26.29 4.95 30.32 9.5 26.7"/><path class="cls-1" d="M30.61,19.35l6.58-6.29A8.37,8.37,0,0,1,49,13.33h0a8.37,8.37,0,0,1-.27,11.83l-6.59,6.29a8.36,8.36,0,0,1-11.82-.28h0A8.32,8.32,0,0,1,28,25.83"/><path class="cls-1" d="M37.75,37l-6.59,6.29A8.37,8.37,0,0,1,19.33,43h0a8.36,8.36,0,0,1,.28-11.83l6.58-6.29A8.37,8.37,0,0,1,38,25.18h0a8.3,8.3,0,0,1,2.17,4.21"/><circle class="cls-2" cx="51.77" cy="47.6" r="12.08"/><polyline class="cls-1" points="45.22 46.67 49.87 51.32 58.33 43.43"/></g></g></svg>