<?xml version="1.0" encoding="utf-8"?>
<!-- Generator: Adobe Illustrator 25.2.0, SVG Export Plug-In . SVG Version: 6.00 Build 0)  -->
<svg version="1.1" id="Layer_1" xmlns="http://www.w3.org/2000/svg" xmlns:xlink="http://www.w3.org/1999/xlink" x="0px" y="0px"
	 viewBox="0 0 71.64 67.78" style="enable-background:new 0 0 71.64 67.78;" xml:space="preserve">
<style type="text/css">
	.st0{fill:none;stroke:#010101;stroke-linecap:round;stroke-linejoin:round;stroke-miterlimit:22.9256;}
</style>
<g>
	<path class="st0" d="M19.89,4.59H0.5v50.26c39.6,0,50.39,0,70.64,0V33.28"/>
	<line class="st0" x1="22.74" y1="4.59" x2="18.15" y2="4.59"/>
	<polyline class="st0" points="71.14,33.03 71.14,4.59 71.14,4.59 48.19,4.59 	"/>
	<line class="st0" x1="18.92" y1="67.28" x2="52.71" y2="67.28"/>
	<line class="st0" x1="27.3" y1="65.59" x2="27.3" y2="59.1"/>
	<line class="st0" x1="44.33" y1="65.59" x2="44.33" y2="59.1"/>
</g>
<g>
	<g>
		<polyline class="st0" points="28.87,4.82 28.87,0.5 43.49,0.5 43.49,4.82 		"/>
		<line class="st0" x1="28.87" y1="10.44" x2="28.87" y2="6.18"/>
		<line class="st0" x1="28.87" y1="16.29" x2="28.87" y2="11.77"/>
		<line class="st0" x1="43.49" y1="17.54" x2="28.87" y2="17.54"/>
		<line class="st0" x1="43.49" y1="11.86" x2="43.49" y2="16.45"/>
		<line class="st0" x1="43.49" y1="6.18" x2="43.49" y2="10.42"/>
		<line class="st0" x1="29.14" y1="6.18" x2="43.49" y2="6.18"/>
		<line class="st0" x1="29.14" y1="11.86" x2="43.49" y2="11.86"/>
		<line class="st0" x1="39.72" y1="2.43" x2="39.43" y2="2.43"/>
		<line class="st0" x1="41.56" y1="8.23" x2="41.27" y2="8.23"/>
		<line class="st0" x1="39.72" y1="14.03" x2="39.43" y2="14.03"/>
	</g>
	<g>
		<rect x="14.7" y="30.2" class="st0" width="9.46" height="9.46"/>
		
			<rect x="48.19" y="30.2" transform="matrix(-1 -1.224647e-16 1.224647e-16 -1 105.8464 69.8687)" class="st0" width="9.46" height="9.46"/>
		
			<rect x="31.45" y="30.2" transform="matrix(-1.836970e-16 1 -1 -1.836970e-16 71.1129 -1.2442)" class="st0" width="9.46" height="9.46"/>
		<line class="st0" x1="36.18" y1="27.85" x2="36.18" y2="21.41"/>
		<line class="st0" x1="29.42" y1="21.41" x2="22.92" y2="27.91"/>
		<line class="st0" x1="42.94" y1="21.41" x2="49.44" y2="27.91"/>
	</g>
</g>
</svg>
