<?xml version="1.0" encoding="utf-8"?>
<!-- Generator: Adobe Illustrator 25.2.0, SVG Export Plug-In . SVG Version: 6.00 Build 0)  -->
<svg version="1.1" id="Layer_1" xmlns="http://www.w3.org/2000/svg" xmlns:xlink="http://www.w3.org/1999/xlink" x="0px" y="0px"
	 viewBox="0 0 71.64 79.98" style="enable-background:new 0 0 71.64 79.98;" xml:space="preserve">
<style type="text/css">
	.st0{fill:none;stroke:#010101;stroke-linecap:round;stroke-linejoin:round;stroke-miterlimit:22.9256;}
	.st1{fill:none;stroke:#000000;stroke-width:0.75;stroke-miterlimit:10;}
</style>
<g>
	<path class="st0" d="M19.89,16.79H0.5v50.26c39.6,0,50.39,0,70.64,0V45.47"/>
	<polyline class="st0" points="71.14,45.22 71.14,16.79 71.14,16.79 55.06,16.79 	"/>
	<line class="st0" x1="18.92" y1="79.48" x2="52.71" y2="79.48"/>
	<line class="st0" x1="27.3" y1="77.78" x2="27.3" y2="71.29"/>
	<line class="st0" x1="44.33" y1="77.78" x2="44.33" y2="71.29"/>
</g>
<g>
	<path class="st1" d="M34.99,39.75c0.43-0.71,0.87-1.42,1.3-2.14c0.11-0.18,0.21-0.29,0.43-0.24c0.07,0.02,0.15,0.01,0.23,0
		c0.15-0.02,0.23,0.02,0.31,0.16c0.46,0.74,0.93,1.47,1.39,2.21c0.03,0.05,0.06,0.1,0.1,0.15c0.04-0.01,0.06-0.02,0.09-0.03
		c1.18-0.5,2.36-1,3.54-1.5c0.1-0.04,0.11-0.09,0.09-0.18c-0.19-0.8-0.37-1.61-0.58-2.41c-0.07-0.26-0.06-0.45,0.17-0.61
		c0.06-0.04,0.1-0.1,0.15-0.15c0.06-0.08,0.13-0.09,0.23-0.07c0.87,0.2,1.74,0.38,2.61,0.58c0.13,0.03,0.19,0.01,0.24-0.12
		c0.46-1.15,0.93-2.31,1.4-3.46c0.05-0.12,0.04-0.17-0.08-0.24c-0.74-0.44-1.47-0.9-2.21-1.34c-0.16-0.09-0.24-0.19-0.21-0.38
		c0.02-0.09,0.01-0.19-0.01-0.27c-0.03-0.14,0.03-0.21,0.15-0.28c0.74-0.46,1.47-0.93,2.21-1.39c0.05-0.03,0.11-0.07,0.16-0.11
		c-0.53-1.25-1.06-2.49-1.58-3.74c-0.07,0.02-0.14,0.03-0.2,0.04c-0.83,0.2-1.65,0.39-2.48,0.59c-0.16,0.04-0.29,0.04-0.39-0.11
		c-0.06-0.09-0.15-0.16-0.23-0.23c-0.08-0.07-0.1-0.13-0.08-0.24c0.2-0.88,0.39-1.75,0.59-2.63c0.03-0.12,0-0.17-0.11-0.21
		c-1.16-0.47-2.33-0.94-3.49-1.42c-0.04-0.02-0.09-0.03-0.14-0.05c-0.04,0.06-0.07,0.11-0.1,0.16c-0.46,0.75-0.92,1.5-1.38,2.26
		c-0.06,0.1-0.12,0.14-0.23,0.13c-0.13-0.01-0.27-0.01-0.41,0c-0.11,0.01-0.17-0.03-0.23-0.13c-0.48-0.76-0.96-1.52-1.43-2.28
		c-0.06-0.1-0.11-0.11-0.22-0.07c-1.16,0.5-2.32,0.99-3.48,1.48c-0.1,0.04-0.12,0.08-0.1,0.19c0.21,0.85,0.4,1.69,0.61,2.54
		c0.04,0.17,0.04,0.29-0.11,0.39c-0.09,0.06-0.16,0.15-0.23,0.23c-0.07,0.08-0.13,0.1-0.24,0.08c-0.47-0.11-0.95-0.21-1.42-0.32
		c-0.45-0.1-0.9-0.2-1.34-0.3c-0.02,0.03-0.03,0.05-0.04,0.07c-0.49,1.2-0.97,2.4-1.46,3.59c-0.05,0.11,0.01,0.14,0.09,0.19
		c0.7,0.43,1.4,0.87,2.11,1.28c0.23,0.13,0.38,0.27,0.31,0.55c-0.01,0.06,0,0.12,0.01,0.18c0.02,0.13-0.02,0.2-0.14,0.27
		c-0.75,0.47-1.49,0.94-2.24,1.41c-0.11,0.07-0.14,0.12-0.08,0.25c0.49,1.14,0.98,2.29,1.46,3.44c0.05,0.11,0.09,0.15,0.23,0.12
		c0.75-0.19,1.51-0.34,2.25-0.55c0.35-0.1,0.62-0.1,0.83,0.23c0.01,0.01,0.02,0.02,0.04,0.03c0.1,0.07,0.12,0.15,0.09,0.28
		c-0.2,0.86-0.38,1.73-0.58,2.6c-0.03,0.13,0,0.18,0.12,0.23c1.16,0.47,2.32,0.94,3.47,1.41c0.04,0.02,0.09,0.03,0.14,0.05
		C34.92,39.86,34.96,39.81,34.99,39.75z"/>
	<path class="st1" d="M40.43,29.9c-0.01-2.04-1.67-3.68-3.71-3.66c-2.04,0.01-3.68,1.67-3.67,3.71c0.01,2.04,1.68,3.69,3.72,3.67
		C38.81,33.6,40.45,31.94,40.43,29.9z"/>
</g>
<g>
	<path class="st1" d="M15.67,59.98c0.27-0.44,0.54-0.87,0.8-1.32c0.06-0.11,0.13-0.18,0.26-0.15c0.04,0.01,0.09,0.01,0.14,0
		c0.09-0.02,0.14,0.02,0.19,0.1c0.28,0.46,0.57,0.91,0.86,1.36c0.02,0.03,0.04,0.06,0.06,0.09c0.02-0.01,0.04-0.01,0.06-0.02
		c0.73-0.31,1.45-0.62,2.18-0.92c0.06-0.03,0.07-0.05,0.05-0.11c-0.12-0.5-0.23-0.99-0.36-1.49c-0.04-0.16-0.04-0.28,0.11-0.38
		c0.04-0.02,0.06-0.06,0.09-0.09c0.04-0.05,0.08-0.05,0.14-0.04c0.54,0.12,1.07,0.24,1.61,0.36c0.08,0.02,0.12,0.01,0.15-0.07
		c0.29-0.71,0.57-1.42,0.87-2.13c0.03-0.07,0.02-0.11-0.05-0.15c-0.45-0.27-0.9-0.55-1.36-0.83c-0.1-0.06-0.15-0.12-0.13-0.23
		c0.01-0.05,0.01-0.11,0-0.17c-0.02-0.09,0.02-0.13,0.09-0.18c0.46-0.28,0.91-0.57,1.36-0.86c0.03-0.02,0.06-0.04,0.1-0.07
		c-0.33-0.77-0.65-1.53-0.98-2.3c-0.05,0.01-0.08,0.02-0.12,0.03c-0.51,0.12-1.02,0.24-1.53,0.36c-0.1,0.03-0.18,0.02-0.24-0.07
		c-0.04-0.05-0.09-0.1-0.14-0.14c-0.05-0.04-0.06-0.08-0.05-0.15c0.12-0.54,0.24-1.08,0.36-1.62c0.02-0.08,0-0.1-0.07-0.13
		c-0.72-0.29-1.43-0.58-2.15-0.87c-0.03-0.01-0.05-0.02-0.08-0.03c-0.02,0.04-0.04,0.07-0.06,0.1c-0.28,0.46-0.57,0.93-0.85,1.39
		c-0.04,0.06-0.07,0.08-0.14,0.08c-0.08-0.01-0.17-0.01-0.25,0c-0.07,0.01-0.11-0.02-0.14-0.08c-0.29-0.47-0.59-0.94-0.88-1.41
		c-0.04-0.06-0.07-0.07-0.13-0.04c-0.71,0.31-1.43,0.61-2.14,0.91c-0.06,0.03-0.08,0.05-0.06,0.12c0.13,0.52,0.25,1.04,0.38,1.57
		c0.03,0.1,0.02,0.18-0.07,0.24c-0.05,0.04-0.1,0.09-0.14,0.14c-0.04,0.05-0.08,0.06-0.15,0.05c-0.29-0.07-0.59-0.13-0.88-0.2
		c-0.28-0.06-0.55-0.12-0.83-0.18c-0.01,0.02-0.02,0.03-0.02,0.04c-0.3,0.74-0.6,1.48-0.9,2.21c-0.03,0.07,0.01,0.09,0.05,0.11
		c0.43,0.26,0.86,0.53,1.3,0.79c0.14,0.08,0.23,0.16,0.19,0.34c-0.01,0.03,0,0.07,0,0.11c0.01,0.08-0.01,0.13-0.08,0.17
		c-0.46,0.29-0.92,0.58-1.38,0.87c-0.07,0.04-0.09,0.08-0.05,0.16c0.3,0.7,0.6,1.41,0.9,2.12c0.03,0.07,0.06,0.09,0.14,0.07
		c0.46-0.11,0.93-0.21,1.39-0.34c0.21-0.06,0.38-0.06,0.51,0.14c0.01,0.01,0.01,0.02,0.02,0.02c0.06,0.04,0.07,0.09,0.06,0.17
		c-0.12,0.53-0.24,1.07-0.36,1.6c-0.02,0.08,0,0.11,0.07,0.14c0.71,0.29,1.43,0.58,2.14,0.87c0.03,0.01,0.06,0.02,0.09,0.03
		C15.63,60.05,15.65,60.02,15.67,59.98z"/>
	<path class="st1" d="M19.02,53.91c-0.01-1.26-1.03-2.27-2.29-2.26c-1.26,0.01-2.27,1.03-2.26,2.28c0.01,1.26,1.03,2.27,2.29,2.26
		C18.02,56.19,19.03,55.16,19.02,53.91z"/>
</g>
<circle class="st1" cx="36.76" cy="29.91" r="16.19"/>
<g>
	<line class="st1" x1="37.07" y1="11.66" x2="37.01" y2="4.54"/>
	<circle class="st1" cx="37.4" cy="2.46" r="2.08"/>
</g>
<g>
	<line class="st1" x1="26.51" y1="14.81" x2="22.36" y2="9.02"/>
	<circle class="st1" cx="21.48" cy="7.09" r="2.08"/>
</g>
<g>
	<line class="st1" x1="46.94" y1="14.66" x2="51" y2="8.8"/>
	<circle class="st1" cx="51.86" cy="6.87" r="2.08"/>
</g>
<line class="st1" x1="31.18" y1="53.93" x2="48.97" y2="53.93"/>
</svg>
