<?xml version="1.0" encoding="utf-8"?>
<!-- Generator: Adobe Illustrator 25.2.0, SVG Export Plug-In . SVG Version: 6.00 Build 0)  -->
<svg version="1.1" id="Layer_1" xmlns="http://www.w3.org/2000/svg" xmlns:xlink="http://www.w3.org/1999/xlink" x="0px" y="0px"
	 viewBox="0 0 73.61 65.47" style="enable-background:new 0 0 73.61 65.47;" xml:space="preserve">
<style type="text/css">
	.st0{fill:none;stroke:#010101;stroke-linecap:round;stroke-linejoin:round;stroke-miterlimit:22.9256;}
</style>
<g>
	<path class="st0" d="M69.07,0.5H4.53C2.31,0.5,0.5,2.31,0.5,4.53v44.7c0,2.23,1.81,4.03,4.03,4.03h64.54
		c2.23,0,4.03-1.81,4.03-4.03V4.53C73.11,2.31,71.3,0.5,69.07,0.5z"/>
	<polyline class="st0" points="42.37,56.47 42.78,64.97 30.83,64.97 31.24,56.47 	"/>
	<line class="st0" x1="23.55" y1="64.97" x2="50.06" y2="64.97"/>
	<g>
		<line class="st0" x1="15.67" y1="38.61" x2="57.94" y2="38.61"/>
		<line class="st0" x1="17.98" y1="45.17" x2="33.86" y2="45.17"/>
		<line class="st0" x1="39.75" y1="45.17" x2="55.63" y2="45.17"/>
		<g>
			<polyline class="st0" points="44.33,14.27 52.72,20.49 44.33,26.72 			"/>
			<polyline class="st0" points="29.28,14.27 20.89,20.49 29.28,26.72 			"/>
			<line class="st0" x1="38.69" y1="8.59" x2="34.92" y2="32.4"/>
		</g>
	</g>
</g>
</svg>
