<svg xmlns="http://www.w3.org/2000/svg" viewBox="0 0 59.64 56.81"><defs><style>.cls-1{fill:none;stroke:#000;stroke-linecap:round;stroke-linejoin:round;}</style></defs><g id="Layer_2" data-name="Layer 2"><g id="_1170px_grid" data-name="1170px grid"><path class="cls-1" d="M39.34,14.16V54.22a2.12,2.12,0,0,1-2.1,2.09H2.6A2.11,2.11,0,0,1,.5,54.22V2.6A2.1,2.1,0,0,1,2.6.5H25.68"/><path class="cls-1" d="M39.34,14.16H27.77a2.1,2.1,0,0,1-2.09-2.1V.5L39.34,14.16Z"/><path class="cls-1" d="M46.76,7.5h7.48V46.33c0,7.74-7.48,7.74-7.48,0V7.5Z"/><polyline class="cls-1" points="59.11 28.12 59.14 13.62 46.72 13.62"/><line class="cls-1" x1="8.88" y1="11.73" x2="19.92" y2="11.73"/><line class="cls-1" x1="8.88" y1="22.18" x2="30.96" y2="22.18"/><line class="cls-1" x1="8.88" y1="28.28" x2="30.96" y2="28.28"/><line class="cls-1" x1="8.88" y1="34.37" x2="30.96" y2="34.37"/></g></g></svg>