<svg xmlns="http://www.w3.org/2000/svg" xmlns:xlink="http://www.w3.org/1999/xlink" viewBox="0 0 90.14 90.14"><defs><style>.cls-1,.cls-2{stroke:#fff;stroke-miterlimit:10;}.cls-1{stroke-width:2.82px;fill:url(#linear-gradient);}.cls-2{fill:none;stroke-width:2.25px;}.cls-3{fill:#fff;}.cls-4{fill:#231f20;}</style><linearGradient id="linear-gradient" x1="14.67" y1="19.26" x2="81.24" y2="75.78" gradientUnits="userSpaceOnUse"><stop offset="0" stop-color="#f7921e"/><stop offset="0.27" stop-color="#f57920"/><stop offset="0.75" stop-color="#f15123"/><stop offset="1" stop-color="#ef4124"/></linearGradient></defs><g id="Layer_2" data-name="Layer 2"><g id="_1170px_grid" data-name="1170px grid"><circle class="cls-1" cx="45.07" cy="45.07" r="43.66"/><polygon class="cls-2" points="60.83 68.2 24.95 68.4 24.75 26.21 29.31 26.21 29.51 64.12 60.79 63.95 60.83 68.2"/><rect class="cls-2" x="29.41" y="21.84" width="35.88" height="42.19" transform="translate(-0.23 0.26) rotate(-0.31)"/><rect class="cls-3" x="31.84" y="27.31" width="9.71" height="10.34"/><rect class="cls-3" x="43.81" y="27.65" width="18.44" height="1.57"/><rect class="cls-4" x="43.81" y="31.87" width="18.44" height="1.57"/><rect class="cls-3" x="43.81" y="31.74" width="18.44" height="1.57"/><rect class="cls-3" x="43.81" y="35.8" width="18.44" height="1.57"/><rect class="cls-3" x="32.16" y="39.8" width="30.1" height="1.57"/><rect class="cls-3" x="32.16" y="43.97" width="30.1" height="1.57"/><rect class="cls-3" x="32.16" y="48.15" width="30.1" height="1.57"/><rect class="cls-3" x="32.16" y="52.33" width="30.1" height="1.57"/><rect class="cls-3" x="32.16" y="56.5" width="30.1" height="1.57"/></g></g></svg>