<svg xmlns="http://www.w3.org/2000/svg" viewBox="0 0 79.1 63.86"><defs><style>.cls-1{fill:none;stroke:#000;stroke-linecap:round;stroke-linejoin:round;}</style></defs><g id="Layer_2" data-name="Layer 2"><g id="_1170px_grid" data-name="1170px grid"><path class="cls-1" d="M71.33,7.54V.5H.5V50.9H71.33V29"/><line class="cls-1" x1="18.97" y1="63.36" x2="52.86" y2="63.36"/><line class="cls-1" x1="27.38" y1="61.66" x2="27.38" y2="55.15"/><line class="cls-1" x1="44.45" y1="61.66" x2="44.45" y2="55.15"/><rect class="cls-1" x="10.91" y="7.15" width="50" height="11"/><line class="cls-1" x1="10.91" y1="22.4" x2="40.1" y2="22.4"/><line class="cls-1" x1="10.91" y1="34.4" x2="40.1" y2="34.4"/><line class="cls-1" x1="10.91" y1="37.4" x2="40.1" y2="37.4"/><line class="cls-1" x1="10.91" y1="40.4" x2="40.1" y2="40.4"/><line class="cls-1" x1="10.91" y1="43.4" x2="40.1" y2="43.4"/><path class="cls-1" d="M55,21.4a10.09,10.09,0,0,1,2.23.24l.24,2.87a7.59,7.59,0,0,1,1.68.72l2.23-1.83a7.41,7.41,0,0,1,1.76,1.43,10.3,10.3,0,0,1,1.43,1.76l-1.83,2.23a13.39,13.39,0,0,1,.71,1.68l2.88.24A10.5,10.5,0,0,1,66.6,33a10,10,0,0,1-.24,2.23l-2.88.24a7.55,7.55,0,0,1-.71,1.68l1.83,2.23a7.93,7.93,0,0,1-1.43,1.76,9.91,9.91,0,0,1-1.76,1.44l-2.23-1.84a15.16,15.16,0,0,1-1.68.72l-.24,2.87a10.64,10.64,0,0,1-2.23.24,10.12,10.12,0,0,1-2.24-.24l-.24-2.87a7.53,7.53,0,0,1-1.67-.72l-2.24,1.84a7.64,7.64,0,0,1-1.75-1.44,9.91,9.91,0,0,1-1.44-1.76l1.84-2.23a15.16,15.16,0,0,1-.72-1.68L43.7,35.2a6.33,6.33,0,0,1-.32-2.15,10,10,0,0,1,.24-2.23l2.87-.24a7.59,7.59,0,0,1,.72-1.68l-1.84-2.23a7.7,7.7,0,0,1,1.44-1.76,9.71,9.71,0,0,1,1.75-1.43l2.24,1.83a15,15,0,0,1,1.67-.72l.24-2.87A7.73,7.73,0,0,1,55,21.4Z"/><path class="cls-1" d="M55,28.34a4.71,4.71,0,0,1,0,9.42,4.67,4.67,0,0,1-4.71-4.71A4.72,4.72,0,0,1,55,28.34Z"/><path class="cls-1" d="M71,10.39a6.91,6.91,0,0,1,1.47.15l.15,1.89a4.56,4.56,0,0,1,1.1.47l1.47-1.21a5.29,5.29,0,0,1,1.15,1,6.39,6.39,0,0,1,.94,1.15l-1.2,1.46a10.38,10.38,0,0,1,.47,1.1l1.88.16A7.25,7.25,0,0,1,78.6,18a7,7,0,0,1-.16,1.47l-1.88.15a5.2,5.2,0,0,1-.47,1.1l1.2,1.46a5.31,5.31,0,0,1-.94,1.16,6.76,6.76,0,0,1-1.15.94L73.73,23a8.08,8.08,0,0,1-1.1.47l-.15,1.89a7.33,7.33,0,0,1-1.47.15,6.88,6.88,0,0,1-1.46-.15l-.16-1.89a4.92,4.92,0,0,1-1.1-.47l-1.46,1.21a5,5,0,0,1-1.15-.94,6.37,6.37,0,0,1-.94-1.16l1.2-1.46a10.38,10.38,0,0,1-.47-1.1l-1.88-.15A4.18,4.18,0,0,1,63.38,18a6.88,6.88,0,0,1,.15-1.46l1.89-.16a4.92,4.92,0,0,1,.47-1.1l-1.21-1.46a5.07,5.07,0,0,1,.95-1.15,6,6,0,0,1,1.15-.94L68.24,13a10.38,10.38,0,0,1,1.1-.47l.16-1.88A4.92,4.92,0,0,1,71,10.39Z"/><path class="cls-1" d="M71,14.94a3.09,3.09,0,1,1,0,6.17,3.09,3.09,0,0,1,0-6.17Z"/></g></g></svg>