<svg xmlns="http://www.w3.org/2000/svg" viewBox="0 0 83.5 86.34"><defs><style>.cls-1{fill:none;stroke:#000;stroke-linecap:round;stroke-linejoin:round;}</style></defs><g id="Layer_2" data-name="Layer 2"><g id="_1170px_grid" data-name="1170px grid"><polyline class="cls-1" points="9.59 39.79 9.59 10.75 37.5 10.75"/><path class="cls-1" d="M59.76.5a16,16,0,0,1,3.52.38l.38,4.53A12,12,0,0,1,66.3,6.54l3.52-2.9a12,12,0,0,1,2.77,2.27,15.55,15.55,0,0,1,2.27,2.77L72,12.2a23,23,0,0,1,1.13,2.64l4.53.38A16.86,16.86,0,0,1,78,18.74a16,16,0,0,1-.38,3.52l-4.53.38A12,12,0,0,1,72,25.28l2.9,3.52a12,12,0,0,1-2.27,2.77,15.55,15.55,0,0,1-2.77,2.27l-3.52-2.9a23.11,23.11,0,0,1-2.64,1.14l-.38,4.52a16.21,16.21,0,0,1-3.52.38,15.38,15.38,0,0,1-3.52-.38l-.38-4.52a12,12,0,0,1-2.64-1.14l-3.52,2.9a12,12,0,0,1-2.77-2.27,15.55,15.55,0,0,1-2.27-2.77l2.9-3.52a23.11,23.11,0,0,1-1.14-2.64l-4.52-.38a10,10,0,0,1-.51-3.39,16.12,16.12,0,0,1,.38-3.53L46.3,15a12,12,0,0,1,1.13-2.64L44.54,8.8A12.12,12.12,0,0,1,46.8,6a15.13,15.13,0,0,1,2.77-2.27l3.52,2.89a24.93,24.93,0,0,1,2.64-1.13L56.11,1A12.41,12.41,0,0,1,59.76.5Z"/><path class="cls-1" d="M59.76,11.44a7.43,7.43,0,0,1,0,14.85,7.35,7.35,0,0,1-7.42-7.42,7.44,7.44,0,0,1,7.42-7.43Z"/><polyline class="cls-1" points="0.5 32.79 9.59 40.84 18 32.79"/><polyline class="cls-1" points="73.91 46.55 73.91 75.59 46 75.59"/><path class="cls-1" d="M23.74,85.84a16,16,0,0,1-3.52-.37l-.38-4.53A12,12,0,0,1,17.2,79.8l-3.52,2.9a12,12,0,0,1-2.77-2.27,15.85,15.85,0,0,1-2.27-2.76l2.9-3.53a23,23,0,0,1-1.13-2.64l-4.53-.38A16.86,16.86,0,0,1,5.5,67.6a16,16,0,0,1,.38-3.52l4.53-.38a12,12,0,0,1,1.13-2.64l-2.9-3.52a12.22,12.22,0,0,1,2.27-2.77,15.07,15.07,0,0,1,2.77-2.26L17.2,55.4a23,23,0,0,1,2.64-1.13l.38-4.53a16.86,16.86,0,0,1,3.52-.38,16,16,0,0,1,3.52.38l.38,4.53a12,12,0,0,1,2.64,1.13l3.52-2.89a11.71,11.71,0,0,1,2.77,2.26,15.55,15.55,0,0,1,2.27,2.77l-2.9,3.52a23.11,23.11,0,0,1,1.14,2.64l4.52.38a10,10,0,0,1,.51,3.4A16,16,0,0,1,41.73,71l-4.53.38A12,12,0,0,1,36.07,74L39,77.54a12.18,12.18,0,0,1-2.26,2.77,15.49,15.49,0,0,1-2.77,2.26l-3.52-2.89a24.93,24.93,0,0,1-2.64,1.13l-.38,4.53a12.09,12.09,0,0,1-3.65.5Z"/><path class="cls-1" d="M23.74,74.9a7.43,7.43,0,0,1,0-14.85,7.43,7.43,0,0,1,0,14.85Z"/><polyline class="cls-1" points="83 53.55 73.91 45.5 65.5 53.55"/></g></g></svg>