<svg xmlns="http://www.w3.org/2000/svg" viewBox="0 0 64.14 58.03"><defs><style>.cls-1{fill:none;}.cls-1,.cls-2{stroke:#161616;stroke-linecap:round;stroke-linejoin:round;stroke-width:1.5px;}.cls-2{fill:#ffdb2d;}</style></defs><g id="Layer_2" data-name="Layer 2"><g id="_1170px_grid" data-name="1170px grid"><polyline class="cls-1" points="28.83 44.29 0.75 44.29 0.75 0.75 37.42 0.75 37.42 22.52 0.75 22.52"/><line class="cls-1" x1="3.81" y1="18.32" x2="34.36" y2="18.32"/><line class="cls-1" x1="3.81" y1="35.12" x2="14.5" y2="35.12"/><line class="cls-1" x1="3.81" y1="38.18" x2="14.5" y2="38.18"/><line class="cls-1" x1="17.56" y1="35.12" x2="24.43" y2="35.12"/><line class="cls-1" x1="17.56" y1="38.18" x2="21.37" y2="38.18"/><line class="cls-1" x1="0.75" y1="4.86" x2="37.42" y2="4.86"/><rect class="cls-2" x="4.57" y="8.39" width="29.03" height="6.87"/><rect class="cls-1" x="4.57" y="26.72" width="9.93" height="5.35"/><rect class="cls-1" x="17.56" y="26.72" width="9.93" height="5.35"/><rect class="cls-1" x="33.6" y="30.54" width="3.06" height="2.29"/><rect class="cls-1" x="41.24" y="37.42" width="3.06" height="2.29"/><rect class="cls-1" x="25.19" y="37.42" width="3.06" height="2.29"/><path class="cls-1" d="M27.49,37.42s.41-4.59,4.79-5.73"/><path class="cls-1" d="M43,37.42s-.41-4.59-4.79-5.73"/><path class="cls-1" d="M35.12,35.36s-3,5.35-4.58,6.88A4.84,4.84,0,0,1,32,45.14h3.3"/><path class="cls-1" d="M35.26,35.36s3.06,5.35,4.58,6.88a4.85,4.85,0,0,0-1.41,2.9H35.12"/><rect class="cls-1" x="34.36" y="40.71" width="1.53" height="1.53"/><rect class="cls-1" x="31.69" y="44.91" width="6.87" height="4.81"/><polyline class="cls-1" points="28.25 50.35 28.25 57.28 63.39 57.28 63.39 14.5 42.97 14.5"/><line class="cls-1" x1="42" y1="19.08" x2="63.39" y2="19.08"/><line class="cls-1" x1="46.58" y1="16.79" x2="59.94" y2="16.79"/><line class="cls-1" x1="47.35" y1="27.49" x2="45.1" y2="34.36"/><polyline class="cls-1" points="51.17 28.25 55.75 32.83 51.17 37.42"/><line class="cls-1" x1="48.91" y1="41.24" x2="54.97" y2="41.24"/><line class="cls-1" x1="47.62" y1="43.91" x2="54.97" y2="43.91"/><line class="cls-1" x1="43.53" y1="46.58" x2="54.97" y2="46.58"/></g></g></svg>