<svg xmlns="http://www.w3.org/2000/svg" viewBox="0 0 87.05 63.69"><defs><style>.cls-1{fill:none;stroke:#000;stroke-linecap:round;stroke-linejoin:round;}</style></defs><title>custom-laravel-web-app</title><g id="Layer_2" data-name="Layer 2"><g id="_1170px_grid" data-name="1170px grid"><polygon class="cls-1" points="8.05 15.95 16.42 15.02 30.37 39.66 43.39 35.02 34.09 22 40.37 20.83 44.55 26.88 17.12 33.85 8.05 15.95"/><path class="cls-1" d="M71.14,5.34V.5H.5V50.76H71.14V45.08"/><line class="cls-1" x1="18.92" y1="63.19" x2="52.71" y2="63.19"/><line class="cls-1" x1="27.3" y1="61.5" x2="27.3" y2="55"/><line class="cls-1" x1="44.33" y1="61.5" x2="44.33" y2="55"/><path class="cls-1" d="M71.64,10.91a13.38,13.38,0,0,1,2.88.31l.31,3.7a10.06,10.06,0,0,1,2.16.93l2.88-2.37a10.15,10.15,0,0,1,2.26,1.85A12.35,12.35,0,0,1,84,17.6l-2.37,2.87a18.26,18.26,0,0,1,.93,2.16l3.7.31a13.5,13.5,0,0,1,.31,2.88,12.78,12.78,0,0,1-.31,2.88l-3.7.31a9.59,9.59,0,0,1-.93,2.16L84,34.05a9.89,9.89,0,0,1-1.85,2.26,12.63,12.63,0,0,1-2.26,1.85L77,35.79a18.26,18.26,0,0,1-2.16.93l-.31,3.7a13.43,13.43,0,0,1-2.88.31,12.78,12.78,0,0,1-2.88-.31l-.31-3.7a9.59,9.59,0,0,1-2.16-.93l-2.87,2.37a9.73,9.73,0,0,1-2.27-1.85,13.08,13.08,0,0,1-1.85-2.26l2.37-2.88A20.09,20.09,0,0,1,60.74,29L57,28.7a8.21,8.21,0,0,1-.41-2.78,12.69,12.69,0,0,1,.31-2.87l3.7-.31a9.59,9.59,0,0,1,.93-2.16L59.2,17.7a9.68,9.68,0,0,1,1.85-2.26,12.63,12.63,0,0,1,2.26-1.85L66.19,16A18.17,18.17,0,0,1,68.35,15l.31-3.71a10.2,10.2,0,0,1,3-.41Z"/><path class="cls-1" d="M71.64,18.74a7.19,7.19,0,0,1,0,14.37,7.12,7.12,0,0,1-7.18-7.19,7.2,7.2,0,0,1,7.18-7.18Z"/></g></g></svg>