<svg xmlns="http://www.w3.org/2000/svg" viewBox="0 0 55.5 57.92"><defs><style>.cls-1{fill:none;}.cls-1,.cls-2{stroke:#161616;stroke-linecap:round;stroke-linejoin:round;stroke-width:1.5px;}.cls-2{fill:#ffdb2d;}</style></defs><g id="Layer_2" data-name="Layer 2"><g id="_1170px_grid" data-name="1170px grid"><line class="cls-1" x1="0.75" y1="42.75" x2="54.75" y2="42.75"/><line class="cls-1" x1="31.75" y1="48.75" x2="33.75" y2="56.75"/><line class="cls-1" x1="23.75" y1="48.75" x2="21.75" y2="56.75"/><line class="cls-1" x1="17.62" y1="57.17" x2="38.01" y2="57.17"/><rect class="cls-2" x="8.75" y="0.75" width="39" height="32" rx="1.77"/><line class="cls-1" x1="35.75" y1="4.75" x2="38.75" y2="4.75"/><line class="cls-1" x1="41.75" y1="4.75" x2="44.75" y2="4.75"/><rect class="cls-1" x="0.75" y="7.75" width="54" height="41" rx="3.15"/><polyline class="cls-1" points="18.75 18.75 23.75 16.75 26.58 18.75 30.75 14.75 34.75 15.75 37.75 11.75"/><line class="cls-1" x1="37.75" y1="16.75" x2="37.75" y2="28.43"/><line class="cls-1" x1="34.41" y1="28.43" x2="34.41" y2="21.03"/><line class="cls-1" x1="30.78" y1="28.43" x2="30.75" y2="19.75"/><line class="cls-1" x1="27.26" y1="28.43" x2="27.26" y2="21.62"/><line class="cls-1" x1="23.26" y1="28.43" x2="23.26" y2="21.03"/></g></g></svg>