<?xml version="1.0" encoding="utf-8"?>
<!-- Generator: Adobe Illustrator 25.2.0, SVG Export Plug-In . SVG Version: 6.00 Build 0)  -->
<svg version="1.1" id="Layer_1" xmlns="http://www.w3.org/2000/svg" xmlns:xlink="http://www.w3.org/1999/xlink" x="0px" y="0px"
	 viewBox="0 0 71.64 74.25" style="enable-background:new 0 0 71.64 74.25;" xml:space="preserve">
<style type="text/css">
	.st0{fill:none;stroke:#010101;stroke-linecap:round;stroke-linejoin:round;stroke-miterlimit:22.9256;}
	.st1{fill:#161717;}
</style>
<g>
	<g>
		<g>
			<path class="st0" d="M12.35,11.06H0.5v50.26c39.6,0,50.39,0,70.64,0V39.75"/>
			<polyline class="st0" points="71.14,39.5 71.14,11.06 71.14,11.06 61.65,11.06 			"/>
			<line class="st0" x1="18.92" y1="73.75" x2="52.71" y2="73.75"/>
			<line class="st0" x1="27.3" y1="72.06" x2="27.3" y2="65.57"/>
			<line class="st0" x1="44.33" y1="72.06" x2="44.33" y2="65.57"/>
		</g>
	</g>
	<path class="st1" d="M40.99,41.85v-3.46c0-1.63-0.92-3.04-2.26-3.76c0.41-0.34,0.69-0.85,0.69-1.43c0-0.94-0.69-1.72-1.58-1.84
		c1.72-2.65,2.59-6.09,2.59-10.26c0-10.81-7.7-19.68-18.3-21.09c-0.17-0.02-0.32,0.04-0.43,0.17c-0.1,0.13-0.14,0.3-0.08,0.45
		l0.9,2.69c-1.55,1.1-2.8,2.11-2.05,3.91c-1.1,1.3-2.1,2.31-3.16,3.37c-0.7,0.7-1.42,1.42-2.2,2.25c-2.63,2.78-1.99,4.16,0.09,6.65
		c0.13,0.16,0.34,0.21,0.53,0.14l4.71-1.8c1.46,0.56,2.65,0.28,3.69-0.25c-0.48,0.76-0.92,1.47-1.34,2.12
		c-3.23,5.09-4.63,7.33-3.98,11.63h-0.03c-1.02,0-1.86,0.84-1.86,1.87c0,0.58,0.27,1.09,0.69,1.43c-1.33,0.72-2.25,2.13-2.25,3.76
		v3.46c-0.99,0.02-1.79,0.84-1.79,1.85c0,1.03,0.82,1.87,1.84,1.87h25.52c1.02,0,1.86-0.84,1.86-1.87
		C42.79,42.7,41.99,41.89,40.99,41.85z M23.58,20.21c0.69-1.09,1.47-2.32,2.33-3.73c0.49-0.24,2.11-1.12,2.75-2.9
		c0.49-1.36,0.29-2.88-0.59-4.54c-0.12-0.23-0.41-0.32-0.64-0.2c-0.23,0.12-0.32,0.41-0.2,0.64c0.75,1.41,0.93,2.68,0.54,3.77
		c-0.6,1.67-2.36,2.42-2.38,2.43c-0.02,0.01-0.04,0.03-0.06,0.04c-0.01,0.01-0.02,0-0.03,0.01l-0.23,0.15
		c-1.42,0.96-2.64,1.79-4.46,1.01c-0.11-0.05-0.24-0.05-0.35-0.01l-4.56,1.75c-1.79-2.18-1.95-2.99,0.09-5.14
		c0.77-0.83,1.48-1.54,2.17-2.23c1.14-1.14,2.21-2.21,3.41-3.66c0.12-0.15,0.14-0.35,0.06-0.52c-0.67-1.31,0.06-1.89,1.91-3.2
		c0.17-0.12,0.24-0.34,0.18-0.54l-0.77-2.29c9.74,1.66,16.73,9.97,16.73,20.04c0,4.25-0.93,7.69-2.76,10.24H19.75
		C19.1,27.28,20.37,25.28,23.58,20.21z M18.78,34.1c-0.5,0-0.91-0.41-0.91-0.91c0-0.51,0.41-0.93,0.91-0.93h0.58h17.61h0.62
		c0.49,0,0.89,0.42,0.89,0.93c0,0.49-0.41,0.91-0.89,0.91h-0.84H19.6H18.78z M16.31,38.39c0-1.84,1.47-3.34,3.29-3.34h17.14
		c1.82,0,3.3,1.5,3.3,3.34v3.46H16.31V38.39z M40.93,44.62H15.41c-0.49,0-0.89-0.42-0.89-0.93c0-0.49,0.41-0.91,0.89-0.91h0.43
		h24.68h0.41c0.5,0,0.91,0.41,0.91,0.91C41.84,44.21,41.44,44.62,40.93,44.62z"/>
	<path class="st1" d="M59.44,20.04h-2.06c-0.24-0.77-0.54-1.5-0.89-2.2l1.46-1.48c0.86-0.89,0.86-2.28-0.01-3.17L54.47,9.7
		c-0.42-0.43-0.98-0.66-1.58-0.66c-0.01,0-0.01,0-0.02,0c-0.59,0-1.14,0.24-1.55,0.66l-1.46,1.47c-0.73-0.38-1.47-0.68-2.19-0.92
		V8.16c0-1.23-0.99-2.23-2.21-2.23h-4.92c-1.22,0-2.21,1-2.21,2.23v2.44c0,0.26,0.21,0.47,0.47,0.47c0.26,0,0.47-0.21,0.47-0.47
		V8.16c0-0.71,0.57-1.28,1.27-1.28h4.92c0.7,0,1.27,0.58,1.27,1.28v2.44c0,0.21,0.14,0.39,0.34,0.45c0.87,0.26,1.76,0.63,2.66,1.12
		c0.18,0.1,0.41,0.07,0.56-0.08l1.71-1.72c0.23-0.24,0.55-0.38,0.88-0.38c0.36,0.02,0.67,0.13,0.92,0.39l3.47,3.49
		c0.49,0.51,0.49,1.34,0,1.85l-1.7,1.72c-0.15,0.15-0.18,0.37-0.08,0.56c0.45,0.83,0.81,1.72,1.08,2.67
		c0.06,0.2,0.24,0.34,0.45,0.34h2.41c0.7,0,1.27,0.58,1.27,1.28v4.97c0,0.72-0.57,1.3-1.27,1.3h-2.41c-0.21,0-0.39,0.14-0.45,0.34
		c-0.27,0.94-0.64,1.84-1.08,2.67c-0.1,0.18-0.07,0.41,0.08,0.56l1.7,1.72c0.49,0.5,0.49,1.33,0,1.83l-3.47,3.51
		c-0.5,0.5-1.31,0.5-1.8,0l-1.7-1.72c-0.15-0.15-0.38-0.18-0.56-0.08c-0.83,0.45-1.7,0.81-2.67,1.12c-0.2,0.06-0.33,0.24-0.33,0.45
		v2.42c0,0.72-0.57,1.3-1.27,1.3h-1.51c-0.26,0-0.47,0.21-0.47,0.47c0,0.26,0.21,0.47,0.47,0.47h1.51c1.22,0,2.21-1.01,2.21-2.25
		v-2.07c0.77-0.26,1.49-0.56,2.19-0.91l1.46,1.47c0.85,0.86,2.26,0.86,3.14,0l3.48-3.51c0.86-0.87,0.86-2.29,0-3.16l-1.46-1.47
		c0.35-0.69,0.65-1.43,0.89-2.2h2.06c1.22,0,2.21-1.01,2.21-2.25v-4.97C61.65,21.04,60.66,20.04,59.44,20.04z"/>
	<path class="st1" d="M51.61,24.76c0-4.79-3.86-8.69-8.61-8.69c-0.57,0-1.1,0.05-1.59,0.14c-0.26,0.05-0.42,0.3-0.37,0.55
		c0.05,0.26,0.29,0.42,0.55,0.37c0.42-0.08,0.89-0.12,1.41-0.12c4.22,0,7.66,3.47,7.66,7.74c0,4.27-3.44,7.74-7.66,7.74
		c-0.74,0-1.49-0.11-2.16-0.32c-0.25-0.08-0.51,0.06-0.59,0.31c-0.08,0.25,0.06,0.51,0.31,0.59c0.77,0.24,1.59,0.36,2.44,0.36
		C47.75,33.44,51.61,29.55,51.61,24.76z"/>
	<line class="st0" x1="31.15" y1="52.5" x2="56.28" y2="52.5"/>
</g>
</svg>
