<svg id="Layer_1" data-name="Layer 1" xmlns="http://www.w3.org/2000/svg" width="56.82" height="57.5" viewBox="0 0 56.82 57.5"><defs><style>.cls-1{fill:none;}.cls-1,.cls-2{stroke:#161616;stroke-linecap:round;stroke-linejoin:round;stroke-width:1.5px;}.cls-2{fill:#ffdb2d;}</style></defs><rect class="cls-1" x="0.75" y="0.75" width="46" height="56" rx="2.66"/><line class="cls-1" x1="1.75" y1="6.75" x2="46.2" y2="6.75"/><path class="cls-2" d="M38.75,20.81V49.56a1.19,1.19,0,0,1-1.19,1.19H9.94a1.19,1.19,0,0,1-1.19-1.19V11.94a1.19,1.19,0,0,1,1.19-1.19H29.31Z"/><polyline class="cls-1" points="28.75 10.75 28.75 21.42 38.75 21.42"/><line class="cls-1" x1="12.43" y1="16.93" x2="24.85" y2="16.93"/><line class="cls-1" x1="12.43" y1="22.93" x2="24.85" y2="22.93"/><line class="cls-1" x1="12.43" y1="28.93" x2="29.75" y2="28.93"/><line class="cls-1" x1="12.43" y1="34.93" x2="23.75" y2="34.93"/><line class="cls-1" x1="12.43" y1="40.93" x2="19.75" y2="40.93"/><line class="cls-1" x1="12.43" y1="46.93" x2="17.75" y2="46.93"/><path class="cls-1" d="M23.75,40.93l27.7-27.4a2.72,2.72,0,0,1,3.7-.11h0a2.71,2.71,0,0,1,.13,4L28.21,44.44l-6.73,2.32Z"/><line class="cls-1" x1="25.75" y1="38.75" x2="29.75" y2="42.75"/><line class="cls-1" x1="49.78" y1="15.18" x2="53.25" y2="18.6"/></svg>