<?xml version="1.0" encoding="utf-8"?>
<!-- Generator: Adobe Illustrator 25.2.0, SVG Export Plug-In . SVG Version: 6.00 Build 0)  -->
<svg version="1.1" id="Layer_1" xmlns="http://www.w3.org/2000/svg" xmlns:xlink="http://www.w3.org/1999/xlink" x="0px" y="0px"
	 viewBox="0 0 71.64 63.69" style="enable-background:new 0 0 71.64 63.69;" xml:space="preserve">
<style type="text/css">
	.st0{fill:none;stroke:#010101;stroke-linecap:round;stroke-linejoin:round;stroke-miterlimit:22.9256;}
</style>
<g>
	<g>
		<path class="st0" d="M71.14,28.94V0.5l0,0H0.5v50.26c39.6,0,50.39,0,70.64,0V29.18"/>
		<line class="st0" x1="18.92" y1="63.19" x2="52.71" y2="63.19"/>
		<line class="st0" x1="27.3" y1="61.5" x2="27.3" y2="55"/>
		<line class="st0" x1="44.33" y1="61.5" x2="44.33" y2="55"/>
	</g>
	<g>
		<polyline class="st0" points="37.79,50.31 37.79,17.38 51.54,17.38 51.54,50.31 		"/>
		<g>
			<line class="st0" x1="51.54" y1="25.42" x2="46.01" y2="25.42"/>
			<line class="st0" x1="51.54" y1="35.06" x2="46.01" y2="35.06"/>
			<line class="st0" x1="51.54" y1="44.7" x2="46.01" y2="44.7"/>
		</g>
	</g>
	<g>
		<polyline class="st0" points="17.2,50.04 17.27,25.87 22.36,30.09 		"/>
		<polyline class="st0" points="27.34,50.66 27.46,36.05 27.46,27.05 27.45,25.87 22.36,16.38 17.27,25.87 22.36,30.09 		"/>
		<polyline class="st0" points="17.26,25.87 22.36,30.09 27.45,25.87 		"/>
		<line class="st0" x1="22.32" y1="50.49" x2="22.36" y2="29.84"/>
	</g>
</g>
</svg>
