<svg xmlns="http://www.w3.org/2000/svg" viewBox="0 0 62.84 62.84"><defs><style>.cls-1{fill:none;stroke:#000;stroke-linecap:round;stroke-linejoin:round;}</style></defs><g id="Layer_2" data-name="Layer 2"><g id="_1170px_grid" data-name="1170px grid"><path class="cls-1" d="M50.38,18.17H47a1.21,1.21,0,0,0-1.21,1.21V31.51A1.21,1.21,0,0,0,47,32.72h3.39a6,6,0,0,0,5.95-5.94V24.11a5.81,5.81,0,0,0-5.95-5.94M53.9,26.9a3.53,3.53,0,0,1-3.52,3.52H48.2V20.71h2.18a3.53,3.53,0,0,1,3.52,3.52Z"/><path class="cls-1" d="M38.38,19a1.2,1.2,0,0,0-1.21-.85A1.47,1.47,0,0,0,36,19l-2.78,8.73h0L32,31.26a1.27,1.27,0,1,0,2.43.73l.85-2.67h4L40.08,32a1.3,1.3,0,0,0,1.21.85.44.44,0,0,0,.36-.12,1.46,1.46,0,0,0,.85-1.58Zm-2.3,7.76,1.09-3.4,1.09,3.4Z"/><path class="cls-1" d="M41.73,41.69V59.15a3.19,3.19,0,0,1-3.19,3.19H3.69A3.19,3.19,0,0,1,.5,59.15V3.69A3.19,3.19,0,0,1,3.69.5H38.54a3.19,3.19,0,0,1,3.19,3.19v6.37"/><path class="cls-1" d="M36.88,41.69V52.63a2.44,2.44,0,0,1-2.44,2.44H7.79a2.44,2.44,0,0,1-2.44-2.44V10.21A2.43,2.43,0,0,1,7.79,7.78H34.44a2.43,2.43,0,0,1,2.44,2.43"/><path class="cls-1" d="M32,39.3H59.71a2.63,2.63,0,0,0,2.63-2.63V15.26a2.63,2.63,0,0,0-2.63-2.63H28.6A2.64,2.64,0,0,0,26,15.26V42.84Z"/><circle class="cls-1" cx="21.11" cy="58.7" r="1.21"/><circle class="cls-1" cx="15.05" cy="49" r="1.21"/><circle class="cls-1" cx="21.11" cy="49" r="1.21"/><circle class="cls-1" cx="27.18" cy="49" r="1.21"/></g></g></svg>