<?xml version="1.0" encoding="utf-8"?>
<!-- Generator: Adobe Illustrator 25.2.0, SVG Export Plug-In . SVG Version: 6.00 Build 0)  -->
<svg version="1.1" id="Layer_1" xmlns="http://www.w3.org/2000/svg" xmlns:xlink="http://www.w3.org/1999/xlink" x="0px" y="0px"
	 viewBox="0 0 71.83 71.58" style="enable-background:new 0 0 71.83 71.58;" xml:space="preserve">
<style type="text/css">
	.st0{fill:none;stroke:#010101;stroke-linecap:round;stroke-linejoin:round;stroke-miterlimit:22.9256;}
	.st1{fill:#F3F3F3;stroke:#010101;stroke-linecap:round;stroke-linejoin:round;stroke-miterlimit:22.9256;}
</style>
<g>
	<g>
		<path class="st0" d="M71.33,28.98V8.22l0,0H0.5v50.4c39.71,0,50.53,0,70.83,0V36.71"/>
		<line class="st0" x1="18.97" y1="71.08" x2="52.86" y2="71.08"/>
		<line class="st0" x1="27.38" y1="69.39" x2="27.38" y2="62.88"/>
		<line class="st0" x1="44.45" y1="69.39" x2="44.45" y2="62.88"/>
	</g>
</g>
<g>
	<path class="st1" d="M55,7.62c0-0.1-0.03-0.2-0.07-0.29c-0.01-0.03-0.02-0.06-0.04-0.08c-0.05-0.1-0.12-0.2-0.22-0.28l-7.5-6.25
		c-0.08-0.06-0.16-0.11-0.25-0.15c-0.03-0.01-0.05-0.01-0.08-0.02c-0.07-0.02-0.14-0.03-0.21-0.04c-0.02,0-0.03-0.01-0.05-0.01
		h-27.8c-0.5,0-0.91,0.41-0.91,0.91v44.38c0,1.58,1.28,2.86,2.86,2.86h31.41c1.58,0,2.86-1.28,2.86-2.86V7.66
		C55.01,7.65,55,7.64,55,7.62z"/>
	<rect x="23.1" y="8.15" class="st0" width="8" height="8"/>
	<line class="st0" x1="36.44" y1="10.58" x2="49.49" y2="10.58"/>
	<line class="st0" x1="36.44" y1="13.58" x2="49.49" y2="13.58"/>
	<rect x="23.1" y="21.15" class="st0" width="8" height="8"/>
	<line class="st0" x1="36.44" y1="23.58" x2="49.49" y2="23.58"/>
	<line class="st0" x1="36.44" y1="26.58" x2="49.49" y2="26.58"/>
	<rect x="23.1" y="34.15" class="st0" width="8" height="8"/>
	<line class="st0" x1="36.44" y1="36.58" x2="49.49" y2="36.58"/>
	<line class="st0" x1="36.44" y1="39.58" x2="49.49" y2="39.58"/>
</g>
</svg>
