<?xml version="1.0" encoding="utf-8"?>
<!-- Generator: Adobe Illustrator 25.2.0, SVG Export Plug-In . SVG Version: 6.00 Build 0)  -->
<svg version="1.1" id="Layer_1" xmlns="http://www.w3.org/2000/svg" xmlns:xlink="http://www.w3.org/1999/xlink" x="0px" y="0px"
	 viewBox="0 0 71.64 60.84" style="enable-background:new 0 0 71.64 60.84;" xml:space="preserve">
<style type="text/css">
	.st0{fill:none;stroke:#010101;stroke-linecap:round;stroke-linejoin:round;stroke-miterlimit:22.9256;}
</style>
<g>
	<g>
		<path class="st0" d="M27.3,3.65H0.5v44.26c39.6,0,50.39,0,70.64,0V32.34"/>
		<polyline class="st0" points="71.14,32.09 71.14,3.65 71.14,3.65 66.02,3.65 		"/>
		<line class="st0" x1="18.92" y1="60.34" x2="52.71" y2="60.34"/>
		<line class="st0" x1="27.3" y1="58.65" x2="27.3" y2="52.16"/>
		<line class="st0" x1="44.33" y1="58.65" x2="44.33" y2="52.16"/>
	</g>
</g>
<path class="st0" d="M49.71,12.51c-0.29-0.01-0.52-0.25-0.52-0.54v-1.08c1.5-0.53,2.56-2.02,2.43-3.73
	c-0.13-1.8-1.59-3.25-3.39-3.38c-2.14-0.15-3.92,1.54-3.92,3.65c0,1.59,1.02,2.95,2.44,3.45v1.08c0,0.29-0.23,0.53-0.52,0.54
	c-1.1,0.03-3.57,0.51-3.94,4.14c-0.05,0.51,0.35,0.96,0.86,0.96h9.64c0.51,0,0.91-0.45,0.86-0.96
	C53.28,13.02,50.8,12.54,49.71,12.51z"/>
<path class="st0" d="M25.71,27.51c-0.29-0.01-0.52-0.25-0.52-0.54v-1.08c1.5-0.53,2.56-2.02,2.43-3.73
	c-0.13-1.8-1.59-3.25-3.39-3.38c-2.14-0.15-3.92,1.54-3.92,3.65c0,1.59,1.02,2.95,2.44,3.45l0,1.08c0,0.29-0.23,0.53-0.52,0.54
	c-1.1,0.03-3.57,0.51-3.94,4.14c-0.05,0.51,0.35,0.96,0.86,0.96h9.64c0.51,0,0.91-0.45,0.86-0.96
	C29.28,28.02,26.8,27.54,25.71,27.51z"/>
<path class="st0" d="M30.84,15.8V9.9l-6.75,5.88h-7.6c-3.19,0-5.77,2.58-5.77,5.77v10.09c0,3.19,2.58,5.77,5.77,5.77h15.83
	c3.19,0,5.77-2.58,5.77-5.77V21.55c0-1.67-0.71-3.17-1.84-4.23"/>
<path class="st0" d="M41.54,22.11v5.9l6.75-5.88h7.6c3.19,0,5.77-2.58,5.77-5.77V6.27c0-3.19-2.58-5.77-5.77-5.77H40.05
	c-3.19,0-5.77,2.58-5.77,5.77v10.09c0,1.67,0.71,3.17,1.84,4.23"/>
<circle class="st0" cx="12.08" cy="9.07" r="1.18"/>
<g>
	<circle class="st0" cx="54.3" cy="36.07" r="1.18"/>
	<circle class="st0" cx="59.48" cy="36.07" r="1.18"/>
</g>
</svg>
