<svg xmlns="http://www.w3.org/2000/svg" viewBox="0 0 53.07 57.18"><defs><style>.cls-1,.cls-2{fill:none;}.cls-1,.cls-2,.cls-3{stroke:#161616;stroke-linecap:round;stroke-linejoin:round;}.cls-1,.cls-3{stroke-width:1.5px;}.cls-2{stroke-width:0.9px;}.cls-3{fill:#ffdb2d;}</style></defs><g id="Layer_2" data-name="Layer 2"><g id="_1170px_grid" data-name="1170px grid"><path class="cls-1" d="M33.07,46.19H52.32v-45"/><path class="cls-1" d="M52.05.75H.75V46.19H20.16"/><line class="cls-1" x1="52.05" y1="9.67" x2="0.75" y2="9.67"/><line class="cls-1" x1="20.4" y1="5.46" x2="47.7" y2="5.46"/><circle class="cls-2" cx="5.29" cy="5.46" r="0.94"/><circle class="cls-2" cx="9.13" cy="5.46" r="0.94"/><circle class="cls-2" cx="12.96" cy="5.46" r="0.94"/><circle class="cls-1" cx="26.53" cy="26.8" r="14.13"/><path class="cls-1" d="M26.53,15.41A11.41,11.41,0,0,1,37.29,23"/><path class="cls-3" d="M16.08,27.26s9.74-11.85,20.91,0C37,27.26,27.64,39.11,16.08,27.26Z"/><circle class="cls-1" cx="26.53" cy="27.26" r="3.22"/><rect class="cls-1" x="24" y="40.93" width="5.47" height="5.47"/><rect class="cls-1" x="22.63" y="46.4" width="8.2" height="10.03"/></g></g></svg>