<svg xmlns="http://www.w3.org/2000/svg" viewBox="0 0 68.06 46.08"><defs><style>.cls-1{fill:#ffdb2d;}.cls-1,.cls-2,.cls-3{stroke:#161616;stroke-linecap:round;stroke-linejoin:round;}.cls-1,.cls-2{stroke-width:1.5px;}.cls-2{fill:#fff;}.cls-3{fill:none;stroke-width:1.48px;}</style></defs><g id="Layer_2" data-name="Layer 2"><g id="_1170px_grid" data-name="1170px grid"><path class="cls-1" d="M53.74,18.2a12.23,12.23,0,0,1,2.62.28l.28,3.37a9.26,9.26,0,0,1,2,.84l2.62-2.15a9.12,9.12,0,0,1,2.06,1.68A12,12,0,0,1,65,24.28L62.82,26.9a18.48,18.48,0,0,1,.84,2l3.37.28a12.28,12.28,0,0,1,.28,2.62A11.76,11.76,0,0,1,67,34.39l-3.37.28a9.19,9.19,0,0,1-.84,2L65,39.25a9.12,9.12,0,0,1-1.68,2.06A11.57,11.57,0,0,1,61.23,43l-2.62-2.15a16.63,16.63,0,0,1-2,.84l-.28,3.37a12.22,12.22,0,0,1-2.62.28,11.6,11.6,0,0,1-2.61-.28l-.29-3.37a8.45,8.45,0,0,1-2-.84L46.26,43a8.86,8.86,0,0,1-2.06-1.68,12,12,0,0,1-1.68-2.06l2.15-2.62a18.34,18.34,0,0,1-.84-2l-3.37-.28a7.57,7.57,0,0,1-.37-2.53,11.69,11.69,0,0,1,.28-2.62L43.73,29a8.75,8.75,0,0,1,.85-2l-2.15-2.62a8.61,8.61,0,0,1,1.68-2.06,11.29,11.29,0,0,1,2.06-1.69l2.62,2.16a16.6,16.6,0,0,1,2-.85L51,18.58a9.1,9.1,0,0,1,2.71-.38Z"/><path class="cls-2" d="M53.74,26.34a5.52,5.52,0,0,1,0,11,5.47,5.47,0,0,1-5.51-5.52,5.52,5.52,0,0,1,5.51-5.52Z"/><path class="cls-3" d="M58.24,11.91V3.78a3,3,0,0,0-3-3H3.78a3,3,0,0,0-3,3V34.71a3,3,0,0,0,3,3H35.6"/><path class="cls-3" d="M5.67,1.24l22,20.23a4.24,4.24,0,0,0,5.89-.15L53.31,1.24"/><line class="cls-3" x1="19.24" y1="22.24" x2="8.24" y2="33.24"/></g></g></svg>