<svg xmlns="http://www.w3.org/2000/svg" viewBox="0 0 62.31 55.1"><defs><style>.cls-1{fill:none;}.cls-1,.cls-2,.cls-3{stroke:#161616;stroke-linecap:round;stroke-linejoin:round;stroke-width:1.5px;}.cls-2{fill:#ffdb2d;}.cls-3{fill:#fff;}</style></defs><g id="Layer_2" data-name="Layer 2"><g id="_1170px_grid" data-name="1170px grid"><path class="cls-1" d="M8,22.83A22,22,0,0,1,29.94.75h0a22.08,22.08,0,1,1,0,44.16M29.75,7a15.89,15.89,0,0,1,15.9,15.9"/><path class="cls-2" d="M14.41,24a12.3,12.3,0,0,1,2.62.28l.28,3.37a9.19,9.19,0,0,1,2,.84l2.62-2.15A8.9,8.9,0,0,1,24,28.07a11.1,11.1,0,0,1,1.68,2.05l-2.15,2.62a16.63,16.63,0,0,1,.84,2l3.37.28A12.28,12.28,0,0,1,28,37.61a11.69,11.69,0,0,1-.28,2.62l-3.37.28a8.27,8.27,0,0,1-.84,2l2.15,2.62A8.61,8.61,0,0,1,24,47.15a10.83,10.83,0,0,1-2.06,1.68l-2.62-2.15a18.44,18.44,0,0,1-2,.85L17,50.89a12.28,12.28,0,0,1-2.62.28,11.63,11.63,0,0,1-2.62-.28l-.28-3.36a8.82,8.82,0,0,1-2-.85L6.92,48.83a8.76,8.76,0,0,1-2-1.68,11.29,11.29,0,0,1-1.69-2.06l2.15-2.62a18.34,18.34,0,0,1-.84-2l-3.37-.28A7.57,7.57,0,0,1,.75,37.7,11.76,11.76,0,0,1,1,35.08L4.4,34.8a9.19,9.19,0,0,1,.84-2L3.09,30.22a9.12,9.12,0,0,1,1.68-2.06,11.57,11.57,0,0,1,2.06-1.68l2.62,2.15a17.24,17.24,0,0,1,2-.84l.29-3.37A9,9,0,0,1,14.41,24Z"/><path class="cls-3" d="M14.41,32.18a5.52,5.52,0,0,1,0,11A5.47,5.47,0,0,1,8.89,37.7a5.53,5.53,0,0,1,5.52-5.52Z"/><polygon class="cls-1" points="61.56 49.21 56.41 54.35 43.03 41.07 48.37 35.92 61.56 49.21"/></g></g></svg>