<svg xmlns="http://www.w3.org/2000/svg" xmlns:xlink="http://www.w3.org/1999/xlink" viewBox="0 0 90.14 90.14"><defs><style>.cls-1{stroke:#fff;stroke-miterlimit:10;stroke-width:2.82px;fill:url(#linear-gradient);}.cls-2{fill:#fff;}</style><linearGradient id="linear-gradient" x1="14.67" y1="19.26" x2="81.24" y2="75.78" gradientUnits="userSpaceOnUse"><stop offset="0" stop-color="#f7921e"/><stop offset="0.27" stop-color="#f57920"/><stop offset="0.75" stop-color="#f15123"/><stop offset="1" stop-color="#ef4124"/></linearGradient></defs><g id="Layer_2" data-name="Layer 2"><g id="_1170px_grid" data-name="1170px grid"><circle class="cls-1" cx="45.07" cy="45.07" r="43.66"/><path class="cls-2" d="M45.05,28.6q10.28,0,20.56,0c1.74,0,1.77,0,1.76,1.8q0,14.74,0,29.49c0,1.69,0,1.71-1.72,1.71l-41,0c-1.76,0-1.81-.05-1.81-1.77q0-14.74-.08-29.49c0-1.83,0-1.86,1.87-1.86Zm19.42,5.1c-.58.52-.9.78-1.19,1.06L47.05,50.84c-1.61,1.58-2.23,1.6-3.82,0L27.28,35.24c-.33-.33-.73-.6-1.29-1.05,0,.74-.07,1.15-.07,1.57,0,7.11,0,14.22-.1,21.32,0,1.33.41,1.65,1.67,1.65q17.7,0,35.38,0c1.3,0,1.66-.38,1.65-1.66-.06-7.24,0-14.48,0-21.71Zm-2.38-1.62-.27-.33H28.55a7.74,7.74,0,0,0,.6.74c5.05,5.06,10.11,10.1,15.13,15.18.68.68,1.07.66,1.74,0q7.23-7.2,14.53-14.34A18.55,18.55,0,0,1,62.09,32.08Z"/></g></g></svg>