<svg xmlns="http://www.w3.org/2000/svg" viewBox="0 0 55 66.3"><defs><style>.cls-1{fill:none;stroke:#000;stroke-linecap:round;stroke-linejoin:round;}</style></defs><title>enterprise-reactjs-web-apps</title><g id="Layer_2" data-name="Layer 2"><g id="_1170px_grid" data-name="1170px grid"><path class="cls-1" d="M41.32,55.3v6.45a4.11,4.11,0,0,1-4.18,4H4.68a4.11,4.11,0,0,1-4.18-4V4.55A4.11,4.11,0,0,1,4.68.5H37.14a4.11,4.11,0,0,1,4.18,4.05V15.72"/><line class="cls-1" x1="0.5" y1="9.72" x2="41.32" y2="9.72"/><line class="cls-1" x1="0.5" y1="55.18" x2="41.32" y2="55.18"/><line class="cls-1" x1="17.69" y1="4.95" x2="24.13" y2="4.95"/><path class="cls-1" d="M23.42,60.37a2.51,2.51,0,1,1-2.51-2.43A2.47,2.47,0,0,1,23.42,60.37Z"/><polyline class="cls-1" points="35.16 45.91 11.78 45.91 11.78 18.66 26.14 18.66 31.92 21.63 47.24 21.63 47.24 31.44"/><line class="cls-1" x1="11.77" y1="25.4" x2="46.73" y2="25.4"/><circle cx="14.14" cy="21.03" r="0.59"/><circle cx="17.51" cy="21.03" r="0.59"/><circle cx="20.88" cy="21.03" r="0.59"/><rect class="cls-1" x="14.74" y="28.73" width="8.89" height="7.7"/><line class="cls-1" x1="27.73" y1="28.73" x2="44.36" y2="28.73"/><path class="cls-1" d="M45.4,32.75a7.66,7.66,0,0,1,1.76.19l.19,2.26a5.75,5.75,0,0,1,1.32.56l1.75-1.44a5.64,5.64,0,0,1,1.38,1.13,7.68,7.68,0,0,1,1.13,1.38l-1.44,1.76a11.54,11.54,0,0,1,.57,1.31l2.26.19a8.76,8.76,0,0,1,.18,1.76,8.33,8.33,0,0,1-.18,1.76l-2.26.18a6.27,6.27,0,0,1-.57,1.32l1.44,1.76a6,6,0,0,1-1.13,1.38,7,7,0,0,1-1.38,1.13l-1.75-1.44a12.42,12.42,0,0,1-1.32.56l-.19,2.26A8,8,0,0,1,45.4,51a7.63,7.63,0,0,1-1.75-.19l-.19-2.26a5.75,5.75,0,0,1-1.32-.56l-1.76,1.44A6,6,0,0,1,39,48.25a8.13,8.13,0,0,1-1.13-1.38l1.45-1.76a10.73,10.73,0,0,1-.57-1.32l-2.26-.18a5,5,0,0,1-.25-1.7,7.72,7.72,0,0,1,.19-1.76L38.69,40a5.75,5.75,0,0,1,.56-1.32l-1.44-1.76a6,6,0,0,1,1.13-1.38,7.68,7.68,0,0,1,1.38-1.13l1.76,1.44a13.21,13.21,0,0,1,1.31-.56L43.58,33a6.05,6.05,0,0,1,1.82-.25Z"/><path class="cls-1" d="M45.4,37.53a4.39,4.39,0,1,1,0,8.77,4.39,4.39,0,0,1,0-8.77Z"/><line class="cls-1" x1="27.73" y1="32.58" x2="39.62" y2="32.58"/><line class="cls-1" x1="27.73" y1="36.44" x2="36.04" y2="36.44"/><line class="cls-1" x1="14.74" y1="40.58" x2="33.81" y2="40.58"/></g></g></svg>