<?xml version="1.0" encoding="utf-8"?>
<!-- Generator: Adobe Illustrator 25.0.1, SVG Export Plug-In . SVG Version: 6.00 Build 0)  -->
<svg version="1.1" id="Layer_1" xmlns="http://www.w3.org/2000/svg" xmlns:xlink="http://www.w3.org/1999/xlink" x="0px" y="0px"
	 width="36.2px" height="30.9px" viewBox="0 0 36.2 30.9" style="enable-background:new 0 0 36.2 30.9;" xml:space="preserve">
<style type="text/css">
	.st0{fill:#FFDA30;}
	.st1{fill:none;stroke:#000000;stroke-miterlimit:10;}
</style>
<g>
	<path class="st0" d="M18.8,5.3h11.8l-2.7-3.6c-0.6-0.8-1.5-1.2-2.4-1.2H12.2"/>
	<path class="st1" d="M3.5,0.5h8.7c0.9,0,1.8,0.4,2.4,1.2l1.8,2.4c0.6,0.8,1.5,1.2,2.4,1.2h13.9c1.7,0,3,1.3,3,3v19c0,1.7-1.3,3-3,3
		H3.5c-1.7,0-3-1.3-3-3V3.5C0.5,1.8,1.8,0.5,3.5,0.5z"/>
</g>
</svg>
