<?xml version="1.0" encoding="utf-8"?>
<!-- Generator: Adobe Illustrator 25.2.0, SVG Export Plug-In . SVG Version: 6.00 Build 0)  -->
<svg version="1.1" id="Layer_1" xmlns="http://www.w3.org/2000/svg" xmlns:xlink="http://www.w3.org/1999/xlink" x="0px" y="0px"
	 width="75.61px" height="76.63px" viewBox="0 0 75.61 76.63" style="enable-background:new 0 0 75.61 76.63;" xml:space="preserve"
	>
<style type="text/css">
	.st0{fill:none;stroke:#010101;stroke-linecap:round;stroke-linejoin:round;stroke-miterlimit:10;}
	.st1{fill:#FDD931;stroke:#010101;stroke-linecap:round;stroke-linejoin:round;stroke-miterlimit:10;}
</style>
<g>
	<g>
		<path class="st0" d="M13.35,76.13l10.06-6.71L10.56,49.87L0.5,56.57C0.79,56.78,13.35,76.13,13.35,76.13z"/>
		<path class="st0" d="M12.4,52.67l11.01-7.56c0,0,2.24-1.96,7.82,0c5.59,1.96,19.92,6.4,19.92,6.4s4.1,1.15,2.99,5.62
			s-6.15,2.79-6.15,2.79l-9.5-2.79"/>
		<path class="st0" d="M60.85,53.22l7.82-5.03c0,0,3.27-1.51,5.55,1.2c2.28,2.71-0.52,6.06-0.52,6.06L52.24,69.84
			c0,0-3.12,1.53-7.59,0c-4.47-1.53-16.77-4.88-16.77-4.88s-2.95-1.13-5.94,2.23"/>
	</g>
	<g>
		<path class="st1" d="M67.56,39.62v-4.19c0-6.92-10.94-10.48-16.77-10.48s-16.77,3.56-16.77,10.48v4.19H67.56z"/>
		<path class="st0" d="M50.8,20.06c4.88,0,8.38-3.42,8.38-8.38V8.88c0-4.96-3.5-8.38-8.38-8.38s-8.38,3.42-8.38,8.38v2.79
			C42.41,16.64,45.91,20.06,50.8,20.06z"/>
	</g>
	<line class="st0" x1="3.18" y1="54.98" x2="5.58" y2="58.57"/>
</g>
</svg>
