<svg xmlns="http://www.w3.org/2000/svg" viewBox="0 0 83.05 63.86"><defs><style>.cls-1{fill:none;stroke:#000;stroke-linecap:round;stroke-linejoin:round;}</style></defs><title>full-stack-php-development</title><g id="Layer_2" data-name="Layer 2"><g id="_1170px_grid" data-name="1170px grid"><path class="cls-1" d="M71,16.71a10.12,10.12,0,0,1,2.24.24l.23,2.87a7.59,7.59,0,0,1,1.68.72l2.24-1.84a7.7,7.7,0,0,1,1.76,1.44,10.3,10.3,0,0,1,1.43,1.76l-1.83,2.23a13.39,13.39,0,0,1,.71,1.68l2.88.24a10.66,10.66,0,0,1,.24,2.24,10,10,0,0,1-.24,2.23l-2.88.24a7.11,7.11,0,0,1-.71,1.68l1.83,2.24a7.87,7.87,0,0,1-1.43,1.75,9.91,9.91,0,0,1-1.76,1.44L75.12,36a15.16,15.16,0,0,1-1.68.72l-.23,2.88a10.66,10.66,0,0,1-2.24.24,10.12,10.12,0,0,1-2.24-.24l-.24-2.88A7.53,7.53,0,0,1,66.82,36l-2.24,1.84a7.7,7.7,0,0,1-1.76-1.44,9.37,9.37,0,0,1-1.43-1.75l1.83-2.24a15.16,15.16,0,0,1-.72-1.68l-2.87-.24a6.37,6.37,0,0,1-.32-2.15,10.12,10.12,0,0,1,.24-2.24l2.87-.24a7.59,7.59,0,0,1,.72-1.68L61.31,22a7.41,7.41,0,0,1,1.43-1.76,9.91,9.91,0,0,1,1.76-1.44l2.24,1.84a15,15,0,0,1,1.67-.72L68.65,17A7.73,7.73,0,0,1,71,16.71Z"/><path class="cls-1" d="M71,22.79A5.58,5.58,0,0,1,71,34a5.53,5.53,0,0,1-5.58-5.58A5.59,5.59,0,0,1,71,22.79Z"/><path class="cls-1" d="M71.33,12.19V.5H.5V50.9H71.33V45.68"/><line class="cls-1" x1="18.97" y1="63.36" x2="52.86" y2="63.36"/><line class="cls-1" x1="27.38" y1="61.66" x2="27.38" y2="55.15"/><line class="cls-1" x1="44.45" y1="61.66" x2="44.45" y2="55.15"/><line class="cls-1" x1="49.15" y1="4.44" x2="52.45" y2="4.44"/><line class="cls-1" x1="1.15" y1="8.44" x2="71.15" y2="8.44"/><line class="cls-1" x1="56.15" y1="4.44" x2="59.45" y2="4.44"/><line class="cls-1" x1="63.15" y1="4.44" x2="66.45" y2="4.44"/><polygon class="cls-1" points="36.68 17.18 49.91 24.82 36.68 33.47 21.91 24.82 36.68 17.18"/><polyline class="cls-1" points="44.95 28.06 49.91 30.92 36.68 39.57 21.91 30.92 27.45 28.06"/><polyline class="cls-1" points="44.95 34.17 49.91 37.03 36.68 45.68 21.91 37.03 27.45 34.17"/></g></g></svg>