<svg xmlns="http://www.w3.org/2000/svg" viewBox="0 0 58.98 54.98"><defs><style>.cls-1{fill:#ffdb2d;}.cls-1,.cls-2,.cls-3{stroke:#161616;stroke-linecap:round;stroke-linejoin:round;}.cls-1,.cls-2{stroke-width:1.5px;}.cls-2,.cls-3{fill:none;}.cls-3{stroke-width:1.48px;}</style></defs><g id="Layer_2" data-name="Layer 2"><g id="_1170px_grid" data-name="1170px grid"><path class="cls-1" d="M22.41,13a4.05,4.05,0,0,1-.08-2.1A2.05,2.05,0,0,1,23.8,9.24c1.81-.42,7.34.28,9-.73a73.26,73.26,0,0,0,5.84-4.64A.78.78,0,0,1,40,4.45l.51,15.66a.79.79,0,0,1-1.26.66,32.22,32.22,0,0,0-8.13-4.59,6,6,0,0,0-2-.31c-1.71,0-5.32,0-5.79-.76A9.69,9.69,0,0,1,22.41,13Z"/><line class="cls-2" x1="29.67" y1="9.79" x2="29.94" y2="15.85"/><path class="cls-2" d="M28,15.88s.49,3.54,2.09,5.38-2.59,2.81-3.74,1.55-1.83-7.18-1.83-7.18"/><path class="cls-3" d="M10,17.24H3.78a3,3,0,0,0-3,3V51.21a3,3,0,0,0,3,3H55.21a3,3,0,0,0,3-3V20.28a3,3,0,0,0-3-3h-10v4.5"/><path class="cls-3" d="M6.24,17.74,28.23,38a4.23,4.23,0,0,0,5.88-.15L53.89,17.74"/><line class="cls-3" x1="42.24" y1="38.74" x2="53.24" y2="49.74"/><line class="cls-3" x1="19.24" y1="38.74" x2="8.24" y2="49.74"/><polyline class="cls-3" points="17.24 23.74 17.24 0.74 45.24 0.74"/><line class="cls-3" x1="45.24" y1="13.74" x2="52.24" y2="13.74"/><line class="cls-3" x1="45.24" y1="7.74" x2="52.24" y2="7.74"/><line class="cls-3" x1="45.24" y1="10.74" x2="57.24" y2="10.74"/><line class="cls-3" x1="45.24" y1="5.72" x2="45.24" y2="0.74"/></g></g></svg>