<?xml version="1.0" encoding="utf-8"?>
<!-- Generator: Adobe Illustrator 25.2.0, SVG Export Plug-In . SVG Version: 6.00 Build 0)  -->
<svg version="1.1" id="Layer_1" xmlns="http://www.w3.org/2000/svg" xmlns:xlink="http://www.w3.org/1999/xlink" x="0px" y="0px"
	 viewBox="0 0 77.6 63.86" style="enable-background:new 0 0 77.6 63.86;" xml:space="preserve">
<style type="text/css">
	.st0{fill:none;stroke:#010101;stroke-linecap:round;stroke-linejoin:round;stroke-miterlimit:22.9256;}
	.st1{fill:none;stroke:#000000;stroke-width:0.75;stroke-miterlimit:10;}
</style>
<g>
	<g>
		<g>
			<path class="st0" d="M71.33,7.54V0.5l0,0H0.5v50.4c39.71,0,50.53,0,70.83,0V28.99"/>
			<line class="st0" x1="18.97" y1="63.36" x2="52.86" y2="63.36"/>
			<line class="st0" x1="27.38" y1="61.66" x2="27.38" y2="55.15"/>
			<line class="st0" x1="44.45" y1="61.66" x2="44.45" y2="55.15"/>
		</g>
	</g>
	<rect x="10.91" y="7.15" class="st0" width="50" height="11"/>
	<line class="st0" x1="10.91" y1="26.26" x2="40.1" y2="26.26"/>
	<line class="st0" x1="10.91" y1="34.4" x2="40.1" y2="34.4"/>
	<line class="st0" x1="10.91" y1="37.4" x2="40.1" y2="37.4"/>
	<line class="st0" x1="10.91" y1="40.4" x2="40.1" y2="40.4"/>
	<line class="st0" x1="10.91" y1="43.4" x2="40.1" y2="43.4"/>
	<g>
		<path class="st1" d="M71.01,11.76c0.43,0,0.81,0.04,1.2,0.13l0.13,1.54c0.3,0.09,0.6,0.21,0.9,0.39l1.2-0.99
			c0.34,0.21,0.69,0.47,0.94,0.77c0.3,0.3,0.56,0.6,0.77,0.94l-0.99,1.2c0.17,0.3,0.26,0.6,0.39,0.9l1.54,0.13
			c0.09,0.39,0.13,0.81,0.13,1.2c0,0.43-0.04,0.81-0.13,1.2l-1.54,0.13c-0.09,0.3-0.21,0.6-0.39,0.9l0.99,1.2
			c-0.21,0.34-0.47,0.69-0.77,0.94c-0.3,0.3-0.6,0.56-0.94,0.77l-1.2-0.99c-0.3,0.17-0.6,0.26-0.9,0.39l-0.13,1.54
			c-0.39,0.09-0.81,0.13-1.2,0.13c-0.43,0-0.81-0.04-1.2-0.13l-0.13-1.54c-0.3-0.09-0.6-0.21-0.9-0.39l-1.2,0.99
			c-0.34-0.21-0.69-0.47-0.94-0.77c-0.3-0.3-0.56-0.6-0.77-0.94l0.99-1.2c-0.17-0.3-0.26-0.6-0.39-0.9l-1.54-0.13
			c-0.13-0.34-0.17-0.77-0.17-1.16c0-0.43,0.04-0.81,0.13-1.2l1.54-0.13c0.09-0.3,0.21-0.6,0.39-0.9l-0.99-1.2
			c0.21-0.34,0.47-0.69,0.77-0.94c0.3-0.3,0.6-0.56,0.94-0.77l1.2,0.99c0.3-0.17,0.6-0.26,0.9-0.39l0.13-1.54
			C70.19,11.8,70.58,11.76,71.01,11.76L71.01,11.76z"/>
		<path class="st1" d="M71.01,15.48c1.37,0,2.53,1.11,2.53,2.53c0,1.37-1.11,2.53-2.53,2.53c-1.41,0-2.53-1.11-2.53-2.53
			C68.48,16.6,69.64,15.48,71.01,15.48L71.01,15.48z"/>
	</g>
	<circle class="st0" cx="55.88" cy="36.26" r="8"/>
	<polyline class="st0" points="62.88,32.26 55.88,37.4 53.51,28.61 	"/>
</g>
</svg>
