<svg xmlns="http://www.w3.org/2000/svg" viewBox="0 0 70.26 59.72"><defs><style>.cls-1{fill:none;stroke:#000;stroke-linecap:round;stroke-linejoin:round;}</style></defs><g id="Layer_2" data-name="Layer 2"><g id="_1170px_grid" data-name="1170px grid"><polyline class="cls-1" points="62.23 18.57 62.23 0.5 0.5 0.5 0.5 51.7 29.11 51.7"/><line class="cls-1" x1="62.24" y1="12.55" x2="0.5" y2="12.55"/><line class="cls-1" x1="50.19" y1="6.52" x2="45.67" y2="6.52"/><line class="cls-1" x1="57.72" y1="6.52" x2="53.2" y2="6.52"/><line class="cls-1" x1="42.66" y1="6.52" x2="38.14" y2="6.52"/><line class="cls-1" x1="32.12" y1="6.52" x2="5.02" y2="6.52"/><path class="cls-1" d="M69.54,42.65a20.83,20.83,0,0,0,.22-3,21.14,21.14,0,0,0-.22-3H65a14.82,14.82,0,0,0-2.21-5.28L66,28.12a18.18,18.18,0,0,0-4.26-4.27l-3.23,3.24a14.9,14.9,0,0,0-5.3-2.2V20.3a19.47,19.47,0,0,0-3-.23,19.77,19.77,0,0,0-3,.23v4.59a14.8,14.8,0,0,0-5.28,2.2l-3.24-3.24a18,18,0,0,0-4.27,4.27l3.24,3.24a14.8,14.8,0,0,0-2.2,5.28H30.84a19.77,19.77,0,0,0-.23,3,19.47,19.47,0,0,0,.23,3h4.59a14.9,14.9,0,0,0,2.2,5.3l-3.24,3.23a18.18,18.18,0,0,0,4.27,4.26L41.9,52.2a14.82,14.82,0,0,0,5.28,2.21V59a21.14,21.14,0,0,0,3,.22,20.83,20.83,0,0,0,3-.22V54.41a14.91,14.91,0,0,0,5.3-2.21l3.23,3.24A18.33,18.33,0,0,0,66,51.18L62.74,48A14.91,14.91,0,0,0,65,42.65Zm-19.34,6a9,9,0,1,1,9-9A9,9,0,0,1,50.2,48.68Z"/><rect class="cls-1" x="6.52" y="18.57" width="15.06" height="15.06"/><line class="cls-1" x1="5.02" y1="39.65" x2="23.09" y2="39.65"/><line class="cls-1" x1="9.53" y1="45.67" x2="18.57" y2="45.67"/></g></g></svg>