<svg xmlns="http://www.w3.org/2000/svg" xmlns:xlink="http://www.w3.org/1999/xlink" viewBox="0 0 90.14 90.14"><defs><style>.cls-1{stroke:#fff;stroke-miterlimit:10;stroke-width:2.82px;fill:url(#linear-gradient);}.cls-2{fill:#fff;}</style><linearGradient id="linear-gradient" x1="14.67" y1="19.26" x2="81.24" y2="75.78" gradientUnits="userSpaceOnUse"><stop offset="0" stop-color="#f7921e"/><stop offset="0.27" stop-color="#f57920"/><stop offset="0.75" stop-color="#f15123"/><stop offset="1" stop-color="#ef4124"/></linearGradient></defs><g id="Layer_2" data-name="Layer 2"><g id="_1170px_grid" data-name="1170px grid"><circle class="cls-1" cx="45.07" cy="45.07" r="43.66"/><path class="cls-2" d="M53,37V31.19A4.72,4.72,0,1,0,50,31V37A12.19,12.19,0,0,0,45.5,38.4L29.38,26.28A5.15,5.15,0,1,0,24.6,29.5a5.13,5.13,0,0,0,2.92-.91L43,40.23a12.38,12.38,0,0,0,2,19.55l-3.84,6.11a3.11,3.11,0,0,0-.43,0,3.78,3.78,0,1,0,3.78,3.78,3.7,3.7,0,0,0-.78-2.28l4-6.31A12.4,12.4,0,1,0,53,37Zm-1.3,19.58a7.25,7.25,0,1,1,7.24-7.25A7.26,7.26,0,0,1,51.68,56.53Z"/></g></g></svg>