<svg xmlns="http://www.w3.org/2000/svg" viewBox="0 0 71.64 63.69"><defs><style>.cls-1{fill:none;stroke:#000;stroke-linecap:round;stroke-linejoin:round;}</style></defs><g id="Layer_2" data-name="Layer 2"><g id="_1170px_grid" data-name="1170px grid"><rect class="cls-1" x="8.72" y="5.64" width="54.28" height="6.41"/><line class="cls-1" x1="16.72" y1="19.44" x2="52.92" y2="19.59"/><line class="cls-1" x1="16.72" y1="22.07" x2="16.72" y2="19.64"/><line class="cls-1" x1="52.92" y1="22.07" x2="52.92" y2="19.59"/><line class="cls-1" x1="34.82" y1="22.07" x2="34.82" y2="20.38"/><line class="cls-1" x1="34.82" y1="14.79" x2="34.82" y2="13.05"/><line class="cls-1" x1="34.82" y1="39.47" x2="34.82" y2="34.1"/><line class="cls-1" x1="52.92" y1="39.47" x2="52.92" y2="34.1"/><rect class="cls-1" x="13.1" y="26.86" width="7.23" height="7.23"/><path class="cls-1" d="M34.82,46.7h0a3.62,3.62,0,0,1-3.62-3.62h0a3.62,3.62,0,0,1,3.62-3.61h0a3.61,3.61,0,0,1,3.61,3.61h0A3.62,3.62,0,0,1,34.82,46.7Z"/><rect class="cls-1" x="49.3" y="39.47" width="7.23" height="7.23" rx="3.62"/><rect class="cls-1" x="31.2" y="26.86" width="25.33" height="7.24"/><line class="cls-1" x1="20.5" y1="30.48" x2="26.25" y2="30.48"/><line class="cls-1" x1="56.5" y1="30.48" x2="62.25" y2="30.48"/><path class="cls-1" d="M71.14.5H.5V50.76H71.14V.5Z"/><line class="cls-1" x1="18.92" y1="63.19" x2="52.71" y2="63.19"/><line class="cls-1" x1="27.3" y1="61.5" x2="27.3" y2="55"/><line class="cls-1" x1="44.33" y1="61.5" x2="44.33" y2="55"/></g></g></svg>