<svg xmlns="http://www.w3.org/2000/svg" viewBox="0 0 82.37 59.62"><defs><style>.cls-1{fill:none;stroke:#000;stroke-linecap:round;stroke-linejoin:round;}.cls-2{fill:#efefef;}</style></defs><g id="Layer_2" data-name="Layer 2"><g id="_1170px_grid" data-name="1170px grid"><path class="cls-1" d="M52.58.5a25.63,25.63,0,0,1,5.71.65L59,8.41a22.21,22.21,0,0,1,4.21,1.74L68.79,5.5a24.66,24.66,0,0,1,4.5,3.58,25.1,25.1,0,0,1,3.58,4.5l-4.65,5.61A21.94,21.94,0,0,1,74,23.4l7.26.68a25.41,25.41,0,0,1,0,11.42L74,36.19a22.12,22.12,0,0,1-1.74,4.2L76.87,46a25.1,25.1,0,0,1-3.58,4.5,24.66,24.66,0,0,1-4.5,3.58l-5.61-4.65A22.21,22.21,0,0,1,59,51.17l-.68,7.26a25.41,25.41,0,0,1-11.42,0l-.69-7.26A22.12,22.12,0,0,1,42,49.43l-5.61,4.65A25.41,25.41,0,0,1,28.29,46l4.65-5.61a22.12,22.12,0,0,1-1.74-4.2l-7.26-.69a25.41,25.41,0,0,1,0-11.42l7.26-.68a22.21,22.21,0,0,1,1.74-4.21l-4.65-5.61A25.41,25.41,0,0,1,36.37,5.5L42,10.15a22.12,22.12,0,0,1,4.2-1.74l.69-7.26A25.63,25.63,0,0,1,52.58.5Z"/><path class="cls-1" d="M52.58,18A11.78,11.78,0,1,1,40.8,29.79,11.79,11.79,0,0,1,52.58,18Z"/><rect class="cls-2" x="8.46" y="8.49" width="42.67" height="42.67" rx="0.91" transform="translate(29.82 -12.34) rotate(45)"/><polyline class="cls-1" points="32.17 9.27 52.82 29.92 32.85 49.89"/><polyline class="cls-1" points="49.95 29.39 9.72 29.39 3.6 29.39"/></g></g></svg>