<svg xmlns="http://www.w3.org/2000/svg" viewBox="0 0 67 66"><defs><style>.cls-1{fill:none;stroke:#000;stroke-linecap:round;stroke-linejoin:round;}</style></defs><g id="Layer_2" data-name="Layer 2"><g id="_1170px_grid" data-name="1170px grid"><path class="cls-1" d="M41.35,3.25a10.65,10.65,0,0,1,2.29.24l.24,3a7.33,7.33,0,0,1,1.72.74l2.3-1.89a7.81,7.81,0,0,1,1.8,1.48,10,10,0,0,1,1.47,1.8l-1.88,2.29A15.81,15.81,0,0,1,50,12.58l2.95.25a11.08,11.08,0,0,1,.25,2.29A10.57,10.57,0,0,1,53,17.41L50,17.66a8.14,8.14,0,0,1-.73,1.72l1.88,2.29a8,8,0,0,1-1.47,1.8,10.73,10.73,0,0,1-1.8,1.47l-2.3-1.88a15.1,15.1,0,0,1-1.72.74l-.24,2.94a10.57,10.57,0,0,1-2.29.25,10.07,10.07,0,0,1-2.3-.25l-.24-2.94a7.77,7.77,0,0,1-1.72-.74L34.8,24.94A8.09,8.09,0,0,1,33,23.47a10.35,10.35,0,0,1-1.47-1.8l1.88-2.29a16.7,16.7,0,0,1-.73-1.72l-3-.25a6.43,6.43,0,0,1-.33-2.21,9.92,9.92,0,0,1,.25-2.29l3-.25a7.65,7.65,0,0,1,.73-1.72L31.44,8.65a8,8,0,0,1,1.47-1.8,10.26,10.26,0,0,1,1.8-1.47L37,7.26a15.1,15.1,0,0,1,1.72-.74L39,3.57a8.13,8.13,0,0,1,2.38-.32Z"/><path class="cls-1" d="M41.35,10.37a4.83,4.83,0,0,1,0,9.66,4.78,4.78,0,0,1-4.83-4.83,4.84,4.84,0,0,1,4.83-4.83Z"/><path class="cls-1" d="M44.5,30.75v8.52a5.23,5.23,0,0,1-5.23,5.23H5.73A5.23,5.23,0,0,1,.5,39.27V16.73A5.23,5.23,0,0,1,5.73,11.5h3.8l6-11,6.78,11H26.5"/><path class="cls-1" d="M55.5,21.5h5.77a5.23,5.23,0,0,1,5.23,5.23V49.27a5.23,5.23,0,0,1-5.23,5.23h-3.8l-6,11-6.78-11h-17a5.23,5.23,0,0,1-5.23-5.23"/><circle cx="13.5" cy="28.75" r="3"/><circle cx="26" cy="29.25" r="3"/></g></g></svg>