<svg xmlns="http://www.w3.org/2000/svg" viewBox="0 0 80.5 61.07"><defs><style>.cls-1{fill:none;stroke:#000;stroke-linecap:round;stroke-linejoin:round;}</style></defs><g id="Layer_2" data-name="Layer 2"><g id="_1170px_grid" data-name="1170px grid"><polyline class="cls-1" points="44.01 51.2 0.5 51.2 0.5 0.5 27.22 0.5 37.98 6.01 66.48 6.01 66.48 24.27"/><line class="cls-1" x1="0.5" y1="9.32" x2="65.53" y2="9.32"/><circle cx="4.91" cy="4.91" r="1.1"/><circle cx="9.32" cy="4.91" r="1.1"/><circle cx="13.73" cy="4.91" r="1.1"/><rect class="cls-1" x="6.01" y="19.24" width="16.53" height="14.33"/><line class="cls-1" x1="30.18" y1="19.24" x2="61.12" y2="19.24"/><path class="cls-1" d="M63.07,26.71a14.38,14.38,0,0,1,3.27.35l.35,4.2a10.77,10.77,0,0,1,2.45,1.05l3.27-2.68A11.14,11.14,0,0,1,75,31.73a14.07,14.07,0,0,1,2.1,2.57l-2.69,3.27A20.84,20.84,0,0,1,75.45,40l4.2.35A15.81,15.81,0,0,1,80,43.64a15,15,0,0,1-.35,3.27l-4.2.35a11.29,11.29,0,0,1-1.06,2.45L77.08,53A11.14,11.14,0,0,1,75,55.55a14.42,14.42,0,0,1-2.57,2.1L69.14,55A23.44,23.44,0,0,1,66.69,56l-.35,4.2a15.81,15.81,0,0,1-3.27.35,15,15,0,0,1-3.27-.35L59.45,56A11.52,11.52,0,0,1,57,55l-3.27,2.68a10.93,10.93,0,0,1-2.57-2.1A14.42,14.42,0,0,1,49.06,53l2.68-3.27a21.49,21.49,0,0,1-1.05-2.45l-4.2-.35A9.4,9.4,0,0,1,46,43.76a15,15,0,0,1,.35-3.27l4.2-.35a11.82,11.82,0,0,1,1-2.46l-2.68-3.27A11.36,11.36,0,0,1,51,31.84a15.34,15.34,0,0,1,2.57-2.1l3.27,2.69a21.49,21.49,0,0,1,2.45-1.05l.35-4.21a11.31,11.31,0,0,1,3.39-.46Z"/><path class="cls-1" d="M63.07,35.6a8.16,8.16,0,0,1,0,16.31,8.08,8.08,0,0,1-8.16-8.15,8.17,8.17,0,0,1,8.16-8.16Z"/><line class="cls-1" x1="30.18" y1="26.4" x2="52.3" y2="26.4"/><line class="cls-1" x1="30.18" y1="33.57" x2="45.65" y2="33.57"/><line class="cls-1" x1="6.01" y1="41.28" x2="41.5" y2="41.28"/></g></g></svg>