<svg xmlns="http://www.w3.org/2000/svg" viewBox="0 0 71.83 63.86"><defs><style>.cls-1{fill:none;stroke:#000;stroke-linecap:round;stroke-linejoin:round;}</style></defs><title>laravel-migration-service</title><g id="Layer_2" data-name="Layer 2"><g id="_1170px_grid" data-name="1170px grid"><path class="cls-1" d="M71.33.5H.5V50.9H71.33V.5Z"/><line class="cls-1" x1="18.97" y1="63.36" x2="52.86" y2="63.36"/><line class="cls-1" x1="27.38" y1="61.66" x2="27.38" y2="55.15"/><line class="cls-1" x1="44.45" y1="61.66" x2="44.45" y2="55.15"/><polygon class="cls-1" points="8.72 11.98 14.54 12.01 17.04 14.46 28.79 14.53 28.79 26.73 8.77 26.73 8.72 11.98"/><polygon class="cls-1" points="42.63 25.2 48.58 25.17 50.95 27.67 62.7 27.74 62.7 39.95 42.68 39.95 42.63 25.2"/><polyline class="cls-1" points="12.99 21.31 19.2 21.31 27.34 32.25 35.88 32.25"/><polyline class="cls-1" points="52.63 31.9 44.89 31.9 37.27 37.58 22.49 37.58"/><circle class="cls-1" cx="36.14" cy="14.85" r="1.58"/><circle class="cls-1" cx="42.54" cy="14.85" r="1.58"/><circle class="cls-1" cx="9.1" cy="38.02" r="1.58"/><circle class="cls-1" cx="15.5" cy="38.02" r="1.58"/><line class="cls-1" x1="47.59" y1="14.89" x2="57.27" y2="14.89"/><circle class="cls-1" cx="61.05" cy="14.85" r="3.77"/></g></g></svg>