<svg xmlns="http://www.w3.org/2000/svg" viewBox="0 0 87.38 63.69"><defs><style>.cls-1{fill:none;stroke:#000;stroke-linecap:round;stroke-linejoin:round;}</style></defs><title>laravel-integration-maintenance</title><g id="Layer_2" data-name="Layer 2"><g id="_1170px_grid" data-name="1170px grid"><path class="cls-1" d="M71.14,5.34V.5H.5V50.76H71.14V45.08"/><line class="cls-1" x1="18.92" y1="63.19" x2="52.71" y2="63.19"/><line class="cls-1" x1="27.3" y1="61.5" x2="27.3" y2="55"/><line class="cls-1" x1="44.33" y1="61.5" x2="44.33" y2="55"/><path class="cls-1" d="M72.15,22.22,74.38,20a6.72,6.72,0,0,1-.52-1.35,6.62,6.62,0,0,1,9.25-7.69l-3.82,3.82,3.13,3.12,3.81-3.82a6.63,6.63,0,0,1-7.69,9.26,7,7,0,0,1-1.35-.53L75,25"/><path class="cls-1" d="M66.69,27.68,56.54,37.82a1.55,1.55,0,0,0,0,2.18l.63.63a1.55,1.55,0,0,0,2.18,0L69.5,30.49"/><path class="cls-1" d="M80,31.71l5,5a2.16,2.16,0,0,1,0,3.05l-.79.79a2.16,2.16,0,0,1-3,0l-5-5.05L73.69,36,72.4,33.16l5.23-5.22,2.83,1.28Z"/><polyline class="cls-1" points="73.9 31.67 61.39 19.16 59.13 18.84 55 12.72 57.19 10.53 63.31 14.66 63.63 16.92 76.14 29.43"/><line class="cls-1" x1="49.76" y1="10.82" x2="1.1" y2="10.82"/><circle class="cls-1" cx="7.13" cy="6.04" r="2.12"/><circle class="cls-1" cx="14.76" cy="6.04" r="2.12"/><circle class="cls-1" cx="22.39" cy="6.04" r="2.12"/></g></g></svg>