<?xml version="1.0" encoding="utf-8"?>
<!-- Generator: Adobe Illustrator 25.2.0, SVG Export Plug-In . SVG Version: 6.00 Build 0)  -->
<svg version="1.1" id="Layer_1" xmlns="http://www.w3.org/2000/svg" xmlns:xlink="http://www.w3.org/1999/xlink" x="0px" y="0px"
	 viewBox="0 0 71.64 73.69" style="enable-background:new 0 0 71.64 73.69;" xml:space="preserve">
<style type="text/css">
	.st0{fill:none;stroke:#010101;stroke-linecap:round;stroke-linejoin:round;stroke-miterlimit:22.9256;}
</style>
<g>
	<g>
		<path class="st0" d="M15.47,10.5H0.5v50.26c39.6,0,50.39,0,70.64,0V39.19"/>
		<polyline class="st0" points="71.14,38.94 71.14,10.5 71.14,10.5 67.15,10.5 		"/>
		<line class="st0" x1="18.92" y1="73.19" x2="52.71" y2="73.19"/>
		<line class="st0" x1="27.3" y1="71.5" x2="27.3" y2="65.01"/>
		<line class="st0" x1="44.33" y1="71.5" x2="44.33" y2="65.01"/>
	</g>
</g>
<g>
	<path class="st0" d="M38,45.48L38,45.48c3.68,0,6.66-2.98,6.66-6.66v-1.67h19.99v3.33c0,2.76-2.24,5-5,5H38
		c-3.68,0-6.66-2.98-6.66-6.66V6.33c0-3.22-2.61-5.83-5.83-5.83l0,0c-3.22,0-5.83,2.61-5.83,5.83v4.16h8.33"/>
	<line class="st0" x1="57.99" y1="30.48" x2="57.99" y2="37.15"/>
	<path class="st0" d="M25.51,0.5h25.82c3.1,0,5.71,2.12,6.45,4.99"/>
	<circle class="st0" cx="59.66" cy="13.83" r="5"/>
	<polyline class="st0" points="56.32,17.54 56.32,27.15 59.66,23.82 62.99,27.15 62.99,17.55 	"/>
	<polyline class="st0" points="57.99,13.83 59.66,15.49 61.32,12.16 	"/>
	<circle class="st0" cx="38" cy="12.16" r="1.67"/>
	<circle class="st0" cx="38" cy="20.49" r="1.67"/>
	<circle class="st0" cx="38" cy="28.82" r="1.67"/>
	<line class="st0" x1="43" y1="12.16" x2="51.33" y2="12.16"/>
	<line class="st0" x1="43" y1="20.49" x2="51.33" y2="20.49"/>
	<line class="st0" x1="43" y1="28.82" x2="52.99" y2="28.82"/>
</g>
<circle class="st0" cx="15.15" cy="29.94" r="4"/>
<path class="st0" d="M7.15,44.94c0-4.42,3.58-8,8-8s8,3.58,8,8"/>
</svg>
