<svg xmlns="http://www.w3.org/2000/svg" viewBox="0 0 59.47 59.47"><defs><style>.cls-1{fill:none;stroke:#000;stroke-linecap:round;stroke-linejoin:round;}</style></defs><g id="Layer_2" data-name="Layer 2"><g id="_1170px_grid" data-name="1170px grid"><path class="cls-1" d="M55.16,5.39,54.08,4.31a13.1,13.1,0,0,0-18.47,0l-13,13a13.1,13.1,0,0,0,0,18.47l1.08,1.08a12.91,12.91,0,0,0,3.87,2.67l3.64-3.64a4.07,4.07,0,0,0,1.12-3.6,4,4,0,0,1-2.16-1.12l-1.86-1.86a4.09,4.09,0,0,1,0-5.76L41.84,10a4.09,4.09,0,0,1,5.76,0l1.86,1.87a4.07,4.07,0,0,1,0,5.76l-9.88,9.88a13.17,13.17,0,0,1-.42,11.58,12.9,12.9,0,0,0,3-2.25l13-13a13.1,13.1,0,0,0,0-18.47Z"/><path class="cls-1" d="M4.31,54.08l1.08,1.08a13.1,13.1,0,0,0,18.47,0l13-13a13.1,13.1,0,0,0,0-18.47l-1.08-1.09A12.87,12.87,0,0,0,31.89,20l-3.64,3.63a4.1,4.1,0,0,0-1.12,3.61,4,4,0,0,1,2.16,1.12l1.86,1.86a4.09,4.09,0,0,1,0,5.76L17.63,49.46a4.08,4.08,0,0,1-5.76,0L10,47.6a4.09,4.09,0,0,1,0-5.76L19.89,32a13.17,13.17,0,0,1,.42-11.58,12.93,12.93,0,0,0-3,2.24l-13,13a13.1,13.1,0,0,0,0,18.47Z"/></g></g></svg>