<svg xmlns="http://www.w3.org/2000/svg" viewBox="0 0 49.52 72.04"><defs><style>.cls-1{fill:none;stroke:#000;stroke-linecap:round;stroke-linejoin:round;}</style></defs><g id="Layer_2" data-name="Layer 2"><g id="_1170px_grid" data-name="1170px grid"><rect x="35.97" y="39.79" width="8.97" height="0.79"/><rect x="23.82" y="39.79" width="8.97" height="0.79"/><path d="M47.06,51.81A12.73,12.73,0,0,0,35.93,40.67l.09-.78A13.51,13.51,0,0,1,47.84,51.71Z"/><path d="M21.7,51.81l-.78-.1A13.5,13.5,0,0,1,32.74,39.89l.1.78A12.71,12.71,0,0,0,21.7,51.81Z"/><path d="M22.8,55.33H19.63a.4.4,0,0,1-.4-.4V51.76a.39.39,0,0,1,.4-.39H22.8a.38.38,0,0,1,.39.39v3.17A.39.39,0,0,1,22.8,55.33ZM20,54.54h2.39V52.15H20Z"/><path d="M49.13,55.33H46a.4.4,0,0,1-.39-.4V51.76a.39.39,0,0,1,.39-.39h3.18a.38.38,0,0,1,.39.39v3.17A.39.39,0,0,1,49.13,55.33Zm-2.78-.79h2.38V52.15H46.35Z"/><path d="M36,42.16H32.79a.38.38,0,0,1-.39-.39V38.6a.39.39,0,0,1,.39-.4H36a.4.4,0,0,1,.4.4v3.17A.39.39,0,0,1,36,42.16Zm-2.78-.78h2.39V39H33.18Z"/><path d="M46,41.6a1.42,1.42,0,1,1,1.42-1.42A1.42,1.42,0,0,1,46,41.6Zm0-2a.63.63,0,1,0,.63.62A.62.62,0,0,0,46,39.56Z"/><path d="M22.8,41.6a1.42,1.42,0,1,1,1.42-1.42A1.42,1.42,0,0,1,22.8,41.6Zm0-2a.63.63,0,1,0,.63.62A.63.63,0,0,0,22.8,39.56Z"/><path d="M40,72H28.86a.38.38,0,0,1-.39-.39V67.46a.38.38,0,0,1,.39-.39H40a.39.39,0,0,1,.39.39v4.19A.39.39,0,0,1,40,72Zm-10.73-.79H39.58v-3.4H29.25Z"/><path d="M39.89,67.85h-11a.38.38,0,0,1-.36-.24l-3-7.22a.38.38,0,0,1,.09-.43c4-3.87,5-7.13,6.79-13.55a.4.4,0,0,1,.38-.29H36a.39.39,0,0,1,.38.29c1.75,6.42,2.77,9.68,6.8,13.55a.4.4,0,0,1,.09.43l-3,7.22A.39.39,0,0,1,39.89,67.85Zm-10.77-.78H39.63l2.82-6.74c-4-3.86-5.07-7.32-6.74-13.42H33c-1.67,6.1-2.79,9.56-6.73,13.42Z"/><rect x="33.98" y="46.52" width="0.79" height="14.54"/><path d="M34.38,63.94a1.83,1.83,0,1,1,1.83-1.83A1.83,1.83,0,0,1,34.38,63.94Zm0-2.87a1,1,0,1,0,1,1A1,1,0,0,0,34.38,61.07Z"/><path class="cls-1" d="M11.58,55.9h-9A2.1,2.1,0,0,1,.5,53.82V2.58A2.09,2.09,0,0,1,2.58.5H25.49"/><line class="cls-1" x1="39.05" y1="14.06" x2="39.05" y2="34.39"/><path class="cls-1" d="M39.05,14.06H27.57A2.09,2.09,0,0,1,25.49,12V.5L39.05,14.06Z"/><line class="cls-1" x1="8.81" y1="11.64" x2="19.77" y2="11.64"/><line class="cls-1" x1="8.81" y1="22.01" x2="30.73" y2="22.01"/><line class="cls-1" x1="8.81" y1="28.07" x2="30.73" y2="28.07"/><line class="cls-1" x1="8.81" y1="34.12" x2="30.73" y2="34.12"/></g></g></svg>