<?xml version="1.0" encoding="utf-8"?>
<!-- Generator: Adobe Illustrator 25.2.0, SVG Export Plug-In . SVG Version: 6.00 Build 0)  -->
<svg version="1.1" id="Layer_1" xmlns="http://www.w3.org/2000/svg" xmlns:xlink="http://www.w3.org/1999/xlink" x="0px" y="0px"
	 viewBox="0 0 73.61 65.47" style="enable-background:new 0 0 73.61 65.47;" xml:space="preserve">
<style type="text/css">
	.st0{fill:none;stroke:#010101;stroke-linecap:round;stroke-linejoin:round;stroke-miterlimit:22.9256;}
	.st1{fill:none;stroke:#000000;stroke-width:0.75;stroke-linecap:round;stroke-linejoin:round;stroke-miterlimit:10;}
</style>
<rect x="0.5" y="0.5" class="st0" width="72.61" height="52.76"/>
<polyline class="st0" points="42.37,56.47 42.78,64.97 30.83,64.97 31.24,56.47 "/>
<line class="st0" x1="23.55" y1="64.97" x2="50.06" y2="64.97"/>
<g>
	<circle class="st1" cx="35.68" cy="13.52" r="6.55"/>
	<path class="st1" d="M24.96,29.04c0-0.24,0.01-0.48,0.02-0.72c0.21-3.16,1.79-5.94,4.15-7.77"/>
	<path class="st1" d="M41.68,20.14c2.58,1.75,4.37,4.59,4.68,7.86"/>
	<polygon class="st1" points="35.6,23.81 37.86,30.75 45.15,30.75 39.25,35.04 41.51,41.98 35.6,37.69 29.7,41.98 31.95,35.04 
		26.05,30.75 33.35,30.75 	"/>
	<polygon class="st1" points="21.3,31.25 22.63,35.35 26.94,35.35 23.45,37.88 24.78,41.98 21.3,39.44 17.82,41.98 19.15,37.88 
		15.66,35.35 19.97,35.35 	"/>
	<polygon class="st1" points="49.56,31.25 50.89,35.35 55.19,35.35 51.71,37.88 53.04,41.98 49.56,39.44 46.07,41.98 47.4,37.88 
		43.92,35.35 48.23,35.35 	"/>
</g>
</svg>
