<svg xmlns="http://www.w3.org/2000/svg" viewBox="0 0 88.42 63.69"><defs><style>.cls-1{fill:none;stroke:#000;stroke-linecap:round;stroke-linejoin:round;}</style></defs><g id="Layer_2" data-name="Layer 2"><g id="_1170px_grid" data-name="1170px grid"><path class="cls-1" d="M71.14,15.94V.5H.5V50.76H57.15"/><line class="cls-1" x1="18.92" y1="63.19" x2="52.71" y2="63.19"/><line class="cls-1" x1="27.3" y1="61.5" x2="27.3" y2="55"/><line class="cls-1" x1="44.33" y1="61.5" x2="44.33" y2="55"/><path class="cls-1" d="M87.92,48.57V60.39a2.73,2.73,0,0,1-2.77,2.68H63.64a2.73,2.73,0,0,1-2.77-2.68V22.48a2.73,2.73,0,0,1,2.77-2.68H85.15a2.73,2.73,0,0,1,2.77,2.68v26"/><line class="cls-1" x1="60.87" y1="25.9" x2="87.92" y2="25.9"/><line class="cls-1" x1="60.87" y1="56.03" x2="87.92" y2="56.03"/><line class="cls-1" x1="72.26" y1="22.75" x2="76.53" y2="22.75"/><path class="cls-1" d="M75.1,59.47a.71.71,0,1,1-.71-.68A.69.69,0,0,1,75.1,59.47Z"/><path class="cls-1" d="M45.32,15.91V35.08a3.17,3.17,0,0,0,3.17,3.18h7.66"/><polyline class="cls-1" points="42.08 18.82 45.32 15.58 48.56 18.82"/><path class="cls-1" d="M73.91,51.93V32.76a3.17,3.17,0,0,0-3.17-3.18H63.08"/><polyline class="cls-1" points="77.15 49.02 73.92 52.26 70.67 49.02"/></g></g></svg>