<svg xmlns="http://www.w3.org/2000/svg" viewBox="0 0 87.63 56.14"><defs><style>.cls-1,.cls-2{fill:none;stroke:#000;}.cls-1{stroke-linecap:round;stroke-linejoin:round;}.cls-2{stroke-miterlimit:10;}</style></defs><title>native-advertising</title><g id="Layer_2" data-name="Layer 2"><g id="_1170px_grid" data-name="1170px grid"><rect class="cls-1" x="14.78" y="7.1" width="19.49" height="12.65"/><rect class="cls-1" x="14.78" y="22.72" width="19.49" height="12.65"/><rect x="36.11" y="7.19" width="19.49" height="0.74"/><rect x="36.11" y="10.91" width="19.49" height="0.74"/><rect x="36.11" y="14.64" width="19.49" height="0.74"/><rect x="36.11" y="23.61" width="19.49" height="0.74"/><rect x="36.11" y="27.33" width="19.49" height="0.74"/><rect x="36.11" y="31.05" width="19.49" height="0.74"/><rect x="36.11" y="38.95" width="19.49" height="0.74"/><rect x="36.11" y="42.67" width="19.49" height="0.74"/><rect x="36.11" y="46.4" width="19.49" height="0.74"/><rect class="cls-1" x="14.78" y="38.13" width="19.49" height="8.49"/><path class="cls-2" d="M23.51,25.92l-.62.67-5.37,5.67-1.37,1.45H32.9l-1.36-1.45-2-2.15-.62-.66-.62.66-.41.43-3.72-3.95-.63-.67Z"/><circle class="cls-2" cx="28.91" cy="27.37" r="0.77"/><path d="M84.33,56.14H71a3.31,3.31,0,0,1-3.31-3.3V24.65A3.31,3.31,0,0,1,71,21.35H84.39a3.24,3.24,0,0,1,3.24,3.24V52.84A3.3,3.3,0,0,1,84.33,56.14ZM71,22.43a2.22,2.22,0,0,0-2.23,2.22V52.84A2.23,2.23,0,0,0,71,55.07H84.33a2.23,2.23,0,0,0,2.23-2.23V24.59a2.17,2.17,0,0,0-2.17-2.16Z"/><path d="M84.4,27.33v22.3H71.09V27.33H84.4m.76-.76H70.34V50.38H85.16V26.57Z"/><circle cx="77.67" cy="52.82" r="0.82"/><rect x="75.97" y="23.74" width="3.41" height="0.6" rx="0.17"/><rect class="cls-2" x="72.68" y="28.92" width="3.64" height="3.64"/><rect x="77.65" y="28.92" width="5.58" height="1.06"/><rect x="77.65" y="31.5" width="5.58" height="1.06"/><rect class="cls-2" x="72.68" y="35.55" width="3.64" height="3.64"/><rect x="77.65" y="35.55" width="5.58" height="1.06"/><rect x="77.65" y="38.13" width="5.58" height="1.06"/><rect class="cls-2" x="72.68" y="42.19" width="3.64" height="3.64"/><rect x="77.65" y="42.19" width="5.58" height="1.06"/><rect x="77.65" y="44.77" width="5.58" height="1.06"/><rect x="72.68" y="48.82" width="3.64" height="1.52"/><rect x="77.65" y="48.82" width="5.58" height="1.06"/><path d="M74.37,37l-.12.13-1,1.09-.27.28h3.23l-.26-.28-.39-.41-.12-.13-.12.13-.08.08-.72-.76L74.37,37Z"/><path d="M75.59,37.21a.18.18,0,0,1-.17.17.17.17,0,0,1,0-.34A.18.18,0,0,1,75.59,37.21Z"/><path class="cls-1" d="M69.17,19.66H76.9V7.1H57.73V35.23h8V23.07A3.41,3.41,0,0,1,69.17,19.66Z"/><polygon points="65.76 46.32 12.25 46.32 12.25 4.14 78.62 4.14 78.62 19.66 79.55 19.66 79.55 3.21 11.32 3.21 11.32 47.25 65.76 47.25 65.76 46.32"/><path d="M65.76,52.67H4.87A8.34,8.34,0,0,1,.93,51.62V50.46h38.2l.56.59a1,1,0,0,0,.73.32h10a1,1,0,0,0,.73-.32l.56-.59h14v-.93H9.31V2.75A1.83,1.83,0,0,1,11.24.93H79.63a1.83,1.83,0,0,1,1.93,1.82V19.66h.93V2.75A2.74,2.74,0,0,0,79.63,0H11.24A2.74,2.74,0,0,0,8.38,2.75V49.53H0v2.22c0,.94,3.08,1.85,4.87,1.85H65.76Z"/></g></g></svg>