<?xml version="1.0" encoding="utf-8"?>
<!-- Generator: Adobe Illustrator 22.0.1, SVG Export Plug-In . SVG Version: 6.00 Build 0)  -->
<svg version="1.1" id="Layer_1" xmlns="http://www.w3.org/2000/svg" xmlns:xlink="http://www.w3.org/1999/xlink" x="0px" y="0px"
	 width="27.2px" height="17.1px" viewBox="0 0 27.2 17.1" style="enable-background:new 0 0 27.2 17.1;" xml:space="preserve">
<style type="text/css">
	.st0{fill:#FFFFFF;}
	.st1{fill:none;}
	.st2{fill:none;stroke:#FFFFFF;stroke-width:0.813;stroke-miterlimit:10;}
	.st3{fill:none;stroke:#000000;stroke-width:0.813;stroke-miterlimit:10;}
</style>
<polygon class="st0" points="179.3,-245.6 179.4,-263.7 172.7,-263.8 172.8,-268.5 190.8,-268.4 190.8,-263.7 184.1,-263.7 
	184,-245.6 "/>
<path class="st0" d="M134.1-246.7c4.1-0.5,7.4-4,7.4-8.2l0.1-9l-3.3,0l0-4.7l8,0.1l-0.1,13.7c-0.1,6.9-5.4,12.5-12.1,12.9
	L134.1-246.7z"/>
<polygon class="st0" points="169.3,-268.2 164.6,-268.2 159.5,-260.7 154.5,-268.2 149.8,-268.3 157.1,-257.2 149.7,-246.2 
	154.4,-246.2 159.5,-253.7 164.5,-246.1 169.2,-246.1 161.8,-257.2 "/>
<path class="st0" d="M169.8-245.7l-5.6,0l-4.8-7.3l-4.9,7.2l-5.6,0l7.7-11.4l-7.6-11.5l5.6,0l4.8,7.3l4.9-7.2l5.6,0l-7.7,11.4
	L169.8-245.7z M164.7-246.5l3.8,0l-7.1-10.7l7.2-10.6l-3.8,0l-5.3,7.8l-5.2-7.9l-3.8,0l7.1,10.7l-7.2,10.6l3.8,0l5.3-7.8
	L164.7-246.5z"/>
<rect x="-1087.2" y="-6770.3" class="st1" width="1920" height="8670"/>
<polygon class="st0" points="243.3,-238.6 243.4,-256.7 236.7,-256.8 236.8,-261.5 254.8,-261.4 254.8,-256.7 248.1,-256.7 
	248,-238.6 "/>
<path class="st0" d="M198.1-239.7c4.1-0.5,7.4-4,7.4-8.2l0.1-9l-3.3,0l0-4.7l8,0.1l-0.1,13.7c-0.1,6.9-5.4,12.5-12.1,12.9
	L198.1-239.7z"/>
<polygon class="st0" points="233.3,-261.2 228.6,-261.2 223.5,-253.7 218.5,-261.2 213.8,-261.3 221.1,-250.2 213.7,-239.2 
	218.4,-239.2 223.5,-246.7 228.5,-239.1 233.2,-239.1 225.8,-250.2 "/>
<path class="st0" d="M233.8-238.7l-5.6,0l-4.8-7.3l-4.9,7.2l-5.6,0l7.7-11.4l-7.6-11.5l5.6,0l4.8,7.3l4.9-7.2l5.6,0l-7.7,11.4
	L233.8-238.7z M228.7-239.5l3.8,0l-7.1-10.7l7.2-10.6l-3.8,0l-5.3,7.8l-5.2-7.9l-3.8,0l7.1,10.7l-7.2,10.6l3.8,0l5.3-7.8
	L228.7-239.5z"/>
<rect x="-1023.2" y="-6763.3" class="st1" width="1920" height="8670"/>
<g>
	<g>
		<path d="M27.2,8.6c0,4.7-3.8,8.6-8.6,8.6c-4.7,0-8.6-3.8-8.6-8.6C10,3.8,13.9,0,18.6,0C23.3,0,27.2,3.8,27.2,8.6"/>
		<line class="st2" x1="0" y1="8.8" x2="17.7" y2="8.8"/>
		<path class="st0" d="M22.6,8.8c-2.3,0.9-5.2,2.3-7,3.9l1.4-3.9l-1.4-3.9C17.4,6.5,20.3,7.9,22.6,8.8"/>
	</g>
	<line class="st3" x1="10" y1="8.8" x2="0" y2="8.8"/>
</g>
</svg>
