<svg xmlns="http://www.w3.org/2000/svg" viewBox="0 0 42.84 67.94"><defs><style>.cls-1{fill:none;stroke:#000;stroke-linecap:round;stroke-linejoin:round;}</style></defs><g id="Layer_2" data-name="Layer 2"><g id="_1170px_grid" data-name="1170px grid"><path class="cls-1" d="M42.34,45V63.28a4.22,4.22,0,0,1-4.29,4.16H4.78A4.22,4.22,0,0,1,.5,63.28V4.65A4.22,4.22,0,0,1,4.78.5H38.05a4.22,4.22,0,0,1,4.29,4.15V44.94"/><line class="cls-1" x1="0.5" y1="9.95" x2="42.34" y2="9.95"/><line class="cls-1" x1="0.5" y1="56.54" x2="42.34" y2="56.54"/><line class="cls-1" x1="18.12" y1="5.06" x2="24.72" y2="5.06"/><path class="cls-1" d="M22.5,61.87a1.09,1.09,0,1,1-1.08-1A1.06,1.06,0,0,1,22.5,61.87Z"/><rect class="cls-1" x="5.98" y="14.94" width="13" height="22"/><rect class="cls-1" x="5.98" y="40.94" width="13" height="10"/><rect class="cls-1" x="22.98" y="14.94" width="13" height="14"/><rect class="cls-1" x="22.98" y="32.94" width="13" height="18"/></g></g></svg>