<svg xmlns="http://www.w3.org/2000/svg" viewBox="0 0 57.46 67.94"><defs><style>.cls-1{fill:none;stroke:#000;stroke-linecap:round;stroke-linejoin:round;}</style></defs><g id="Layer_2" data-name="Layer 2"><g id="_1170px_grid" data-name="1170px grid"><path class="cls-1" d="M42.34,45V63.28a4.22,4.22,0,0,1-4.29,4.16H4.78A4.22,4.22,0,0,1,.5,63.28V4.65A4.22,4.22,0,0,1,4.78.5H38.05a4.22,4.22,0,0,1,4.29,4.15V14.74"/><line class="cls-1" x1="0.5" y1="9.95" x2="42.34" y2="9.95"/><line class="cls-1" x1="0.5" y1="56.54" x2="42.34" y2="56.54"/><line class="cls-1" x1="18.12" y1="5.06" x2="24.72" y2="5.06"/><path class="cls-1" d="M22.5,61.87a1.09,1.09,0,1,1-1.08-1A1.06,1.06,0,0,1,22.5,61.87Z"/><path class="cls-1" d="M42.24,15.49a12.32,12.32,0,0,1,2.87.33l.35,3.64a11.47,11.47,0,0,1,2.11.88L50.39,18a13.23,13.23,0,0,1,2.26,1.8,12.79,12.79,0,0,1,1.79,2.26l-2.33,2.82A11.15,11.15,0,0,1,53,27l3.65.34a12.65,12.65,0,0,1,0,5.74L53,33.41a10.89,10.89,0,0,1-.87,2.11l2.33,2.83a12.77,12.77,0,0,1-4,4l-2.82-2.33a11.43,11.43,0,0,1-2.11.87l-.35,3.65a13,13,0,0,1-5.73,0L39,40.94a11.15,11.15,0,0,1-2.11-.87L34.1,42.4a12.77,12.77,0,0,1-4.05-4l2.33-2.83a10.89,10.89,0,0,1-.87-2.11l-3.65-.34a12.65,12.65,0,0,1,0-5.74L31.51,27a11.15,11.15,0,0,1,.87-2.11l-2.33-2.82a12.79,12.79,0,0,1,1.79-2.26A13.23,13.23,0,0,1,34.1,18l2.82,2.34A11.19,11.19,0,0,1,39,19.46l.35-3.64a12.3,12.3,0,0,1,2.86-.33Z"/><path class="cls-1" d="M42.24,24.29a5.92,5.92,0,1,1-5.91,5.91,5.92,5.92,0,0,1,5.91-5.91Z"/></g></g></svg>