<svg xmlns="http://www.w3.org/2000/svg" viewBox="0 0 62.48 67.94"><defs><style>.cls-1{fill:none;stroke:#000;stroke-linecap:round;stroke-linejoin:round;}</style></defs><g id="Layer_2" data-name="Layer 2"><g id="_1170px_grid" data-name="1170px grid"><path class="cls-1" d="M42.34,45V63.28a4.22,4.22,0,0,1-4.29,4.16H4.78A4.22,4.22,0,0,1,.5,63.28V4.65A4.22,4.22,0,0,1,4.78.5H38.05a4.22,4.22,0,0,1,4.29,4.15V17.33"/><line class="cls-1" x1="0.5" y1="9.95" x2="42.34" y2="9.95"/><line class="cls-1" x1="0.5" y1="56.54" x2="42.34" y2="56.54"/><line class="cls-1" x1="18.12" y1="5.06" x2="24.72" y2="5.06"/><path class="cls-1" d="M22.5,61.87a1.09,1.09,0,1,1-1.08-1A1.06,1.06,0,0,1,22.5,61.87Z"/><path d="M53.93,45.42H20.74a6.81,6.81,0,0,1,0-13.62A9.51,9.51,0,0,1,30.22,23a9.31,9.31,0,0,1,3.23.57,10.82,10.82,0,0,1,20.83,4.1c0,.23,0,.46,0,.7a8.55,8.55,0,0,1-.33,17.09ZM20.74,32.67a5.95,5.95,0,1,0,0,11.89H53.93a7.69,7.69,0,1,0,0-15.37h-.62l0-.49a10,10,0,0,0-19.25-4.48l-.16.43-.41-.17a8.59,8.59,0,0,0-3.32-.66,8.69,8.69,0,0,0-8.64,8.43v.45l-.45,0Z"/></g></g></svg>