<svg xmlns="http://www.w3.org/2000/svg" viewBox="0 0 72.05 75.03"><defs><style>.cls-1{fill:none;stroke:#000;stroke-linecap:round;stroke-linejoin:round;}</style></defs><title>ongoing-maintenance-mgmt</title><g id="Layer_2" data-name="Layer 2"><g id="_1170px_grid" data-name="1170px grid"><path class="cls-1" d="M43.43,49.45l-3-3.59a10.57,10.57,0,0,1-2.07.6A9.86,9.86,0,0,1,28.12,31.75l5.17,6.15,5-4.23-5.17-6.15a9.86,9.86,0,0,1,12.73,12.6,10.47,10.47,0,0,1-1,1.93l3,3.6L68.09,70A2.77,2.77,0,0,1,68,73.68h0a2.79,2.79,0,0,1-4.12-.13Z"/><path class="cls-1" d="M44.85,61.33c-.38.14-.76.29-1.13.45L43,70.57a32.38,32.38,0,0,1-6.83.74,30.84,30.84,0,0,1-6.84-.74l-.73-8.79a23.56,23.56,0,0,1-5.13-2.19L16.61,65.2a23.6,23.6,0,0,1-5.37-4.39,30.28,30.28,0,0,1-4.39-5.37l5.61-6.84a47,47,0,0,1-2.19-5.13l-8.79-.73a19.42,19.42,0,0,1-1-6.59,30.85,30.85,0,0,1,.73-6.84L10,28.58a23.13,23.13,0,0,1,2.2-5.13L6.6,16.61A23.64,23.64,0,0,1,11,11.24a30.28,30.28,0,0,1,5.37-4.39l6.84,5.61a46.88,46.88,0,0,1,5.12-2.19l.74-8.79a23.37,23.37,0,0,1,7.08-1h0A30.69,30.69,0,0,1,43,1.23L43.72,10a23.26,23.26,0,0,1,5.12,2.2L55.68,6.6A23.43,23.43,0,0,1,61.05,11a30.79,30.79,0,0,1,4.4,5.37l-5.62,6.84A47,47,0,0,1,62,28.33l8.79.74a32.37,32.37,0,0,1,.73,6.83,30.85,30.85,0,0,1-.73,6.84L62,43.47a23.13,23.13,0,0,1-2.2,5.13l5.62,6.84a31,31,0,0,1-1.91,2.72"/><path class="cls-1" d="M38.55,53a17.27,17.27,0,0,1-2.4.17A16.9,16.9,0,0,1,19.09,36.15,17.09,17.09,0,0,1,36.15,19.09h0A17,17,0,0,1,51.81,42.88"/></g></g></svg>