<?xml version="1.0" encoding="utf-8"?>
<!-- Generator: Adobe Illustrator 25.2.0, SVG Export Plug-In . SVG Version: 6.00 Build 0)  -->
<svg version="1.1" id="Layer_1" xmlns="http://www.w3.org/2000/svg" xmlns:xlink="http://www.w3.org/1999/xlink" x="0px" y="0px"
	 viewBox="0 0 71.64 84.75" style="enable-background:new 0 0 71.64 84.75;" xml:space="preserve">
<style type="text/css">
	.st0{fill:none;stroke:#010101;stroke-linecap:round;stroke-linejoin:round;stroke-miterlimit:22.9256;}
	.st1{fill:none;stroke:#333333;stroke-miterlimit:10;}
</style>
<path class="st0" d="M20.19,21.56H0.5v50.26c39.6,0,50.39,0,70.64,0V50.25"/>
<polyline class="st0" points="71.14,50 71.14,21.56 71.14,21.56 64.03,21.56 "/>
<line class="st0" x1="18.92" y1="84.25" x2="52.71" y2="84.25"/>
<line class="st0" x1="27.3" y1="82.56" x2="27.3" y2="76.07"/>
<line class="st0" x1="44.33" y1="82.56" x2="44.33" y2="76.07"/>
<g>
	<g>
		<path class="st1" d="M18.11,45.07l8.97-11.78c0.31-0.41,0.89-0.49,1.3-0.18l4.52,3.44c0.36,0.27,0.87,0.2,1.15-0.16l18.06-23.71
			c0.31-0.41,0.89-0.49,1.3-0.18l1.97,1.5c0.5,0.38,1.24,0.07,1.31-0.56l1.4-12.05c0.07-0.62-0.54-1.09-1.12-0.85L45.72,5.11
			c-0.59,0.24-0.69,1.03-0.19,1.41l1.97,1.5c0.41,0.31,0.49,0.89,0.18,1.3L33.06,28.51c-0.15,0.2-0.37,0.32-0.61,0.36
			c-0.24,0.03-0.49-0.03-0.69-0.18l-4.52-3.44c-0.36-0.27-0.87-0.2-1.15,0.16L8.03,49.1"/>
	</g>
	<g>
		<path class="st1" d="M24.3,48.69v7.88c0,0.51-0.42,0.93-0.93,0.93h-8.97c-0.51,0-0.93-0.42-0.93-0.93v-7.88"/>
	</g>
	<g>
		<path class="st1" d="M41.7,40.81v15.76c0,0.51-0.42,0.93-0.93,0.93H31.8c-0.51,0-0.93-0.42-0.93-0.93V40.81"/>
	</g>
	<g>
		<path class="st1" d="M59.09,21.79v34.79c0,0.51-0.42,0.93-0.93,0.93h-8.97c-0.51,0-0.93-0.42-0.93-0.93V21.79"/>
	</g>
</g>
</svg>
