<svg xmlns="http://www.w3.org/2000/svg" viewBox="0 0 51.42 67.79"><defs><style>.cls-1{fill:none;stroke:#000;stroke-linecap:round;stroke-linejoin:round;}</style></defs><title>ppc-audit</title><g id="Layer_2" data-name="Layer 2"><g id="_1170px_grid" data-name="1170px grid"><path class="cls-1" d="M27.9,45.06h0a2.19,2.19,0,0,1,3,.71l3.07,5a2.18,2.18,0,0,1,1-1.41h0a2.2,2.2,0,0,1,2.83.46,2.19,2.19,0,0,1,1-1.71h0a2.19,2.19,0,0,1,2.83.45,2.19,2.19,0,0,1,1-1.71h0a2.16,2.16,0,0,1,3,.71L50,55.31c3.47,6.32-3.22,14.44-9.93,11.27L28.38,61.09a2.19,2.19,0,0,1-1-2.92,5.6,5.6,0,0,1,4.3-.39l2.2,1L27.19,48.07a2.2,2.2,0,0,1,.71-3Z"/><path class="cls-1" d="M27.9,45.06h0a2.19,2.19,0,0,1,3,.71l3.07,5a2.18,2.18,0,0,1,1-1.41h0a2.2,2.2,0,0,1,2.83.46,2.19,2.19,0,0,1,1-1.71h0a2.19,2.19,0,0,1,2.83.45,2.19,2.19,0,0,1,1-1.71h0a2.16,2.16,0,0,1,3,.71L50,55.31c3.47,6.32-3.22,14.44-9.93,11.27L28.38,61.09a2.19,2.19,0,0,1-1-2.92,5.6,5.6,0,0,1,4.3-.39l2.2,1L27.19,48.07a2.2,2.2,0,0,1,.71-3Z"/><path class="cls-1" d="M26.64,52.54a6.36,6.36,0,1,1,8.41-7"/><path class="cls-1" d="M24.08,56.6A11.13,11.13,0,1,1,39.5,43.66"/><path class="cls-1" d="M24,64H2.88A2.4,2.4,0,0,1,.5,61.64V2.88A2.39,2.39,0,0,1,2.88.5H29.15"/><line class="cls-1" x1="44.7" y1="16.04" x2="44.7" y2="40.02"/><path class="cls-1" d="M44.7,16H31.54a2.39,2.39,0,0,1-2.39-2.38V.5L44.7,16Z"/><line class="cls-1" x1="10.03" y1="13.28" x2="22.6" y2="13.28"/><line class="cls-1" x1="10.03" y1="20.7" x2="35.16" y2="20.7"/><line class="cls-1" x1="10.03" y1="26.1" x2="35.16" y2="26.1"/></g></g></svg>