<svg xmlns="http://www.w3.org/2000/svg" viewBox="0 0 39.99 39.99"><defs><style>.cls-1{fill:none;stroke:#000;stroke-miterlimit:10;stroke-width:1.5px;}</style></defs><g id="Layer_2" data-name="Layer 2"><g id="_1170px_grid" data-name="1170px grid"><circle class="cls-1" cx="20" cy="20" r="19.25"/><path d="M22.2,28.37a4.77,4.77,0,0,1-1.74,1.35,5.46,5.46,0,0,1-2.23.46,6.28,6.28,0,0,1-3-.7,12.77,12.77,0,0,1-3-2.49,8.36,8.36,0,0,1-3.56-1.28,7.29,7.29,0,0,1-2.43-2.66,7.89,7.89,0,0,1,.16-7.5,7.47,7.47,0,0,1,2.88-2.72,8.57,8.57,0,0,1,4.13-1,8.46,8.46,0,0,1,4.11,1,7.35,7.35,0,0,1,3.93,6.62A7.3,7.3,0,0,1,20,23.94a7.42,7.42,0,0,1-3.81,2.69,3.81,3.81,0,0,0,1,.79,2.39,2.39,0,0,0,1.06.24,3.2,3.2,0,0,0,2.39-1.09ZM9.42,21.88a4.27,4.27,0,0,0,1.65,1.67,4.9,4.9,0,0,0,4.7,0,4.27,4.27,0,0,0,1.65-1.67,4.86,4.86,0,0,0,.6-2.43,4.93,4.93,0,0,0-.6-2.44,4.34,4.34,0,0,0-1.65-1.67,4.9,4.9,0,0,0-4.7,0A4.34,4.34,0,0,0,9.42,17a4.93,4.93,0,0,0-.6,2.44A4.86,4.86,0,0,0,9.42,21.88Z"/><path d="M32.65,19.52a4,4,0,0,1,1,2.78A4.4,4.4,0,0,1,33,24.67a4.72,4.72,0,0,1-2,1.73,7.88,7.88,0,0,1-3.37.65,11.67,11.67,0,0,1-3.05-.41A7.69,7.69,0,0,1,22,25.47l1.32-2.6a6.44,6.44,0,0,0,1.94,1,7.55,7.55,0,0,0,2.26.34,3.56,3.56,0,0,0,2-.49,1.59,1.59,0,0,0,.74-1.4c0-1.2-.92-1.8-2.75-1.8H26V18.25l3-3.42H22.72V12.1H33v2.2l-3.32,3.78A4.92,4.92,0,0,1,32.65,19.52Z"/></g></g></svg>