<svg xmlns="http://www.w3.org/2000/svg" viewBox="0 0 39.99 39.99"><defs><style>.cls-1{fill:none;stroke:#000;stroke-miterlimit:10;stroke-width:1.5px;}</style></defs><g id="Layer_2" data-name="Layer 2"><g id="_1170px_grid" data-name="1170px grid"><circle class="cls-1" cx="20" cy="20" r="19.25"/><path d="M24.31,27.87a4.65,4.65,0,0,1-1.73,1.35,5.5,5.5,0,0,1-2.24.46,6.31,6.31,0,0,1-3-.7,12.76,12.76,0,0,1-3-2.49,8.36,8.36,0,0,1-3.56-1.28,7.23,7.23,0,0,1-2.44-2.66,7.86,7.86,0,0,1,.17-7.5,7.33,7.33,0,0,1,2.88-2.72,8.53,8.53,0,0,1,4.12-1,8.5,8.5,0,0,1,4.12,1A7.35,7.35,0,0,1,23.58,19a7.3,7.3,0,0,1-1.44,4.49,7.42,7.42,0,0,1-3.81,2.69,3.81,3.81,0,0,0,1,.79,2.36,2.36,0,0,0,1.06.24,3.22,3.22,0,0,0,2.39-1.09ZM11.53,21.38a4.27,4.27,0,0,0,1.65,1.67,4.92,4.92,0,0,0,4.71,0,4.18,4.18,0,0,0,1.64-1.67,4.86,4.86,0,0,0,.6-2.43,4.93,4.93,0,0,0-.6-2.44,4.25,4.25,0,0,0-1.64-1.67,4.92,4.92,0,0,0-4.71,0,4.34,4.34,0,0,0-1.65,1.67,4.93,4.93,0,0,0-.6,2.44A4.86,4.86,0,0,0,11.53,21.38Z"/><path d="M30.67,11.6V26.3h-3.4v-12H24.33V11.6Z"/></g></g></svg>