<svg xmlns="http://www.w3.org/2000/svg" viewBox="0 0 39.99 39.99"><defs><style>.cls-1{fill:none;stroke:#000;stroke-miterlimit:10;stroke-width:1.5px;}</style></defs><g id="Layer_2" data-name="Layer 2"><g id="_1170px_grid" data-name="1170px grid"><circle class="cls-1" cx="20" cy="20" r="19.25"/><path d="M21.74,27.7A4.77,4.77,0,0,1,20,29.05a5.27,5.27,0,0,1-2.23.46,6.19,6.19,0,0,1-3-.7,13,13,0,0,1-3-2.49A8.41,8.41,0,0,1,8.22,25a7.21,7.21,0,0,1-2.43-2.66,7.49,7.49,0,0,1-.87-3.6,7.34,7.34,0,0,1,3.91-6.62,8.69,8.69,0,0,1,4.13-1,8.62,8.62,0,0,1,4.12,1A7.51,7.51,0,0,1,20,14.88,7.4,7.4,0,0,1,21,18.78a7.28,7.28,0,0,1-1.44,4.49A7.38,7.38,0,0,1,15.75,26a3.61,3.61,0,0,0,1,.79,2.39,2.39,0,0,0,1.06.24,3.2,3.2,0,0,0,2.4-1.09ZM9,21.21a4.21,4.21,0,0,0,1.65,1.67,4.64,4.64,0,0,0,2.35.6,4.64,4.64,0,0,0,2.35-.6A4.21,4.21,0,0,0,17,21.21a4.86,4.86,0,0,0,.6-2.43,4.93,4.93,0,0,0-.6-2.44,4.34,4.34,0,0,0-1.65-1.67A4.64,4.64,0,0,0,13,14.08a4.64,4.64,0,0,0-2.35.59A4.34,4.34,0,0,0,9,16.34a4.93,4.93,0,0,0-.6,2.44A4.86,4.86,0,0,0,9,21.21Z"/><path d="M33.41,23.36v2.77H22.3V23.92L28,18.57a5.84,5.84,0,0,0,1.22-1.48,2.68,2.68,0,0,0,.32-1.23,1.6,1.6,0,0,0-.6-1.35A2.76,2.76,0,0,0,27.16,14a4.12,4.12,0,0,0-1.75.37,3.35,3.35,0,0,0-1.3,1.1l-2.48-1.59a5.84,5.84,0,0,1,2.37-2,8,8,0,0,1,3.47-.72,7.28,7.28,0,0,1,2.87.53,4.46,4.46,0,0,1,1.91,1.51,4,4,0,0,1,.68,2.3,5.21,5.21,0,0,1-.5,2.25,8.77,8.77,0,0,1-2,2.4l-3.38,3.19Z"/></g></g></svg>