<svg xmlns="http://www.w3.org/2000/svg" viewBox="0 0 39.99 39.99"><defs><style>.cls-1{fill:none;stroke:#000;stroke-miterlimit:10;stroke-width:1.5px;}</style></defs><g id="Layer_2" data-name="Layer 2"><g id="_1170px_grid" data-name="1170px grid"><circle class="cls-1" cx="20" cy="20" r="19.25"/><path d="M22,27.87a4.82,4.82,0,0,1-1.73,1.35,5.5,5.5,0,0,1-2.24.46,6.2,6.2,0,0,1-3-.71,12.64,12.64,0,0,1-3-2.48,8.32,8.32,0,0,1-3.55-1.28,7.23,7.23,0,0,1-2.44-2.66A7.54,7.54,0,0,1,5.21,19a7.34,7.34,0,0,1,3.91-6.62,8.57,8.57,0,0,1,4.13-1,8.5,8.5,0,0,1,4.12,1,7.51,7.51,0,0,1,2.87,2.72A7.4,7.4,0,0,1,21.29,19a7.36,7.36,0,0,1-1.43,4.49A7.46,7.46,0,0,1,16,26.13a3.81,3.81,0,0,0,1,.79,2.42,2.42,0,0,0,1.06.24,3.24,3.24,0,0,0,2.4-1.09ZM9.25,21.38a4.27,4.27,0,0,0,1.65,1.67,4.64,4.64,0,0,0,2.35.6,4.64,4.64,0,0,0,2.35-.6,4.27,4.27,0,0,0,1.65-1.67,4.86,4.86,0,0,0,.6-2.43,4.93,4.93,0,0,0-.6-2.44,4.34,4.34,0,0,0-1.65-1.67,4.64,4.64,0,0,0-2.35-.6,4.64,4.64,0,0,0-2.35.6,4.34,4.34,0,0,0-1.65,1.67A4.93,4.93,0,0,0,8.65,19,4.86,4.86,0,0,0,9.25,21.38Z"/><path d="M32.56,18.36A4.1,4.1,0,0,1,34,21.68a4.57,4.57,0,0,1-.67,2.44,4.67,4.67,0,0,1-2,1.77,7.82,7.82,0,0,1-3.39.66,11.75,11.75,0,0,1-3.06-.41A7.69,7.69,0,0,1,22.32,25l1.35-2.6a6.38,6.38,0,0,0,1.93,1,7.44,7.44,0,0,0,2.25.34,3.48,3.48,0,0,0,2-.5,1.63,1.63,0,0,0,.74-1.41,1.6,1.6,0,0,0-.77-1.43,5.33,5.33,0,0,0-2.66-.48H23.41l.76-8.27h9v2.73H27l-.23,2.79H28A7,7,0,0,1,32.56,18.36Z"/></g></g></svg>