<?xml version="1.0" encoding="utf-8"?>
<!-- Generator: Adobe Illustrator 22.0.1, SVG Export Plug-In . SVG Version: 6.00 Build 0)  -->
<svg version="1.1" id="Layer_1" xmlns="http://www.w3.org/2000/svg" xmlns:xlink="http://www.w3.org/1999/xlink" x="0px" y="0px"
	 width="92.6px" height="17.5px" viewBox="0 0 92.6 17.5" style="enable-background:new 0 0 92.6 17.5;" xml:space="preserve">
<style type="text/css">
	.st0{fill:#FFFFFF;}
	.st1{fill:none;}
	.st2{filter:url(#Adobe_OpacityMaskFilter);}
	.st3{clip-path:url(#SVGID_2_);}
	.st4{enable-background:new    ;}
	.st5{clip-path:url(#SVGID_4_);fill-rule:evenodd;clip-rule:evenodd;fill:#FFFFFF;}
	.st6{mask:url(#SVGID_1_);}
	.st7{clip-path:url(#SVGID_5_);fill-rule:evenodd;clip-rule:evenodd;fill:#FFFFFF;}
	.st8{filter:url(#Adobe_OpacityMaskFilter_1_);}
	.st9{clip-path:url(#SVGID_8_);}
	.st10{clip-path:url(#SVGID_9_);fill-rule:evenodd;clip-rule:evenodd;fill:#FFFFFF;}
	.st11{mask:url(#SVGID_7_);}
	.st12{clip-path:url(#SVGID_10_);fill-rule:evenodd;clip-rule:evenodd;fill:#FFFFFF;}
	.st13{filter:url(#Adobe_OpacityMaskFilter_2_);}
	.st14{clip-path:url(#SVGID_14_);}
	.st15{clip-path:url(#SVGID_17_);fill-rule:evenodd;clip-rule:evenodd;fill:#FFFFFF;}
	.st16{mask:url(#SVGID_11_);}
	.st17{clip-path:url(#SVGID_20_);fill-rule:evenodd;clip-rule:evenodd;fill:#FFFFFF;}
	.st18{filter:url(#Adobe_OpacityMaskFilter_3_);}
	.st19{clip-path:url(#SVGID_22_);}
	.st20{clip-path:url(#SVGID_23_);fill-rule:evenodd;clip-rule:evenodd;fill:#FFFFFF;}
	.st21{mask:url(#SVGID_21_);}
	.st22{clip-path:url(#SVGID_24_);fill-rule:evenodd;clip-rule:evenodd;fill:#FFFFFF;}
	.st23{fill-rule:evenodd;clip-rule:evenodd;fill:#FFFFFF;}
</style>
<polygon class="st0" points="212.7,-245.8 212.8,-263.8 206.2,-263.9 206.2,-268.6 224.2,-268.5 224.2,-263.8 217.6,-263.8 
	217.5,-245.7 "/>
<path class="st0" d="M167.6-246.8c4.1-0.5,7.4-4,7.4-8.2l0.1-9l-3.3,0l0-4.7l8,0.1l-0.1,13.7c-0.1,6.9-5.4,12.5-12.1,12.9
	L167.6-246.8z"/>
<polygon class="st0" points="202.7,-268.3 198.1,-268.3 193,-260.8 187.9,-268.4 183.2,-268.4 190.6,-257.3 183.1,-246.3 
	187.8,-246.3 192.9,-253.8 197.9,-246.2 202.6,-246.2 195.3,-257.3 "/>
<path class="st0" d="M203.3-245.8l-5.6,0l-4.8-7.3l-4.9,7.2l-5.6,0l7.7-11.4l-7.6-11.5l5.6,0l4.8,7.3l4.9-7.2l5.6,0l-7.7,11.4
	L203.3-245.8z M198.1-246.6l3.8,0l-7.1-10.7l7.2-10.6l-3.8,0l-5.3,7.8l-5.2-7.9l-3.8,0l7.1,10.7l-7.2,10.6l3.8,0l5.3-7.8
	L198.1-246.6z"/>
<rect x="-1053.8" y="-6770.4" class="st1" width="1920" height="8670"/>
<polygon class="st0" points="276.7,-238.8 276.8,-256.8 270.2,-256.9 270.2,-261.6 288.2,-261.5 288.2,-256.8 281.6,-256.8 
	281.5,-238.7 "/>
<path class="st0" d="M231.6-239.8c4.1-0.5,7.4-4,7.4-8.2l0.1-9l-3.3,0l0-4.7l8,0.1l-0.1,13.7c-0.1,6.9-5.4,12.5-12.1,12.9
	L231.6-239.8z"/>
<polygon class="st0" points="266.7,-261.3 262.1,-261.3 257,-253.8 251.9,-261.4 247.2,-261.4 254.6,-250.3 247.1,-239.3 
	251.8,-239.3 256.9,-246.8 261.9,-239.2 266.6,-239.2 259.3,-250.3 "/>
<path class="st0" d="M267.3-238.8l-5.6,0l-4.8-7.3l-4.9,7.2l-5.6,0l7.7-11.4l-7.6-11.5l5.6,0l4.8,7.3l4.9-7.2l5.6,0l-7.7,11.4
	L267.3-238.8z M262.1-239.6l3.8,0l-7.1-10.7l7.2-10.6l-3.8,0l-5.3,7.8l-5.2-7.9l-3.8,0l7.1,10.7l-7.2,10.6l3.8,0l5.3-7.8
	L262.1-239.6z"/>
<rect x="-989.8" y="-6763.4" class="st1" width="1920" height="8670"/>
<g>
	<defs>
		<filter id="Adobe_OpacityMaskFilter" filterUnits="userSpaceOnUse" x="0" y="3.3" width="10.2" height="13.9">
			<feColorMatrix  type="matrix" values="1 0 0 0 0  0 1 0 0 0  0 0 1 0 0  0 0 0 1 0"/>
		</filter>
	</defs>
	<mask maskUnits="userSpaceOnUse" x="0" y="3.3" width="10.2" height="13.9" id="SVGID_1_">
		<g class="st2">
			<g>
				<defs>
					<rect id="SVGID_18_" y="3.3" width="10.2" height="13.9"/>
				</defs>
				<clipPath id="SVGID_2_">
					<use xlink:href="#SVGID_18_"  style="overflow:visible;"/>
				</clipPath>
				<rect y="3.2" class="st3" width="10.2" height="14.1"/>
				<g class="st4">
					<g>
						<defs>
							<rect id="SVGID_19_" y="3.2" width="10.2" height="14.1"/>
						</defs>
						<clipPath id="SVGID_4_" class="st3">
							<use xlink:href="#SVGID_19_"  style="overflow:visible;"/>
						</clipPath>
						<rect x="0" y="3.3" class="st5" width="51.6" height="14.1"/>
					</g>
				</g>
			</g>
		</g>
	</mask>
	<g class="st6">
		<g>
			<defs>
				<rect id="SVGID_34_" y="3.3" width="10.2" height="13.9"/>
			</defs>
			<clipPath id="SVGID_5_">
				<use xlink:href="#SVGID_34_"  style="overflow:visible;"/>
			</clipPath>
			<path class="st7" d="M9.7,7.8c-1,0-1.9,0.1-2.7,0.2C6.3,8.2,5.7,8.4,5.6,9.1l-0.9,8.1H0L1.6,3.4C2.3,3.4,2.9,3.2,4,3.9
				c1.8-0.7,4.7-0.5,6.2-0.5L9.7,7.8"/>
		</g>
	</g>
	<defs>
		<filter id="Adobe_OpacityMaskFilter_1_" filterUnits="userSpaceOnUse" x="10.1" y="3.4" width="13.5" height="14.1">
			<feColorMatrix  type="matrix" values="1 0 0 0 0  0 1 0 0 0  0 0 1 0 0  0 0 0 1 0"/>
		</filter>
	</defs>
	<mask maskUnits="userSpaceOnUse" x="10.1" y="3.4" width="13.5" height="14.1" id="SVGID_7_">
		<g class="st8">
			<g>
				<defs>
					<rect id="SVGID_15_" x="10.1" y="3.4" width="13.5" height="14.1"/>
				</defs>
				<clipPath id="SVGID_8_">
					<use xlink:href="#SVGID_15_"  style="overflow:visible;"/>
				</clipPath>
				<rect x="9.9" y="3.4" class="st9" width="14.2" height="14.1"/>
				<g class="st4">
					<g>
						<defs>
							<rect id="SVGID_16_" x="9.9" y="3.4" width="14.2" height="14.1"/>
						</defs>
						<clipPath id="SVGID_9_" class="st9">
							<use xlink:href="#SVGID_16_"  style="overflow:visible;"/>
						</clipPath>
						<rect x="0" y="3.3" class="st10" width="51.6" height="14.1"/>
					</g>
				</g>
			</g>
		</g>
	</mask>
	<g class="st11">
		<g>
			<defs>
				<rect id="SVGID_41_" x="10.1" y="3.4" width="13.5" height="14.1"/>
			</defs>
			<clipPath id="SVGID_10_">
				<use xlink:href="#SVGID_41_"  style="overflow:visible;"/>
			</clipPath>
			<path class="st12" d="M16.8,14.1c0.5,0,1-0.1,1.4-0.3l0.2-1.9c-0.5-0.2-1-0.3-1.4-0.3c-1.2,0-2,0.4-2.1,1.3
				C15,13.8,15.6,14.1,16.8,14.1 M22.6,17.1c-1,0.1-1.3,0.1-2.4-0.4c-1.4,0.6-4.2,0.8-5.7,0.8c-3.1,0-4.6-1.6-4.3-4.4
				c0.3-2.8,2.5-4.4,6.1-4.4c0.8,0,1.7,0.1,2.6,0.5l0-0.3C19,7.7,18.2,7,16.7,7c-1.4,0-3.2,0.2-4.8,0.6l0.4-3.4
				c1.5-0.5,3.7-0.8,5.8-0.8c3.9,0,5.9,1.9,5.6,5.1L22.6,17.1z"/>
		</g>
	</g>
	<defs>
		<filter id="Adobe_OpacityMaskFilter_2_" filterUnits="userSpaceOnUse" x="24.9" y="3.4" width="12.6" height="14.1">
			<feColorMatrix  type="matrix" values="1 0 0 0 0  0 1 0 0 0  0 0 1 0 0  0 0 0 1 0"/>
		</filter>
	</defs>
	<mask maskUnits="userSpaceOnUse" x="24.9" y="3.4" width="12.6" height="14.1" id="SVGID_11_">
		<g class="st13">
			<g>
				<defs>
					<rect id="SVGID_12_" x="24.9" y="3.4" width="12.6" height="14.1"/>
				</defs>
				<clipPath id="SVGID_14_">
					<use xlink:href="#SVGID_12_"  style="overflow:visible;"/>
				</clipPath>
				<rect x="24.4" y="3.4" class="st14" width="13.1" height="14.1"/>
				<g class="st4">
					<g>
						<defs>
							<rect id="SVGID_13_" x="24.4" y="3.4" width="13.1" height="14.1"/>
						</defs>
						<clipPath id="SVGID_17_" class="st14">
							<use xlink:href="#SVGID_13_"  style="overflow:visible;"/>
						</clipPath>
						<rect x="0" y="3.3" class="st15" width="51.6" height="14.1"/>
					</g>
				</g>
			</g>
		</g>
	</mask>
	<g class="st16">
		<g>
			<defs>
				<rect id="SVGID_48_" x="24.9" y="3.4" width="12.6" height="14.1"/>
			</defs>
			<clipPath id="SVGID_20_">
				<use xlink:href="#SVGID_48_"  style="overflow:visible;"/>
			</clipPath>
			<path class="st17" d="M34.3,7c-2.5,0-4.3,1.3-4.5,3.4c-0.2,2,1.3,3.4,3.8,3.4c0.8,0,2-0.2,3.1-0.5l-0.4,3.4
				c-1.1,0.4-3,0.7-4.7,0.7c-4.5,0-7.2-2.8-6.7-7.1c0.5-4.2,3.8-7.1,8.4-7.1c1.3,0,3,0.3,4.2,0.8l-0.4,3.4C36.3,7.3,35.2,7,34.3,7"
				/>
		</g>
	</g>
	<defs>
		<filter id="Adobe_OpacityMaskFilter_3_" filterUnits="userSpaceOnUse" x="37.8" y="3.4" width="13.8" height="14.1">
			<feColorMatrix  type="matrix" values="1 0 0 0 0  0 1 0 0 0  0 0 1 0 0  0 0 0 1 0"/>
		</filter>
	</defs>
	<mask maskUnits="userSpaceOnUse" x="37.8" y="3.4" width="13.8" height="14.1" id="SVGID_21_">
		<g class="st18">
			<g>
				<defs>
					<rect id="SVGID_3_" x="37.8" y="3.4" width="13.8" height="14.1"/>
				</defs>
				<clipPath id="SVGID_22_">
					<use xlink:href="#SVGID_3_"  style="overflow:visible;"/>
				</clipPath>
				<rect x="37.3" y="3.4" class="st19" width="14.7" height="14.1"/>
				<g class="st4">
					<g>
						<defs>
							<rect id="SVGID_6_" x="37.3" y="3.4" width="14.7" height="14.1"/>
						</defs>
						<clipPath id="SVGID_23_" class="st19">
							<use xlink:href="#SVGID_6_"  style="overflow:visible;"/>
						</clipPath>
						<rect x="0" y="3.3" class="st20" width="51.6" height="14.1"/>
					</g>
				</g>
			</g>
		</g>
	</mask>
	<g class="st21">
		<g>
			<defs>
				<rect id="SVGID_55_" x="37.8" y="3.4" width="13.8" height="14.1"/>
			</defs>
			<clipPath id="SVGID_24_">
				<use xlink:href="#SVGID_55_"  style="overflow:visible;"/>
			</clipPath>
			<path class="st22" d="M42.9,9.1h4c0-1.3-0.5-2.2-1.7-2.2C44,6.9,43.3,7.8,42.9,9.1 M51.2,12.1h-8.6c0.1,1.2,0.7,1.7,3,1.7
				c1.3,0,3.2-0.3,4.7-0.7l-0.4,3.5c-1.5,0.5-3.8,0.9-5.9,0.9c-4.2,0-6.7-2.3-6.1-6.9c0.5-4.3,3.6-7.2,7.7-7.2c4.1,0,6.5,2.7,6,6.8
				C51.5,10.8,51.4,11.5,51.2,12.1"/>
		</g>
	</g>
	<path class="st23" d="M67,9l-1,8.2h-4.6l0.9-7.8c0.2-1.5-0.5-2.1-1.9-2.1c-0.8,0-1.5,0.2-2.2,0.7L57,17.2h-4.6L54,4.1
		c0.8-0.1,1.5-0.1,2.3,0.4c2.1-0.7,4.4-0.8,6.4-0.8C65.8,3.7,67.4,5.3,67,9"/>
	<path class="st23" d="M73.2,9.3h3.9c0-1.3-0.5-2.2-1.7-2.2C74.2,7.1,73.5,8,73.2,9.3 M81.3,12.2h-8.4c0.1,1.1,0.7,1.7,2.9,1.7
		c1.3,0,3.2-0.3,4.6-0.7L80,16.6c-1.4,0.5-3.7,0.9-5.8,0.9c-4.1,0-6.5-2.2-6-6.7c0.5-4.2,3.5-7.1,7.5-7.1c4,0,6.4,2.7,5.9,6.7
		C81.6,11,81.5,11.7,81.3,12.2"/>
	<path class="st23" d="M91.5,13.8l-0.4,3.4c-1.3,0.2-2.5,0.3-3.4,0.3c-3.1,0-4.9-1.9-4.5-4.8l1.3-11.3L89.3,0l-0.5,3.9h3.7l-0.4,3.3
		h-3.7l-0.6,4.8c-0.1,1.2,0.6,1.9,1.8,1.9C90.3,13.9,90.9,13.8,91.5,13.8"/>
</g>
</svg>
