<svg xmlns="http://www.w3.org/2000/svg" viewBox="0 0 83.74 63.69"><defs><style>.cls-1{fill:none;stroke:#000;stroke-linecap:round;stroke-linejoin:round;}</style></defs><title>reactjs-uiux-development</title><g id="Layer_2" data-name="Layer 2"><g id="_1170px_grid" data-name="1170px grid"><path d="M21.93,38.56A2.58,2.58,0,1,0,19.36,36,2.57,2.57,0,0,0,21.93,38.56Zm0-4.48A1.9,1.9,0,1,1,20,36,1.9,1.9,0,0,1,21.93,34.08ZM33.86,35.9c0-1.58-2.16-2.94-5.48-3.71.18-.6.32-1.19.43-1.74.44-2.42.1-4.09-1-4.7s-2.69-.07-4.55,1.53A18.19,18.19,0,0,0,22,28.59c-.45-.48-.91-.92-1.35-1.31-1.86-1.6-3.48-2.15-4.55-1.53s-1.42,2.28-1,4.7a16.91,16.91,0,0,0,.44,1.77c-3.25.78-5.35,2.12-5.35,3.68s2.14,2.93,5.42,3.7a19.62,19.62,0,0,0-.51,2c-.45,2.42-.1,4.09,1,4.7a2,2,0,0,0,1,.25,6,6,0,0,0,3.58-1.79A18,18,0,0,0,22,43.46a16.19,16.19,0,0,0,1.34,1.3,6.07,6.07,0,0,0,3.58,1.79,2,2,0,0,0,1-.25c1.07-.61,1.41-2.28,1-4.7a18.38,18.38,0,0,0-.5-2C31.66,38.86,33.86,37.5,33.86,35.9ZM23.73,27.8a5.53,5.53,0,0,1,3.13-1.62,1.32,1.32,0,0,1,.64.15c.79.46,1,1.91.64,4a16,16,0,0,1-.42,1.73,27.58,27.58,0,0,0-3.39-.45,27.23,27.23,0,0,0-1.94-2.49A18.14,18.14,0,0,1,23.73,27.8ZM18.14,38.2c.25.44.52.84.78,1.26-.87-.09-1.69-.2-2.44-.35.26-.75.56-1.52.92-2.31C17.64,37.27,17.88,37.74,18.14,38.2ZM16.4,32.71c.82-.16,1.72-.29,2.68-.38-.32.5-.64,1-.94,1.51s-.5.94-.74,1.4A25.47,25.47,0,0,1,16.4,32.71Zm2.33,5.16c-.35-.62-.67-1.23-1-1.85.3-.61.62-1.23,1-1.84s.78-1.3,1.19-1.91c.67,0,1.37-.07,2.09-.07s1.33,0,2,.06c.41.61.81,1.25,1.19,1.92s.67,1.23,1,1.84c-.3.62-.62,1.23-1,1.85s-.68,1.13-1,1.67c-.67,0-1.37.07-2.11.07s-1.53,0-2.25-.08C19.41,39,19.06,38.44,18.73,37.87Zm7,.33c.26-.46.5-.93.74-1.4.36.8.67,1.58.93,2.33a24,24,0,0,1-2.46.34C25.23,39.05,25.5,38.64,25.75,38.2Zm0-4.36c-.31-.52-.63-1-.95-1.52a25.18,25.18,0,0,1,2.7.37,25.9,25.9,0,0,1-1,2.55C26.25,34.78,26,34.31,25.75,33.84ZM22,29.63c.51.59,1,1.23,1.51,1.92-.48,0-1,0-1.45,0s-1.06,0-1.58,0C20.93,30.87,21.43,30.22,22,29.63Zm-5.56-3.3a1.32,1.32,0,0,1,.64-.15,5.53,5.53,0,0,1,3.13,1.62,18.14,18.14,0,0,1,1.34,1.31,28.86,28.86,0,0,0-1.94,2.5,27.08,27.08,0,0,0-3.38.46,15.89,15.89,0,0,1-.43-1.75C15.36,28.24,15.6,26.79,16.39,26.33ZM10.84,35.9c0-1.14,1.84-2.33,4.89-3A28.57,28.57,0,0,0,17,36,30.36,30.36,0,0,0,15.81,39C12.71,38.25,10.84,37.05,10.84,35.9Zm9.32,8.35c-1.61,1.38-3,1.92-3.77,1.46s-1-1.91-.64-4a16.88,16.88,0,0,1,.51-2,27.47,27.47,0,0,0,3.11.43,26.18,26.18,0,0,0,2.13,2.75A18.36,18.36,0,0,1,20.16,44.25ZM22,42.41a24.41,24.41,0,0,1-1.7-2.17c.58,0,1.16,0,1.76,0s1.09,0,1.63,0C23.08,41,22.52,41.75,22,42.41Zm5.55,3.3c-.79.46-2.16-.08-3.77-1.46a18.36,18.36,0,0,1-1.34-1.32,27.06,27.06,0,0,0,2.12-2.74,25.84,25.84,0,0,0,3.13-.41,16.34,16.34,0,0,1,.5,1.94C28.53,43.8,28.29,45.26,27.5,45.71ZM28.09,39a29.34,29.34,0,0,0-1.2-3,27.22,27.22,0,0,0,1.28-3.19c3.13.71,5,1.92,5,3.07S31.27,38.29,28.09,39Z"/><path class="cls-1" d="M71.14,11.44V.5H.5V50.76H71.14V29.18"/><line class="cls-1" x1="18.92" y1="63.19" x2="52.71" y2="63.19"/><line class="cls-1" x1="27.3" y1="61.5" x2="27.3" y2="55"/><line class="cls-1" x1="44.33" y1="61.5" x2="44.33" y2="55"/><line class="cls-1" x1="77.03" y1="17.67" x2="72.47" y2="22.19"/><polyline class="cls-1" points="73.27 21.48 55.26 39.44 54.92 35.75"/><polyline class="cls-1" points="77.03 17.67 78.43 16.27 76.41 14.26 74.4 12.24 68.94 17.7 68.32 18.36"/><polyline class="cls-1" points="68.7 18.03 55.26 31.38 51.7 34.94 51.23 35.41 49.49 41.18 55.26 39.44 54.92 35.75 71.26 19.47"/><polyline class="cls-1" points="55.26 39.44 54.92 35.76 51.23 35.41"/><line class="cls-1" x1="62.21" y1="28.49" x2="54.03" y2="36.64"/><polyline class="cls-1" points="70.45 20.18 72.98 17.69 76.41 14.26"/><rect class="cls-1" x="75.42" y="9.01" width="6.8" height="5.7" transform="translate(14.7 59.2) rotate(-45)"/><line class="cls-1" x1="76.05" y1="10.6" x2="80.08" y2="14.62"/><rect class="cls-1" x="10.82" y="6.94" width="50" height="11"/><line class="cls-1" x1="10.82" y1="22.19" x2="60.82" y2="22.19"/></g></g></svg>