<svg xmlns="http://www.w3.org/2000/svg" viewBox="0 0 71.83 63.86"><defs><style>.cls-1{fill:none;stroke:#000;stroke-linecap:round;stroke-linejoin:round;}</style></defs><g id="Layer_2" data-name="Layer 2"><g id="_1170px_grid" data-name="1170px grid"><path class="cls-1" d="M71.33.5H.5V50.9H71.33V.5Z"/><line class="cls-1" x1="18.97" y1="63.36" x2="52.86" y2="63.36"/><line class="cls-1" x1="27.38" y1="61.66" x2="27.38" y2="55.15"/><line class="cls-1" x1="44.45" y1="61.66" x2="44.45" y2="55.15"/><path d="M35.8,29.49a3.62,3.62,0,1,0-3.61-3.61A3.62,3.62,0,0,0,35.8,29.49Zm0-6.28a2.67,2.67,0,1,1-2.66,2.67A2.67,2.67,0,0,1,35.8,23.21Zm16.73,2.55c0-2.22-3-4.12-7.69-5.2a23.51,23.51,0,0,0,.6-2.45c.63-3.39.15-5.73-1.36-6.59s-3.76-.1-6.37,2.15a24.9,24.9,0,0,0-1.89,1.84,24.9,24.9,0,0,0-1.89-1.84c-2.61-2.25-4.87-3-6.38-2.15s-2,3.2-1.35,6.59a24.15,24.15,0,0,0,.6,2.49c-4.54,1.08-7.5,3-7.5,5.16s3,4.11,7.61,5.19a24,24,0,0,0-.71,2.8c-.63,3.39-.15,5.73,1.35,6.59a2.71,2.71,0,0,0,1.37.35c1.37,0,3.1-.85,5-2.51a22.94,22.94,0,0,0,1.89-1.83,22.94,22.94,0,0,0,1.89,1.83c1.91,1.66,3.64,2.51,5,2.51a2.67,2.67,0,0,0,1.36-.35c1.51-.86,2-3.2,1.36-6.59a22.81,22.81,0,0,0-.7-2.76C49.45,29.91,52.53,28,52.53,25.76ZM38.33,14.39c1.72-1.48,3.25-2.27,4.38-2.27a1.77,1.77,0,0,1,.9.22c1.11.64,1.44,2.68.9,5.6-.15.77-.35,1.58-.59,2.41a38.48,38.48,0,0,0-4.76-.62,36.1,36.1,0,0,0-2.72-3.49A23.3,23.3,0,0,1,38.33,14.39ZM30.49,29c.35.61.72,1.18,1.09,1.76-1.22-.12-2.38-.28-3.43-.49A34.76,34.76,0,0,1,29.45,27C29.78,27.68,30.11,28.33,30.49,29ZM28,21.29a35.1,35.1,0,0,1,3.76-.53c-.45.69-.89,1.38-1.31,2.11s-.71,1.31-1,2A36.8,36.8,0,0,1,28,21.29Zm3.27,7.22c-.49-.86-.94-1.72-1.36-2.58.42-.86.87-1.72,1.36-2.58S32.4,21.52,33,20.66c.94-.06,1.91-.09,2.93-.09s1.86,0,2.74.08c.58.86,1.14,1.76,1.67,2.7s1,1.72,1.37,2.58c-.42.86-.87,1.72-1.37,2.58s-1,1.59-1.45,2.35c-.95.06-1.93.1-3,.1s-2.14,0-3.15-.11C32.26,30.1,31.78,29.32,31.31,28.51Zm9.84.48c.38-.66.7-1.31,1-2,.51,1.12.94,2.21,1.31,3.27-1.07.21-2.22.36-3.45.48C40.42,30.18,40.8,29.6,41.15,29Zm0-6.12c-.42-.74-.87-1.44-1.32-2.13,1.35.12,2.62.29,3.78.51a37.54,37.54,0,0,1-1.42,3.59C41.85,24.18,41.53,23.53,41.15,22.87ZM35.82,17c.72.82,1.42,1.72,2.12,2.69-.67,0-1.34,0-2,0s-1.49,0-2.22.05Q34.74,18.21,35.82,17ZM28,12.34a1.8,1.8,0,0,1,.91-.22c1.12,0,2.65.79,4.38,2.27a25.05,25.05,0,0,1,1.89,1.85,36.32,36.32,0,0,0-2.73,3.5,37.69,37.69,0,0,0-4.74.65c-.25-.85-.45-1.67-.6-2.45C26.59,15,26.91,13,28,12.34ZM20.25,25.76c0-1.6,2.57-3.27,6.86-4.27a37.72,37.72,0,0,0,1.78,4.44,37.23,37.23,0,0,0-1.67,4.13C22.86,29.06,20.25,27.38,20.25,25.76ZM33.31,37.47c-2.25,1.94-4.17,2.69-5.29,2.05s-1.43-2.68-.89-5.6a23.92,23.92,0,0,1,.71-2.76,38.77,38.77,0,0,0,4.37.6,38.47,38.47,0,0,0,3,3.86C34.57,36.3,33.93,36.92,33.31,37.47Zm2.51-2.58a35.08,35.08,0,0,1-2.38-3.05c.81,0,1.63.07,2.47.07s1.53,0,2.28-.06A36.87,36.87,0,0,1,35.82,34.89Zm7.79,4.63c-1.11.64-3-.11-5.28-2.05a25.1,25.1,0,0,1-1.89-1.85,35.63,35.63,0,0,0,3-3.84,37.2,37.2,0,0,0,4.4-.59,25.56,25.56,0,0,1,.7,2.73C45.05,36.84,44.72,38.88,43.61,39.52Zm.82-9.42a35.3,35.3,0,0,0-1.68-4.17,36.65,36.65,0,0,0,1.79-4.48c4.4,1,7,2.69,7,4.31S48.89,29.1,44.43,30.1Z"/></g></g></svg>