<svg xmlns="http://www.w3.org/2000/svg" viewBox="0 0 72.22 60.3"><defs><style>.cls-1{fill:none;stroke:#000;stroke-linecap:round;stroke-linejoin:round;}</style></defs><g id="Layer_2" data-name="Layer 2"><g id="_1170px_grid" data-name="1170px grid"><path class="cls-1" d="M45.93,55.26A29.65,29.65,0,1,1,58.2,20.5"/><path class="cls-1" d="M41.79,50.59c-2.93,5.68-7.06,9.21-11.64,9.21-8.87,0-16.06-13.27-16.06-29.65S21.28.5,30.15.5c7.39,0,13.62,9.21,15.49,21.76"/><path class="cls-1" d="M8.14,50c4.94-4.46,13-7.36,22-7.36a40.65,40.65,0,0,1,9.07,1"/><path class="cls-1" d="M8.14,10.28c4.94,4.47,13,7.37,22,7.37s17.08-2.9,22-7.37"/><line class="cls-1" x1="0.5" y1="30.15" x2="39.22" y2="30.15"/><line class="cls-1" x1="30.15" y1="59.8" x2="30.15" y2="0.5"/><path class="cls-1" d="M71.56,40.43a15.34,15.34,0,0,0,0-4.42H68.19a11,11,0,0,0-1.62-3.88L69,29.75a13.37,13.37,0,0,0-3.14-3.14L63.44,29a11.08,11.08,0,0,0-3.89-1.62V24a15.34,15.34,0,0,0-4.42,0v3.37A11,11,0,0,0,51.25,29l-2.39-2.38a13.52,13.52,0,0,0-3.13,3.14l2.38,2.38A11,11,0,0,0,46.49,36H43.12a14.45,14.45,0,0,0,0,4.42h3.37a11.08,11.08,0,0,0,1.62,3.89L45.73,46.7a13.67,13.67,0,0,0,3.13,3.13l2.39-2.38a11,11,0,0,0,3.88,1.62v3.37a14.45,14.45,0,0,0,4.42,0V49.07a11.08,11.08,0,0,0,3.89-1.62l2.37,2.38A13.52,13.52,0,0,0,69,46.7l-2.38-2.38a11.08,11.08,0,0,0,1.62-3.89ZM57.34,44.86A6.64,6.64,0,1,1,64,38.23,6.64,6.64,0,0,1,57.34,44.86Z"/></g></g></svg>