<?xml version="1.0" encoding="utf-8"?>
<!-- Generator: Adobe Illustrator 22.0.1, SVG Export Plug-In . SVG Version: 6.00 Build 0)  -->
<svg version="1.1" id="Layer_1" xmlns="http://www.w3.org/2000/svg" xmlns:xlink="http://www.w3.org/1999/xlink" x="0px" y="0px"
	 width="128px" height="21.1px" viewBox="0 0 128 21.1" style="enable-background:new 0 0 128 21.1;" xml:space="preserve">
<style type="text/css">
	.st0{fill:#FFFFFF;}
	.st1{fill:none;}
	.st2{clip-path:url(#SVGID_1_);fill:#FFFFFF;}
	.st3{clip-path:url(#SVGID_2_);fill:#FFFFFF;}
</style>
<polygon class="st0" points="230,-244.2 230.1,-262.3 223.4,-262.3 223.4,-267 241.5,-266.9 241.4,-262.2 234.8,-262.2 
	234.7,-244.1 "/>
<path class="st0" d="M184.8-245.2c4.1-0.5,7.4-4,7.4-8.2l0.1-9l-3.3,0l0-4.7l8,0.1l-0.1,13.7c-0.1,6.9-5.4,12.5-12.1,12.9
	L184.8-245.2z"/>
<polygon class="st0" points="220,-266.7 215.3,-266.7 210.2,-259.2 205.2,-266.8 200.5,-266.8 207.8,-255.7 200.3,-244.7 
	205,-244.7 210.1,-252.2 215.1,-244.6 219.8,-244.6 212.5,-255.7 "/>
<path class="st0" d="M220.5-244.2l-5.6,0l-4.8-7.3l-4.9,7.2l-5.6,0l7.7-11.4l-7.6-11.5l5.6,0l4.8,7.3l4.9-7.2l5.6,0l-7.7,11.4
	L220.5-244.2z M215.3-245l3.8,0l-7.1-10.7l7.2-10.6l-3.8,0l-5.3,7.8l-5.2-7.9l-3.8,0l7.1,10.7l-7.2,10.6l3.8,0l5.3-7.8L215.3-245z"
	/>
<rect x="-1036.5" y="-6768.8" class="st1" width="1920" height="8670"/>
<polygon class="st0" points="294,-237.2 294.1,-255.3 287.4,-255.3 287.4,-260 305.5,-259.9 305.4,-255.2 298.8,-255.2 
	298.7,-237.1 "/>
<path class="st0" d="M248.8-238.2c4.1-0.5,7.4-4,7.4-8.2l0.1-9l-3.3,0l0-4.7l8,0.1l-0.1,13.7c-0.1,6.9-5.4,12.5-12.1,12.9
	L248.8-238.2z"/>
<polygon class="st0" points="284,-259.7 279.3,-259.7 274.2,-252.2 269.2,-259.8 264.5,-259.8 271.8,-248.7 264.3,-237.7 
	269,-237.7 274.1,-245.2 279.1,-237.6 283.8,-237.6 276.5,-248.7 "/>
<path class="st0" d="M284.5-237.2l-5.6,0l-4.8-7.3l-4.9,7.2l-5.6,0l7.7-11.4l-7.6-11.5l5.6,0l4.8,7.3l4.9-7.2l5.6,0l-7.7,11.4
	L284.5-237.2z M279.3-238l3.8,0l-7.1-10.7l7.2-10.6l-3.8,0l-5.3,7.8l-5.2-7.9l-3.8,0l7.1,10.7l-7.2,10.6l3.8,0l5.3-7.8L279.3-238z"
	/>
<rect x="-972.5" y="-6761.8" class="st1" width="1920" height="8670"/>
<g>
	<g>
		<path class="st0" d="M67.5,4c0.8,0,1.5,0.1,2.1,0.3c0.6,0.2,1,0.4,1.4,0.7c0.4,0.3,0.6,0.7,0.8,1.1C71.9,6.5,72,7,72,7.5
			c0,0.6-0.1,1.1-0.3,1.5c-0.2,0.4-0.6,0.8-1.2,1.1c0.7,0.3,1.2,0.7,1.5,1.2c0.3,0.5,0.4,1,0.4,1.6c0,0.5-0.1,1-0.3,1.4
			c-0.2,0.5-0.5,0.9-0.9,1.2c-0.4,0.3-0.9,0.6-1.5,0.8c-0.6,0.2-1.3,0.3-2.1,0.3h-4.9V4H67.5z M65.3,6.5v2.6h2.1
			c0.7,0,1.2-0.1,1.5-0.4c0.3-0.3,0.4-0.6,0.4-1c0-0.4-0.1-0.7-0.4-0.9c-0.3-0.2-0.8-0.4-1.5-0.4H65.3z M65.3,11.3v2.9h2.3
			c0.8,0,1.3-0.1,1.6-0.4c0.3-0.3,0.5-0.6,0.5-1.1c0-0.4-0.1-0.8-0.4-1.1c-0.3-0.3-0.8-0.4-1.6-0.4H65.3z"/>
		<path class="st0" d="M78.2,16.9c-1.6,0-2.8-0.4-3.5-1.3c-0.8-0.9-1.1-2.1-1.1-3.8c0-1.6,0.4-2.8,1.2-3.7c0.8-0.9,2-1.4,3.5-1.4
			c1.6,0,2.8,0.4,3.5,1.3c0.7,0.9,1.1,2.1,1.1,3.8c0,1.6-0.4,2.8-1.2,3.7C80.9,16.4,79.7,16.9,78.2,16.9 M80.3,11.8
			c0-0.4,0-0.8-0.1-1.1c-0.1-0.3-0.2-0.6-0.3-0.8s-0.4-0.4-0.6-0.5c-0.3-0.1-0.6-0.2-1.1-0.2c-0.4,0-0.8,0.1-1.1,0.2
			c-0.3,0.1-0.5,0.3-0.6,0.5c-0.2,0.2-0.3,0.5-0.3,0.8c-0.1,0.3-0.1,0.7-0.1,1.1c0,0.4,0,0.8,0.1,1.1c0.1,0.3,0.2,0.6,0.3,0.8
			c0.2,0.2,0.4,0.4,0.6,0.5c0.3,0.1,0.6,0.2,1.1,0.2c0.4,0,0.8-0.1,1.1-0.2c0.3-0.1,0.5-0.3,0.6-0.5c0.1-0.2,0.2-0.5,0.3-0.8
			C80.3,12.6,80.3,12.2,80.3,11.8"/>
		<path class="st0" d="M88.5,16.9c-1.6,0-2.8-0.4-3.5-1.3c-0.8-0.9-1.1-2.1-1.1-3.8c0-1.6,0.4-2.8,1.2-3.7c0.8-0.9,2-1.4,3.5-1.4
			c1.6,0,2.8,0.4,3.5,1.3c0.7,0.9,1.1,2.1,1.1,3.8c0,1.6-0.4,2.8-1.2,3.7C91.2,16.4,90,16.9,88.5,16.9 M90.6,11.8
			c0-0.4,0-0.8-0.1-1.1c-0.1-0.3-0.2-0.6-0.3-0.8s-0.4-0.4-0.6-0.5c-0.3-0.1-0.6-0.2-1.1-0.2c-0.4,0-0.8,0.1-1.1,0.2
			c-0.3,0.1-0.5,0.3-0.6,0.5s-0.3,0.5-0.3,0.8c-0.1,0.3-0.1,0.7-0.1,1.1c0,0.4,0,0.8,0.1,1.1c0.1,0.3,0.2,0.6,0.3,0.8
			c0.2,0.2,0.4,0.4,0.6,0.5c0.3,0.1,0.6,0.2,1.1,0.2c0.4,0,0.8-0.1,1.1-0.2c0.3-0.1,0.5-0.3,0.6-0.5c0.1-0.2,0.2-0.5,0.3-0.8
			C90.6,12.6,90.6,12.2,90.6,11.8"/>
		<path class="st0" d="M94.5,3.1H97v13.6h-2.5V3.1z M100.9,6.9h3.1l-3.7,4.6l4.1,5.1h-3.1l-4.1-5.1L100.9,6.9z"/>
		<path class="st0" d="M105,4c0-0.4,0.1-0.8,0.4-1.1c0.3-0.3,0.7-0.4,1.1-0.4c0.2,0,0.4,0,0.6,0.1c0.2,0.1,0.4,0.2,0.5,0.3
			c0.1,0.1,0.2,0.3,0.3,0.5C108,3.6,108,3.8,108,4c0,0.2,0,0.4-0.1,0.6c-0.1,0.2-0.2,0.3-0.3,0.5c-0.1,0.1-0.3,0.2-0.5,0.3
			c-0.2,0.1-0.4,0.1-0.6,0.1c-0.4,0-0.8-0.1-1.1-0.4C105.1,4.8,105,4.4,105,4 M105.2,6.9h2.5v9.7h-2.5V6.9z"/>
		<path class="st0" d="M109.5,7.3c0.3-0.1,0.6-0.2,1-0.3c0.4-0.1,0.8-0.1,1.2-0.2c0.4,0,0.8-0.1,1.2-0.1c0.4,0,0.8,0,1.1,0
			c1.3,0,2.4,0.3,3.1,0.9c0.7,0.6,1.1,1.6,1.1,2.9v6.1h-2.5v-6c0-0.6-0.2-0.9-0.5-1.2c-0.3-0.2-0.7-0.3-1.3-0.3c-0.4,0-0.7,0-1.1,0
			c-0.3,0-0.6,0.1-0.8,0.1v7.4h-2.5V7.3z"/>
		<path class="st0" d="M128,17.1c0,0.7-0.1,1.2-0.3,1.8c-0.2,0.5-0.5,0.9-0.9,1.3c-0.4,0.3-0.9,0.6-1.5,0.8
			c-0.6,0.2-1.2,0.3-1.9,0.3c-0.5,0-1.1,0-1.7-0.1c-0.6-0.1-1.2-0.3-1.7-0.5l0.4-2.4c0.2,0.1,0.4,0.2,0.7,0.3
			c0.3,0.1,0.5,0.1,0.8,0.2c0.3,0,0.5,0.1,0.8,0.1c0.3,0,0.5,0,0.7,0c0.7,0,1.2-0.1,1.6-0.4c0.4-0.3,0.6-0.7,0.6-1.3v-0.4
			c-0.2,0.1-0.5,0.2-0.8,0.2c-0.3,0-0.6,0-0.8,0c-1.5,0-2.6-0.4-3.4-1.3c-0.8-0.9-1.2-2.1-1.2-3.8c0-1.6,0.4-2.9,1.3-3.8
			c0.8-0.9,2.1-1.4,3.8-1.4c0.3,0,0.6,0,0.9,0c0.3,0,0.6,0.1,1,0.1c0.3,0.1,0.6,0.1,0.9,0.2c0.3,0.1,0.6,0.2,0.8,0.3V17.1z
			 M121.9,11.8c0,0.5,0,0.9,0.1,1.2c0.1,0.3,0.2,0.6,0.4,0.8c0.2,0.2,0.4,0.4,0.7,0.5c0.3,0.1,0.7,0.2,1.1,0.2c0.3,0,0.6,0,0.8-0.1
			c0.2-0.1,0.4-0.1,0.5-0.2v-5c-0.2-0.1-0.4-0.1-0.6-0.1c-0.2,0-0.4,0-0.6,0c-0.5,0-0.8,0-1.1,0.1c-0.3,0.1-0.5,0.3-0.7,0.5
			c-0.2,0.2-0.3,0.5-0.4,0.8C122,10.9,121.9,11.3,121.9,11.8"/>
		<path class="st0" d="M25.1,11.1c0,0.2,0,0.4,0,0.7c0,0.3-0.1,0.6-0.2,0.9h-5.8v0.1c0,0.5,0.2,0.9,0.6,1.2c0.4,0.3,1,0.5,1.8,0.5
			c0.2,0,0.5,0,0.8,0c0.3,0,0.5-0.1,0.8-0.1c0.3-0.1,0.5-0.1,0.7-0.2c0.2-0.1,0.4-0.1,0.6-0.2l0.4,2.4c-0.5,0.2-1,0.3-1.6,0.4
			c-0.6,0.1-1.2,0.1-1.7,0.1c-1.7,0-2.9-0.4-3.8-1.2c-0.8-0.8-1.2-2.1-1.2-3.8c0-0.7,0.1-1.4,0.2-2c0.2-0.6,0.4-1.2,0.8-1.6
			c0.4-0.5,0.8-0.8,1.4-1.1c0.6-0.3,1.3-0.4,2.1-0.4C23.7,6.7,25.1,8.2,25.1,11.1 M19.1,10.7h3.6v-0.1c0-0.5-0.2-0.9-0.5-1.2
			c-0.3-0.3-0.8-0.4-1.4-0.4c-0.6,0-1,0.1-1.3,0.4C19.3,9.6,19.1,10,19.1,10.7L19.1,10.7L19.1,10.7z"/>
		<path class="st0" d="M26.7,7.3c0.2-0.1,0.4-0.2,0.7-0.2C27.7,7,28,7,28.3,6.9c0.3-0.1,0.7-0.1,1-0.1c0.4,0,0.7,0,1,0
			c1.7,0,3,0.4,3.8,1.3c0.8,0.9,1.2,2.1,1.2,3.6c0,0.9-0.1,1.6-0.3,2.3c-0.2,0.7-0.5,1.2-0.9,1.7c-0.4,0.4-0.9,0.8-1.5,1
			c-0.6,0.2-1.2,0.3-1.9,0.3c-0.3,0-0.5,0-0.7,0c-0.2,0-0.5-0.1-0.7-0.2v4.2h-2.5V7.3z M32.8,11.8c0-0.5,0-0.9-0.1-1.3
			c-0.1-0.3-0.2-0.6-0.4-0.8c-0.2-0.2-0.4-0.4-0.7-0.5c-0.3-0.1-0.7-0.1-1.1-0.1c-0.2,0-0.4,0-0.6,0c-0.2,0-0.4,0.1-0.6,0.1v5
			c0.1,0.1,0.3,0.1,0.5,0.2c0.2,0.1,0.5,0.1,0.8,0.1c0.5,0,0.8-0.1,1.1-0.2c0.3-0.1,0.5-0.3,0.7-0.5c0.2-0.2,0.3-0.5,0.4-0.8
			C32.8,12.7,32.8,12.3,32.8,11.8"/>
		<path class="st0" d="M44.8,11.1c0,0.2,0,0.4,0,0.7c0,0.3-0.1,0.6-0.2,0.9h-5.8v0.1c0,0.5,0.2,0.9,0.6,1.2c0.4,0.3,1,0.5,1.8,0.5
			c0.2,0,0.5,0,0.8,0c0.3,0,0.5-0.1,0.8-0.1c0.3-0.1,0.5-0.1,0.7-0.2c0.2-0.1,0.4-0.1,0.6-0.2l0.4,2.4c-0.5,0.2-1,0.3-1.6,0.4
			c-0.6,0.1-1.2,0.1-1.7,0.1c-1.7,0-2.9-0.4-3.8-1.2c-0.8-0.8-1.2-2.1-1.2-3.8c0-0.7,0.1-1.4,0.2-2c0.2-0.6,0.4-1.2,0.8-1.6
			c0.4-0.5,0.8-0.8,1.4-1.1c0.6-0.3,1.3-0.4,2.1-0.4C43.4,6.7,44.8,8.2,44.8,11.1 M38.8,10.7h3.6v-0.1c0-0.5-0.2-0.9-0.5-1.2
			c-0.3-0.3-0.8-0.4-1.4-0.4c-0.6,0-1,0.1-1.3,0.4C38.9,9.6,38.8,10,38.8,10.7L38.8,10.7L38.8,10.7z"/>
		<path class="st0" d="M54,16.3c-0.3,0.1-0.6,0.2-0.9,0.3c-0.3,0.1-0.7,0.1-1,0.2c-0.4,0.1-0.7,0.1-1.1,0.1c-0.4,0-0.7,0-1,0
			c-1.4,0-2.4-0.3-3.1-0.8c-0.6-0.5-1-1.3-1-2.3c0-0.6,0.1-1,0.3-1.4s0.5-0.7,0.8-1c0.3-0.2,0.7-0.4,1.2-0.5c0.5-0.1,1-0.2,1.6-0.2
			h1.7v-0.6c0-0.4-0.2-0.7-0.5-0.9C50.7,9.1,50.2,9,49.6,9c-0.6,0-1.1,0-1.6,0.1c-0.5,0.1-0.8,0.2-1.1,0.3l-0.4-2.3
			C47,7.1,47.5,7,48,6.9c0.5-0.1,1.1-0.1,1.8-0.1c0.6,0,1.2,0.1,1.7,0.2c0.5,0.1,1,0.3,1.3,0.6c0.4,0.3,0.7,0.7,0.9,1.1
			s0.3,1,0.3,1.7V16.3z M51.5,12.6h-1.7c-0.5,0-0.8,0.1-1,0.3c-0.2,0.2-0.3,0.4-0.3,0.8c0,0.2,0,0.4,0.1,0.6s0.2,0.3,0.3,0.3
			c0.1,0.1,0.3,0.1,0.5,0.1s0.4,0,0.6,0c0.3,0,0.5,0,0.8,0c0.3,0,0.5-0.1,0.8-0.1V12.6z"/>
		<path class="st0" d="M55.4,4.4h2.5v2.5h3.3v2.4h-3.3v3.8c0,0.5,0.1,0.8,0.3,1c0.2,0.2,0.5,0.3,0.9,0.3c0.4,0,0.8,0,1.1-0.1
			c0.4-0.1,0.7-0.2,0.9-0.3l0.4,2.4c-0.7,0.3-1.5,0.4-2.4,0.4c-0.5,0-1-0.1-1.5-0.2c-0.5-0.1-0.8-0.3-1.2-0.6
			c-0.3-0.3-0.6-0.7-0.8-1.1c-0.2-0.5-0.3-1.1-0.3-1.8V4.4z"/>
		<g>
			<defs>
				<path id="SVGID_5_" d="M5.1,6.8H10c1.7,0,2.3,0.6,2.3,1.6c0,0.9-0.6,1.6-2.3,1.6H5.1V6.8z M5.1,4.3V17h2.6v-4.6h1.8l3,4.6h3
					l-3.2-4.9c1.9-0.6,2.7-2.1,2.7-3.7c0-2.4-1.4-4-4.9-4H5.1z"/>
			</defs>
			<clipPath id="SVGID_1_">
				<use xlink:href="#SVGID_5_"  style="overflow:visible;"/>
			</clipPath>
			<rect x="2" y="1.2" class="st2" width="16.6" height="18.9"/>
		</g>
	</g>
	<g>
		<defs>
			<path id="SVGID_7_" d="M6.1,3.1l-3,2.5v0l3,2.5c0,0,0.1,0,0.1,0c0.1,0,0.2-0.1,0.2-0.2V3.3c0,0,0-0.1,0-0.1c0,0-0.1-0.1-0.1-0.1
				C6.1,3.1,6.1,3.1,6.1,3.1"/>
		</defs>
		<clipPath id="SVGID_2_">
			<use xlink:href="#SVGID_7_"  style="overflow:visible;"/>
		</clipPath>
		<rect class="st3" width="9.5" height="11.2"/>
	</g>
</g>
</svg>
