<?xml version="1.0" encoding="utf-8"?>
<!-- Generator: Adobe Illustrator 25.2.0, SVG Export Plug-In . SVG Version: 6.00 Build 0)  -->
<svg version="1.1" id="Layer_1" xmlns="http://www.w3.org/2000/svg" xmlns:xlink="http://www.w3.org/1999/xlink" x="0px" y="0px"
	 viewBox="0 0 73.61 81" style="enable-background:new 0 0 73.61 81;" xml:space="preserve">
<style type="text/css">
	.st0{fill:none;stroke:#010101;stroke-linecap:round;stroke-linejoin:round;stroke-miterlimit:22.9256;}
	.st1{fill:none;stroke:#010101;stroke-miterlimit:10;}
</style>
<path class="st0" d="M14.3,16.03H4.53c-2.23,0-4.03,1.81-4.03,4.03v44.7c0,2.23,1.81,4.03,4.03,4.03h64.54
	c2.23,0,4.03-1.81,4.03-4.03v-44.7c0-2.23-1.81-4.03-4.03-4.03h-8.44"/>
<polyline class="st0" points="42.37,72 42.78,80.5 30.83,80.5 31.24,72 "/>
<line class="st0" x1="23.55" y1="80.5" x2="50.06" y2="80.5"/>
<line class="st0" x1="17.98" y1="60.71" x2="33.86" y2="60.71"/>
<line class="st0" x1="39.75" y1="60.71" x2="55.63" y2="60.71"/>
<path class="st1" d="M54.02,42.73V39.4c0-0.57-0.46-1.04-1.04-1.04h-15.3v-2.19h1.47c0.52,0,0.95-0.38,1.03-0.89l0.6-4.26
	c0.66-0.21,1.31-0.48,1.92-0.79l3.43,2.58c0.42,0.31,1,0.27,1.36-0.1l3.55-3.54c0.36-0.36,0.4-0.94,0.09-1.36l-2.58-3.43
	c0.31-0.62,0.58-1.26,0.8-1.92l4.25-0.6c0.52-0.07,0.89-0.51,0.89-1.03v-5.01c0-0.52-0.37-0.96-0.89-1.03l-4.25-0.6
	c-0.22-0.66-0.49-1.31-0.8-1.92l2.58-3.43c0.31-0.42,0.27-1-0.09-1.36l-3.55-3.55c-0.36-0.36-0.94-0.4-1.36-0.09L42.7,6.44
	c-0.61-0.31-1.26-0.58-1.92-0.8l-0.6-4.25c-0.07-0.52-0.51-0.89-1.03-0.89h-5.01c-0.52,0-0.95,0.37-1.03,0.89l-0.6,4.25
	c-0.66,0.22-1.3,0.49-1.92,0.8l-3.43-2.58c-0.42-0.31-1-0.27-1.36,0.09L22.25,7.5c-0.36,0.36-0.4,0.94-0.09,1.36l2.58,3.43
	c-0.31,0.61-0.58,1.26-0.8,1.92l-4.25,0.6c-0.52,0.07-0.89,0.51-0.89,1.03v5.01c0,0.52,0.37,0.96,0.89,1.03l4.25,0.6
	c0.22,0.66,0.49,1.31,0.8,1.92l-2.58,3.43c-0.31,0.42-0.27,1,0.09,1.36l3.55,3.54c0.36,0.37,0.94,0.42,1.36,0.1l3.43-2.58
	c0.61,0.31,1.26,0.58,1.92,0.79l0.6,4.26c0.07,0.51,0.51,0.89,1.03,0.89h1.47v2.19h-15.3c-0.57,0-1.04,0.46-1.04,1.04v3.33
	c-2.2,0.48-3.85,2.44-3.85,4.78c0,2.69,2.19,4.89,4.89,4.89c2.69,0,4.88-2.2,4.88-4.89c0-2.34-1.65-4.3-3.84-4.78v-2.3h14.26v2.3
	c-2.19,0.48-3.85,2.44-3.85,4.78c0,2.69,2.19,4.89,4.88,4.89c2.7,0,4.89-2.2,4.89-4.89c0-2.34-1.65-4.3-3.85-4.78v-2.3h14.26v2.3
	c-2.19,0.48-3.84,2.44-3.84,4.78c0,2.69,2.19,4.89,4.88,4.89c2.7,0,4.89-2.2,4.89-4.89C57.87,45.17,56.22,43.21,54.02,42.73z
	 M36.64,26.77c-4.64,0-8.43-3.79-8.43-8.44c0-4.64,3.79-8.43,8.43-8.43c4.65,0,8.44,3.79,8.44,8.43
	C45.08,22.98,41.29,26.77,36.64,26.77z"/>
</svg>
