<svg xmlns="http://www.w3.org/2000/svg" viewBox="0 0 63.08 65.74"><defs><style>.cls-1{fill:none;stroke:#000;stroke-linecap:round;stroke-linejoin:round;}</style></defs><title>social-media-advertising</title><g id="Layer_2" data-name="Layer 2"><g id="_1170px_grid" data-name="1170px grid"><path class="cls-1" d="M10.35,33.51,12.16,41a7.4,7.4,0,0,1,4,.39c1.66.83,6.11,1.91,8.8,4.11l2.14,1.11,1.52-.77V44.26L23.15,22.32l-1.22-1-1.37.1-2,3.62-3,4.15L12.79,31.8l-2.44,1.32Z"/><path class="cls-1" d="M20.84,21.35l.27-.07a1.74,1.74,0,0,1,2.1,1.27l5.43,21.87a1.73,1.73,0,0,1-1.27,2.1l-.27.07c-.94.23-8.87-6.9-15.08-5.36L4.29,43.15a2.37,2.37,0,0,1-2.85-1.72L.57,37.9a2.35,2.35,0,0,1,1.71-2.84L10,33.14c6.21-1.54,9.88-11.56,10.82-11.79Z"/><path class="cls-1" d="M27.67,28.85a4.39,4.39,0,0,1,2,8.19"/><path class="cls-1" d="M29.6,25a7.84,7.84,0,0,1,3.63,14.61"/><line class="cls-1" x1="10.16" y1="33.1" x2="12.17" y2="41.19"/><path class="cls-1" d="M10.32,41.65c.76,1.71.76,3.69,2.28,5.13l2.55,2.44a1.49,1.49,0,0,1-.62,2.28l-2.76.68a2.16,2.16,0,0,1-2.3-1L5.23,42.91l5.09-1.26Z"/><path d="M30.38,8.87l1.1,3.79-1.58.45L28.81,9.33l-.75.21L27.67,8.2,28.41,8l0-.11c-.08-.31-.19-.62-.26-.94a1.49,1.49,0,0,1,.36-1.41,1.62,1.62,0,0,1,.71-.43l1.23-.35h0L30.84,6l-.17,0L30,6.27a.32.32,0,0,0-.25.4c.07.28.16.56.25.85l1.2-.35c.08.47.16.92.25,1.39Z"/><path d="M50.3,20a1.68,1.68,0,0,1-1.23-.41,1.63,1.63,0,0,1-.44-.59,1.63,1.63,0,0,0,.7-.1,1.69,1.69,0,0,1-1.17-.73,1.55,1.55,0,0,1-.29-.79,1.63,1.63,0,0,0,.75.13,1.71,1.71,0,0,1-.73-2.17,4.82,4.82,0,0,0,3.61,1.39.85.85,0,0,0,0-.17,1.67,1.67,0,0,1,1.45-2,1.6,1.6,0,0,1,1.21.35.16.16,0,0,0,.15,0,3.41,3.41,0,0,0,.83-.42l.09-.06a1.31,1.31,0,0,1-.22.54c-.11.15-.23.29-.35.43a3.26,3.26,0,0,0,.87-.34,2.66,2.66,0,0,1-.57.77.45.45,0,0,0-.14.42A4.74,4.74,0,0,1,48,21l-.1-.05A3.45,3.45,0,0,0,50.3,20Z"/><path d="M58.59,42.19l-1.49.12v-.15c-.07-.79-.13-1.58-.2-2.37a1.58,1.58,0,0,0-.1-.49A.73.73,0,0,0,55.6,39a.86.86,0,0,0-.29.76c.07.83.13,1.67.2,2.51v.16L54,42.56l-.38-4.63,1.49-.12.05.63.08-.12a1.53,1.53,0,0,1,1.57-.73,1.49,1.49,0,0,1,1.31,1,3.09,3.09,0,0,1,.2.78c.09.92.15,1.85.23,2.78Z"/><path d="M51.27,38.12,52.75,38l.37,4.64-1.47.12Z"/><path d="M51.88,35.75a.77.77,0,0,1,.87.73.78.78,0,0,1-.75.87.8.8,0,1,1-.12-1.6Z"/><path d="M36.93,57.8A1.29,1.29,0,1,1,38.31,59a1.29,1.29,0,0,1-1.38-1.19m-.7.06a2,2,0,1,0,1.83-2.13,2,2,0,0,0-1.83,2.13m3.42-2.33a.48.48,0,0,0,.5.43.47.47,0,0,0-.07-.93.47.47,0,0,0-.43.5M36.89,61a2.06,2.06,0,0,1-.73-.07,1.17,1.17,0,0,1-.46-.26,1.1,1.1,0,0,1-.32-.42,2,2,0,0,1-.19-.71c0-.4-.06-.52-.14-1.55S35,56.79,35,56.38a2,2,0,0,1,.07-.72,1.35,1.35,0,0,1,.26-.47,1.21,1.21,0,0,1,.42-.32,2.3,2.3,0,0,1,.71-.19c.4,0,.53-.06,1.56-.13s1.15-.09,1.56-.1a2.22,2.22,0,0,1,.72.08,1.21,1.21,0,0,1,.47.26,1.12,1.12,0,0,1,.32.42,2.3,2.3,0,0,1,.19.7c0,.41.06.53.13,1.56s.09,1.15.1,1.56a2.25,2.25,0,0,1-.08.73,1.29,1.29,0,0,1-.25.46,1.13,1.13,0,0,1-.43.32,1.83,1.83,0,0,1-.7.19c-.41.05-.53.06-1.56.14S37.3,61,36.89,61m-.56-7a3,3,0,0,0-.92.25,2,2,0,0,0-.65.5,1.82,1.82,0,0,0-.39.72,2.78,2.78,0,0,0-.11.95c0,.41,0,.54.1,1.59s.09,1.18.14,1.59a2.69,2.69,0,0,0,.25.92,1.86,1.86,0,0,0,.49.65,1.89,1.89,0,0,0,.72.39,2.81,2.81,0,0,0,.95.11c.41,0,.54,0,1.59-.09s1.18-.1,1.59-.15a2.62,2.62,0,0,0,.92-.25,1.78,1.78,0,0,0,.65-.49,1.91,1.91,0,0,0,.4-.72,3.09,3.09,0,0,0,.11-1c0-.41,0-.54-.1-1.59s-.09-1.18-.14-1.59a2.94,2.94,0,0,0-.25-.92,1.93,1.93,0,0,0-.5-.65,1.88,1.88,0,0,0-.71-.4,3.13,3.13,0,0,0-.95-.11c-.42,0-.55,0-1.6.1s-1.18.09-1.59.14"/><rect class="cls-1" x="22.17" y="1.56" width="14.85" height="14.85" rx="3.08" transform="translate(-1.33 8.79) rotate(-16.53)"/><rect class="cls-1" x="44.28" y="10.54" width="14.85" height="14.85" rx="3.08" transform="translate(-2.38 9.55) rotate(-10.32)"/><rect class="cls-1" x="47.41" y="31.79" width="14.85" height="14.85" rx="3.08" transform="translate(-2.86 4.34) rotate(-4.42)"/><rect class="cls-1" x="31.04" y="50.07" width="14.85" height="14.85" rx="3.08" transform="translate(-4.32 3.14) rotate(-4.42)"/></g></g></svg>