<svg xmlns="http://www.w3.org/2000/svg" viewBox="0 0 63.09 65.75"><defs><style>.cls-1{fill:none;stroke:#000;stroke-linecap:round;stroke-linejoin:round;}</style></defs><g id="Layer_2" data-name="Layer 2"><g id="_1170px_grid" data-name="1170px grid"><path class="cls-1" d="M20.84,21.35l.27-.06a1.73,1.73,0,0,1,2.1,1.26l5.43,21.89a1.74,1.74,0,0,1-1.26,2.1l-.27.06c-.94.24-8.87-6.9-15.08-5.36L4.29,43.16a2.37,2.37,0,0,1-2.85-1.72L.57,37.91a2.35,2.35,0,0,1,1.71-2.84L10,33.15c6.21-1.54,9.89-11.56,10.82-11.8Z"/><path class="cls-1" d="M27.68,28.86a4.39,4.39,0,0,1,2,8.19"/><path class="cls-1" d="M29.61,25a7.84,7.84,0,0,1,3.63,14.61"/><line class="cls-1" x1="10.16" y1="33.11" x2="12.17" y2="41.2"/><path class="cls-1" d="M10.32,41.66c.76,1.71.77,3.69,2.28,5.14l2.56,2.44a1.49,1.49,0,0,1-.63,2.27l-2.76.68a2.16,2.16,0,0,1-2.3-1L5.23,42.92l5.09-1.26Z"/><path d="M30.39,8.87l1.1,3.79-1.58.46-1.1-3.79-.74.21L27.68,8.2,28.42,8l0-.11c-.09-.31-.19-.62-.26-.94a1.5,1.5,0,0,1,.35-1.41,1.6,1.6,0,0,1,.72-.42c.4-.13.82-.24,1.23-.36h0L30.84,6l-.17,0L30,6.27a.31.31,0,0,0-.25.4c.07.28.16.56.24.85l1.2-.34c.09.46.17.92.25,1.38Z"/><path d="M50.31,20a1.73,1.73,0,0,1-1.23-.4,1.63,1.63,0,0,1-.44-.59,1.71,1.71,0,0,0,.71-.11,1.66,1.66,0,0,1-1.18-.73,1.64,1.64,0,0,1-.29-.78,1.77,1.77,0,0,0,.75.12,1.71,1.71,0,0,1-.73-2.17,4.75,4.75,0,0,0,3.61,1.39l0-.16a1.67,1.67,0,0,1,1.45-2,1.59,1.59,0,0,1,1.2.35.12.12,0,0,0,.15,0,3.21,3.21,0,0,0,.83-.41l.1-.06A1.43,1.43,0,0,1,55,15c-.11.15-.24.29-.36.43A3.64,3.64,0,0,0,55.5,15a2.81,2.81,0,0,1-.57.77.44.44,0,0,0-.14.42A4.74,4.74,0,0,1,48,21l-.09-.06A3.38,3.38,0,0,0,50.31,20Z"/><path d="M58.6,42.2l-1.49.12v-.15c-.06-.79-.12-1.58-.19-2.37a1.94,1.94,0,0,0-.11-.49A.73.73,0,0,0,55.61,39a.86.86,0,0,0-.29.76c.07.83.14,1.67.2,2.51l0,.16-1.49.12-.37-4.63,1.48-.12.05.63.08-.12a1.53,1.53,0,0,1,1.57-.73,1.49,1.49,0,0,1,1.31,1,3.09,3.09,0,0,1,.2.78c.09.92.16,1.85.23,2.78Z"/><path d="M51.28,38.13,52.76,38l.38,4.64-1.48.12Z"/><path d="M51.89,35.75a.81.81,0,1,1-.74.87A.79.79,0,0,1,51.89,35.75Z"/><path d="M36.94,57.82a1.29,1.29,0,1,1,2.57-.19,1.29,1.29,0,1,1-2.57.19m-.7,0a2,2,0,1,0,1.83-2.13,2,2,0,0,0-1.83,2.13m3.42-2.33a.47.47,0,0,0,.5.43.46.46,0,0,0,.43-.5.47.47,0,1,0-.93.07M36.9,61a2.25,2.25,0,0,1-.73-.08,1.17,1.17,0,0,1-.46-.26,1.14,1.14,0,0,1-.33-.42,2.09,2.09,0,0,1-.18-.7c-.05-.41-.06-.53-.14-1.56S35,56.81,35,56.4a2.25,2.25,0,0,1,.08-.73,1.17,1.17,0,0,1,.26-.46,1.23,1.23,0,0,1,.42-.33,2.1,2.1,0,0,1,.71-.18c.4-.05.52-.06,1.55-.14s1.16-.08,1.56-.1a2.25,2.25,0,0,1,.73.08,1.21,1.21,0,0,1,.47.26,1.34,1.34,0,0,1,.32.42,2.3,2.3,0,0,1,.19.71c0,.4.06.52.13,1.55s.09,1.16.1,1.57a2.22,2.22,0,0,1-.08.72,1.21,1.21,0,0,1-.26.47,1.23,1.23,0,0,1-.42.32,2.3,2.3,0,0,1-.7.19c-.41,0-.53.06-1.56.13s-1.15.09-1.56.1m-.56-7a2.69,2.69,0,0,0-.92.25,1.78,1.78,0,0,0-.65.49,1.89,1.89,0,0,0-.39.72,2.58,2.58,0,0,0-.11,1c0,.41,0,.54.09,1.59s.1,1.18.15,1.59a2.69,2.69,0,0,0,.25.92,1.78,1.78,0,0,0,.49.65,1.91,1.91,0,0,0,.72.4,3.09,3.09,0,0,0,1,.11c.41,0,.54,0,1.59-.1s1.18-.09,1.59-.14a2.94,2.94,0,0,0,.92-.25,1.93,1.93,0,0,0,.65-.5,1.84,1.84,0,0,0,.4-.72,3,3,0,0,0,.11-.95c0-.41,0-.54-.1-1.59s-.09-1.18-.14-1.59a2.94,2.94,0,0,0-.25-.92,1.93,1.93,0,0,0-.5-.65,1.82,1.82,0,0,0-.72-.39,2.55,2.55,0,0,0-.95-.11c-.41,0-.54,0-1.59.09s-1.18.1-1.59.15"/><rect class="cls-1" x="22.18" y="1.56" width="14.86" height="14.86" rx="3.08" transform="matrix(0.96, -0.28, 0.28, 0.96, -1.33, 8.79)"/><rect class="cls-1" x="44.29" y="10.54" width="14.86" height="14.86" rx="3.08" transform="translate(-2.38 9.56) rotate(-10.32)"/><rect class="cls-1" x="47.42" y="31.8" width="14.86" height="14.86" rx="3.08" transform="translate(-2.86 4.34) rotate(-4.42)"/><rect class="cls-1" x="31.05" y="50.08" width="14.86" height="14.86" rx="3.08" transform="translate(-4.32 3.14) rotate(-4.42)"/></g></g></svg>