<?xml version="1.0" encoding="utf-8"?>
<!-- Generator: Adobe Illustrator 25.2.0, SVG Export Plug-In . SVG Version: 6.00 Build 0)  -->
<svg version="1.1" id="Layer_1" xmlns="http://www.w3.org/2000/svg" xmlns:xlink="http://www.w3.org/1999/xlink" x="0px" y="0px"
	 viewBox="0 0 73.61 74.2" style="enable-background:new 0 0 73.61 74.2;" xml:space="preserve">
<style type="text/css">
	.st0{fill:none;stroke:#010101;stroke-linecap:round;stroke-linejoin:round;stroke-miterlimit:22.9256;}
	.st1{fill:#010101;}
</style>
<polyline class="st0" points="13.35,9.24 0.5,9.24 0.5,62 73.11,62 73.11,30.25 73.11,9.24 57.54,9.24 "/>
<polyline class="st0" points="42.37,65.2 42.78,73.7 30.83,73.7 31.24,65.2 "/>
<line class="st0" x1="23.55" y1="73.7" x2="50.06" y2="73.7"/>
<path class="st1" d="M52.6,29.8c-2.72,0-4.93,2.21-4.93,4.93c0,2.72,2.21,4.93,4.93,4.93c2.72,0,4.93-2.21,4.93-4.93
	C57.54,32.01,55.32,29.8,52.6,29.8z M52.6,38.57c-2.11,0-3.83-1.72-3.83-3.83c0-2.12,1.72-3.84,3.83-3.84
	c2.12,0,3.84,1.72,3.84,3.84C56.44,36.85,54.72,38.57,52.6,38.57z"/>
<g>
	<path class="st1" d="M23.32,30.19h5.45h2.74h5.45c0.3,0,0.55-0.24,0.55-0.55c0-0.3-0.24-0.55-0.55-0.55h-5.45h-2.74h-5.45
		c-0.3,0-0.55,0.24-0.55,0.55C22.78,29.95,23.02,30.19,23.32,30.19z"/>
	<path class="st1" d="M36.97,38.16h-5.45h-2.74h-5.45c-0.3,0-0.55,0.24-0.55,0.55c0,0.3,0.24,0.55,0.55,0.55h5.45h2.74h5.45
		c0.3,0,0.55-0.24,0.55-0.55C37.52,38.41,37.27,38.16,36.97,38.16z"/>
	<path class="st1" d="M36.97,33.63h-5.45v0h-8.19c-0.3,0-0.55,0.24-0.55,0.55c0,0.3,0.24,0.55,0.55,0.55h5.45v0h8.19
		c0.3,0,0.55-0.24,0.55-0.55C37.52,33.88,37.27,33.63,36.97,33.63z"/>
</g>
<path class="st1" d="M63.7,32.64C63.7,32.64,63.7,32.64,63.7,32.64l-2.06-0.36c-0.2-0.76-0.51-1.5-0.92-2.15l1.21-1.76
	c0.28-0.41,0.23-0.97-0.13-1.32l-1.52-1.51c-0.35-0.35-0.9-0.4-1.32-0.12l-1.7,1.2c-0.68-0.4-1.43-0.71-2.18-0.87l-0.39-2.1
	c-0.1-0.49-0.53-0.84-1.02-0.84h-0.02V2.09c0-1.15-0.94-2.09-2.09-2.09H26.94c-0.14,0-0.28,0.06-0.39,0.16l-8.51,8.51
	c-0.1,0.1-0.17,0.24-0.17,0.39c0,0,0,0.01,0,0.01v35.51c0,1.15,0.94,2.09,2.09,2.09h31.57c0,0,0,0,0.01,0h2.14
	c0.5,0,0.93-0.35,1.02-0.85l0.35-2.05c0.78-0.21,1.53-0.51,2.16-0.92l1.76,1.21c0.42,0.27,0.97,0.22,1.31-0.13l1.52-1.52
	c0.35-0.35,0.41-0.91,0.12-1.32l-1.19-1.7c0.4-0.7,0.71-1.45,0.87-2.17l2.1-0.39c0.49-0.09,0.84-0.52,0.84-1.02v-2.14
	C64.55,33.16,64.19,32.73,63.7,32.64z M26.4,1.86v5.66c0,0.55-0.45,1-1,1h-5.66L26.4,1.86z M19.96,45.58
	c-0.55,0-0.99-0.44-0.99-0.99V9.61h6.43c1.15,0,2.09-0.94,2.09-2.09V1.09h24.08c0.55,0,0.99,0.45,0.99,1v20.7h-1.03
	c-0.5,0-0.93,0.36-1.02,0.85l-0.36,2.05c-0.78,0.21-1.53,0.51-2.16,0.92l-1.75-1.21c-0.41-0.28-0.97-0.23-1.32,0.13l-1.52,1.52
	c-0.35,0.35-0.41,0.91-0.12,1.32l0.51,0.73l0.61,1.09c-0.37,0.67-0.66,1.37-0.8,2.06l-2.09,0.39c-0.48,0.09-0.82,0.51-0.84,0.99
	l-0.01,1.09v1.08c0,0.5,0.36,0.93,0.85,1.02l2.05,0.36c0.09,0.33,0.2,0.66,0.33,0.98l0.54,1.09c0.02,0.03,0.03,0.06,0.04,0.08
	l-1.2,1.76c-0.27,0.41-0.22,0.97,0.13,1.32l1.52,1.52c0.35,0.35,0.91,0.4,1.32,0.12l1.7-1.2c0.68,0.4,1.43,0.71,2.18,0.87l0.35,1.85
	H19.96z M61.4,36.15c-0.39,0.08-0.7,0.37-0.81,0.76c-0.18,0.67-0.45,1.32-0.8,1.94c-0.2,0.36-0.19,0.78,0.04,1.11l1.21,1.68
	l-1.45,1.51l-1.76-1.21c-0.33-0.22-0.75-0.23-1.11-0.03c-0.6,0.35-1.25,0.62-1.94,0.8c-0.39,0.1-0.69,0.42-0.76,0.82l-0.34,2.05
	l-1.93,0.04c-0.05-0.02-0.11-0.03-0.17-0.03l-0.39-2.06c-0.07-0.39-0.37-0.7-0.76-0.81c-0.69-0.18-1.34-0.45-1.94-0.8
	c-0.16-0.09-0.35-0.14-0.53-0.14c-0.2,0-0.41,0.06-0.59,0.18l-1.68,1.21l-1.51-1.45l1.2-1.75c0.23-0.33,0.24-0.75,0.04-1.11
	c-0.36-0.62-0.63-1.27-0.8-1.94c-0.1-0.39-0.42-0.69-0.81-0.76l-2.05-0.34l-0.05-2.09l2.09-0.39c0.39-0.08,0.71-0.37,0.81-0.76
	c0.18-0.66,0.45-1.32,0.8-1.94c0.2-0.35,0.19-0.78-0.03-1.11l-1.21-1.69l1.45-1.51l1.76,1.21c0.33,0.22,0.75,0.23,1.11,0.03
	c0.6-0.35,1.25-0.62,1.94-0.8c0.39-0.1,0.69-0.42,0.76-0.81l0.34-2.05l2.09-0.05l0.39,2.09c0.07,0.39,0.37,0.71,0.76,0.81
	c0.69,0.18,1.34,0.45,1.94,0.8c0.35,0.2,0.77,0.19,1.11-0.04l1.68-1.21l1.51,1.45l-1.2,1.76c-0.23,0.33-0.24,0.75-0.04,1.11
	c0.36,0.62,0.63,1.28,0.8,1.94c0.1,0.39,0.42,0.69,0.82,0.76l2.05,0.38l0.04,2.05L61.4,36.15z"/>
<path class="st1" d="M35.76,23.25c4.46,0,8.09-3.63,8.09-8.09s-3.63-8.09-8.09-8.09c-4.46,0-8.08,3.63-8.08,8.09
	S31.3,23.25,35.76,23.25z M35.76,8.16c3.86,0,7,3.14,7,7s-3.14,7-7,7c-3.85,0-6.99-3.14-6.99-7S31.91,8.16,35.76,8.16z"/>
</svg>
