<svg xmlns="http://www.w3.org/2000/svg" viewBox="0 0 63 63"><defs><style>.cls-1{fill:none;stroke:#000;stroke-linecap:round;stroke-linejoin:round;}</style></defs><g id="Layer_2" data-name="Layer 2"><g id="_1170px_grid" data-name="1170px grid"><rect class="cls-1" x="24.63" y="-5.47" width="13.75" height="73.93" transform="translate(-13.05 31.5) rotate(-45)"/><line class="cls-1" x1="15.91" y1="6.19" x2="12" y2="10.1"/><line class="cls-1" x1="22.73" y1="13.01" x2="18.82" y2="16.92"/><line class="cls-1" x1="29.54" y1="19.82" x2="25.63" y2="23.74"/><line class="cls-1" x1="36.36" y1="26.64" x2="32.45" y2="30.55"/><line class="cls-1" x1="43.18" y1="33.46" x2="39.26" y2="37.37"/><line class="cls-1" x1="49.99" y1="40.27" x2="46.08" y2="44.18"/><line class="cls-1" x1="56.81" y1="47.09" x2="52.9" y2="51"/><line class="cls-1" x1="50.57" y1="20.46" x2="42.41" y2="28.54"/><polyline class="cls-1" points="28.78 42.34 11.64 59.39 11.03 52.8"/><polyline class="cls-1" points="50.57 20.46 53.08 17.96 49.47 14.36 45.87 10.75 36.1 20.52 35 21.69"/><polyline class="cls-1" points="21.34 35.44 11.64 44.98 5.27 51.35 4.44 52.19 1.33 62.5 11.64 59.39 11.03 52.8 24.84 39.09"/><polyline class="cls-1" points="11.64 59.39 11.03 52.8 4.44 52.18"/><line class="cls-1" x1="24.06" y1="39.81" x2="9.44" y2="54.39"/><polyline class="cls-1" points="38.81 24.94 43.34 20.49 49.47 14.36"/><rect class="cls-1" x="47.69" y="4.96" width="12.16" height="10.19" transform="translate(8.64 40.97) rotate(-45)"/><line class="cls-1" x1="48.82" y1="7.8" x2="56.02" y2="15.01"/></g></g></svg>