<svg xmlns="http://www.w3.org/2000/svg" viewBox="0 0 72.64 67.54"><defs><style>.cls-1{fill:none;stroke:#000;stroke-linecap:round;stroke-linejoin:round;}</style></defs><title>video-ad-management</title><g id="Layer_2" data-name="Layer 2"><g id="_1170px_grid" data-name="1170px grid"><path class="cls-1" d="M57.14.5a13.4,13.4,0,0,1,2.92.33l.35,3.72a12.1,12.1,0,0,1,2.16.89l2.87-2.38A13.06,13.06,0,0,1,67.75,4.9a12.84,12.84,0,0,1,1.83,2.3L67.2,10.08a11,11,0,0,1,.89,2.15l3.72.35a13,13,0,0,1,.33,2.93,12.81,12.81,0,0,1-.33,2.92l-3.72.36a11,11,0,0,1-.89,2.15l2.38,2.88a12.84,12.84,0,0,1-1.83,2.3A12.56,12.56,0,0,1,65.44,28l-2.87-2.38a10.79,10.79,0,0,1-2.16.89l-.35,3.72a12.75,12.75,0,0,1-5.85,0l-.35-3.72a11,11,0,0,1-2.15-.89L48.83,28a12.89,12.89,0,0,1-4.14-4.13l2.38-2.88a11.59,11.59,0,0,1-.89-2.15l-3.72-.36a12.81,12.81,0,0,1-.33-2.92,13,13,0,0,1,.33-2.93l3.72-.35a11.59,11.59,0,0,1,.89-2.15L44.69,7.2a12.84,12.84,0,0,1,1.83-2.3,13.43,13.43,0,0,1,2.31-1.84l2.88,2.38a12.31,12.31,0,0,1,2.15-.89L54.21.83A13.42,13.42,0,0,1,57.14.5Z"/><polygon class="cls-1" points="42.24 33.26 22.57 21.65 22.57 44.61 42.24 33.26 42.24 33.26"/><path class="cls-1" d="M36.57,10.66H.5V55.6H64.31V35.72"/><line class="cls-1" x1="64.31" y1="64.98" x2="0.5" y2="64.98"/><path d="M14,62a2.79,2.79,0,1,1-2.79,2.78A2.78,2.78,0,0,1,14,62Z"/><path class="cls-1" d="M57.14.5a13.4,13.4,0,0,1,2.92.33l.35,3.72a12.1,12.1,0,0,1,2.16.89l2.87-2.38A13.06,13.06,0,0,1,67.75,4.9a12.84,12.84,0,0,1,1.83,2.3L67.2,10.08a11,11,0,0,1,.89,2.15l3.72.35a13,13,0,0,1,.33,2.93,12.81,12.81,0,0,1-.33,2.92l-3.72.36a11,11,0,0,1-.89,2.15l2.38,2.88a12.84,12.84,0,0,1-1.83,2.3A12.56,12.56,0,0,1,65.44,28l-2.87-2.38a10.79,10.79,0,0,1-2.16.89l-.35,3.72a12.75,12.75,0,0,1-5.85,0l-.35-3.72a11,11,0,0,1-2.15-.89L48.83,28a12.89,12.89,0,0,1-4.14-4.13l2.38-2.88a11.59,11.59,0,0,1-.89-2.15l-3.72-.36a12.81,12.81,0,0,1-.33-2.92,13,13,0,0,1,.33-2.93l3.72-.35a11.59,11.59,0,0,1,.89-2.15L44.69,7.2a12.84,12.84,0,0,1,1.83-2.3,13.43,13.43,0,0,1,2.31-1.84l2.88,2.38a12.31,12.31,0,0,1,2.15-.89L54.21.83A13.42,13.42,0,0,1,57.14.5Z"/><path class="cls-1" d="M57.14,9.47a6,6,0,1,1-6,6,6,6,0,0,1,6-6Z"/><path class="cls-1" d="M57.14,9.47a6,6,0,1,1-6,6,6,6,0,0,1,6-6Z"/></g></g></svg>