<svg id="Layer_1" data-name="Layer 1" xmlns="http://www.w3.org/2000/svg" width="54.49" height="54.48" viewBox="0 0 54.49 54.48"><defs><style>.cls-1,.cls-3{fill:none;}.cls-1,.cls-2,.cls-3{stroke:#161616;stroke-linecap:round;stroke-linejoin:round;}.cls-1{stroke-width:1.48px;}.cls-2{fill:#ffdb2d;}.cls-2,.cls-3{stroke-width:1.49px;}</style></defs><rect class="cls-1" x="0.75" y="0.74" width="53" height="53"/><rect class="cls-2" x="0.75" y="11.74" width="53" height="20"/><line class="cls-3" x1="17.8" y1="16.7" x2="36.55" y2="16.7"/><line class="cls-3" x1="13.08" y1="20.3" x2="41.83" y2="20.3"/><rect class="cls-3" x="18.75" y="23.74" width="17" height="4" rx="2"/><rect class="cls-3" x="28.75" y="36.74" width="21" height="13"/><polyline class="cls-3" points="32.65 45.92 36.29 42.2 40.26 46.2"/><polyline class="cls-3" points="46.06 44.2 41.99 40.36 38.34 44.07"/><line class="cls-3" x1="4.82" y1="37.69" x2="18.75" y2="37.69"/><line class="cls-3" x1="4.82" y1="41.69" x2="21.75" y2="41.69"/><line class="cls-3" x1="4.82" y1="45.69" x2="18.75" y2="45.69"/><line class="cls-3" x1="4.82" y1="49.69" x2="23.75" y2="49.69"/><circle class="cls-3" cx="6.75" cy="6.74" r="2"/><circle class="cls-3" cx="13.75" cy="6.74" r="2"/><circle class="cls-3" cx="20.75" cy="6.74" r="2"/></svg>