<svg xmlns="http://www.w3.org/2000/svg" viewBox="0 0 75.07 66.27"><defs><style>.cls-1{fill:none;stroke:#000;stroke-linecap:round;stroke-linejoin:round;}</style></defs><g id="Layer_2" data-name="Layer 2"><g id="_1170px_grid" data-name="1170px grid"><path class="cls-1" d="M74.18.5H.5V65.77H74.57V1.11"/><line class="cls-1" x1="74.18" y1="15.94" x2="0.5" y2="15.94"/><line class="cls-1" x1="7.78" y1="48.75" x2="28.23" y2="48.75"/><line class="cls-1" x1="27.31" y1="22.57" x2="47.76" y2="22.57"/><line class="cls-1" x1="22.93" y1="26.49" x2="52.14" y2="26.49"/><line class="cls-1" x1="1.23" y1="40.9" x2="73.54" y2="40.9"/><line class="cls-1" x1="7.78" y1="53.37" x2="34.25" y2="53.37"/><line class="cls-1" x1="7.78" y1="57.61" x2="30.33" y2="57.61"/><circle class="cls-1" cx="10.68" cy="8.31" r="3.27"/><circle class="cls-1" cx="22.46" cy="8.31" r="3.27"/><circle class="cls-1" cx="34.25" cy="8.31" r="3.27"/><rect class="cls-1" x="22.47" y="30.13" width="30.12" height="5.24" rx="2"/><rect class="cls-1" x="43.42" y="45.85" width="24.88" height="15.71"/><polyline class="cls-1" points="47.35 56.32 52.14 51.62 57.1 56.09"/><polyline class="cls-1" points="63.87 53.97 59.44 48.91 53.91 53.22"/></g></g></svg>