<svg xmlns="http://www.w3.org/2000/svg" viewBox="0 0 55.17 74.88"><defs><style>.cls-1{fill:none;stroke:#000;stroke-linecap:round;stroke-linejoin:round;}</style></defs><g id="Layer_2" data-name="Layer 2"><g id="_1170px_grid" data-name="1170px grid"><g id="_1" data-name="1"><polyline class="cls-1" points="54.67 22.46 54.67 74.38 0.5 74.38 0.5 0.5 42.36 0.5 54.67 12.82 54.67 23.25"/><polyline class="cls-1" points="42.36 8.43 42.36 0.5 54.67 12.82 44.85 12.82"/><polyline class="cls-1" points="42.36 6.66 42.36 12.82 44.85 12.82"/><rect class="cls-1" x="9.48" y="18.52" width="36.2" height="14.14"/><line class="cls-1" x1="9.48" y1="40.05" x2="45.69" y2="40.21"/><line class="cls-1" x1="9.48" y1="42.68" x2="9.48" y2="40.26"/><line class="cls-1" x1="45.69" y1="42.68" x2="45.69" y2="40.21"/><line class="cls-1" x1="27.59" y1="42.68" x2="27.59" y2="40.99"/><line class="cls-1" x1="27.59" y1="35.4" x2="27.59" y2="33.67"/><line class="cls-1" x1="27.59" y1="60.08" x2="27.59" y2="54.71"/><line class="cls-1" x1="45.69" y1="60.08" x2="45.69" y2="54.71"/><rect class="cls-1" x="5.87" y="47.48" width="7.23" height="7.23"/><path class="cls-1" d="M27.59,67.31h0A3.62,3.62,0,0,1,24,63.7h0a3.62,3.62,0,0,1,3.62-3.62h0A3.62,3.62,0,0,1,31.2,63.7h0A3.61,3.61,0,0,1,27.59,67.31Z"/><rect class="cls-1" x="42.07" y="60.08" width="7.23" height="7.23" rx="3.62"/><rect class="cls-1" x="23.97" y="47.47" width="25.33" height="7.24"/><line class="cls-1" x1="13.27" y1="51.09" x2="19.02" y2="51.09"/></g></g></g></svg>