<svg id="Layer_1" data-name="Layer 1" xmlns="http://www.w3.org/2000/svg" width="66.02" height="53.2" viewBox="0 0 66.02 53.2"><defs><style>.cls-1{fill:#ffda2c;}.cls-1,.cls-2{stroke:#231f20;stroke-linecap:round;stroke-linejoin:round;stroke-width:2px;}.cls-2{fill:none;}</style></defs><rect class="cls-1" x="19.25" y="1" width="43.55" height="31.07" rx="3.38"/><path class="cls-2" d="M19.59,5.68l16.91,11a7.65,7.65,0,0,0,8.07.18L62.8,6.1"/><line class="cls-2" x1="31.67" y1="17.93" x2="19.59" y2="26.15"/><line class="cls-2" x1="50.22" y1="17.93" x2="62.31" y2="26.15"/><line class="cls-1" x1="14.55" y1="8.29" x2="1" y2="8.29"/><line class="cls-1" x1="65.02" y1="45.1" x2="51.48" y2="45.1"/><line class="cls-1" x1="7.32" y1="1" x2="25.63" y2="1"/><line class="cls-1" x1="42.94" y1="52.2" x2="61.26" y2="52.2"/><path class="cls-2" d="M46.53,36.67V49.79a2.42,2.42,0,0,1-2.42,2.41H5.39A2.42,2.42,0,0,1,3,49.79V23.55a2.42,2.42,0,0,1,2.42-2.41h9.16"/><path class="cls-2" d="M3.31,25.81l16.91,11a7.67,7.67,0,0,0,8.07.17l2-1.17"/><line class="cls-2" x1="15.4" y1="38.07" x2="3.31" y2="46.28"/><line class="cls-2" x1="33.94" y1="38.07" x2="46.03" y2="46.28"/></svg>