<?xml version="1.0" encoding="utf-8"?>
<!-- Generator: Adobe Illustrator 22.0.1, SVG Export Plug-In . SVG Version: 6.00 Build 0)  -->
<svg version="1.1" id="Layer_1" xmlns="http://www.w3.org/2000/svg" xmlns:xlink="http://www.w3.org/1999/xlink" x="0px" y="0px"
	 width="262.4px" height="78.8px" viewBox="0 0 262.4 78.8" style="enable-background:new 0 0 262.4 78.8;" xml:space="preserve">
<style type="text/css">
	.st0{fill:#E7E7E7;}
</style>
<g>
	<path class="st0" d="M19.1,3.3C15,1.6,9.2-2.2,5.3,1.6C3.5,3.3,6.2,6,8,4.3c1.4-1.3,3.8,0.1,5.2,0.7c1.6,0.7,3.2,1.4,4.9,2
		C20.3,7.9,21.3,4.3,19.1,3.3"/>
	<path class="st0" d="M0.7,8c-0.2,3.2,0.1,6.4,0.7,9.6c0.5,2.4,4.1,1.4,3.7-1C4.5,13.7,4.3,10.9,4.5,8C4.6,5.6,0.8,5.6,0.7,8"/>
	<path class="st0" d="M9.7,14.5c2.6-0.2,5.2,0,7.7,0.5c2.4,0.5,3.4-3.2,1-3.7c-2.9-0.6-5.8-0.9-8.7-0.7C7.3,10.9,7.3,14.7,9.7,14.5"
		/>
	<path class="st0" d="M8.1,22.5c-1,3-0.7,6,0.6,8.8c1,2.2,4.3,0.3,3.3-1.9c-0.9-1.9-0.9-3.9-0.3-5.9C12.5,21.2,8.8,20.2,8.1,22.5"/>
	<path class="st0" d="M5.1,30.5H3.4c-1,0-1.9,0.9-1.9,1.9c0,1,0.8,1.9,1.9,1.9h1.7c1,0,1.9-0.9,1.9-1.9C7,31.4,6.2,30.5,5.1,30.5"/>
	<path class="st0" d="M0.7,39.5c-0.8,3,0.5,6.2,3.3,7.8c2.1,1.2,4-2.1,1.9-3.3c-1.2-0.7-1.9-2.1-1.5-3.5C5,38.1,1.3,37.1,0.7,39.5"
		/>
	<path class="st0" d="M5.8,54.2C5,54.6,4.1,55,3.3,55.4c-0.9,0.4-1.2,1.8-0.7,2.6c0.6,0.9,1.6,1.1,2.6,0.7c0.8-0.4,1.7-0.8,2.5-1.2
		c0.9-0.4,1.2-1.8,0.7-2.6C7.8,53.9,6.8,53.7,5.8,54.2"/>
	<path class="st0" d="M0,67.5c0.6,3.1-0.3,7.4,2.7,9.5c2,1.4,3.9-1.9,1.9-3.3c-0.6-0.4-0.6-2.5-0.6-3.2c-0.1-1.3-0.1-2.7-0.4-4
		C3.2,64.1-0.4,65.1,0,67.5"/>
	<path class="st0" d="M14.7,77.6c3.2-1.3,5.3-4,5.7-7.4c0.1-1-1-1.9-1.9-1.9c-1.1,0-1.8,0.9-1.9,1.9c-0.2,1.6-1.4,3.2-2.9,3.8
		c-0.9,0.4-1.6,1.3-1.3,2.3C12.6,77.1,13.7,77.9,14.7,77.6"/>
	<path class="st0" d="M13.8,65.4c-0.6-1.6-0.4-3.1,0.6-4.6c1.4-2-1.9-3.9-3.3-1.9c-1.5,2.2-1.9,5-1,7.5C11,68.7,14.6,67.8,13.8,65.4
		"/>
	<path class="st0" d="M17.5,50.6c-1.6-0.9-2.9-2.2-3.9-3.8c-1.2-2.1-4.5-0.2-3.3,1.9c1.3,2.2,3.1,3.9,5.3,5.2
		C17.7,55.1,19.6,51.8,17.5,50.6"/>
	<path class="st0" d="M14.2,41.9c0.1-1.5,0.9-2.7,2-3.7c1.8-1.6-0.9-4.3-2.7-2.7c-1.9,1.7-2.9,3.9-3.1,6.4c-0.1,1,0.9,1.9,1.9,1.9
		C13.4,43.8,14.1,42.9,14.2,41.9"/>
	<path class="st0" d="M22.3,24.5c-1.7-0.9-3.1-2.1-4.1-3.8c-1.3-2.1-4.6-0.2-3.3,1.9c1.3,2.2,3.2,4,5.5,5.1
		C22.5,28.8,24.5,25.6,22.3,24.5"/>
	<path class="st0" d="M24.9,18.2c1.3,0.2,2.6,0.7,3.7,1.5c0.8,0.6,1.9,0.8,2.7,0c0.7-0.7,0.8-2.1,0-2.7c-1.9-1.5-3.9-2.3-6.3-2.6
		c-1-0.1-1.9,1-1.9,1.9C23,17.5,23.9,18.1,24.9,18.2"/>
	<path class="st0" d="M23.7,28.9c0.2,1.8-0.1,3.4-1,5c-1.2,2.1,2.1,4,3.3,1.9c1.2-2.1,1.8-4.5,1.5-6.9c-0.1-1-0.8-1.9-1.9-1.9
		C24.7,27,23.6,27.8,23.7,28.9"/>
	<path class="st0" d="M18.1,44.1c1.3,1.5,2.7,2.8,4.3,3.9c0.8,0.6,2.1,0.1,2.6-0.7c0.6-1,0.2-2-0.7-2.6c-1.3-1-2.5-2.1-3.6-3.4
		c-0.7-0.8-2-0.7-2.7,0C17.3,42.2,17.4,43.3,18.1,44.1"/>
	<path class="st0" d="M25.5,52.4c-2.7,0.7-4.8,2.8-5.7,5.4c-0.8,2.3,2.9,3.3,3.7,1c0.5-1.4,1.6-2.4,3-2.8
		C28.8,55.4,27.8,51.8,25.5,52.4"/>
	<path class="st0" d="M25.2,67.1c0.9,0.9,1.7,1.9,2.1,3.1c0.3,1,1.3,1.6,2.3,1.3c0.9-0.3,1.7-1.4,1.3-2.3c-0.7-1.8-1.7-3.5-3.1-4.8
		C26.1,62.7,23.4,65.4,25.2,67.1"/>
	<path class="st0" d="M25.1,78.6c2.6,0,5.1-0.5,7.5-1.6c0.9-0.4,1.1-1.8,0.7-2.6c-0.6-1-1.7-1.1-2.6-0.7c-1.8,0.8-3.6,1.1-5.5,1.1
		C22.7,74.8,22.7,78.6,25.1,78.6"/>
	<path class="st0" d="M38.8,75.6c2.3,2.1,5.1,4,8.3,3c2.3-0.8,1.3-4.4-1-3.7c-1.8,0.6-3.4-0.8-4.6-2C39.7,71.2,37,73.9,38.8,75.6"/>
	<path class="st0" d="M28.8,8.5c-0.7-1.5,0.6-2.6,2-2.5c2.4,0.2,2.4-3.6,0-3.8c-2-0.2-3.9,0.8-5,2.4c-1.2,1.8-1.2,4-0.3,5.8
		C26.6,12.6,29.9,10.7,28.8,8.5"/>
	<path class="st0" d="M40,4.3c2.2-0.8,4-0.4,5.8,1.1c1.5,1.2,2.8,1.9,4.7,1.4c2.4-0.6,1.4-4.2-1-3.7C48.7,3.4,47.7,2,47,1.6
		c-0.8-0.5-1.7-1-2.6-1.2C42.6-0.1,40.7,0,39,0.6C36.7,1.5,37.7,5.2,40,4.3"/>
	<path class="st0" d="M57,4.1c1.3,0.9,2.4,2.1,3.4,3.3c0.7,0.8,2,0.7,2.7,0c0.8-0.8,0.7-1.9,0-2.7c-1.2-1.5-2.7-2.7-4.2-3.9
		c-0.8-0.6-2.1-0.1-2.6,0.7C55.8,2.5,56.2,3.5,57,4.1"/>
	<path class="st0" d="M76.9,3.8l-3.3-1.2c-1.1-0.4-2.2-0.9-3.3-0.4c-2.2,1-1.8,4-0.9,5.8c1.1,2.2,4.3,0.3,3.3-1.9
		c-0.1-0.2-0.1-0.4-0.2-0.6c-0.1-0.4,0.2-0.5-0.1-0.2c-0.3,0.2-0.6,0.3-0.8,0.5c-0.4,0.1,0.6,0.3,0.7,0.3c0.4,0.1,0.8,0.3,1.2,0.4
		c0.8,0.3,1.7,0.6,2.5,0.9C78.2,8.3,79.2,4.6,76.9,3.8"/>
	<path class="st0" d="M87.8,6.6c1.5-0.9,3.3-1.3,5.1-1c2.4,0.4,3.4-3.2,1-3.7c-2.8-0.5-5.5-0.1-8,1.3C83.7,4.6,85.6,7.9,87.8,6.6"/>
	<path class="st0" d="M77.7,14.7c2,0.7,4.1,1.4,6.1,2c2.3,0.8,3.3-2.9,1-3.7c-2-0.7-4.1-1.4-6.1-2C76.4,10.3,75.4,13.9,77.7,14.7"/>
	<path class="st0" d="M69.2,13.4c-0.8-0.7-1.6-1.3-2.4-2c-0.8-0.6-1.5-1.2-2.6-1c-1.8,0.4-2.3,2.7-2.9,4.2c-0.4,0.9-0.3,2,0.7,2.6
		c0.8,0.5,2.2,0.3,2.6-0.7c0.2-0.6,0.5-1.1,0.7-1.7c0.1-0.3,0.4-1,0.5-1.2c-0.3,0.2-0.6,0.3-0.8,0.5c0.1,0,0.1,0,0.2-0.1h-1
		c-0.2-0.1,0.2,0.2,0.2,0.2c0.2,0.2,0.5,0.4,0.8,0.6c0.5,0.4,0.9,0.7,1.4,1.1c0.8,0.6,1.9,0.8,2.7,0C69.9,15.4,70,14,69.2,13.4"/>
	<path class="st0" d="M53.4,10.4c-0.3-0.2-0.2-0.2-0.1,0.2c0,0.2,0.1,0.5,0.1,0.7c0,0.3,0.2,1,0,1.2c-0.1,0.2-0.7,0.2-0.9,0.3
		c-0.6,0.2-1.1,0.5-1.6,1c-1.8,1.6,0.9,4.3,2.7,2.7c0.2-0.2,0.6-0.2,0.9-0.3c0.5-0.2,1-0.4,1.4-0.8c0.8-0.7,1.2-1.6,1.4-2.7
		c0.2-2-0.3-4.3-1.9-5.5c-0.8-0.6-2.1-0.1-2.6,0.7C52.2,8.8,52.6,9.8,53.4,10.4"/>
	<path class="st0" d="M45.9,10.2c-1-0.8-2.2-1.4-3.3-1.9c-0.9-0.4-2-0.3-2.6,0.7c-0.5,0.8-0.3,2.2,0.7,2.6c1.2,0.5,2.3,1.2,3.3,1.9
		c0.8,0.6,2.1,0.1,2.6-0.7C47.1,11.8,46.7,10.8,45.9,10.2"/>
	<path class="st0" d="M33.4,14.3c1.4,1.5,2.8,3.1,4.2,4.6c1.7,1.8,4.3-0.9,2.7-2.7c-1.4-1.5-2.8-3.1-4.2-4.6
		C34.4,9.8,31.7,12.5,33.4,14.3"/>
	<path class="st0" d="M39.3,26.4c-1.1-0.1-2.1-0.9-3.1-1.4c-1.2-0.7-2.3-1.1-3.7-1.3c-1-0.1-1.9,1-1.9,1.9c0,1.1,0.9,1.8,1.9,1.9
		c1.1,0.1,2.1,1,3.1,1.5c1.2,0.7,2.4,1.1,3.7,1.2C41.7,30.3,41.7,26.6,39.3,26.4"/>
	<path class="st0" d="M31.2,34.4c0.1,0.7,0.3,1.6,0.1,2.3c-0.1,0.3-0.1,0.4-0.3,0.6c-0.1,0.1-0.2,0.2-0.3,0.3c0.1,0,0.1,0,0,0
		c-2.4-0.5-3.4,3.2-1,3.7c1.9,0.4,3.7-0.4,4.7-2.1c1-1.7,0.8-3.8,0.5-5.6c-0.2-1-1.4-1.6-2.3-1.3C31.4,32.4,31,33.4,31.2,34.4"/>
	<path class="st0" d="M29.5,47.7c1.4,1,2.5,2.4,3.1,4c0.4,1,1.3,1.6,2.3,1.3c0.9-0.3,1.7-1.4,1.3-2.3c-1-2.6-2.6-4.7-4.9-6.2
		c-0.8-0.6-2.1-0.2-2.6,0.7C28.2,46,28.6,47.1,29.5,47.7"/>
	<path class="st0" d="M36.5,59.2c-1.7-0.6-3.5-0.9-5.3-0.9c-2.4,0-2.4,3.8,0,3.8c1.5,0,2.9,0.2,4.3,0.7c1,0.3,2.1-0.4,2.3-1.3
		C38.1,60.5,37.5,59.5,36.5,59.2"/>
	<path class="st0" d="M35.4,69.2c2.9-0.2,5.8-0.2,8.7,0c2.4,0.2,2.4-3.6,0-3.8c-2.9-0.2-5.8-0.2-8.7,0C33,65.5,33,69.3,35.4,69.2"/>
	<path class="st0" d="M52.6,71.2c0.7,1.6,1.4,3.2,2.1,4.8c0.4,0.9,1.8,1.2,2.6,0.7c1-0.6,1.1-1.7,0.7-2.6c-0.7-1.6-1.4-3.2-2.1-4.8
		c-0.4-0.9-1.8-1.2-2.6-0.7C52.3,69.2,52.1,70.3,52.6,71.2"/>
	<path class="st0" d="M57.3,63.8c-1-0.3-1.9-1.1-2.9-1.5c-1.2-0.5-2.3-0.9-3.6-1c-1-0.1-2,0.3-2.3,1.3c-0.3,0.9,0.3,2.2,1.3,2.3
		c1.2,0.2,2.4,0.5,3.4,1c1,0.5,1.9,1.2,3,1.5C58.6,68.1,59.6,64.5,57.3,63.8"/>
	<path class="st0" d="M45.5,57.6c-0.3-1.1-0.4-2.1-0.1-3.1c0.6-2.4-3-3.4-3.7-1c-0.5,1.7-0.5,3.5,0.1,5.1C42.6,61,46.3,60,45.5,57.6
		"/>
	<path class="st0" d="M43.2,46.4c0.2-2-0.2-3.9-1-5.7c-0.4-0.9-1.8-1.2-2.6-0.7c-1,0.6-1.1,1.7-0.7,2.6c0.5,1.2,0.6,2.5,0.5,3.8
		c-0.1,1,1,1.9,1.9,1.9C42.4,48.3,43.1,47.5,43.2,46.4"/>
	<path class="st0" d="M44.2,35.8c2.2-1.9,4.9-3.7,4.3-7c-0.5-2.4-4.2-1.4-3.7,1c0.1,0.6-0.8,1.2-1.2,1.5c-0.7,0.6-1.4,1.2-2.1,1.8
		c-0.8,0.7-0.7,2,0,2.7C42.3,36.5,43.4,36.4,44.2,35.8"/>
	<path class="st0" d="M44.9,24.2c2.9,0.2,6.6,1.1,8.4-1.9c1.2-2.1-2.1-4-3.3-1.9c-0.3,0.6-1.6,0.3-2.1,0.3c-1-0.1-2-0.1-2.9-0.2
		C42.5,20.2,42.5,24,44.9,24.2"/>
	<path class="st0" d="M57.4,21.2c0.1,1.2,0.2,2.9-0.2,4.1c-0.2,0.5,0,0.2-0.6,0.3c-0.6,0.1-1.1,0.3-1.6,0.6
		c-2.1,1.3-0.2,4.5,1.9,3.3c0.6-0.4,1.4-0.3,2-0.6c0.8-0.4,1.4-1,1.7-1.8c0.7-1.8,0.6-4,0.5-5.8C61.1,18.7,57.3,18.7,57.4,21.2"/>
	<path class="st0" d="M67.1,24c3.4,0.1,6.4-1.5,8.5-4.2c0.6-0.8,0.1-2.1-0.7-2.6c-1-0.6-2-0.1-2.6,0.7c-1.2,1.6-3.2,2.4-5.2,2.3
		C64.6,20.2,64.6,24,67.1,24"/>
	<path class="st0" d="M79.9,25.7c2,0,4.3,0.4,6.3-0.2c1.7-0.5,2.7-1.9,3.5-3.4c1.1-2.2-2.1-4.1-3.3-1.9c-0.6,1.1-0.9,1.7-2.2,1.8
		c-1.4,0.1-2.9,0-4.3-0.1C77.4,21.9,77.4,25.7,79.9,25.7"/>
	<path class="st0" d="M70,27.8c-0.4,2.3-0.3,4.5,0.4,6.7c0.8,2.3,4.5,1.3,3.7-1c-0.5-1.5-0.7-3.1-0.4-4.7c0.2-1-0.3-2-1.3-2.3
		C71.4,26.2,70.2,26.8,70,27.8"/>
	<path class="st0" d="M67.9,33c-1.6-1.2-2.5-2.7-4.7-2.9c-1.8-0.2-3.5,0.4-4.8,1.7c-1.7,1.7,0.9,4.4,2.7,2.7
		c1.8-1.8,3.5,0.8,4.9,1.8C67.9,37.7,69.8,34.4,67.9,33"/>
	<path class="st0" d="M49,36.5c0.3,1.4,0.4,2.9,0.2,4.4c-0.1,1,0.2,2,1.3,2.3c0.9,0.2,2.2-0.3,2.3-1.3c0.3-2.2,0.3-4.3-0.2-6.4
		C52.1,33.1,48.5,34.1,49,36.5"/>
	<path class="st0" d="M49.4,51.8c1-0.3,2.4-0.8,3.5-0.7c0.9,0.2,0.9,1,1.1,1.8c0.6,2.4,4.2,1.4,3.7-1c-0.4-1.8-1.1-3.5-2.9-4.2
		c-1.9-0.8-4.5-0.2-6.4,0.4C46.1,48.9,47.1,52.6,49.4,51.8"/>
	<path class="st0" d="M61.6,59.9c1-1.1,2-2,3.2-2.8c1.1-0.7,1.9-1.4,2.3-2.7c0.6-2.2,0-4.9-1.7-6.3c-1.9-1.5-4.6,1.1-2.7,2.7
		c0.5,0.4,0.7,0.9,0.8,1.6c0.1,1-0.1,1.1-0.9,1.6c-1.4,0.9-2.7,2-3.8,3.3C57.3,59.1,60,61.7,61.6,59.9"/>
	<path class="st0" d="M60.8,42.7c1.2-0.4,2.1,0.4,3.1,1c1,0.6,2,1.1,3.1,1.3c2.4,0.4,3.4-3.3,1-3.7c-1.5-0.2-2.6-1.3-4-1.9
		c-1.4-0.6-2.8-0.9-4.3-0.4C57.5,39.8,58.5,43.5,60.8,42.7"/>
	<path class="st0" d="M65,75.3c3.2,1.3,6.5,1.8,10,1.7c2.4-0.1,2.4-3.9,0-3.8c-3.1,0.2-6.1-0.4-9-1.5C63.8,70.7,62.8,74.4,65,75.3"
		/>
	<path class="st0" d="M69.8,65.4c0.5-1.7,1-3.4,1.5-5.1c0.8-2.3-2.9-3.3-3.7-1c-0.6,1.7-1.1,3.4-1.5,5.1
		C65.5,66.8,69.1,67.8,69.8,65.4"/>
	<path class="st0" d="M74.1,64.4c0.7,1.2,1.4,2.3,2.2,3.5c0.5,0.9,1.7,1.2,2.6,0.7c0.9-0.5,1.2-1.7,0.7-2.6
		c-0.7-1.2-1.4-2.3-2.2-3.5c-0.5-0.9-1.7-1.2-2.6-0.7C74,62.4,73.6,63.6,74.1,64.4"/>
	<path class="st0" d="M76.9,52.7c-1.1-0.7-1.9-1.8-2.3-3.1c-0.7-2.3-4.4-1.3-3.7,1c0.7,2.2,2.1,4.1,4,5.4C77,57.3,79,54,76.9,52.7"
		/>
	<path class="st0" d="M75.8,44.7c0.4-1.1,1.1-2.1,1.9-2.9c1.7-1.8-1-4.5-2.7-2.7c-1.3,1.4-2.2,2.9-2.8,4.6c-0.4,1,0.4,2.1,1.3,2.3
		C74.5,46.4,75.4,45.7,75.8,44.7"/>
	<path class="st0" d="M80.8,34.9c1.8-0.2,3.6,0.2,5,1.5c1.8,1.6,4.5-1.1,2.7-2.7c-2.1-1.9-4.8-2.9-7.7-2.6c-1,0.1-1.9,0.8-1.9,1.9
		C78.9,34,79.8,35,80.8,34.9"/>
	<path class="st0" d="M92.8,10.9c0.3,1.8,0.9,3.4,1.7,5.1c0.4,0.9,1.8,1.2,2.6,0.7c0.9-0.6,1.1-1.7,0.7-2.6c-0.6-1.3-1-2.7-1.3-4.2
		c-0.2-1-1.4-1.6-2.3-1.3C93,8.9,92.6,9.9,92.8,10.9"/>
	<path class="st0" d="M95.3,24.9c-0.1,0-0.1,1.8-0.2,2.1c0,0.4,0,0.7-0.1,1.1c0,0.2-0.1,0.5-0.1,0.7c-0.1,0.4,0.1,0.3,0.5-0.4
		c-2.4,0.4-1.4,4.1,1,3.7c2.3-0.4,2.4-3.4,2.5-5.3c0.1-2.3-0.1-4.7-2.6-5.5C94,20.5,93,24.2,95.3,24.9"/>
	<path class="st0" d="M88.1,43.3c-0.1,0.3-0.2,0,0.3,0c0.3,0,0.7-0.1,1-0.1c1,0,2,0.1,3,0.3c2.4,0.5,3.4-3.1,1-3.7
		c-3-0.6-7.7-1.2-9,2.4C83.6,44.6,87.3,45.6,88.1,43.3"/>
	<path class="st0" d="M81.2,50.5c1.1,1.5,1.6,3.3,1.6,5.1c0,2.4,3.8,2.4,3.8,0c0-2.9-0.9-5.5-2.7-7.8c-0.6-0.8-2-0.7-2.7,0
		C80.4,48.6,80.5,49.7,81.2,50.5"/>
	<path class="st0" d="M83.8,66c2-0.1,3.6,1.5,5.7,1.3c2-0.2,3.3-1.7,3.5-3.7c0.2-2.4-3.6-2.4-3.8,0c0,0.1-2.3-0.7-2.4-0.8
		c-1-0.4-2-0.7-3-0.6C81.4,62.3,81.4,66.1,83.8,66"/>
	<path class="st0" d="M84.8,77.1c1.2-1.3,2.5-2.4,4.2-3c0.4-0.1,0.8-0.2,1.2-0.3c0.5-0.2,0.7-0.1,0.9,0.3c0.4,0.4,0.7,1.1,1.1,1.6
		c1.5,1.9,4.2-0.8,2.7-2.7c-0.7-0.9-1-2-2-2.6c-1.1-0.7-2.4-0.6-3.6-0.3c-2.8,0.6-5.2,2.2-7.1,4.3C80.5,76.2,83.2,78.9,84.8,77.1"/>
	<path class="st0" d="M104.4,77.7c3.4,1.2,7.2-0.9,8-4.5c0.5-2.4-3.2-3.4-3.7-1c-0.3,1.7-1.7,2.4-3.3,1.9
		C103.1,73.2,102.1,76.9,104.4,77.7"/>
	<path class="st0" d="M103,69.6c-0.6-1.7-0.2-3.4,1.1-4.6c1.8-1.7-0.9-4.4-2.7-2.7c-2.2,2.1-3.1,5.4-2.1,8.3
		C100.2,72.9,103.8,71.9,103,69.6"/>
	<path class="st0" d="M94.6,51.6c-0.7,0-1.4-0.3-2.1-0.6c-0.9-0.5-2.1-0.2-2.6,0.7c-0.5,0.9-0.3,2.1,0.7,2.6c1.2,0.7,2.6,1,4,1.1
		c1,0.1,1.9-0.9,1.9-1.9C96.4,52.4,95.6,51.7,94.6,51.6"/>
	<path class="st0" d="M99.2,49.9c0.4-0.1,0.8,0.4,0.9,0.7c0.4,0.7,0.3,1.6,0.3,2.4c-0.1,1,0.9,1.9,1.9,1.9c1.1,0,1.8-0.9,1.9-1.9
		c0.1-1.8-0.2-3.7-1.4-5.1c-1.2-1.4-2.9-1.9-4.6-1.6c-1,0.2-1.6,1.4-1.3,2.3C97.1,49.6,98.2,50.1,99.2,49.9"/>
	<path class="st0" d="M108.5,58.9c1.3,0.1,2.4,1.4,2.4,2.7c0,2.4,3.8,2.4,3.8,0c0-3.5-2.8-6.2-6.2-6.5c-1-0.1-1.9,0.9-1.9,1.9
		C106.6,58.1,107.5,58.8,108.5,58.9"/>
	<path class="st0" d="M114.8,69.6c1.6-0.4,3.3,0.2,4.9-0.2c1.4-0.3,2.7-1.1,3.2-2.4c0.4-0.9,0.3-2-0.7-2.6c-0.8-0.5-2.2-0.3-2.6,0.7
		c-0.4,0.8-1.2,0.7-2,0.7c-1.3-0.1-2.5-0.2-3.8,0.2C111.5,66.5,112.5,70.2,114.8,69.6"/>
	<path class="st0" d="M118.8,76.7c2.9-1,5.8-0.8,8.6,0.3c2.3,0.9,3.2-2.7,1-3.7c-3.4-1.4-7.1-1.5-10.6-0.3
		C115.5,73.8,116.5,77.5,118.8,76.7"/>
	<path class="st0" d="M99.3,38.3c1.8,0.2,3.7,0.2,5.2-1.1c1.4-1.2,2.2-3.2,2.7-5c0.6-2.4-3-3.4-3.7-1c-0.3,1-0.7,2.3-1.4,3
		c-0.7,0.7-1.9,0.4-2.8,0.3c-1-0.1-1.9,1-1.9,1.9C97.4,37.5,98.3,38.2,99.3,38.3"/>
	<path class="st0" d="M106.5,43.9c1.6-0.4,2.6,0.7,2.8,2.1c0.1,1,1.4,1.6,2.3,1.3c1.1-0.3,1.5-1.3,1.3-2.3c-0.5-3.6-4.1-5.6-7.5-4.8
		C103.1,40.8,104.1,44.5,106.5,43.9"/>
	<path class="st0" d="M111.6,32.1c0.3,2.1,1.1,4.1,2.2,5.8c1.3,2.1,4.5,0.2,3.3-1.9c-0.9-1.5-1.5-3.2-1.8-4.9
		c-0.2-1-1.4-1.6-2.3-1.3C111.8,30,111.4,31.1,111.6,32.1"/>
	<path class="st0" d="M102.3,5.1c0.8,0.4,1.2,1.1,1.6,1.9c0.2,0.4,0.7,1.7,0.2,2c-2.2,1.1-0.3,4.4,1.9,3.3c4.2-2.1,1.4-8.7-1.7-10.4
		C102.1,0.6,100.2,3.9,102.3,5.1"/>
	<path class="st0" d="M114.9,8.2c1.9-1.1,4-1.1,6-0.3c2.3,0.9,3.3-2.8,1-3.7c-2.9-1.1-6.2-0.8-8.9,0.7
		C110.9,6.1,112.8,9.4,114.9,8.2"/>
	<path class="st0" d="M129.4,4.7c1.4,1.4,3.1,2.6,5,3.4c0.8,0.3,1.8,0.5,2.3,1.3c0.6,0.8,0.7,1.9,1.3,2.8c1.4,1.9,4.7,0.1,3.3-1.9
		c-0.6-0.9-0.8-1.9-1.3-2.8c-0.5-0.9-1.3-1.6-2.2-2c-2.1-1.1-4-1.7-5.7-3.4C130.3,0.3,127.7,2.9,129.4,4.7"/>
	<path class="st0" d="M146.6,7.4c2-0.6,5-1.6,6.9-0.4c2.1,1.3,4-2,1.9-3.3c-2.9-1.8-6.8-0.9-9.9,0C143.3,4.4,144.3,8.1,146.6,7.4"/>
	<path class="st0" d="M165.5,5.4c1.1,0,3.2-0.2,4.1,0.6c0.8,0.8,0.1,2.1-0.3,2.9c-1.2,2.1,2.1,4,3.3,1.9c1.2-2.1,1.7-4.8,0.2-6.9
		c-1.6-2.2-4.8-2.3-7.3-2.3C163.1,1.7,163.1,5.5,165.5,5.4"/>
	<path class="st0" d="M158,7.3c-0.1,1.2-0.1,2.4,0,3.5c0,0.6,0.1,1.1,0.2,1.7c0,0.3,0,1,0.2,0.9c-2.2,1.1-0.3,4.4,1.9,3.3
		c1.4-0.7,1.9-2.1,1.8-3.6c-0.2-1.9-0.4-3.8-0.3-5.7C161.9,4.8,158.1,4.8,158,7.3"/>
	<path class="st0" d="M166,16.3c1.2,1.4,2.4,2.7,3.6,4.1c0.7,0.8,2,0.7,2.7,0c0.8-0.8,0.7-1.9,0-2.7c-1.2-1.4-2.4-2.7-3.6-4.1
		c-0.7-0.8-2-0.7-2.7,0C165.2,14.3,165.3,15.5,166,16.3"/>
	<path class="st0" d="M143.8,19.2c1.6,0.5,3.9,0.8,4.9-0.9c0.8-1.4,0.9-3.4,0.8-5c-0.1-1-0.8-1.9-1.9-1.9c-1,0-2,0.9-1.9,1.9
		c0.1,0.8,0.1,1.7-0.1,2.5c0,0.2-0.2,0.4-0.2,0.6c-0.1,0.3,0,0.2,0.4-0.2c0.5-0.3,0.6-0.4,0.3-0.4c-0.3-0.2-1-0.2-1.3-0.3
		C142.5,14.8,141.5,18.5,143.8,19.2"/>
	<path class="st0" d="M130,15.1c2,0.9,3.2,2.8,3,5c-0.2,2.4,3.6,2.4,3.8,0c0.3-3.4-1.7-6.8-4.9-8.3c-0.9-0.4-2-0.3-2.6,0.7
		C128.8,13.3,129,14.6,130,15.1"/>
	<path class="st0" d="M124.6,14.7c0.1,0-0.5-0.5-0.6-0.7c-0.4-0.6-0.8-1.1-1.3-1.6c-1-1-2.2-1.7-3.6-2.2c-2.3-0.8-3.3,2.8-1,3.7
		c1.3,0.5,2.1,1.4,3,2.5c0.9,1.2,2,2,3.5,2.1c1,0.1,1.9-0.9,1.9-1.9C126.5,15.5,125.6,14.8,124.6,14.7"/>
	<path class="st0" d="M108.6,13.9c-0.2,1.5-1.3,3-2.8,3.6c-1,0.4-1.6,1.3-1.3,2.3c0.3,0.9,1.4,1.7,2.3,1.3c3.2-1.2,5.2-3.9,5.5-7.3
		c0.1-1-0.9-1.9-1.9-1.9C109.3,12,108.7,12.9,108.6,13.9"/>
	<path class="st0" d="M106.5,27.5c3.3,0,8-0.1,8.8-4.3c0.4-2.4-3.2-3.4-3.7-1c-0.4,2.1-3.6,1.5-5.1,1.5
		C104.1,23.7,104.1,27.5,106.5,27.5"/>
	<path class="st0" d="M119.9,25.5c0.9,0.3,1.5,0.9,1.8,1.8c0.1,0.5,0.2,1,0.2,1.5c0,0.5-0.4,1.3,0.4,0.8c-2.1,1.3-0.2,4.5,1.9,3.3
		c2-1.2,1.7-4.4,1.3-6.4c-0.5-2.3-2.2-4-4.5-4.7C118.5,21.1,117.5,24.8,119.9,25.5"/>
	<path class="st0" d="M128.1,25.8c1.2,1.3,2.5,2.9,4.1,3.7c1.9,1,3.9,0.2,5.5-0.9c2-1.3,0.1-4.6-1.9-3.3c-0.4,0.3-1.2,1-1.8,0.8
		c-0.3-0.1-0.7-0.5-0.9-0.7c-0.9-0.8-1.6-1.6-2.4-2.4C129.1,21.2,126.5,23.9,128.1,25.8"/>
	<path class="st0" d="M146.8,27.3c1.7-1,3.2-2.2,4.5-3.6c0.7-0.8,0.7-1.9,0-2.7c-0.7-0.7-2-0.8-2.7,0c-1.1,1.2-2.3,2.2-3.7,3
		C142.8,25.3,144.7,28.5,146.8,27.3"/>
	<path class="st0" d="M157.5,23.4c-0.1,1.2-0.3,2.3-0.7,3.4c-0.2,0.5-0.3,1-0.5,1.5c-0.1,0.3-0.2,0.5-0.3,0.7
		c-0.4,0.5-0.2,0.6,0.5,0.2c-2.4-0.4-3.4,3.3-1,3.7c4.5,0.8,5.5-6.3,5.8-9.5C161.5,20.9,157.8,21,157.5,23.4"/>
	<path class="st0" d="M164.9,27.4c2.9,0.6,8.1,2.8,10-0.7c1.2-2.2-2.1-4.1-3.3-1.9c-0.2,0.4-5.1-0.9-5.7-1
		C163.5,23.2,162.5,26.9,164.9,27.4"/>
	<path class="st0" d="M142.5,34.6c1.5,0.7,2.9,1.6,4.1,2.6c0.8,0.7,1.9,0.8,2.7,0c0.7-0.7,0.8-2,0-2.7c-1.5-1.3-3.1-2.4-4.9-3.2
		c-0.9-0.4-2-0.3-2.6,0.7C141.3,32.8,141.5,34.1,142.5,34.6"/>
	<path class="st0" d="M135,34.8c-2.6,1-5.1,1.4-7.9,1c-2.4-0.3-2.4,3.5,0,3.8c3,0.4,6.1,0,8.9-1.1C138.2,37.6,137.3,33.9,135,34.8"
		/>
	<path class="st0" d="M119.4,41.4c-0.2,1.3-0.8,2.5-2,3.2c-0.8,0.6-1.2,1.7-0.7,2.6c0.5,0.8,1.7,1.3,2.6,0.7
		c1.9-1.3,3.3-3.2,3.7-5.5c0.2-1-0.3-2-1.3-2.3C120.8,39.8,119.6,40.4,119.4,41.4"/>
	<path class="st0" d="M113.8,53.3c0.5,0.3,1.1,0.5,1.4,1c0.2,0.3,0.2,0.4,0.1,0.7c-0.3,1,0.4,2.1,1.3,2.3c1,0.3,2-0.4,2.3-1.3
		c0.9-2.6-1.1-4.8-3.3-6c-0.9-0.5-2.1-0.2-2.6,0.7C112.6,51.6,112.9,52.8,113.8,53.3"/>
	<path class="st0" d="M124,60.1c2.2-0.4,3.4,2.8,4,4.3c0.4,1,1.3,1.6,2.3,1.3c0.9-0.2,1.7-1.4,1.3-2.3c-1.5-3.8-4-7.8-8.7-7
		C120.6,56.9,121.6,60.6,124,60.1"/>
	<path class="st0" d="M132.9,70.2c1.2,1.8,1.8,3.7,1.7,5.8c-0.1,2.4,3.7,2.4,3.8,0c0.1-2.8-0.7-5.4-2.2-7.7
		C134.8,66.2,131.5,68.1,132.9,70.2"/>
	<path class="st0" d="M145,77.4c2.6,0.1,4.8-2.6,6.4-4.4c1.6-1.8-1.1-4.5-2.7-2.7c-0.6,0.7-1.2,1.4-1.9,2c-0.4,0.4-1.2,1.3-1.8,1.3
		C142.5,73.6,142.5,77.4,145,77.4"/>
	<path class="st0" d="M143.7,69.3c-0.1-2-0.2-4-0.4-6c-0.1-2.4-3.9-2.4-3.8,0c0.1,2,0.2,4,0.4,6C140.1,71.8,143.9,71.8,143.7,69.3"
		/>
	<path class="st0" d="M149.5,62.9c1.2-0.5,2.4-0.6,3.7-0.4c1,0.2,2-0.3,2.3-1.3c0.3-0.9-0.3-2.1-1.3-2.3c-1.9-0.4-3.9-0.3-5.7,0.4
		c-1,0.4-1.6,1.3-1.3,2.3C147.4,62.5,148.5,63.3,149.5,62.9"/>
	<path class="st0" d="M138.3,57.9c-0.3-1,2.8-0.6,3.2-0.5c1,0.1,1.9-1,1.9-1.9c0-1.1-0.9-1.8-1.9-1.9c-1.8-0.2-3.6-0.3-5.1,0.8
		c-1.4,1-2.2,2.8-1.7,4.5C135.3,61.3,139,60.3,138.3,57.9"/>
	<path class="st0" d="M131.6,49.9c-2.2-0.9-3.7-2.8-6.2-3.1c-1-0.1-2,0.2-2.3,1.3c-0.3,0.9,0.3,2.2,1.3,2.3c2.3,0.3,4.1,2.3,6.2,3.1
		c1,0.4,2.1-0.4,2.3-1.3C133.2,51.1,132.5,50.3,131.6,49.9"/>
	<path class="st0" d="M130.4,45.2c1.7,0.4,5.9,2.2,6.5-0.7c0.2-1-0.3-2-1.3-2.3c-0.9-0.3-2.1,0.3-2.3,1.3c0,0,0,0.1,0,0.1
		c0.2-0.3,0.3-0.6,0.5-0.8l-0.1,0.1c0.3-0.2,0.6-0.3,0.8-0.5c0.5,0.1,0.7,0.1,0.3,0c-0.2,0-0.3-0.1-0.5-0.1c-0.3-0.1-0.6-0.2-1-0.2
		c-0.6-0.2-1.3-0.3-1.9-0.5C129.1,41,128.1,44.6,130.4,45.2"/>
	<path class="st0" d="M139.8,42c0.4,1,0.7,2,1,3c0.1,0.5,0.3,0.9,0.4,1.4c0.1,0.2,0.1,0.5,0.2,0.7c0.1,0.3,0.1,0.3,0.1,0
		c0.4-0.3,0.8-0.6,1.1-0.9c-0.1,0-0.1,0-0.2,0.1c-2.3,0.8-1.3,4.4,1,3.7c1.7-0.5,2-2,1.7-3.6c-0.4-1.8-1-3.7-1.6-5.4
		C142.6,38.7,138.9,39.7,139.8,42"/>
	<path class="st0" d="M148.6,44.2c3,1.2,6.6-0.8,7.1-4.1c0.1-1-0.3-2-1.3-2.3c-0.9-0.2-2.2,0.3-2.3,1.3c-0.2,1.3-1.1,1.9-2.4,1.4
		c-1-0.4-2.1,0.4-2.3,1.3C147,43,147.7,43.9,148.6,44.2"/>
	<path class="st0" d="M150.4,50c1.2,1,2.1,2.2,2.9,3.5c1.2,2.1,4.5,0.2,3.3-1.9c-0.9-1.6-2.1-3.1-3.5-4.3c-0.8-0.7-1.9-0.8-2.7,0
		C149.7,48.1,149.6,49.4,150.4,50"/>
	<path class="st0" d="M156,68.9c0.9,0.6,1,1.8,0.7,2.8c-0.3,1,0.4,2.1,1.3,2.3c1,0.3,2-0.4,2.3-1.3c0.9-2.6-0.2-5.5-2.4-7
		c-0.8-0.6-2.1-0.1-2.6,0.7C154.8,67.3,155.2,68.3,156,68.9"/>
	<path class="st0" d="M164.6,77.3c1.6-0.4,3.2,0.2,4.7-0.3c1.6-0.6,2.6-2,2.6-3.7c0-2.4-3.8-2.4-3.8,0c0,0.3-1.5,0.2-1.7,0.2
		c-1-0.1-1.9-0.1-2.9,0.2C161.2,74.2,162.2,77.8,164.6,77.3"/>
	<path class="st0" d="M180.9,75c1.9-0.9,4.1-0.3,5.5,1.2c1.6,1.8,4.3-0.9,2.7-2.7c-2.6-2.8-6.7-3.4-10.1-1.8
		C176.7,72.7,178.7,76,180.9,75"/>
	<path class="st0" d="M168.5,68.2c2.1-0.8,4.7-1.6,6.9-0.6c2.2,1,4.1-2.3,1.9-3.3c-3.3-1.4-6.6-0.9-9.8,0.2
		C165.2,65.4,166.2,69,168.5,68.2"/>
	<path class="st0" d="M164.8,61.5c1.1-2.9,3.4-7.2-0.3-9.3c-2.1-1.2-4,2-1.9,3.3c0.7,0.4-1.2,4.4-1.5,5
		C160.2,62.7,163.9,63.7,164.8,61.5"/>
	<path class="st0" d="M158.3,40.8c0.4,1.8,0.5,3.6,0.4,5.5c-0.1,2.4,3.7,2.4,3.8,0c0.1-2.2-0.1-4.4-0.5-6.5
		C161.5,37.4,157.8,38.4,158.3,40.8"/>
	<path class="st0" d="M166,34.6c1.3,0.6,2.1,1.8,2.1,3.3c0,2.4,3.8,2.4,3.8,0c0-2.7-1.5-5.3-4-6.6C165.7,30.3,163.8,33.5,166,34.6"
		/>
	<path class="st0" d="M168.7,47c1.9,0.8,4.1,1.3,6.2,1c1.8-0.3,2.8-1.8,3.1-3.4c0.6-2.4-3.1-3.4-3.7-1c-0.1,0.2-0.1,0.7-0.3,0.9
		c0.3-0.4-0.8-0.2-1.1-0.2c-1.1-0.1-2.2-0.5-3.2-0.9c-1-0.4-2.1,0.4-2.3,1.3C167.1,45.7,167.8,46.6,168.7,47"/>
	<path class="st0" d="M174.4,56.2c1.7-0.3,2.7,2.4,3.2,3.5c0.4,0.9,1.8,1.2,2.6,0.7c1-0.6,1.1-1.7,0.7-2.6c-1.4-3.1-3.7-6.1-7.5-5.3
		C171,53,172,56.7,174.4,56.2"/>
	<path class="st0" d="M183.5,64.4c1.1,0.1,2.3,0.5,3.4,0.9c0.7,0.2,1.6,0.5,2.1,1.1c1.4,2,4.7,0.1,3.3-1.9c-1.9-2.7-5.7-3.5-8.7-3.9
		c-1-0.1-1.9,1-1.9,1.9C181.6,63.6,182.5,64.2,183.5,64.4"/>
	<path class="st0" d="M193.4,76.8c2,0.4,4.1,0.2,5.8-1.1c1.6-1.3,2.4-3.2,2-5.3c-0.5-2.4-4.1-1.4-3.7,1c0.3,1.6-2.1,1.9-3.1,1.7
		c-1-0.2-2,0.3-2.3,1.3C191.9,75.4,192.4,76.6,193.4,76.8"/>
	<path class="st0" d="M207.4,76.2c0.5-1.3,1.3-0.8,2.6-0.8c1.4,0.1,2.7,0.1,4.1,0.2c2.4,0.1,2.4-3.7,0-3.8c-2.2-0.1-4.6-0.5-6.8-0.2
		c-2,0.3-2.9,1.9-3.5,3.6C202.9,77.5,206.5,78.4,207.4,76.2"/>
	<path class="st0" d="M220.7,76.4c1.5,0.8,3.2,0.4,4.4-0.8c1.1-1.1,1.2-2.6,2-3.9c0.6-0.9,0.2-2.1-0.7-2.6c-0.9-0.5-2-0.2-2.6,0.7
		c-0.5,0.8-0.7,1.7-1.1,2.6c-0.1,0.3-0.2,0.4-0.3,0.5c-0.1,0.1-0.2,0-0.1,0.1c0.1,0,0.2,0,0.3,0.1C220.4,72,218.5,75.2,220.7,76.4"
		/>
	<path class="st0" d="M220.1,67.8c0.3-0.8,0.6-1.7,1-2.5c0.2-0.4,0.4-0.8,0.5-1.1c0.1-0.2,0.2-0.4,0.3-0.6c0.2-0.3,0.2-0.3-0.2-0.1
		c2.3-0.7,1.3-4.4-1-3.7c-1.4,0.4-2,1.5-2.6,2.8c-0.6,1.4-1.2,2.7-1.8,4.1c-0.4,1,0.4,2.1,1.3,2.3C218.8,69.4,219.8,68.8,220.1,67.8
		"/>
	<path class="st0" d="M212.8,63.3c-1.6,0-3-0.7-4.4-1.1c-1.5-0.4-2.9-0.6-4.4-0.3c-2.4,0.4-1.4,4.1,1,3.7c1.3-0.2,2.7,0.4,3.9,0.8
		c1.3,0.4,2.6,0.8,4,0.8C215.2,67.1,215.2,63.4,212.8,63.3"/>
	<path class="st0" d="M199.7,64.1c0.3-1.2,0.3-2.4,0.3-3.6c0-1.1-0.1-2.3,0.5-3.3c1.2-2.1-2-4-3.3-1.9c-1.5,2.5-0.6,5.1-1.2,7.8
		C195.5,65.4,199.1,66.4,199.7,64.1"/>
	<path class="st0" d="M205.1,57c3.7,1.6,7.6,0,8.9-3.9c0.8-2.3-2.9-3.3-3.7-1c-0.5,1.3-2,2.2-3.3,1.6c-0.9-0.4-2-0.3-2.6,0.7
		C203.9,55.2,204.1,56.6,205.1,57"/>
	<path class="st0" d="M217.6,59.1c1.3-1.6,2.5-3.3,3.6-5.2c1.2-2.1-2.1-4-3.3-1.9c-0.9,1.5-1.8,3-3,4.4c-0.7,0.8-0.8,1.9,0,2.7
		C215.6,59.8,216.9,59.9,217.6,59.1"/>
	<path class="st0" d="M222.8,57c0.6,0.9,1.4,1.5,2.1,2.3c0.7,0.7,0.8,1.6,1,2.5c0.2,1,1.4,1.6,2.3,1.3c1.1-0.3,1.5-1.3,1.3-2.3
		c-0.2-1.2-0.5-2.4-1.3-3.4c-0.6-0.9-1.6-1.4-2.2-2.3C224.8,53.1,221.5,55,222.8,57"/>
	<path class="st0" d="M231.5,67.5c0.2,0.8,0.9,3.8-0.1,4.3c0.3-0.1,0.6-0.2,1-0.3c-0.1,0-0.3,0-0.4,0c-1,0.1-1.9,0.8-1.9,1.9
		c0,0.9,0.9,2,1.9,1.9c4.3-0.5,4-5.7,3.2-8.8C234.6,64.1,230.9,65.1,231.5,67.5"/>
	<path class="st0" d="M237.3,77c1.3,0.2,2.9,0.5,4.2,0.2c0.6-0.2,1.1-0.4,1.6-0.9c0.2-0.2,0.4-0.4,0.5-0.6c0.5-0.6,0.2-0.2-0.1-0.3
		c0.9,0.4,2.1-0.4,2.3-1.3c0.3-1.1-0.4-1.9-1.3-2.3c-1.2-0.5-2.5,0.1-3.4,1c-0.2,0.2-0.4,0.7-0.6,0.8c-0.5,0.2-1.7-0.1-2.2-0.2
		C236,72.9,234.9,76.6,237.3,77"/>
	<path class="st0" d="M252.9,78.1c1.5-0.5,2.8-1.4,3.8-2.7c0.5-0.6,0.9-1.3,1.2-2c0.3-0.7,0.3-1.5,0.7-2.2c1.2-2.1-2.1-4-3.3-1.9
		c-0.6,1-0.6,2.2-1.2,3.3c-0.5,0.9-1.3,1.5-2.2,1.9C249.6,75.2,250.5,78.9,252.9,78.1"/>
	<path class="st0" d="M252.7,67.6c-0.5-1-0.9-1.9-1.4-2.9c-0.3-0.5-1.2-1.8-1-2.5c0.8-2.3-2.8-3.3-3.7-1c-0.5,1.4,0.1,2.7,0.7,3.9
		c0.7,1.4,1.4,2.9,2.1,4.3C250.5,71.7,253.7,69.8,252.7,67.6"/>
	<path class="st0" d="M243.5,67.6c0.4-3.9-2-7.4-5.6-8.9c-1-0.4-2.1,0.4-2.3,1.3c-0.3,1.1,0.4,1.9,1.3,2.3c2.1,0.8,3,3.1,2.8,5.2
		C239.5,70,243.3,70,243.5,67.6"/>
	<path class="st0" d="M244.5,56.7c0.1-0.2,0.4-0.5,0.5-0.8c0.1-0.1,0.1-0.2,0.2-0.2c-0.5,0-0.6,0-0.3,0.1c0.2,0.2,0.8,0.3,1.1,0.4
		c0.4,0.2,0.9,0.4,1.4,0.6c0.9,0.4,2.1-0.4,2.3-1.3c0.3-1.1-0.4-1.9-1.3-2.3c-1.3-0.5-2.8-1.4-4.3-1c-1.4,0.4-2.2,1.5-2.8,2.7
		C240.1,57,243.4,58.9,244.5,56.7"/>
	<path class="st0" d="M235.7,54.3c-0.4-1.7-0.3-3.2-1.5-4.6c-1.2-1.3-2.9-1.9-4.6-2.3c-2.4-0.6-3.4,3.1-1,3.7
		c0.9,0.2,2.2,0.4,2.9,1.3c0.6,0.8,0.4,2.1,0.6,3C232.6,57.7,236.2,56.7,235.7,54.3"/>
	<path class="st0" d="M240.1,49.3c0.5-0.6,0.7-1.4,0.9-2.1c0-0.2,0.1-0.3,0.2-0.4c-0.2,0.2-0.1,0,0,0c0,0-0.1,0-0.1,0.1
		c-0.5-0.1-0.7,0-0.3,0.1c1,0.4,2.1-0.4,2.3-1.3c0.3-1.1-0.4-2-1.3-2.3c-1.4-0.6-2.9,0.3-3.7,1.4c-0.3,0.5-0.5,1-0.7,1.5
		c-0.1,0.3-0.2,0.5-0.3,0.8c0.1-0.2-0.2,0.4-0.3,0.4c-0.6,0.8-0.1,2.1,0.7,2.6C238.5,50.5,239.5,50.1,240.1,49.3"/>
	<path class="st0" d="M224.4,46.2c-0.8-0.5-1.2-1.8-1.9-2.5c-0.8-0.7-1.7-1.3-2.7-1.5c-2.1-0.6-4.3,0-5.5,1.9c-1.3,2.1,2,4,3.3,1.9
		c0.5-0.8,2.2,0.3,2.6,0.8c0.8,1,1.3,2,2.4,2.8C224.6,50.9,226.5,47.6,224.4,46.2"/>
	<path class="st0" d="M206,47.3c0,0.1,0,0.1-0.1,0.2c0.3-0.4,0.6-0.8,0.9-1.1c-0.1,0-0.1,0.1-0.2,0.1c0.3-0.1,0.6-0.2,1-0.3
		c-0.1,0-0.1,0-0.2,0c0.3,0.1,0.6,0.2,1,0.3c-0.1,0-0.1-0.1-0.2-0.1c0.2,0.2,0.5,0.5,0.7,0.7c0.1,0.3,0.1,0.3,0.1,0
		c0-0.2,0-0.4,0-0.6c0-0.4,0-0.8,0-1.2c0-0.8,0-1.6,0-2.5c0.1-2.4-3.7-2.4-3.8,0c0,1,0,1.9-0.1,2.9c0,0.9-0.1,2,0.2,2.9
		c0.9,2.1,3.5,1.8,4.3-0.2c0.3-1-0.4-2.1-1.3-2.3C207.3,45.7,206.3,46.4,206,47.3"/>
	<path class="st0" d="M199.6,48.1c-0.4-0.8-0.7-1.7-1.1-2.5c-0.3-0.7-0.7-1.4-0.9-2.1v1c0-0.1,0-0.1,0-0.2c-0.2,0.3-0.3,0.6-0.5,0.8
		c0-0.1,0.1-0.1,0.1-0.2c1.6-1.8-1.1-4.5-2.7-2.7c-1,1.2-0.7,2.4-0.1,3.7c0.6,1.4,1.2,2.7,1.8,4.1c0.4,0.9,1.8,1.2,2.6,0.7
		C199.9,50.2,200,49.1,199.6,48.1"/>
	<path class="st0" d="M192.1,51.4c-3,0.2-5.4,2.6-5.4,5.6c0,2.4,3.8,2.4,3.8,0c0-0.4,0-0.3,0.1-0.7c-0.1,0.2,0.2-0.3,0.2-0.3
		c0.1-0.2,0.1-0.1,0.2-0.2c0.4-0.4,0.8-0.6,1.1-0.6c1-0.1,1.9-0.8,1.9-1.9C193.9,52.3,193.1,51.3,192.1,51.4"/>
	<path class="st0" d="M184.8,47.5c-1-0.7-2.1-1.1-3.3-1.5c-1-0.3-2.1,0.3-2.3,1.3c-0.2,1,0.3,2.1,1.3,2.3c1,0.3,1.5,0.5,2.4,1.1
		c0.8,0.5,2.1,0.2,2.6-0.7C186,49.1,185.7,48.1,184.8,47.5"/>
	<path class="st0" d="M190.4,42.5c0.2-1.9,1.7-3.5,2.9-4.8c1.6-1.8-1.1-4.5-2.7-2.7c-2,2.2-3.7,4.5-4,7.5c-0.1,1,0.9,1.9,1.9,1.9
		C189.6,44.4,190.3,43.5,190.4,42.5"/>
	<path class="st0" d="M184.6,36.9c-0.3-0.3-0.5-0.9-0.8-1.2c-0.6-0.6-1.4-0.9-2.2-0.9c-1.6,0-3.2,0.6-4.7,1.2
		c-0.9,0.4-1.2,1.8-0.7,2.6c0.6,1,1.7,1.1,2.6,0.7c0.4-0.2,0.8-0.3,1.3-0.4c0.3-0.1,1-0.1,1.2-0.2c0.3,0,0.2-0.1-0.3-0.4
		c0.1,0.1,0.2,0.3,0.2,0.4c0.2,0.4,0.4,0.7,0.7,1C183.7,41.2,186.4,38.5,184.6,36.9"/>
	<path class="st0" d="M181.8,29.7c0-0.8,0.7-1.6,1.2-2.3c0.6-0.9,1.1-1.8,1.3-2.9c0.2-1-0.3-2-1.3-2.3c-0.9-0.2-2.2,0.3-2.3,1.3
		c-0.2,1.1-0.8,1.9-1.4,2.8c-0.7,1.1-1.1,2.2-1.2,3.4C177.9,32.1,181.7,32.1,181.8,29.7"/>
	<path class="st0" d="M188.7,30.3c0.9-0.4,1.8-0.9,2.7-1.4c0.4-0.2,1.3-1.1,1.7-0.6c1.7,1.8,4.3-0.9,2.7-2.7c-2.8-3-6.3,0.3-9,1.5
		c-0.9,0.4-1.1,1.8-0.7,2.6C186.6,30.6,187.7,30.7,188.7,30.3"/>
	<path class="st0" d="M178.8,17.6c1.6-0.3,3-1.7,3.3-3.4c0.3-1.8-0.5-3.5-2-4.5c-0.9-0.6-2.1-0.2-2.6,0.7c-0.5,0.9-0.2,2,0.7,2.6
		c0.5,0.4,0.1,0.8-0.4,1c-1,0.2-1.6,1.4-1.3,2.3C176.8,17.3,177.8,17.8,178.8,17.6"/>
	<path class="st0" d="M181.8,6.4c1,0.4,1.9,0.8,2.9,1.1c1,0.4,1.9,0.6,3,0.1c2.2-1.1,0.3-4.4-1.9-3.3c-0.1,0-0.1,0.1-0.2,0.1
		c0.3-0.1,0.6-0.2,1-0.3c-0.3,0-1.2-0.4-1.6-0.6c-0.7-0.3-1.4-0.5-2.1-0.8c-1-0.4-2.1,0.4-2.3,1.3C180.2,5.2,180.8,6.1,181.8,6.4"/>
	<path class="st0" d="M188.4,14.3c0.3,0.8,0.7,1.4,1.1,2c0.2,0.2,0.3,0.6,0.5,0.8c0,0.1,0,0.1,0.1,0.2c0.1-0.3,0.3-0.5,0.8-0.4
		c-1-0.2-2,0.3-2.3,1.3c-0.2,0.9,0.3,2.2,1.3,2.3c2,0.3,3.8-0.9,3.9-3c0.1-0.9-0.2-1.7-0.6-2.4c-0.3-0.7-1-1.2-1.2-1.9
		c-0.4-0.9-1.3-1.6-2.3-1.3C188.9,12.2,188,13.4,188.4,14.3"/>
	<path class="st0" d="M192.8,4.3c2.7,1.1,5.4,1.3,8.3,0.9c1-0.1,1.6-1.4,1.3-2.3c-0.3-1.1-1.3-1.5-2.3-1.3c-2.1,0.3-4.3-0.1-6.3-0.9
		C191.5-0.2,190.6,3.5,192.8,4.3"/>
	<path class="st0" d="M196.7,9.5c0.4,0.9,0.3,1.5-0.4,2.1c-1.8,1.7,0.9,4.3,2.7,2.7c1.5-1.4,2.2-3.8,1.4-5.8
		c-0.4-0.9-1.3-1.6-2.3-1.3C197.1,7.4,196.3,8.6,196.7,9.5"/>
	<path class="st0" d="M199.2,21.3c-0.3-0.2,0,0.4,0,0.6c0.1,0.5,0.1,1,0.2,1.5c0.1,1,0.1,2,0.2,3.1c0.1,2.4,3.9,2.4,3.8,0
		c0-1.7-0.2-3.4-0.4-5.1c-0.2-1.4-0.6-2.5-1.8-3.4C199,16.7,197.1,20,199.2,21.3"/>
	<path class="st0" d="M198.3,34.9c1.4,0.4,1.2,3,1.3,4.1c0.1,1,0.8,1.9,1.9,1.9c0.9,0,2-0.9,1.9-1.9c-0.4-3-0.4-6.9-4.1-7.8
		C197,30.7,196,34.3,198.3,34.9"/>
	<path class="st0" d="M208.3,36.2c2.5,0.6,4.7,1.7,6.6,3.3c1.8,1.6,4.5-1.1,2.7-2.7c-2.4-2.1-5.2-3.5-8.3-4.3
		C207,31.9,205.9,35.6,208.3,36.2"/>
	<path class="st0" d="M230.7,44c1.2-1.1,1.5-2.5,2.4-3.8c1.2-1.5,4-1.4,5.7-1.3c2.4,0.1,2.4-3.7,0-3.8c-2.4-0.1-5.3,0.1-7.4,1.4
		c-1.8,1.2-1.9,3.4-3.4,4.8C226.2,42.9,228.9,45.6,230.7,44"/>
	<path class="st0" d="M227.2,35.9c0.3-4.1-2.4-7.7-6.1-9c-2.3-0.8-3.3,2.9-1,3.7c2.3,0.8,3.5,3,3.4,5.4
		C223.2,38.3,227,38.3,227.2,35.9"/>
	<path class="st0" d="M213.3,26.4c-0.2-1.5-0.5-3.2,0.8-4.2c0.8-0.6,0.7-2,0-2.7c-0.8-0.8-1.9-0.6-2.7,0c-2.1,1.6-2.2,4.4-1.9,6.9
		c0.1,1,0.8,1.9,1.9,1.9C212.4,28.3,213.4,27.4,213.3,26.4"/>
	<path class="st0" d="M205.6,14.2c1.3,2.2,3.6,0.8,4.9-0.6c1.2-1.4,2.1-3.1,2.3-4.9c0.2-1-0.3-2-1.3-2.3c-0.9-0.2-2.2,0.3-2.3,1.3
		c-0.1,0.8-0.4,1.6-0.8,2.3c-0.2,0.3-0.4,0.6-0.6,0.9c-0.1,0.2-0.3,0.3-0.4,0.5c-0.1,0.1-0.1,0.1-0.2,0.2c-0.3,0.3-0.1,0.3,0.7,0
		c0.4,0.3,0.8,0.6,1.1,0.9c0-0.1-0.1-0.1-0.1-0.2C207.6,10.2,204.3,12.1,205.6,14.2"/>
	<path class="st0" d="M209,4.1c0.2-0.1,0.4-0.1,0.6-0.2c0.5-0.1-0.2,0,0.4-0.1c0.2,0,0.4,0,0.7,0c0,0,0.6,0,0.4,0
		c1,0.1,2.1-0.2,2.3-1.3c0.2-0.9-0.3-2.2-1.3-2.3c-1.4-0.2-2.7-0.2-4,0.2c-0.9,0.3-1.6,1.3-1.3,2.3C207,3.8,208,4.5,209,4.1"/>
	<path class="st0" d="M217.3,5.1c0.5,1,1.1,2.2,0.4,3.3c-1.3,2.1,2,4,3.3,1.9c1.4-2.3,0.6-4.8-0.4-7.1c-0.4-0.9-1.8-1.2-2.6-0.7
		C217.1,3,216.9,4.1,217.3,5.1"/>
	<path class="st0" d="M257.5,63.3c-0.7-2.5,1.6-5,2.2-7.4c0.6-2.4-3-3.4-3.7-1c-0.8,3.3-3.2,5.8-2.2,9.4
		C254.5,66.6,258.2,65.7,257.5,63.3"/>
	<path class="st0" d="M248.7,49.1c2.4-2.3,1.5-5.6-0.4-7.9c-0.6-0.8-2-0.7-2.7,0c-0.8,0.8-0.6,1.9,0,2.7c0.6,0.7,1.1,1.8,0.4,2.5
		C244.3,48.1,247,50.8,248.7,49.1"/>
	<path class="st0" d="M255.6,50.5c0.8-0.7,1.8-0.8,2.8-0.4c1,0.4,2.1-0.4,2.3-1.3c0.3-1.1-0.4-1.9-1.3-2.3c-2.2-0.9-4.8-0.3-6.5,1.3
		C251.1,49.5,253.8,52.2,255.6,50.5"/>
	<path class="st0" d="M216.9,16.9c0.4,0-0.2-0.1,0.2,0c0.2,0.1,0.2,0.1,0,0c0.1,0,0.4,0.3,0.2,0.1c0,0,0.3,0.4,0.2,0.2
		c-0.1-0.2,0.1,0.2,0.1,0.2c0.2,0.3,0-0.1,0,0.1c0,0.2,0.1,0.3,0,0.1c0,0.2,0,0.3,0,0.5c-0.1,1,1,1.9,1.9,1.9
		c1.1-0.1,1.8-0.8,1.9-1.9c0.3-2.6-2-4.9-4.6-5c-1,0-1.9,0.9-1.9,1.9C215,16.1,215.8,16.9,216.9,16.9"/>
	<path class="st0" d="M226.3,24c0.9,0.1,1.5,1.2,1.4,2.2c-0.1,1,0.9,1.9,1.9,1.9c1.1,0,1.8-0.9,1.9-1.9c0.3-3.1-2.3-5.6-5.2-6
		c-1-0.1-1.9,1-1.9,1.9C224.4,23.2,225.3,23.9,226.3,24"/>
	<path class="st0" d="M232.4,31.3c1.8,0.9,4,0.5,5.4-0.9c1.5-1.5,1.8-3.7,1.6-5.6c-0.1-1-0.8-1.9-1.9-1.9c-1,0-2,0.9-1.9,1.9
		c0.1,0.9,0.2,1.9-0.3,2.6c-0.2,0.3-0.7,0.8-1,0.6C232.1,27,230.2,30.3,232.4,31.3"/>
	<path class="st0" d="M224.7,5c1,0.4,4.9,2.2,4.2,3.8c-0.4,0.9-0.3,2,0.7,2.6c0.8,0.5,2.2,0.3,2.6-0.7c2-4.6-2.6-8-6.4-9.4
		C223.4,0.5,222.4,4.2,224.7,5"/>
	<path class="st0" d="M225.4,15.5c2.7,1.1,5.4,1.8,8.4,1.9c2.4,0.1,2.4-3.7,0-3.8c-2.2,0-4.4-0.5-6.5-1.3c-0.9-0.4-2-0.3-2.6,0.7
		C224.2,13.7,224.5,15.1,225.4,15.5"/>
	<path class="st0" d="M235.2,5c2.9,1.3,6.7,3.4,9.8,1.7c2.1-1.2,0.2-4.4-1.9-3.3c-0.8,0.4-1.8-0.1-2.6-0.4c-1.2-0.4-2.3-0.9-3.4-1.4
		C234.9,0.7,233,3.9,235.2,5"/>
	<path class="st0" d="M237.7,12.9c2.1,2.1,7.5,6.1,9.6,1.9c1.1-2.2-2.2-4.1-3.3-1.9c0.3,0,0.4,0,0.1-0.1c-0.2,0-0.4-0.1-0.5-0.2
		c-0.4-0.2-0.8-0.4-1.2-0.7c-0.8-0.5-1.4-1.1-2.1-1.7C238.7,8.5,236,11.2,237.7,12.9"/>
	<path class="st0" d="M251.3,5.2c0.7,0.5,2.1,3.4,1.3,4c-1.9,1.6,0.8,4.2,2.7,2.7c3-2.5,0.5-8.1-2.1-9.9
		C251.2,0.6,249.3,3.9,251.3,5.2"/>
	<path class="st0" d="M241.7,22.1c1.3,1.4,1.8,3.1,1.7,4.9c-0.2,2.4,3.6,2.4,3.8,0c0.2-2.8-0.9-5.6-2.8-7.6
		C242.7,17.6,240,20.3,241.7,22.1"/>
	<path class="st0" d="M246.6,36.3c1.1-0.6,3.2-1.9,3.8,0c0.7,2.3,4.4,1.3,3.7-1c-0.6-1.8-1.9-3.2-3.7-3.6c-2-0.5-3.9,0.4-5.6,1.4
		C242.6,34.3,244.5,37.6,246.6,36.3"/>
	<path class="st0" d="M255.1,42.5c4.4,1.1,6.3-4.4,6-7.8c-0.2-2.4-4-2.4-3.8,0c0.1,1,0,1.8-0.3,2.8c-0.1,0.4-0.5,1.5-0.9,1.4
		C253.7,38.3,252.7,41.9,255.1,42.5"/>
	<path class="st0" d="M252.6,27.4c2-0.4,4.9-1.1,6,1.2c1.1,2.2,4.4,0.3,3.3-1.9c-2-3.9-6.6-3.8-10.3-2.9
		C249.2,24.3,250.2,27.9,252.6,27.4"/>
	<path class="st0" d="M252.4,18.7c2.5-0.2,4.9,0,7.3,0.6c1,0.3,2.1-0.3,2.3-1.3c0.3-1.3,0.4-2.6,0.3-3.9c-0.2-2.4-4-2.4-3.8,0
		c0.1,1,0,1.9-0.2,2.9c0.8-0.4,1.6-0.9,2.3-1.3c-2.7-0.7-5.5-1-8.3-0.7C250,15.1,250,18.9,252.4,18.7"/>
</g>
</svg>
