<?xml version="1.0" encoding="utf-8"?>
<!-- Generator: Adobe Illustrator 22.0.1, SVG Export Plug-In . SVG Version: 6.00 Build 0)  -->
<svg version="1.1" id="Layer_1" xmlns="http://www.w3.org/2000/svg" xmlns:xlink="http://www.w3.org/1999/xlink" x="0px" y="0px"
	 width="149.6px" height="149.5px" viewBox="0 0 149.6 149.5" style="enable-background:new 0 0 149.6 149.5;" xml:space="preserve"
	>
<style type="text/css">
	.st0{fill:#FFD930;}
</style>
<g>
	<path class="st0" d="M49,10.5c2.1,2.4,4,4.6,7.7,4.6c3.7,0,5.5-2.1,7.7-4.6c2.4-2.7,5.1-5.8,10.4-5.8c5.3,0,8,3.1,10.4,5.8
		c2.1,2.4,4,4.6,7.7,4.6s5.5-2.1,7.7-4.6c1.3-1.5,2.6-3,4.5-4.2C95.8,2.3,85.6,0,74.8,0C64,0,53.8,2.3,44.6,6.4
		C46.4,7.5,47.8,9.1,49,10.5"/>
	<path class="st0" d="M128.5,126.8c-5-0.2-7.6-3.2-9.9-5.8c-2.1-2.4-4-4.6-7.7-4.6c-3.7,0-5.5,2.1-7.7,4.6
		c-2.4,2.7-5.1,5.8-10.4,5.8c-5.3,0-8-3.1-10.4-5.8c-2.1-2.4-4-4.6-7.7-4.6s-5.5,2.1-7.7,4.6c-2.4,2.7-5.1,5.8-10.4,5.8
		c-5.3,0-8-3.1-10.4-5.8c-2.1-2.4-4-4.6-7.7-4.6s-5.5,2.1-7.7,4.6c-2.3,2.6-4.9,5.6-9.9,5.8c2.8,2.9,5.8,5.5,8.9,7.9
		c2-2.1,4.6-3.8,8.6-3.8c5.3,0,8,3.1,10.4,5.8c2.1,2.4,4,4.6,7.7,4.6c3.7,0,5.5-2.1,7.7-4.6c2.4-2.7,5.1-5.8,10.4-5.8
		c5.3,0,8,3.1,10.4,5.8c2.1,2.4,4,4.6,7.7,4.6c3.7,0,5.5-2.1,7.7-4.6c2.4-2.7,5.1-5.8,10.4-5.8c4.1,0,6.6,1.8,8.6,3.8
		C122.8,132.3,125.8,129.7,128.5,126.8"/>
	<path class="st0" d="M139.4,103c-2.4,2.7-5.1,5.8-10.4,5.8c-5.3,0-8-3.1-10.4-5.8c-2.1-2.4-4-4.6-7.7-4.6c-3.7,0-5.5,2.1-7.7,4.6
		c-2.4,2.7-5.1,5.8-10.4,5.8c-5.3,0-8-3.1-10.4-5.8c-2.1-2.4-4-4.6-7.7-4.6s-5.5,2.1-7.7,4.6c-2.4,2.7-5.1,5.8-10.4,5.8
		c-5.3,0-8-3.1-10.4-5.8c-2.1-2.4-4-4.6-7.7-4.6s-5.5,2.1-7.7,4.6c-2.4,2.7-5.1,5.8-10.4,5.8c-5.3,0-8-3.1-10.4-5.8
		c-1.8-2.1-3.5-4-6.3-4.4c3,8.8,7.5,16.9,13.3,23.9c1,0.5,2.1,0.8,3.4,0.8c3.7,0,5.5-2.1,7.7-4.6c2.4-2.7,5.1-5.8,10.4-5.8
		c5.3,0,8,3.1,10.4,5.8c2.1,2.4,4,4.6,7.7,4.6s5.5-2.1,7.7-4.6c2.4-2.7,5.1-5.8,10.4-5.8c5.3,0,8,3.1,10.4,5.8
		c2.1,2.4,4,4.6,7.7,4.6c3.7,0,5.5-2.1,7.7-4.6c2.4-2.7,5.1-5.8,10.4-5.8c5.3,0,8,3.1,10.4,5.8c2.1,2.4,4,4.6,7.7,4.6
		c1.3,0,2.4-0.3,3.4-0.8c5.8-7,10.3-15.1,13.3-23.9C142.9,99,141.3,100.9,139.4,103"/>
	<path class="st0" d="M111,134.5c-3.7,0-5.5,2.1-7.7,4.6c-2.4,2.7-5.1,5.8-10.4,5.8c-5.3,0-8-3.1-10.4-5.8c-2.1-2.4-4-4.6-7.7-4.6
		s-5.5,2.1-7.7,4.6c-2.4,2.7-5.1,5.8-10.4,5.8c-5.3,0-8-3.1-10.4-5.8c-2.1-2.4-4-4.6-7.7-4.6c-2.5,0-4.1,1-5.6,2.3
		c11,7.4,24,12,38,12.7c1.1-0.4,2.3-0.6,3.8-0.6c1.4,0,2.7,0.2,3.8,0.6c14-0.7,27-5.3,38-12.7C115.1,135.5,113.5,134.5,111,134.5"/>
	<path class="st0" d="M148.6,62.5c-0.5-0.1-0.9-0.1-1.5-0.1c-3.7,0-5.5,2.1-7.7,4.6c-2.4,2.7-5.1,5.8-10.4,5.8
		c-5.3,0-8-3.1-10.4-5.8c-2.1-2.4-4-4.6-7.7-4.6c-3.7,0-5.5,2.1-7.7,4.6c-2.4,2.7-5.1,5.8-10.4,5.8c-5.3,0-8-3.1-10.4-5.8
		c-2.1-2.4-4-4.6-7.7-4.6c-3.7,0-5.5,2.1-7.7,4.6c-2.4,2.7-5.1,5.8-10.4,5.8c-5.3,0-8-3.1-10.4-5.8c-2.1-2.4-4-4.6-7.7-4.6
		c-3.7,0-5.5,2.1-7.7,4.6c-2.4,2.7-5.1,5.8-10.4,5.8c-5.3,0-8-3.1-10.4-5.8c-2.1-2.4-4-4.6-7.7-4.6c-0.5,0-1,0-1.5,0.1
		c-0.7,4-1,8.1-1,12.3c0,0.8,0,1.5,0,2.3c0.7-0.2,1.5-0.2,2.4-0.2c5.3,0,8,3.1,10.4,5.8c2.1,2.4,4,4.6,7.7,4.6
		c3.7,0,5.5-2.1,7.7-4.6c2.4-2.7,5.1-5.8,10.4-5.8c5.3,0,8,3.1,10.4,5.8c2.1,2.4,4,4.6,7.7,4.6c3.7,0,5.5-2.1,7.7-4.6
		c2.4-2.7,5.1-5.8,10.4-5.8c5.3,0,8,3.1,10.4,5.8c2.1,2.4,4,4.6,7.7,4.6c3.7,0,5.5-2.1,7.7-4.6c2.4-2.7,5.1-5.8,10.4-5.8
		c5.3,0,8,3.1,10.4,5.8c2.1,2.4,4,4.6,7.7,4.6c3.7,0,5.5-2.1,7.7-4.6c2.4-2.7,5.1-5.8,10.4-5.8c0.9,0,1.7,0.1,2.4,0.2
		c0-0.8,0-1.5,0-2.3C149.6,70.6,149.2,66.5,148.6,62.5"/>
	<path class="st0" d="M139.4,49c-2.4,2.7-5.1,5.8-10.4,5.8c-5.3,0-8-3.1-10.4-5.8c-2.1-2.4-4-4.6-7.7-4.6c-3.7,0-5.5,2.1-7.7,4.6
		c-2.4,2.7-5.1,5.8-10.4,5.8c-5.3,0-8-3.1-10.4-5.8c-2.1-2.4-4-4.6-7.7-4.6s-5.5,2.1-7.7,4.6c-2.4,2.7-5.1,5.8-10.4,5.8
		c-5.3,0-8-3.1-10.4-5.8c-2.1-2.4-4-4.6-7.7-4.6S33.1,46.5,31,49c-2.4,2.7-5.1,5.8-10.4,5.8c-5.3,0-8-3.1-10.4-5.8
		c-1.3-1.5-2.5-2.9-4.1-3.7c-1.9,4.3-3.3,8.9-4.3,13.6c0.2,0,0.5,0,0.7,0c5.3,0,8,3.1,10.4,5.8c2.1,2.4,4,4.6,7.7,4.6
		c3.7,0,5.5-2.1,7.7-4.6c2.4-2.7,5.1-5.8,10.4-5.8c5.3,0,8,3.1,10.4,5.8c2.1,2.4,4,4.6,7.7,4.6s5.5-2.1,7.7-4.6
		c2.4-2.7,5.1-5.8,10.4-5.8c5.3,0,8,3.1,10.4,5.8c2.1,2.4,4,4.6,7.7,4.6c3.7,0,5.5-2.1,7.7-4.6c2.4-2.7,5.1-5.8,10.4-5.8
		c5.3,0,8,3.1,10.4,5.8c2.1,2.4,4,4.6,7.7,4.6c3.7,0,5.5-2.1,7.7-4.6c2.4-2.7,5.1-5.8,10.4-5.8c0.3,0,0.5,0,0.7,0
		c-1-4.7-2.5-9.2-4.3-13.6C141.9,46.1,140.8,47.5,139.4,49"/>
	<path class="st0" d="M12.9,100.6c2.1,2.4,4,4.6,7.7,4.6s5.5-2.1,7.7-4.6c2.4-2.7,5.1-5.8,10.4-5.8c5.3,0,8,3.1,10.4,5.8
		c2.1,2.4,4,4.6,7.7,4.6c3.7,0,5.5-2.1,7.7-4.6c2.4-2.7,5.1-5.8,10.4-5.8c5.3,0,8,3.1,10.4,5.8c2.1,2.4,4,4.6,7.7,4.6
		c3.7,0,5.5-2.1,7.7-4.6c2.4-2.7,5.1-5.8,10.4-5.8c5.3,0,8,3.1,10.4,5.8c2.1,2.4,4,4.6,7.7,4.6c3.7,0,5.5-2.1,7.7-4.6
		c2.3-2.7,5-5.7,10.1-5.8c1.3-4.5,2.1-9.3,2.5-14.1c-0.7-0.2-1.4-0.3-2.2-0.3c-3.7,0-5.5,2.1-7.7,4.6c-2.4,2.7-5.1,5.8-10.4,5.8
		c-5.3,0-8-3.1-10.4-5.8c-2.1-2.4-4-4.6-7.7-4.6c-3.7,0-5.5,2.1-7.7,4.6c-2.4,2.7-5.1,5.8-10.4,5.8c-5.3,0-8-3.1-10.4-5.8
		c-2.1-2.4-4-4.6-7.7-4.6c-3.7,0-5.5,2.1-7.7,4.6c-2.4,2.7-5.1,5.8-10.4,5.8c-5.3,0-8-3.1-10.4-5.8c-2.1-2.4-4-4.6-7.7-4.6
		c-3.7,0-5.5,2.1-7.7,4.6c-2.4,2.7-5.1,5.8-10.4,5.8c-5.3,0-8-3.1-10.4-5.8c-2.1-2.4-4-4.6-7.7-4.6c-0.8,0-1.6,0.1-2.2,0.3
		c0.4,4.8,1.2,9.6,2.5,14.1C7.9,94.9,10.5,98,12.9,100.6"/>
	<path class="st0" d="M12.9,46.6c2.1,2.4,4,4.6,7.7,4.6s5.5-2.1,7.7-4.6c2.4-2.7,5.1-5.8,10.4-5.8c5.3,0,8,3.1,10.4,5.8
		c2.1,2.4,4,4.6,7.7,4.6c3.7,0,5.5-2.1,7.7-4.6c2.4-2.7,5.1-5.8,10.4-5.8c5.3,0,8,3.1,10.4,5.8c2.1,2.4,4,4.6,7.7,4.6
		c3.7,0,5.5-2.1,7.7-4.6c2.4-2.7,5.1-5.8,10.4-5.8c5.3,0,8,3.1,10.4,5.8c2.1,2.4,4,4.6,7.7,4.6c3.7,0,5.5-2.1,7.7-4.6
		c1.5-1.7,3-3.5,5.3-4.6c-1.4-3-3.1-5.8-4.9-8.5c-1.9,1.8-4.4,3.3-8.1,3.3c-5.3,0-8-3.1-10.4-5.8c-2.1-2.4-4-4.6-7.7-4.6
		c-3.7,0-5.5,2.1-7.7,4.6c-2.4,2.7-5.1,5.8-10.4,5.8c-5.3,0-8-3.1-10.4-5.8c-2.1-2.4-4-4.6-7.7-4.6c-3.7,0-5.5,2.1-7.7,4.6
		c-2.4,2.7-5.1,5.8-10.4,5.8c-5.3,0-8-3.1-10.4-5.8c-2.1-2.4-4-4.6-7.7-4.6c-3.7,0-5.5,2.1-7.7,4.6c-2.4,2.7-5.1,5.8-10.4,5.8
		c-3.7,0-6.1-1.5-8.1-3.3C10.7,36.1,9,39,7.6,41.9C9.8,43.1,11.4,44.9,12.9,46.6"/>
	<path class="st0" d="M103.3,12.9c-2.4,2.7-5.1,5.8-10.4,5.8c-5.3,0-8-3.1-10.4-5.8c-2.1-2.4-4-4.6-7.7-4.6c-3.7,0-5.5,2.1-7.7,4.6
		c-2.4,2.7-5.1,5.8-10.4,5.8c-5.3,0-8-3.1-10.4-5.8c-1.8-2.1-3.4-3.9-6.2-4.4C30,13.8,21.3,21.3,14.6,30.4c1.6,1.6,3.3,2.7,6,2.7
		c3.7,0,5.5-2.1,7.7-4.6c2.4-2.7,5.1-5.8,10.4-5.8s8,3.1,10.4,5.8c2.1,2.4,4,4.6,7.7,4.6c3.7,0,5.5-2.1,7.7-4.6
		c2.4-2.7,5.1-5.8,10.4-5.8c5.3,0,8,3.1,10.4,5.8c2.1,2.4,4,4.6,7.7,4.6s5.5-2.1,7.7-4.6c2.4-2.7,5.1-5.8,10.4-5.8
		c5.3,0,8,3.1,10.4,5.8c2.1,2.4,4,4.6,7.7,4.6c2.7,0,4.4-1.1,6-2.7c-6.7-9.1-15.5-16.6-25.6-21.9C106.7,9,105.1,10.8,103.3,12.9"/>
</g>
</svg>
