<?xml version="1.0" encoding="utf-8"?>
<!-- Generator: Adobe Illustrator 22.0.1, SVG Export Plug-In . SVG Version: 6.00 Build 0)  -->
<svg version="1.1" id="Layer_1" xmlns="http://www.w3.org/2000/svg" xmlns:xlink="http://www.w3.org/1999/xlink" x="0px" y="0px"
	 width="112.6px" height="111px" viewBox="0 0 112.6 111" style="enable-background:new 0 0 112.6 111;" xml:space="preserve">
<style type="text/css">
	.st0{fill:#FFD930;}
</style>
<g>
	<path class="st0" d="M4.9,1.9c2.2-0.5,2.4,5.2,2.3,6.4c0,1.2,1.9,1.2,1.9,0c0.1-2.8-0.6-9.1-4.8-8.3C3.2,0.3,3.7,2.2,4.9,1.9"/>
	<path class="st0" d="M21,4.2c3.1-0.1,6.2-0.5,9.2-1.1c1.2-0.3,0.7-2.1-0.5-1.9c-2.9,0.6-5.8,1-8.7,1.1C19.7,2.4,19.7,4.3,21,4.2"/>
	<path class="st0" d="M42.5,2.7c2.6,0.5,4.8,1.8,6.5,3.8c0.8,0.9,2.2-0.4,1.4-1.4c-1.9-2.2-4.5-3.8-7.4-4.3
		C41.8,0.6,41.3,2.4,42.5,2.7"/>
	<path class="st0" d="M61.9,7.4c0.5-2.4,2.3-4.2,4.7-4.7c1.2-0.2,0.7-2.1-0.5-1.9c-3,0.6-5.5,3-6.1,6.1C59.8,8.1,61.6,8.6,61.9,7.4"
		/>
	<path class="st0" d="M81.7,3.5c3.7-1,7.5-1.2,11.3-0.8c1.2,0.1,1.2-1.8,0-1.9C89,0.3,85,0.6,81.2,1.6C80,1.9,80.5,3.8,81.7,3.5"/>
	<path class="st0" d="M103.7,2.5c1.1,3.3-2.4,5.3-4.8,6.6c-1.1,0.6-0.1,2.3,1,1.7c3.2-1.8,7.1-4.6,5.7-8.8
		C105.1,0.8,103.3,1.3,103.7,2.5"/>
	<path class="st0" d="M110.7,10.4c-0.8,2.4-2,4.7-3.6,6.6c-0.8,0.9,0.6,2.3,1.4,1.4c1.9-2.2,3.3-4.7,4.1-7.5
		C112.9,9.7,111,9.2,110.7,10.4"/>
	<path class="st0" d="M105.9,31.9c1.6,0.7,3,1.8,4.1,3.2c0.7,1,2.4,0,1.7-1c-1.3-1.7-2.9-3-4.8-3.9
		C105.8,29.7,104.8,31.3,105.9,31.9"/>
	<path class="st0" d="M110.1,44.9c-0.6,2.5-1.9,4.7-3.8,6.5c-0.9,0.8,0.5,2.2,1.4,1.4c2.1-2,3.6-4.5,4.3-7.4
		C112.3,44.2,110.4,43.7,110.1,44.9"/>
	<path class="st0" d="M105.5,63.3c1.3,2,2.1,4.1,2.5,6.5c0.2,1.2,2.1,0.7,1.9-0.5c-0.4-2.5-1.3-4.8-2.7-6.9
		C106.5,61.3,104.9,62.2,105.5,63.3"/>
	<path class="st0" d="M111.7,84.7c-2.5-1.6-5.1-3.3-7.6-4.9c-1-0.7-2,1-1,1.7c2.5,1.6,5.1,3.3,7.6,4.9
		C111.8,87,112.7,85.3,111.7,84.7"/>
	<path class="st0" d="M107.7,91.6c-1.6,2-3.6,3.6-6,4.5c-1.2,0.4-0.7,2.3,0.5,1.9c2.7-1,5.1-2.7,6.9-5
		C109.8,91.9,108.5,90.6,107.7,91.6"/>
	<path class="st0" d="M108.2,106.4c0.5,1.1,0.8,2.2,0.9,3.4c0.1,1.2,2,1.2,1.9,0c-0.1-1.5-0.5-3-1.2-4.4
		C109.4,104.3,107.7,105.3,108.2,106.4"/>
	<path class="st0" d="M99.6,107.7c-2.2-3.2-4.5-6.2-7-9.1c-0.8-0.9-2.2,0.4-1.4,1.4c2.4,2.8,4.6,5.7,6.7,8.7
		C98.6,109.7,100.3,108.7,99.6,107.7"/>
	<path class="st0" d="M86.3,105.1c-2.3,0.8-4.7,1.5-7.1,2.1c-1.2,0.3-0.7,2.2,0.5,1.9c2.4-0.6,4.7-1.3,7.1-2.1
		C88,106.6,87.5,104.7,86.3,105.1"/>
	<path class="st0" d="M65.7,104.4c0.3-2.6,0.7-5.1,1-7.7c0.2-1.2-1.8-1.2-1.9,0c-0.3,2.6-0.7,5.1-1,7.7
		C63.6,105.6,65.6,105.6,65.7,104.4"/>
	<path class="st0" d="M53.4,104.3c1.6,1.8,3,3.9,4.1,6.1c0.6,1.1,2.2,0.1,1.7-1c-1.2-2.3-2.7-4.5-4.4-6.4
		C53.9,102,52.6,103.3,53.4,104.3"/>
	<path class="st0" d="M44.6,109.2c-1.8-0.4-3.3-1.7-3.7-3.5c-0.3-1.2-2.2-0.7-1.9,0.5c0.6,2.4,2.6,4.3,5.1,4.8
		C45.3,111.3,45.8,109.4,44.6,109.2"/>
	<path class="st0" d="M24.4,108.9c3.7-0.6,6.9-2.8,8.9-6c0.6-1.1-1-2-1.7-1c-1.7,2.8-4.5,4.6-7.7,5.1
		C22.7,107.3,23.2,109.1,24.4,108.9"/>
	<path class="st0" d="M12.3,107.9v-5.8c0-1.2-1.9-1.2-1.9,0v5.8C10.4,109.1,12.3,109.1,12.3,107.9"/>
	<path class="st0" d="M1.8,103.2c1.9-2.9,3.9-5.7,6.1-8.3c0.8-0.9-0.6-2.3-1.4-1.4c-2.3,2.8-4.5,5.7-6.4,8.7
		C-0.5,103.2,1.1,104.2,1.8,103.2"/>
	<path class="st0" d="M3.8,82.5c1.9,1.2,3.9,2.1,6,2.7c1.2,0.4,1.7-1.5,0.5-1.9c-2-0.6-3.8-1.4-5.5-2.5C3.7,80.1,2.8,81.8,3.8,82.5"
		/>
	<path class="st0" d="M16.6,95.6c1,0.8,1.9,1.8,2.5,2.9c0.6,1.1,2.3,0.1,1.7-1c-0.8-1.4-1.9-2.6-3.2-3.6c-0.4-0.3-1.1-0.1-1.3,0.3
		C16,94.7,16.2,95.3,16.6,95.6"/>
	<path class="st0" d="M6.8,72.5c-1.2-2.2-2.1-4.4-2.8-6.8c-0.3-1.2-2.2-0.7-1.9,0.5c0.7,2.5,1.7,5,3,7.3C5.7,74.6,7.4,73.6,6.8,72.5
		"/>
	<path class="st0" d="M7.5,57.6c2.1,0.2,4.2,0,6.3-0.3c1.2-0.2,0.7-2-0.5-1.9c-1.9,0.3-3.9,0.4-5.8,0.2C6.3,55.6,6.3,57.5,7.5,57.6"
		/>
	<path class="st0" d="M10.6,49.5c-1.5-2-2.9-4.1-4.4-6.1c-0.7-1-2.4,0-1.7,1c1.5,2,2.9,4.1,4.4,6.1C9.6,51.4,11.3,50.5,10.6,49.5"/>
	<path class="st0" d="M3.1,32.7c1.1-1.4,2.4-2.6,3.8-3.5c1-0.7,0.1-2.3-1-1.7c-1.8,1.1-3.3,2.5-4.5,4.2C0.7,32.7,2.4,33.6,3.1,32.7"
		/>
	<path class="st0" d="M4.1,17.9c1.7,0.7,3.3,1.7,4.7,3c0.9,0.8,2.3-0.5,1.4-1.4c-1.5-1.4-3.2-2.5-5-3.3C4,15.7,3,17.4,4.1,17.9"/>
	<path class="st0" d="M19,16c0.6-1.7,2.6-2.6,4.3-2.2c1.2,0.3,1.7-1.6,0.5-1.9c-2.8-0.7-5.6,0.8-6.6,3.5C16.7,16.6,18.5,17.1,19,16"
		/>
	<path class="st0" d="M38.9,13.5c-0.3,1.6-1,3.1-2,4.4c-0.8,1,0.6,2.3,1.4,1.4c1.2-1.6,2.1-3.3,2.5-5.2C41,12.8,39.2,12.3,38.9,13.5
		"/>
	<path class="st0" d="M52,21.2c2.9-0.3,5.6-1.2,8.2-2.8c1.1-0.6,0.1-2.3-1-1.7C57,18.1,54.6,19,52,19.3C50.8,19.4,50.8,21.4,52,21.2
		"/>
	<path class="st0" d="M73.1,14.5c2.3-0.3,4.7-0.5,7-0.8c1.2-0.1,1.2-2.1,0-1.9c-2.3,0.3-4.7,0.5-7,0.8
		C71.9,12.7,71.9,14.6,73.1,14.5"/>
	<path class="st0" d="M85.1,14.9c1.1,2.4,2.6,4.5,4.6,6.3c0.9,0.8,2.3-0.5,1.4-1.4c-1.8-1.7-3.2-3.7-4.3-5.9
		C86.3,12.8,84.6,13.8,85.1,14.9"/>
	<path class="st0" d="M98.1,24.7c-0.2,2.3-1,4.4-2.4,6.2c-0.7,1,0.9,1.9,1.7,1c1.6-2.1,2.5-4.6,2.7-7.2
		C100.1,23.4,98.2,23.4,98.1,24.7"/>
	<path class="st0" d="M101.8,39.1c0.1,1.6-0.5,3-1.6,4.1c-0.9,0.9,0.5,2.2,1.4,1.4c1.4-1.5,2.2-3.4,2.1-5.4
		C103.7,37.8,101.8,37.8,101.8,39.1"/>
	<path class="st0" d="M92.6,54.5c2,1.7,3.6,3.8,4.7,6.3c0.5,1.1,2.3,0.6,1.9-0.5c-1.2-2.8-2.9-5.2-5.1-7.1
		C93,52.3,91.7,53.7,92.6,54.5"/>
	<path class="st0" d="M95.2,69.8c0.2,1.8,0,3.5-0.6,5.2c-0.4,1.2,1.5,1.7,1.9,0.5c0.6-1.8,0.9-3.8,0.6-5.7
		C97,68.6,95.1,68.6,95.2,69.8"/>
	<path class="st0" d="M90.5,89.4c3,1,6.3,0.1,8.3-2.2c0.8-0.9-0.5-2.3-1.4-1.4c-1.6,1.9-4.1,2.5-6.4,1.7
		C89.9,87.2,89.4,89,90.5,89.4"/>
	<path class="st0" d="M82.5,91.6c-0.3,1-2.5,1.5-3.3,1.9c-1.3,0.5-2.5,1.1-3.8,1.6c-1.1,0.5-0.2,2.1,1,1.7c1.8-0.8,3.6-1.6,5.4-2.3
		c1.1-0.5,2.2-1,2.5-2.3C84.7,90.9,82.8,90.4,82.5,91.6"/>
	<path class="st0" d="M86,80.6c0.3-1.7,0.4-3.4,0.2-5.1c-0.1-1.2-2-1.2-1.9,0c0.1,1.5,0.1,3-0.2,4.6C83.9,81.3,85.8,81.8,86,80.6"/>
	<path class="st0" d="M84,58.2c1,2.5,0.2,5.4-2,7c-1,0.7,0,2.4,1,1.7c2.9-2,4.2-5.8,2.9-9.1C85.4,56.6,83.5,57.1,84,58.2"/>
	<path class="st0" d="M87.8,36.8c0.7,2.3,0.5,4.6-0.7,6.6c-0.6,1.1,1,2,1.7,1c1.5-2.5,1.8-5.4,0.9-8.1
		C89.3,35.1,87.4,35.6,87.8,36.8"/>
	<path class="st0" d="M82.4,29.1c0.1-2-0.3-3.8-1.1-5.6c-0.5-1.1-2.2-0.2-1.7,1c0.7,1.5,0.9,3,0.8,4.6
		C80.4,30.4,82.4,30.4,82.4,29.1"/>
	<path class="st0" d="M68.3,22c-1,1.5-2.7,2.3-4.5,1.9c-1.2-0.2-1.7,1.6-0.5,1.9c2.6,0.5,5.2-0.6,6.7-2.8C70.6,22,68.9,21,68.3,22"
		/>
	<path class="st0" d="M38.6,27.2c1.5,1.2,3.2,1.9,5.1,1.9c1.2,0,1.2-1.9,0-1.9c-1.4,0-2.7-0.5-3.8-1.4C39,25.1,37.6,26.4,38.6,27.2"
		/>
	<path class="st0" d="M27.1,23.9c-2.3,0.8-4.7,1-7.2,0.7c-1.2-0.1-1.2,1.8,0,1.9c2.6,0.3,5.2,0,7.7-0.8
		C28.8,25.4,28.3,23.5,27.1,23.9"/>
	<path class="st0" d="M14.7,33.9c0.2,1.3-0.3,2.8-1.4,3.6c-1,0.7,0,2.4,1,1.7c1.8-1.4,2.7-3.5,2.3-5.8
		C16.4,32.1,14.5,32.6,14.7,33.9"/>
	<path class="st0" d="M22.6,45.8v7.4c0,1.2,1.9,1.2,1.9,0v-7.4C24.5,44.6,22.6,44.6,22.6,45.8"/>
	<path class="st0" d="M16.6,65.7l-0.9,3.1c-0.1,0.5-0.4,2.5-1.2,2.6c-1.2,0.2-1.2,2.1,0,1.9c1.3-0.2,2-0.9,2.4-2.1
		c0.6-1.6,1-3.3,1.4-5C18.8,65,16.9,64.5,16.6,65.7"/>
	<path class="st0" d="M19.7,80c0,2.6,0.3,5.1,0.9,7.6c0.3,1.2,2.1,0.7,1.9-0.5c-0.5-2.4-0.8-4.7-0.8-7.1
		C21.6,78.8,19.7,78.8,19.7,80"/>
	<path class="st0" d="M31.4,91.9c2.5,1,4.5,3,5.5,5.4c0.5,1.1,2.3,0.6,1.9-0.5c-1.3-3.2-3.7-5.5-6.8-6.8
		C30.7,89.6,30.2,91.4,31.4,91.9"/>
	<path class="st0" d="M45.5,92.2c2.4-1,4.9-2,7.3-3c1.1-0.5,0.6-2.3-0.5-1.9c-2.4,1-4.9,2-7.3,3C43.9,90.8,44.4,92.6,45.5,92.2"/>
	<path class="st0" d="M67.2,80.5c-1.4,0.7-2.8,1.5-4.2,2.2c-1.1,0.6-0.1,2.2,1,1.7c1.4-0.7,2.8-1.5,4.2-2.2
		C69.3,81.6,68.3,79.9,67.2,80.5"/>
	<path class="st0" d="M75.4,83.9c-0.1-2.1-0.5-4.3-1.1-6.3c-0.4-1.2-2.2-0.7-1.9,0.5c0.6,1.9,0.9,3.8,1,5.8
		C73.6,85.1,75.5,85.1,75.4,83.9"/>
	<path class="st0" d="M70,69.4c3.7,0.9,3.8-5.8,3.8-7.9c0-1.2-1.9-1.2-1.9,0c0,0.7-0.2,6.4-1.4,6.1C69.3,67.3,68.8,69.1,70,69.4"/>
	<path class="st0" d="M74.4,50c1.1-0.2,2.2-0.1,3.1,0.4c1.1,0.6,2.1-1.1,1-1.7c-1.4-0.8-3-1-4.6-0.6C72.6,48.4,73.1,50.2,74.4,50"/>
	<path class="st0" d="M78.4,40.2c-2.4-1.9-4.2-4.3-5.2-7.2c-0.4-1.2-2.3-0.7-1.9,0.5c1.2,3.4,3.3,6.2,6.1,8.3
		C78.4,42.6,79.3,41,78.4,40.2"/>
	<path class="st0" d="M61.8,37.6c-2.5-0.9-4.7-2.4-6.6-4.3c-0.9-0.9-2.2,0.5-1.4,1.4c2.1,2.2,4.6,3.7,7.4,4.8
		C62.5,39.8,63,38,61.8,37.6"/>
	<path class="st0" d="M29.6,36.3c2,0.5,3.5,2,4,4c0.3,1.2,2.2,0.7,1.9-0.5c-0.7-2.6-2.7-4.6-5.3-5.3C28.9,34.1,28.4,36,29.6,36.3"/>
	<path class="st0" d="M29.3,61.5c1.5,0,2.3-1.2,2.8-2.5c0.8-1.9,1.4-3.9,1.7-5.9c0.2-1.2-1.7-1.7-1.9-0.5c-0.2,1.2-0.4,2.3-0.8,3.5
		c-0.2,0.7-0.9,3.5-1.9,3.5C28,59.5,28,61.5,29.3,61.5"/>
	<path class="st0" d="M27.3,70.9c1.6,1.8,2.4,3.9,2.3,6.3c0,1.2,1.9,1.2,1.9,0c0.1-2.9-1-5.5-2.9-7.7C27.8,68.6,26.4,69.9,27.3,70.9
		"/>
	<path class="st0" d="M37.3,82.9c2,0.2,3.7,1,5.3,2.2c1,0.8,1.9-0.9,1-1.7c-1.8-1.4-3.9-2.2-6.2-2.4C36.1,80.8,36.1,82.7,37.3,82.9"
		/>
	<path class="st0" d="M52.7,74.9c0.5-2.3,1.8-4.2,3.9-5.3c1.1-0.6,0.1-2.3-1-1.7c-2.5,1.4-4.2,3.7-4.8,6.5
		C50.6,75.6,52.5,76.1,52.7,74.9"/>
	<path class="st0" d="M65.2,55.4c-0.2-2.8-1-5.5-2.2-8.1c-0.5-1.1-2.2-0.1-1.7,1c1.1,2.2,1.8,4.6,2,7.1
		C63.4,56.6,65.3,56.6,65.2,55.4"/>
	<path class="st0" d="M51.5,43.3c-1.7-1-3.4-2.1-4.9-3.4c-0.9-0.8-2.3,0.6-1.4,1.4c1.7,1.4,3.4,2.6,5.3,3.7
		C51.6,45.6,52.6,43.9,51.5,43.3"/>
	<path class="st0" d="M40.8,47.3c0.5,2.3,2,4.2,4,5.4c1.1,0.6,2-1,1-1.7c-1.6-0.9-2.7-2.4-3.1-4.2C42.4,45.6,40.5,46.1,40.8,47.3"/>
	<path class="st0" d="M55.2,52.8c0.7,2.3,0.3,4.7-1.1,6.7c-0.7,1,1,2,1.7,1c1.7-2.4,2.1-5.4,1.3-8.2C56.7,51.1,54.8,51.6,55.2,52.8"
		/>
	<path class="st0" d="M37.5,66c2.3-1,4.2-2.8,5.4-5c0.6-1.1-1.1-2.1-1.7-1c-1.1,1.9-2.7,3.4-4.7,4.3C35.4,64.8,36.4,66.5,37.5,66"/>
	<path class="st0" d="M45.8,67.9c-0.1,1.5-0.7,2.8-1.8,3.8c-0.9,0.8,0.4,2.2,1.4,1.4c1.5-1.3,2.3-3.2,2.4-5.2
		C47.8,66.6,45.9,66.7,45.8,67.9"/>
</g>
</svg>
