<?xml version="1.0" encoding="utf-8"?>
<!-- Generator: Adobe Illustrator 24.0.0, SVG Export Plug-In . SVG Version: 6.00 Build 0)  -->
<svg version="1.1" id="Layer_1" xmlns="http://www.w3.org/2000/svg" xmlns:xlink="http://www.w3.org/1999/xlink" x="0px" y="0px"
	 viewBox="0 0 1281.52 617.77" style="enable-background:new 0 0 1281.52 617.77;" xml:space="preserve">
<style type="text/css">
	.st0{fill:#1D1D1B;}
	.st1{opacity:0.3;}
	.st2{fill:#939393;}
	.st3{fill:#FFDA30;}
	.st4{fill:#000586;}
</style>
<g>
	<g>
		<polygon class="st0" points="1256.21,529 94.71,529 94.71,528 1255.21,528 1255.21,519.33 1256.21,519.33 		"/>
	</g>
	<g class="st1">
		<rect x="94.71" y="398" class="st0" width="1161.01" height="1"/>
	</g>
	<g class="st1">
		<rect x="94.71" y="268" class="st0" width="1161.01" height="1"/>
	</g>
	<g class="st1">
		<rect x="94.71" y="138" class="st0" width="1161.01" height="1"/>
	</g>
	<g class="st1">
		<rect x="94.71" y="8" class="st0" width="1161.01" height="1"/>
	</g>
	<g>
		<path d="M54.36,11.49h-3.13v4.05h-1.61v-4.05h-8.84v-1.14l8.3-10.21h1.79l-8.01,9.95h6.81V6.51h1.57v3.56h3.13V11.49z"/>
		<path d="M55.84,7.83c0-4.91,2.62-7.83,6.25-7.83c3.63,0,6.27,2.93,6.27,7.83c0,4.91-2.64,7.83-6.27,7.83
			C58.46,15.67,55.84,12.74,55.84,7.83z M66.7,7.83c0-4.11-1.88-6.38-4.61-6.38s-4.61,2.27-4.61,6.38c0,4.12,1.88,6.38,4.61,6.38
			S66.7,11.95,66.7,7.83z"/>
		<path d="M70.66,7.83c0-4.91,2.62-7.83,6.25-7.83c3.63,0,6.27,2.93,6.27,7.83c0,4.91-2.64,7.83-6.27,7.83
			C73.28,15.67,70.66,12.74,70.66,7.83z M81.52,7.83c0-4.11-1.88-6.38-4.61-6.38s-4.61,2.27-4.61,6.38c0,4.12,1.88,6.38,4.61,6.38
			S81.52,11.95,81.52,7.83z"/>
	</g>
	<g>
		<path d="M58.24,140.44c0,2.57-1.9,4.55-5.69,4.55c-2.26,0-4.43-0.77-5.64-1.98l0.78-1.25c1.01,1.03,2.82,1.78,4.86,1.78
			c2.6,0,4.03-1.19,4.03-3.1c0-1.85-1.32-3.06-4.23-3.06h-1.12v-1.17l4.34-5.35h-8.01v-1.41h10.07v1.12l-4.43,5.48
			C56.56,136.24,58.24,137.98,58.24,140.44z"/>
		<path d="M60.5,137.16c0-4.91,2.62-7.83,6.25-7.83c3.63,0,6.27,2.93,6.27,7.83c0,4.91-2.64,7.83-6.27,7.83
			C63.12,145,60.5,142.07,60.5,137.16z M71.36,137.16c0-4.11-1.88-6.38-4.61-6.38s-4.61,2.27-4.61,6.38c0,4.11,1.88,6.38,4.61,6.38
			S71.36,141.28,71.36,137.16z"/>
		<path d="M75.32,137.16c0-4.91,2.62-7.83,6.25-7.83c3.63,0,6.27,2.93,6.27,7.83c0,4.91-2.64,7.83-6.27,7.83
			C77.94,145,75.32,142.07,75.32,137.16z M86.18,137.16c0-4.11-1.88-6.38-4.61-6.38s-4.61,2.27-4.61,6.38
			c0,4.11,1.88,6.38,4.61,6.38S86.18,141.28,86.18,137.16z"/>
	</g>
	<g>
		<path d="M58.58,275.08v1.41H47.59v-1.12l6.51-6.27c1.77-1.72,2.1-2.75,2.1-3.81c0-1.78-1.28-2.88-3.67-2.88
			c-1.84,0-3.25,0.55-4.28,1.72l-1.14-0.97c1.21-1.41,3.16-2.2,5.55-2.2c3.18,0,5.19,1.58,5.19,4.16c0,1.47-0.47,2.79-2.57,4.82
			l-5.33,5.15H58.58z"/>
		<path d="M60.5,268.79c0-4.91,2.62-7.83,6.25-7.83c3.63,0,6.27,2.93,6.27,7.83c0,4.91-2.64,7.83-6.27,7.83
			C63.12,276.62,60.5,273.69,60.5,268.79z M71.36,268.79c0-4.11-1.88-6.38-4.61-6.38s-4.61,2.27-4.61,6.38
			c0,4.11,1.88,6.38,4.61,6.38S71.36,272.9,71.36,268.79z"/>
		<path d="M75.32,268.79c0-4.91,2.62-7.83,6.25-7.83c3.63,0,6.27,2.93,6.27,7.83c0,4.91-2.64,7.83-6.27,7.83
			C77.94,276.62,75.32,273.69,75.32,268.79z M86.18,268.79c0-4.11-1.88-6.38-4.61-6.38s-4.61,2.27-4.61,6.38
			c0,4.11,1.88,6.38,4.61,6.38S86.18,272.9,86.18,268.79z"/>
	</g>
	<g>
		<path d="M56.77,389.9v15.4h-1.61v-13.99h-3.69v-1.41H56.77z"/>
		<path d="M60.5,397.6c0-4.91,2.62-7.83,6.25-7.83c3.63,0,6.27,2.93,6.27,7.83c0,4.91-2.64,7.83-6.27,7.83
			C63.12,405.43,60.5,402.5,60.5,397.6z M71.36,397.6c0-4.11-1.88-6.38-4.61-6.38s-4.61,2.27-4.61,6.38c0,4.12,1.88,6.38,4.61,6.38
			S71.36,401.71,71.36,397.6z"/>
		<path d="M75.32,397.6c0-4.91,2.62-7.83,6.25-7.83c3.63,0,6.27,2.93,6.27,7.83c0,4.91-2.64,7.83-6.27,7.83
			C77.94,405.43,75.32,402.5,75.32,397.6z M86.18,397.6c0-4.11-1.88-6.38-4.61-6.38s-4.61,2.27-4.61,6.38
			c0,4.12,1.88,6.38,4.61,6.38S86.18,401.71,86.18,397.6z"/>
	</g>
	<g>
		<path d="M75.32,526.73c0-4.91,2.62-7.83,6.25-7.83c3.63,0,6.27,2.93,6.27,7.83c0,4.91-2.64,7.83-6.27,7.83
			C77.94,534.56,75.32,531.63,75.32,526.73z M86.18,526.73c0-4.11-1.88-6.38-4.61-6.38s-4.61,2.27-4.61,6.38s1.88,6.38,4.61,6.38
			S86.18,530.84,86.18,526.73z"/>
	</g>
	<g>
		<path class="st2" d="M169.84,558.76c-0.77,0.95-1.85,1.47-3.09,1.48c-1.5,0.02-2.76-0.63-4.46-2.33
			c-3.75-0.06-6.54-2.72-6.59-6.32c-0.05-3.67,2.77-6.45,6.65-6.5c3.85-0.05,6.76,2.62,6.81,6.31c0.04,3.22-2.1,5.72-5.2,6.36
			c0.98,0.99,1.89,1.43,2.8,1.42c0.97-0.01,1.75-0.4,2.42-1.19L169.84,558.76z M162.5,556.72c3.08-0.04,5.33-2.31,5.29-5.3
			c-0.04-2.99-2.36-5.19-5.44-5.15c-3.09,0.04-5.37,2.31-5.33,5.3C157.07,554.56,159.41,556.76,162.5,556.72z"/>
		<path class="st2" d="M179.7,556.41l0.02,1.15l-8.99,0.13l-0.01-0.92l5.26-5.21c1.43-1.42,1.69-2.27,1.68-3.14
			c-0.02-1.46-1.08-2.34-3.04-2.32c-1.5,0.02-2.65,0.49-3.48,1.45l-0.94-0.78c0.97-1.17,2.56-1.84,4.52-1.86
			c2.6-0.04,4.27,1.24,4.29,3.34c0.02,1.21-0.35,2.29-2.05,3.97l-4.3,4.27L179.7,556.41z"/>
		<path class="st2" d="M153.92,567.32l0.18,12.6l-1.32,0.02l-0.16-11.45l-3.02,0.04l-0.02-1.15L153.92,567.32z"/>
		<path class="st2" d="M166.03,567.15l0.01,0.92l-5.2,11.76l-1.43,0.02l5.11-11.52l-6.59,0.09l0.03,2.36l-1.3,0.02l-0.05-3.51
			L166.03,567.15z"/>
		<path class="st2" d="M167.1,574.3l4.8-0.07l0.02,1.12l-4.8,0.07L167.1,574.3z"/>
		<path class="st2" d="M177.09,567l0.18,12.6l-1.32,0.02l-0.16-11.45l-3.02,0.04l-0.02-1.15L177.09,567z"/>
		<path class="st2" d="M190.13,575.91c0.03,2.23-1.87,3.65-4.93,3.69c-3.08,0.04-4.96-1.32-4.99-3.55
			c-0.02-1.51,0.84-2.59,2.43-3.13c-1.31-0.49-2.03-1.43-2.05-2.74c-0.03-2.05,1.73-3.36,4.44-3.39c2.71-0.04,4.54,1.21,4.57,3.27
			c0.02,1.31-0.7,2.28-2.01,2.8C189.19,573.34,190.11,574.41,190.13,575.91z M188.77,575.91c-0.02-1.55-1.39-2.5-3.66-2.47
			c-2.27,0.03-3.59,1.02-3.57,2.57c0.02,1.57,1.37,2.52,3.64,2.49C187.45,578.46,188.79,577.47,188.77,575.91z M185.1,572.41
			c2-0.03,3.17-0.93,3.15-2.29c-0.02-1.42-1.3-2.27-3.22-2.24c-1.94,0.03-3.16,0.91-3.14,2.31
			C181.92,571.57,183.1,572.44,185.1,572.41z"/>
	</g>
	<g>
		<path class="st2" d="M290.85,558.76c-0.77,0.95-1.85,1.47-3.09,1.48c-1.5,0.02-2.76-0.63-4.46-2.33
			c-3.75-0.06-6.54-2.72-6.59-6.32c-0.05-3.67,2.77-6.45,6.65-6.5c3.85-0.05,6.76,2.62,6.81,6.32c0.04,3.22-2.1,5.72-5.2,6.36
			c0.98,1,1.89,1.43,2.8,1.42c0.97-0.01,1.75-0.4,2.42-1.19L290.85,558.76z M283.51,556.72c3.08-0.04,5.33-2.31,5.29-5.3
			c-0.04-2.99-2.36-5.19-5.44-5.15c-3.09,0.04-5.37,2.31-5.33,5.3C278.08,554.56,280.42,556.76,283.51,556.72z"/>
		<path class="st2" d="M300.38,553.95c0.03,2.11-1.5,3.75-4.6,3.79c-1.85,0.03-3.63-0.58-4.64-1.56l0.63-1.04
			c0.84,0.83,2.33,1.43,3.99,1.4c2.12-0.03,3.28-1.02,3.26-2.58c-0.02-1.51-1.11-2.49-3.49-2.45l-0.92,0.01l-0.01-0.95l3.49-4.42
			l-6.55,0.09l-0.02-1.15l8.24-0.11l0.01,0.92l-3.56,4.53C298.96,550.53,300.35,551.93,300.38,553.95z"/>
		<path class="st2" d="M274.89,567.32l0.18,12.6l-1.32,0.02l-0.16-11.45l-3.02,0.04l-0.02-1.15L274.89,567.32z"/>
		<path class="st2" d="M286.99,567.15l0.01,0.92l-5.2,11.76l-1.43,0.02l5.11-11.52l-6.59,0.09l0.03,2.36l-1.3,0.02l-0.05-3.51
			L286.99,567.15z"/>
		<path class="st2" d="M288.06,574.3l4.8-0.07l0.02,1.12l-4.8,0.07L288.06,574.3z"/>
		<path class="st2" d="M298.05,567l0.18,12.6l-1.32,0.02l-0.16-11.45l-3.02,0.04l-0.02-1.15L298.05,567z"/>
		<path class="st2" d="M311.09,575.91c0.03,2.23-1.87,3.65-4.93,3.69c-3.08,0.04-4.96-1.32-4.99-3.55
			c-0.02-1.51,0.84-2.59,2.43-3.13c-1.31-0.49-2.03-1.43-2.05-2.74c-0.03-2.05,1.73-3.36,4.44-3.39c2.71-0.04,4.54,1.21,4.57,3.27
			c0.02,1.31-0.7,2.28-2.01,2.8C310.16,573.34,311.07,574.41,311.09,575.91z M309.73,575.91c-0.02-1.55-1.39-2.5-3.66-2.47
			c-2.27,0.03-3.59,1.02-3.57,2.57c0.02,1.57,1.37,2.52,3.64,2.49C308.41,578.46,309.76,577.47,309.73,575.91z M306.06,572.41
			c2-0.03,3.17-0.93,3.15-2.29c-0.02-1.42-1.3-2.27-3.22-2.24c-1.94,0.03-3.16,0.91-3.14,2.31
			C302.88,571.57,304.06,572.44,306.06,572.41z"/>
	</g>
	<g>
		<path class="st2" d="M413.22,558.74c-0.77,0.95-1.85,1.47-3.09,1.48c-1.5,0.02-2.75-0.63-4.46-2.33
			c-3.75-0.06-6.54-2.72-6.59-6.32c-0.05-3.67,2.77-6.45,6.65-6.5c3.84-0.05,6.76,2.62,6.81,6.32c0.04,3.22-2.1,5.72-5.2,6.36
			c0.98,1,1.89,1.43,2.8,1.42c0.97-0.01,1.75-0.4,2.42-1.19L413.22,558.74z M405.88,556.7c3.08-0.04,5.33-2.31,5.29-5.3
			c-0.04-2.99-2.36-5.19-5.44-5.15c-3.09,0.04-5.37,2.31-5.33,5.3C400.45,554.54,402.79,556.74,405.88,556.7z"/>
		<path class="st2" d="M425.37,554.2l-2.56,0.04l0.05,3.31l-1.32,0.02l-0.05-3.31l-7.23,0.1l-0.01-0.94l6.68-8.45l1.46-0.02
			l-6.44,8.23l5.57-0.08l-0.04-2.92l1.28-0.02l0.04,2.92l2.56-0.04L425.37,554.2z"/>
		<path class="st2" d="M395.85,567.32l0.18,12.6l-1.32,0.02l-0.16-11.45l-3.02,0.04l-0.02-1.15L395.85,567.32z"/>
		<path class="st2" d="M407.95,567.15l0.01,0.92l-5.2,11.76l-1.43,0.02l5.11-11.52l-6.59,0.09l0.03,2.36l-1.3,0.02l-0.05-3.51
			L407.95,567.15z"/>
		<path class="st2" d="M409.02,574.3l4.8-0.07l0.02,1.12l-4.8,0.07L409.02,574.3z"/>
		<path class="st2" d="M419.01,567l0.18,12.6l-1.32,0.02l-0.16-11.45l-3.02,0.04l-0.02-1.15L419.01,567z"/>
		<path class="st2" d="M432.05,575.91c0.03,2.23-1.87,3.65-4.93,3.69c-3.08,0.04-4.96-1.32-4.99-3.55
			c-0.02-1.51,0.84-2.59,2.43-3.13c-1.31-0.49-2.03-1.43-2.05-2.74c-0.03-2.05,1.73-3.36,4.44-3.39c2.71-0.04,4.54,1.21,4.57,3.27
			c0.02,1.31-0.7,2.28-2.01,2.8C431.12,573.34,432.03,574.41,432.05,575.91z M430.69,575.91c-0.02-1.55-1.39-2.5-3.66-2.47
			c-2.27,0.03-3.59,1.02-3.57,2.57c0.02,1.57,1.37,2.52,3.64,2.49C429.38,578.46,430.72,577.47,430.69,575.91z M427.02,572.41
			c2-0.03,3.17-0.93,3.15-2.29c-0.02-1.42-1.3-2.27-3.22-2.24c-1.94,0.03-3.16,0.91-3.14,2.31
			C423.84,571.57,425.02,572.44,427.02,572.41z"/>
	</g>
	<g>
		<path class="st2" d="M534.62,558.73c-0.77,0.95-1.85,1.47-3.09,1.48c-1.5,0.02-2.75-0.63-4.46-2.33
			c-3.75-0.06-6.54-2.72-6.59-6.32c-0.05-3.67,2.77-6.45,6.65-6.5c3.84-0.05,6.76,2.63,6.81,6.32c0.04,3.22-2.1,5.72-5.2,6.36
			c0.98,1,1.89,1.43,2.8,1.42c0.97-0.01,1.75-0.4,2.42-1.19L534.62,558.73z M527.28,556.69c3.08-0.04,5.33-2.31,5.29-5.3
			c-0.04-2.99-2.36-5.19-5.44-5.15c-3.09,0.04-5.37,2.31-5.33,5.3C521.85,554.54,524.19,556.74,527.28,556.69z"/>
		<path class="st2" d="M539.12,545l0.18,12.6l-1.32,0.02l-0.16-11.45l-3.02,0.04l-0.02-1.15L539.12,545z"/>
		<path class="st2" d="M516.17,567.33l0.18,12.6l-1.32,0.02l-0.16-11.45l-3.02,0.04l-0.02-1.15L516.17,567.33z"/>
		<path class="st2" d="M529.2,576.24c0.03,2.23-1.87,3.65-4.93,3.69c-3.08,0.04-4.96-1.32-4.99-3.55c-0.02-1.51,0.84-2.59,2.43-3.13
			c-1.31-0.49-2.03-1.43-2.05-2.74c-0.03-2.05,1.73-3.36,4.44-3.39c2.71-0.04,4.54,1.21,4.57,3.27c0.02,1.31-0.7,2.28-2.01,2.8
			C528.27,573.68,529.18,574.74,529.2,576.24z M527.85,576.24c-0.02-1.55-1.39-2.5-3.66-2.47c-2.27,0.03-3.59,1.02-3.57,2.57
			c0.02,1.57,1.37,2.52,3.64,2.49C526.53,578.8,527.87,577.81,527.85,576.24z M524.17,572.74c2-0.03,3.17-0.93,3.15-2.29
			c-0.02-1.42-1.3-2.27-3.22-2.24c-1.94,0.03-3.16,0.91-3.14,2.31C520.99,571.91,522.18,572.77,524.17,572.74z"/>
		<path class="st2" d="M531.16,574.28l4.8-0.07l0.02,1.12l-4.8,0.07L531.16,574.28z"/>
		<path class="st2" d="M541.15,566.98l0.18,12.6L540,579.6l-0.16-11.45l-3.02,0.04l-0.02-1.15L541.15,566.98z"/>
		<path class="st2" d="M553.54,573c0.06,4.28-2.29,6.55-5.77,6.6c-1.15,0.02-2.24-0.17-3.05-0.64l0.52-1.05
			c0.67,0.42,1.55,0.57,2.5,0.56c2.76-0.04,4.52-1.81,4.47-5.23c0-0.29-0.03-0.65-0.07-1.03c-0.62,1.4-2.11,2.19-3.89,2.21
			c-2.55,0.04-4.34-1.42-4.37-3.72c-0.03-2.36,1.83-3.9,4.32-3.93C551.6,566.72,553.48,569.02,553.54,573z M551.69,570.52
			c-0.02-1.39-1.21-2.68-3.43-2.65c-1.85,0.03-3.12,1.11-3.09,2.78c0.02,1.66,1.28,2.7,3.26,2.67
			C550.39,573.3,551.71,572.09,551.69,570.52z"/>
	</g>
	<g>
		<path class="st2" d="M656.08,559.68c-0.77,0.95-1.85,1.47-3.09,1.48c-1.5,0.02-2.76-0.63-4.46-2.33
			c-3.75-0.05-6.54-2.72-6.59-6.32c-0.05-3.67,2.77-6.45,6.65-6.5c3.84-0.05,6.76,2.63,6.81,6.32c0.04,3.22-2.1,5.72-5.2,6.36
			c0.98,0.99,1.89,1.43,2.8,1.42c0.97-0.01,1.75-0.4,2.42-1.19L656.08,559.68z M648.75,557.64c3.08-0.04,5.33-2.31,5.29-5.3
			c-0.04-2.99-2.36-5.19-5.44-5.15c-3.09,0.04-5.37,2.31-5.33,5.3C643.31,555.48,645.65,557.68,648.75,557.64z"/>
		<path class="st2" d="M665.94,557.32l0.02,1.15l-8.99,0.13l-0.01-0.92l5.26-5.21c1.43-1.42,1.69-2.27,1.68-3.14
			c-0.02-1.46-1.08-2.34-3.04-2.32c-1.5,0.02-2.65,0.49-3.48,1.45l-0.95-0.78c0.97-1.17,2.56-1.84,4.52-1.86
			c2.6-0.04,4.27,1.24,4.3,3.34c0.02,1.21-0.35,2.29-2.05,3.97l-4.3,4.27L665.94,557.32z"/>
		<path class="st2" d="M637.13,568.28l0.18,12.6l-1.32,0.02l-0.16-11.45l-3.02,0.04l-0.02-1.15L637.13,568.28z"/>
		<path class="st2" d="M650.16,577.19c0.03,2.23-1.87,3.65-4.93,3.69c-3.08,0.04-4.96-1.32-4.99-3.55
			c-0.02-1.51,0.84-2.59,2.43-3.13c-1.31-0.49-2.03-1.43-2.05-2.74c-0.03-2.05,1.73-3.36,4.44-3.39c2.71-0.04,4.54,1.21,4.57,3.27
			c0.02,1.31-0.7,2.28-2.01,2.8C649.23,574.63,650.14,575.69,650.16,577.19z M648.81,577.19c-0.02-1.55-1.39-2.5-3.66-2.47
			c-2.27,0.03-3.59,1.02-3.57,2.57c0.02,1.57,1.37,2.52,3.64,2.49C647.49,579.75,648.83,578.75,648.81,577.19z M645.13,573.69
			c2-0.03,3.17-0.93,3.15-2.29c-0.02-1.42-1.3-2.27-3.22-2.24c-1.94,0.03-3.16,0.91-3.14,2.31
			C641.95,572.85,643.14,573.72,645.13,573.69z"/>
		<path class="st2" d="M652.12,575.23l4.8-0.07l0.02,1.12l-4.8,0.07L652.12,575.23z"/>
		<path class="st2" d="M662.11,567.93l0.18,12.6l-1.32,0.02l-0.16-11.45l-3.02,0.04l-0.02-1.15L662.11,567.93z"/>
		<path class="st2" d="M674.5,573.95c0.06,4.28-2.29,6.55-5.77,6.6c-1.15,0.02-2.24-0.17-3.05-0.64l0.52-1.05
			c0.67,0.42,1.55,0.57,2.5,0.56c2.76-0.04,4.52-1.81,4.47-5.23c0-0.29-0.03-0.65-0.07-1.03c-0.62,1.4-2.11,2.19-3.89,2.21
			c-2.55,0.04-4.34-1.42-4.37-3.72c-0.03-2.36,1.83-3.9,4.32-3.93C672.56,567.67,674.44,569.97,674.5,573.95z M672.65,571.47
			c-0.02-1.39-1.21-2.68-3.42-2.65c-1.85,0.03-3.12,1.11-3.09,2.78c0.02,1.66,1.28,2.7,3.26,2.67
			C671.35,574.25,672.67,573.04,672.65,571.47z"/>
	</g>
	<g>
		<path class="st2" d="M777.09,559.68c-0.77,0.95-1.85,1.47-3.09,1.48c-1.5,0.02-2.76-0.63-4.46-2.33
			c-3.75-0.06-6.54-2.72-6.59-6.32c-0.05-3.67,2.77-6.45,6.65-6.5c3.84-0.05,6.76,2.63,6.81,6.32c0.04,3.22-2.1,5.72-5.2,6.36
			c0.98,1,1.89,1.43,2.8,1.42c0.97-0.01,1.75-0.4,2.42-1.19L777.09,559.68z M769.75,557.64c3.08-0.04,5.33-2.31,5.29-5.3
			c-0.04-2.99-2.36-5.19-5.44-5.15c-3.09,0.04-5.37,2.31-5.33,5.3C764.32,555.48,766.66,557.68,769.75,557.64z"/>
		<path class="st2" d="M786.62,554.86c0.03,2.11-1.5,3.75-4.6,3.79c-1.85,0.03-3.63-0.58-4.64-1.56l0.63-1.04
			c0.83,0.83,2.33,1.43,3.99,1.4c2.12-0.03,3.28-1.02,3.26-2.58c-0.02-1.51-1.11-2.49-3.5-2.45l-0.92,0.01l-0.01-0.95l3.49-4.42
			l-6.55,0.09l-0.02-1.15l8.24-0.11l0.01,0.92l-3.56,4.53C785.2,551.44,786.59,552.84,786.62,554.86z"/>
		<path class="st2" d="M758.09,568.28l0.18,12.6l-1.32,0.02l-0.16-11.45l-3.02,0.04l-0.02-1.15L758.09,568.28z"/>
		<path class="st2" d="M771.12,577.19c0.03,2.23-1.87,3.65-4.93,3.69c-3.08,0.04-4.96-1.32-4.99-3.55
			c-0.02-1.51,0.84-2.59,2.43-3.13c-1.31-0.49-2.03-1.43-2.05-2.74c-0.03-2.05,1.73-3.36,4.44-3.39c2.71-0.04,4.54,1.21,4.57,3.27
			c0.02,1.31-0.7,2.28-2.01,2.8C770.19,574.63,771.1,575.69,771.12,577.19z M769.77,577.19c-0.02-1.55-1.39-2.5-3.66-2.47
			c-2.27,0.03-3.59,1.02-3.57,2.57c0.02,1.57,1.37,2.52,3.64,2.49C768.45,579.75,769.79,578.75,769.77,577.19z M766.09,573.69
			c2-0.03,3.17-0.93,3.15-2.29c-0.02-1.42-1.3-2.27-3.22-2.24c-1.94,0.03-3.16,0.91-3.14,2.31
			C762.92,572.85,764.1,573.72,766.09,573.69z"/>
		<path class="st2" d="M773.08,575.23l4.8-0.07l0.02,1.12l-4.8,0.07L773.08,575.23z"/>
		<path class="st2" d="M783.07,567.93l0.18,12.6l-1.32,0.02l-0.16-11.45l-3.02,0.04l-0.02-1.15L783.07,567.93z"/>
		<path class="st2" d="M795.46,573.95c0.06,4.28-2.29,6.55-5.77,6.6c-1.15,0.02-2.24-0.17-3.05-0.64l0.52-1.05
			c0.67,0.42,1.55,0.57,2.5,0.56c2.76-0.04,4.52-1.81,4.47-5.23c0-0.29-0.03-0.65-0.07-1.03c-0.62,1.4-2.11,2.19-3.89,2.21
			c-2.55,0.04-4.34-1.42-4.37-3.72c-0.03-2.36,1.83-3.9,4.32-3.93C793.52,567.67,795.4,569.97,795.46,573.95z M793.61,571.47
			c-0.02-1.39-1.21-2.68-3.42-2.65c-1.85,0.03-3.12,1.11-3.09,2.78c0.02,1.66,1.28,2.7,3.26,2.67
			C792.31,574.25,793.63,573.04,793.61,571.47z"/>
	</g>
	<g>
		<path class="st2" d="M897.06,559.69c-0.77,0.95-1.85,1.47-3.09,1.48c-1.5,0.02-2.75-0.63-4.46-2.33
			c-3.75-0.05-6.54-2.72-6.59-6.32c-0.05-3.67,2.77-6.45,6.65-6.5c3.84-0.05,6.76,2.63,6.81,6.32c0.04,3.22-2.1,5.72-5.2,6.36
			c0.99,0.99,1.89,1.43,2.8,1.42c0.97-0.01,1.75-0.4,2.42-1.19L897.06,559.69z M889.73,557.65c3.08-0.04,5.33-2.31,5.29-5.3
			c-0.04-2.99-2.36-5.19-5.44-5.15c-3.09,0.04-5.37,2.31-5.33,5.3C884.29,555.49,886.63,557.69,889.73,557.65z"/>
		<path class="st2" d="M909.21,555.15l-2.56,0.04l0.05,3.31l-1.32,0.02l-0.05-3.31l-7.23,0.1l-0.01-0.94l6.68-8.45l1.46-0.02
			l-6.44,8.23l5.57-0.08l-0.04-2.92l1.28-0.02l0.04,2.92l2.56-0.04L909.21,555.15z"/>
		<path class="st2" d="M879.05,568.28l0.18,12.6l-1.32,0.02l-0.16-11.45l-3.02,0.04l-0.02-1.15L879.05,568.28z"/>
		<path class="st2" d="M892.08,577.19c0.03,2.23-1.87,3.64-4.93,3.69c-3.08,0.04-4.96-1.32-4.99-3.55
			c-0.02-1.51,0.84-2.59,2.43-3.13c-1.31-0.49-2.03-1.43-2.05-2.75c-0.03-2.05,1.73-3.35,4.44-3.39c2.71-0.04,4.54,1.21,4.57,3.27
			c0.02,1.31-0.7,2.28-2.01,2.8C891.15,574.63,892.06,575.69,892.08,577.19z M890.73,577.19c-0.02-1.55-1.39-2.5-3.66-2.47
			c-2.27,0.03-3.59,1.02-3.57,2.57c0.02,1.57,1.37,2.52,3.64,2.49C889.41,579.75,890.75,578.75,890.73,577.19z M887.06,573.69
			c2-0.03,3.17-0.93,3.15-2.29c-0.02-1.42-1.3-2.27-3.22-2.24c-1.94,0.03-3.16,0.91-3.14,2.31
			C883.88,572.85,885.06,573.72,887.06,573.69z"/>
		<path class="st2" d="M894.04,575.23l4.8-0.07l0.02,1.12l-4.8,0.07L894.04,575.23z"/>
		<path class="st2" d="M904.03,567.93l0.18,12.6l-1.32,0.02l-0.16-11.45l-3.02,0.04l-0.02-1.15L904.03,567.93z"/>
		<path class="st2" d="M916.42,573.95c0.06,4.29-2.29,6.55-5.77,6.6c-1.15,0.02-2.24-0.17-3.05-0.64l0.52-1.05
			c0.67,0.42,1.55,0.57,2.5,0.56c2.76-0.04,4.52-1.81,4.47-5.23c0-0.29-0.03-0.65-0.07-1.03c-0.62,1.4-2.11,2.19-3.89,2.22
			c-2.55,0.04-4.34-1.42-4.37-3.72c-0.03-2.36,1.83-3.9,4.32-3.93C914.48,567.67,916.36,569.97,916.42,573.95z M914.57,571.47
			c-0.02-1.39-1.21-2.68-3.42-2.65c-1.85,0.03-3.12,1.11-3.09,2.78c0.02,1.66,1.28,2.7,3.26,2.67
			C913.27,574.25,914.59,573.04,914.57,571.47z"/>
	</g>
	<g>
		<path class="st2" d="M1018.46,559.68c-0.77,0.95-1.85,1.47-3.09,1.48c-1.5,0.02-2.75-0.63-4.46-2.33
			c-3.75-0.06-6.54-2.72-6.59-6.32c-0.05-3.67,2.77-6.45,6.65-6.5c3.84-0.05,6.76,2.63,6.81,6.32c0.04,3.22-2.1,5.72-5.2,6.36
			c0.98,1,1.89,1.43,2.8,1.42c0.97-0.01,1.75-0.4,2.42-1.19L1018.46,559.68z M1011.13,557.64c3.08-0.04,5.33-2.31,5.29-5.3
			c-0.04-2.99-2.36-5.19-5.44-5.15c-3.09,0.04-5.37,2.31-5.33,5.3C1005.69,555.49,1008.03,557.69,1011.13,557.64z"/>
		<path class="st2" d="M1022.96,545.95l0.18,12.6l-1.32,0.02l-0.16-11.45l-3.02,0.04l-0.02-1.15L1022.96,545.95z"/>
		<path class="st2" d="M997.81,568.31l0.18,12.6l-1.32,0.02l-0.16-11.45l-3.02,0.04l-0.02-1.15L997.81,568.31z"/>
		<path class="st2" d="M1010.2,574.33c0.06,4.28-2.29,6.55-5.77,6.6c-1.15,0.02-2.24-0.17-3.05-0.64l0.52-1.05
			c0.67,0.42,1.55,0.57,2.5,0.56c2.76-0.04,4.52-1.81,4.47-5.23c0-0.29-0.03-0.65-0.07-1.03c-0.62,1.39-2.11,2.19-3.89,2.21
			c-2.54,0.04-4.34-1.42-4.37-3.72c-0.03-2.36,1.83-3.9,4.32-3.93C1008.27,568.05,1010.15,570.35,1010.2,574.33z M1008.36,571.85
			c-0.02-1.39-1.21-2.68-3.43-2.65c-1.85,0.03-3.12,1.11-3.09,2.78c0.02,1.66,1.28,2.7,3.26,2.67
			C1007.06,574.62,1008.38,573.42,1008.36,571.85z"/>
		<path class="st2" d="M1012.42,575.27l4.8-0.07l0.02,1.12l-4.8,0.07L1012.42,575.27z"/>
		<path class="st2" d="M1027.86,579.34l0.02,1.15l-8.99,0.13l-0.01-0.92l5.25-5.21c1.43-1.42,1.69-2.27,1.68-3.14
			c-0.02-1.46-1.08-2.34-3.04-2.32c-1.5,0.02-2.65,0.49-3.48,1.45l-0.94-0.78c0.97-1.17,2.56-1.84,4.52-1.86
			c2.6-0.04,4.27,1.24,4.29,3.34c0.02,1.21-0.35,2.29-2.05,3.97l-4.3,4.27L1027.86,579.34z"/>
		<path class="st2" d="M1029.36,574.17c-0.06-4.01,2.05-6.44,5.02-6.48c2.97-0.04,5.16,2.32,5.22,6.34
			c0.06,4.01-2.07,6.44-5.04,6.48C1031.59,580.55,1029.42,578.18,1029.36,574.17z M1038.24,574.04c-0.05-3.37-1.61-5.2-3.85-5.17
			c-2.23,0.03-3.75,1.91-3.7,5.27c0.05,3.37,1.61,5.2,3.84,5.17C1036.78,579.29,1038.29,577.41,1038.24,574.04z"/>
	</g>
	<g>
		<path class="st2" d="M1139.92,559.68c-0.77,0.95-1.85,1.47-3.09,1.48c-1.5,0.02-2.76-0.63-4.46-2.33
			c-3.75-0.06-6.54-2.72-6.59-6.32c-0.05-3.67,2.77-6.45,6.65-6.5c3.84-0.05,6.76,2.63,6.81,6.31c0.04,3.22-2.1,5.72-5.2,6.36
			c0.98,1,1.89,1.43,2.8,1.42c0.97-0.01,1.75-0.4,2.42-1.19L1139.92,559.68z M1132.59,557.64c3.08-0.04,5.33-2.31,5.29-5.3
			c-0.04-2.99-2.36-5.19-5.44-5.15c-3.09,0.04-5.37,2.31-5.33,5.3C1127.16,555.48,1129.5,557.68,1132.59,557.64z"/>
		<path class="st2" d="M1149.78,557.33l0.02,1.15l-8.99,0.13l-0.01-0.92l5.26-5.21c1.43-1.42,1.69-2.27,1.68-3.14
			c-0.02-1.46-1.08-2.34-3.04-2.32c-1.5,0.02-2.65,0.49-3.48,1.45l-0.95-0.78c0.97-1.17,2.56-1.84,4.52-1.86
			c2.6-0.04,4.27,1.24,4.29,3.34c0.02,1.21-0.35,2.29-2.05,3.97l-4.3,4.27L1149.78,557.33z"/>
		<path class="st2" d="M1121.17,568.27l0.18,12.6l-1.32,0.02l-0.16-11.45l-3.02,0.04l-0.02-1.15L1121.17,568.27z"/>
		<path class="st2" d="M1133.56,574.29c0.06,4.28-2.29,6.55-5.77,6.6c-1.15,0.02-2.24-0.17-3.05-0.64l0.52-1.05
			c0.67,0.42,1.55,0.57,2.5,0.56c2.76-0.04,4.52-1.81,4.47-5.23c0-0.29-0.03-0.65-0.07-1.03c-0.62,1.4-2.11,2.19-3.89,2.22
			c-2.54,0.04-4.34-1.42-4.37-3.72c-0.03-2.36,1.83-3.9,4.32-3.93C1131.63,568.02,1133.51,570.32,1133.56,574.29z M1131.72,571.82
			c-0.02-1.39-1.21-2.68-3.42-2.65c-1.85,0.03-3.12,1.11-3.09,2.78c0.02,1.66,1.28,2.7,3.26,2.67
			C1130.42,574.59,1131.74,573.38,1131.72,571.82z"/>
		<path class="st2" d="M1135.78,575.24l4.8-0.07l0.02,1.12l-4.8,0.07L1135.78,575.24z"/>
		<path class="st2" d="M1151.22,579.31l0.02,1.15l-8.99,0.13l-0.01-0.92l5.26-5.21c1.43-1.42,1.69-2.27,1.68-3.14
			c-0.02-1.46-1.08-2.34-3.04-2.32c-1.5,0.02-2.65,0.49-3.48,1.45l-0.95-0.78c0.97-1.17,2.56-1.84,4.52-1.86
			c2.6-0.04,4.27,1.24,4.29,3.34c0.02,1.21-0.35,2.29-2.05,3.97l-4.3,4.27L1151.22,579.31z"/>
		<path class="st2" d="M1152.72,574.14c-0.06-4.01,2.05-6.44,5.02-6.48c2.97-0.04,5.16,2.32,5.22,6.34
			c0.06,4.01-2.07,6.44-5.04,6.48C1154.95,580.51,1152.78,578.15,1152.72,574.14z M1161.6,574.01c-0.05-3.37-1.61-5.2-3.84-5.17
			c-2.23,0.03-3.75,1.91-3.7,5.27c0.05,3.37,1.61,5.2,3.84,5.17C1160.14,579.25,1161.65,577.38,1161.6,574.01z"/>
	</g>
	<g>
		<path class="st2" d="M1260.93,559.68c-0.77,0.95-1.85,1.47-3.09,1.48c-1.5,0.02-2.76-0.63-4.46-2.33
			c-3.75-0.06-6.54-2.72-6.59-6.32c-0.05-3.67,2.77-6.45,6.65-6.5c3.84-0.05,6.76,2.63,6.81,6.32c0.04,3.22-2.1,5.72-5.2,6.36
			c0.98,1,1.89,1.43,2.8,1.42c0.97-0.01,1.75-0.4,2.42-1.19L1260.93,559.68z M1253.6,557.64c3.08-0.04,5.33-2.31,5.29-5.3
			c-0.04-2.99-2.36-5.19-5.44-5.15c-3.09,0.04-5.37,2.31-5.33,5.3C1248.16,555.48,1250.5,557.68,1253.6,557.64z"/>
		<path class="st2" d="M1270.46,554.86c0.03,2.11-1.5,3.75-4.6,3.79c-1.85,0.03-3.63-0.58-4.64-1.56l0.63-1.04
			c0.84,0.83,2.33,1.43,3.99,1.4c2.12-0.03,3.28-1.02,3.26-2.58c-0.02-1.51-1.12-2.49-3.5-2.45l-0.92,0.01l-0.01-0.95l3.49-4.42
			l-6.55,0.09l-0.02-1.15l8.24-0.11l0.01,0.92l-3.56,4.53C1269.04,551.44,1270.44,552.84,1270.46,554.86z"/>
		<path class="st2" d="M1239.73,568.31l0.18,12.6l-1.32,0.02l-0.16-11.45l-3.02,0.04l-0.02-1.15L1239.73,568.31z"/>
		<path class="st2" d="M1252.13,574.33c0.06,4.28-2.29,6.55-5.77,6.6c-1.15,0.02-2.24-0.17-3.05-0.64l0.52-1.05
			c0.67,0.42,1.55,0.57,2.5,0.56c2.76-0.04,4.52-1.81,4.47-5.23c0-0.29-0.03-0.65-0.07-1.03c-0.62,1.4-2.11,2.19-3.89,2.21
			c-2.54,0.04-4.34-1.42-4.37-3.72c-0.03-2.36,1.83-3.9,4.32-3.93C1250.19,568.05,1252.07,570.35,1252.13,574.33z M1250.28,571.85
			c-0.02-1.39-1.21-2.68-3.43-2.65c-1.85,0.03-3.12,1.11-3.09,2.78c0.02,1.66,1.28,2.7,3.26,2.67
			C1248.98,574.62,1250.3,573.42,1250.28,571.85z"/>
		<path class="st2" d="M1254.34,575.27l4.8-0.07l0.02,1.12l-4.8,0.07L1254.34,575.27z"/>
		<path class="st2" d="M1269.78,579.34l0.02,1.15l-8.99,0.13l-0.01-0.92l5.25-5.21c1.43-1.42,1.69-2.27,1.68-3.14
			c-0.02-1.46-1.08-2.34-3.04-2.32c-1.5,0.02-2.65,0.49-3.48,1.45l-0.94-0.78c0.97-1.17,2.56-1.84,4.52-1.86
			c2.6-0.04,4.27,1.24,4.29,3.34c0.02,1.21-0.35,2.29-2.05,3.97l-4.3,4.27L1269.78,579.34z"/>
		<path class="st2" d="M1271.28,574.17c-0.06-4.01,2.05-6.44,5.02-6.48c2.97-0.04,5.16,2.32,5.22,6.34
			c0.06,4.01-2.07,6.44-5.04,6.48C1273.52,580.55,1271.34,578.18,1271.28,574.17z M1280.17,574.04c-0.05-3.37-1.61-5.2-3.85-5.17
			c-2.23,0.03-3.75,1.91-3.7,5.27c0.05,3.37,1.61,5.2,3.84,5.17C1278.7,579.29,1280.21,577.41,1280.17,574.04z"/>
	</g>
	<g>
		<path class="st3" d="M95.93,529.37l-2.45-1.73c1.7-2.41,41.89-58.93,76.6-56.04c17.88,1.49,42.46-12.42,66.25-25.87
			c20.92-11.83,40.69-23.01,54.78-23.01c13.3,0,28.34,11.27,45.74,24.33c22.19,16.64,47.33,35.5,75.22,35.5
			c53.35,0,101.71-12.92,120.13-25.08c19.82-13.08,41.98-65.61,63.42-116.41c22.63-53.64,42.18-99.97,58.37-99.97
			c12.32,0,26.04,10.58,41.93,22.83c23.72,18.28,50.59,39,78.44,27.08c24.41-10.45,48.44-73.41,69.65-128.96
			c19.59-51.32,36.51-95.64,51.9-95.64c10.55,0,30.03,21,57,50.06c19.32,20.82,41.21,44.42,64.46,65.14
			c49.34,44,93.02,62.04,119.83,49.51c19.38-8.52,44.11-47.96,65.93-82.75c22.41-35.74,41.77-66.61,55.15-66.61v3
			c-11.72,0-32.5,33.15-52.61,65.21c-23.12,36.88-47.03,75.01-67.23,83.89c-27.92,13.05-72.79-5.17-123.06-50
			c-23.35-20.82-45.3-44.47-64.66-65.34c-24.45-26.35-45.56-49.1-54.8-49.1c-13.33,0-30.7,45.52-49.1,93.71
			c-21.42,56.11-45.69,119.7-71.27,130.65c-29.45,12.61-57.08-8.68-81.45-27.47c-14.81-11.42-28.81-22.2-40.1-22.2
			c-14.2,0-35.25,49.89-55.61,98.13c-21.61,51.21-43.95,104.16-64.53,117.74c-22.09,14.58-74.45,25.58-121.79,25.58
			c-28.89,0-54.46-19.18-77.02-36.1c-16.98-12.73-31.63-23.73-43.94-23.73c-13.3,0-32.73,10.99-53.3,22.62
			c-24.18,13.68-49.19,27.82-67.97,26.25C136.83,471.83,96.34,528.79,95.93,529.37z"/>
	</g>
	<g>
		<circle class="st4" cx="170.14" cy="472.84" r="7.5"/>
	</g>
	<g>
		<circle class="st4" cx="291.1" cy="424.22" r="7.5"/>
	</g>
	<g>
		<circle class="st4" cx="412.07" cy="484.04" r="7.5"/>
	</g>
	<g>
		<circle class="st4" cx="533.03" cy="458.72" r="7.5"/>
	</g>
	<g>
		<circle class="st4" cx="653.99" cy="242.59" r="7.5"/>
	</g>
	<g>
		<circle class="st4" cx="774.95" cy="292.39" r="7.5"/>
	</g>
	<g>
		<circle class="st4" cx="895.91" cy="67.9" r="7.5"/>
	</g>
	<g>
		<circle class="st4" cx="1016.87" cy="183.53" r="7.5"/>
	</g>
	<g>
		<circle class="st4" cx="1137.83" cy="232.47" r="7.5"/>
	</g>
	<g>
		<circle class="st4" cx="1254.79" cy="83.05" r="7.5"/>
	</g>
	<g>
		<rect x="169.64" y="518.31" class="st0" width="1" height="9.98"/>
	</g>
	<g>
		<rect x="290.6" y="518.31" class="st0" width="1" height="9.98"/>
	</g>
	<g>
		<rect x="411.57" y="518.31" class="st0" width="1" height="9.98"/>
	</g>
	<g>
		<rect x="532.53" y="518.31" class="st0" width="1" height="9.98"/>
	</g>
	<g>
		<rect x="653.49" y="518.31" class="st0" width="1" height="9.98"/>
	</g>
	<g>
		<rect x="774.45" y="518.31" class="st0" width="1" height="9.98"/>
	</g>
	<g>
		<rect x="895.41" y="518.31" class="st0" width="1" height="9.98"/>
	</g>
	<g>
		<rect x="1016.37" y="518.31" class="st0" width="1" height="9.98"/>
	</g>
	<g>
		<rect x="1137.33" y="518.31" class="st0" width="1" height="9.98"/>
	</g>
	<g>
		<path d="M167.98,455.03h-2.28v2.94h-3.16v-2.94H155v-2.18l6.6-8.88h3.4l-6.12,8.42h3.76v-2.62h3.06v2.62h2.28V455.03z"/>
		<path d="M181.76,455.03h-2.28v2.94h-3.16v-2.94h-7.54v-2.18l6.6-8.88h3.4l-6.12,8.42h3.76v-2.62h3.06v2.62h2.28V455.03z"/>
	</g>
	<g>
		<path d="M290.94,405.62c0,2.64-2.36,4.3-5.92,4.3c-3.54,0-5.88-1.66-5.88-4.3c0-1.5,0.78-2.62,2.12-3.3
			c-1.04-0.64-1.62-1.62-1.62-2.88c0-2.46,2.2-4,5.38-4c3.22,0,5.42,1.54,5.42,4c0,1.26-0.6,2.24-1.64,2.88
			C290.16,403,290.94,404.12,290.94,405.62z M287.66,405.52c0-1.24-1.02-2-2.64-2c-1.6,0-2.6,0.76-2.6,2c0,1.24,1,2.02,2.6,2.02
			C286.64,407.54,287.66,406.76,287.66,405.52z M282.86,399.58c0,1.06,0.84,1.72,2.16,1.72c1.34,0,2.2-0.66,2.2-1.72
			c0-1.1-0.88-1.76-2.2-1.76C283.72,397.82,282.86,398.48,282.86,399.58z"/>
		<path d="M302.88,407.04v2.64H292.3v-2.1l5.4-5.1c1.24-1.18,1.46-1.9,1.46-2.58c0-1.1-0.76-1.74-2.24-1.74
			c-1.2,0-2.22,0.46-2.9,1.4l-2.36-1.52c1.08-1.58,3.04-2.6,5.56-2.6c3.12,0,5.2,1.6,5.2,4.14c0,1.36-0.38,2.6-2.34,4.42l-3.22,3.04
			H302.88z"/>
	</g>
	<g>
		<path d="M410.77,466.06c0,2.36-1.82,4.52-5.8,4.52c-1.96,0-3.98-0.54-5.34-1.5l1.26-2.48c1.06,0.8,2.54,1.26,4,1.26
			c1.62,0,2.62-0.66,2.62-1.8c0-1.06-0.78-1.72-2.62-1.72h-1.48v-2.14l2.88-3.26h-5.96v-2.6h9.8v2.1l-3.16,3.6
			C409.49,462.44,410.77,464,410.77,466.06z"/>
		<path d="M422.65,465.94c0,2.48-1.82,4.64-5.82,4.64c-1.94,0-3.98-0.54-5.34-1.5l1.28-2.48c1.06,0.8,2.52,1.26,3.98,1.26
			c1.62,0,2.62-0.68,2.62-1.82c0-1.1-0.72-1.82-3.26-1.82h-3.58l0.72-7.88h8.54v2.6h-5.84l-0.22,2.66h1.14
			C421.01,461.6,422.65,463.46,422.65,465.94z"/>
	</g>
	<g>
		<path d="M528.81,441.35c0,2.48-1.82,4.64-5.82,4.64c-1.94,0-3.98-0.54-5.34-1.5l1.28-2.48c1.06,0.8,2.52,1.26,3.98,1.26
			c1.62,0,2.62-0.68,2.62-1.82c0-1.1-0.72-1.82-3.26-1.82h-3.58l0.72-7.88h8.54v2.6h-5.84l-0.22,2.66h1.14
			C527.17,437.01,528.81,438.87,528.81,441.35z"/>
		<path d="M540.61,441.35c0,2.48-1.82,4.64-5.82,4.64c-1.94,0-3.98-0.54-5.34-1.5l1.28-2.48c1.06,0.8,2.52,1.26,3.98,1.26
			c1.62,0,2.62-0.68,2.62-1.82c0-1.1-0.72-1.82-3.26-1.82h-3.58l0.72-7.88h8.54v2.6h-5.84l-0.22,2.66h1.14
			C538.97,437.01,540.61,438.87,540.61,441.35z"/>
	</g>
	<g>
		<path d="M647.4,225.93v2.64h-10.58v-2.1l5.4-5.1c1.24-1.18,1.46-1.9,1.46-2.58c0-1.1-0.76-1.74-2.24-1.74
			c-1.2,0-2.22,0.46-2.9,1.4l-2.36-1.52c1.08-1.58,3.04-2.6,5.56-2.6c3.12,0,5.2,1.6,5.2,4.14c0,1.36-0.38,2.6-2.34,4.42l-3.22,3.04
			H647.4z"/>
		<path d="M659.2,225.93v2.64h-10.58v-2.1l5.4-5.1c1.24-1.18,1.46-1.9,1.46-2.58c0-1.1-0.76-1.74-2.24-1.74
			c-1.2,0-2.22,0.46-2.9,1.4l-2.36-1.52c1.08-1.58,3.04-2.6,5.56-2.6c3.12,0,5.2,1.6,5.2,4.14c0,1.36-0.38,2.6-2.34,4.42l-3.22,3.04
			H659.2z"/>
		<path d="M671.12,224.17c0,2.48-1.82,4.64-5.82,4.64c-1.94,0-3.98-0.54-5.34-1.5l1.28-2.48c1.06,0.8,2.52,1.26,3.98,1.26
			c1.62,0,2.62-0.68,2.62-1.82c0-1.1-0.72-1.82-3.26-1.82H661l0.72-7.88h8.54v2.6h-5.84l-0.22,2.66h1.14
			C669.48,219.83,671.12,221.69,671.12,224.17z"/>
	</g>
	<g>
		<path d="M755.32,264.3v14h-3.24v-11.4h-2.8v-2.6H755.32z"/>
		<path d="M769.48,274.24c0,2.64-2.36,4.3-5.92,4.3c-3.54,0-5.88-1.66-5.88-4.3c0-1.5,0.78-2.62,2.12-3.3
			c-1.04-0.64-1.62-1.62-1.62-2.88c0-2.46,2.2-4,5.38-4c3.22,0,5.42,1.54,5.42,4c0,1.26-0.6,2.24-1.64,2.88
			C768.7,271.62,769.48,272.74,769.48,274.24z M766.2,274.14c0-1.24-1.02-2-2.64-2c-1.6,0-2.6,0.76-2.6,2s1,2.02,2.6,2.02
			C765.18,276.16,766.2,275.38,766.2,274.14z M761.4,268.2c0,1.06,0.84,1.72,2.16,1.72c1.34,0,2.2-0.66,2.2-1.72
			c0-1.1-0.88-1.76-2.2-1.76C762.26,266.44,761.4,267.1,761.4,268.2z"/>
		<path d="M782.52,273.88c0,2.86-2.34,4.66-5.3,4.66c-3.86,0-6.26-2.42-6.26-6.94c0-4.84,2.92-7.54,7.14-7.54
			c1.48,0,2.92,0.34,3.9,0.96l-1.2,2.38c-0.78-0.52-1.68-0.7-2.62-0.7c-2.34,0-3.84,1.38-3.94,4.06c0.82-0.82,2-1.24,3.46-1.24
			C780.4,269.52,782.52,271.24,782.52,273.88z M779.38,274.04c0-1.28-0.94-2.1-2.38-2.1c-1.42,0-2.42,0.88-2.42,2.1
			c0,1.2,0.9,2.08,2.46,2.08C778.42,276.12,779.38,275.32,779.38,274.04z"/>
	</g>
	<g>
		<path d="M888.54,48.32c0,2.36-1.82,4.52-5.8,4.52c-1.96,0-3.98-0.54-5.34-1.5l1.26-2.48c1.06,0.8,2.54,1.26,4,1.26
			c1.62,0,2.62-0.66,2.62-1.8c0-1.06-0.78-1.72-2.62-1.72h-1.48v-2.14l2.88-3.26h-5.96v-2.6h9.8v2.1l-3.16,3.6
			C887.26,44.7,888.54,46.26,888.54,48.32z"/>
		<path d="M901.6,48.18c0,2.86-2.34,4.66-5.3,4.66c-3.86,0-6.26-2.42-6.26-6.94c0-4.84,2.92-7.54,7.14-7.54
			c1.48,0,2.92,0.34,3.9,0.96l-1.2,2.38c-0.78-0.52-1.68-0.7-2.62-0.7c-2.34,0-3.84,1.38-3.94,4.06c0.82-0.82,2-1.24,3.46-1.24
			C899.48,43.82,901.6,45.54,901.6,48.18z M898.46,48.34c0-1.28-0.94-2.1-2.38-2.1c-1.42,0-2.42,0.88-2.42,2.1
			c0,1.2,0.9,2.08,2.46,2.08C897.5,50.42,898.46,49.62,898.46,48.34z"/>
		<path d="M913.12,48.32c0,2.36-1.82,4.52-5.8,4.52c-1.96,0-3.98-0.54-5.34-1.5l1.26-2.48c1.06,0.8,2.54,1.26,4,1.26
			c1.62,0,2.62-0.66,2.62-1.8c0-1.06-0.78-1.72-2.62-1.72h-1.48v-2.14l2.88-3.26h-5.96v-2.6h9.8v2.1l-3.16,3.6
			C911.84,44.7,913.12,46.26,913.12,48.32z"/>
	</g>
	<g>
		<path d="M1030.05,168.02v2.64h-10.58v-2.1l5.4-5.1c1.24-1.18,1.46-1.9,1.46-2.58c0-1.1-0.76-1.74-2.24-1.74
			c-1.2,0-2.22,0.46-2.9,1.4l-2.36-1.52c1.08-1.58,3.04-2.6,5.56-2.6c3.12,0,5.2,1.6,5.2,4.14c0,1.36-0.38,2.6-2.34,4.42l-3.22,3.04
			H1030.05z"/>
		<path d="M1042.31,156.66v2.1l-5.2,11.9h-3.52l5.02-11.36h-4.64v2.28h-2.88v-4.92H1042.31z"/>
		<path d="M1054.21,168.02v2.64h-10.58v-2.1l5.4-5.1c1.24-1.18,1.46-1.9,1.46-2.58c0-1.1-0.76-1.74-2.24-1.74
			c-1.2,0-2.22,0.46-2.9,1.4l-2.36-1.52c1.08-1.58,3.04-2.6,5.56-2.6c3.12,0,5.2,1.6,5.2,4.14c0,1.36-0.38,2.6-2.34,4.42l-3.22,3.04
			H1054.21z"/>
	</g>
	<g>
		<path d="M1119.58,215.49v2.64H1109v-2.1l5.4-5.1c1.24-1.18,1.46-1.9,1.46-2.58c0-1.1-0.76-1.74-2.24-1.74
			c-1.2,0-2.22,0.46-2.9,1.4l-2.36-1.52c1.08-1.58,3.04-2.6,5.56-2.6c3.12,0,5.2,1.6,5.2,4.14c0,1.36-0.38,2.6-2.34,4.42l-3.22,3.04
			H1119.58z"/>
		<path d="M1131.26,213.85c0,2.36-1.82,4.52-5.8,4.52c-1.96,0-3.98-0.54-5.34-1.5l1.26-2.48c1.06,0.8,2.54,1.26,4,1.26
			c1.62,0,2.62-0.66,2.62-1.8c0-1.06-0.78-1.72-2.62-1.72h-1.48v-2.14l2.88-3.26h-5.96v-2.6h9.8v2.1l-3.16,3.6
			C1129.98,210.22,1131.26,211.79,1131.26,213.85z"/>
		<path d="M1143,213.85c0,2.36-1.82,4.52-5.8,4.52c-1.96,0-3.98-0.54-5.34-1.5l1.26-2.48c1.06,0.8,2.54,1.26,4,1.26
			c1.62,0,2.62-0.66,2.62-1.8c0-1.06-0.78-1.72-2.62-1.72h-1.48v-2.14l2.88-3.26h-5.96v-2.6h9.8v2.1l-3.16,3.6
			C1141.72,210.22,1143,211.79,1143,213.85z"/>
	</g>
	<g>
		<path d="M1250.06,64.29c0,2.36-1.82,4.52-5.8,4.52c-1.96,0-3.98-0.54-5.34-1.5l1.26-2.48c1.06,0.8,2.54,1.26,4,1.26
			c1.62,0,2.62-0.66,2.62-1.8c0-1.06-0.78-1.72-2.62-1.72h-1.48v-2.14l2.88-3.26h-5.96v-2.6h9.8v2.1l-3.16,3.6
			C1248.78,60.67,1250.06,62.23,1250.06,64.29z"/>
		<path d="M1261.94,64.17c0,2.48-1.82,4.64-5.82,4.64c-1.94,0-3.98-0.54-5.34-1.5l1.28-2.48c1.06,0.8,2.52,1.26,3.98,1.26
			c1.62,0,2.62-0.68,2.62-1.82c0-1.1-0.72-1.82-3.26-1.82h-3.58l0.72-7.88h8.54v2.6h-5.84l-0.22,2.66h1.14
			C1260.3,59.83,1261.94,61.69,1261.94,64.17z"/>
		<path d="M1268.66,54.57v14h-3.24v-11.4h-2.8v-2.6H1268.66z"/>
	</g>
	<g>
		<g>
			<rect x="230.53" y="47.23" class="st3" width="275.88" height="176.56"/>
		</g>
		<g>
			<path d="M283.59,102.4v35h-8.1v-28.5h-7v-6.5H283.59z"/>
			<path d="M299.14,132.91c0,1.3-0.2,2.25-1.35,5l-2.85,7.2h-4.95l2.2-7.95c-1.65-0.65-2.7-2.2-2.7-4.25c0-2.9,2.1-4.8,4.85-4.8
				C297.14,128.1,299.14,130.06,299.14,132.91z"/>
			<path d="M330.74,119.15c0,12.1-7.25,18.85-17.85,18.85c-3.7,0-7.25-0.85-9.7-2.4l3-5.95c1.9,1.3,4.15,1.75,6.55,1.75
				c5.8,0,9.6-3.45,9.85-10.2c-2.05,2.05-5.05,3.15-8.7,3.15c-6.75,0-12.05-4.3-12.05-10.9c0-7.15,5.85-11.65,13.25-11.65
				C324.79,101.8,330.74,107.85,330.74,119.15z M321.69,113.05c0-3-2.25-5.2-6.1-5.2c-3.45,0-5.85,2-5.85,5.2s2.35,5.25,5.95,5.25
				C319.24,118.3,321.69,116.1,321.69,113.05z"/>
			<path d="M334.63,119.9c0-11.55,6.4-18.1,15-18.1c8.65,0,15,6.55,15,18.1s-6.35,18.1-15,18.1
				C341.04,138.01,334.63,131.46,334.63,119.9z M356.49,119.9c0-7.95-2.8-11.25-6.85-11.25c-4,0-6.8,3.3-6.8,11.25
				c0,7.95,2.8,11.25,6.8,11.25C353.69,131.16,356.49,127.85,356.49,119.9z"/>
			<path d="M368.58,119.9c0-11.55,6.4-18.1,15-18.1c8.65,0,15,6.55,15,18.1s-6.35,18.1-15,18.1
				C374.99,138.01,368.58,131.46,368.58,119.9z M390.44,119.9c0-7.95-2.8-11.25-6.85-11.25c-4,0-6.8,3.3-6.8,11.25
				c0,7.95,2.8,11.25,6.8,11.25C387.64,131.16,390.44,127.85,390.44,119.9z"/>
			<path d="M427.68,122.96h-8.7v8.5h-6.45v-8.5h-8.65v-6.1h8.65v-8.5h6.45v8.5h8.7V122.96z"/>
			<path d="M279.1,170.25v1.15h-8.91v-12.6h8.64v1.15h-7.31v4.48h6.52v1.13h-6.52v4.68H279.1z"/>
			<path d="M297.59,165.91v5.49h-1.28v-5.37c0-2-1.01-3.02-2.72-3.02c-1.94,0-3.17,1.26-3.17,3.42v4.97h-1.28v-5.37
				c0-2-1.01-3.02-2.74-3.02c-1.93,0-3.17,1.26-3.17,3.42v4.97h-1.28v-9.47h1.22v1.73c0.67-1.13,1.89-1.8,3.48-1.8
				c1.57,0,2.79,0.67,3.37,2c0.68-1.22,2.04-2,3.75-2C296.08,161.86,297.59,163.2,297.59,165.91z"/>
			<path d="M308.21,165.54v5.87h-1.22v-1.48c-0.58,0.97-1.69,1.57-3.26,1.57c-2.14,0-3.46-1.12-3.46-2.75
				c0-1.46,0.94-2.68,3.66-2.68h3.01v-0.58c0-1.62-0.92-2.5-2.68-2.5c-1.22,0-2.38,0.43-3.15,1.12l-0.58-0.95
				c0.95-0.81,2.36-1.28,3.85-1.28C306.82,161.86,308.21,163.09,308.21,165.54z M306.93,168.56v-1.55h-2.97
				c-1.84,0-2.43,0.72-2.43,1.69c0,1.1,0.88,1.78,2.39,1.78C305.36,170.49,306.42,169.8,306.93,168.56z"/>
			<path d="M311.39,158.95c0-0.49,0.41-0.9,0.94-0.9s0.94,0.4,0.94,0.88c0,0.52-0.4,0.94-0.94,0.94
				C311.8,159.86,311.39,159.45,311.39,158.95z M311.68,161.94h1.28v9.47h-1.28V161.94z"/>
			<path d="M316.52,158.05h1.28v13.36h-1.28V158.05z"/>
			<path d="M331.06,170.83c-0.5,0.45-1.26,0.67-2,0.67c-1.78,0-2.77-1.01-2.77-2.75v-5.73h-1.69v-1.08h1.69v-2.07h1.28v2.07h2.88
				v1.08h-2.88v5.65c0,1.12,0.58,1.73,1.64,1.73c0.52,0,1.04-0.16,1.41-0.49L331.06,170.83z"/>
			<path d="M341.29,167.07h-7.92c0.14,1.98,1.66,3.29,3.73,3.29c1.15,0,2.18-0.41,2.9-1.24l0.72,0.83
				c-0.85,1.01-2.16,1.55-3.66,1.55c-2.95,0-4.97-2.02-4.97-4.83c0-2.81,1.96-4.81,4.63-4.81c2.66,0,4.59,1.96,4.59,4.81
				C341.31,166.78,341.29,166.92,341.29,167.07z M333.37,166.11h6.72c-0.16-1.85-1.51-3.15-3.37-3.15
				C334.88,162.96,333.53,164.26,333.37,166.11z"/>
			<path d="M359.54,165.91v5.49h-1.28v-5.37c0-2-1.01-3.02-2.72-3.02c-1.94,0-3.17,1.26-3.17,3.42v4.97h-1.28v-5.37
				c0-2-1.01-3.02-2.74-3.02c-1.93,0-3.17,1.26-3.17,3.42v4.97h-1.28v-9.47h1.22v1.73c0.67-1.13,1.89-1.8,3.48-1.8
				c1.57,0,2.79,0.67,3.37,2c0.68-1.22,2.04-2,3.75-2C358.03,161.86,359.54,163.2,359.54,165.91z"/>
			<path d="M372.61,166.67c0,2.88-2.02,4.83-4.72,4.83c-1.51,0-2.81-0.65-3.6-1.87v5.28h-1.28v-12.96h1.22v1.87
				c0.77-1.26,2.09-1.94,3.66-1.94C370.59,161.86,372.61,163.81,372.61,166.67z M371.33,166.67c0-2.2-1.53-3.69-3.53-3.69
				c-2.02,0-3.53,1.49-3.53,3.69c0,2.21,1.51,3.69,3.53,3.69C369.8,170.36,371.33,168.88,371.33,166.67z"/>
			<path d="M375.22,158.05h1.28v13.36h-1.28V158.05z"/>
			<path d="M387.21,165.54v5.87h-1.22v-1.48c-0.58,0.97-1.69,1.57-3.26,1.57c-2.14,0-3.46-1.12-3.46-2.75
				c0-1.46,0.94-2.68,3.66-2.68h3.01v-0.58c0-1.62-0.92-2.5-2.68-2.5c-1.22,0-2.38,0.43-3.15,1.12l-0.58-0.95
				c0.95-0.81,2.36-1.28,3.85-1.28C385.82,161.86,387.21,163.09,387.21,165.54z M385.93,168.56v-1.55h-2.97
				c-1.84,0-2.43,0.72-2.43,1.69c0,1.1,0.88,1.78,2.39,1.78C384.36,170.49,385.42,169.8,385.93,168.56z"/>
			<path d="M395.67,170.83c-0.5,0.45-1.26,0.67-2,0.67c-1.78,0-2.77-1.01-2.77-2.75v-5.73h-1.69v-1.08h1.69v-2.07h1.28v2.07h2.88
				v1.08h-2.88v5.65c0,1.12,0.58,1.73,1.64,1.73c0.52,0,1.04-0.16,1.41-0.49L395.67,170.83z"/>
			<path d="M405.89,167.07h-7.92c0.14,1.98,1.66,3.29,3.73,3.29c1.15,0,2.18-0.41,2.9-1.24l0.72,0.83
				c-0.85,1.01-2.16,1.55-3.66,1.55c-2.95,0-4.97-2.02-4.97-4.83c0-2.81,1.96-4.81,4.63-4.81c2.66,0,4.59,1.96,4.59,4.81
				C405.91,166.78,405.89,166.92,405.89,167.07z M397.97,166.11h6.72c-0.16-1.85-1.51-3.15-3.37-3.15
				C399.48,162.96,398.13,164.26,397.97,166.11z"/>
			<path d="M407.2,170.33l0.58-1.01c0.76,0.59,2.04,1.06,3.37,1.06c1.8,0,2.54-0.61,2.54-1.55c0-2.47-6.14-0.52-6.14-4.27
				c0-1.55,1.33-2.7,3.75-2.7c1.22,0,2.56,0.34,3.35,0.88l-0.56,1.03c-0.83-0.58-1.82-0.81-2.79-0.81c-1.71,0-2.47,0.67-2.47,1.57
				c0,2.56,6.14,0.63,6.14,4.27c0,1.64-1.44,2.7-3.91,2.7C409.49,171.5,407.98,170.99,407.2,170.33z"/>
			<path d="M420.72,170.33l0.58-1.01c0.76,0.59,2.04,1.06,3.37,1.06c1.8,0,2.54-0.61,2.54-1.55c0-2.47-6.14-0.52-6.14-4.27
				c0-1.55,1.33-2.7,3.75-2.7c1.22,0,2.56,0.34,3.35,0.88l-0.56,1.03c-0.83-0.58-1.82-0.81-2.79-0.81c-1.71,0-2.47,0.67-2.47,1.57
				c0,2.56,6.14,0.63,6.14,4.27c0,1.64-1.44,2.7-3.91,2.7C423.01,171.5,421.49,170.99,420.72,170.33z"/>
			<path d="M429.88,166.67c0-2.81,2.05-4.81,4.83-4.81c2.77,0,4.81,2,4.81,4.81c0,2.81-2.03,4.83-4.81,4.83
				C431.93,171.5,429.88,169.48,429.88,166.67z M438.22,166.67c0-2.21-1.5-3.69-3.51-3.69s-3.53,1.48-3.53,3.69
				c0,2.21,1.51,3.69,3.53,3.69S438.22,168.88,438.22,166.67z"/>
			<path d="M448.3,160.82v1.12h2.92v1.08h-2.88v8.39h-1.28v-8.39h-1.69v-1.08h1.69v-1.17c0-1.69,1.01-2.81,2.86-2.81
				c0.7,0,1.42,0.2,1.89,0.59l-0.43,0.95c-0.36-0.31-0.86-0.47-1.41-0.47C448.87,159.04,448.3,159.65,448.3,160.82z"/>
			<path d="M459.91,165.54v5.87h-1.22v-1.48c-0.58,0.97-1.69,1.57-3.26,1.57c-2.14,0-3.46-1.12-3.46-2.75
				c0-1.46,0.94-2.68,3.66-2.68h3.01v-0.58c0-1.62-0.92-2.5-2.68-2.5c-1.22,0-2.38,0.43-3.15,1.12l-0.58-0.95
				c0.95-0.81,2.36-1.28,3.85-1.28C458.52,161.86,459.91,163.09,459.91,165.54z M458.63,168.56v-1.55h-2.97
				c-1.84,0-2.43,0.72-2.43,1.69c0,1.1,0.88,1.78,2.39,1.78C457.06,170.49,458.13,169.8,458.63,168.56z"/>
			<path d="M468.15,161.86v1.24c-0.11,0-0.22-0.02-0.31-0.02c-1.98,0-3.19,1.26-3.19,3.49v4.83h-1.28v-9.47h1.22v1.85
				C465.2,162.53,466.41,161.86,468.15,161.86z"/>
		</g>
	</g>
	<g>
		<path d="M2.97,320.99l12.6-0.18l0.03,1.96l-8.44,7.19l8.53-0.12l0.03,2.36l-12.6,0.18l-0.03-1.96l8.43-7.19L3,323.35L2.97,320.99z
			"/>
		<path d="M10.73,318.46c-2.88,0.04-4.95-2.13-4.99-5.13c-0.04-3.04,1.96-5.25,4.84-5.29c2.88-0.04,4.96,2.11,5.01,5.15
			C15.63,316.2,13.61,318.42,10.73,318.46z M10.61,310.35c-1.84,0.03-2.99,1.29-2.97,2.95c0.02,1.65,1.21,2.88,3.05,2.85
			c1.84-0.03,2.99-1.29,2.97-2.93C13.64,311.56,12.45,310.33,10.61,310.35z"/>
		<path d="M14,306.75c-0.9,0.01-1.5-0.66-1.52-1.48c-0.01-0.82,0.57-1.51,1.47-1.52c0.86-0.01,1.5,0.66,1.51,1.48
			C15.49,306.05,14.87,306.74,14,306.75z"/>
		<path d="M10.43,297.31c-2.88,0.04-4.95-2.13-4.99-5.13c-0.04-3.04,1.96-5.25,4.84-5.29c2.88-0.04,4.96,2.11,5.01,5.15
			C15.33,295.05,13.31,297.27,10.43,297.31z M10.32,289.2c-1.84,0.03-2.99,1.29-2.97,2.95c0.02,1.65,1.21,2.88,3.05,2.85
			c1.84-0.03,2.99-1.29,2.97-2.93C13.34,290.4,12.16,289.18,10.32,289.2z"/>
		<path d="M4.91,282.24l0.58-0.01l-0.04-2.69l1.8-0.02l0.04,2.62l7.74-0.11l0.03,2.29l-7.74,0.11l0.02,1.61l-1.8,0.02l-0.02-1.61
			l-0.61,0.01c-2.02,0.03-3.35-1.18-3.38-3.45c-0.01-0.79,0.14-1.56,0.49-2.08l1.7,0.62c-0.23,0.35-0.39,0.79-0.38,1.27
			C3.35,281.77,3.88,282.26,4.91,282.24z"/>
		<path d="M10.68,263.72l0.11,7.67c1.4-0.29,2.28-1.5,2.26-3.2c-0.02-1.1-0.37-1.95-1.08-2.64l1.37-1.25
			c1.04,0.86,1.6,2.23,1.62,3.91c0.05,3.28-2,5.43-4.86,5.47c-2.86,0.04-4.94-2.07-4.99-4.98c-0.04-2.86,1.89-4.97,4.9-5.01
			C10.2,263.69,10.47,263.7,10.68,263.72z M9.3,271.43l-0.08-5.55c-1.38,0.2-2.32,1.3-2.3,2.8C6.94,270.16,7.89,271.23,9.3,271.43z"
			/>
		<path d="M9,245.15l5.51-0.08l0.03,2.29l-5.22,0.07c-1.71,0.02-2.53,0.84-2.51,2.23c0.02,1.5,1.01,2.53,2.92,2.5l4.88-0.07
			l0.03,2.29l-5.22,0.07c-1.71,0.02-2.53,0.84-2.51,2.23c0.02,1.52,1.01,2.53,2.92,2.5l4.88-0.07l0.03,2.29l-9.61,0.13l-0.03-2.18
			l1.22-0.02c-0.87-0.72-1.36-1.85-1.38-3.19c-0.02-1.43,0.49-2.63,1.56-3.32c-1-0.77-1.63-2.08-1.65-3.64
			C4.81,246.86,6.1,245.19,9,245.15z"/>
		<path d="M8.72,234.03l5.63-0.08l0.03,2.16l-1.17,0.02c0.84,0.54,1.32,1.59,1.34,3.06c0.03,2.23-1.16,3.66-2.83,3.68
			c-1.6,0.02-2.88-1.06-2.92-4.02l-0.04-2.53l-0.14,0c-1.31,0.02-2.08,0.83-2.05,2.46c0.01,1.1,0.39,2.23,1,2.95l-1.63,0.92
			c-0.81-1.03-1.22-2.55-1.25-4.12C4.66,235.72,5.95,234.07,8.72,234.03z M11.38,236.29l-1.12,0.02l0.03,2.36
			c0.02,1.56,0.6,1.97,1.31,1.96c0.81-0.01,1.32-0.71,1.31-1.89C12.9,237.62,12.38,236.66,11.38,236.29z"/>
		<path d="M1.77,231.51c-0.76,0.01-1.36-0.6-1.37-1.45c-0.01-0.84,0.54-1.47,1.28-1.48c0.79-0.01,1.41,0.58,1.42,1.45
			C3.11,230.87,2.53,231.5,1.77,231.51z M4.7,231.16l-0.03-2.29l9.61-0.13l0.03,2.29L4.7,231.16z"/>
		<path d="M0.88,225.92l-0.03-2.29l13.36-0.19l0.03,2.29L0.88,225.92z"/>
		<path d="M13.49,209.51c0.44,0.54,0.67,1.36,0.68,2.19c0.03,2.14-1.07,3.38-3.19,3.41l-4.63,0.06l0.02,1.61l-1.8,0.02l-0.02-1.61
			l-2.2,0.03l-0.03-2.29l2.2-0.03l-0.04-2.62l1.8-0.02l0.04,2.62l4.57-0.06c0.94-0.01,1.43-0.5,1.42-1.38
			c-0.01-0.48-0.14-0.93-0.41-1.28L13.49,209.51z"/>
		<path d="M9.78,198.85l0.11,7.67c1.4-0.29,2.28-1.5,2.26-3.2c-0.02-1.1-0.37-1.95-1.08-2.64l1.37-1.25
			c1.04,0.86,1.6,2.23,1.62,3.92c0.05,3.28-2,5.43-4.86,5.47c-2.86,0.04-4.95-2.07-4.99-4.98c-0.04-2.86,1.89-4.97,4.9-5.01
			C9.29,198.82,9.56,198.84,9.78,198.85z M8.39,206.56l-0.08-5.55c-1.38,0.2-2.32,1.3-2.3,2.8C6.03,205.29,6.98,206.36,8.39,206.56z
			"/>
		<path d="M8.1,180.29l5.51-0.08l0.03,2.29l-5.22,0.07c-1.71,0.02-2.53,0.84-2.51,2.23c0.02,1.5,1.01,2.53,2.92,2.5l4.88-0.07
			l0.03,2.29l-5.22,0.07c-1.71,0.02-2.53,0.84-2.51,2.23c0.02,1.52,1.01,2.53,2.92,2.51l4.88-0.07l0.03,2.29l-9.61,0.13l-0.03-2.18
			l1.22-0.02c-0.88-0.72-1.36-1.85-1.38-3.19c-0.02-1.43,0.49-2.63,1.56-3.32c-1-0.77-1.63-2.08-1.65-3.64
			C3.91,181.99,5.2,180.33,8.1,180.29z"/>
		<path d="M8.61,166.96c2.99-0.04,4.96,2.04,5,4.89c0.02,1.24-0.38,2.35-1.25,3.15l4.66-0.06l0.03,2.29l-13.11,0.18l-0.03-2.18
			l1.26-0.02c-0.93-0.76-1.4-1.89-1.41-3.22C3.73,169.13,5.64,167,8.61,166.96z M8.65,169.28c-1.84,0.03-2.99,1.29-2.97,2.93
			c0.02,1.65,1.21,2.89,3.05,2.87c1.84-0.03,2.99-1.31,2.97-2.95C11.67,170.49,10.48,169.26,8.65,169.28z"/>
		<path d="M0.03,164.9L0,162.61l13.36-0.19l0.03,2.29L0.03,164.9z"/>
		<path d="M7.57,151.31l5.63-0.08l0.03,2.16l-1.17,0.02c0.84,0.54,1.32,1.59,1.34,3.06c0.03,2.23-1.16,3.66-2.83,3.68
			c-1.6,0.02-2.88-1.06-2.92-4.02l-0.04-2.53l-0.14,0c-1.31,0.02-2.08,0.83-2.05,2.46c0.02,1.1,0.39,2.23,1,2.95l-1.63,0.92
			c-0.81-1.03-1.22-2.55-1.25-4.12C3.5,153,4.79,151.35,7.57,151.31z M10.23,153.56l-1.12,0.02l0.03,2.36
			c0.02,1.56,0.6,1.97,1.31,1.96c0.81-0.01,1.32-0.71,1.31-1.89C11.74,154.9,11.22,153.94,10.23,153.56z"/>
		<path d="M12.56,142.43c0.44,0.54,0.67,1.36,0.68,2.19c0.03,2.14-1.07,3.38-3.19,3.41l-4.63,0.06l0.02,1.61l-1.8,0.02l-0.02-1.61
			l-2.2,0.03l-0.03-2.29l2.2-0.03l-0.04-2.62l1.8-0.02l0.04,2.62l4.57-0.06c0.94-0.01,1.43-0.5,1.42-1.38
			c-0.01-0.48-0.14-0.93-0.41-1.28L12.56,142.43z"/>
		<path d="M8.84,131.77l0.11,7.67c1.4-0.29,2.28-1.5,2.26-3.2c-0.02-1.1-0.37-1.95-1.08-2.64l1.37-1.25
			c1.04,0.86,1.6,2.23,1.62,3.91c0.05,3.28-2,5.43-4.86,5.47c-2.86,0.04-4.94-2.07-4.99-4.98c-0.04-2.86,1.89-4.97,4.9-5.01
			C8.36,131.74,8.63,131.75,8.84,131.77z M7.46,139.48l-0.08-5.55c-1.38,0.2-2.32,1.3-2.3,2.8C5.1,138.21,6.05,139.28,7.46,139.48z"
			/>
		<path d="M11.96,130.61l-1.72-0.86c0.55-0.87,0.92-2.19,0.91-3.42c-0.02-1.45-0.42-2.04-1.09-2.04c-1.84,0.03-0.02,6.04-3.86,6.1
			c-1.82,0.03-3.03-1.62-3.07-4.26c-0.02-1.3,0.27-2.79,0.78-3.67l1.72,0.86c-0.53,0.94-0.69,1.88-0.68,2.81
			c0.02,1.39,0.48,2.04,1.11,2.04c1.94-0.03,0.13-6.04,3.89-6.1c1.8-0.03,2.99,1.64,3.03,4.39
			C13.01,128.08,12.56,129.72,11.96,130.61z"/>
	</g>
	<g>
		<path d="M634.99,605.17l5.6-0.08c4.16-0.06,7.03,2.42,7.08,6.2c0.05,3.78-2.75,6.34-6.91,6.4l-5.6,0.08L634.99,605.17z
			 M640.63,615.71c2.86-0.04,4.68-1.78,4.65-4.39c-0.04-2.61-1.91-4.29-4.77-4.26l-3.11,0.04l0.12,8.64L640.63,615.71z"/>
		<path d="M659.4,607.81l0.13,9.61l-2.18,0.03l-0.02-1.22c-0.72,0.89-1.87,1.38-3.13,1.39c-2.51,0.04-4.23-1.29-4.27-4.19
			l-0.08-5.49l2.29-0.03l0.07,5.19c0.02,1.75,0.88,2.56,2.32,2.54c1.59-0.02,2.66-1.01,2.63-2.94l-0.07-4.86L659.4,607.81z"/>
		<path d="M668.06,607.58l0.03,2.14c-0.2-0.03-0.37-0.05-0.53-0.05c-1.74,0.02-2.82,1.05-2.8,3.01l0.07,4.66l-2.29,0.03l-0.13-9.61
			l2.18-0.03l0.02,1.4C665.25,608.13,666.43,607.61,668.06,607.58z"/>
		<path d="M678.19,611.53l0.08,5.63l-2.16,0.03l-0.02-1.17c-0.54,0.84-1.59,1.32-3.06,1.34c-2.23,0.03-3.66-1.16-3.68-2.83
			c-0.02-1.6,1.06-2.88,4.02-2.92l2.53-0.04l0-0.14c-0.02-1.31-0.83-2.08-2.46-2.05c-1.1,0.01-2.23,0.39-2.95,1l-0.92-1.63
			c1.03-0.81,2.55-1.22,4.12-1.25C676.5,607.47,678.15,608.76,678.19,611.53z M675.94,614.19l-0.02-1.12l-2.36,0.03
			c-1.56,0.02-1.97,0.6-1.96,1.31c0.01,0.81,0.71,1.32,1.89,1.31C674.61,615.71,675.57,615.19,675.94,614.19z"/>
		<path d="M687.07,616.52c-0.54,0.44-1.36,0.67-2.19,0.68c-2.14,0.03-3.38-1.07-3.41-3.19l-0.07-4.63l-1.61,0.02l-0.02-1.8
			l1.61-0.02l-0.03-2.2l2.29-0.03l0.03,2.2l2.62-0.04l0.02,1.8l-2.62,0.04l0.06,4.57c0.01,0.94,0.5,1.43,1.38,1.42
			c0.48-0.01,0.93-0.14,1.28-0.41L687.07,616.52z"/>
		<path d="M688.48,604.47c-0.01-0.76,0.6-1.36,1.45-1.37c0.84-0.01,1.47,0.54,1.48,1.28c0.01,0.79-0.59,1.41-1.45,1.42
			C689.12,605.82,688.49,605.23,688.48,604.47z M688.83,607.4l2.29-0.03l0.13,9.61l-2.29,0.03L688.83,607.4z"/>
		<path d="M693.39,612.15c-0.04-2.88,2.13-4.95,5.13-4.99c3.04-0.04,5.25,1.96,5.29,4.84s-2.11,4.96-5.15,5.01
			C695.65,617.05,693.43,615.03,693.39,612.15z M701.5,612.04c-0.03-1.84-1.29-2.99-2.95-2.97c-1.65,0.02-2.88,1.21-2.85,3.05
			c0.03,1.84,1.29,2.99,2.93,2.97C700.29,615.06,701.52,613.87,701.5,612.04z"/>
		<path d="M715.63,611.14l0.08,5.51l-2.29,0.03l-0.07-5.22c-0.02-1.71-0.9-2.53-2.36-2.51c-1.63,0.02-2.71,1.01-2.69,2.94l0.07,4.86
			l-2.29,0.03l-0.13-9.61l2.18-0.03l0.02,1.24c0.74-0.89,1.92-1.38,3.35-1.4C713.83,606.95,715.58,608.24,715.63,611.14z"/>
	</g>
</g>
</svg>
