<?xml version="1.0" encoding="utf-8"?>
<!-- Generator: Adobe Illustrator 22.0.1, SVG Export Plug-In . SVG Version: 6.00 Build 0)  -->
<svg version="1.1" id="Layer_1" xmlns="http://www.w3.org/2000/svg" xmlns:xlink="http://www.w3.org/1999/xlink" x="0px" y="0px"
	 width="195.9px" height="80.8px" viewBox="0 0 195.9 80.8" style="enable-background:new 0 0 195.9 80.8;" xml:space="preserve">
<style type="text/css">
	.st0{fill:#303030;}
	.st1{fill:#FFFFFF;}
	.st2{fill:url(#SVGID_1_);}
</style>
<g>
	<path class="st0" d="M123.5,64.2H5c-1.7,0-3.1-1.4-3.1-3.1V19.6c0-1.7,1.4-3.1,3.1-3.1h118.5c1.7,0,3.1,1.4,3.1,3.1v41.5
		C126.6,62.8,125.2,64.2,123.5,64.2z"/>
	<g>
		<path class="st0" d="M125.3,65.6H7.1c-4.5,0-7.1-2.3-7.1-6.2V20.7c0-3.9,2.7-6.2,7.1-6.2h118.1v2.9H7.1c-2.9,0-4.3,1.1-4.3,3.3
			v38.7c0,2.3,1.4,3.3,4.3,3.3h118.1V65.6z"/>
	</g>
	<g>
		<path class="st1" d="M21,34.4l1.1,0.3c-0.2,0.9-0.6,1.6-1.2,2c-0.6,0.5-1.3,0.7-2.2,0.7c-0.9,0-1.6-0.2-2.2-0.5
			c-0.6-0.4-1-0.9-1.3-1.6c-0.3-0.7-0.4-1.4-0.4-2.2c0-0.9,0.2-1.6,0.5-2.2c0.3-0.6,0.8-1.1,1.4-1.5c0.6-0.3,1.3-0.5,2-0.5
			c0.8,0,1.5,0.2,2.1,0.6c0.6,0.4,1,1,1.2,1.8l-1.1,0.3c-0.2-0.6-0.5-1-0.8-1.3c-0.4-0.3-0.8-0.4-1.4-0.4c-0.6,0-1.2,0.2-1.6,0.5
			c-0.4,0.3-0.7,0.7-0.9,1.2c-0.2,0.5-0.3,1-0.3,1.6c0,0.7,0.1,1.3,0.3,1.8c0.2,0.5,0.5,0.9,1,1.2c0.4,0.3,0.9,0.4,1.4,0.4
			c0.6,0,1.1-0.2,1.5-0.5C20.5,35.6,20.8,35.1,21,34.4z"/>
		<path class="st1" d="M23.1,33.3c0-1.4,0.4-2.4,1.1-3.2c0.7-0.8,1.7-1.2,2.8-1.2c0.8,0,1.4,0.2,2.1,0.5c0.6,0.4,1.1,0.9,1.4,1.5
			c0.3,0.6,0.5,1.4,0.5,2.2c0,0.8-0.2,1.6-0.5,2.2c-0.3,0.7-0.8,1.2-1.4,1.5c-0.6,0.3-1.3,0.5-2,0.5c-0.8,0-1.5-0.2-2.1-0.6
			c-0.6-0.4-1.1-0.9-1.4-1.5C23.2,34.7,23.1,34,23.1,33.3z M24.2,33.3c0,1,0.3,1.8,0.8,2.3c0.5,0.6,1.2,0.9,2,0.9
			c0.8,0,1.5-0.3,2-0.9c0.5-0.6,0.8-1.4,0.8-2.5c0-0.7-0.1-1.3-0.3-1.8c-0.2-0.5-0.6-0.9-1-1.2C28,30,27.5,29.9,27,29.9
			c-0.8,0-1.4,0.3-2,0.8C24.5,31.2,24.2,32.1,24.2,33.3z"/>
		<path class="st1" d="M32,34.7l1-0.1c0,0.4,0.2,0.7,0.3,1c0.2,0.3,0.5,0.5,0.8,0.6c0.4,0.2,0.8,0.2,1.3,0.2c0.4,0,0.8-0.1,1.1-0.2
			c0.3-0.1,0.6-0.3,0.7-0.5c0.2-0.2,0.2-0.4,0.2-0.7c0-0.3-0.1-0.5-0.2-0.7c-0.1-0.2-0.4-0.4-0.7-0.5c-0.2-0.1-0.7-0.2-1.5-0.4
			c-0.8-0.2-1.3-0.4-1.6-0.5c-0.4-0.2-0.7-0.5-0.9-0.8c-0.2-0.3-0.3-0.6-0.3-1c0-0.4,0.1-0.8,0.4-1.2c0.2-0.4,0.6-0.6,1-0.8
			c0.5-0.2,1-0.3,1.5-0.3c0.6,0,1.1,0.1,1.6,0.3c0.5,0.2,0.8,0.5,1.1,0.9c0.3,0.4,0.4,0.8,0.4,1.3l-1,0.1c-0.1-0.5-0.2-0.9-0.6-1.2
			c-0.3-0.3-0.8-0.4-1.4-0.4c-0.7,0-1.1,0.1-1.4,0.4c-0.3,0.2-0.5,0.5-0.5,0.9c0,0.3,0.1,0.5,0.3,0.7c0.2,0.2,0.8,0.4,1.6,0.6
			c0.9,0.2,1.5,0.4,1.8,0.5c0.5,0.2,0.8,0.5,1.1,0.8c0.2,0.3,0.3,0.7,0.3,1.2c0,0.4-0.1,0.8-0.4,1.2c-0.3,0.4-0.6,0.7-1.1,0.9
			c-0.5,0.2-1,0.3-1.6,0.3c-0.7,0-1.4-0.1-1.9-0.3c-0.5-0.2-0.9-0.5-1.2-1C32.1,35.7,32,35.2,32,34.7z"/>
		<path class="st1" d="M43.2,37.3v-8.2H46c0.6,0,1.1,0,1.5,0.1c0.5,0.1,0.9,0.3,1.2,0.6c0.4,0.4,0.8,0.8,1,1.4
			c0.2,0.6,0.3,1.2,0.3,2c0,0.6-0.1,1.2-0.2,1.7c-0.1,0.5-0.3,0.9-0.6,1.2c-0.2,0.3-0.5,0.6-0.7,0.7c-0.3,0.2-0.6,0.3-1,0.4
			c-0.4,0.1-0.8,0.1-1.3,0.1H43.2z M44.3,36.3H46c0.5,0,1-0.1,1.3-0.2c0.3-0.1,0.6-0.2,0.7-0.4c0.3-0.3,0.5-0.6,0.6-1
			c0.1-0.4,0.2-1,0.2-1.6c0-0.9-0.1-1.5-0.4-2c-0.3-0.5-0.6-0.8-1-0.9C47.1,30.1,46.6,30,46,30h-1.7V36.3z"/>
		<path class="st1" d="M51.5,37.3v-8.2h5.9v1h-4.9v2.5h4.5v1h-4.5v2.8h5v1H51.5z"/>
		<path class="st1" d="M58.8,34.7l1-0.1c0,0.4,0.2,0.7,0.3,1c0.2,0.3,0.5,0.5,0.8,0.6c0.4,0.2,0.8,0.2,1.3,0.2
			c0.4,0,0.8-0.1,1.1-0.2c0.3-0.1,0.6-0.3,0.7-0.5c0.2-0.2,0.2-0.4,0.2-0.7c0-0.3-0.1-0.5-0.2-0.7c-0.1-0.2-0.4-0.4-0.7-0.5
			c-0.2-0.1-0.7-0.2-1.5-0.4c-0.8-0.2-1.3-0.4-1.6-0.5c-0.4-0.2-0.7-0.5-0.9-0.8c-0.2-0.3-0.3-0.6-0.3-1c0-0.4,0.1-0.8,0.4-1.2
			c0.2-0.4,0.6-0.6,1-0.8c0.5-0.2,1-0.3,1.5-0.3c0.6,0,1.1,0.1,1.6,0.3c0.5,0.2,0.8,0.5,1.1,0.9c0.3,0.4,0.4,0.8,0.4,1.3l-1,0.1
			c-0.1-0.5-0.2-0.9-0.6-1.2c-0.3-0.3-0.8-0.4-1.4-0.4c-0.7,0-1.1,0.1-1.4,0.4c-0.3,0.2-0.5,0.5-0.5,0.9c0,0.3,0.1,0.5,0.3,0.7
			c0.2,0.2,0.8,0.4,1.6,0.6c0.9,0.2,1.5,0.4,1.8,0.5c0.5,0.2,0.8,0.5,1.1,0.8c0.2,0.3,0.3,0.7,0.3,1.2c0,0.4-0.1,0.8-0.4,1.2
			c-0.3,0.4-0.6,0.7-1.1,0.9c-0.5,0.2-1,0.3-1.6,0.3c-0.7,0-1.4-0.1-1.9-0.3c-0.5-0.2-0.9-0.5-1.2-1C58.9,35.7,58.8,35.2,58.8,34.7z
			"/>
		<path class="st1" d="M67,37.3v-8.2h1.1v8.2H67z"/>
		<path class="st1" d="M73.8,34.1v-1l3.5,0v3.1c-0.5,0.4-1.1,0.7-1.7,1c-0.6,0.2-1.2,0.3-1.7,0.3c-0.8,0-1.5-0.2-2.2-0.5
			c-0.7-0.3-1.2-0.8-1.5-1.5c-0.3-0.7-0.5-1.4-0.5-2.2c0-0.8,0.2-1.5,0.5-2.2c0.3-0.7,0.8-1.2,1.4-1.5c0.6-0.3,1.4-0.5,2.2-0.5
			c0.6,0,1.1,0.1,1.6,0.3c0.5,0.2,0.9,0.5,1.1,0.8c0.3,0.3,0.5,0.8,0.6,1.3l-1,0.3c-0.1-0.4-0.3-0.7-0.5-1c-0.2-0.2-0.4-0.4-0.8-0.6
			c-0.3-0.1-0.7-0.2-1.1-0.2c-0.5,0-0.9,0.1-1.3,0.2c-0.4,0.2-0.7,0.4-0.9,0.6c-0.2,0.2-0.4,0.5-0.5,0.8c-0.2,0.5-0.3,1.1-0.3,1.7
			c0,0.7,0.1,1.3,0.4,1.8c0.3,0.5,0.6,0.9,1.1,1.1c0.5,0.2,1,0.4,1.5,0.4c0.5,0,0.9-0.1,1.4-0.3c0.4-0.2,0.8-0.4,1-0.6v-1.5H73.8z"
			/>
		<path class="st1" d="M78.9,37.3v-8.2H80l4.3,6.5v-6.5h1v8.2h-1.1L80,30.8v6.5H78.9z"/>
		<path class="st1" d="M87.2,37.3v-8.2h5.9v1h-4.9v2.5h4.5v1h-4.5v2.8h5v1H87.2z"/>
		<path class="st1" d="M94.9,37.3v-8.2h3.6c0.7,0,1.3,0.1,1.7,0.2c0.4,0.1,0.7,0.4,0.9,0.8c0.2,0.4,0.3,0.8,0.3,1.2
			c0,0.6-0.2,1.1-0.6,1.5c-0.4,0.4-1,0.7-1.7,0.8c0.3,0.1,0.5,0.3,0.7,0.4c0.3,0.3,0.6,0.7,0.9,1.1l1.4,2.2h-1.4l-1.1-1.7
			c-0.3-0.5-0.6-0.9-0.8-1.1c-0.2-0.3-0.4-0.4-0.6-0.5c-0.2-0.1-0.3-0.2-0.5-0.2c-0.1,0-0.3,0-0.6,0H96v3.7H94.9z M96,32.7h2.3
			c0.5,0,0.9-0.1,1.2-0.2c0.3-0.1,0.5-0.3,0.6-0.5c0.1-0.2,0.2-0.5,0.2-0.7c0-0.4-0.1-0.7-0.4-1c-0.3-0.3-0.7-0.4-1.3-0.4H96V32.7z"
			/>
		<path class="st1" d="M21,48.2l1.1,0.3c-0.2,0.9-0.6,1.6-1.2,2c-0.6,0.5-1.3,0.7-2.2,0.7c-0.9,0-1.6-0.2-2.2-0.5
			c-0.6-0.4-1-0.9-1.3-1.6c-0.3-0.7-0.4-1.4-0.4-2.2c0-0.9,0.2-1.6,0.5-2.2c0.3-0.6,0.8-1.1,1.4-1.5c0.6-0.3,1.3-0.5,2-0.5
			c0.8,0,1.5,0.2,2.1,0.6c0.6,0.4,1,1,1.2,1.8l-1.1,0.3c-0.2-0.6-0.5-1-0.8-1.3c-0.4-0.3-0.8-0.4-1.4-0.4c-0.6,0-1.2,0.2-1.6,0.5
			c-0.4,0.3-0.7,0.7-0.9,1.2c-0.2,0.5-0.3,1-0.3,1.6c0,0.7,0.1,1.3,0.3,1.8c0.2,0.5,0.5,0.9,1,1.2c0.4,0.3,0.9,0.4,1.4,0.4
			c0.6,0,1.1-0.2,1.5-0.5C20.5,49.4,20.8,48.9,21,48.2z"/>
		<path class="st1" d="M23.4,51.1v-8.2h5.9v1h-4.9v2.5h4.5v1h-4.5v2.8h5v1H23.4z"/>
		<path class="st1" d="M31.1,51.1v-8.2h3.6c0.7,0,1.3,0.1,1.7,0.2c0.4,0.1,0.7,0.4,0.9,0.8c0.2,0.4,0.3,0.8,0.3,1.2
			c0,0.6-0.2,1.1-0.6,1.5c-0.4,0.4-1,0.7-1.7,0.8c0.3,0.1,0.5,0.3,0.7,0.4c0.3,0.3,0.6,0.7,0.9,1.1l1.4,2.2H37l-1.1-1.7
			c-0.3-0.5-0.6-0.9-0.8-1.1c-0.2-0.3-0.4-0.4-0.6-0.5c-0.2-0.1-0.3-0.2-0.5-0.2c-0.1,0-0.3,0-0.6,0h-1.3v3.7H31.1z M32.2,46.5h2.3
			c0.5,0,0.9-0.1,1.2-0.2c0.3-0.1,0.5-0.3,0.6-0.5c0.1-0.2,0.2-0.5,0.2-0.7c0-0.4-0.1-0.7-0.4-1c-0.3-0.3-0.7-0.4-1.3-0.4h-2.6V46.5
			z"/>
		<path class="st1" d="M41.2,51.1v-7.3h-2.7v-1H45v1h-2.7v7.3H41.2z"/>
		<path class="st1" d="M46.3,51.1v-8.2h1.1v8.2H46.3z"/>
		<path class="st1" d="M49.4,51.1v-8.2H55v1h-4.5v2.5h3.9v1h-3.9v3.7H49.4z"/>
		<path class="st1" d="M56.6,51.1v-8.2h1.1v8.2H56.6z"/>
		<path class="st1" d="M65.4,48.2l1.1,0.3c-0.2,0.9-0.6,1.6-1.2,2c-0.6,0.5-1.3,0.7-2.2,0.7c-0.9,0-1.6-0.2-2.2-0.5s-1-0.9-1.3-1.6
			c-0.3-0.7-0.4-1.4-0.4-2.2c0-0.9,0.2-1.6,0.5-2.2c0.3-0.6,0.8-1.1,1.4-1.5c0.6-0.3,1.3-0.5,2-0.5c0.8,0,1.5,0.2,2.1,0.6
			c0.6,0.4,1,1,1.2,1.8l-1.1,0.3c-0.2-0.6-0.5-1-0.8-1.3c-0.4-0.3-0.8-0.4-1.4-0.4c-0.6,0-1.2,0.2-1.6,0.5c-0.4,0.3-0.7,0.7-0.9,1.2
			c-0.2,0.5-0.3,1-0.3,1.6c0,0.7,0.1,1.3,0.3,1.8c0.2,0.5,0.5,0.9,1,1.2c0.4,0.3,0.9,0.4,1.4,0.4c0.6,0,1.1-0.2,1.5-0.5
			C65,49.4,65.3,48.9,65.4,48.2z"/>
		<path class="st1" d="M67,51.1l3.2-8.2h1.2l3.4,8.2h-1.2l-1-2.5H69l-0.9,2.5H67z M69.3,47.7h2.8l-0.9-2.3c-0.3-0.7-0.5-1.3-0.6-1.7
			c-0.1,0.5-0.3,1.1-0.4,1.6L69.3,47.7z"/>
		<path class="st1" d="M76.8,51.1v-7.3H74v-1h6.5v1h-2.7v7.3H76.8z"/>
		<path class="st1" d="M81.9,51.1v-8.2H83v8.2H81.9z"/>
		<path class="st1" d="M84.5,47.1c0-1.4,0.4-2.4,1.1-3.2c0.7-0.8,1.7-1.2,2.8-1.2c0.8,0,1.4,0.2,2.1,0.5c0.6,0.4,1.1,0.9,1.4,1.5
			s0.5,1.4,0.5,2.2c0,0.8-0.2,1.6-0.5,2.2c-0.3,0.7-0.8,1.2-1.4,1.5c-0.6,0.3-1.3,0.5-2,0.5c-0.8,0-1.5-0.2-2.1-0.6
			c-0.6-0.4-1.1-0.9-1.4-1.5C84.7,48.5,84.5,47.8,84.5,47.1z M85.7,47.1c0,1,0.3,1.8,0.8,2.3s1.2,0.9,2,0.9c0.8,0,1.5-0.3,2-0.9
			c0.5-0.6,0.8-1.4,0.8-2.5c0-0.7-0.1-1.3-0.3-1.8c-0.2-0.5-0.6-0.9-1-1.2c-0.4-0.3-0.9-0.4-1.5-0.4c-0.8,0-1.4,0.3-2,0.8
			C85.9,45,85.7,45.8,85.7,47.1z"/>
		<path class="st1" d="M93.8,51.1v-8.2h1.1l4.3,6.5v-6.5h1v8.2h-1.1l-4.3-6.5v6.5H93.8z"/>
	</g>
	<linearGradient id="SVGID_1_" gradientUnits="userSpaceOnUse" x1="119.1694" y1="26.9528" x2="192.9554" y2="53.8086">
		<stop  offset="0" style="stop-color:#FA8521"/>
		<stop  offset="1" style="stop-color:#E84A20"/>
	</linearGradient>
	<circle class="st2" cx="156.1" cy="40.4" r="39.3"/>
	<g>
		<path class="st1" d="M155.5,80.8c-22.3,0-40.4-18.1-40.4-40.4S133.3,0,155.5,0c22.3,0,40.4,18.1,40.4,40.4S177.8,80.8,155.5,80.8z
			 M155.5,2.9c-20.7,0-37.5,16.8-37.5,37.5s16.8,37.5,37.5,37.5s37.5-16.8,37.5-37.5S176.2,2.9,155.5,2.9z"/>
	</g>
	<g>
		<g>
			<path class="st1" d="M176.9,61.8h-42.6V18.2h42.6V61.8z M136.5,59.5h38V20.5h-38V59.5z"/>
		</g>
		<g>
			<rect x="141.1" y="25.6" class="st1" width="28.7" height="7.5"/>
		</g>
		<g>
			<rect x="152.8" y="37.1" class="st1" width="17" height="17.4"/>
		</g>
		<g>
			<rect x="141.1" y="37.1" class="st1" width="8.5" height="17.4"/>
		</g>
	</g>
</g>
</svg>
