<?xml version="1.0" encoding="utf-8"?>
<!-- Generator: Adobe Illustrator 22.0.1, SVG Export Plug-In . SVG Version: 6.00 Build 0)  -->
<svg version="1.1" id="Layer_1" xmlns="http://www.w3.org/2000/svg" xmlns:xlink="http://www.w3.org/1999/xlink" x="0px" y="0px"
	 width="67.2px" height="59.8px" viewBox="0 0 67.2 59.8" style="enable-background:new 0 0 67.2 59.8;" xml:space="preserve">
<style type="text/css">
	.st0{fill:none;stroke:#000000;stroke-width:1.8;stroke-linecap:round;stroke-linejoin:round;stroke-miterlimit:22.9256;}
	.st1{fill:#FEDA2F;stroke:#000000;stroke-width:1.8;stroke-linecap:round;stroke-linejoin:round;stroke-miterlimit:22.9256;}
</style>
<g>
	<g>
		<path class="st0" d="M66.3,0.9H0.9v46.5c36.7,0,46.7,0,65.4,0V0.9L66.3,0.9z"/>
		<line class="st0" x1="18" y1="58.9" x2="49.2" y2="58.9"/>
		<line class="st0" x1="25.7" y1="57.4" x2="25.7" y2="51.4"/>
		<line class="st0" x1="41.5" y1="57.4" x2="41.5" y2="51.4"/>
	</g>
	<g>
		<polygon class="st1" points="8.5,11.5 13.9,11.5 16.2,13.8 27,13.8 27,25.1 8.5,25.1 		"/>
		<polygon class="st1" points="39.8,23.7 45.3,23.7 47.5,26 58.3,26 58.3,37.3 39.8,37.3 		"/>
		<polyline class="st0" points="12.4,20.1 18.2,20.1 25.7,30.2 33.6,30.2 		"/>
		<polyline class="st0" points="49,29.9 41.9,29.9 34.9,35.1 21.2,35.1 		"/>
		<circle class="st0" cx="33.8" cy="14.2" r="1.5"/>
		<circle class="st0" cx="39.7" cy="14.2" r="1.5"/>
		<circle class="st0" cx="8.8" cy="35.5" r="1.5"/>
		<circle class="st0" cx="14.7" cy="35.5" r="1.5"/>
		<line class="st0" x1="44.4" y1="14.2" x2="53.3" y2="14.2"/>
		<circle class="st0" cx="56.8" cy="14.2" r="3.5"/>
	</g>
</g>
</svg>
