<?xml version="1.0" encoding="utf-8"?>
<!-- Generator: Adobe Illustrator 22.0.1, SVG Export Plug-In . SVG Version: 6.00 Build 0)  -->
<svg version="1.1" id="Layer_1" xmlns="http://www.w3.org/2000/svg" xmlns:xlink="http://www.w3.org/1999/xlink" x="0px" y="0px"
	 width="195.9px" height="80.8px" viewBox="0 0 195.9 80.8" style="enable-background:new 0 0 195.9 80.8;" xml:space="preserve">
<style type="text/css">
	.st0{fill:#303030;}
	.st1{fill:#FFFFFF;}
	.st2{fill:url(#SVGID_1_);}
</style>
<g>
	<path class="st0" d="M123.5,64.2H5c-1.7,0-3.1-1.4-3.1-3.1V19.6c0-1.7,1.4-3.1,3.1-3.1h118.5c1.7,0,3.1,1.4,3.1,3.1v41.5
		C126.6,62.8,125.2,64.2,123.5,64.2z"/>
	<g>
		<path class="st1" d="M15.1,29.3v-8.2h5.9v1h-4.9v2.5h4.5v1h-4.5v2.8h5v1H15.1z"/>
		<path class="st1" d="M22.7,29.3v-8.2h1.6l1.9,5.8c0.2,0.5,0.3,0.9,0.4,1.2c0.1-0.3,0.2-0.7,0.4-1.3l2-5.7h1.5v8.2h-1v-6.9
			l-2.4,6.9h-1l-2.4-7v7H22.7z"/>
		<path class="st1" d="M31.4,29.3l3.2-8.2h1.2l3.4,8.2h-1.2l-1-2.5h-3.4l-0.9,2.5H31.4z M33.8,25.9h2.8l-0.9-2.3
			c-0.3-0.7-0.5-1.3-0.6-1.7c-0.1,0.5-0.3,1.1-0.4,1.6L33.8,25.9z"/>
		<path class="st1" d="M40.2,29.3v-8.2h1.1v8.2H40.2z"/>
		<path class="st1" d="M43.1,29.3v-8.2h1.1v7.3h4v1H43.1z"/>
		<path class="st1" d="M15.1,43.1v-8.2h1.6l1.9,5.8c0.2,0.5,0.3,0.9,0.4,1.2c0.1-0.3,0.2-0.7,0.4-1.3l2-5.7h1.5v8.2h-1v-6.9
			l-2.4,6.9h-1l-2.4-7v7H15.1z"/>
		<path class="st1" d="M23.8,43.1l3.2-8.2h1.2l3.4,8.2h-1.2l-1-2.5h-3.4l-0.9,2.5H23.8z M26.1,39.7h2.8l-0.9-2.3
			c-0.3-0.7-0.5-1.3-0.6-1.7c-0.1,0.5-0.3,1.1-0.4,1.6L26.1,39.7z"/>
		<path class="st1" d="M32.3,43.1v-8.2H36c0.7,0,1.3,0.1,1.7,0.2c0.4,0.1,0.7,0.4,0.9,0.8c0.2,0.4,0.3,0.8,0.3,1.2
			c0,0.6-0.2,1.1-0.6,1.5c-0.4,0.4-1,0.7-1.7,0.8c0.3,0.1,0.5,0.3,0.7,0.4c0.3,0.3,0.6,0.7,0.9,1.1l1.4,2.2h-1.4l-1.1-1.7
			c-0.3-0.5-0.6-0.9-0.8-1.1c-0.2-0.3-0.4-0.4-0.6-0.5c-0.2-0.1-0.3-0.2-0.5-0.2c-0.1,0-0.3,0-0.6,0h-1.3v3.7H32.3z M33.4,38.5h2.3
			c0.5,0,0.9-0.1,1.2-0.2c0.3-0.1,0.5-0.3,0.6-0.5c0.1-0.2,0.2-0.5,0.2-0.7c0-0.4-0.1-0.7-0.4-1c-0.3-0.3-0.7-0.4-1.3-0.4h-2.6V38.5
			z"/>
		<path class="st1" d="M40.6,43.1v-8.2h1.1v4.1l4.1-4.1h1.5l-3.4,3.3l3.6,4.9h-1.4L43,38.9l-1.3,1.3v2.8H40.6z"/>
		<path class="st1" d="M48.3,43.1v-8.2h5.9v1h-4.9v2.5h4.5v1h-4.5v2.8h5v1H48.3z"/>
		<path class="st1" d="M58,43.1v-7.3h-2.7v-1h6.5v1h-2.7v7.3H58z"/>
		<path class="st1" d="M63.1,43.1v-8.2h1.1v8.2H63.1z"/>
		<path class="st1" d="M66.1,43.1v-8.2h1.1l4.3,6.5v-6.5h1v8.2h-1.1l-4.3-6.5v6.5H66.1z"/>
		<path class="st1" d="M78.3,39.8v-1l3.5,0v3.1c-0.5,0.4-1.1,0.7-1.7,1c-0.6,0.2-1.2,0.3-1.7,0.3c-0.8,0-1.5-0.2-2.2-0.5
			c-0.7-0.3-1.2-0.8-1.5-1.5c-0.3-0.7-0.5-1.4-0.5-2.2c0-0.8,0.2-1.5,0.5-2.2c0.3-0.7,0.8-1.2,1.4-1.5c0.6-0.3,1.4-0.5,2.2-0.5
			c0.6,0,1.1,0.1,1.6,0.3c0.5,0.2,0.9,0.5,1.1,0.8c0.3,0.3,0.5,0.8,0.6,1.3l-1,0.3c-0.1-0.4-0.3-0.7-0.5-1c-0.2-0.2-0.4-0.4-0.8-0.6
			c-0.3-0.1-0.7-0.2-1.1-0.2c-0.5,0-0.9,0.1-1.3,0.2c-0.4,0.2-0.7,0.4-0.9,0.6c-0.2,0.2-0.4,0.5-0.5,0.8c-0.2,0.5-0.3,1.1-0.3,1.7
			c0,0.7,0.1,1.3,0.4,1.8c0.3,0.5,0.6,0.9,1.1,1.1c0.5,0.2,1,0.4,1.5,0.4c0.5,0,0.9-0.1,1.4-0.3c0.4-0.2,0.8-0.4,1-0.6v-1.5H78.3z"
			/>
		<path class="st1" d="M21,54l1.1,0.3c-0.2,0.9-0.6,1.6-1.2,2c-0.6,0.5-1.3,0.7-2.2,0.7c-0.9,0-1.6-0.2-2.2-0.5
			c-0.6-0.4-1-0.9-1.3-1.6c-0.3-0.7-0.4-1.4-0.4-2.2c0-0.9,0.2-1.6,0.5-2.2c0.3-0.6,0.8-1.1,1.4-1.5c0.6-0.3,1.3-0.5,2-0.5
			c0.8,0,1.5,0.2,2.1,0.6c0.6,0.4,1,1,1.2,1.8l-1.1,0.3c-0.2-0.6-0.5-1-0.8-1.3c-0.4-0.3-0.8-0.4-1.4-0.4c-0.6,0-1.2,0.2-1.6,0.5
			c-0.4,0.3-0.7,0.7-0.9,1.2c-0.2,0.5-0.3,1-0.3,1.6c0,0.7,0.1,1.3,0.3,1.8c0.2,0.5,0.5,0.9,1,1.2c0.4,0.3,0.9,0.4,1.4,0.4
			c0.6,0,1.1-0.2,1.5-0.5C20.5,55.2,20.8,54.7,21,54z"/>
		<path class="st1" d="M23.4,56.8v-8.2h5.9v1h-4.9v2.5h4.5v1h-4.5v2.8h5v1H23.4z"/>
		<path class="st1" d="M31.1,56.8v-8.2h3.6c0.7,0,1.3,0.1,1.7,0.2c0.4,0.1,0.7,0.4,0.9,0.8c0.2,0.4,0.3,0.8,0.3,1.2
			c0,0.6-0.2,1.1-0.6,1.5c-0.4,0.4-1,0.7-1.7,0.8c0.3,0.1,0.5,0.3,0.7,0.4c0.3,0.3,0.6,0.7,0.9,1.1l1.4,2.2H37l-1.1-1.7
			c-0.3-0.5-0.6-0.9-0.8-1.1c-0.2-0.3-0.4-0.4-0.6-0.5c-0.2-0.1-0.3-0.2-0.5-0.2c-0.1,0-0.3,0-0.6,0h-1.3v3.7H31.1z M32.2,52.3h2.3
			c0.5,0,0.9-0.1,1.2-0.2c0.3-0.1,0.5-0.3,0.6-0.5c0.1-0.2,0.2-0.5,0.2-0.7c0-0.4-0.1-0.7-0.4-1c-0.3-0.3-0.7-0.4-1.3-0.4h-2.6V52.3
			z"/>
		<path class="st1" d="M41.2,56.8v-7.3h-2.7v-1H45v1h-2.7v7.3H41.2z"/>
		<path class="st1" d="M46.3,56.8v-8.2h1.1v8.2H46.3z"/>
		<path class="st1" d="M49.4,56.8v-8.2H55v1h-4.5v2.5h3.9v1h-3.9v3.7H49.4z"/>
		<path class="st1" d="M56.6,56.8v-8.2h1.1v8.2H56.6z"/>
		<path class="st1" d="M65.4,54l1.1,0.3c-0.2,0.9-0.6,1.6-1.2,2C64.7,56.8,64,57,63.1,57c-0.9,0-1.6-0.2-2.2-0.5
			c-0.6-0.4-1-0.9-1.3-1.6c-0.3-0.7-0.4-1.4-0.4-2.2c0-0.9,0.2-1.6,0.5-2.2c0.3-0.6,0.8-1.1,1.4-1.5c0.6-0.3,1.3-0.5,2-0.5
			c0.8,0,1.5,0.2,2.1,0.6c0.6,0.4,1,1,1.2,1.8l-1.1,0.3c-0.2-0.6-0.5-1-0.8-1.3c-0.4-0.3-0.8-0.4-1.4-0.4c-0.6,0-1.2,0.2-1.6,0.5
			c-0.4,0.3-0.7,0.7-0.9,1.2c-0.2,0.5-0.3,1-0.3,1.6c0,0.7,0.1,1.3,0.3,1.8c0.2,0.5,0.5,0.9,1,1.2c0.4,0.3,0.9,0.4,1.4,0.4
			c0.6,0,1.1-0.2,1.5-0.5C65,55.2,65.3,54.7,65.4,54z"/>
		<path class="st1" d="M67,56.8l3.2-8.2h1.2l3.4,8.2h-1.2l-1-2.5H69l-0.9,2.5H67z M69.3,53.5h2.8l-0.9-2.3c-0.3-0.7-0.5-1.3-0.6-1.7
			c-0.1,0.5-0.3,1.1-0.4,1.6L69.3,53.5z"/>
		<path class="st1" d="M76.8,56.8v-7.3H74v-1h6.5v1h-2.7v7.3H76.8z"/>
		<path class="st1" d="M81.9,56.8v-8.2H83v8.2H81.9z"/>
		<path class="st1" d="M84.5,52.8c0-1.4,0.4-2.4,1.1-3.2c0.7-0.8,1.7-1.2,2.8-1.2c0.8,0,1.4,0.2,2.1,0.5c0.6,0.4,1.1,0.9,1.4,1.5
			c0.3,0.6,0.5,1.4,0.5,2.2c0,0.8-0.2,1.6-0.5,2.2c-0.3,0.7-0.8,1.2-1.4,1.5c-0.6,0.3-1.3,0.5-2,0.5c-0.8,0-1.5-0.2-2.1-0.6
			c-0.6-0.4-1.1-0.9-1.4-1.5C84.7,54.2,84.5,53.6,84.5,52.8z M85.7,52.9c0,1,0.3,1.8,0.8,2.3c0.5,0.6,1.2,0.9,2,0.9
			c0.8,0,1.5-0.3,2-0.9c0.5-0.6,0.8-1.4,0.8-2.5c0-0.7-0.1-1.3-0.3-1.8c-0.2-0.5-0.6-0.9-1-1.2c-0.4-0.3-0.9-0.4-1.5-0.4
			c-0.8,0-1.4,0.3-2,0.8C85.9,50.7,85.7,51.6,85.7,52.9z"/>
		<path class="st1" d="M93.8,56.8v-8.2h1.1l4.3,6.5v-6.5h1v8.2h-1.1l-4.3-6.5v6.5H93.8z"/>
	</g>
	<g>
		<path class="st1" d="M125.3,65.6H7.1c-4.5,0-7.1-2.3-7.1-6.2V20.7c0-3.9,2.7-6.2,7.1-6.2h118.1v2.9H7.1c-2.9,0-4.3,1.1-4.3,3.3
			v38.7c0,2.3,1.4,3.3,4.3,3.3h118.1V65.6z"/>
	</g>
	<g>
		<linearGradient id="SVGID_1_" gradientUnits="userSpaceOnUse" x1="118.5834" y1="26.9528" x2="192.3694" y2="53.8086">
			<stop  offset="0" style="stop-color:#FA8521"/>
			<stop  offset="1" style="stop-color:#E84A20"/>
		</linearGradient>
		<circle class="st2" cx="155.5" cy="40.4" r="39.3"/>
		<g>
			<path class="st1" d="M155.5,80.8c-22.3,0-40.4-18.1-40.4-40.4S133.3,0,155.5,0c22.3,0,40.4,18.1,40.4,40.4S177.8,80.8,155.5,80.8
				z M155.5,2.9c-20.7,0-37.5,16.8-37.5,37.5s16.8,37.5,37.5,37.5s37.5-16.8,37.5-37.5S176.2,2.9,155.5,2.9z"/>
		</g>
		<g id="XMLID_1608_">
			<path class="st1" d="M155.5,25c6.4,0,12.8,0,19.2,0c1.6,0,1.6,0,1.6,1.7c0,9.2,0,18.3,0,27.5c0,1.6,0,1.6-1.6,1.6
				c-12.7,0-25.5,0-38.2,0c-1.6,0-1.7,0-1.7-1.6c0-9.2,0-18.3-0.1-27.5c0-1.7,0-1.7,1.7-1.7L155.5,25z M173.6,29.8
				c-0.5,0.5-0.8,0.7-1.1,1c-5,5-10.1,10-15.1,15c-1.5,1.5-2.1,1.5-3.6,0c-5-4.9-9.9-9.7-14.9-14.6c-0.3-0.3-0.7-0.6-1.2-1
				c0,0.7-0.1,1.1-0.1,1.5c0,6.6,0,13.2-0.1,19.9c0,1.2,0.4,1.5,1.6,1.5c11,0,22,0,33,0c1.2,0,1.5-0.4,1.5-1.6
				c-0.1-6.7,0-13.5,0-20.2C173.6,31,173.6,30.5,173.6,29.8z M171.4,28.3c-0.1-0.1-0.2-0.2-0.3-0.3c-10.3,0-20.5,0-31,0
				c0.3,0.4,0.4,0.5,0.6,0.7c4.7,4.7,9.4,9.4,14.1,14.1c0.6,0.6,1,0.6,1.6,0c4.5-4.5,9-8.9,13.5-13.4
				C170.4,29,170.9,28.7,171.4,28.3z"/>
		</g>
	</g>
</g>
</svg>
