<?xml version="1.0" encoding="utf-8"?>
<!-- Generator: Adobe Illustrator 22.0.1, SVG Export Plug-In . SVG Version: 6.00 Build 0)  -->
<svg version="1.1" id="Layer_1" xmlns="http://www.w3.org/2000/svg" xmlns:xlink="http://www.w3.org/1999/xlink" x="0px" y="0px"
	 width="193.2px" height="80.8px" viewBox="0 0 193.2 80.8" style="enable-background:new 0 0 193.2 80.8;" xml:space="preserve">
<style type="text/css">
	.st0{fill:#303030;}
	.st1{fill:#FFFFFF;}
	.st2{fill:url(#SVGID_1_);}
</style>
<g>
	<path class="st0" d="M121.6,64.6H3.1c-1.7,0-3.1-1.4-3.1-3.1V20c0-1.7,1.4-3.1,3.1-3.1h118.5c1.7,0,3.1,1.4,3.1,3.1v41.5
		C124.6,63.2,123.3,64.6,121.6,64.6z"/>
	<g>
		<path class="st1" d="M12.4,37.3v-8.2h1.1v3.4h4.3v-3.4h1.1v8.2h-1.1v-3.9h-4.3v3.9H12.4z"/>
		<path class="st1" d="M24.4,37.3v-0.9c-0.5,0.7-1.1,1-1.9,1c-0.4,0-0.7-0.1-1-0.2c-0.3-0.1-0.5-0.3-0.7-0.5
			c-0.1-0.2-0.3-0.5-0.3-0.7c0-0.2-0.1-0.5-0.1-0.9v-3.7h1v3.3c0,0.5,0,0.9,0.1,1.1c0.1,0.3,0.2,0.5,0.4,0.6
			c0.2,0.2,0.5,0.2,0.8,0.2c0.3,0,0.6-0.1,0.9-0.2c0.3-0.2,0.5-0.4,0.6-0.6c0.1-0.3,0.2-0.7,0.2-1.2v-3.2h1v6H24.4z"/>
		<path class="st1" d="M27.8,37.3h-0.9v-8.2h1V32c0.4-0.5,1-0.8,1.6-0.8c0.4,0,0.7,0.1,1,0.2c0.3,0.1,0.6,0.4,0.8,0.6
			c0.2,0.3,0.4,0.6,0.5,1c0.1,0.4,0.2,0.8,0.2,1.2c0,1-0.3,1.8-0.8,2.4c-0.5,0.6-1.1,0.8-1.8,0.8c-0.7,0-1.3-0.3-1.7-0.9V37.3z
			 M27.8,34.3c0,0.7,0.1,1.2,0.3,1.5c0.3,0.5,0.7,0.8,1.3,0.8c0.4,0,0.8-0.2,1.1-0.6c0.3-0.4,0.5-1,0.5-1.7c0-0.8-0.2-1.4-0.5-1.7
			c-0.3-0.4-0.7-0.6-1.1-0.6c-0.4,0-0.8,0.2-1.1,0.6C28,33,27.8,33.6,27.8,34.3z"/>
		<path class="st1" d="M33,34.7l1-0.1c0,0.4,0.2,0.7,0.3,1c0.2,0.3,0.5,0.5,0.8,0.6c0.4,0.2,0.8,0.2,1.3,0.2c0.4,0,0.8-0.1,1.1-0.2
			c0.3-0.1,0.6-0.3,0.7-0.5c0.2-0.2,0.2-0.5,0.2-0.7c0-0.3-0.1-0.5-0.2-0.7c-0.1-0.2-0.4-0.4-0.7-0.5c-0.2-0.1-0.7-0.2-1.5-0.4
			c-0.8-0.2-1.3-0.4-1.6-0.5c-0.4-0.2-0.7-0.5-0.9-0.8c-0.2-0.3-0.3-0.6-0.3-1c0-0.4,0.1-0.8,0.4-1.2c0.2-0.4,0.6-0.6,1-0.8
			c0.5-0.2,1-0.3,1.5-0.3c0.6,0,1.1,0.1,1.6,0.3c0.5,0.2,0.8,0.5,1.1,0.9s0.4,0.8,0.4,1.3l-1,0.1c-0.1-0.5-0.2-0.9-0.6-1.2
			c-0.3-0.3-0.8-0.4-1.4-0.4c-0.7,0-1.1,0.1-1.4,0.4c-0.3,0.2-0.5,0.5-0.5,0.9c0,0.3,0.1,0.5,0.3,0.7c0.2,0.2,0.8,0.4,1.6,0.6
			c0.9,0.2,1.5,0.4,1.8,0.5c0.5,0.2,0.8,0.5,1.1,0.8c0.2,0.3,0.3,0.7,0.3,1.2c0,0.4-0.1,0.9-0.4,1.2s-0.6,0.7-1.1,0.9
			c-0.5,0.2-1,0.3-1.6,0.3c-0.7,0-1.4-0.1-1.9-0.3c-0.5-0.2-0.9-0.5-1.2-1C33.2,35.7,33,35.2,33,34.7z"/>
		<path class="st1" d="M40.9,39.6v-8.2h0.9v0.8c0.2-0.3,0.5-0.5,0.7-0.7c0.3-0.2,0.6-0.2,1-0.2c0.5,0,1,0.1,1.3,0.4
			c0.4,0.3,0.7,0.6,0.9,1.1c0.2,0.5,0.3,1,0.3,1.6c0,0.6-0.1,1.2-0.3,1.6c-0.2,0.5-0.5,0.9-1,1.1c-0.4,0.3-0.9,0.4-1.3,0.4
			c-0.3,0-0.6-0.1-0.9-0.2c-0.3-0.1-0.5-0.3-0.7-0.5v2.9H40.9z M41.9,34.4c0,0.8,0.2,1.3,0.5,1.7c0.3,0.4,0.7,0.5,1.1,0.5
			c0.4,0,0.8-0.2,1.2-0.6s0.5-1,0.5-1.8c0-0.8-0.2-1.3-0.5-1.7c-0.3-0.4-0.7-0.6-1.1-0.6c-0.4,0-0.8,0.2-1.1,0.6
			C42,33,41.9,33.6,41.9,34.4z"/>
		<path class="st1" d="M47,34.3c0-1.1,0.3-1.9,0.9-2.5c0.5-0.4,1.1-0.7,1.9-0.7c0.8,0,1.5,0.3,2,0.8c0.5,0.5,0.8,1.3,0.8,2.2
			c0,0.8-0.1,1.4-0.3,1.8s-0.6,0.8-1,1c-0.4,0.2-0.9,0.4-1.4,0.4c-0.8,0-1.5-0.3-2-0.8C47.2,36.1,47,35.3,47,34.3z M48,34.3
			c0,0.8,0.2,1.3,0.5,1.7s0.8,0.6,1.3,0.6c0.5,0,0.9-0.2,1.3-0.6s0.5-1,0.5-1.7c0-0.7-0.2-1.3-0.5-1.7c-0.3-0.4-0.8-0.6-1.2-0.6
			c-0.5,0-0.9,0.2-1.3,0.6C48.2,33,48,33.6,48,34.3z"/>
		<path class="st1" d="M55.9,36.4l0.1,0.9c-0.3,0.1-0.5,0.1-0.8,0.1c-0.4,0-0.7-0.1-0.9-0.2c-0.2-0.1-0.3-0.3-0.4-0.5
			c-0.1-0.2-0.1-0.6-0.1-1.2v-3.4h-0.7v-0.8h0.7v-1.5l1-0.6v2.1h1v0.8h-1v3.5c0,0.3,0,0.5,0.1,0.6c0,0.1,0.1,0.1,0.2,0.2
			c0.1,0,0.2,0.1,0.3,0.1C55.6,36.4,55.7,36.4,55.9,36.4z"/>
		<path class="st1" d="M18.2,48.2l1.1,0.3c-0.2,0.9-0.6,1.6-1.2,2c-0.6,0.5-1.3,0.7-2.2,0.7c-0.9,0-1.6-0.2-2.2-0.5
			c-0.6-0.4-1-0.9-1.3-1.6c-0.3-0.7-0.4-1.4-0.4-2.2c0-0.9,0.2-1.6,0.5-2.2c0.3-0.6,0.8-1.1,1.4-1.5c0.6-0.3,1.3-0.5,2-0.5
			c0.8,0,1.5,0.2,2.1,0.6c0.6,0.4,1,1,1.2,1.8l-1.1,0.3c-0.2-0.6-0.5-1-0.8-1.3c-0.4-0.3-0.8-0.4-1.4-0.4c-0.6,0-1.2,0.2-1.6,0.5
			c-0.4,0.3-0.7,0.7-0.9,1.2c-0.2,0.5-0.3,1-0.3,1.6c0,0.7,0.1,1.3,0.3,1.8c0.2,0.5,0.5,0.9,1,1.2c0.4,0.3,0.9,0.4,1.4,0.4
			c0.6,0,1.1-0.2,1.5-0.5C17.8,49.4,18,48.9,18.2,48.2z"/>
		<path class="st1" d="M20.6,51.1v-8.2h5.9v1h-4.9v2.5h4.6v1h-4.6v2.8h5v1H20.6z"/>
		<path class="st1" d="M28.3,51.1v-8.2h3.6c0.7,0,1.3,0.1,1.7,0.2c0.4,0.1,0.7,0.4,0.9,0.8c0.2,0.4,0.3,0.8,0.3,1.2
			c0,0.6-0.2,1.1-0.6,1.5c-0.4,0.4-1,0.7-1.8,0.8c0.3,0.1,0.5,0.3,0.7,0.4c0.3,0.3,0.6,0.7,0.9,1.1l1.4,2.2h-1.4l-1.1-1.7
			c-0.3-0.5-0.6-0.9-0.8-1.1c-0.2-0.3-0.4-0.4-0.6-0.5c-0.2-0.1-0.3-0.2-0.5-0.2c-0.1,0-0.3,0-0.6,0h-1.3v3.7H28.3z M29.4,46.5h2.3
			c0.5,0,0.9-0.1,1.2-0.2c0.3-0.1,0.5-0.3,0.6-0.5c0.1-0.2,0.2-0.5,0.2-0.7c0-0.4-0.1-0.7-0.4-1s-0.7-0.4-1.3-0.4h-2.6V46.5z"/>
		<path class="st1" d="M38.5,51.1v-7.3h-2.7v-1h6.5v1h-2.7v7.3H38.5z"/>
		<path class="st1" d="M43.6,51.1v-8.2h1.1v8.2H43.6z"/>
		<path class="st1" d="M46.6,51.1v-8.2h5.5v1h-4.5v2.5h3.9v1h-3.9v3.7H46.6z"/>
		<path class="st1" d="M53.8,51.1v-8.2h1.1v8.2H53.8z"/>
		<path class="st1" d="M62.7,48.2l1.1,0.3c-0.2,0.9-0.6,1.6-1.2,2c-0.6,0.5-1.3,0.7-2.2,0.7c-0.9,0-1.6-0.2-2.2-0.5
			c-0.6-0.4-1-0.9-1.3-1.6c-0.3-0.7-0.4-1.4-0.4-2.2c0-0.9,0.2-1.6,0.5-2.2c0.3-0.6,0.8-1.1,1.4-1.5c0.6-0.3,1.3-0.5,2-0.5
			c0.8,0,1.5,0.2,2.1,0.6c0.6,0.4,1,1,1.2,1.8l-1.1,0.3c-0.2-0.6-0.5-1-0.8-1.3c-0.4-0.3-0.8-0.4-1.4-0.4c-0.6,0-1.2,0.2-1.6,0.5
			c-0.4,0.3-0.7,0.7-0.9,1.2c-0.2,0.5-0.3,1-0.3,1.6c0,0.7,0.1,1.3,0.3,1.8c0.2,0.5,0.5,0.9,1,1.2c0.4,0.3,0.9,0.4,1.4,0.4
			c0.6,0,1.1-0.2,1.5-0.5C62.2,49.4,62.5,48.9,62.7,48.2z"/>
		<path class="st1" d="M64.2,51.1l3.2-8.2h1.2l3.4,8.2h-1.2l-1-2.5h-3.4l-0.9,2.5H64.2z M66.6,47.7h2.8l-0.9-2.3
			c-0.3-0.7-0.5-1.3-0.6-1.7c-0.1,0.5-0.3,1.1-0.4,1.6L66.6,47.7z"/>
		<path class="st1" d="M74,51.1v-7.3h-2.7v-1h6.5v1h-2.7v7.3H74z"/>
		<path class="st1" d="M79.1,51.1v-8.2h1.1v8.2H79.1z"/>
		<path class="st1" d="M81.8,47.1c0-1.4,0.4-2.4,1.1-3.2c0.7-0.8,1.7-1.2,2.8-1.2c0.8,0,1.4,0.2,2.1,0.5c0.6,0.4,1.1,0.9,1.4,1.5
			c0.3,0.6,0.5,1.4,0.5,2.2c0,0.8-0.2,1.6-0.5,2.2c-0.3,0.7-0.8,1.2-1.4,1.5c-0.6,0.3-1.3,0.5-2,0.5c-0.8,0-1.5-0.2-2.1-0.6
			c-0.6-0.4-1.1-0.9-1.4-1.5C81.9,48.5,81.8,47.8,81.8,47.1z M82.9,47.1c0,1,0.3,1.8,0.8,2.3c0.5,0.6,1.2,0.9,2,0.9
			c0.8,0,1.5-0.3,2-0.9c0.5-0.6,0.8-1.4,0.8-2.5c0-0.7-0.1-1.3-0.3-1.8c-0.2-0.5-0.6-0.9-1-1.2c-0.4-0.3-0.9-0.4-1.5-0.4
			c-0.8,0-1.4,0.3-2,0.8C83.2,45,82.9,45.9,82.9,47.1z"/>
		<path class="st1" d="M91,51.1v-8.2h1.1l4.3,6.5v-6.5h1v8.2h-1.1l-4.3-6.5v6.5H91z"/>
	</g>
	<g>
		<linearGradient id="SVGID_1_" gradientUnits="userSpaceOnUse" x1="115.4316" y1="26.9676" x2="189.2176" y2="53.8234">
			<stop  offset="0" style="stop-color:#FA8521"/>
			<stop  offset="1" style="stop-color:#E84A20"/>
		</linearGradient>
		<circle class="st2" cx="152.3" cy="40.4" r="39.3"/>
		<g>
			<path class="st1" d="M152.8,80.8c-22.3,0-40.4-18.1-40.4-40.4S130.5,0,152.8,0s40.4,18.1,40.4,40.4S175.1,80.8,152.8,80.8z
				 M152.8,2.9c-20.7,0-37.5,16.8-37.5,37.5c0,20.7,16.8,37.5,37.5,37.5c20.7,0,37.5-16.8,37.5-37.5C190.3,19.7,173.5,2.9,152.8,2.9
				z"/>
		</g>
		<g>
			<path class="st1" d="M171.9,40c-1-1.8-2.5-3.2-4.3-4.3c-1.4-0.8-2.8-1.3-4.3-1.5v-5.6c1.6-0.7,2.6-2.2,2.6-3.9
				c0-2.4-1.9-4.3-4.2-4.3c-2.4,0-4.3,1.9-4.3,4.3c0,1.7,0.9,3.2,2.5,3.9v5.6c-1.3,0.2-2.6,0.6-3.8,1.2c-2.4-1.9-10.4-7.9-15.1-11.5
				c0.1-0.4,0.2-0.8,0.2-1.2c0-2.6-2.1-4.7-4.7-4.7c-2.6,0-4.7,2.1-4.7,4.7c0,2.6,2.1,4.7,4.7,4.7c0.9,0,1.7-0.3,2.4-0.7l1,0.7
				l13.6,9.8c-0.7,0.7-1.4,1.4-1.9,2.3c-1.1,1.7-1.7,3.6-1.7,5.7v0.4c0,1.4,0.3,2.8,0.7,4.1c0.4,1.1,1,2.1,1.8,3.1l-4.5,4.5
				c-1.3-0.5-2.8-0.2-3.8,0.8c-0.7,0.7-1.1,1.6-1.1,2.6c0,1,0.4,1.9,1.1,2.6c0.7,0.7,1.6,1.1,2.6,1.1c1,0,1.9-0.4,2.6-1.1
				c0.7-0.7,1.1-1.6,1.1-2.6c0-0.4-0.1-0.7-0.2-1.1l4.7-4.7c0.6,0.4,1.3,0.8,2.1,1.1c1.5,0.6,3.1,1,4.8,1h0.3c2,0,3.8-0.5,5.5-1.4
				c1.8-1,3.3-2.3,4.3-4.1c1.1-1.7,1.7-3.7,1.7-5.8v-0.1C173.4,43.7,172.9,41.8,171.9,40L171.9,40z M166.2,49.8
				c-1.3,1.4-2.7,2.3-4.4,2.3h-0.3c-0.9,0-1.9-0.3-2.8-0.7c-1-0.5-1.8-1.3-2.4-2.2c-0.7-0.9-1-1.9-1-3v-0.3c0-1,0.2-2,0.7-3
				c0.5-1,1.3-1.8,2.2-2.5c1-0.6,2-0.9,3.1-0.9h0.1c1,0,2,0.2,2.9,0.7c0.9,0.5,1.7,1.2,2.3,2.1c0.6,0.9,0.9,1.9,1,2.9
				c0,0.2,0,0.4,0,0.7C167.9,47.2,167.3,48.6,166.2,49.8L166.2,49.8z"/>
		</g>
	</g>
</g>
</svg>
