<?xml version="1.0" encoding="utf-8"?>
<!-- Generator: Adobe Illustrator 22.0.1, SVG Export Plug-In . SVG Version: 6.00 Build 0)  -->
<svg version="1.1" id="Layer_1" xmlns="http://www.w3.org/2000/svg" xmlns:xlink="http://www.w3.org/1999/xlink" x="0px" y="0px"
	 width="195.9px" height="80.8px" viewBox="0 0 195.9 80.8" style="enable-background:new 0 0 195.9 80.8;" xml:space="preserve">
<style type="text/css">
	.st0{fill:#303030;}
	.st1{fill:#FFFFFF;}
	.st2{fill:url(#SVGID_1_);}
</style>
<g>
	<g>
		<g>
			<path class="st0" d="M125.3,65.9H7.1c-4.5,0-7.1-2.3-7.1-6.2V21c0-3.9,2.7-6.2,7.1-6.2h118.1v2.9H7.1c-2.9,0-4.3,1.1-4.3,3.3
				v38.7c0,2.3,1.4,3.3,4.3,3.3h118.1V65.9z"/>
		</g>
		<path class="st0" d="M123.2,64.4H4.7c-1.7,0-3.1-1.4-3.1-3.1V19.8c0-1.7,1.4-3.1,3.1-3.1h118.5c1.7,0,3.1,1.4,3.1,3.1v41.5
			C126.3,63,124.9,64.4,123.2,64.4z"/>
	</g>
	<g>
		<path class="st1" d="M15.1,31.3v-7.8h1v3.2h4v-3.2h1v7.8h-1v-3.7h-4v3.7H15.1z"/>
		<path class="st1" d="M26.4,31.3v-0.8c-0.4,0.6-1,1-1.8,1c-0.3,0-0.6-0.1-0.9-0.2c-0.3-0.1-0.5-0.3-0.6-0.5
			c-0.1-0.2-0.2-0.4-0.3-0.7c0-0.2-0.1-0.5-0.1-0.9v-3.5h1v3.1c0,0.5,0,0.8,0.1,1c0.1,0.3,0.2,0.4,0.4,0.6c0.2,0.1,0.4,0.2,0.7,0.2
			c0.3,0,0.6-0.1,0.8-0.2c0.3-0.1,0.4-0.3,0.5-0.6c0.1-0.3,0.2-0.6,0.2-1.1v-3h1v5.6H26.4z"/>
		<path class="st1" d="M29.6,31.3h-0.9v-7.8h1v2.8c0.4-0.5,0.9-0.8,1.5-0.8c0.3,0,0.7,0.1,1,0.2c0.3,0.1,0.6,0.3,0.8,0.6
			c0.2,0.3,0.4,0.6,0.5,0.9c0.1,0.4,0.2,0.7,0.2,1.1c0,1-0.2,1.7-0.7,2.2c-0.5,0.5-1,0.8-1.7,0.8c-0.7,0-1.2-0.3-1.6-0.8V31.3z
			 M29.6,28.4c0,0.7,0.1,1.2,0.3,1.5c0.3,0.5,0.7,0.7,1.2,0.7c0.4,0,0.8-0.2,1.1-0.5c0.3-0.4,0.5-0.9,0.5-1.6c0-0.7-0.1-1.3-0.4-1.6
			c-0.3-0.3-0.6-0.5-1.1-0.5c-0.4,0-0.8,0.2-1.1,0.5C29.8,27.2,29.6,27.7,29.6,28.4z"/>
		<path class="st1" d="M34.6,28.8l1-0.1c0,0.4,0.2,0.7,0.3,1c0.2,0.2,0.4,0.4,0.8,0.6c0.4,0.2,0.7,0.2,1.2,0.2c0.4,0,0.7-0.1,1-0.2
			c0.3-0.1,0.5-0.3,0.7-0.5c0.1-0.2,0.2-0.4,0.2-0.7c0-0.2-0.1-0.5-0.2-0.6c-0.1-0.2-0.4-0.3-0.7-0.5c-0.2-0.1-0.7-0.2-1.4-0.4
			c-0.7-0.2-1.2-0.3-1.5-0.5c-0.4-0.2-0.6-0.4-0.8-0.7c-0.2-0.3-0.3-0.6-0.3-1c0-0.4,0.1-0.8,0.3-1.1c0.2-0.3,0.5-0.6,1-0.8
			c0.4-0.2,0.9-0.3,1.4-0.3c0.6,0,1.1,0.1,1.5,0.3c0.4,0.2,0.8,0.5,1,0.8c0.2,0.4,0.4,0.8,0.4,1.2l-1,0.1c-0.1-0.5-0.2-0.9-0.5-1.1
			c-0.3-0.3-0.8-0.4-1.4-0.4c-0.6,0-1.1,0.1-1.4,0.3c-0.3,0.2-0.4,0.5-0.4,0.8c0,0.3,0.1,0.5,0.3,0.7c0.2,0.2,0.7,0.4,1.5,0.6
			c0.8,0.2,1.4,0.4,1.7,0.5c0.5,0.2,0.8,0.5,1,0.8c0.2,0.3,0.3,0.7,0.3,1.1c0,0.4-0.1,0.8-0.4,1.2c-0.2,0.4-0.6,0.6-1,0.9
			c-0.4,0.2-0.9,0.3-1.5,0.3c-0.7,0-1.3-0.1-1.8-0.3c-0.5-0.2-0.8-0.5-1.1-0.9C34.7,29.8,34.6,29.3,34.6,28.8z"/>
		<path class="st1" d="M42,33.4v-7.8h0.9v0.7c0.2-0.3,0.4-0.5,0.7-0.6c0.3-0.1,0.6-0.2,0.9-0.2c0.5,0,0.9,0.1,1.3,0.4s0.6,0.6,0.8,1
			c0.2,0.4,0.3,0.9,0.3,1.5c0,0.6-0.1,1.1-0.3,1.6c-0.2,0.5-0.5,0.8-0.9,1.1c-0.4,0.2-0.8,0.4-1.2,0.4c-0.3,0-0.6-0.1-0.9-0.2
			c-0.3-0.1-0.5-0.3-0.6-0.5v2.7H42z M42.9,28.5c0,0.7,0.1,1.3,0.4,1.6c0.3,0.3,0.6,0.5,1.1,0.5c0.4,0,0.8-0.2,1.1-0.5
			c0.3-0.4,0.5-0.9,0.5-1.7c0-0.7-0.1-1.3-0.4-1.6c-0.3-0.4-0.6-0.5-1.1-0.5c-0.4,0-0.8,0.2-1.1,0.6C43,27.2,42.9,27.8,42.9,28.5z"
			/>
		<path class="st1" d="M47.7,28.5c0-1,0.3-1.8,0.9-2.3c0.5-0.4,1.1-0.6,1.8-0.6c0.8,0,1.4,0.3,1.9,0.8c0.5,0.5,0.7,1.2,0.7,2.1
			c0,0.7-0.1,1.3-0.3,1.7c-0.2,0.4-0.5,0.7-0.9,1c-0.4,0.2-0.9,0.3-1.4,0.3c-0.8,0-1.4-0.3-1.9-0.8C47.9,30.1,47.7,29.4,47.7,28.5z
			 M48.7,28.5c0,0.7,0.2,1.3,0.5,1.6c0.3,0.4,0.7,0.5,1.2,0.5c0.5,0,0.9-0.2,1.2-0.5c0.3-0.4,0.5-0.9,0.5-1.6c0-0.7-0.2-1.2-0.5-1.6
			c-0.3-0.4-0.7-0.5-1.2-0.5c-0.5,0-0.9,0.2-1.2,0.5C48.8,27.2,48.7,27.7,48.7,28.5z"/>
		<path class="st1" d="M56.1,30.4l0.1,0.8c-0.3,0.1-0.5,0.1-0.7,0.1c-0.3,0-0.6-0.1-0.8-0.2c-0.2-0.1-0.3-0.3-0.4-0.4
			c-0.1-0.2-0.1-0.6-0.1-1.1v-3.2h-0.7v-0.7h0.7v-1.4l0.9-0.6v2h1v0.7h-1v3.3c0,0.3,0,0.4,0.1,0.5c0,0.1,0.1,0.1,0.2,0.2
			c0.1,0,0.2,0.1,0.3,0.1C55.8,30.4,56,30.4,56.1,30.4z"/>
		<path class="st1" d="M14.2,44.3l3-7.8h1.1l3.2,7.8h-1.2l-0.9-2.3h-3.2l-0.9,2.3H14.2z M16.4,41.1h2.6l-0.8-2.1
			c-0.2-0.7-0.4-1.2-0.6-1.6c-0.1,0.5-0.2,1-0.4,1.5L16.4,41.1z"/>
		<path class="st1" d="M25.9,41.2v-0.9l3.3,0v2.9c-0.5,0.4-1,0.7-1.6,0.9c-0.5,0.2-1.1,0.3-1.6,0.3c-0.8,0-1.5-0.2-2.1-0.5
			c-0.6-0.3-1.1-0.8-1.4-1.4c-0.3-0.6-0.5-1.3-0.5-2.1c0-0.8,0.2-1.5,0.5-2.1c0.3-0.7,0.8-1.1,1.4-1.5c0.6-0.3,1.3-0.5,2-0.5
			c0.6,0,1.1,0.1,1.5,0.3c0.5,0.2,0.8,0.4,1.1,0.8c0.3,0.3,0.5,0.7,0.6,1.3l-0.9,0.3c-0.1-0.4-0.3-0.7-0.4-0.9
			c-0.2-0.2-0.4-0.4-0.7-0.5c-0.3-0.1-0.7-0.2-1.1-0.2c-0.5,0-0.9,0.1-1.2,0.2c-0.3,0.1-0.6,0.3-0.8,0.6c-0.2,0.2-0.4,0.5-0.5,0.8
			c-0.2,0.5-0.3,1-0.3,1.6c0,0.7,0.1,1.3,0.4,1.7c0.2,0.5,0.6,0.8,1,1c0.5,0.2,0.9,0.3,1.4,0.3c0.4,0,0.9-0.1,1.3-0.3
			c0.4-0.2,0.7-0.4,1-0.5v-1.4H25.9z"/>
		<path class="st1" d="M30.7,44.3v-7.8h5.6v0.9h-4.6v2.4H36v0.9h-4.3v2.6h4.8v0.9H30.7z"/>
		<path class="st1" d="M37.9,44.3v-7.8H39l4.1,6.1v-6.1h1v7.8H43l-4.1-6.1v6.1H37.9z"/>
		<path class="st1" d="M51.3,41.5l1,0.3c-0.2,0.8-0.6,1.5-1.2,1.9c-0.6,0.4-1.2,0.7-2,0.7c-0.8,0-1.5-0.2-2-0.5
			c-0.5-0.3-0.9-0.8-1.2-1.5c-0.3-0.6-0.4-1.3-0.4-2.1c0-0.8,0.2-1.5,0.5-2.1c0.3-0.6,0.7-1.1,1.3-1.4c0.6-0.3,1.2-0.5,1.9-0.5
			c0.8,0,1.4,0.2,2,0.6c0.5,0.4,0.9,1,1.1,1.7l-1,0.2c-0.2-0.6-0.4-1-0.8-1.2c-0.3-0.3-0.8-0.4-1.3-0.4c-0.6,0-1.1,0.1-1.5,0.4
			c-0.4,0.3-0.7,0.7-0.8,1.2c-0.2,0.5-0.2,1-0.2,1.5c0,0.7,0.1,1.2,0.3,1.7c0.2,0.5,0.5,0.9,0.9,1.1c0.4,0.2,0.8,0.4,1.3,0.4
			c0.6,0,1.1-0.2,1.5-0.5C50.9,42.7,51.1,42.2,51.3,41.5z"/>
		<path class="st1" d="M55.7,44.3V41l-3-4.5H54l1.5,2.3c0.3,0.4,0.5,0.9,0.8,1.3c0.2-0.4,0.5-0.9,0.8-1.4l1.5-2.3h1.2L56.8,41v3.3
			H55.7z"/>
		<path class="st1" d="M63.6,44.3v-7.8h2.9c0.5,0,0.9,0,1.2,0.1c0.4,0.1,0.7,0.2,1,0.4c0.3,0.2,0.5,0.4,0.6,0.7
			c0.2,0.3,0.2,0.7,0.2,1.1c0,0.7-0.2,1.2-0.6,1.7c-0.4,0.5-1.2,0.7-2.3,0.7h-2v3.2H63.6z M64.6,40.2h2c0.7,0,1.1-0.1,1.4-0.4
			c0.3-0.2,0.4-0.6,0.4-1c0-0.3-0.1-0.6-0.2-0.8c-0.2-0.2-0.4-0.4-0.6-0.5c-0.2,0-0.5-0.1-1-0.1h-2V40.2z"/>
		<path class="st1" d="M69.2,44.3l3-7.8h1.1l3.2,7.8h-1.2l-0.9-2.3h-3.2l-0.9,2.3H69.2z M71.4,41.1H74l-0.8-2.1
			c-0.2-0.7-0.4-1.2-0.6-1.6c-0.1,0.5-0.2,1-0.4,1.5L71.4,41.1z"/>
		<path class="st1" d="M77.2,44.3v-7.8h3.4c0.7,0,1.2,0.1,1.6,0.2c0.4,0.1,0.6,0.4,0.9,0.7c0.2,0.4,0.3,0.7,0.3,1.2
			c0,0.6-0.2,1-0.5,1.4c-0.4,0.4-0.9,0.6-1.7,0.7c0.3,0.1,0.5,0.3,0.6,0.4c0.3,0.3,0.6,0.6,0.9,1l1.3,2.1h-1.3l-1-1.6
			c-0.3-0.5-0.5-0.8-0.7-1.1c-0.2-0.2-0.4-0.4-0.5-0.5c-0.2-0.1-0.3-0.2-0.5-0.2c-0.1,0-0.3,0-0.6,0h-1.2v3.4H77.2z M78.3,39.9h2.2
			c0.5,0,0.8,0,1.1-0.1c0.3-0.1,0.5-0.3,0.6-0.5c0.1-0.2,0.2-0.4,0.2-0.7c0-0.4-0.1-0.7-0.4-0.9c-0.3-0.2-0.7-0.4-1.3-0.4h-2.5V39.9
			z"/>
		<path class="st1" d="M86.8,44.3v-6.8h-2.6v-0.9h6.1v0.9h-2.6v6.8H86.8z"/>
		<path class="st1" d="M91.5,44.3v-7.8h1.1l4.1,6.1v-6.1h1v7.8h-1.1l-4.1-6.1v6.1H91.5z"/>
		<path class="st1" d="M99.3,44.3v-7.8h5.6v0.9h-4.6v2.4h4.3v0.9h-4.3v2.6h4.8v0.9H99.3z"/>
		<path class="st1" d="M106.5,44.3v-7.8h3.4c0.7,0,1.2,0.1,1.6,0.2c0.4,0.1,0.6,0.4,0.9,0.7c0.2,0.4,0.3,0.7,0.3,1.2
			c0,0.6-0.2,1-0.5,1.4c-0.4,0.4-0.9,0.6-1.6,0.7c0.3,0.1,0.5,0.3,0.6,0.4c0.3,0.3,0.6,0.6,0.9,1l1.3,2.1h-1.3l-1-1.6
			c-0.3-0.5-0.5-0.8-0.7-1.1c-0.2-0.2-0.4-0.4-0.5-0.5c-0.2-0.1-0.3-0.2-0.5-0.2c-0.1,0-0.3,0-0.6,0h-1.2v3.4H106.5z M107.6,39.9
			h2.2c0.5,0,0.8,0,1.1-0.1c0.3-0.1,0.5-0.3,0.6-0.5c0.1-0.2,0.2-0.4,0.2-0.7c0-0.4-0.1-0.7-0.4-0.9c-0.3-0.2-0.7-0.4-1.3-0.4h-2.5
			V39.9z"/>
		<path class="st1" d="M20.6,54.5l1,0.3c-0.2,0.8-0.6,1.5-1.2,1.9c-0.6,0.4-1.2,0.7-2,0.7c-0.8,0-1.5-0.2-2-0.5
			c-0.5-0.3-0.9-0.8-1.2-1.5s-0.4-1.3-0.4-2.1c0-0.8,0.2-1.5,0.5-2.1c0.3-0.6,0.7-1.1,1.3-1.4c0.6-0.3,1.2-0.5,1.9-0.5
			c0.8,0,1.4,0.2,2,0.6c0.5,0.4,0.9,1,1.1,1.7l-1,0.2c-0.2-0.6-0.4-1-0.8-1.2s-0.8-0.4-1.3-0.4c-0.6,0-1.1,0.1-1.5,0.4
			c-0.4,0.3-0.7,0.7-0.8,1.2c-0.2,0.5-0.2,1-0.2,1.5c0,0.7,0.1,1.2,0.3,1.7c0.2,0.5,0.5,0.9,0.9,1.1c0.4,0.2,0.8,0.4,1.3,0.4
			c0.6,0,1.1-0.2,1.5-0.5C20.2,55.7,20.4,55.2,20.6,54.5z"/>
		<path class="st1" d="M22.9,57.3v-7.8h5.6v0.9h-4.6v2.4h4.3v0.9h-4.3v2.6h4.8v0.9H22.9z"/>
		<path class="st1" d="M30.1,57.3v-7.8h3.4c0.7,0,1.2,0.1,1.6,0.2c0.4,0.1,0.6,0.4,0.9,0.7c0.2,0.4,0.3,0.7,0.3,1.2
			c0,0.6-0.2,1-0.5,1.4c-0.4,0.4-0.9,0.6-1.7,0.7c0.3,0.1,0.5,0.3,0.6,0.4c0.3,0.3,0.6,0.6,0.9,1l1.3,2.1h-1.3l-1-1.6
			c-0.3-0.5-0.5-0.8-0.7-1.1c-0.2-0.2-0.4-0.4-0.5-0.5c-0.2-0.1-0.3-0.2-0.5-0.2c-0.1,0-0.3,0-0.6,0h-1.2v3.4H30.1z M31.1,52.9h2.2
			c0.5,0,0.8,0,1.1-0.1s0.5-0.3,0.6-0.5c0.1-0.2,0.2-0.4,0.2-0.7c0-0.4-0.1-0.7-0.4-0.9c-0.3-0.2-0.7-0.4-1.3-0.4h-2.5V52.9z"/>
		<path class="st1" d="M39.7,57.3v-6.8h-2.6v-0.9h6.1v0.9h-2.6v6.8H39.7z"/>
		<path class="st1" d="M44.5,57.3v-7.8h1v7.8H44.5z"/>
		<path class="st1" d="M47.4,57.3v-7.8h5.2v0.9h-4.2v2.4h3.6v0.9h-3.6v3.5H47.4z"/>
		<path class="st1" d="M54.1,57.3v-7.8h1v7.8H54.1z"/>
		<path class="st1" d="M57,57.3v-7.8h5.6v0.9H58v2.4h4.3v0.9H58v2.6h4.8v0.9H57z"/>
		<path class="st1" d="M64.2,57.3v-7.8h2.7c0.6,0,1.1,0,1.4,0.1c0.4,0.1,0.8,0.3,1.1,0.6c0.4,0.3,0.7,0.8,0.9,1.3
			c0.2,0.5,0.3,1.2,0.3,1.8c0,0.6-0.1,1.1-0.2,1.6c-0.1,0.5-0.3,0.8-0.5,1.1c-0.2,0.3-0.5,0.5-0.7,0.7c-0.3,0.2-0.6,0.3-0.9,0.4
			c-0.4,0.1-0.8,0.1-1.2,0.1H64.2z M65.2,56.3h1.7c0.5,0,0.9,0,1.2-0.1c0.3-0.1,0.5-0.2,0.7-0.4c0.2-0.2,0.4-0.6,0.6-1
			c0.1-0.4,0.2-0.9,0.2-1.5c0-0.8-0.1-1.4-0.4-1.9c-0.3-0.4-0.6-0.7-1-0.9c-0.3-0.1-0.7-0.2-1.3-0.2h-1.6V56.3z"/>
	</g>
	<g>
		<linearGradient id="SVGID_1_" gradientUnits="userSpaceOnUse" x1="118.6548" y1="26.9528" x2="192.4408" y2="53.8086">
			<stop  offset="0" style="stop-color:#FA8521"/>
			<stop  offset="1" style="stop-color:#E84A20"/>
		</linearGradient>
		<circle class="st2" cx="155.5" cy="40.4" r="39.3"/>
		<g>
			<path class="st1" d="M155.5,80.8c-22.3,0-40.4-18.1-40.4-40.4S133.3,0,155.5,0s40.4,18.1,40.4,40.4S177.8,80.8,155.5,80.8z
				 M155.5,2.9c-20.7,0-37.5,16.8-37.5,37.5s16.8,37.5,37.5,37.5s37.5-16.8,37.5-37.5S176.2,2.9,155.5,2.9z"/>
		</g>
		<g>
			<g id="XMLID_8_">
				<path class="st1" d="M173.5,45.1c-0.5,0-1,0-1.4-0.1c-0.2,0-0.4-0.1-0.5-0.2c-4.5-4-9.1-8.2-13.6-12.2c-0.2-0.2-0.3-0.2-0.5-0.1
					c-1.6,0.4-3.3,0.9-4.9,1.2c-1.7,0.4-3.4,0.2-4.9-0.8c-0.9-0.6-1.5-1.2-1.9-2.2c-0.4-0.8,0-1.6,0.9-1.9c2.9-0.9,5.7-1.9,8.5-3
					c0.9-0.4,1.8-0.5,2.8-0.5c0.2,0,0.4,0.1,0.6,0.1c3,1.1,5.9,2.2,8.8,3.3c0.1,0,0.3,0,0.4,0c2.1-0.6,4.1-1.2,6.2-1.7
					c0.2-0.1,0.4,0,0.5,0.2c0.9,1.2,1.6,2.5,2.3,3.8c1.7,3.5,3.3,7,4.7,10.6c0.1,0.2,0,0.3-0.1,0.4c-1.4,1.5-3.2,2.4-5.2,2.8
					C175.4,45,174.4,45.1,173.5,45.1C173.5,45.2,173.5,45.2,173.5,45.1z"/>
			</g>
			<g id="XMLID_7_">
				<path class="st1" d="M140.6,41.2c1.5-0.6,2.6-0.4,3.4,0.6c0.9,1.1,1,2.1,0.2,3.4c1.2-0.2,2.3,0.2,3,1.2c0.8,1.2,0.6,2.3-0.4,3.3
					c0.4,0,0.8,0,1.1,0.1c1.6,0.3,2.7,2.1,1.9,3.6c-0.1,0.2-0.3,0.4-0.4,0.6c-0.8,0.9-1.5,1.6-2.2,2.5c-1,1-2.6,1.1-3.6,0.1
					c-2-2-3.8-4.3-5.6-6.6c-1.2-1.4-2.2-2.9-3.4-4.4c-0.5-0.7-1-1.3-1-2.2c0-0.6,0.1-1.1,0.6-1.5c0.6-0.7,1.2-1.2,1.8-1.9
					c1.2-1.2,3.4-0.9,4.2,0.7C140.4,40.8,140.5,41,140.6,41.2z"/>
			</g>
			<g id="XMLID_6_">
				<path class="st1" d="M156.5,56.7c-0.1,0-0.2-0.1-0.2-0.1c-1.5-1.5-3.1-3.1-4.7-4.7c-0.3-0.3-0.4-0.6-0.3-0.9
					c0.1-0.4,0.3-0.6,0.7-0.7c0.4-0.1,0.7,0,0.9,0.3c1,1,1.9,1.9,3,3c1.1,1.1,2.1,2,3.1,3.1c0.6,0.6,1.2,0.8,2,0.6
					c1-0.2,1.6-0.8,2-1.6c0.1-0.2,0.1-0.4-0.1-0.5c-2.9-2.9-5.8-5.8-8.6-8.5c-0.3-0.3-0.4-0.6-0.4-1c0.1-0.7,0.9-1,1.4-0.6
					c0.1,0.1,0.2,0.2,0.3,0.2c3,3,5.9,5.9,8.8,8.8c0.2,0.2,0.4,0.2,0.6,0.2c1.2-0.1,2.3-1,2.5-2.2c0-0.2,0-0.3-0.2-0.4
					c-3.4-3.3-6.6-6.6-10-9.9c-0.3-0.3-0.4-0.6-0.3-1c0.1-0.3,0.3-0.6,0.6-0.7c0.3-0.1,0.7,0,0.9,0.2c0.6,0.6,1.2,1.2,1.8,1.8
					c1.9,1.9,3.9,3.9,5.9,5.9c0.8,0.8,1.4,1.4,2.2,2.2c0.2,0.2,0.3,0.2,0.5,0.1c1.6-0.3,2.6-2.1,1.9-3.6c0,0,0-0.1-0.1-0.1
					c0.8,0.1,1.6,0.1,2.4,0.2c0.1,0.4,0.1,0.9,0.1,1.3c-0.3,2.2-1.4,3.6-3.6,4.4c-0.1,0-0.2,0.1-0.2,0.2c-0.6,2-1.9,3.3-3.9,3.6
					c-0.6,0.1-0.9,0.3-1.2,0.8c-1.4,2.3-4.3,3-6.6,1.5l-0.1-0.1c-0.2,0.2-0.5,0.4-0.7,0.6c-1.9,1.4-4.5,1.2-6.2-0.5
					c-0.7-0.7-1.3-1.3-2-2c0.5-0.6,1-1.1,1.5-1.6c0.1,0.1,0.1,0.1,0.2,0.2c0.7,0.7,1.2,1.2,1.9,1.9C153.9,58.7,155.9,58,156.5,56.7z
					"/>
			</g>
			<g id="XMLID_2_">
				<path class="st1" d="M135.3,38c-0.5,0.6-1,1.1-1.4,1.6c-0.3-0.5-0.7-0.9-1-1.2c-0.8-1-1.1-2.1-1.1-3.4c-0.1-2.8,0.4-5.5,1.7-8
					c1.3-2.6,3.2-4.8,5.6-6.4c0.2-0.1,0.3-0.1,0.5-0.1c3.7,1.2,7.4,2.4,11.1,3.6c0.6,0.2,1.2,0.4,1.8,0.6c0,0,0.1,0,0.2,0.1
					c-0.9,0.3-1.7,0.6-2.6,1c-0.7,0.3-1.2,0.2-1.8,0c-2.8-1-5.6-1.8-8.4-2.8c-0.2-0.1-0.3,0-0.4,0.1c-1.5,1.2-2.8,2.8-3.7,4.6
					c-1.1,2.1-1.6,4.3-1.6,6.6c0,1.3,0.3,2.5,1.2,3.6c0.1,0.1,0.1,0.1,0.2,0.2C135.4,38,135.3,38,135.3,38z"/>
			</g>
		</g>
	</g>
</g>
</svg>
