<?xml version="1.0" encoding="utf-8"?>
<!-- Generator: Adobe Illustrator 22.0.1, SVG Export Plug-In . SVG Version: 6.00 Build 0)  -->
<svg version="1.1" id="Layer_1" xmlns="http://www.w3.org/2000/svg" xmlns:xlink="http://www.w3.org/1999/xlink" x="0px" y="0px"
	 width="195.9px" height="80.8px" viewBox="0 0 195.9 80.8" style="enable-background:new 0 0 195.9 80.8;" xml:space="preserve">
<style type="text/css">
	.st0{fill:#303030;}
	.st1{fill:#FFFFFF;}
	.st2{fill:url(#SVGID_1_);}
</style>
<g>
	<path class="st0" d="M122.9,64.2H4.5c-1.7,0-3.1-1.4-3.1-3.1V19.6c0-1.7,1.4-3.1,3.1-3.1h118.5c1.7,0,3.1,1.4,3.1,3.1v41.5
		C126,62.8,124.6,64.2,122.9,64.2z"/>
	<g>
		<path class="st1" d="M15.3,30.6v-8.2h1.1v8.2H15.3z"/>
		<path class="st1" d="M18.3,30.6v-8.2h1.1l4.3,6.5v-6.5h1v8.2h-1.1l-4.3-6.5v6.5H18.3z"/>
		<path class="st1" d="M26.5,30.6v-8.2h3.1c0.6,0,1.1,0.1,1.5,0.2c0.4,0.2,0.7,0.4,0.9,0.8c0.2,0.3,0.3,0.7,0.3,1.1
			c0,0.4-0.1,0.7-0.3,1c-0.2,0.3-0.5,0.6-0.9,0.8c0.5,0.1,0.9,0.4,1.1,0.7c0.3,0.4,0.4,0.8,0.4,1.2c0,0.4-0.1,0.7-0.2,1.1
			c-0.2,0.3-0.4,0.6-0.6,0.8c-0.2,0.2-0.5,0.3-0.9,0.4c-0.4,0.1-0.8,0.1-1.3,0.1H26.5z M27.6,25.8h1.8c0.5,0,0.8,0,1-0.1
			c0.3-0.1,0.5-0.2,0.6-0.4s0.2-0.4,0.2-0.7c0-0.3-0.1-0.5-0.2-0.7c-0.1-0.2-0.3-0.3-0.6-0.4c-0.2-0.1-0.7-0.1-1.3-0.1h-1.6V25.8z
			 M27.6,29.6h2c0.4,0,0.6,0,0.7,0c0.3,0,0.5-0.1,0.6-0.2c0.2-0.1,0.3-0.3,0.4-0.5c0.1-0.2,0.2-0.4,0.2-0.7c0-0.3-0.1-0.6-0.2-0.8
			c-0.2-0.2-0.4-0.4-0.7-0.5c-0.3-0.1-0.7-0.1-1.2-0.1h-1.9V29.6z"/>
		<path class="st1" d="M33.9,26.5c0-1.4,0.4-2.4,1.1-3.2c0.7-0.8,1.7-1.2,2.8-1.2c0.8,0,1.4,0.2,2.1,0.5c0.6,0.4,1.1,0.9,1.4,1.5
			c0.3,0.6,0.5,1.4,0.5,2.2c0,0.8-0.2,1.6-0.5,2.2c-0.3,0.7-0.8,1.2-1.4,1.5c-0.6,0.3-1.3,0.5-2,0.5c-0.8,0-1.5-0.2-2.1-0.6
			c-0.6-0.4-1.1-0.9-1.4-1.5C34.1,28,33.9,27.3,33.9,26.5z M35,26.6c0,1,0.3,1.8,0.8,2.3c0.5,0.6,1.2,0.9,2,0.9c0.8,0,1.5-0.3,2-0.9
			c0.5-0.6,0.8-1.4,0.8-2.5c0-0.7-0.1-1.3-0.3-1.8c-0.2-0.5-0.6-0.9-1-1.2c-0.4-0.3-0.9-0.4-1.5-0.4c-0.8,0-1.4,0.3-2,0.8
			C35.3,24.4,35,25.3,35,26.6z"/>
		<path class="st1" d="M48.6,22.3h1.1v4.8c0,0.8-0.1,1.5-0.3,2c-0.2,0.5-0.5,0.9-1,1.2c-0.5,0.3-1.1,0.5-1.9,0.5
			c-0.8,0-1.4-0.1-1.9-0.4c-0.5-0.3-0.8-0.6-1-1.2c-0.2-0.5-0.3-1.2-0.3-2.1v-4.8h1.1v4.7c0,0.7,0.1,1.2,0.2,1.6
			c0.1,0.3,0.4,0.6,0.7,0.8c0.3,0.2,0.7,0.3,1.2,0.3c0.8,0,1.4-0.2,1.7-0.5c0.3-0.4,0.5-1.1,0.5-2.1V22.3z"/>
		<path class="st1" d="M51.5,30.6v-8.2h1.1l4.3,6.5v-6.5h1v8.2h-1.1l-4.3-6.5v6.5H51.5z"/>
		<path class="st1" d="M59.8,30.6v-8.2h2.8c0.6,0,1.1,0,1.5,0.1c0.5,0.1,0.9,0.3,1.2,0.6c0.4,0.4,0.8,0.8,1,1.4
			c0.2,0.6,0.3,1.2,0.3,2c0,0.6-0.1,1.2-0.2,1.7c-0.1,0.5-0.3,0.9-0.6,1.2c-0.2,0.3-0.5,0.6-0.7,0.7c-0.3,0.2-0.6,0.3-1,0.4
			c-0.4,0.1-0.8,0.1-1.3,0.1H59.8z M60.9,29.6h1.8c0.5,0,1-0.1,1.3-0.2c0.3-0.1,0.6-0.2,0.7-0.4c0.3-0.3,0.5-0.6,0.6-1
			c0.1-0.4,0.2-1,0.2-1.6c0-0.9-0.1-1.5-0.4-2c-0.3-0.5-0.6-0.8-1-0.9c-0.3-0.1-0.8-0.2-1.4-0.2h-1.7V29.6z"/>
		<path class="st1" d="M15.1,44.3v-8.2h1.6l1.9,5.8c0.2,0.5,0.3,0.9,0.4,1.2c0.1-0.3,0.2-0.7,0.4-1.3l2-5.7h1.5v8.2h-1v-6.9
			l-2.4,6.9h-1l-2.4-7v7H15.1z"/>
		<path class="st1" d="M23.8,44.3l3.2-8.2h1.2l3.4,8.2h-1.2l-1-2.5h-3.4l-0.9,2.5H23.8z M26.1,41h2.8l-0.9-2.3
			c-0.3-0.7-0.5-1.3-0.6-1.7c-0.1,0.5-0.3,1.1-0.4,1.6L26.1,41z"/>
		<path class="st1" d="M32.3,44.3v-8.2H36c0.7,0,1.3,0.1,1.7,0.2c0.4,0.1,0.7,0.4,0.9,0.8c0.2,0.4,0.3,0.8,0.3,1.2
			c0,0.6-0.2,1.1-0.6,1.5c-0.4,0.4-1,0.7-1.7,0.8c0.3,0.1,0.5,0.3,0.7,0.4c0.3,0.3,0.6,0.7,0.9,1.1l1.4,2.2h-1.4l-1.1-1.7
			c-0.3-0.5-0.6-0.9-0.8-1.1c-0.2-0.3-0.4-0.4-0.6-0.5c-0.2-0.1-0.3-0.2-0.5-0.2c-0.1,0-0.3,0-0.6,0h-1.3v3.7H32.3z M33.4,39.7h2.3
			c0.5,0,0.9-0.1,1.2-0.2c0.3-0.1,0.5-0.3,0.6-0.5c0.1-0.2,0.2-0.5,0.2-0.7c0-0.4-0.1-0.7-0.4-1C37.1,37.1,36.6,37,36,37h-2.6V39.7z
			"/>
		<path class="st1" d="M40.6,44.3v-8.2h1.1v4.1l4.1-4.1h1.5l-3.4,3.3l3.6,4.9h-1.4L43,40.2l-1.3,1.3v2.8H40.6z"/>
		<path class="st1" d="M48.3,44.3v-8.2h5.9v1h-4.9v2.5h4.5v1h-4.5v2.8h5v1H48.3z"/>
		<path class="st1" d="M58,44.3v-7.3h-2.7v-1h6.5v1h-2.7v7.3H58z"/>
		<path class="st1" d="M63.1,44.3v-8.2h1.1v8.2H63.1z"/>
		<path class="st1" d="M66.1,44.3v-8.2h1.1l4.3,6.5v-6.5h1v8.2h-1.1l-4.3-6.5v6.5H66.1z"/>
		<path class="st1" d="M78.3,41.1v-1l3.5,0v3.1c-0.5,0.4-1.1,0.7-1.7,1c-0.6,0.2-1.2,0.3-1.7,0.3c-0.8,0-1.5-0.2-2.2-0.5
			c-0.7-0.3-1.2-0.8-1.5-1.5s-0.5-1.4-0.5-2.2c0-0.8,0.2-1.5,0.5-2.2c0.3-0.7,0.8-1.2,1.4-1.5c0.6-0.3,1.4-0.5,2.2-0.5
			c0.6,0,1.1,0.1,1.6,0.3c0.5,0.2,0.9,0.5,1.1,0.8c0.3,0.3,0.5,0.8,0.6,1.3l-1,0.3c-0.1-0.4-0.3-0.7-0.5-1c-0.2-0.2-0.4-0.4-0.8-0.6
			c-0.3-0.1-0.7-0.2-1.1-0.2c-0.5,0-0.9,0.1-1.3,0.2c-0.4,0.2-0.7,0.4-0.9,0.6c-0.2,0.2-0.4,0.5-0.5,0.8c-0.2,0.5-0.3,1.1-0.3,1.7
			c0,0.7,0.1,1.3,0.4,1.8c0.3,0.5,0.6,0.9,1.1,1.1c0.5,0.2,1,0.4,1.5,0.4c0.5,0,0.9-0.1,1.4-0.3c0.4-0.2,0.8-0.4,1-0.6v-1.5H78.3z"
			/>
		<path class="st1" d="M21,55.2l1.1,0.3c-0.2,0.9-0.6,1.6-1.2,2c-0.6,0.5-1.3,0.7-2.2,0.7c-0.9,0-1.6-0.2-2.2-0.5
			c-0.6-0.4-1-0.9-1.3-1.6c-0.3-0.7-0.4-1.4-0.4-2.2c0-0.9,0.2-1.6,0.5-2.2c0.3-0.6,0.8-1.1,1.4-1.5c0.6-0.3,1.3-0.5,2-0.5
			c0.8,0,1.5,0.2,2.1,0.6c0.6,0.4,1,1,1.2,1.8l-1.1,0.3c-0.2-0.6-0.5-1-0.8-1.3c-0.4-0.3-0.8-0.4-1.4-0.4c-0.6,0-1.2,0.2-1.6,0.5
			c-0.4,0.3-0.7,0.7-0.9,1.2c-0.2,0.5-0.3,1-0.3,1.6c0,0.7,0.1,1.3,0.3,1.8c0.2,0.5,0.5,0.9,1,1.2c0.4,0.3,0.9,0.4,1.4,0.4
			c0.6,0,1.1-0.2,1.5-0.5C20.5,56.5,20.8,55.9,21,55.2z"/>
		<path class="st1" d="M23.4,58.1v-8.2h5.9v1h-4.9v2.5h4.5v1h-4.5v2.8h5v1H23.4z"/>
		<path class="st1" d="M31.1,58.1v-8.2h3.6c0.7,0,1.3,0.1,1.7,0.2s0.7,0.4,0.9,0.8c0.2,0.4,0.3,0.8,0.3,1.2c0,0.6-0.2,1.1-0.6,1.5
			c-0.4,0.4-1,0.7-1.7,0.8c0.3,0.1,0.5,0.3,0.7,0.4c0.3,0.3,0.6,0.7,0.9,1.1l1.4,2.2H37l-1.1-1.7c-0.3-0.5-0.6-0.9-0.8-1.1
			c-0.2-0.3-0.4-0.4-0.6-0.5c-0.2-0.1-0.3-0.2-0.5-0.2c-0.1,0-0.3,0-0.6,0h-1.3v3.7H31.1z M32.2,53.5h2.3c0.5,0,0.9-0.1,1.2-0.2
			c0.3-0.1,0.5-0.3,0.6-0.5c0.1-0.2,0.2-0.5,0.2-0.7c0-0.4-0.1-0.7-0.4-1c-0.3-0.3-0.7-0.4-1.3-0.4h-2.6V53.5z"/>
		<path class="st1" d="M41.2,58.1v-7.3h-2.7v-1H45v1h-2.7v7.3H41.2z"/>
		<path class="st1" d="M46.3,58.1v-8.2h1.1v8.2H46.3z"/>
		<path class="st1" d="M49.4,58.1v-8.2H55v1h-4.5v2.5h3.9v1h-3.9v3.7H49.4z"/>
		<path class="st1" d="M56.6,58.1v-8.2h1.1v8.2H56.6z"/>
		<path class="st1" d="M65.4,55.2l1.1,0.3c-0.2,0.9-0.6,1.6-1.2,2c-0.6,0.5-1.3,0.7-2.2,0.7c-0.9,0-1.6-0.2-2.2-0.5
			c-0.6-0.4-1-0.9-1.3-1.6c-0.3-0.7-0.4-1.4-0.4-2.2c0-0.9,0.2-1.6,0.5-2.2c0.3-0.6,0.8-1.1,1.4-1.5c0.6-0.3,1.3-0.5,2-0.5
			c0.8,0,1.5,0.2,2.1,0.6c0.6,0.4,1,1,1.2,1.8l-1.1,0.3c-0.2-0.6-0.5-1-0.8-1.3c-0.4-0.3-0.8-0.4-1.4-0.4c-0.6,0-1.2,0.2-1.6,0.5
			c-0.4,0.3-0.7,0.7-0.9,1.2c-0.2,0.5-0.3,1-0.3,1.6c0,0.7,0.1,1.3,0.3,1.8c0.2,0.5,0.5,0.9,1,1.2c0.4,0.3,0.9,0.4,1.4,0.4
			c0.6,0,1.1-0.2,1.5-0.5C65,56.5,65.3,55.9,65.4,55.2z"/>
		<path class="st1" d="M67,58.1l3.2-8.2h1.2l3.4,8.2h-1.2l-1-2.5H69l-0.9,2.5H67z M69.3,54.7h2.8l-0.9-2.3c-0.3-0.7-0.5-1.3-0.6-1.7
			c-0.1,0.5-0.3,1.1-0.4,1.6L69.3,54.7z"/>
		<path class="st1" d="M76.8,58.1v-7.3H74v-1h6.5v1h-2.7v7.3H76.8z"/>
		<path class="st1" d="M81.9,58.1v-8.2H83v8.2H81.9z"/>
		<path class="st1" d="M84.5,54.1c0-1.4,0.4-2.4,1.1-3.2c0.7-0.8,1.7-1.2,2.8-1.2c0.8,0,1.4,0.2,2.1,0.5c0.6,0.4,1.1,0.9,1.4,1.5
			s0.5,1.4,0.5,2.2c0,0.8-0.2,1.6-0.5,2.2c-0.3,0.7-0.8,1.2-1.4,1.5c-0.6,0.3-1.3,0.5-2,0.5c-0.8,0-1.5-0.2-2.1-0.6
			c-0.6-0.4-1.1-0.9-1.4-1.5C84.7,55.5,84.5,54.8,84.5,54.1z M85.7,54.1c0,1,0.3,1.8,0.8,2.3c0.5,0.6,1.2,0.9,2,0.9
			c0.8,0,1.5-0.3,2-0.9c0.5-0.6,0.8-1.4,0.8-2.5c0-0.7-0.1-1.3-0.3-1.8c-0.2-0.5-0.6-0.9-1-1.2c-0.4-0.3-0.9-0.4-1.5-0.4
			c-0.8,0-1.4,0.3-2,0.8S85.7,52.9,85.7,54.1z"/>
		<path class="st1" d="M93.8,58.1v-8.2h1.1l4.3,6.5v-6.5h1v8.2h-1.1l-4.3-6.5v6.5H93.8z"/>
	</g>
	<g>
		<path class="st0" d="M125.3,65.6H7.1c-4.5,0-7.1-2.3-7.1-6.2V20.7c0-3.9,2.7-6.2,7.1-6.2h118.1v2.9H7.1c-2.9,0-4.3,1.1-4.3,3.3
			v38.7c0,2.3,1.4,3.3,4.3,3.3h118.1V65.6z"/>
	</g>
	<linearGradient id="SVGID_1_" gradientUnits="userSpaceOnUse" x1="119.0218" y1="26.9528" x2="192.8078" y2="53.8086">
		<stop  offset="0" style="stop-color:#FA8521"/>
		<stop  offset="1" style="stop-color:#E84A20"/>
	</linearGradient>
	<circle class="st2" cx="155.9" cy="40.4" r="39.3"/>
	<g>
		<g>
			<polygon class="st1" points="124,33.8 155.8,20.7 187.1,33.8 181.3,37.5 183.2,50.4 179.2,53 178,38.9 176.3,38.8 177.1,39.7 
				155.5,51.8 			"/>
		</g>
		<g>
			<polygon class="st1" points="136.5,42.3 155.5,53.7 174.7,42.3 174.7,51.7 155.6,62.7 136.5,51.8 			"/>
		</g>
	</g>
	<g>
		<path class="st1" d="M155.5,80.8c-22.3,0-40.4-18.1-40.4-40.4S133.3,0,155.5,0c22.3,0,40.4,18.1,40.4,40.4S177.8,80.8,155.5,80.8z
			 M155.5,2.9c-20.7,0-37.5,16.8-37.5,37.5s16.8,37.5,37.5,37.5s37.5-16.8,37.5-37.5S176.2,2.9,155.5,2.9z"/>
	</g>
</g>
</svg>
