<?xml version="1.0" encoding="utf-8"?>
<!-- Generator: Adobe Illustrator 26.0.1, SVG Export Plug-In . SVG Version: 6.00 Build 0)  -->
<!DOCTYPE svg PUBLIC "-//W3C//DTD SVG 1.1//EN" "http://www.w3.org/Graphics/SVG/1.1/DTD/svg11.dtd" [
	<!ENTITY ns_extend "http://ns.adobe.com/Extensibility/1.0/">
	<!ENTITY ns_ai "http://ns.adobe.com/AdobeIllustrator/10.0/">
	<!ENTITY ns_graphs "http://ns.adobe.com/Graphs/1.0/">
	<!ENTITY ns_vars "http://ns.adobe.com/Variables/1.0/">
	<!ENTITY ns_imrep "http://ns.adobe.com/ImageReplacement/1.0/">
	<!ENTITY ns_sfw "http://ns.adobe.com/SaveForWeb/1.0/">
	<!ENTITY ns_custom "http://ns.adobe.com/GenericCustomNamespace/1.0/">
	<!ENTITY ns_adobe_xpath "http://ns.adobe.com/XPath/1.0/">
]>
<svg version="1.1" id="Layer_1" xmlns:x="&ns_extend;" xmlns:i="&ns_ai;" xmlns:graph="&ns_graphs;"
	 xmlns="http://www.w3.org/2000/svg" xmlns:xlink="http://www.w3.org/1999/xlink" x="0px" y="0px" width="230.2px" height="230.2px"
	 viewBox="0 0 230.2 230.2" style="enable-background:new 0 0 230.2 230.2;" xml:space="preserve">
<style type="text/css">
	.st0{fill:#E2E2E2;}
	.st1{fill:url(#SVGID_1_);}
	.st2{fill:url(#SVGID_00000117657815767245935460000008698549411771528873_);}
	.st3{fill:#FCD933;stroke:#020202;stroke-width:1.5;stroke-miterlimit:10;}
	.st4{fill:none;stroke:#020202;stroke-width:1.5;stroke-linecap:round;stroke-linejoin:round;stroke-miterlimit:10;}
	.st5{fill:none;stroke:#020202;stroke-width:1.5;stroke-miterlimit:10;}
</style>
<metadata>
	<sfw  xmlns="&ns_sfw;">
		<slices></slices>
		<sliceSourceBounds  bottomLeftOrigin="true" height="230.2" width="230.2" x="844.5" y="-655.6"></sliceSourceBounds>
	</sfw>
</metadata>
<ellipse class="st0" cx="115.1" cy="115.1" rx="115.1" ry="115.1"/>
<g>
	
		<linearGradient id="SVGID_1_" gradientUnits="userSpaceOnUse" x1="3790.3945" y1="-3116.6301" x2="3790.3945" y2="-3315.6299" gradientTransform="matrix(0 -1 1 0 3331.23 3905.4944)">
		<stop  offset="0" style="stop-color:#FFFFFF"/>
		<stop  offset="1" style="stop-color:#E1E2E2"/>
	</linearGradient>
	<circle class="st1" cx="115.1" cy="115.1" r="99.5"/>
</g>
<linearGradient id="SVGID_00000071546822010817884130000003847164120799431849_" gradientUnits="userSpaceOnUse" x1="3790.3945" y1="-3310.9299" x2="3790.3945" y2="-3121.3301" gradientTransform="matrix(0 -1 1 0 3331.23 3905.4944)">
	<stop  offset="0" style="stop-color:#FFFFFF"/>
	<stop  offset="1" style="stop-color:#E1E2E2"/>
</linearGradient>
<circle style="fill:url(#SVGID_00000071546822010817884130000003847164120799431849_);" cx="115.1" cy="115.1" r="94.8"/>
<g>
	<path class="st3" d="M72.1,128.3V114c0-7.7,6.3-14,14-14h13.5c7.7,0,14,6.3,14,14v14.3"/>
	<path class="st4" d="M126.3,128.2H67.5c-4,0-7.2-3.2-7.2-7.2V70c0-4,3.2-7.2,7.2-7.2h84.2c4,0,7.2,3.2,7.2,7.2v32.3"/>
	<ellipse class="st5" cx="92.8" cy="83.9" rx="8.3" ry="9.5"/>
	<polyline class="st4" points="116,75.5 119.3,79.3 124.3,72.7 	"/>
	<line class="st4" x1="130.9" y1="75.2" x2="147.3" y2="75.2"/>
	<polyline class="st4" points="116,90.5 119.3,94.2 124.3,87.6 	"/>
	<line class="st4" x1="130.9" y1="90.1" x2="136.7" y2="90.1"/>
	<ellipse class="st5" cx="149.2" cy="102.9" rx="9.7" ry="11.2"/>
	<line class="st4" x1="66.5" y1="153.9" x2="114.9" y2="153.9"/>
	<path class="st4" d="M136.7,146.4c-5,7.5-20.7,7.5-20.7,7.5s-5,0-5-4.1s3.8-4.6,3.8-4.6s11.9,2.1,16.9-11.2
		c5-13.3,14.1-13.3,14.1-13.3h9.5c0,0,14.5,0,16.1,17.4v20.3c0,0,0.4,13.2-12.6,13.2s-44,0-44,0s1.2-10.2,9.4-10.2
		c8.3,0,11.6,0,11.6,0"/>
	<path class="st4" d="M128.2,171.2c0,0,8.5-3.2,8.5-12.3s0-12.7,0-12.7s-1.1-11.5,11.5-11.5c12.5,0,16.1,0,16.1,0s7.1,0,7.1,7.1"/>
</g>
</svg>
