<?xml version="1.0" encoding="utf-8"?>
<!-- Generator: Adobe Illustrator 26.0.1, SVG Export Plug-In . SVG Version: 6.00 Build 0)  -->
<!DOCTYPE svg PUBLIC "-//W3C//DTD SVG 1.1//EN" "http://www.w3.org/Graphics/SVG/1.1/DTD/svg11.dtd" [
	<!ENTITY ns_extend "http://ns.adobe.com/Extensibility/1.0/">
	<!ENTITY ns_ai "http://ns.adobe.com/AdobeIllustrator/10.0/">
	<!ENTITY ns_graphs "http://ns.adobe.com/Graphs/1.0/">
	<!ENTITY ns_vars "http://ns.adobe.com/Variables/1.0/">
	<!ENTITY ns_imrep "http://ns.adobe.com/ImageReplacement/1.0/">
	<!ENTITY ns_sfw "http://ns.adobe.com/SaveForWeb/1.0/">
	<!ENTITY ns_custom "http://ns.adobe.com/GenericCustomNamespace/1.0/">
	<!ENTITY ns_adobe_xpath "http://ns.adobe.com/XPath/1.0/">
]>
<svg version="1.1" id="Layer_1" xmlns:x="&ns_extend;" xmlns:i="&ns_ai;" xmlns:graph="&ns_graphs;"
	 xmlns="http://www.w3.org/2000/svg" xmlns:xlink="http://www.w3.org/1999/xlink" x="0px" y="0px" width="230.2px" height="230.2px"
	 viewBox="0 0 230.2 230.2" style="enable-background:new 0 0 230.2 230.2;" xml:space="preserve">
<style type="text/css">
	.st0{fill:#9B9B9B;}
	.st1{fill:url(#SVGID_1_);}
	.st2{fill:url(#SVGID_00000114047678348585480280000002850751586000062878_);}
	.st3{fill:none;stroke:#020202;stroke-width:1.5;stroke-linecap:round;stroke-linejoin:round;stroke-miterlimit:10;}
	.st4{fill:#FCD933;stroke:#020202;stroke-width:1.5;stroke-linecap:round;stroke-linejoin:round;stroke-miterlimit:10;}
</style>
<metadata>
	<sfw  xmlns="&ns_sfw;">
		<slices></slices>
		<sliceSourceBounds  bottomLeftOrigin="true" height="230.2" width="230.2" x="844.5" y="-655.6"></sliceSourceBounds>
	</sfw>
</metadata>
<g>
	<g>
		<circle class="st0" cx="115.1" cy="115.1" r="115.1"/>
		<g>
			<g>
				
					<linearGradient id="SVGID_1_" gradientUnits="userSpaceOnUse" x1="3790.3945" y1="-3116.6301" x2="3790.3945" y2="-3315.6299" gradientTransform="matrix(0 -1 1 0 3331.23 3905.4944)">
					<stop  offset="0" style="stop-color:#FFFFFF"/>
					<stop  offset="1" style="stop-color:#E1E2E2"/>
				</linearGradient>
				<circle class="st1" cx="115.1" cy="115.1" r="99.5"/>
			</g>
		</g>
		
			<linearGradient id="SVGID_00000119081084203065347890000009474758501105451688_" gradientUnits="userSpaceOnUse" x1="3790.3945" y1="-3310.9299" x2="3790.3945" y2="-3121.3301" gradientTransform="matrix(0 -1 1 0 3331.23 3905.4944)">
			<stop  offset="0" style="stop-color:#FFFFFF"/>
			<stop  offset="1" style="stop-color:#E1E2E2"/>
		</linearGradient>
		<circle style="fill:url(#SVGID_00000119081084203065347890000009474758501105451688_);" cx="115.1" cy="115.1" r="94.8"/>
	</g>
	<g>
		<g>
			<path class="st3" d="M76.7,107.1V94.7c0-6.6,5.8-12,12.8-12h12.4c7.1,0,12.8,5.4,12.8,12"/>
			<line class="st3" x1="70.7" y1="107.3" x2="105.8" y2="107.3"/>
			<ellipse class="st3" cx="95.8" cy="68" rx="7.6" ry="8.6"/>
			<path class="st3" d="M85.6,107l-1.3-11.9c-0.2-1.3,0.9-2.5,2.2-2.5h18.2c1.3,0,2.4,1.2,2.2,2.5l-1.4,12.2"/>
		</g>
		<polygon class="st4" points="115.5,135.1 111,144.5 99.8,146.8 107.2,154.2 105.8,164.7 115.5,159.4 124.9,164.7 123.7,154.2 
			131.1,146.8 120.7,144.5 		"/>
		<polyline class="st4" points="97.9,149.6 93.3,148.6 89.3,141.4 85.9,148.6 77.4,150.3 83.1,156 81.9,163.9 89.3,160 96.5,163.9 
			95.6,156 99.3,152.2 		"/>
		<polyline class="st4" points="72.5,149.6 67.9,148.6 63.9,141.4 60.5,148.6 52,150.3 57.7,156 56.5,163.9 63.9,160 71.1,163.9 
			70.2,156 73.9,152.2 		"/>
		<polyline class="st4" points="133.3,149.6 137.9,148.6 141.9,141.4 145.3,148.6 153.9,150.3 148.2,156 149.3,163.9 141.9,160 
			134.7,163.9 135.7,156 131.9,152.2 		"/>
		<polyline class="st4" points="158.7,149.6 163.3,148.6 167.3,141.4 170.7,148.6 179.3,150.3 173.6,156 174.7,163.9 167.3,160 
			160.1,163.9 161.1,156 157.3,152.2 		"/>
		<path class="st3" d="M105.1,127.6"/>
		<g>
			<path class="st3" d="M105.1,127.8v-15c0-8,7-14.6,15.6-14.6h15.1c8.6,0,15.6,6.6,15.6,14.6v15"/>
			<line class="st3" x1="97.8" y1="128" x2="158.8" y2="128"/>
			<ellipse class="st3" cx="128.4" cy="80.3" rx="9.2" ry="10.5"/>
			<path class="st3" d="M115.9,127.6l-1.6-14.4c-0.2-1.6,1.1-3,2.7-3h22.1c1.6,0,2.9,1.4,2.7,3l-1.7,14.8"/>
		</g>
	</g>
</g>
</svg>
