<?xml version="1.0" encoding="utf-8"?>
<!-- Generator: Adobe Illustrator 26.0.1, SVG Export Plug-In . SVG Version: 6.00 Build 0)  -->
<!DOCTYPE svg PUBLIC "-//W3C//DTD SVG 1.1//EN" "http://www.w3.org/Graphics/SVG/1.1/DTD/svg11.dtd" [
	<!ENTITY ns_extend "http://ns.adobe.com/Extensibility/1.0/">
	<!ENTITY ns_ai "http://ns.adobe.com/AdobeIllustrator/10.0/">
	<!ENTITY ns_graphs "http://ns.adobe.com/Graphs/1.0/">
	<!ENTITY ns_vars "http://ns.adobe.com/Variables/1.0/">
	<!ENTITY ns_imrep "http://ns.adobe.com/ImageReplacement/1.0/">
	<!ENTITY ns_sfw "http://ns.adobe.com/SaveForWeb/1.0/">
	<!ENTITY ns_custom "http://ns.adobe.com/GenericCustomNamespace/1.0/">
	<!ENTITY ns_adobe_xpath "http://ns.adobe.com/XPath/1.0/">
]>
<svg version="1.1" id="Layer_1" xmlns:x="&ns_extend;" xmlns:i="&ns_ai;" xmlns:graph="&ns_graphs;"
	 xmlns="http://www.w3.org/2000/svg" xmlns:xlink="http://www.w3.org/1999/xlink" x="0px" y="0px" width="230.2px" height="230.2px"
	 viewBox="0 0 230.2 230.2" style="enable-background:new 0 0 230.2 230.2;" xml:space="preserve">
<style type="text/css">
	.st0{fill:#797979;}
	.st1{fill:url(#SVGID_1_);}
	.st2{fill:url(#SVGID_00000039112192340675261540000009811898603832499096_);}
	.st3{fill:none;stroke:#020202;stroke-width:1.5;stroke-linecap:round;stroke-linejoin:round;stroke-miterlimit:10;}
	.st4{fill:#FCD933;stroke:#020202;stroke-width:1.5;stroke-linecap:round;stroke-linejoin:round;stroke-miterlimit:10;}
	.st5{fill:none;stroke:#010101;stroke-width:1.5;stroke-linecap:round;stroke-linejoin:round;stroke-miterlimit:10;}
</style>
<metadata>
	<sfw  xmlns="&ns_sfw;">
		<slices></slices>
		<sliceSourceBounds  bottomLeftOrigin="true" height="230.2" width="230.2" x="844.5" y="-655.6"></sliceSourceBounds>
	</sfw>
</metadata>
<g>
	<g>
		
			<ellipse transform="matrix(0.7071 -0.7071 0.7071 0.7071 -47.676 115.1)" class="st0" cx="115.1" cy="115.1" rx="115.1" ry="115.1"/>
		<g>
			<g>
				
					<linearGradient id="SVGID_1_" gradientUnits="userSpaceOnUse" x1="3790.3687" y1="-3116.6167" x2="3790.3687" y2="-3315.6167" gradientTransform="matrix(0 -1 1 0 3331.23 3905.4944)">
					<stop  offset="0" style="stop-color:#FFFFFF"/>
					<stop  offset="1" style="stop-color:#E1E2E2"/>
				</linearGradient>
				<circle class="st1" cx="115.1" cy="115.1" r="99.5"/>
			</g>
		</g>
		
			<linearGradient id="SVGID_00000051373144209562113190000002611763673592426139_" gradientUnits="userSpaceOnUse" x1="3790.3687" y1="-3310.9167" x2="3790.3687" y2="-3121.3167" gradientTransform="matrix(0 -1 1 0 3331.23 3905.4944)">
			<stop  offset="0" style="stop-color:#FFFFFF"/>
			<stop  offset="1" style="stop-color:#E1E2E2"/>
		</linearGradient>
		<circle style="fill:url(#SVGID_00000051373144209562113190000002611763673592426139_);" cx="115.1" cy="115.1" r="94.8"/>
	</g>
	<g>
		<g>
			<path class="st3" d="M95.7,140.8c0-7.4-6.4-13.4-14.3-13.4H67.6c-7.8,0-14.3,6-14.3,13.4v13.7h36.6"/>
			<ellipse class="st3" cx="74.7" cy="110.9" rx="8.4" ry="9.6"/>
		</g>
		<g>
			<path class="st3" d="M135.5,140.8c0-7.4,6.4-13.4,14.3-13.4h13.8c7.8,0,14.3,6,14.3,13.4v13.7h-36.5"/>
			<ellipse class="st3" cx="156.6" cy="110.9" rx="8.4" ry="9.6"/>
		</g>
		<g>
			<path class="st4" d="M141.4,170v-16.7c0-8.9-7.8-16.2-17.3-16.2h-16.7c-9.5,0-17.3,7.3-17.3,16.2V170H141.4z"/>
			<ellipse class="st3" cx="115.9" cy="117.1" rx="10.2" ry="11.6"/>
		</g>
		<path class="st5" d="M72.7,97.5l1.3-7.3l12.3,3.7c0,0,1.4-6.6,6.6-11.8l-9.8-8.5c0,0,10.8-11.6,22.4-13.3l2.5,12.5
			c0,0,6.6-1.7,14.1,0l2.7-12.5c0,0,14.8,3.3,22.3,13.3l-9.3,8.5c0,0,5,6.2,6.7,12.2l12.5-4c0,0,1.2,4.7,1.4,7.3"/>
		<path class="st5" d="M100.3,113.4c-1.9-2.9-3-6.3-3-10c0-10.1,8.2-18.2,18.2-18.2c10.1,0,18.2,8.2,18.2,18.2
			c0,3.4-0.9,6.6-2.6,9.4"/>
	</g>
</g>
</svg>
