<?xml version="1.0" encoding="utf-8"?>
<!-- Generator: Adobe Illustrator 26.0.1, SVG Export Plug-In . SVG Version: 6.00 Build 0)  -->
<!DOCTYPE svg PUBLIC "-//W3C//DTD SVG 1.1//EN" "http://www.w3.org/Graphics/SVG/1.1/DTD/svg11.dtd" [
	<!ENTITY ns_extend "http://ns.adobe.com/Extensibility/1.0/">
	<!ENTITY ns_ai "http://ns.adobe.com/AdobeIllustrator/10.0/">
	<!ENTITY ns_graphs "http://ns.adobe.com/Graphs/1.0/">
	<!ENTITY ns_vars "http://ns.adobe.com/Variables/1.0/">
	<!ENTITY ns_imrep "http://ns.adobe.com/ImageReplacement/1.0/">
	<!ENTITY ns_sfw "http://ns.adobe.com/SaveForWeb/1.0/">
	<!ENTITY ns_custom "http://ns.adobe.com/GenericCustomNamespace/1.0/">
	<!ENTITY ns_adobe_xpath "http://ns.adobe.com/XPath/1.0/">
]>
<svg version="1.1" id="Layer_1" xmlns:x="&ns_extend;" xmlns:i="&ns_ai;" xmlns:graph="&ns_graphs;"
	 xmlns="http://www.w3.org/2000/svg" xmlns:xlink="http://www.w3.org/1999/xlink" x="0px" y="0px" width="230.2px" height="230.2px"
	 viewBox="0 0 230.2 230.2" style="enable-background:new 0 0 230.2 230.2;" xml:space="preserve">
<style type="text/css">
	.st0{fill:#3B3C3B;}
	.st1{fill:url(#SVGID_1_);}
	.st2{fill:url(#SVGID_00000095333748175764715060000005425389091007734683_);}
	.st3{fill:#FCD933;stroke:#020202;stroke-width:1.5;stroke-linecap:round;stroke-linejoin:round;stroke-miterlimit:10;}
	.st4{fill:none;stroke:#020202;stroke-width:1.5;stroke-linecap:round;stroke-linejoin:round;stroke-miterlimit:10;}
</style>
<metadata>
	<sfw  xmlns="&ns_sfw;">
		<slices></slices>
		<sliceSourceBounds  bottomLeftOrigin="true" height="230.2" width="230.2" x="844.5" y="-655.6"></sliceSourceBounds>
	</sfw>
</metadata>
<g>
	<g>
		<circle class="st0" cx="115.1" cy="115.1" r="115.1"/>
		<g>
			<g>
				
					<linearGradient id="SVGID_1_" gradientUnits="userSpaceOnUse" x1="3790.3945" y1="-3116.6299" x2="3790.3945" y2="-3315.6299" gradientTransform="matrix(0 -1 1 0 3331.23 3905.4944)">
					<stop  offset="0" style="stop-color:#FFFFFF"/>
					<stop  offset="1" style="stop-color:#E1E2E2"/>
				</linearGradient>
				<circle class="st1" cx="115.1" cy="115.1" r="99.5"/>
			</g>
		</g>
		
			<linearGradient id="SVGID_00000048470336646210352960000004011187384197838979_" gradientUnits="userSpaceOnUse" x1="3790.3943" y1="-3310.9299" x2="3790.3943" y2="-3121.3301" gradientTransform="matrix(0 -1 1 0 3331.23 3905.4944)">
			<stop  offset="0" style="stop-color:#FFFFFF"/>
			<stop  offset="1" style="stop-color:#E1E2E2"/>
		</linearGradient>
		<circle style="fill:url(#SVGID_00000048470336646210352960000004011187384197838979_);" cx="115.1" cy="115.1" r="94.8"/>
	</g>
	<g>
		<path class="st3" d="M58.6,159.1v-20.5c0,0-0.3-21.7,20.8-21.7s17.7,0,17.7,0s14.3-0.3,20.5,14.4l4.6,17h11.6
			c0,0,8.4-0.9,6.9,10.8"/>
		<path class="st4" d="M148.1,148.4h16.1l14.7-33.7c0,0,2.2-3.5-4.8-3.5s-45.7,0-45.7,0s-3.9-0.8-5.4,4.6l-5.4,15.5"/>
		<path class="st4" d="M77.3,97.8c0,0-7,2.2-7-5.1c0-8.5,7-5.8,7-5.8S73.4,71,88.9,71c14.7,0,14.7,6.2,14.7,15.8c0,0,7-2.2,7,5.1
			c0,8.5-7,5.8-7,5.8L92,96.6"/>
		<line class="st4" x1="51.1" y1="159.1" x2="167.9" y2="159.1"/>
		<ellipse class="st4" cx="90.4" cy="90.7" rx="13.2" ry="15.9"/>
		<line class="st4" x1="104.4" y1="144.5" x2="107.8" y2="159.1"/>
	</g>
</g>
</svg>
