<?xml version="1.0" encoding="utf-8"?>
<!-- Generator: Adobe Illustrator 26.0.1, SVG Export Plug-In . SVG Version: 6.00 Build 0)  -->
<!DOCTYPE svg PUBLIC "-//W3C//DTD SVG 1.1//EN" "http://www.w3.org/Graphics/SVG/1.1/DTD/svg11.dtd" [
	<!ENTITY ns_extend "http://ns.adobe.com/Extensibility/1.0/">
	<!ENTITY ns_ai "http://ns.adobe.com/AdobeIllustrator/10.0/">
	<!ENTITY ns_graphs "http://ns.adobe.com/Graphs/1.0/">
	<!ENTITY ns_vars "http://ns.adobe.com/Variables/1.0/">
	<!ENTITY ns_imrep "http://ns.adobe.com/ImageReplacement/1.0/">
	<!ENTITY ns_sfw "http://ns.adobe.com/SaveForWeb/1.0/">
	<!ENTITY ns_custom "http://ns.adobe.com/GenericCustomNamespace/1.0/">
	<!ENTITY ns_adobe_xpath "http://ns.adobe.com/XPath/1.0/">
]>
<svg version="1.1" id="Layer_1" xmlns:x="&ns_extend;" xmlns:i="&ns_ai;" xmlns:graph="&ns_graphs;"
	 xmlns="http://www.w3.org/2000/svg" xmlns:xlink="http://www.w3.org/1999/xlink" x="0px" y="0px" width="186.3px" height="233.3px"
	 viewBox="0 0 186.3 233.3" style="enable-background:new 0 0 186.3 233.3;" xml:space="preserve">
<style type="text/css">
	.st0{fill:#020202;}
	.st1{fill:none;stroke:#FDD732;stroke-width:0.1843;stroke-miterlimit:10;}
	
		.st2{clip-path:url(#SVGID_00000122711007479252572430000008707220603962016909_);fill:url(#SVGID_00000101819809369017818460000017078779971707019907_);}
	.st3{fill:#FDD732;}
	.st4{fill:none;stroke:#D7D6D5;stroke-width:0.1383;stroke-miterlimit:10;}
	
		.st5{clip-path:url(#SVGID_00000070097624041167790620000006569366908425614525_);fill:url(#SVGID_00000168102814806263984340000015046784782001283206_);}
	.st6{fill:url(#SVGID_00000018919895763204106230000011879010610316877965_);}
	.st7{fill:#121212;}
	.st8{fill:#333333;}
</style>
<metadata>
	<sfw  xmlns="&ns_sfw;">
		<slices></slices>
		<sliceSourceBounds  bottomLeftOrigin="true" height="233.3" width="186.4" x="0" y="0"></sliceSourceBounds>
	</sfw>
</metadata>
<g>
	<polygon class="st0" points="36.2,221.1 52.7,157.7 99.5,169.9 83,233.3 64.1,210.1 	"/>
	<polygon class="st0" points="149.3,219.8 132.8,156.4 86,168.6 102.4,232 121.4,208.7 	"/>
	<polygon class="st1" points="42.6,213.5 42.6,213.5 56.1,161.8 94.3,171.7 80.8,223.4 65.3,204.5 42.6,213.5 42.6,213.5 
		42.6,213.5 65.3,204.5 80.8,223.4 94.3,171.7 56.1,161.8 	"/>
	<polygon class="st1" points="142.7,212.6 129.4,161.2 91.3,171.1 104.7,222.5 120.1,203.7 	"/>
	<g>
		<g>
			<g>
				<g>
					<defs>
						<path id="SVGID_1_" d="M6.1,119.8c-1.5-4.8-2.6-9.8-3.2-15c-0.5-3.7-0.7-7.4-0.7-11.2c0-3.8,0.2-7.5,0.6-11.2h180.8
							c0.4,3.5,0.6,7,0.6,10.6c0,3.7-0.2,7.4-0.6,11.1c-0.5,4.1-1.2,8.1-2.2,12c-0.4,1.6-0.9,3.2-1.4,4.8H6.4
							C6.3,120.4,6.2,120.1,6.1,119.8 M3.6,67.6c-1.4,4.9-2.4,9.8-3,14.7C0.3,85.2,0,88.1,0,91c0,1.5,0,3,0,4.5
							c0.2,8.6,1.6,17.1,4.1,25.2c9,29,32,53.1,63.4,62c48.8,14,99.7-13.8,114.6-62c0.2-0.6,0.4-1.3,0.6-1.9
							c2-7.1,3.2-14.2,3.5-21.3c0.1-2.9,0.1-5.8,0-8.7c-0.1-2.2-0.3-4.3-0.5-6.5c-4.3-36.2-29.7-68-66.9-78.7
							C110.2,1.2,101.6,0,93.1,0C52.6,0.1,15.3,26.7,3.6,67.6"/>
					</defs>
					<clipPath id="SVGID_00000022530380243669377210000010559337743158835096_">
						<use xlink:href="#SVGID_1_"  style="overflow:visible;"/>
					</clipPath>
					
						<linearGradient id="SVGID_00000135671193729644991770000002408881673824145285_" gradientUnits="userSpaceOnUse" x1="-3438.676" y1="-1741.4087" x2="-3437.7998" y2="-1741.4087" gradientTransform="matrix(212.7517 0 0 212.7517 731584.125 370586.0938)">
						<stop  offset="0" style="stop-color:#121212"/>
						<stop  offset="1" style="stop-color:#333333"/>
					</linearGradient>
					
						<rect y="0.1" style="clip-path:url(#SVGID_00000022530380243669377210000010559337743158835096_);fill:url(#SVGID_00000135671193729644991770000002408881673824145285_);" width="186.4" height="196.7"/>
				</g>
			</g>
		</g>
	</g>
	<path class="st3" d="M6.4,120.7H180c0,0.1,0,0.1,0,0.2l0,0c-1,3-2.1,6-3.4,8.9c-2.8,6.3-6.2,12.2-10.2,17.6
		c-3.4,4.6-7.3,8.9-11.5,12.8c-16.1,14.9-37.7,24-61.4,24.1s-45.3-8.9-61.6-23.7c-4.2-3.8-8-8-11.4-12.5
		C14.3,139.9,9.5,130.7,6.4,120.7"/>
	<path class="st3" d="M183.6,82.3H2.8c5.4-45,43.6-80,90.1-80.2C139.6,2,178.2,37,183.6,82.3"/>
	<g>
		<path class="st0" d="M39,66v-3.7h1.2V66c0,1.4,0.6,1.9,1.7,1.9s1.7-0.6,1.7-1.9v-3.7h1.2V66c0,1.9-1.1,3-2.9,3S39,67.9,39,66z"/>
		<path class="st0" d="M51.7,66.4c0,1.6-1.1,2.6-2.6,2.6c-0.6,0-1.2-0.2-1.6-0.7v2.4h-1.2v-6.9h1.1v0.7c0.4-0.5,1-0.7,1.7-0.7
			C50.7,63.8,51.7,64.8,51.7,66.4z M50.5,66.4c0-1-0.6-1.6-1.5-1.6c-0.8,0-1.5,0.6-1.5,1.6S48.2,68,49,68
			C49.9,67.9,50.5,67.3,50.5,66.4z"/>
		<path class="st0" d="M52.9,61.9h1.2v7h-1.2V61.9z"/>
		<path class="st0" d="M60.3,66.7h-3.9c0.1,0.7,0.8,1.2,1.6,1.2c0.6,0,1-0.2,1.4-0.5l0.6,0.7c-0.5,0.5-1.2,0.8-2,0.8
			c-1.7,0-2.8-1.1-2.8-2.6s1.1-2.6,2.6-2.6s2.5,1,2.5,2.6C60.3,66.5,60.3,66.6,60.3,66.7z M56.3,66h2.9c-0.1-0.7-0.6-1.2-1.4-1.2
			C57,64.7,56.4,65.2,56.3,66z"/>
		<path class="st0" d="M64.3,63.8v1.1c-0.1,0-0.2,0-0.3,0c-0.9,0-1.5,0.5-1.5,1.6v2.4h-1.2v-5h1.1v0.7
			C62.9,64.1,63.5,63.8,64.3,63.8z"/>
		<path class="st0" d="M64.8,68.4l0.5-0.9c0.4,0.3,1.1,0.5,1.8,0.5c0.7,0,1.1-0.2,1.1-0.6c0-1-3.1-0.1-3.1-2.1c0-1,0.9-1.6,2.2-1.6
			c0.7,0,1.4,0.2,1.9,0.4L68.7,65c-0.5-0.3-1-0.4-1.4-0.4c-0.7,0-1.1,0.2-1.1,0.6c0,1,3.1,0.1,3.1,2.1c0,0.9-0.9,1.6-2.3,1.6
			C66.1,68.9,65.2,68.7,64.8,68.4z"/>
		<path class="st0" d="M72.4,65.6c0-2,1.5-3.4,3.5-3.4c1.1,0,2,0.4,2.6,1.1L77.7,64c-0.5-0.5-1.1-0.8-1.8-0.8c-1.4,0-2.4,1-2.4,2.3
			s1,2.3,2.4,2.3c0.7,0,1.3-0.3,1.8-0.8l0.8,0.8c-0.6,0.7-1.5,1.1-2.6,1.1C73.9,69,72.4,67.5,72.4,65.6z"/>
		<path class="st0" d="M84.2,66.7h-3.9c0.1,0.7,0.8,1.2,1.6,1.2c0.6,0,1-0.2,1.4-0.5l0.6,0.7c-0.5,0.5-1.2,0.8-2,0.8
			c-1.7,0-2.8-1.1-2.8-2.6s1.1-2.6,2.6-2.6s2.5,1,2.5,2.6C84.2,66.5,84.2,66.6,84.2,66.7z M80.2,66h2.9c-0.1-0.7-0.6-1.2-1.4-1.2
			C80.9,64.7,80.3,65.2,80.2,66z"/>
		<path class="st0" d="M88.2,63.8v1.1c-0.1,0-0.2,0-0.3,0c-0.9,0-1.5,0.5-1.5,1.6v2.4h-1.2v-5h1.1v0.7
			C86.8,64.1,87.4,63.8,88.2,63.8z"/>
		<path class="st0" d="M92.4,68.6c-0.3,0.2-0.7,0.3-1.1,0.3c-1.1,0-1.7-0.6-1.7-1.7v-2.4h-0.9v-0.9h0.8v-1.1h1.2v1.1H92v0.9h-1.3
			v2.4c0,0.5,0.2,0.8,0.7,0.8c0.2,0,0.5-0.1,0.7-0.2L92.4,68.6z"/>
		<path class="st0" d="M93.2,62.3c0-0.4,0.3-0.7,0.8-0.7c0.4,0,0.8,0.3,0.8,0.7S94.5,63,94,63S93.2,62.7,93.2,62.3z M93.4,63.8h1.2
			v5h-1.2V63.8z"/>
		<path class="st0" d="M98.1,61.8c0.4,0,0.8,0.1,1.1,0.3L98.9,63c-0.2-0.1-0.4-0.2-0.6-0.2c-0.5,0-0.7,0.3-0.7,0.8v0.3H99v0.9h-1.3
			v4h-1.2v-4h-0.8v-0.9h0.8v-0.3C96.3,62.5,96.9,61.8,98.1,61.8z M100.2,62.3c0-0.4,0.3-0.7,0.8-0.7c0.4,0,0.8,0.3,0.8,0.7
			S101.5,63,101,63S100.2,62.7,100.2,62.3z M100.3,63.8h1.2v5h-1.2V63.8z"/>
		<path class="st0" d="M107.8,66.7h-3.9c0.1,0.7,0.8,1.2,1.6,1.2c0.6,0,1-0.2,1.4-0.5l0.6,0.7c-0.5,0.5-1.2,0.8-2,0.8
			c-1.7,0-2.8-1.1-2.8-2.6s1.1-2.6,2.6-2.6s2.5,1,2.5,2.6C107.8,66.5,107.8,66.6,107.8,66.7z M103.8,66h2.9
			c-0.1-0.7-0.6-1.2-1.4-1.2C104.5,64.7,103.9,65.2,103.8,66z"/>
		<path class="st0" d="M113.8,61.9v7h-1.1v-0.6c-0.4,0.5-1,0.7-1.7,0.7c-1.5,0-2.5-1-2.5-2.6s1.1-2.6,2.5-2.6c0.7,0,1.2,0.2,1.6,0.7
			v-2.6H113.8z M112.7,66.4c0-1-0.6-1.6-1.5-1.6s-1.5,0.6-1.5,1.6s0.6,1.6,1.5,1.6S112.7,67.3,112.7,66.4z"/>
		<path class="st0" d="M119.4,63.3h-2.2v-1h5.6v1h-2.2v5.6h-1.2L119.4,63.3L119.4,63.3z"/>
		<path class="st0" d="M127.6,65.9v2.9h-1.1v-0.6c-0.3,0.4-0.8,0.7-1.6,0.7c-1.1,0-1.9-0.6-1.9-1.5c0-0.8,0.6-1.5,2.1-1.5h1.3v-0.1
			c0-0.7-0.4-1.1-1.3-1.1c-0.6,0-1.1,0.2-1.5,0.5l-0.5-0.9c0.5-0.4,1.3-0.6,2.1-0.6C126.7,63.8,127.6,64.5,127.6,65.9z M126.4,67.3
			v-0.6h-1.2c-0.8,0-1,0.3-1,0.7c0,0.4,0.4,0.7,1,0.7C125.7,68.1,126.2,67.8,126.4,67.3z"/>
		<path class="st0" d="M129.1,61.9h1.2v7h-1.2V61.9z"/>
		<path class="st0" d="M136.5,66.7h-3.9c0.1,0.7,0.8,1.2,1.6,1.2c0.6,0,1-0.2,1.4-0.5l0.6,0.7c-0.5,0.5-1.2,0.8-2,0.8
			c-1.7,0-2.8-1.1-2.8-2.6s1.1-2.6,2.6-2.6s2.5,1,2.5,2.6C136.5,66.5,136.5,66.6,136.5,66.7z M132.5,66h2.9
			c-0.1-0.7-0.6-1.2-1.4-1.2C133.2,64.7,132.7,65.2,132.5,66z"/>
		<path class="st0" d="M142.6,66v2.9h-1.2v-2.7c0-0.9-0.4-1.3-1.2-1.3s-1.4,0.5-1.4,1.5v2.5h-1.2v-5h1.1v0.6c0.4-0.5,1-0.7,1.7-0.7
			C141.7,63.8,142.6,64.5,142.6,66z"/>
		<path class="st0" d="M147.1,68.6c-0.3,0.2-0.7,0.3-1.1,0.3c-1.1,0-1.7-0.6-1.7-1.7v-2.4h-0.8v-0.9h0.8v-1.1h1.2v1.1h1.3v0.9h-1.3
			v2.4c0,0.5,0.2,0.8,0.7,0.8c0.2,0,0.5-0.1,0.7-0.2L147.1,68.6z"/>
	</g>
	<path class="st0" d="M109.2,22.3c-2-2-5-2.8-7.8-2L91.2,23c-5.5,1.5-19.5,4.2-16.9,10.4C77,39.9,85.5,47.2,92,49.7
		c9.5,3.8,14.6-2.9,16.8-9.8c0-0.1,0.1-0.3,0.1-0.4v-0.1v-0.1c0.1-0.5,0.3-0.9,0.4-1.4l2-7.8C112,27.3,111.2,24.3,109.2,22.3
		 M104.9,28.3l-2.5,9.9c-0.2,0.7-0.8,1.2-1.5,1.1c-0.7,0-1.3-0.5-1.4-1.2l-0.8-4.2c-0.1-0.3-0.2-0.5-0.4-0.8
		c-0.2-0.2-0.5-0.3-0.8-0.4l-4.2-0.8c-0.3-0.1-0.6-0.2-0.8-0.4c-0.3-0.3-0.4-0.6-0.4-1c0-0.7,0.5-1.3,1.1-1.5l9.9-2.5
		c0.5-0.1,1,0,1.4,0.4c0.3,0.3,0.4,0.7,0.4,1.1C105,28.1,105,28.2,104.9,28.3"/>
	<rect x="34.1" y="96.5" class="st4" width="117.2" height="17.2"/>
	<g>
		<g>
			<g>
				<g>
					<defs>
						<path id="SVGID_00000096766355158005936870000015573147894626247051_" d="M2.8,82.3C2.4,86,2.1,89.7,2.2,93.5
							c0,3.8,0.3,7.6,0.7,11.2c0.7,5.1,1.7,10.1,3.2,15c0.1,0.3,0.2,0.7,0.3,1H180c0.5-1.6,1-3.2,1.4-4.8c1-3.9,1.8-7.9,2.2-12
							c0.4-3.6,0.6-7.3,0.6-11.1c0-3.6-0.2-7.1-0.6-10.6H2.8V82.3z"/>
					</defs>
					<clipPath id="SVGID_00000024724290148300439740000003943471541893908108_">
						<use xlink:href="#SVGID_00000096766355158005936870000015573147894626247051_"  style="overflow:visible;"/>
					</clipPath>
					
						<linearGradient id="SVGID_00000053530798557037992930000016602651381528686258_" gradientUnits="userSpaceOnUse" x1="-3438.4797" y1="-1741.1675" x2="-3437.6042" y2="-1741.1675" gradientTransform="matrix(207.9665 0 0 207.9665 715090.75 362206)">
						<stop  offset="0" style="stop-color:#121212"/>
						<stop  offset="1" style="stop-color:#333333"/>
					</linearGradient>
					
						<rect x="2.1" y="82.3" style="clip-path:url(#SVGID_00000024724290148300439740000003943471541893908108_);fill:url(#SVGID_00000053530798557037992930000016602651381528686258_);" width="182.1" height="38.4"/>
				</g>
			</g>
		</g>
	</g>
	
		<linearGradient id="SVGID_00000139991484478915428770000002286037938994527631_" gradientUnits="userSpaceOnUse" x1="-3438.5215" y1="-1741.2255" x2="-3437.6458" y2="-1741.2255" gradientTransform="matrix(208.966 0 0 208.966 718535.8125 363958.4688)">
		<stop  offset="0" style="stop-color:#121212"/>
		<stop  offset="1" style="stop-color:#333333"/>
	</linearGradient>
	<path style="fill:url(#SVGID_00000139991484478915428770000002286037938994527631_);" d="M184.2,92.9L184.2,92.9c0,0.1,0,0.2,0,0.3
		c0,3.6-0.2,7.2-0.6,10.8c-0.5,4.1-1.2,8.1-2.2,12c-0.4,1.6-0.9,3.2-1.4,4.8H6.4c-0.1-0.3-0.2-0.7-0.3-1c-1.5-4.8-2.6-9.8-3.2-15
		c-0.5-3.7-0.7-7.4-0.7-11.2c0-0.1,0-0.2,0-0.3c0-3.7,0.2-7.3,0.6-10.9h180.8C184,85.8,184.2,89.3,184.2,92.9L184.2,92.9L184.2,92.9
		c0-3.6-0.2-7.1-0.6-10.6H2.8c-0.4,3.6-0.6,7.2-0.6,10.9c0,0.1,0,0.2,0,0.3c0,3.8,0.3,7.6,0.7,11.2c0.7,5.1,1.7,10.1,3.2,15
		c0.1,0.3,0.2,0.7,0.3,1H180c0.5-1.6,1-3.2,1.4-4.8c1-3.9,1.8-7.9,2.2-12c0.4-3.5,0.6-7.1,0.6-10.8C184.2,93.1,184.2,93,184.2,92.9
		L184.2,92.9z"/>
	<path class="st7" d="M6.4,120.7H4.2c-2.5-8.1-3.9-16.6-4.1-25.2V91c0.1-2.9,0.3-5.8,0.6-8.7h2.1C2.4,86,2.1,89.7,2.2,93.5
		c0,3.8,0.3,7.6,0.7,11.2c0.7,5.1,1.7,10.1,3.2,15C6.2,120.1,6.3,120.4,6.4,120.7"/>
	<path class="st8" d="M186.2,88.8v8.7c-0.3,7.1-1.5,14.2-3.5,21.3c-0.2,0.6-0.4,1.3-0.6,1.9h-2.2c0.5-1.6,1-3.2,1.4-4.8
		c1-3.9,1.8-7.9,2.2-12c0.4-3.6,0.6-7.3,0.6-11.1c0-3.6-0.2-7.1-0.6-10.6h2.1C186,84.5,186.1,86.7,186.2,88.8"/>
	<path class="st0" d="M155.8,53.8c0,0-3.8-5.3-7.3-5.7c-3.2-0.3-6.4,0.7-6.4,0.7s6.7,4.8,9.9,5.7C154.5,55.4,155.8,53.8,155.8,53.8"
		/>
	<path class="st0" d="M166.3,114.7c0,0,1.7,1.1,3.8-0.8c2.7-2.5,6.3-12.4,6.3-12.4s-3,1.8-5.6,4.2
		C168,108.3,166.3,114.7,166.3,114.7"/>
	<path class="st0" d="M162.4,125.4c3.7-8,5.9-16.8,6.3-26.1c0.3,0.1,2,0.5,3.5-1.7c2.2-3.1,3.9-13.6,3.9-13.6s-2.7,2.4-4.7,5.4
		c-1.8,2.6-2.5,7.3-2.7,9.1c0-1,0.1-1.9,0.1-2.9c0-4.2-0.3-8.4-1-12.4c0.6-0.1,1.9-0.6,2.7-2.6c1.4-3.6,0.5-14.3,0.5-14.3
		s-2,3.1-3.3,6.6c-0.7,1.8-0.8,4.1-0.7,6.1c-0.8-3.9-1.9-7.6-3.3-11.3c0.5-0.2,1.9-0.8,2.4-3.2c0.8-3.9-2-14.1-2-14.1
		s-1.4,3.5-2,7.2c-0.4,2.5,0.2,5.7,0.8,7.8c-1.7-4.2-3.9-8.2-6.3-12c0.4-0.2,1.8-1.1,1.8-3.8c0.1-4-4.7-13.4-4.7-13.4
		s-0.7,3.7-0.6,7.5c0,3.1,1.9,7,2.9,8.7c-1.6-2.4-3.3-4.6-5.2-6.8c-0.4-1.4-1.9-4.8-5.9-7.4c-4.7-3-12.3-6-12.3-6s8.2,7.9,12.5,11.1
		c2.5,1.9,4.6,2.6,5.5,2.9c5,5.8,9,12.4,11.9,19.5c-1.1-1.8-2.8-4.2-4.8-4.9c-3-1-6.3-0.7-6.3-0.7s5.6,6.2,8.5,7.8
		c1.7,1,3,0.5,3.6,0.2c1.7,4.6,3,9.3,3.8,14.2c-0.6-1.9-2-5.9-4.4-7.3c-2.8-1.7-6-2-6-2s4.3,7.3,6.9,9.5c1.7,1.5,3.2,1.1,3.6,0.9
		c0.6,4,1,8.1,1,12.2c0,1.2,0,2.4-0.1,3.6c-0.1-0.8-0.6-6.8-3.2-9.1c-2.4-2.2-5.5-3.3-5.5-3.3s3,8.1,5.2,10.9c1.6,2,3.3,1.7,3.5,1.7
		c-0.3,5.2-1.1,10.2-2.4,15c0.1-1.4,0.4-6.8-1.6-9.4c-2-2.7-4.9-4.5-4.9-4.5s1.6,8.6,3.3,11.8c1.2,2.3,2.8,2.4,3.1,2.4
		c-1.2,4.6-2.9,8.9-5.1,13.1c0.4-2.1,1-6.1-0.2-8.6c-1.5-3.1-4-5.5-4-5.5s0.1,8.8,1.2,12.3c0.6,2,1.8,2.7,2.4,3
		c-2.5,4.7-5.6,9-9.3,13.1c0.8-1.8,2.3-5.9,1.5-8.9c-0.9-3.4-3-6.2-3-6.2s-1.4,8.6-1,12.3c0.3,2.2,1.3,3.1,1.8,3.5
		c-0.5,0.5-1,1-1.4,1.5c-2.5,2.5-5.2,4.9-8.1,7c1.3-1.7,3-4.6,3-7.1c0-3.6-1.3-6.9-1.3-6.9s-3.6,7.9-4.1,11.6
		c-0.3,1.9,0.3,3.1,0.7,3.7c-3.2,2.3-6.5,4.3-10.1,6.2c1.4-1,5.1-4,5.8-7.2c0.7-3.5,0.1-7,0.1-7s-5.2,6.9-6.6,10.3
		c-0.9,2.4,0,3.9,0.2,4.2c-3.6,1.8-7.3,3.5-11.3,4.9c1.9-0.9,5.8-3.2,6.9-6c1.3-3.3,1.2-6.9,1.2-6.9s-6.5,6-8.6,9.2
		c-1.3,2.1-0.7,3.7-0.6,4.1c-4.5,1.6-9.3,2.8-14.1,3.8c-9,1.7-14.3,5.2-17.3,8.1c0.2,0.1,0.4,0.1,0.6,0.2c2.9-2.8,8.1-6.1,16.8-7.8
		c4.8-0.9,9.5-2.2,14.1-3.7c0.1,0.5,0.5,2.1,3,2.8c3.8,1,14.1-1.8,14.1-1.8s-3.2-1.6-6.7-2.5c-2.5-0.6-6.1,0.1-8.3,0.7
		c3.6-1.3,7-2.8,10.3-4.5c0,0.2,0.6,2.1,3.3,2.4c3.7,0.4,12.9-3.8,12.9-3.8s-3.3-1.1-6.7-1.4c-2.6-0.2-5.9,1.1-7.9,2
		c3.4-1.8,6.6-3.8,9.6-6c0.3,0.5,1.2,1.8,3.4,1.7c3.6-0.2,11.8-5.9,11.8-5.9s-3.4-0.6-6.7-0.3c-1.6,0.1-3.5,1-5,1.9
		c2.1-1.7,4.1-3.5,6-5.4c0.5-0.5,1-1.1,1.5-1.6c0.3,0.4,1.4,1.6,3.6,1c3.5-0.8,10.6-8,10.6-8s-3.4,0.1-6.6,0.9
		c-1.7,0.5-3.5,1.8-5,3.1c2.9-3.5,5.4-7.1,7.5-11c0.4,0.3,1.7,1.1,3.7,0c3.1-1.8,8.4-10.7,8.4-10.7s-3.3,1-6.2,2.8
		C164.9,122,163.5,123.8,162.4,125.4"/>
	<path class="st0" d="M29.7,53.8c0,0,3.8-5.3,7.3-5.7c3.2-0.3,6.4,0.7,6.4,0.7s-6.7,4.8-9.9,5.7C31,55.4,29.7,53.8,29.7,53.8"/>
	<path class="st0" d="M19.1,114.7c0,0-1.7,1.1-3.8-0.8c-2.7-2.5-6.3-12.4-6.3-12.4s3,1.8,5.6,4.2C17.5,108.3,19.1,114.7,19.1,114.7"
		/>
	<path class="st0" d="M23,125.4c-3.7-8-5.9-16.8-6.3-26.1c-0.3,0.1-2,0.5-3.5-1.7C11,94.5,9.3,84,9.3,84s2.7,2.4,4.7,5.4
		c1.8,2.6,2.5,7.3,2.7,9.1c0-1-0.1-1.9-0.1-2.9c0-4.2,0.3-8.4,1-12.4c-0.6-0.1-1.9-0.6-2.7-2.6c-1.4-3.6-0.5-14.3-0.5-14.3
		s2,3.1,3.3,6.6c0.7,1.8,0.8,4.1,0.7,6.1c0.8-3.9,1.9-7.6,3.3-11.3c-0.5-0.2-1.9-0.8-2.4-3.2c-0.8-3.9,2-14.1,2-14.1s1.4,3.5,2,7.2
		c0.4,2.5-0.2,5.7-0.8,7.8c1.7-4.2,3.9-8.2,6.3-12c-0.4-0.2-1.8-1.1-1.8-3.8c-0.1-4,4.7-13.4,4.7-13.4s0.7,3.7,0.6,7.5
		c0,3.1-1.9,7-2.9,8.7c1.6-2.4,3.3-4.6,5.2-6.8c0.4-1.4,1.9-4.8,5.9-7.4c4.7-3,12.3-6,12.3-6s-8.2,7.9-12.5,11.1
		c-2.5,1.9-4.6,2.6-5.5,2.9c-5,5.8-9,12.4-11.9,19.5c1.1-1.8,2.8-4.2,4.8-4.9c3-1,6.3-0.7,6.3-0.7s-5.6,6.2-8.5,7.8
		c-1.7,1-3,0.5-3.6,0.2c-1.7,4.6-3,9.3-3.8,14.2c0.6-1.9,2-5.9,4.4-7.3c2.8-1.7,6-2,6-2s-4.3,7.3-6.9,9.5c-1.7,1.5-3.2,1.1-3.6,0.9
		c-0.6,4-1,8.1-1,12.2c0,1.2,0,2.4,0.1,3.6c0.1-0.8,0.6-6.8,3.2-9.1c2.4-2.2,5.5-3.3,5.5-3.3s-3,8.1-5.2,10.9
		c-1.6,2-3.3,1.7-3.5,1.7c0.3,5.2,1.1,10.2,2.4,15c-0.1-1.4-0.4-6.8,1.6-9.4c2-2.7,4.9-4.5,4.9-4.5s-1.6,8.6-3.3,11.8
		c-1.2,2.3-2.8,2.4-3.1,2.4c1.2,4.6,2.9,8.9,5.1,13.1c-0.4-2.1-1-6.1,0.2-8.6c1.5-3.1,4-5.5,4-5.5s-0.1,8.8-1.2,12.3
		c-0.6,2-1.8,2.7-2.4,3c2.5,4.7,5.6,9,9.3,13.1c-0.8-1.8-2.3-5.9-1.5-8.9c0.9-3.4,3-6.2,3-6.2s1.4,8.6,1,12.3
		c-0.3,2.2-1.3,3.1-1.8,3.5c0.5,0.5,1,1,1.4,1.5c2.5,2.5,5.2,4.9,8.1,7c-1.3-1.7-3-4.6-3-7.1c0-3.6,1.3-6.9,1.3-6.9
		s3.6,7.9,4.1,11.6c0.3,1.9-0.3,3.1-0.7,3.7c3.2,2.3,6.5,4.3,10.1,6.2c-1.4-1-5.1-4-5.8-7.2c-0.7-3.5-0.1-7-0.1-7s5.2,6.9,6.6,10.3
		c0.9,2.4,0,3.9-0.2,4.2c3.6,1.8,7.3,3.5,11.3,4.9c-1.9-0.9-5.8-3.2-6.9-6c-1.3-3.3-1.2-6.9-1.2-6.9s6.5,6,8.6,9.2
		c1.3,2.1,0.7,3.7,0.6,4.1c4.5,1.6,9.3,2.8,14.1,3.8c9,1.7,14.3,5.2,17.3,8.1c-0.2,0.1-0.4,0.1-0.6,0.2c-2.9-2.8-8.1-6.1-16.8-7.8
		c-4.8-0.9-9.5-2.2-14.1-3.7c-0.1,0.5-0.5,2.1-3,2.8c-3.8,1-14.1-1.8-14.1-1.8s3.2-1.6,6.7-2.5c2.5-0.6,6.1,0.1,8.3,0.7
		c-3.6-1.3-7-2.8-10.3-4.5c0,0.2-0.6,2.1-3.3,2.4c-3.7,0.4-12.9-3.8-12.9-3.8s3.3-1.1,6.7-1.4c2.6-0.2,5.9,1.1,7.9,2
		c-3.4-1.8-6.6-3.8-9.6-6c-0.3,0.5-1.2,1.8-3.4,1.7c-3.6-0.2-11.8-5.9-11.8-5.9s3.4-0.6,6.7-0.3c1.6,0.1,3.5,1,5,1.9
		c-2.1-1.7-4.1-3.5-6-5.4c-0.5-0.5-1-1.1-1.5-1.6c-0.3,0.4-1.4,1.6-3.6,1c-3.5-0.8-10.6-8-10.6-8s3.4,0.1,6.6,0.9
		c1.7,0.5,3.5,1.8,5,3.1c-2.9-3.5-5.4-7.1-7.5-11c-0.4,0.3-1.7,1.1-3.7,0c-3.1-1.8-8.4-10.7-8.4-10.7s3.3,1,6.2,2.8
		C20.6,122,22,123.8,23,125.4"/>
	<g>
		<path class="st3" d="M71.5,105.3v2.4h-10V94.8h9.7v2.4h-6.8v2.8h6v2.3h-6v3L71.5,105.3L71.5,105.3z"/>
		<path class="st3" d="M79.8,107.7l-2.2-3l-2.2,3h-3.1l3.8-5l-3.7-4.9h3.2l2.1,2.9l2.2-2.9H83l-3.7,4.8l3.8,5.1H79.8z"/>
		<path class="st3" d="M95,102.8c0,3.1-2.2,5.1-4.9,5.1c-1.2,0-2.2-0.4-3-1.2v4.6h-2.9V97.8h2.7v1.1c0.7-0.9,1.8-1.3,3.1-1.3
			C92.9,97.7,95,99.7,95,102.8z M92.1,102.8c0-1.7-1.1-2.7-2.5-2.7s-2.5,1-2.5,2.7s1.1,2.7,2.5,2.7S92.1,104.5,92.1,102.8z"/>
		<path class="st3" d="M106.4,103.6h-7.5c0.3,1.2,1.3,2,2.8,2c1,0,1.8-0.3,2.5-1l1.5,1.7c-0.9,1-2.3,1.6-4.1,1.6
			c-3.4,0-5.6-2.2-5.6-5.1c0-3,2.3-5.1,5.3-5.1c2.9,0,5.2,2,5.2,5.1C106.5,103,106.4,103.4,106.4,103.6z M98.9,101.9h4.9
			c-0.2-1.3-1.1-2.1-2.4-2.1C100,99.9,99.1,100.7,98.9,101.9z"/>
		<path class="st3" d="M114.4,97.7v2.6c-0.2,0-0.4,0-0.6,0c-1.6,0-2.6,0.9-2.6,2.8v4.7h-2.9v-9.9h2.7v1.3
			C111.7,98.2,112.9,97.7,114.4,97.7z"/>
		<path class="st3" d="M122.4,107.3c-0.6,0.4-1.5,0.6-2.3,0.6c-2.3,0-3.7-1.2-3.7-3.6v-4.1h-1.5V98h1.5v-2.4h2.9V98h2.5v2.2h-2.5v4
			c0,0.8,0.5,1.3,1.2,1.3c0.4,0,0.8-0.1,1.2-0.4L122.4,107.3z"/>
	</g>
	<g>
		<path d="M52.2,130.2l-2.4,6.4h-1.4l-1.7-4.4l-1.7,4.4h-1.4l-2.4-6.4h1.4l1.7,4.7l1.8-4.7h1.3l1.7,4.8l1.7-4.8H52.2z"/>
		<path d="M63.1,130.2l-2.4,6.4h-1.4l-1.7-4.4l-1.7,4.4h-1.4l-2.4-6.4h1.4l1.7,4.7l1.8-4.7h1.3l1.7,4.8l1.7-4.8H63.1z"/>
		<path d="M74,130.2l-2.4,6.4h-1.4l-1.7-4.4l-1.7,4.4h-1.4l-2.4-6.4h1.4l1.7,4.7l1.8-4.7h1.3l1.7,4.8l1.7-4.8H74z"/>
		<path d="M74.4,136.4c-0.2-0.2-0.3-0.4-0.3-0.7c0-0.3,0.1-0.5,0.3-0.7c0.2-0.2,0.4-0.3,0.7-0.3c0.3,0,0.5,0.1,0.7,0.3
			c0.2,0.2,0.3,0.4,0.3,0.7c0,0.3-0.1,0.5-0.3,0.7c-0.2,0.2-0.4,0.3-0.7,0.3S74.6,136.6,74.4,136.4z"/>
		<path d="M83.7,130.2v6.4h-1.4v-0.8c-0.2,0.3-0.5,0.5-0.9,0.7c-0.4,0.2-0.7,0.2-1.2,0.2c-0.9,0-1.5-0.2-2-0.7
			c-0.5-0.5-0.7-1.2-0.7-2.1v-3.7h1.5v3.5c0,0.6,0.1,1,0.4,1.3c0.3,0.3,0.6,0.4,1.1,0.4c0.5,0,1-0.2,1.3-0.5
			c0.3-0.3,0.5-0.8,0.5-1.4v-3.2H83.7z"/>
		<path d="M90.9,130.5c0.5,0.3,0.9,0.7,1.2,1.2c0.3,0.5,0.4,1.1,0.4,1.7c0,0.6-0.1,1.2-0.4,1.7c-0.3,0.5-0.7,0.9-1.2,1.2
			c-0.5,0.3-1,0.4-1.7,0.4c-0.9,0-1.5-0.3-2.1-0.9v3.1h-1.5v-8.7h1.4v0.8c0.2-0.3,0.6-0.5,0.9-0.7c0.4-0.2,0.8-0.2,1.2-0.2
			C89.8,130.1,90.4,130.2,90.9,130.5z M90.4,134.8c0.4-0.4,0.5-0.9,0.5-1.5c0-0.6-0.2-1.1-0.5-1.5c-0.4-0.4-0.8-0.6-1.4-0.6
			c-0.4,0-0.7,0.1-1,0.2s-0.5,0.4-0.7,0.7s-0.3,0.7-0.3,1.1c0,0.4,0.1,0.8,0.3,1.1c0.2,0.3,0.4,0.5,0.7,0.7s0.6,0.2,1,0.2
			C89.6,135.4,90,135.2,90.4,134.8z"/>
		<path d="M93.9,127.7h1.5v8.9h-1.5V127.7z"/>
		<path d="M103.3,133.8h-5c0.1,0.5,0.3,0.8,0.7,1.1c0.4,0.3,0.8,0.4,1.4,0.4c0.7,0,1.3-0.2,1.7-0.7l0.8,0.9
			c-0.3,0.3-0.7,0.6-1.1,0.8c-0.4,0.2-0.9,0.3-1.5,0.3c-0.7,0-1.3-0.1-1.9-0.4s-1-0.7-1.2-1.2s-0.4-1.1-0.4-1.7
			c0-0.6,0.1-1.2,0.4-1.7s0.7-0.9,1.2-1.2c0.5-0.3,1.1-0.4,1.7-0.4c0.6,0,1.2,0.1,1.7,0.4c0.5,0.3,0.9,0.7,1.2,1.2s0.4,1.1,0.4,1.7
			C103.4,133.5,103.4,133.7,103.3,133.8z M98.9,131.7c-0.3,0.3-0.5,0.7-0.6,1.1h3.6c-0.1-0.5-0.3-0.8-0.6-1.1
			c-0.3-0.3-0.7-0.4-1.2-0.4C99.6,131.3,99.2,131.4,98.9,131.7z"/>
		<path d="M108.5,130.1v1.4c-0.1,0-0.2,0-0.3,0c-0.6,0-1,0.2-1.4,0.5s-0.5,0.8-0.5,1.5v3.1h-1.5v-6.4h1.4v0.9
			C106.7,130.4,107.4,130.1,108.5,130.1z"/>
		<path d="M110.3,136.5c-0.5-0.1-0.9-0.3-1.2-0.5l0.6-1.1c0.3,0.2,0.6,0.3,1,0.5c0.4,0.1,0.8,0.2,1.2,0.2c0.9,0,1.3-0.2,1.3-0.7
			c0-0.2-0.1-0.4-0.3-0.5c-0.2-0.1-0.6-0.2-1.1-0.3c-0.5-0.1-1-0.2-1.3-0.3c-0.3-0.1-0.6-0.3-0.9-0.5c-0.2-0.3-0.4-0.6-0.4-1.1
			c0-0.6,0.3-1.1,0.8-1.5c0.5-0.4,1.2-0.5,2.1-0.5c0.4,0,0.9,0.1,1.3,0.2c0.4,0.1,0.8,0.2,1.1,0.4l-0.6,1.1
			c-0.5-0.3-1.2-0.5-1.8-0.5c-0.4,0-0.8,0.1-1,0.2c-0.2,0.1-0.3,0.3-0.3,0.5c0,0.2,0.1,0.4,0.4,0.5c0.2,0.1,0.6,0.2,1.1,0.3
			c0.5,0.1,0.9,0.2,1.3,0.3c0.3,0.1,0.6,0.3,0.8,0.5c0.2,0.2,0.4,0.6,0.4,1.1c0,0.6-0.3,1.1-0.8,1.4c-0.5,0.4-1.2,0.5-2.1,0.5
			C111.3,136.7,110.8,136.6,110.3,136.5z"/>
		<path d="M115.8,136.4c-0.2-0.2-0.3-0.4-0.3-0.7c0-0.3,0.1-0.5,0.3-0.7c0.2-0.2,0.4-0.3,0.7-0.3c0.3,0,0.5,0.1,0.7,0.3
			c0.2,0.2,0.3,0.4,0.3,0.7c0,0.3-0.1,0.5-0.3,0.7c-0.2,0.2-0.4,0.3-0.7,0.3C116.2,136.7,116,136.6,115.8,136.4z"/>
		<path d="M120,136.2c-0.5-0.3-0.9-0.7-1.2-1.2s-0.4-1.1-0.4-1.7s0.1-1.2,0.4-1.7c0.3-0.5,0.7-0.9,1.2-1.2c0.5-0.3,1.1-0.4,1.8-0.4
			c0.6,0,1.2,0.1,1.7,0.4c0.5,0.3,0.8,0.6,1.1,1.1l-1.2,0.7c-0.2-0.3-0.4-0.5-0.7-0.7c-0.3-0.1-0.6-0.2-0.9-0.2
			c-0.6,0-1,0.2-1.4,0.5s-0.6,0.9-0.6,1.5c0,0.6,0.2,1.1,0.5,1.5s0.8,0.5,1.4,0.5c0.3,0,0.6-0.1,0.9-0.2c0.3-0.1,0.5-0.4,0.7-0.7
			l1.2,0.7c-0.2,0.5-0.6,0.9-1.1,1.1c-0.5,0.3-1,0.4-1.7,0.4C121.1,136.7,120.5,136.5,120,136.2z"/>
		<path d="M126.8,136.2c-0.5-0.3-0.9-0.7-1.2-1.2s-0.4-1.1-0.4-1.7s0.1-1.2,0.4-1.7c0.3-0.5,0.7-0.9,1.2-1.2
			c0.5-0.3,1.1-0.4,1.8-0.4c0.7,0,1.2,0.1,1.8,0.4c0.5,0.3,0.9,0.7,1.2,1.2c0.3,0.5,0.4,1.1,0.4,1.7s-0.1,1.2-0.4,1.7
			s-0.7,0.9-1.2,1.2c-0.5,0.3-1.1,0.4-1.8,0.4C127.9,136.7,127.3,136.5,126.8,136.2z M129.9,134.8c0.4-0.4,0.5-0.9,0.5-1.5
			c0-0.6-0.2-1.1-0.5-1.5c-0.4-0.4-0.8-0.6-1.4-0.6c-0.6,0-1,0.2-1.4,0.6c-0.4,0.4-0.5,0.9-0.5,1.5c0,0.6,0.2,1.1,0.5,1.5
			c0.4,0.4,0.8,0.6,1.4,0.6C129.1,135.4,129.6,135.2,129.9,134.8z"/>
		<path d="M143.4,130.8c0.5,0.5,0.7,1.2,0.7,2.1v3.7h-1.5v-3.5c0-0.6-0.1-1-0.4-1.3s-0.6-0.4-1.1-0.4c-0.5,0-0.9,0.2-1.2,0.5
			c-0.3,0.3-0.5,0.8-0.5,1.4v3.3H138v-3.5c0-0.6-0.1-1-0.4-1.3c-0.2-0.3-0.6-0.4-1.1-0.4c-0.5,0-0.9,0.2-1.2,0.5
			c-0.3,0.3-0.5,0.8-0.5,1.4v3.3h-1.5v-6.4h1.4v0.8c0.2-0.3,0.5-0.5,0.9-0.7c0.4-0.2,0.8-0.2,1.2-0.2c0.5,0,0.9,0.1,1.3,0.3
			s0.7,0.4,0.9,0.8c0.3-0.3,0.6-0.6,1-0.8c0.4-0.2,0.9-0.3,1.4-0.3C142.3,130.1,143,130.3,143.4,130.8z"/>
	</g>
</g>
</svg>
