<?xml version="1.0" encoding="utf-8"?>
<!-- Generator: Adobe Illustrator 26.0.1, SVG Export Plug-In . SVG Version: 6.00 Build 0)  -->
<!DOCTYPE svg PUBLIC "-//W3C//DTD SVG 1.1//EN" "http://www.w3.org/Graphics/SVG/1.1/DTD/svg11.dtd" [
	<!ENTITY ns_extend "http://ns.adobe.com/Extensibility/1.0/">
	<!ENTITY ns_ai "http://ns.adobe.com/AdobeIllustrator/10.0/">
	<!ENTITY ns_graphs "http://ns.adobe.com/Graphs/1.0/">
	<!ENTITY ns_vars "http://ns.adobe.com/Variables/1.0/">
	<!ENTITY ns_imrep "http://ns.adobe.com/ImageReplacement/1.0/">
	<!ENTITY ns_sfw "http://ns.adobe.com/SaveForWeb/1.0/">
	<!ENTITY ns_custom "http://ns.adobe.com/GenericCustomNamespace/1.0/">
	<!ENTITY ns_adobe_xpath "http://ns.adobe.com/XPath/1.0/">
]>
<svg version="1.1" id="Layer_1" xmlns:x="&ns_extend;" xmlns:i="&ns_ai;" xmlns:graph="&ns_graphs;"
	 xmlns="http://www.w3.org/2000/svg" xmlns:xlink="http://www.w3.org/1999/xlink" x="0px" y="0px" width="566px" height="1366px"
	 viewBox="0 0 566 1366" style="enable-background:new 0 0 566 1366;" xml:space="preserve">
<style type="text/css">
	.st0{opacity:0.35;fill:none;stroke:#010101;stroke-width:2;stroke-miterlimit:10;enable-background:new    ;}
	.st1{fill:#FEDB2E;}
	.st2{fill:url(#SVGID_1_);}
	.st3{fill:url(#SVGID_00000161617988664529429730000012141582874511652538_);}
	.st4{fill:#3A3B3A;}
	.st5{fill:#787878;}
	.st6{fill:#9B9B9B;}
	.st7{fill:#D2D2D2;}
	.st8{fill:#E2E2E2;}
	.st9{fill:url(#SVGID_00000128451461899738272730000000197688614800471742_);}
	.st10{fill:url(#SVGID_00000030480731625087438560000014539699048840561552_);}
	.st11{fill:url(#SVGID_00000001649346688603280680000006616646854927237816_);}
	.st12{fill:url(#SVGID_00000014618026072129061980000017101523464337792934_);}
	.st13{fill:url(#SVGID_00000119825430770143477510000003173094576203592332_);}
	.st14{fill:url(#SVGID_00000049900395317383274450000004196746551237403825_);}
	.st15{fill:url(#SVGID_00000005268960800505056480000017486055945662114726_);}
	.st16{fill:url(#SVGID_00000010301199238582502440000011821306694610460321_);}
	.st17{fill:url(#SVGID_00000121279399955922330270000012648297371606303119_);}
	.st18{fill:url(#SVGID_00000067198025123524258000000014150174766023395252_);}
	.st19{fill:#010101;}
	.st20{fill:none;stroke:#FED831;stroke-width:0.1843;stroke-miterlimit:10;}
	
		.st21{clip-path:url(#SVGID_00000012442097814108000110000016009369032370674318_);fill:url(#SVGID_00000016770788877741623290000005593271263186439336_);}
	.st22{fill:#FED831;}
	.st23{fill:none;stroke:#D6D5D5;stroke-width:0.1383;stroke-miterlimit:10;}
	
		.st24{clip-path:url(#SVGID_00000011030995229583996320000003028628248462712483_);fill:url(#SVGID_00000074402875629306957650000002736096831284799108_);}
	.st25{fill:url(#SVGID_00000035511434553579982850000001283864121163976878_);}
	.st26{fill:#101010;}
	.st27{fill:#333333;}
	.st28{fill:#FDD931;stroke:#010101;stroke-width:1.5;stroke-miterlimit:10;}
	.st29{fill:none;stroke:#010101;stroke-width:1.5;stroke-linecap:round;stroke-linejoin:round;stroke-miterlimit:10;}
	.st30{fill:none;stroke:#010101;stroke-width:1.5;stroke-miterlimit:10;}
	.st31{fill:#FDD931;stroke:#010101;stroke-width:1.5;stroke-linecap:round;stroke-linejoin:round;stroke-miterlimit:10;}
	.st32{fill:none;stroke:#FDD931;stroke-width:1.5;stroke-linecap:round;stroke-linejoin:round;stroke-miterlimit:10;}
	.st33{fill:none;stroke:#000000;stroke-width:1.5;stroke-linecap:round;stroke-linejoin:round;stroke-miterlimit:10;}
</style>
<metadata>
	<sfw  xmlns="&ns_sfw;">
		<slices></slices>
		<sliceSourceBounds  bottomLeftOrigin="true" height="1366" width="566" x="0" y="0"></sliceSourceBounds>
	</sfw>
</metadata>
<line class="st0" x1="557" y1="779.8" x2="502" y2="779.8"/>
<line class="st0" x1="9" y1="1001.4" x2="64" y2="1001.4"/>
<circle class="st1" cx="9" cy="1001.4" r="9"/>
<line class="st0" x1="9" y1="555.5" x2="64" y2="555.5"/>
<circle class="st1" cx="9" cy="555.5" r="9"/>
<line class="st0" x1="557" y1="336.5" x2="502" y2="336.5"/>
<circle class="st1" cx="557" cy="336.5" r="9"/>
<line class="st0" x1="9" y1="115" x2="64" y2="115"/>
<circle class="st1" cx="9" cy="115" r="9"/>
<circle class="st1" cx="557" cy="779.8" r="9"/>
<path class="st1" d="M395,1126.9L395,1126.9c-87.4-0.6-123.4-37.1-122.8-124.6l0,0c0-0.2,0-0.5,0-0.7c0-54.7-44.3-99-99-99
	s-99,44.3-99,99c0,54.4,43.9,98.6,98.3,99l0,0c87.4,0.6,123.4,37.1,122.8,124.6l0,0c0,0.2,0,0.5,0,0.7c0,54.7,44.3,99,99,99
	s99-44.3,99-99C493.2,1171.4,449.3,1127.3,395,1126.9z"/>
<g>
	
		<ellipse transform="matrix(0.7071 -0.7071 0.7071 0.7071 -751.2635 637.8381)" class="st1" cx="394.3" cy="1225.8" rx="115.1" ry="115.1"/>
	<g>
		<g>
			
				<linearGradient id="SVGID_1_" gradientUnits="userSpaceOnUse" x1="2881.5808" y1="2984.6028" x2="2881.5808" y2="3183.6028" gradientTransform="matrix(0 -1 -1 0 3478.4028 4107.3809)">
				<stop  offset="0" style="stop-color:#FFFFFF"/>
				<stop  offset="1" style="stop-color:#E1E2E2"/>
			</linearGradient>
			<circle class="st2" cx="394.3" cy="1225.8" r="99.5"/>
		</g>
	</g>
	
		<linearGradient id="SVGID_00000085243659027009311110000014751485711376627105_" gradientUnits="userSpaceOnUse" x1="2881.5808" y1="3178.9028" x2="2881.5808" y2="2989.3027" gradientTransform="matrix(0 -1 -1 0 3478.4028 4107.3809)">
		<stop  offset="0" style="stop-color:#FFFFFF"/>
		<stop  offset="1" style="stop-color:#E1E2E2"/>
	</linearGradient>
	<circle style="fill:url(#SVGID_00000085243659027009311110000014751485711376627105_);" cx="394.3" cy="1225.8" r="94.8"/>
</g>
<path class="st4" d="M394.3,680.9c-54.7,0-99,44.3-99,99c0,86.7-35.9,122.7-122.7,122.7c-54.7,0-99,44.3-99,99s44.3,99,99,99
	s99-44.3,99-99c0-86.7,35.9-122.7,122.7-122.7c54.7,0,99-44.3,99-99C493.2,725.2,448.9,680.9,394.3,680.9z"/>
<path class="st5" d="M395,680.9L395,680.9c-87.4-0.6-123.4-37.1-122.8-124.6l0,0c0-0.2,0-0.5,0-0.7c0-54.7-44.3-99-99-99
	s-99,44.3-99,99c0,54.4,43.9,98.6,98.3,99l0,0c87.4,0.6,123.4,37.1,122.8,124.6l0,0c0,0.2,0,0.5,0,0.7c0,54.7,44.3,99,99,99
	s99-44.3,99-99C493.2,725.4,449.3,681.3,395,680.9z"/>
<path class="st6" d="M394.3,237.6c-54.5,0-98.7,44.1-99,98.5l0,0c-0.4,85.6-36,120.9-121.6,120.5l0,0c-0.2,0-0.3,0-0.4,0
	c-54.7,0-99,44.3-99,99s44.3,99,99,99c54.5,0,98.7-44.1,99-98.5l0,0c0.4-85.6,36-120.9,121.6-120.5l0,0c0.1,0,0.3,0,0.4,0
	c54.7,0,99-44.3,99-99C493.2,281.9,448.9,237.6,394.3,237.6z"/>
<path class="st7" d="M394.3,237.6L394.3,237.6c-86.6,0-122.5-35.9-122.5-122.5l0,0l0,0c0-54.7-44.3-99-99-99s-99,44.3-99,99
	s44.3,99,99,99l0,0c86.6,0,122.5,35.9,122.5,122.5l0,0l0,0c0,54.7,44.3,99,99,99s99-44.3,99-99C493.2,281.9,448.9,237.6,394.3,237.6
	z"/>
<ellipse class="st8" cx="172.8" cy="115.1" rx="115.1" ry="115.1"/>
<g>
	
		<linearGradient id="SVGID_00000072237940158511877960000013586258321610336175_" gradientUnits="userSpaceOnUse" x1="3992.2808" y1="3206.1028" x2="3992.2808" y2="3405.1028" gradientTransform="matrix(0 -1 -1 0 3478.4028 4107.3809)">
		<stop  offset="0" style="stop-color:#FFFFFF"/>
		<stop  offset="1" style="stop-color:#E1E2E2"/>
	</linearGradient>
	<circle style="fill:url(#SVGID_00000072237940158511877960000013586258321610336175_);" cx="172.8" cy="115.1" r="99.5"/>
</g>
<linearGradient id="SVGID_00000071518343195682040820000000880273591063524256_" gradientUnits="userSpaceOnUse" x1="3992.2808" y1="3400.4028" x2="3992.2808" y2="3210.8027" gradientTransform="matrix(0 -1 -1 0 3478.4028 4107.3809)">
	<stop  offset="0" style="stop-color:#FFFFFF"/>
	<stop  offset="1" style="stop-color:#E1E2E2"/>
</linearGradient>
<circle style="fill:url(#SVGID_00000071518343195682040820000000880273591063524256_);" cx="172.8" cy="115.1" r="94.8"/>
<g>
	<ellipse class="st7" cx="394.3" cy="336.5" rx="115.1" ry="115.1"/>
	<g>
		<g>
			
				<linearGradient id="SVGID_00000015355146210648689020000015683300513007003541_" gradientUnits="userSpaceOnUse" x1="3770.8809" y1="2984.6028" x2="3770.8809" y2="3183.6028" gradientTransform="matrix(0 -1 -1 0 3478.4028 4107.3809)">
				<stop  offset="0" style="stop-color:#FFFFFF"/>
				<stop  offset="1" style="stop-color:#E1E2E2"/>
			</linearGradient>
			<circle style="fill:url(#SVGID_00000015355146210648689020000015683300513007003541_);" cx="394.3" cy="336.5" r="99.5"/>
		</g>
	</g>
	
		<linearGradient id="SVGID_00000176045161624640393080000009842052946648231563_" gradientUnits="userSpaceOnUse" x1="3770.8809" y1="3178.9028" x2="3770.8809" y2="2989.3027" gradientTransform="matrix(0 -1 -1 0 3478.4028 4107.3809)">
		<stop  offset="0" style="stop-color:#FFFFFF"/>
		<stop  offset="1" style="stop-color:#E1E2E2"/>
	</linearGradient>
	<circle style="fill:url(#SVGID_00000176045161624640393080000009842052946648231563_);" cx="394.3" cy="336.5" r="94.8"/>
</g>
<g>
	<circle class="st6" cx="173.3" cy="555.6" r="115.1"/>
	<g>
		<g>
			
				<linearGradient id="SVGID_00000018196693609774684990000010469407510651207836_" gradientUnits="userSpaceOnUse" x1="3551.7808" y1="3205.6028" x2="3551.7808" y2="3404.6028" gradientTransform="matrix(0 -1 -1 0 3478.4028 4107.3809)">
				<stop  offset="0" style="stop-color:#FFFFFF"/>
				<stop  offset="1" style="stop-color:#E1E2E2"/>
			</linearGradient>
			<circle style="fill:url(#SVGID_00000018196693609774684990000010469407510651207836_);" cx="173.3" cy="555.6" r="99.5"/>
		</g>
	</g>
	
		<linearGradient id="SVGID_00000065769573904403552420000000540240741084504250_" gradientUnits="userSpaceOnUse" x1="3551.7808" y1="3399.9028" x2="3551.7808" y2="3210.3027" gradientTransform="matrix(0 -1 -1 0 3478.4028 4107.3809)">
		<stop  offset="0" style="stop-color:#FFFFFF"/>
		<stop  offset="1" style="stop-color:#E1E2E2"/>
	</linearGradient>
	<circle style="fill:url(#SVGID_00000065769573904403552420000000540240741084504250_);" cx="173.3" cy="555.6" r="94.8"/>
</g>
<g>
	
		<ellipse transform="matrix(0.7071 -0.7071 0.7071 0.7071 -435.8984 507.209)" class="st5" cx="394.3" cy="779.8" rx="115.1" ry="115.1"/>
	<g>
		<g>
			
				<linearGradient id="SVGID_00000072274592987539987940000006744316539516289412_" gradientUnits="userSpaceOnUse" x1="3327.5808" y1="2984.6028" x2="3327.5808" y2="3183.6028" gradientTransform="matrix(0 -1 -1 0 3478.4028 4107.3809)">
				<stop  offset="0" style="stop-color:#FFFFFF"/>
				<stop  offset="1" style="stop-color:#E1E2E2"/>
			</linearGradient>
			<circle style="fill:url(#SVGID_00000072274592987539987940000006744316539516289412_);" cx="394.3" cy="779.8" r="99.5"/>
		</g>
	</g>
	
		<linearGradient id="SVGID_00000041287463470672867650000012434630920170741429_" gradientUnits="userSpaceOnUse" x1="3327.5808" y1="3178.9028" x2="3327.5808" y2="2989.3027" gradientTransform="matrix(0 -1 -1 0 3478.4028 4107.3809)">
		<stop  offset="0" style="stop-color:#FFFFFF"/>
		<stop  offset="1" style="stop-color:#E1E2E2"/>
	</linearGradient>
	<circle style="fill:url(#SVGID_00000041287463470672867650000012434630920170741429_);" cx="394.3" cy="779.8" r="94.8"/>
</g>
<g>
	<circle class="st4" cx="172.6" cy="1001.5" r="115.1"/>
	<g>
		<g>
			
				<linearGradient id="SVGID_00000070803163430385239490000004688294028620135102_" gradientUnits="userSpaceOnUse" x1="3105.8809" y1="3206.3027" x2="3105.8809" y2="3405.3027" gradientTransform="matrix(0 -1 -1 0 3478.4028 4107.3809)">
				<stop  offset="0" style="stop-color:#FFFFFF"/>
				<stop  offset="1" style="stop-color:#E1E2E2"/>
			</linearGradient>
			<circle style="fill:url(#SVGID_00000070803163430385239490000004688294028620135102_);" cx="172.6" cy="1001.5" r="99.5"/>
		</g>
	</g>
	
		<linearGradient id="SVGID_00000137108422891871399870000009429581831422143674_" gradientUnits="userSpaceOnUse" x1="3105.8809" y1="3400.6028" x2="3105.8809" y2="3211.0029" gradientTransform="matrix(0 -1 -1 0 3478.4028 4107.3809)">
		<stop  offset="0" style="stop-color:#FFFFFF"/>
		<stop  offset="1" style="stop-color:#E1E2E2"/>
	</linearGradient>
	<circle style="fill:url(#SVGID_00000137108422891871399870000009429581831422143674_);" cx="172.6" cy="1001.5" r="94.8"/>
</g>
<g>
	<polygon class="st19" points="337.5,1353.8 354,1290.4 400.8,1302.6 384.3,1366 365.4,1342.8 	"/>
	<polygon class="st19" points="450.6,1352.5 434.1,1289.1 387.3,1301.3 403.7,1364.7 422.7,1341.4 	"/>
	<polygon class="st20" points="343.9,1346.2 343.9,1346.2 357.4,1294.5 395.6,1304.4 382.1,1356.1 366.6,1337.2 343.9,1346.2 
		343.9,1346.2 343.9,1346.2 366.6,1337.2 382.1,1356.1 395.6,1304.4 357.4,1294.5 	"/>
	<polygon class="st20" points="444,1345.3 430.7,1293.9 392.6,1303.8 406,1355.2 421.4,1336.4 	"/>
	<g>
		<g>
			<g>
				<g>
					<defs>
						<path id="SVGID_00000159454729627407608430000003374327600312324494_" d="M307.4,1252.5c-1.5-4.8-2.6-9.8-3.2-15
							c-0.5-3.7-0.7-7.4-0.7-11.2c0-3.8,0.2-7.5,0.6-11.2h180.8c0.4,3.5,0.6,7,0.6,10.6c0,3.7-0.2,7.4-0.6,11.1
							c-0.5,4.1-1.2,8.1-2.2,12c-0.4,1.6-0.9,3.2-1.4,4.8H307.7C307.6,1253.1,307.5,1252.8,307.4,1252.5 M304.9,1200.3
							c-1.4,4.9-2.4,9.8-3,14.7c-0.3,2.9-0.6,5.8-0.6,8.7c0,1.5,0,3,0,4.5c0.2,8.6,1.6,17.1,4.1,25.2c9,29,32,53.1,63.4,62
							c48.8,14,99.7-13.8,114.6-62c0.2-0.6,0.4-1.3,0.6-1.9c2-7.1,3.2-14.2,3.5-21.3c0.1-2.9,0.1-5.8,0-8.7
							c-0.1-2.2-0.3-4.3-0.5-6.5c-4.3-36.2-29.7-68-66.9-78.7c-8.6-2.4-17.2-3.6-25.7-3.6C353.9,1132.8,316.6,1159.4,304.9,1200.3"
							/>
					</defs>
					<clipPath id="SVGID_00000153678130672699357460000006055371119729452456_">
						<use xlink:href="#SVGID_00000159454729627407608430000003374327600312324494_"  style="overflow:visible;"/>
					</clipPath>
					
						<linearGradient id="SVGID_00000110450228075434221840000011837467351594077580_" gradientUnits="userSpaceOnUse" x1="-2743.7998" y1="-1859.6689" x2="-2742.9236" y2="-1859.6689" gradientTransform="matrix(212.7517 0 0 212.7517 584049.375 396878.875)">
						<stop  offset="0" style="stop-color:#101010"/>
						<stop  offset="1" style="stop-color:#333333"/>
					</linearGradient>
					
						<rect x="301.3" y="1132.8" style="clip-path:url(#SVGID_00000153678130672699357460000006055371119729452456_);fill:url(#SVGID_00000110450228075434221840000011837467351594077580_);" width="186.4" height="196.7"/>
				</g>
			</g>
		</g>
	</g>
	<path class="st22" d="M307.7,1253.4h173.6c0,0.1,0,0.1,0,0.2l0,0c-1,3-2.1,6-3.4,8.9c-2.8,6.3-6.2,12.2-10.2,17.6
		c-3.4,4.6-7.3,8.9-11.5,12.8c-16.1,14.9-37.7,24-61.4,24.1c-23.7,0.1-45.3-8.9-61.6-23.7c-4.2-3.8-8-8-11.4-12.5
		C315.6,1272.6,310.8,1263.4,307.7,1253.4"/>
	<path class="st22" d="M484.9,1215H304.1c5.4-45,43.6-80,90.1-80.2C440.9,1134.7,479.5,1169.7,484.9,1215"/>
	<g>
		<path class="st19" d="M340.3,1198.7v-3.7h1.2v3.7c0,1.4,0.6,1.9,1.7,1.9s1.7-0.6,1.7-1.9v-3.7h1.2v3.7c0,1.9-1.1,3-2.9,3
			C341.4,1201.7,340.3,1200.6,340.3,1198.7z"/>
		<path class="st19" d="M353,1199.1c0,1.6-1.1,2.6-2.6,2.6c-0.6,0-1.2-0.2-1.6-0.7v2.4h-1.2v-6.9h1.1v0.7c0.4-0.5,1-0.7,1.7-0.7
			C352,1196.5,353,1197.5,353,1199.1z M351.8,1199.1c0-1-0.6-1.6-1.5-1.6c-0.8,0-1.5,0.6-1.5,1.6s0.7,1.6,1.5,1.6
			C351.2,1200.6,351.8,1200,351.8,1199.1z"/>
		<path class="st19" d="M354.2,1194.6h1.2v7h-1.2V1194.6z"/>
		<path class="st19" d="M361.6,1199.4h-3.9c0.1,0.7,0.8,1.2,1.6,1.2c0.6,0,1-0.2,1.4-0.5l0.6,0.7c-0.5,0.5-1.2,0.8-2,0.8
			c-1.7,0-2.8-1.1-2.8-2.6s1.1-2.6,2.6-2.6s2.5,1,2.5,2.6C361.6,1199.2,361.6,1199.3,361.6,1199.4z M357.6,1198.7h2.9
			c-0.1-0.7-0.6-1.2-1.4-1.2C358.3,1197.4,357.7,1197.9,357.6,1198.7z"/>
		<path class="st19" d="M365.6,1196.5v1.1c-0.1,0-0.2,0-0.3,0c-0.9,0-1.5,0.5-1.5,1.6v2.4h-1.2v-5h1.1v0.7
			C364.2,1196.8,364.8,1196.5,365.6,1196.5z"/>
		<path class="st19" d="M366.1,1201.1l0.5-0.9c0.4,0.3,1.1,0.5,1.8,0.5c0.7,0,1.1-0.2,1.1-0.6c0-1-3.1-0.1-3.1-2.1
			c0-1,0.9-1.6,2.2-1.6c0.7,0,1.4,0.2,1.9,0.4l-0.5,0.9c-0.5-0.3-1-0.4-1.4-0.4c-0.7,0-1.1,0.2-1.1,0.6c0,1,3.1,0.1,3.1,2.1
			c0,0.9-0.9,1.6-2.3,1.6C367.4,1201.6,366.5,1201.4,366.1,1201.1z"/>
		<path class="st19" d="M373.7,1198.3c0-2,1.5-3.4,3.5-3.4c1.1,0,2,0.4,2.6,1.1l-0.8,0.7c-0.5-0.5-1.1-0.8-1.8-0.8
			c-1.4,0-2.4,1-2.4,2.3s1,2.3,2.4,2.3c0.7,0,1.3-0.3,1.8-0.8l0.8,0.8c-0.6,0.7-1.5,1.1-2.6,1.1
			C375.2,1201.7,373.7,1200.2,373.7,1198.3z"/>
		<path class="st19" d="M385.5,1199.4h-3.9c0.1,0.7,0.8,1.2,1.6,1.2c0.6,0,1-0.2,1.4-0.5l0.6,0.7c-0.5,0.5-1.2,0.8-2,0.8
			c-1.7,0-2.8-1.1-2.8-2.6s1.1-2.6,2.6-2.6s2.5,1,2.5,2.6C385.5,1199.2,385.5,1199.3,385.5,1199.4z M381.5,1198.7h2.9
			c-0.1-0.7-0.6-1.2-1.4-1.2C382.2,1197.4,381.6,1197.9,381.5,1198.7z"/>
		<path class="st19" d="M389.5,1196.5v1.1c-0.1,0-0.2,0-0.3,0c-0.9,0-1.5,0.5-1.5,1.6v2.4h-1.2v-5h1.1v0.7
			C388.1,1196.8,388.7,1196.5,389.5,1196.5z"/>
		<path class="st19" d="M393.7,1201.3c-0.3,0.2-0.7,0.3-1.1,0.3c-1.1,0-1.7-0.6-1.7-1.7v-2.4H390v-0.9h0.8v-1.1h1.2v1.1h1.3v0.9H392
			v2.4c0,0.5,0.2,0.8,0.7,0.8c0.2,0,0.5-0.1,0.7-0.2L393.7,1201.3z"/>
		<path class="st19" d="M394.5,1195c0-0.4,0.3-0.7,0.8-0.7c0.4,0,0.8,0.3,0.8,0.7c0,0.4-0.3,0.7-0.8,0.7S394.5,1195.4,394.5,1195z
			 M394.7,1196.5h1.2v5h-1.2V1196.5z"/>
		<path class="st19" d="M399.4,1194.5c0.4,0,0.8,0.1,1.1,0.3l-0.3,0.9c-0.2-0.1-0.4-0.2-0.6-0.2c-0.5,0-0.7,0.3-0.7,0.8v0.3h1.4v0.9
			H399v4h-1.2v-4H397v-0.9h0.8v-0.3C397.6,1195.2,398.2,1194.5,399.4,1194.5z M401.5,1195c0-0.4,0.3-0.7,0.8-0.7
			c0.4,0,0.8,0.3,0.8,0.7c0,0.4-0.3,0.7-0.8,0.7S401.5,1195.4,401.5,1195z M401.6,1196.5h1.2v5h-1.2V1196.5z"/>
		<path class="st19" d="M409.1,1199.4h-3.9c0.1,0.7,0.8,1.2,1.6,1.2c0.6,0,1-0.2,1.4-0.5l0.6,0.7c-0.5,0.5-1.2,0.8-2,0.8
			c-1.7,0-2.8-1.1-2.8-2.6s1.1-2.6,2.6-2.6s2.5,1,2.5,2.6C409.1,1199.2,409.1,1199.3,409.1,1199.4z M405.1,1198.7h2.9
			c-0.1-0.7-0.6-1.2-1.4-1.2C405.8,1197.4,405.2,1197.9,405.1,1198.7z"/>
		<path class="st19" d="M415.1,1194.6v7H414v-0.6c-0.4,0.5-1,0.7-1.7,0.7c-1.5,0-2.5-1-2.5-2.6s1.1-2.6,2.5-2.6
			c0.7,0,1.2,0.2,1.6,0.7v-2.6H415.1z M414,1199.1c0-1-0.6-1.6-1.5-1.6s-1.5,0.6-1.5,1.6s0.6,1.6,1.5,1.6S414,1200,414,1199.1z"/>
		<path class="st19" d="M420.7,1196h-2.2v-1h5.6v1h-2.2v5.6h-1.2L420.7,1196L420.7,1196z"/>
		<path class="st19" d="M428.9,1198.6v2.9h-1.1v-0.6c-0.3,0.4-0.8,0.7-1.6,0.7c-1.1,0-1.9-0.6-1.9-1.5c0-0.8,0.6-1.5,2.1-1.5h1.3
			v-0.1c0-0.7-0.4-1.1-1.3-1.1c-0.6,0-1.1,0.2-1.5,0.5l-0.5-0.9c0.5-0.4,1.3-0.6,2.1-0.6C428,1196.5,428.9,1197.2,428.9,1198.6z
			 M427.7,1200v-0.6h-1.2c-0.8,0-1,0.3-1,0.7c0,0.4,0.4,0.7,1,0.7C427,1200.8,427.5,1200.5,427.7,1200z"/>
		<path class="st19" d="M430.4,1194.6h1.2v7h-1.2V1194.6z"/>
		<path class="st19" d="M437.8,1199.4h-3.9c0.1,0.7,0.8,1.2,1.6,1.2c0.6,0,1-0.2,1.4-0.5l0.6,0.7c-0.5,0.5-1.2,0.8-2,0.8
			c-1.7,0-2.8-1.1-2.8-2.6s1.1-2.6,2.6-2.6s2.5,1,2.5,2.6C437.8,1199.2,437.8,1199.3,437.8,1199.4z M433.8,1198.7h2.9
			c-0.1-0.7-0.6-1.2-1.4-1.2C434.5,1197.4,434,1197.9,433.8,1198.7z"/>
		<path class="st19" d="M443.9,1198.7v2.9h-1.2v-2.7c0-0.9-0.4-1.3-1.2-1.3c-0.8,0-1.4,0.5-1.4,1.5v2.5h-1.2v-5h1.1v0.6
			c0.4-0.5,1-0.7,1.7-0.7C443,1196.5,443.9,1197.2,443.9,1198.7z"/>
		<path class="st19" d="M448.4,1201.3c-0.3,0.2-0.7,0.3-1.1,0.3c-1.1,0-1.7-0.6-1.7-1.7v-2.4h-0.8v-0.9h0.8v-1.1h1.2v1.1h1.3v0.9
			h-1.3v2.4c0,0.5,0.2,0.8,0.7,0.8c0.2,0,0.5-0.1,0.7-0.2L448.4,1201.3z"/>
	</g>
	<path class="st19" d="M410.5,1155c-2-2-5-2.8-7.8-2l-10.2,2.7c-5.5,1.5-19.5,4.2-16.9,10.4c2.7,6.5,11.2,13.8,17.7,16.3
		c9.5,3.8,14.6-2.9,16.8-9.8c0-0.1,0.1-0.3,0.1-0.4v-0.1v-0.1c0.1-0.5,0.3-0.9,0.4-1.4l2-7.8C413.3,1160,412.5,1157,410.5,1155
		 M406.2,1161l-2.5,9.9c-0.2,0.7-0.8,1.2-1.5,1.1c-0.7,0-1.3-0.5-1.4-1.2l-0.8-4.2c-0.1-0.3-0.2-0.5-0.4-0.8
		c-0.2-0.2-0.5-0.3-0.8-0.4l-4.2-0.8c-0.3-0.1-0.6-0.2-0.8-0.4c-0.3-0.3-0.4-0.6-0.4-1c0-0.7,0.5-1.3,1.1-1.5l9.9-2.5
		c0.5-0.1,1,0,1.4,0.4c0.3,0.3,0.4,0.7,0.4,1.1C406.3,1160.8,406.3,1160.9,406.2,1161"/>
	<rect x="335.4" y="1229.2" class="st23" width="117.2" height="17.2"/>
	<g>
		<g>
			<g>
				<g>
					<defs>
						<path id="SVGID_00000122713925096964113650000009414782619782446257_" d="M304.1,1215c-0.4,3.7-0.7,7.4-0.6,11.2
							c0,3.8,0.3,7.6,0.7,11.2c0.7,5.1,1.7,10.1,3.2,15c0.1,0.3,0.2,0.7,0.3,1h173.6c0.5-1.6,1-3.2,1.4-4.8c1-3.9,1.8-7.9,2.2-12
							c0.4-3.6,0.6-7.3,0.6-11.1c0-3.6-0.2-7.1-0.6-10.6H304.1V1215z"/>
					</defs>
					<clipPath id="SVGID_00000091705720356791635790000014125256580740860302_">
						<use xlink:href="#SVGID_00000122713925096964113650000009414782619782446257_"  style="overflow:visible;"/>
					</clipPath>
					
						<linearGradient id="SVGID_00000086674350139546755620000001894552495122354846_" gradientUnits="userSpaceOnUse" x1="-2743.6465" y1="-1859.4401" x2="-2742.7708" y2="-1859.4401" gradientTransform="matrix(207.9665 0 0 207.9665 570889.9375 387935.4688)">
						<stop  offset="0" style="stop-color:#101010"/>
						<stop  offset="1" style="stop-color:#333333"/>
					</linearGradient>
					
						<rect x="303.4" y="1215" style="clip-path:url(#SVGID_00000091705720356791635790000014125256580740860302_);fill:url(#SVGID_00000086674350139546755620000001894552495122354846_);" width="182.1" height="38.4"/>
				</g>
			</g>
		</g>
	</g>
	
		<linearGradient id="SVGID_00000094614516331800231350000003375111678854676140_" gradientUnits="userSpaceOnUse" x1="-2743.6792" y1="-1859.4955" x2="-2742.8035" y2="-1859.4955" gradientTransform="matrix(208.966 0 0 208.966 573638.6875 389805.5625)">
		<stop  offset="0" style="stop-color:#101010"/>
		<stop  offset="1" style="stop-color:#333333"/>
	</linearGradient>
	<path style="fill:url(#SVGID_00000094614516331800231350000003375111678854676140_);" d="M485.5,1225.6L485.5,1225.6
		c0,0.1,0,0.2,0,0.3c0,3.6-0.2,7.2-0.6,10.8c-0.5,4.1-1.2,8.1-2.2,12c-0.4,1.6-0.9,3.2-1.4,4.8H307.7c-0.1-0.3-0.2-0.7-0.3-1
		c-1.5-4.8-2.6-9.8-3.2-15c-0.5-3.7-0.7-7.4-0.7-11.2c0-0.1,0-0.2,0-0.3c0-3.7,0.2-7.3,0.6-10.9h180.8
		C485.3,1218.5,485.5,1222,485.5,1225.6L485.5,1225.6L485.5,1225.6c0-3.6-0.2-7.1-0.6-10.6H304.1c-0.4,3.6-0.6,7.2-0.6,10.9
		c0,0.1,0,0.2,0,0.3c0,3.8,0.3,7.6,0.7,11.2c0.7,5.1,1.7,10.1,3.2,15c0.1,0.3,0.2,0.7,0.3,1h173.6c0.5-1.6,1-3.2,1.4-4.8
		c1-3.9,1.8-7.9,2.2-12c0.4-3.5,0.6-7.1,0.6-10.8C485.5,1225.8,485.5,1225.7,485.5,1225.6L485.5,1225.6z"/>
	<path class="st26" d="M307.7,1253.4h-2.2c-2.5-8.1-3.9-16.6-4.1-25.2v-4.5c0.1-2.9,0.3-5.8,0.6-8.7h2.1c-0.4,3.7-0.7,7.4-0.6,11.2
		c0,3.8,0.3,7.6,0.7,11.2c0.7,5.1,1.7,10.1,3.2,15C307.5,1252.8,307.6,1253.1,307.7,1253.4"/>
	<path class="st27" d="M487.5,1221.5v8.7c-0.3,7.1-1.5,14.2-3.5,21.3c-0.2,0.6-0.4,1.3-0.6,1.9h-2.2c0.5-1.6,1-3.2,1.4-4.8
		c1-3.9,1.8-7.9,2.2-12c0.4-3.6,0.6-7.3,0.6-11.1c0-3.6-0.2-7.1-0.6-10.6h2.1C487.3,1217.2,487.4,1219.4,487.5,1221.5"/>
	<g>
		<g>
			<path d="M352.5,1262.1l-2.4,6.4h-1.4l-1.7-4.4l-1.7,4.4h-1.4l-2.4-6.4h1.4l1.7,4.7l1.8-4.7h1.3l1.7,4.8l1.7-4.8H352.5z"/>
			<path d="M363.4,1262.1l-2.4,6.4h-1.4l-1.7-4.4l-1.7,4.4h-1.4l-2.4-6.4h1.4l1.7,4.7l1.8-4.7h1.3l1.7,4.8l1.7-4.8H363.4z"/>
			<path d="M374.3,1262.1l-2.4,6.4h-1.4l-1.7-4.4l-1.7,4.4h-1.4l-2.4-6.4h1.4l1.7,4.7l1.8-4.7h1.3l1.7,4.8l1.7-4.8H374.3z"/>
			<path d="M374.7,1268.4c-0.2-0.2-0.3-0.4-0.3-0.7c0-0.3,0.1-0.5,0.3-0.7c0.2-0.2,0.4-0.3,0.7-0.3c0.3,0,0.5,0.1,0.7,0.3
				c0.2,0.2,0.3,0.4,0.3,0.7c0,0.3-0.1,0.5-0.3,0.7c-0.2,0.2-0.4,0.3-0.7,0.3C375.1,1268.6,374.9,1268.5,374.7,1268.4z"/>
			<path d="M383.9,1262.1v6.4h-1.4v-0.8c-0.2,0.3-0.5,0.5-0.9,0.7c-0.4,0.2-0.7,0.2-1.2,0.2c-0.9,0-1.5-0.2-2-0.7s-0.7-1.2-0.7-2.1
				v-3.7h1.5v3.5c0,0.6,0.1,1,0.4,1.3c0.3,0.3,0.6,0.4,1.1,0.4c0.5,0,1-0.2,1.3-0.5c0.3-0.3,0.5-0.8,0.5-1.4v-3.2H383.9z"/>
			<path d="M391.1,1262.5c0.5,0.3,0.9,0.7,1.2,1.2c0.3,0.5,0.4,1.1,0.4,1.7c0,0.6-0.1,1.2-0.4,1.7c-0.3,0.5-0.7,0.9-1.2,1.2
				c-0.5,0.3-1,0.4-1.7,0.4c-0.9,0-1.5-0.3-2.1-0.9v3.1h-1.5v-8.7h1.4v0.8c0.2-0.3,0.6-0.5,0.9-0.7c0.4-0.2,0.8-0.2,1.2-0.2
				C390.1,1262.1,390.6,1262.2,391.1,1262.5z M390.6,1266.8c0.4-0.4,0.5-0.9,0.5-1.5c0-0.6-0.2-1.1-0.5-1.5
				c-0.4-0.4-0.8-0.6-1.4-0.6c-0.4,0-0.7,0.1-1,0.2s-0.5,0.4-0.7,0.7s-0.3,0.7-0.3,1.1c0,0.4,0.1,0.8,0.3,1.1
				c0.2,0.3,0.4,0.5,0.7,0.7s0.6,0.2,1,0.2C389.8,1267.4,390.3,1267.2,390.6,1266.8z"/>
			<path d="M394.1,1259.6h1.5v8.9h-1.5V1259.6z"/>
			<path d="M403.6,1265.8h-5c0.1,0.5,0.3,0.8,0.7,1.1c0.4,0.3,0.8,0.4,1.4,0.4c0.7,0,1.3-0.2,1.7-0.7l0.8,0.9
				c-0.3,0.3-0.7,0.6-1.1,0.8c-0.4,0.2-0.9,0.3-1.5,0.3c-0.7,0-1.3-0.1-1.9-0.4c-0.5-0.3-1-0.7-1.2-1.2s-0.4-1.1-0.4-1.7
				c0-0.6,0.1-1.2,0.4-1.7c0.3-0.5,0.7-0.9,1.2-1.2c0.5-0.3,1.1-0.4,1.7-0.4c0.6,0,1.2,0.1,1.7,0.4c0.5,0.3,0.9,0.7,1.2,1.2
				c0.3,0.5,0.4,1.1,0.4,1.7C403.6,1265.5,403.6,1265.6,403.6,1265.8z M399.2,1263.7c-0.3,0.3-0.5,0.7-0.6,1.1h3.6
				c-0.1-0.5-0.3-0.8-0.6-1.1s-0.7-0.4-1.2-0.4C399.9,1263.3,399.5,1263.4,399.2,1263.7z"/>
			<path d="M408.8,1262.1v1.4c-0.1,0-0.2,0-0.3,0c-0.6,0-1,0.2-1.4,0.5c-0.3,0.3-0.5,0.8-0.5,1.5v3.1h-1.5v-6.4h1.4v0.9
				C406.9,1262.4,407.7,1262.1,408.8,1262.1z"/>
			<path d="M410.5,1268.4c-0.5-0.1-0.9-0.3-1.2-0.5l0.6-1.1c0.3,0.2,0.6,0.3,1,0.5c0.4,0.1,0.8,0.2,1.2,0.2c0.9,0,1.3-0.2,1.3-0.7
				c0-0.2-0.1-0.4-0.3-0.5c-0.2-0.1-0.6-0.2-1.1-0.3c-0.5-0.1-1-0.2-1.3-0.3c-0.3-0.1-0.6-0.3-0.9-0.5s-0.4-0.6-0.4-1.1
				c0-0.6,0.3-1.1,0.8-1.5c0.5-0.4,1.2-0.5,2.1-0.5c0.4,0,0.9,0.1,1.3,0.2c0.4,0.1,0.8,0.2,1.1,0.4l-0.6,1.1
				c-0.5-0.3-1.2-0.5-1.8-0.5c-0.4,0-0.8,0.1-1,0.2c-0.2,0.1-0.3,0.3-0.3,0.5c0,0.2,0.1,0.4,0.4,0.5c0.2,0.1,0.6,0.2,1.1,0.3
				c0.5,0.1,0.9,0.2,1.3,0.3c0.3,0.1,0.6,0.3,0.8,0.5s0.4,0.6,0.4,1.1c0,0.6-0.3,1.1-0.8,1.4c-0.5,0.4-1.2,0.5-2.1,0.5
				C411.5,1268.6,411,1268.6,410.5,1268.4z"/>
			<path d="M416,1268.4c-0.2-0.2-0.3-0.4-0.3-0.7c0-0.3,0.1-0.5,0.3-0.7c0.2-0.2,0.4-0.3,0.7-0.3s0.5,0.1,0.7,0.3
				c0.2,0.2,0.3,0.4,0.3,0.7c0,0.3-0.1,0.5-0.3,0.7c-0.2,0.2-0.4,0.3-0.7,0.3C416.4,1268.6,416.2,1268.5,416,1268.4z"/>
			<path d="M420.2,1268.2c-0.5-0.3-0.9-0.7-1.2-1.2s-0.4-1.1-0.4-1.7s0.1-1.2,0.4-1.7c0.3-0.5,0.7-0.9,1.2-1.2
				c0.5-0.3,1.1-0.4,1.8-0.4c0.6,0,1.2,0.1,1.7,0.4c0.5,0.3,0.8,0.6,1.1,1.1l-1.2,0.7c-0.2-0.3-0.4-0.5-0.7-0.7
				c-0.3-0.1-0.6-0.2-0.9-0.2c-0.6,0-1,0.2-1.4,0.5c-0.4,0.4-0.6,0.9-0.6,1.5c0,0.6,0.2,1.1,0.5,1.5c0.4,0.4,0.8,0.5,1.4,0.5
				c0.3,0,0.6-0.1,0.9-0.2s0.5-0.4,0.7-0.7l1.2,0.7c-0.2,0.5-0.6,0.9-1.1,1.1s-1,0.4-1.7,0.4
				C421.3,1268.6,420.7,1268.5,420.2,1268.2z"/>
			<path d="M427.1,1268.2c-0.5-0.3-0.9-0.7-1.2-1.2s-0.4-1.1-0.4-1.7s0.1-1.2,0.4-1.7c0.3-0.5,0.7-0.9,1.2-1.2
				c0.5-0.3,1.1-0.4,1.8-0.4c0.7,0,1.2,0.1,1.8,0.4c0.5,0.3,0.9,0.7,1.2,1.2c0.3,0.5,0.4,1.1,0.4,1.7s-0.1,1.2-0.4,1.7
				c-0.3,0.5-0.7,0.9-1.2,1.2c-0.5,0.3-1.1,0.4-1.8,0.4C428.2,1268.6,427.6,1268.5,427.1,1268.2z M430.2,1266.8
				c0.4-0.4,0.5-0.9,0.5-1.5c0-0.6-0.2-1.1-0.5-1.5c-0.4-0.4-0.8-0.6-1.4-0.6s-1,0.2-1.4,0.6c-0.4,0.4-0.5,0.9-0.5,1.5
				c0,0.6,0.2,1.1,0.5,1.5c0.4,0.4,0.8,0.6,1.4,0.6S429.8,1267.2,430.2,1266.8z"/>
			<path d="M443.7,1262.8c0.5,0.5,0.7,1.2,0.7,2.1v3.7h-1.5v-3.5c0-0.6-0.1-1-0.4-1.3c-0.2-0.3-0.6-0.4-1.1-0.4
				c-0.5,0-0.9,0.2-1.2,0.5c-0.3,0.3-0.5,0.8-0.5,1.4v3.3h-1.5v-3.5c0-0.6-0.1-1-0.4-1.3s-0.6-0.4-1.1-0.4c-0.5,0-0.9,0.2-1.2,0.5
				s-0.5,0.8-0.5,1.4v3.3h-1.5v-6.4h1.4v0.8c0.2-0.3,0.5-0.5,0.9-0.7c0.4-0.2,0.8-0.2,1.2-0.2c0.5,0,0.9,0.1,1.3,0.3
				s0.7,0.4,0.9,0.8c0.3-0.3,0.6-0.6,1-0.8c0.4-0.2,0.9-0.3,1.4-0.3C442.6,1262.1,443.2,1262.3,443.7,1262.8z"/>
		</g>
	</g>
	<path class="st19" d="M457.1,1186.5c0,0-3.8-5.3-7.3-5.7c-3.2-0.3-6.4,0.7-6.4,0.7s6.7,4.8,9.9,5.7
		C455.8,1188.1,457.1,1186.5,457.1,1186.5"/>
	<path class="st19" d="M467.6,1247.4c0,0,1.7,1.1,3.8-0.8c2.7-2.5,6.3-12.4,6.3-12.4s-3,1.8-5.6,4.2
		C469.3,1241,467.6,1247.4,467.6,1247.4"/>
	<path class="st19" d="M463.7,1258.1c3.7-8,5.9-16.8,6.3-26.1c0.3,0.1,2,0.5,3.5-1.7c2.2-3.1,3.9-13.6,3.9-13.6s-2.7,2.4-4.7,5.4
		c-1.8,2.6-2.5,7.3-2.7,9.1c0-1,0.1-1.9,0.1-2.9c0-4.2-0.3-8.4-1-12.4c0.6-0.1,1.9-0.6,2.7-2.6c1.4-3.6,0.5-14.3,0.5-14.3
		s-2,3.1-3.3,6.6c-0.7,1.8-0.8,4.1-0.7,6.1c-0.8-3.9-1.9-7.6-3.3-11.3c0.5-0.2,1.9-0.8,2.4-3.2c0.8-3.9-2-14.1-2-14.1
		s-1.4,3.5-2,7.2c-0.4,2.5,0.2,5.7,0.8,7.8c-1.7-4.2-3.9-8.2-6.3-12c0.4-0.2,1.8-1.1,1.8-3.8c0.1-4-4.7-13.4-4.7-13.4
		s-0.7,3.7-0.6,7.5c0,3.1,1.9,7,2.9,8.7c-1.6-2.4-3.3-4.6-5.2-6.8c-0.4-1.4-1.9-4.8-5.9-7.4c-4.7-3-12.3-6-12.3-6s8.2,7.9,12.5,11.1
		c2.5,1.9,4.6,2.6,5.5,2.9c5,5.8,9,12.4,11.9,19.5c-1.1-1.8-2.8-4.2-4.8-4.9c-3-1-6.3-0.7-6.3-0.7s5.6,6.2,8.5,7.8
		c1.7,1,3,0.5,3.6,0.2c1.7,4.6,3,9.3,3.8,14.2c-0.6-1.9-2-5.9-4.4-7.3c-2.8-1.7-6-2-6-2s4.3,7.3,6.9,9.5c1.7,1.5,3.2,1.1,3.6,0.9
		c0.6,4,1,8.1,1,12.2c0,1.2,0,2.4-0.1,3.6c-0.1-0.8-0.6-6.8-3.2-9.1c-2.4-2.2-5.5-3.3-5.5-3.3s3,8.1,5.2,10.9c1.6,2,3.3,1.7,3.5,1.7
		c-0.3,5.2-1.1,10.2-2.4,15c0.1-1.4,0.4-6.8-1.6-9.4c-2-2.7-4.9-4.5-4.9-4.5s1.6,8.6,3.3,11.8c1.2,2.3,2.8,2.4,3.1,2.4
		c-1.2,4.6-2.9,8.9-5.1,13.1c0.4-2.1,1-6.1-0.2-8.6c-1.5-3.1-4-5.5-4-5.5s0.1,8.8,1.2,12.3c0.6,2,1.8,2.7,2.4,3
		c-2.5,4.7-5.6,9-9.3,13.1c0.8-1.8,2.3-5.9,1.5-8.9c-0.9-3.4-3-6.2-3-6.2s-1.4,8.6-1,12.3c0.3,2.2,1.3,3.1,1.8,3.5
		c-0.5,0.5-1,1-1.4,1.5c-2.5,2.5-5.2,4.9-8.1,7c1.3-1.7,3-4.6,3-7.1c0-3.6-1.3-6.9-1.3-6.9s-3.6,7.9-4.1,11.6
		c-0.3,1.9,0.3,3.1,0.7,3.7c-3.2,2.3-6.5,4.3-10.1,6.2c1.4-1,5.1-4,5.8-7.2c0.7-3.5,0.1-7,0.1-7s-5.2,6.9-6.6,10.3
		c-0.9,2.4,0,3.9,0.2,4.2c-3.6,1.8-7.3,3.5-11.3,4.9c1.9-0.9,5.8-3.2,6.9-6c1.3-3.3,1.2-6.9,1.2-6.9s-6.5,6-8.6,9.2
		c-1.3,2.1-0.7,3.7-0.6,4.1c-4.5,1.6-9.3,2.8-14.1,3.8c-9,1.7-14.3,5.2-17.3,8.1c0.2,0.1,0.4,0.1,0.6,0.2c2.9-2.8,8.1-6.1,16.8-7.8
		c4.8-0.9,9.5-2.2,14.1-3.7c0.1,0.5,0.5,2.1,3,2.8c3.8,1,14.1-1.8,14.1-1.8s-3.2-1.6-6.7-2.5c-2.5-0.6-6.1,0.1-8.3,0.7
		c3.6-1.3,7-2.8,10.3-4.5c0,0.2,0.6,2.1,3.3,2.4c3.7,0.4,12.9-3.8,12.9-3.8s-3.3-1.1-6.7-1.4c-2.6-0.2-5.9,1.1-7.9,2
		c3.4-1.8,6.6-3.8,9.6-6c0.3,0.5,1.2,1.8,3.4,1.7c3.6-0.2,11.8-5.9,11.8-5.9s-3.4-0.6-6.7-0.3c-1.6,0.1-3.5,1-5,1.9
		c2.1-1.7,4.1-3.5,6-5.4c0.5-0.5,1-1.1,1.5-1.6c0.3,0.4,1.4,1.6,3.6,1c3.5-0.8,10.6-8,10.6-8s-3.4,0.1-6.6,0.9
		c-1.7,0.5-3.5,1.8-5,3.1c2.9-3.5,5.4-7.1,7.5-11c0.4,0.3,1.7,1.1,3.7,0c3.1-1.8,8.4-10.7,8.4-10.7s-3.3,1-6.2,2.8
		C466.2,1254.7,464.8,1256.5,463.7,1258.1"/>
	<path class="st19" d="M331,1186.5c0,0,3.8-5.3,7.3-5.7c3.2-0.3,6.4,0.7,6.4,0.7s-6.7,4.8-9.9,5.7
		C332.3,1188.1,331,1186.5,331,1186.5"/>
	<path class="st19" d="M320.4,1247.4c0,0-1.7,1.1-3.8-0.8c-2.7-2.5-6.3-12.4-6.3-12.4s3,1.8,5.6,4.2
		C318.8,1241,320.4,1247.4,320.4,1247.4"/>
	<path class="st19" d="M324.3,1258.1c-3.7-8-5.9-16.8-6.3-26.1c-0.3,0.1-2,0.5-3.5-1.7c-2.2-3.1-3.9-13.6-3.9-13.6s2.7,2.4,4.7,5.4
		c1.8,2.6,2.5,7.3,2.7,9.1c0-1-0.1-1.9-0.1-2.9c0-4.2,0.3-8.4,1-12.4c-0.6-0.1-1.9-0.6-2.7-2.6c-1.4-3.6-0.5-14.3-0.5-14.3
		s2,3.1,3.3,6.6c0.7,1.8,0.8,4.1,0.7,6.1c0.8-3.9,1.9-7.6,3.3-11.3c-0.5-0.2-1.9-0.8-2.4-3.2c-0.8-3.9,2-14.1,2-14.1s1.4,3.5,2,7.2
		c0.4,2.5-0.2,5.7-0.8,7.8c1.7-4.2,3.9-8.2,6.3-12c-0.4-0.2-1.8-1.1-1.8-3.8c-0.1-4,4.7-13.4,4.7-13.4s0.7,3.7,0.6,7.5
		c0,3.1-1.9,7-2.9,8.7c1.6-2.4,3.3-4.6,5.2-6.8c0.4-1.4,1.9-4.8,5.9-7.4c4.7-3,12.3-6,12.3-6s-8.2,7.9-12.5,11.1
		c-2.5,1.9-4.6,2.6-5.5,2.9c-5,5.8-9,12.4-11.9,19.5c1.1-1.8,2.8-4.2,4.8-4.9c3-1,6.3-0.7,6.3-0.7s-5.6,6.2-8.5,7.8
		c-1.7,1-3,0.5-3.6,0.2c-1.7,4.6-3,9.3-3.8,14.2c0.6-1.9,2-5.9,4.4-7.3c2.8-1.7,6-2,6-2s-4.3,7.3-6.9,9.5c-1.7,1.5-3.2,1.1-3.6,0.9
		c-0.6,4-1,8.1-1,12.2c0,1.2,0,2.4,0.1,3.6c0.1-0.8,0.6-6.8,3.2-9.1c2.4-2.2,5.5-3.3,5.5-3.3s-3,8.1-5.2,10.9
		c-1.6,2-3.3,1.7-3.5,1.7c0.3,5.2,1.1,10.2,2.4,15c-0.1-1.4-0.4-6.8,1.6-9.4c2-2.7,4.9-4.5,4.9-4.5s-1.6,8.6-3.3,11.8
		c-1.2,2.3-2.8,2.4-3.1,2.4c1.2,4.6,2.9,8.9,5.1,13.1c-0.4-2.1-1-6.1,0.2-8.6c1.5-3.1,4-5.5,4-5.5s-0.1,8.8-1.2,12.3
		c-0.6,2-1.8,2.7-2.4,3c2.5,4.7,5.6,9,9.3,13.1c-0.8-1.8-2.3-5.9-1.5-8.9c0.9-3.4,3-6.2,3-6.2s1.4,8.6,1,12.3
		c-0.3,2.2-1.3,3.1-1.8,3.5c0.5,0.5,1,1,1.4,1.5c2.5,2.5,5.2,4.9,8.1,7c-1.3-1.7-3-4.6-3-7.1c0-3.6,1.3-6.9,1.3-6.9
		s3.6,7.9,4.1,11.6c0.3,1.9-0.3,3.1-0.7,3.7c3.2,2.3,6.5,4.3,10.1,6.2c-1.4-1-5.1-4-5.8-7.2c-0.7-3.5-0.1-7-0.1-7s5.2,6.9,6.6,10.3
		c0.9,2.4,0,3.9-0.2,4.2c3.6,1.8,7.3,3.5,11.3,4.9c-1.9-0.9-5.8-3.2-6.9-6c-1.3-3.3-1.2-6.9-1.2-6.9s6.5,6,8.6,9.2
		c1.3,2.1,0.7,3.7,0.6,4.1c4.5,1.6,9.3,2.8,14.1,3.8c9,1.7,14.3,5.2,17.3,8.1c-0.2,0.1-0.4,0.1-0.6,0.2c-2.9-2.8-8.1-6.1-16.8-7.8
		c-4.8-0.9-9.5-2.2-14.1-3.7c-0.1,0.5-0.5,2.1-3,2.8c-3.8,1-14.1-1.8-14.1-1.8s3.2-1.6,6.7-2.5c2.5-0.6,6.1,0.1,8.3,0.7
		c-3.6-1.3-7-2.8-10.3-4.5c0,0.2-0.6,2.1-3.3,2.4c-3.7,0.4-12.9-3.8-12.9-3.8s3.3-1.1,6.7-1.4c2.6-0.2,5.9,1.1,7.9,2
		c-3.4-1.8-6.6-3.8-9.6-6c-0.3,0.5-1.2,1.8-3.4,1.7c-3.6-0.2-11.8-5.9-11.8-5.9s3.4-0.6,6.7-0.3c1.6,0.1,3.5,1,5,1.9
		c-2.1-1.7-4.1-3.5-6-5.4c-0.5-0.5-1-1.1-1.5-1.6c-0.3,0.4-1.4,1.6-3.6,1c-3.5-0.8-10.6-8-10.6-8s3.4,0.1,6.6,0.9
		c1.7,0.5,3.5,1.8,5,3.1c-2.9-3.5-5.4-7.1-7.5-11c-0.4,0.3-1.7,1.1-3.7,0c-3.1-1.8-8.4-10.7-8.4-10.7s3.3,1,6.2,2.8
		C321.9,1254.7,323.3,1256.5,324.3,1258.1"/>
	<g>
		<path class="st22" d="M372.8,1238v2.4h-10v-12.9h9.7v2.4h-6.8v2.8h6v2.3h-6v3L372.8,1238L372.8,1238z"/>
		<path class="st22" d="M381.1,1240.4l-2.2-3l-2.2,3h-3.1l3.8-5l-3.7-4.9h3.2l2.1,2.9l2.2-2.9h3.1l-3.7,4.8l3.8,5.1H381.1z"/>
		<path class="st22" d="M396.3,1235.5c0,3.1-2.2,5.1-4.9,5.1c-1.2,0-2.2-0.4-3-1.2v4.6h-2.9v-13.5h2.7v1.1c0.7-0.9,1.8-1.3,3.1-1.3
			C394.2,1230.4,396.3,1232.4,396.3,1235.5z M393.4,1235.5c0-1.7-1.1-2.7-2.5-2.7s-2.5,1-2.5,2.7s1.1,2.7,2.5,2.7
			S393.4,1237.2,393.4,1235.5z"/>
		<path class="st22" d="M407.7,1236.3h-7.5c0.3,1.2,1.3,2,2.8,2c1,0,1.8-0.3,2.5-1l1.5,1.7c-0.9,1-2.3,1.6-4.1,1.6
			c-3.4,0-5.6-2.2-5.6-5.1c0-3,2.3-5.1,5.3-5.1c2.9,0,5.2,2,5.2,5.1C407.8,1235.7,407.7,1236.1,407.7,1236.3z M400.2,1234.6h4.9
			c-0.2-1.3-1.1-2.1-2.4-2.1C401.3,1232.6,400.4,1233.4,400.2,1234.6z"/>
		<path class="st22" d="M415.7,1230.4v2.6c-0.2,0-0.4,0-0.6,0c-1.6,0-2.6,0.9-2.6,2.8v4.7h-2.9v-9.9h2.7v1.3
			C413,1230.9,414.2,1230.4,415.7,1230.4z"/>
		<path class="st22" d="M423.7,1240c-0.6,0.4-1.5,0.6-2.3,0.6c-2.3,0-3.7-1.2-3.7-3.6v-4.1h-1.5v-2.2h1.5v-2.4h2.9v2.4h2.5v2.2h-2.5
			v4c0,0.8,0.5,1.3,1.2,1.3c0.4,0,0.8-0.1,1.2-0.4L423.7,1240z"/>
	</g>
</g>
<g>
	<path class="st28" d="M129.8,128.3V114c0-7.7,6.3-14,14-14h13.5c7.7,0,14,6.3,14,14v14.3"/>
	<path class="st29" d="M184,128.2h-58.8c-4,0-7.2-3.2-7.2-7.2V70c0-4,3.2-7.2,7.2-7.2h84.2c4,0,7.2,3.2,7.2,7.2v32.3"/>
	<ellipse class="st30" cx="150.5" cy="83.9" rx="8.3" ry="9.5"/>
	<polyline class="st29" points="173.7,75.5 177,79.3 182,72.7 	"/>
	<line class="st29" x1="188.6" y1="75.2" x2="205" y2="75.2"/>
	<polyline class="st29" points="173.7,90.5 177,94.2 182,87.6 	"/>
	<line class="st29" x1="188.6" y1="90.1" x2="194.4" y2="90.1"/>
	<ellipse class="st30" cx="206.9" cy="102.9" rx="9.7" ry="11.2"/>
	<line class="st29" x1="124.2" y1="153.9" x2="172.6" y2="153.9"/>
	<path class="st29" d="M194.4,146.4c-5,7.5-20.7,7.5-20.7,7.5s-5,0-5-4.1s3.8-4.6,3.8-4.6s11.9,2.1,16.9-11.2s14.1-13.3,14.1-13.3
		h9.5c0,0,14.5,0,16.1,17.4v20.3c0,0,0.4,13.2-12.6,13.2s-44,0-44,0s1.2-10.2,9.4-10.2c8.3,0,11.6,0,11.6,0"/>
	<path class="st29" d="M185.9,171.2c0,0,8.5-3.2,8.5-12.3s0-12.7,0-12.7s-1.1-11.5,11.5-11.5c12.5,0,16.1,0,16.1,0s7.1,0,7.1,7.1"/>
</g>
<g>
	<path class="st31" d="M365.7,374.9h39.8c3.1,0,5.6-2.5,5.6-5.6v-39.1c0-3.1-2.5-5.6-5.6-5.6h-58.9c-3.1,0-5.6,2.5-5.6,5.6v39.1
		c0,3.1,2.5,5.6,5.6,5.6v18.9L365.7,374.9z"/>
	<path class="st29" d="M391.9,318.2v-23.8c0-3.1,2.5-5.6,5.6-5.6h58.9c3.1,0,5.6,2.5,5.6,5.6v39.1c0,3.1-2.5,5.6-5.6,5.6V358
		l-19-18.9h-20"/>
	<g>
		<line class="st32" x1="413.5" y1="302.8" x2="440.8" y2="302.8"/>
		<line class="st32" x1="427" y1="298.7" x2="427" y2="302.8"/>
		<path class="st32" d="M435.3,302.8c0,0-0.8,16.4-17,25.4"/>
		<path class="st32" d="M420.1,310.1c0,0,5.4,12.6,18.9,19.8"/>
		<polyline class="st29" points="364.4,365.9 376.4,334.2 388.4,365.9 		"/>
		<line class="st29" x1="368" y1="356.9" x2="384.9" y2="356.9"/>
	</g>
</g>
<g>
	<g>
		<path class="st29" d="M134.9,547.6v-12.4c0-6.6,5.8-12,12.8-12h12.4c7.1,0,12.8,5.4,12.8,12"/>
		<line class="st29" x1="128.9" y1="547.8" x2="164" y2="547.8"/>
		<ellipse class="st29" cx="154" cy="508.5" rx="7.6" ry="8.6"/>
		<path class="st29" d="M143.8,547.5l-1.3-11.9c-0.2-1.3,0.9-2.5,2.2-2.5h18.2c1.3,0,2.4,1.2,2.2,2.5l-1.4,12.2"/>
	</g>
	<polygon class="st31" points="173.7,575.6 169.2,585 158,587.3 165.4,594.7 164,605.2 173.7,599.9 183.1,605.2 181.9,594.7 
		189.3,587.3 178.9,585 	"/>
	<polyline class="st31" points="156.1,590.1 151.5,589.1 147.5,581.9 144.1,589.1 135.6,590.8 141.3,596.5 140.1,604.4 147.5,600.5 
		154.7,604.4 153.8,596.5 157.5,592.7 	"/>
	<polyline class="st31" points="130.7,590.1 126.1,589.1 122.1,581.9 118.7,589.1 110.2,590.8 115.9,596.5 114.7,604.4 122.1,600.5 
		129.3,604.4 128.4,596.5 132.1,592.7 	"/>
	<polyline class="st31" points="191.5,590.1 196.1,589.1 200.1,581.9 203.5,589.1 212.1,590.8 206.4,596.5 207.5,604.4 200.1,600.5 
		192.9,604.4 193.9,596.5 190.1,592.7 	"/>
	<polyline class="st31" points="216.9,590.1 221.5,589.1 225.5,581.9 228.9,589.1 237.5,590.8 231.8,596.5 232.9,604.4 225.5,600.5 
		218.3,604.4 219.3,596.5 215.5,592.7 	"/>
	<path class="st29" d="M163.3,568.1"/>
	<g>
		<path class="st29" d="M163.3,568.3v-15c0-8,7-14.6,15.6-14.6H194c8.6,0,15.6,6.6,15.6,14.6v15"/>
		<line class="st29" x1="156" y1="568.5" x2="217" y2="568.5"/>
		<ellipse class="st29" cx="186.6" cy="520.8" rx="9.2" ry="10.5"/>
		<path class="st29" d="M174.1,568.1l-1.6-14.4c-0.2-1.6,1.1-3,2.7-3h22.1c1.6,0,2.9,1.4,2.7,3l-1.7,14.8"/>
	</g>
</g>
<g>
	<g>
		<path class="st29" d="M374.9,805.5c0-7.4-6.4-13.4-14.3-13.4h-13.8c-7.8,0-14.3,6-14.3,13.4v13.7h36.6"/>
		<ellipse class="st29" cx="353.9" cy="775.6" rx="8.4" ry="9.6"/>
	</g>
	<g>
		<path class="st29" d="M414.7,805.5c0-7.4,6.4-13.4,14.3-13.4h13.8c7.8,0,14.3,6,14.3,13.4v13.7h-36.5"/>
		<ellipse class="st29" cx="435.8" cy="775.6" rx="8.4" ry="9.6"/>
	</g>
	<g>
		<path class="st31" d="M420.6,834.7V818c0-8.9-7.8-16.2-17.3-16.2h-16.7c-9.5,0-17.3,7.3-17.3,16.2v16.7H420.6z"/>
		<ellipse class="st29" cx="395.1" cy="781.8" rx="10.2" ry="11.6"/>
	</g>
	<path class="st33" d="M351.9,762.2l1.3-7.3l12.3,3.7c0,0,1.4-6.6,6.6-11.8l-9.8-8.5c0,0,10.8-11.6,22.4-13.3l2.5,12.5
		c0,0,6.6-1.7,14.1,0L404,725c0,0,14.8,3.3,22.3,13.3l-9.3,8.5c0,0,5,6.2,6.7,12.2l12.5-4c0,0,1.2,4.7,1.4,7.3"/>
	<path class="st33" d="M379.5,778.1c-1.9-2.9-3-6.3-3-10c0-10.1,8.2-18.2,18.2-18.2c10.1,0,18.2,8.2,18.2,18.2
		c0,3.4-0.9,6.6-2.6,9.4"/>
</g>
<g>
	<path class="st31" d="M116.1,1045.5V1025c0,0-0.3-21.7,20.8-21.7s17.7,0,17.7,0s14.3-0.3,20.5,14.4l4.6,17h11.6
		c0,0,8.4-0.9,6.9,10.8"/>
	<path class="st29" d="M205.6,1034.8h16.1l14.7-33.7c0,0,2.2-3.5-4.8-3.5s-45.7,0-45.7,0s-3.9-0.8-5.4,4.6l-5.4,15.5"/>
	<path class="st29" d="M134.8,984.2c0,0-7,2.2-7-5.1c0-8.5,7-5.8,7-5.8s-3.9-15.9,11.6-15.9c14.7,0,14.7,6.2,14.7,15.8
		c0,0,7-2.2,7,5.1c0,8.5-7,5.8-7,5.8l-11.6-1.1"/>
	<line class="st29" x1="108.6" y1="1045.5" x2="225.4" y2="1045.5"/>
	<ellipse class="st29" cx="147.9" cy="977.1" rx="13.2" ry="15.9"/>
	<line class="st29" x1="161.9" y1="1030.9" x2="165.3" y2="1045.5"/>
</g>
</svg>
