<?xml version="1.0" encoding="utf-8"?>
<!-- Generator: Adobe Illustrator 16.0.0, SVG Export Plug-In . SVG Version: 6.00 Build 0)  -->
<!DOCTYPE svg PUBLIC "-//W3C//DTD SVG 1.1//EN" "http://www.w3.org/Graphics/SVG/1.1/DTD/svg11.dtd">
<svg version="1.1" id="Layer_1" xmlns="http://www.w3.org/2000/svg" xmlns:xlink="http://www.w3.org/1999/xlink" x="0px" y="0px"
	 width="160px" height="27.926px" viewBox="0 0 160 27.926" enable-background="new 0 0 160 27.926" xml:space="preserve">
<g>
	<path fill="#FFFFFF" d="M154.577,10.441c0.358-1.588-0.468-1.631-1.483-1.57c-1.062,0.064-2.135,0.042-3.197,0.004
		c-0.615-0.022-0.871,0.129-0.867,0.813c0.026,5.143,0.022,10.284,0.005,15.425c-0.003,0.585,0.15,0.813,0.766,0.793
		c1.332-0.038,2.666-0.042,3.999,0.004c0.664,0.021,0.841-0.216,0.828-0.851c-0.031-1.978-0.01-3.96-0.01-5.939
		c0-2.98,1.553-4.86,4.52-5.355c0.655-0.11,0.921-0.284,0.881-0.984c-0.066-1.14-0.075-2.288-0.022-3.426
		c0.034-0.796-0.294-0.853-0.96-0.748C157.482,8.849,156.027,9.317,154.577,10.441z"/>
	<path fill="#FFFFFF" d="M40.257,0.718c-0.152,0.533,0.19,0.951,0.357,1.395c2.841,7.552,5.691,15.103,8.571,22.638
		c0.329,0.861,0.32,1.21-0.75,1.145c-1.366-0.081-2.742-0.051-4.112-0.004c-0.635,0.021-0.962-0.152-1.149-0.791
		c-0.312-1.057-0.745-2.078-1.083-3.128c-0.164-0.508-0.421-0.708-0.981-0.701c-2.475,0.031-4.951,0.029-7.427,0
		c-0.554-0.007-0.817,0.184-0.983,0.701c-0.348,1.087-0.758,2.154-1.13,3.231c-0.131,0.377-0.249,0.693-0.76,0.679
		c-3.119-0.098-6.255,0.246-9.359-0.199c-4.7-0.671-8.384-2.727-9.773-7.654c-0.172-0.604-0.654-0.55-1.078-0.649
		C4.708,15.988,0.683,11.485,0.234,5.783C0.24,5.228,0.432,4.649,0.027,4.146c0-0.876,0.058-1.756-0.017-2.627
		c-0.06-0.688,0.136-0.822,0.817-0.82c7.505,0.03,15.009,0.02,22.516,0.02c0.345,0.323,0.76,0.243,1.167,0.202
		c2.138,0.365,3.964,1.287,5.343,3.003c0.314,0.392,0.569,0.766,0.341,1.336c-0.658,1.649-1.269,3.317-1.96,5.138
		c-0.314-0.743-0.539-1.339-0.813-1.911c-0.92-1.923-2.435-3.009-4.587-3.022C17.127,5.43,11.419,5.45,5.712,5.419
		c-0.788-0.005-0.77,0.367-0.638,0.92c0.633,2.634,2.089,4.618,4.578,5.774c1.583,0.734,3.265,1.063,4.998,0.924
		c1.11-0.09,1.663,0.188,1.424,1.393c-0.03,0.147-0.004,0.302-0.004,0.455c0.001,3.229,1.264,4.893,4.376,5.815
		c1.896,0.56,3.837,0.46,5.775,0.518c0.781,0.022,1.134-0.244,1.403-0.967c2.294-6.163,4.629-12.313,6.942-18.47
		c0.125-0.336,0.416-0.657,0.204-1.063C36.6,0.718,38.429,0.718,40.257,0.718z M37.396,8.873c-0.839,2.41-1.554,4.485-2.292,6.551
		c-0.164,0.462-0.049,0.615,0.429,0.61c1.398-0.014,2.797-0.005,4.351-0.005C39.062,13.667,38.284,11.427,37.396,8.873z"/>
	<path fill="#FFFFFF" d="M115.956,0.913c2.378,0.505,3.275,1.598,3.305,4.174c0.03,3.083,0.003,6.167,0.014,9.252
		c0,0.357-0.112,0.739,0.173,1.199c1.567-1.97,3.124-3.871,4.611-5.826c0.489-0.642,1.009-0.898,1.813-0.873
		c1.774,0.057,3.553,0.018,5.608,0.018c-0.633,0.822-1.099,1.443-1.58,2.051c-1.368,1.734-2.719,3.481-4.125,5.18
		c-0.439,0.534-0.47,0.875-0.016,1.433c2.177,2.683,4.304,5.41,6.646,8.375c-1.63,0-3.021-0.129-4.379,0.032
		c-1.794,0.212-2.943-0.42-3.955-1.912c-1.386-2.04-3.026-3.907-4.604-5.912c-0.321,0.395-0.189,0.815-0.193,1.192
		c-0.015,1.903-0.034,3.809,0.008,5.71c0.013,0.698-0.202,0.93-0.906,0.902c-1.254-0.048-2.511-0.038-3.766-0.004
		c-0.565,0.015-0.808-0.118-0.806-0.748c0.033-8.146,0.043-16.294,0.054-24.44c0.383,0,0.763,0,1.143,0
		C115.27,1.026,115.613,0.971,115.956,0.913z"/>
	<path fill="#FFFFFF" d="M137.633,26.319c-0.207-0.37-0.607-0.254-0.913-0.335c-4.716-1.233-7.19-4.958-6.622-10.006
		c0.486-4.34,4.018-7.508,8.534-7.723c5.773-0.275,9.395,3.792,9.126,9.868c-0.034,0.808-0.531,0.668-1.009,0.668
		c-3.463,0.004-6.93,0.036-10.391-0.018c-1.116-0.017-0.99,0.421-0.625,1.125c1.176,2.256,4.686,2.836,6.744,1.006
		c0.677-0.604,1.094-0.539,1.724-0.093c0.711,0.508,1.447,0.989,2.222,1.396c0.699,0.369,0.601,0.685,0.139,1.185
		c-1.428,1.547-3.163,2.463-5.255,2.71c-0.62,0.022-1.274-0.215-1.847,0.217c-0.075,0-0.152,0-0.229,0
		c-0.226-0.288-0.457-0.317-0.685,0C138.242,26.319,137.936,26.319,137.633,26.319z M138.919,15.164
		c0.874,0,1.748,0.006,2.623-0.002c1.057-0.01,1.179-0.206,0.761-1.204c-0.542-1.297-1.694-1.926-3.346-1.831
		c-1.547,0.089-3.012,1.118-3.373,2.325c-0.179,0.596,0.057,0.73,0.6,0.718C137.094,15.146,138.009,15.164,138.919,15.164z"/>
	<path fill="#FFFFFF" d="M74.296,26.106c-2.44-0.385-3.73-1.644-4.099-4.055c-0.103-0.673-0.148-1.362-0.149-2.046
		c-0.011-6.012-0.005-12.025-0.009-18.04c0-0.416-0.043-0.832-0.066-1.248c0.456,0,0.915,0,1.371,0
		c0.201,0.265,0.465,0.25,0.745,0.169c2.441,0.452,3.38,1.58,3.39,4.071c0.005,0.838,0.047,1.68-0.013,2.514
		c-0.051,0.73,0.248,0.914,0.921,0.883c1.027-0.045,2.058,0.024,3.085-0.024c0.667-0.031,0.854,0.222,0.832,0.858
		c-0.043,1.179-0.038,2.362-0.001,3.542c0.019,0.596-0.182,0.803-0.784,0.781c-1.102-0.04-2.209,0.011-3.313-0.018
		c-0.532-0.015-0.747,0.139-0.736,0.703c0.03,1.674-0.018,3.351,0.026,5.027c0.044,1.632,0.646,2.163,2.28,2.123
		c0.381-0.008,0.789,0.031,1.134-0.091c1.197-0.423,1.57,0.023,1.387,1.188c-0.046,0.297-0.006,0.607-0.006,0.911
		c0,2.479,0,2.479-2.512,2.767C76.618,26.119,75.457,26.111,74.296,26.106z"/>
	<path fill="#FFFFFF" d="M54.645,0.957c1.613,0.854,2.254,2.17,1.819,3.738c-0.369,1.336-1.659,2.267-3.097,2.234
		c-1.444-0.034-2.7-1.095-2.987-2.525c-0.3-1.497,0.39-2.642,2.22-3.686c0.458,0,0.915,0,1.374,0
		C54.136,0.97,54.384,0.983,54.645,0.957z"/>
	<path fill="#FFFFFF" d="M96.459,19.674c0,1.791,0,3.579,0,5.367c0,0.417,0.078,0.863-0.589,0.839
		c-3.231-0.111-6.481,0.28-9.69-0.268c-3.66-0.628-5.325-3.165-4.319-6.479c0.573-1.888,1.966-2.925,3.755-3.516
		c1.468-0.48,2.992-0.578,4.518-0.478c0.905,0.062,1.006-0.344,0.891-1.079c-0.215-1.355-1.232-2.07-2.772-1.854
		c-1.11,0.156-2.15,0.563-3.029,1.249c-0.571,0.445-0.879,0.333-1.269-0.202c-0.581-0.801-1.213-1.564-1.86-2.313
		c-0.334-0.388-0.259-0.602,0.115-0.915c2.668-2.243,8.411-2.697,11.375-0.875c1.962,1.208,2.814,3.036,2.865,5.271
		C96.488,16.171,96.457,17.923,96.459,19.674z M91.063,20.612c-0.02-2.155,0.191-1.871-1.124-1.889
		c-1.966-0.022-2.843,0.568-2.84,1.849c0.003,1.239,0.836,1.662,2.777,1.806C91.523,22.499,90.982,21.407,91.063,20.612z"/>
	<path fill="#FFFFFF" d="M106.586,26.144c-0.235-0.011-0.471-0.021-0.705-0.032c-0.931-0.003-1.86-0.005-2.791-0.007
		c-1.82-0.182-3.469-0.8-4.956-1.871c-0.52-0.37-0.766-0.727-0.194-1.246c0.11-0.102,0.192-0.237,0.286-0.355
		c0.595-0.742,1.049-1.798,1.82-2.143c0.835-0.373,1.517,0.803,2.361,1.138c1.124,0.438,2.221,0.796,3.428,0.391
		c0.544-0.186,0.94-0.485,0.997-1.108c0.062-0.668-0.261-1.118-0.848-1.336c-0.782-0.29-1.591-0.511-2.39-0.754
		c-0.618-0.185-1.258-0.315-1.857-0.551c-1.693-0.662-2.951-1.757-3.217-3.663c-0.299-2.144,0.368-3.933,2.2-5.157
		c2.337-1.563,4.919-1.671,7.576-1.104c1.276,0.271,2.463,0.767,3.538,1.529c0.518,0.367,0.796,0.701,0.193,1.217
		c-0.114,0.098-0.192,0.237-0.289,0.354c-0.571,0.711-1.009,1.694-1.749,2.066c-0.831,0.416-1.481-0.723-2.309-1
		c-1.047-0.351-2.054-0.534-3.119-0.156c-0.519,0.184-0.848,0.525-0.87,1.079c-0.026,0.572,0.32,0.933,0.828,1.101
		c0.687,0.228,1.381,0.423,2.082,0.6c0.923,0.23,1.846,0.459,2.705,0.882c1.716,0.85,2.882,2.094,2.986,4.113
		c0.11,2.173-0.727,3.854-2.588,4.993C108.751,25.706,107.7,26.029,106.586,26.144z"/>
	<path fill="#FFFFFF" d="M154.577,10.441c1.45-1.125,2.905-1.593,4.458-1.835c0.665-0.105,0.993-0.048,0.96,0.748
		c-0.053,1.139-0.044,2.287,0.022,3.426c0.04,0.7-0.227,0.874-0.881,0.984c-2.967,0.494-4.521,2.375-4.521,5.354
		c0,1.979-0.021,3.964,0.011,5.941c0.013,0.635-0.164,0.872-0.828,0.851c-1.333-0.048-2.668-0.042-3.999-0.004
		c-0.615,0.02-0.769-0.21-0.766-0.795c0.018-5.14,0.021-10.281-0.005-15.424c-0.005-0.683,0.251-0.835,0.865-0.813
		c1.064,0.039,2.136,0.06,3.199-0.004C154.109,8.81,154.936,8.854,154.577,10.441z"/>
	<path fill="#FFFFFF" d="M63.344,10.511c1.51-1.224,2.983-1.649,4.537-1.916c0.749-0.128,0.965,0.108,0.914,0.808
		c-0.035,0.454,0.004,0.912,0.004,1.37c0.001,0.837,0.21,1.752-0.062,2.493c-0.315,0.855-1.442,0.515-2.173,0.841
		c-1.989,0.891-3.134,2.523-3.14,4.73c-0.005,2.056-0.028,4.115,0.014,6.17c0.014,0.69-0.185,0.932-0.896,0.904
		c-1.292-0.053-2.589-0.034-3.883-0.008c-0.54,0.01-0.827-0.078-0.824-0.733c0.022-5.178,0.022-10.354,0-15.535
		c-0.002-0.624,0.237-0.773,0.803-0.758c1.141,0.031,2.29,0.076,3.425-0.011C63.101,8.787,63.692,9.017,63.344,10.511z"/>
	<path fill="#FFFFFF" d="M50.617,17.121c0-2.623,0.022-5.248-0.014-7.87c-0.011-0.719,0.204-0.929,0.916-0.849
		c0.794,0.088,1.594,0.121,2.356,0.383c1.478,0.508,2.364,1.579,2.379,3.141c0.042,4.411,0.006,8.82,0.032,13.231
		c0.004,0.632-0.248,0.761-0.808,0.748c-1.329-0.03-2.663-0.047-3.992,0.006c-0.725,0.029-0.892-0.247-0.882-0.922
		C50.636,22.37,50.617,19.745,50.617,17.121z"/>
	<g>
		<path fill="#FFFFFF" d="M2.091,3.771C1.912,3.831,1.704,4.5,1.673,4.694C1.63,4.978,1.778,5.274,1.762,5.571"/>
	</g>
	<g>
		<path fill="#FFFFFF" d="M116.515,2.789c-0.046-0.208-0.61-0.238-0.805-0.222c0.7-0.12,1.71,0.37,1.816,1.085"/>
	</g>
	<g>
		<path fill="#FFFFFF" d="M115.666,2.461c0.119-0.015,0.238,0.016,0.358,0.06"/>
	</g>
	<g>
		<path fill="#FFFFFF" d="M71.766,3.206c0.029-0.18-0.016-0.655-0.149-0.729"/>
	</g>
	<g>
		<path fill="#FFFFFF" d="M54.83,3.831c0-0.343,0.016-0.55-0.179-0.848c-0.135-0.224-0.401-0.671-0.713-0.373"/>
	</g>
	<g>
		<path fill="#FFFFFF" d="M24.949,2.656c-0.536-0.195-1.458-0.195-2.01-0.075"/>
	</g>
	<g>
		<path fill="#FFFFFF" d="M136.206,24.196c0.029,0.158,0.278,0.276,0.409,0.377c0.177,0.161,0.336,0.337,0.541,0.47
			c0.307,0.188,0.614,0.452,0.935,0.613c0.6,0.277,1.508,0.116,2.12,0.029c1.083-0.176,2.047-0.353,2.998-0.906"/>
	</g>
	<g>
		<path fill="#FFFFFF" d="M137.297,25.353c0.287,0.077,0.571,0.155,0.855,0.221"/>
	</g>
	<g>
		<path fill="#FFFFFF" d="M137.539,25.408c0.143,0.238,0.636,0.253,0.889,0.273c0.471,0.045,1.008,0.065,1.469-0.065"/>
	</g>
	<g>
		<path fill="#FFFFFF" d="M116.783,5.321c0.022-0.635-0.35-1.403-0.525-2.017c-0.066-0.263-0.045-0.702-0.198-0.942
			c-0.131-0.264-0.461-0.242-0.768-0.22"/>
	</g>
	<g>
		<path fill="#FFFFFF" d="M72.357,5.98c0.154-0.767-0.042-1.578-0.176-2.325c-0.043-0.285-0.087-0.592-0.087-0.876
			c-0.022-0.461,0-0.571-0.483-0.615"/>
	</g>
	<g>
		<path fill="#FFFFFF" d="M54.728,3.744c0-0.308-0.022-0.527-0.132-0.812c-0.065-0.198-0.24-0.745-0.416-0.855"/>
	</g>
	<g>
		<path fill="#FFFFFF" d="M22.164,2.428c0.373,0,0.768,0.021,1.142-0.022c0.35-0.043,0.68-0.154,1.051-0.132
			c-0.438,0.067-0.812-0.197-1.293-0.045"/>
	</g>
	<g>
		<path fill="#FFFFFF" d="M25.124,2.779c-0.438-0.285-0.768-0.614-1.292-0.637c-0.396-0.022-0.922-0.088-1.272,0.066"/>
	</g>
	<g>
		<path fill="#FFFFFF" d="M1.551,3.699C1.574,4.357,1.397,5.015,1.42,5.694C1.375,5.278,1.332,4.839,1.332,4.423
			C1.223,4.796,1.201,5.278,1.266,5.651c0.109,0.569,0.482,1.03,0.615,1.579"/>
	</g>
	<circle fill="none" stroke="#FFFFFF" stroke-width="0.3" stroke-miterlimit="10" cx="157.52" cy="26.024" r="1.37"/>
	<text transform="matrix(1 0 0 1 156.8408 26.7734)" fill="#FFFFFF" font-family="'MyriadPro-Regular'" font-size="1.9293">R</text>
</g>
</svg>
