<?xml version="1.0" encoding="utf-8"?>
<!-- Generator: Adobe Illustrator 16.0.0, SVG Export Plug-In . SVG Version: 6.00 Build 0)  -->
<!DOCTYPE svg PUBLIC "-//W3C//DTD SVG 1.1//EN" "http://www.w3.org/Graphics/SVG/1.1/DTD/svg11.dtd">
<svg version="1.1" id="Layer_1" xmlns="http://www.w3.org/2000/svg" xmlns:xlink="http://www.w3.org/1999/xlink" x="0px" y="0px"
	 width="315.083px" height="309.125px" viewBox="0 0 315.083 309.125" enable-background="new 0 0 315.083 309.125"
	 xml:space="preserve">
<path fill="#E18056" stroke="#5C5C5C" stroke-width="2" stroke-miterlimit="10" d="M105.786,248.953l24.907,23.637
	c0,0-16.291,17.068-43.223,17.068c-15.142,0-35.345-5.996-50.25-25.375c0,0-29.165-36.626,1.494-77.717l57.066-56.632
	c0,0,37.259-33.85,80.473-1.062c0,0,45.994,37.257,9.373,88.569l-54.934,55.146L105.786,248.953l52.375-52.807
	c0,0,16.535-16.953-0.78-38.106c0,0-16.329-17.315-40.168-1.842l-49.684,50.243c0,0-18.74,18.879,0,40.025
	C67.529,246.468,83,264.355,105.786,248.953z"/>
<path fill="#00ADAE" stroke="#5C5C5C" stroke-width="2" stroke-miterlimit="10" d="M183.926,41.223L129.701,95.44
	c0,0-35.769,39.461,0,84.037c0,0,10.767,11.9,27.695,18.086c0,0,18.573-19.793-0.733-39.664c0,0-19.296-19.015,0-40.595
	l50.818-50.675c0,0,18.738-16.181,39.602,2.701c0,0,16.465,18.162,0,38.468l-50.959,50.385c0,0,6.957,20.564-0.142,39.381
	c0,0,13.772-4.037,22.854-12.986l53.375-53.649c0,0,39.744-42.293-2.84-87.145c0,0-17.039-20.163-49.25-17.755
	C220.124,26.026,201.523,25.743,183.926,41.223z"/>
<path fill="#E18056" d="M104.401,251.031l24.125,22.234l3.109-3.031l-23.641-22.063
	C106.417,249.828,104.401,251.031,104.401,251.031z"/>
<path fill="#FFFFFF" stroke="#5C5C5C" stroke-miterlimit="10" d="M221.364,286.699l12.555,11.898c0,0-8.207,8.596-21.77,8.596
	c-7.626,0-17.803-3.021-25.318-12.781c0,0-14.686-18.447,0.765-39.137l28.741-28.531c0,0,18.763-17.046,40.531-0.534
	c0,0,23.16,18.771,4.723,44.615l-27.672,27.772L221.364,286.699l26.391-26.602c0,0,8.326-8.539-0.395-19.195
	c0,0-8.225-8.729-20.232-0.938L202.1,265.277c0,0-9.438,9.515,0,20.162C202.099,285.439,209.891,294.458,221.364,286.699z"/>
<path fill="#E18056" stroke="#5C5C5C" stroke-miterlimit="10" d="M260.73,182.064l-27.315,27.303c0,0-18.015,19.881,0,42.324
	c0,0,5.431,5.998,13.953,9.115c0,0,9.35-9.966-0.369-19.975c0,0-9.721-9.587,0-20.448l25.601-25.53c0,0,9.437-8.138,19.942,1.371
	c0,0,8.287,9.145,0,19.368l-25.672,25.382c0,0,3.51,10.355-0.063,19.832c0,0,6.926-2.031,11.507-6.533l26.885-27.025
	c0,0,20.021-21.305-1.434-43.898c0,0-8.577-10.151-24.799-8.938C278.965,174.41,269.592,174.268,260.73,182.064z"/>
<path fill="#FFFFFF" d="M220.245,287.984l12.516,11.031l1.875-1.859l-12.012-11.035
	C221.749,287.246,220.245,287.984,220.245,287.984z"/>
<path fill="#00ADAE" stroke="#5C5C5C" stroke-miterlimit="10" d="M42.351,113.761l12.553,11.908c0,0-8.208,8.603-21.768,8.603
	c-7.628,0-17.803-3.021-25.319-12.79c0,0-14.687-18.438,0.764-39.138l28.743-28.521c0,0,18.762-17.063,40.529-0.534
	c0,0,23.162,18.761,4.723,44.606l-27.672,27.773L42.351,113.761L68.74,87.169c0,0,8.328-8.538-0.395-19.196
	c0,0-8.224-8.719-20.233-0.929l-25.027,25.31c0,0-9.437,9.508,0,20.164C23.085,112.519,30.876,121.521,42.351,113.761z"/>
<path fill="#FFFFFF" stroke="#5C5C5C" stroke-miterlimit="10" d="M81.718,9.138L54.402,36.446c0,0-18.017,19.881,0,42.324
	c0,0,5.431,5.998,13.952,9.114c0,0,9.35-9.979-0.37-19.981c0,0-9.719-9.578,0-20.446l25.603-25.523c0,0,9.437-8.153,19.941,1.354
	c0,0,8.289,9.16,0,19.375L87.857,68.045c0,0,3.511,10.355-0.063,19.84c0,0,6.925-2.037,11.506-6.548l26.885-27.018
	c0,0,20.021-21.304-1.435-43.892c0,0-8.578-10.16-24.799-8.948C99.952,1.479,90.58,1.346,81.718,9.138z"/>
<polygon fill="#00ADAE" points="43.276,113.563 41.729,114.766 53.823,126 55.417,124.438 "/>
</svg>
