<?xml version="1.0" encoding="utf-8"?>
<!-- Generator: Adobe Illustrator 16.0.0, SVG Export Plug-In . SVG Version: 6.00 Build 0)  -->
<!DOCTYPE svg PUBLIC "-//W3C//DTD SVG 1.1//EN" "http://www.w3.org/Graphics/SVG/1.1/DTD/svg11.dtd">
<svg version="1.1" id="Layer_1" xmlns="http://www.w3.org/2000/svg" xmlns:xlink="http://www.w3.org/1999/xlink" x="0px" y="0px"
	 width="296px" height="63px" viewBox="0 0 296 63" enable-background="new 0 0 296 63" xml:space="preserve">
<g>
	<path fill="#77797D" d="M23.552,0.18c1.045,1.002,2.067,2.029,3.139,3.002c6.64,6.023,13.297,12.027,19.921,18.066
		c0.339,0.31,0.622,0.879,0.623,1.33c0.012,9.602-0.02,19.203-0.044,28.803c0,0.262-0.024,0.521-0.042,0.863
		c-3.078-0.008-6.12-0.016-9.461-0.023c3.203,3.584,6.232,6.975,9.472,10.6c-0.562-0.213-0.851-0.307-1.127-0.428
		c-7.332-3.262-14.659-6.535-22-9.778c-0.525-0.232-1.138-0.371-1.711-0.375c-7.475-0.044-14.95-0.054-22.425-0.07
		c0.025-10.635,0.051-21.27,0.077-31.904c0.262-0.195,0.537-0.377,0.784-0.59c5.483-4.747,10.968-9.494,16.443-14.251
		c1.996-1.733,3.968-3.495,5.952-5.243C23.287,0.18,23.419,0.18,23.552,0.18z M12.045,17.924c-0.005,1.973-0.074,3.894,0.012,5.807
		c0.047,1.064-0.304,1.811-1.043,2.534c-0.351,0.343-0.621,0.948-0.627,1.44c-0.058,4.451-0.049,8.904-0.06,13.357
		c-0.001,0.319-0.002,0.639-0.002,0.996c8.959,0.021,17.778,0.043,26.599,0.063c0.038-0.156,0.081-0.25,0.081-0.346
		c0.017-4.783,0.04-9.566,0.02-14.354c-0.001-0.328-0.258-0.73-0.515-0.973c-1.742-1.638-3.515-3.241-5.279-4.855
		c-2.343-2.145-4.688-4.286-7.078-6.471c-2.326,2.441-4.599,4.83-7.057,7.41c0.004-1.707,0.008-3.148,0.011-4.598
		C15.386,17.932,13.773,17.928,12.045,17.924z"/>
	<path fill="#77797D" d="M296.068,32.34c-0.957-0.002-1.914-0.004-2.965-0.006c-0.015,5.459-0.025,10.854-0.039,16.314
		c-1.967-0.006-3.836-0.01-5.816-0.015c0.012-5.399,0.025-10.791,0.039-16.293c-0.881-0.002-1.66-0.004-2.492-0.006
		c0.004-1.659,0.008-3.207,0.012-4.886c0.777,0.002,1.557,0.004,2.465,0.006c0.002-0.717,0-1.304,0.006-1.893
		c0.039-4.38,2.438-6.822,6.832-6.952c0.664-0.02,1.328-0.021,1.992-0.031c-0.004,1.529-0.008,3.057-0.012,4.586
		c-0.492,0.074-0.986,0.13-1.475,0.229c-0.832,0.166-1.4,0.653-1.473,1.521c-0.066,0.814-0.019,1.637-0.021,2.463
		c1.045,0.063,2,0.117,2.957,0.174C296.076,29.148,296.072,30.744,296.068,32.34z"/>
	<path fill="#77797D" d="M77.574,27.748c0.008-3.348,0.016-6.628,0.024-9.982c1.972,0.005,3.874,0.01,5.839,0.014
		c-0.024,10.119-0.048,20.203-0.073,30.359c-1.924-0.004-3.827-0.008-5.798-0.014c-0.032-0.498-0.063-0.98-0.106-1.658
		c-1.837,1.883-4.051,2.309-6.436,2.289c-4.814-0.035-8.255-2.576-9.475-7.238c-1.091-4.17-0.892-8.26,1.55-11.969
		c1.727-2.626,4.272-3.979,7.413-3.931c1.569,0.022,3.162,0.288,4.688,0.673C76.012,26.496,76.701,27.19,77.574,27.748z
		 M72.115,31.205c-2.305,0-4.077,1.245-4.734,3.387c-0.477,1.549-0.523,3.139-0.132,4.715c0.577,2.322,2.163,3.703,4.363,3.855
		c2.263,0.158,4.231-1.068,5.086-3.232c0.723-1.828,0.773-3.686,0.034-5.531C75.947,32.438,74.15,31.205,72.115,31.205z"/>
	<path fill="#77797D" d="M273.631,39.498c-2.744-0.006-5.434-0.014-8.123-0.02c-2.688-0.006-5.375-0.015-8.064-0.021
		c0.084,2.049,1.503,3.812,3.439,4.349c2.426,0.674,4.52-0.066,5.988-2.195c1.744,0.684,3.514,1.375,5.371,2.1
		c-1.334,2.316-3.145,3.879-5.531,4.789c-4.459,1.701-9.91,0.473-12.814-2.898c-3.596-4.17-3.576-11.342,0.041-15.668
		c3.431-4.103,9.896-5.204,14.5-2.381c3.572,2.188,4.99,5.626,5.277,9.644c0.043,0.628,0.002,1.263-0.004,1.894
		C273.709,39.182,273.676,39.275,273.631,39.498z M267.35,34.91c-0.08-2.566-2.188-4.349-4.881-4.237
		c-2.463,0.105-4.52,2.05-4.396,4.213C261.137,34.895,264.205,34.902,267.35,34.91z"/>
	<path fill="#77797D" d="M190.002,37.439c-0.016,6.906-4.791,11.584-11.803,11.567c-6.768-0.018-11.596-4.885-11.561-11.653
		c0.036-6.797,4.891-11.535,11.797-11.512C185.281,25.865,190.02,30.613,190.002,37.439z M172.73,37.605
		c0.033,0.36,0.051,0.729,0.1,1.09c0.367,2.697,2.137,4.637,4.621,5.068c2.262,0.395,4.6-0.736,5.662-2.837
		c1.131-2.233,1.188-4.545,0.111-6.813c-0.861-1.808-2.32-2.881-4.349-3.047C175.234,30.765,172.547,33.637,172.73,37.605z"/>
	<path fill="#77797D" d="M99.443,25.653c6.875,0.015,11.748,4.838,11.726,11.608c-0.022,6.828-4.946,11.576-11.982,11.558
		c-6.645-0.021-11.569-5.025-11.476-11.668C87.807,30.359,92.624,25.637,99.443,25.653z M105.104,36.889
		c-0.134-0.574-0.266-1.604-0.619-2.555c-0.826-2.223-2.744-3.491-5.066-3.493c-2.296-0.002-4.126,1.226-5.012,3.425
		c-0.848,2.104-0.812,4.219,0.155,6.278c1.314,2.795,4.574,3.91,7.327,2.498C104.198,41.857,104.911,39.748,105.104,36.889z"/>
	<path fill="#77797D" d="M145.723,56.338c1.292-2.814,2.396-5.482,3.732-8.027c0.82-1.561,0.771-2.836,0.02-4.418
		c-2.455-5.186-4.742-10.449-7.091-15.686c-0.144-0.32-0.262-0.654-0.449-1.118c2.034,0.005,3.95-0.016,5.864,0.046
		c0.244,0.009,0.558,0.404,0.696,0.689c1.674,3.466,3.319,6.945,4.976,10.418c0.098,0.209,0.209,0.41,0.379,0.74
		c0.178-0.287,0.319-0.48,0.422-0.691c1.66-3.436,3.33-6.866,4.957-10.314c0.293-0.623,0.625-0.893,1.344-0.867
		c1.723,0.061,3.449,0.027,5.295,0.032c-0.096,0.316-0.141,0.56-0.242,0.778c-4.266,9.246-8.535,18.49-12.828,27.727
		c-0.139,0.295-0.525,0.67-0.807,0.677C149.967,56.375,147.942,56.344,145.723,56.338z"/>
	<path fill="#77797D" d="M230.408,45.377c1.426-1.289,2.824-2.553,4.244-3.838c1.215,0.703,2.371,1.416,3.568,2.047
		c0.416,0.217,1.012,0.441,1.391,0.299c0.459-0.174,0.947-0.674,1.094-1.135c0.105-0.334-0.217-0.986-0.545-1.234
		c-0.842-0.639-1.801-1.117-2.699-1.678c-1.123-0.705-2.305-1.34-3.334-2.162c-2.008-1.602-3.051-3.668-2.438-6.305
		c0.61-2.63,2.26-4.324,4.877-4.978c3.662-0.912,7.059-0.543,9.832,2.338c0.848,0.88,0.842,1.015-0.021,1.811
		c-1.239,1.144-2.485,2.283-3.742,3.437c-0.788-0.586-1.516-1.152-2.276-1.677c-0.379-0.258-0.803-0.534-1.236-0.608
		c-0.361-0.063-0.77,0.158-1.156,0.252c0.094,0.381,0.07,0.883,0.311,1.119c0.464,0.453,1.052,0.805,1.632,1.112
		c1.022,0.548,2.104,0.986,3.118,1.544c1.974,1.081,3.625,2.504,4.324,4.729c1.355,4.305-1.242,8.447-5.699,9.172
		C236.598,50.441,233.488,49.291,230.408,45.377z"/>
	<path fill="#77797D" d="M213.824,27.313c0,0.539,0,0.996-0.004,1.455c-0.031,4.048-0.103,8.102-0.082,12.152
		c0.014,2.568-1.045,4.545-3.031,6.074c-4.203,3.238-10.805,2.633-14.211-1.291c-1.172-1.352-1.848-2.906-1.848-4.715
		c0.002-4.318,0.018-8.635,0.028-12.953c0.003-0.227,0.025-0.453,0.044-0.748c1.721,0.004,3.395,0.008,5.209,0.012
		c0,0.418-0.003,0.771-0.003,1.121c0.005,3.388-0.057,6.777,0.048,10.164c0.03,1.094,0.377,2.221,0.789,3.25
		c0.604,1.514,1.913,2.18,3.493,2.18c1.556-0.002,2.854-0.688,3.386-2.174c0.461-1.285,0.782-2.688,0.834-4.047
		c0.114-3.184,0.028-6.375,0.03-9.564c-0.002-0.291,0.025-0.584,0.041-0.929C210.287,27.304,211.971,27.308,213.824,27.313z"/>
	<path fill="#77797D" d="M130.077,32.229c-0.738-0.039-1.324-0.071-1.958-0.108c0.004-1.664,0.008-3.281,0.012-4.99
		c0.612-0.049,1.22-0.098,1.926-0.154c0.007-3.06,0.015-6.065,0.022-9.132c2.009,0.005,3.915,0.009,5.918,0.015
		c-0.007,3.035-0.014,6.043-0.022,9.139c0.703,0.051,1.313,0.095,1.962,0.141c-0.004,1.672-0.008,3.291-0.012,4.992
		c-0.622,0.041-1.23,0.078-1.938,0.123c-0.014,5.646-0.027,11.244-0.041,16.896c-1.988-0.004-3.871-0.01-5.911-0.015
		C130.049,43.516,130.063,37.898,130.077,32.229z"/>
	<path fill="#77797D" d="M283.287,18.257c-0.023,10.168-0.047,20.251-0.072,30.386c-1.898-0.004-3.746-0.008-5.68-0.014
		c0.023-10.102,0.047-20.209,0.072-30.386C279.469,18.248,281.34,18.252,283.287,18.257z"/>
	<path fill="#77797D" d="M231.18,26.5c-1.082,1.721-2.092,3.348-3.139,4.951c-0.096,0.146-0.443,0.201-0.662,0.184
		c-1.879-0.164-3.664,1.438-3.668,3.321c-0.014,4.119-0.021,8.237-0.031,12.356c-0.002,0.361-0.002,0.726-0.004,1.162
		c-1.932-0.006-3.805-0.01-5.746-0.014c0.016-7.01,0.033-14.037,0.051-21.063c1.898,0.005,3.806,0.013,5.709,0.006
		c0.189-0.001,0.416-0.046,0.562-0.155C226.373,25.645,228.672,25.796,231.18,26.5z"/>
	<path fill="#77797D" d="M123.93,49.275c-1.916-0.004-3.792-0.008-5.721-0.015c0.018-7.323,0.035-14.614,0.053-21.988
		c1.891,0.005,3.785,0.01,5.721,0.014C123.965,34.625,123.947,41.916,123.93,49.275z"/>
	<path fill="#77797D" d="M124.603,21.309c-0.029,1.93-1.573,3.443-3.507,3.432c-1.932-0.012-3.515-1.648-3.47-3.594
		c0.042-1.885,1.668-3.416,3.582-3.371C123.146,17.82,124.63,19.363,124.603,21.309z"/>
</g>
</svg>
