<?xml version="1.0" encoding="utf-8"?>
<!-- Generator: Adobe Illustrator 16.0.0, SVG Export Plug-In . SVG Version: 6.00 Build 0)  -->
<!DOCTYPE svg PUBLIC "-//W3C//DTD SVG 1.1//EN" "http://www.w3.org/Graphics/SVG/1.1/DTD/svg11.dtd">
<svg version="1.1" id="Layer_1" xmlns="http://www.w3.org/2000/svg" xmlns:xlink="http://www.w3.org/1999/xlink" x="0px" y="0px"
	 width="192px" height="60px" viewBox="0 0 192 60" enable-background="new 0 0 192 60" xml:space="preserve">
<g>
	<path fill="#77797D" d="M174.695,38.105c-2.521,1.494-5.156,2.742-8.086,3.236c-3.34,0.564-6.578,0.521-9.525-1.488
		c-0.199-0.133-0.699,0.008-0.969,0.172c-2.35,1.423-4.824,2.551-7.545,3.002c-2.314,0.386-4.58,0.345-6.354-1.549
		c-0.37-0.396-0.672-0.855-1.034-1.328c-0.709,0.675-1.357,1.479-2.175,2.02c-1.09,0.725-2.256,1.428-3.493,1.813
		c-2.257,0.701-4.244-0.182-5.529-2.196c-0.289-0.454-0.533-0.937-0.795-1.399c-1.187,1.029-2.285,2.146-3.549,3.021
		c-1.074,0.742-2.289,1.376-3.531,1.763c-2.406,0.751-4.15-0.347-5.392-2.375c-1.319,0.927-2.577,1.892-3.918,2.722
		c-1.2,0.744-2.528,1.213-3.985,1c-1.91-0.271-2.912-1.422-2.588-3.322c0.311-1.827,0.895-3.609,1.412-5.396
		c0.235-0.814,0.653-1.574,0.893-2.389c0.193-0.656-0.141-1.098-0.801-0.73c-0.91,0.497-1.857,1.045-2.558,1.789
		c-2.442,2.61-4.25,5.68-5.684,8.924c-1.048,2.369-3.151,2.604-5.513,2.352c-0.776-0.082-0.726-0.684-0.48-1.249
		c0.756-1.749,1.63-3.455,2.248-5.249c0.527-1.531,0.834-3.15,1.102-4.751c0.155-0.937-0.269-1.312-1.131-0.913
		c-1.113,0.512-2.247,1.176-3.089,2.047c-2.561,2.654-4.28,5.885-5.748,9.23c-0.514,1.173-1.228,1.813-2.494,1.881
		c-0.61,0.031-1.218,0.121-1.827,0.181c-1.542,0.149-1.699-0.002-1.534-1.578c-1.635,1.15-3.236,2.25-5.293,2.152
		c-2.145-0.101-3.579-1.312-4.576-2.972c-1.197,0.963-2.278,2.021-3.53,2.807c-3.466,2.171-6.381,1.328-8.313-2.271
		c-0.077-0.144-0.16-0.283-0.199-0.354c-1.484,1.204-2.905,2.406-4.386,3.527c-0.559,0.426-1.235,0.722-1.896,0.981
		c-2.624,1.033-4.362,0.431-6.282-2.192c-0.486,0.404-0.968,0.815-1.463,1.211c-1.289,1.035-2.667,1.928-4.354,2.106
		c-3.658,0.388-6.613-2.884-6.161-6.754c0.337-2.877,1.337-5.553,2.495-8.169c1.997-4.512,4.109-8.975,6.098-13.49
		c0.821-1.866,1.411-3.831,2.198-5.71c0.24-0.57,0.751-1.375,1.203-1.42c0.562-0.057,1.339,0.434,1.765,0.916
		c1.818,2.057,2.113,5.977,0.692,8.584c-2.069,3.798-4.2,7.562-6.269,11.358c-1.227,2.248-2.245,4.586-2.585,7.16
		c-0.12,0.912-0.128,1.971,0.734,2.369c0.622,0.287,1.606,0.137,2.295-0.147c0.923-0.384,1.742-1.05,2.549-1.666
		c0.248-0.19,0.359-0.61,0.45-0.949c1.297-4.761,3.861-8.685,8.127-11.202c4.051-2.39,8.21-1.584,12.195,0.426
		c1.083,0.547,1.123,1.437,0.72,2.639c-0.785,2.343-1.5,4.717-2.092,7.113c-0.156,0.637,0.238,1.406,0.38,2.115
		c0.667-0.238,1.466-0.318,1.977-0.744c1.066-0.888,1.989-1.949,2.951-2.959c0.151-0.16,0.239-0.412,0.284-0.637
		c0.882-4.38,2.771-8.388,4.588-12.42c0.318-0.705,0.629-1.411,1.054-2.364c-1.847,0-3.504,0.098-5.146-0.025
		c-2.064-0.154-4.117-0.479-6.172-0.751c-0.295-0.039-0.594-0.154-0.862-0.292c-0.66-0.34-0.695-0.813-0.014-1.084
		c1.006-0.396,2.048-0.772,3.108-0.943c3.392-0.543,6.799-1.014,10.206-1.454c0.729-0.095,1.143-0.336,1.432-1.037
		c1.723-4.187,3.483-8.356,5.251-12.522c0.334-0.788,0.499-1.856,1.621-1.872c1.1-0.016,1.66,0.887,2.082,1.741
		c1.332,2.701,1.358,5.438,0.008,8.154c-0.754,1.516-1.539,3.018-2.386,4.677c1.213-0.103,2.276-0.231,3.343-0.267
		c0.843-0.029,1.71-0.054,2.526,0.117c1.174,0.242,1.466,1.177,0.706,2.164c-0.987,1.282-2.42,1.845-3.949,2.148
		c-1.535,0.304-3.087,0.514-4.625,0.81c-0.282,0.052-0.653,0.251-0.766,0.488c-1.94,4.049-3.891,8.091-5.727,12.188
		c-0.491,1.099-0.697,2.349-0.871,3.556c-0.297,2.073,0.875,3.01,2.728,2.082c2.453-1.229,4.729-2.722,5.515-5.646
		c0.433-1.608,0.946-3.196,1.42-4.794c0.096-0.325,0.157-0.661,0.265-0.984c0.868-2.625,2.961-3.702,5.643-2.932
		c0.633,0.183,0.822,0.5,0.529,1.128c-0.698,1.498-1.363,3.014-1.936,4.599c0.92-0.925,1.82-1.871,2.767-2.77
		c1.598-1.518,3.359-2.793,5.559-3.28c0.688-0.154,1.416-0.222,2.119-0.189c1.865,0.088,2.729,1.348,2.199,3.153
		c-0.199,0.674-0.474,1.329-0.582,2.082c0.726-0.787,1.438-1.584,2.178-2.357c1.984-2.083,4.19-3.702,7.275-3.53
		c2.221,0.123,3.241,1.255,2.733,3.409c-0.475,2.009-1.227,3.947-1.858,5.916c-0.271,0.842-0.607,1.666-0.802,2.521
		c-0.176,0.788,0.302,1.206,0.982,0.813c1.545-0.893,3.035-1.816,3.6-3.764c1.281-4.427,3.715-8.087,7.685-10.573
		c3.271-2.045,6.735-1.829,10.231-0.677c0.709,0.233,1.406,0.527,2.062,0.883c1.207,0.656,1.354,1.444,0.896,2.738
		c-0.775,2.169-1.5,4.363-2.095,6.589c-0.229,0.865-0.522,2.116,0.437,2.637c0.896,0.484,1.676-0.461,2.328-1.057
		c0.879-0.805,1.682-1.688,2.49-2.564c0.194-0.212,0.352-0.514,0.407-0.797c0.988-4.89,3.195-9.316,5.205-13.818
		c0.153-0.342,0.308-0.685,0.446-1.031c0.035-0.089,0.021-0.196,0.037-0.383c-8.61,0.323-17.207,1.15-25.776,0.033
		c-0.031-0.166-0.063-0.331-0.099-0.494c0.39-0.198,0.757-0.498,1.166-0.582c3.099-0.632,6.183-1.366,9.31-1.796
		c5.729-0.792,11.488-1.387,17.228-2.111c0.317-0.041,0.707-0.463,0.85-0.8c1.713-4.004,3.383-8.027,5.066-12.043
		c0.092-0.22,0.176-0.446,0.283-0.658c0.6-1.214,1.536-1.358,2.52-0.385c1.066,1.061,1.516,2.418,1.711,3.85
		c0.264,1.969-0.006,3.862-0.988,5.635c-0.639,1.149-1.205,2.338-1.885,3.667c0.824-0.052,1.459-0.099,2.096-0.13
		c0.814-0.039,1.658-0.208,2.439-0.059c0.707,0.136,1.646,0.461,1.941,1c0.446,0.812-0.298,1.617-1.009,1.988
		c-1.153,0.611-2.394,1.111-3.647,1.463c-1.205,0.338-2.482,0.408-3.717,0.647c-0.287,0.055-0.658,0.249-0.779,0.487
		c-2.248,4.424-4.863,8.683-6.342,13.464c-0.367,1.189-0.621,2.442-0.726,3.682c-0.115,1.345,0.539,1.974,1.858,2.005
		c2.443,0.059,4.476-1.048,6.377-2.411c0.229-0.163,0.261-0.729,0.242-1.102c-0.281-5.767,3.539-11.187,9.043-12.75
		c2.316-0.658,4.574-0.533,6.732,0.63c2.256,1.218,2.951,3.025,1.949,5.397c-1.127,2.669-3.191,4.556-5.504,6.169
		c-1.273,0.885-2.652,1.618-4.061,2.467c1.362,0.935,2.93,1.021,4.366,0.582c1.804-0.553,3.496-1.463,5.218-2.261
		c0.221-0.103,0.403-0.429,0.471-0.687c0.268-1.055,1.004-1.446,1.994-1.617c0.438-0.076,0.953-0.219,1.246-0.516
		c2.34-2.377,4.627-4.804,6.94-7.203c0.41-0.424,0.422-0.807,0.076-1.253c-0.146-0.188-0.248-0.409-0.38-0.607
		c-2.176-3.28,0.517-5.975,3.074-6.383c2.338-0.375,3.982,1.688,3.131,3.967c-0.301,0.812-0.848,1.533-1.342,2.401
		c2.523,2.166,3.938,4.932,3.527,8.453c-0.223,1.903-1.123,3.467-2.344,4.891C185.484,40.561,177.984,41.438,174.695,38.105z
		 M61.292,36.497c-1.599-1.121-3.072-1.207-4.477-0.039c-2.637,2.192-3.793,5.136-3.864,8.517c-0.017,0.856,0.619,1.23,1.392,0.813
		c0.644-0.348,1.257-0.813,1.762-1.346C58.304,42.131,59.788,39.341,61.292,36.497z M131.41,30.241
		c-1.848-1.301-3.676-1.067-5.287,0.647c-1.654,1.764-2.578,3.914-2.965,6.262c-0.125,0.767-0.088,2.008,0.367,2.324
		c0.856,0.594,1.684-0.289,2.336-0.931C128.273,36.176,129.816,33.227,131.41,30.241z M160.564,33.335
		c0.108,0.037,0.219,0.076,0.328,0.115c2.422-1.362,4.766-2.835,6.659-4.922c0.291-0.321,0.541-0.702,0.724-1.095
		c0.43-0.915-0.053-1.65-1.058-1.605c-0.396,0.02-0.813,0.13-1.176,0.295c-2.312,1.051-4.049,2.722-5.09,5.034
		C160.662,31.811,160.686,32.604,160.564,33.335z M184.922,27.892c-0.91,1.214-1.703,2.361-2.594,3.432
		c-0.902,1.086-1.9,2.092-2.799,3.068c0.627,0.799,1.205,1.539,1.811,2.314C184.666,36.37,186.465,32.127,184.922,27.892z"/>
	<path fill="#77797D" d="M0,59.854c0.263-0.404,0.388-0.746,0.633-0.944c0.497-0.413,1.026-0.802,1.594-1.104
		c3.935-2.094,6.748-5.257,8.722-9.188c1.709-3.402,3.326-6.853,5.062-10.443c-1.125-0.123-2.125-0.181-3.107-0.353
		c-1.74-0.303-3.475-0.639-5.195-1.037c-0.375-0.085-0.676-0.486-1.013-0.741c0.344-0.282,0.654-0.741,1.039-0.815
		c2.5-0.488,5.004-0.992,7.53-1.299c2.742-0.335,2.78-0.23,3.869-2.738c2.386-5.493,4.742-10.999,7.108-16.5
		c0.141-0.331,0.249-0.673,0.415-1.128c-5.188,0.502-10.055,1.506-14.255,4.518c-1.062,0.763-2.06,1.714-2.812,2.774
		c-1.574,2.222-1.036,4.543,1.312,5.913c1.043,0.607,2.239,0.963,3.38,1.391c0.921,0.347,1.876,0.6,2.792,0.958
		c0.238,0.093,0.523,0.422,0.527,0.648c0.004,0.216-0.291,0.558-0.524,0.636c-3.466,1.151-6.987,1.951-10.585,0.688
		c-3.063-1.071-4.407-4.064-3.58-7.622c1.228-5.286,4.796-8.473,9.548-10.557c3.767-1.651,7.769-2.473,11.806-3.123
		c6.45-1.039,12.951-1.113,19.463-0.986c4.154,0.082,8.31,0.152,12.463,0.126c2.278-0.016,4.555-0.249,6.832-0.358
		c0.423-0.021,0.851,0.085,1.276,0.132c0.061,0.117,0.12,0.235,0.179,0.354c-1.01,0.8-1.95,1.722-3.046,2.381
		c-2.703,1.628-5.753,2.208-8.829,2.681c-4.364,0.673-8.689,0.16-13.028-0.302c-2.457-0.261-4.936-0.323-7.557-0.482
		c0.922,2.846,0.287,5.233-0.9,7.605c-1.888,3.772-3.659,7.603-5.478,11.41c-0.1,0.209-0.182,0.422-0.324,0.756
		c2.243-0.113,4.372-0.24,6.503-0.317c0.742-0.029,1.522-0.065,2.226,0.123c0.531,0.142,1.26,0.563,1.37,0.993
		c0.126,0.498-0.162,1.357-0.569,1.682c-0.857,0.679-1.859,1.396-2.894,1.586c-2.704,0.494-5.455,0.741-8.195,1.018
		c-0.65,0.066-1,0.235-1.305,0.854c-1.708,3.444-3.348,6.933-5.256,10.267c-3.38,5.903-8.508,9.434-15.251,10.539
		C1.389,59.934,0.805,59.854,0,59.854z"/>
	<path fill="#77797D" d="M136.947,48.396c1.096-0.289,2.131-0.399,2.932,0.687c0.119,0.161,0.588,0.185,0.84,0.103
		c0.768-0.252,1.51-0.584,2.26-0.893c0.246-0.102,0.48-0.298,0.729-0.314c0.494-0.031,0.996,0.028,1.492,0.053
		c-0.076,0.441-0.142,0.883-0.232,1.322c-0.038,0.188-0.133,0.361-0.305,0.818c0.649-0.597,1.051-1.045,1.528-1.385
		c0.521-0.372,1.08-0.745,1.681-0.938c1.631-0.518,2.26-0.033,2.283,1.635c0.084,0.084,0.168,0.17,0.25,0.256
		c0.192-0.313,0.329-0.688,0.592-0.916c0.508-0.444,1.037-1.008,1.646-1.15c0.729-0.169,1.653-0.148,2.289,0.182
		c0.323,0.172,0.362,1.233,0.243,1.834c-0.223,1.119-0.653,2.196-1.03,3.395c1.555,0.292,2.117-1.51,3.442-1.46
		c-0.06,1.798-3.289,4.312-4.93,3.771c-0.402-0.134-0.925-0.736-0.916-1.115c0.014-0.928,0.295-1.854,0.489-2.778
		c0.093-0.44,0.232-0.876,0.354-1.313c-0.096-0.063-0.19-0.129-0.285-0.193c-0.485,0.436-1.079,0.804-1.436,1.329
		c-0.742,1.093-1.396,2.255-2.019,3.422c-0.686,1.286-1.309,1.565-2.912,1.088c0.443-1.733,1.58-3.308,1.414-5.547
		c-0.647,0.397-1.274,0.585-1.572,1.008c-0.897,1.271-1.729,2.595-2.463,3.97c-0.641,1.201-1.356,1.571-2.951,1.094
		c0.64-1.976,1.275-3.953,1.979-6.127c-0.616,0.195-1.063,0.259-1.411,0.477c-0.275,0.169-0.525,0.506-0.621,0.816
		c-0.201,0.645-0.218,1.348-0.437,1.979c-0.613,1.759-1.642,3.179-3.608,3.522c-2.076,0.365-3.771-0.271-4.787-2.15
		c-1.22,0.799-2.34,1.691-3.599,2.305c-0.95,0.465-2.065,0.721-3.129,0.801c-2.201,0.172-3.562-0.974-4.054-3.182
		c-0.446-2.006,0.431-4.148,2.283-5.408c1.703-1.16,3.539-1.509,5.353-0.336c0.508,0.325,0.897,1.098,0.979,1.715
		c0.043,0.319-0.653,0.867-1.123,1.086c-0.516,0.24-1.028,0.035-1.021-0.698c0.013-0.906-0.521-0.916-1.16-0.694
		c-1.362,0.477-2.498,2.307-2.34,3.735c0.104,0.946,0.84,1.716,1.949,1.747c0.745,0.021,1.616-0.102,2.231-0.482
		c1.621-1.004,3.057-2.204,3.713-4.158c0.676-2.007,2.215-3.136,4.291-3.486c0.472-0.078,1.092-0.226,1.117,0.607
		c-0.379,0.389-0.809,0.733-1.131,1.164c-1,1.318-1.826,2.721-1.699,4.471c0.078,1.098,0.82,1.556,1.844,1.146
		c1.228-0.49,2.326-2.34,2.146-3.657c-0.03-0.21-0.137-0.475-0.299-0.59C136.41,49.962,136.402,49.971,136.947,48.396z"/>
	<path fill="#77797D" d="M181.277,51.048c0.662-0.688,1.307-1.394,2-2.045c0.256-0.243,0.629-0.362,0.949-0.537
		c0.035,0.376,0.244,0.892,0.075,1.104c-0.895,1.129-1.756,2.347-2.877,3.213c-1.094,0.843-1.868,0.402-3.012-1.196
		c-0.767,0.597-1.468,1.326-2.317,1.763c-1.062,0.543-1.783-0.207-2.369-1.022c-2.681,2.077-3.759,2.075-5.265-0.021
		c-0.692,0.518-1.353,1.088-2.088,1.534c-0.847,0.511-1.783,0.739-2.687,0.104c-0.846-0.594-1.018-1.484-0.951-2.447
		c0.3-4.193,4.695-7.027,8.416-5.422c1.127,0.486,1.232,0.813,0.8,1.957c-0.3,0.792-0.541,1.611-0.726,2.438
		c-0.084,0.379,0.033,0.801,0.078,1.457c1.305-0.924,2.258-1.683,2.754-2.975c0.562-1.453,1.25-2.864,1.943-4.264
		c0.389-0.787,1.141-0.822,1.51-0.026c0.244,0.526,0.275,1.251,0.143,1.827c-0.237,1.055-0.684,2.059-1.008,3.096
		c-0.088,0.287-0.047,0.614-0.065,0.924c0.09,0.049,0.18,0.098,0.271,0.146c0.366-0.309,0.832-0.557,1.082-0.941
		c0.733-1.14,1.358-2.354,2.084-3.498c0.196-0.313,0.596-0.5,0.901-0.744c0.263,0.463,0.779,0.95,0.733,1.383
		c-0.104,0.998-0.502,1.965-0.733,2.957c-0.076,0.328-0.012,0.688-0.012,1.035C181.031,50.913,181.154,50.979,181.277,51.048z
		 M169.439,47.707c-1.019-0.51-1.648-0.41-2.289,0.27c-1.039,1.102-1.519,2.832-0.959,3.84
		C167.822,50.878,168.502,49.238,169.439,47.707z"/>
	<path fill="#77797D" d="M160.094,51.307c0.797-0.029,1.436,0.684,1.455,1.618c0.023,1.058-0.758,1.998-1.707,2.06
		c-0.783,0.053-1.42-0.666-1.445-1.625C158.371,52.299,159.164,51.34,160.094,51.307z"/>
	<path fill="#77797D" d="M120.17,56.338c0.016,1.105-0.771,1.99-1.764,1.986c-0.842-0.004-1.414-0.617-1.426-1.529
		c-0.017-1.09,0.77-2.047,1.705-2.078C119.5,54.691,120.156,55.407,120.17,56.338z"/>
</g>
</svg>
