<?xml version="1.0" encoding="utf-8"?>
<!-- Generator: Adobe Illustrator 16.0.0, SVG Export Plug-In . SVG Version: 6.00 Build 0)  -->
<!DOCTYPE svg PUBLIC "-//W3C//DTD SVG 1.1//EN" "http://www.w3.org/Graphics/SVG/1.1/DTD/svg11.dtd">
<svg version="1.1" id="Layer_1" xmlns="http://www.w3.org/2000/svg" xmlns:xlink="http://www.w3.org/1999/xlink" x="0px" y="0px"
	 width="268px" height="44px" viewBox="0 0 268 44" enable-background="new 0 0 268 44" xml:space="preserve">
<path fill="#9A9A9A" d="M15.156,15.226c0.001-1.663-0.005-3.326,0.006-4.989c0.028-4.656,3.622-8.893,8.218-9.699
	c5.552-0.973,10.63,2.377,11.875,7.863c0.163,0.714,0.229,1.463,0.229,2.195c0.016,7.453,0.012,14.908,0.009,22.361
	c0,1.523-0.999,2.527-2.508,2.527c-6.96,0-13.922,0-20.882,0c-0.153,0-0.307-0.014-0.461-0.021c0.249-0.146,0.498-0.291,0.747-0.438
	c1.547-0.695,2.744-2.178,2.757-4.021C15.183,25.744,15.157,20.485,15.156,15.226z M31.891,17.914
	c-0.003-0.791-0.665-1.449-1.445-1.438c-0.769,0.014-1.407,0.655-1.416,1.428c-0.008,0.785,0.65,1.458,1.431,1.461
	C31.244,19.367,31.895,18.707,31.891,17.914z"/>
<path fill="#77797D" d="M102.208,35.516c-0.753-0.035-1.452-0.004-2.129-0.111c-1.336-0.217-2.143-1.133-2.277-2.475
	c-0.026-0.275-0.042-0.555-0.043-0.832c-0.003-3.881-0.004-7.762,0-11.645c0-2.113,0.408-4.137,1.445-5.994
	c1.818-3.253,4.655-4.892,8.337-5.13c1.266-0.079,2.523,0.021,3.746,0.4c2.037,0.629,3.555,1.909,4.644,3.723
	c0.094,0.157,0.188,0.313,0.3,0.498c1.044-1.659,2.399-2.919,4.142-3.749c3.383-1.612,8.028-1.023,10.63,1.369
	c1.586,1.461,2.389,3.352,2.738,5.423c0.217,1.286,0.339,2.601,0.35,3.903c0.042,4.713,0.018,9.428,0.016,14.141
	c0,0.15-0.013,0.299-0.021,0.488c-0.966,0.039-1.902,0.082-2.785-0.303c-1.044-0.457-1.496-1.339-1.6-2.414
	c-0.058-0.595-0.037-1.199-0.04-1.802c-0.02-3.817,0.005-7.641-0.082-11.458c-0.023-1.009-0.292-2.044-0.623-3.007
	c-0.623-1.811-1.979-2.861-3.88-3.019c-1.027-0.085-2.106-0.023-3.113,0.199c-2.122,0.47-3.157,2.031-3.523,4.054
	c-0.194,1.069-0.275,2.171-0.283,3.258c-0.03,4.637-0.013,9.274-0.013,13.911c0,0.183,0,0.363,0,0.668
	c-0.93-0.081-1.828-0.079-2.686-0.262c-0.999-0.211-1.485-0.992-1.65-1.957c-0.076-0.451-0.098-0.918-0.099-1.379
	c-0.007-3.758,0-7.518-0.006-11.275c-0.003-1.366-0.187-2.702-0.729-3.968c-0.925-2.161-2.562-3.299-4.92-3.3
	c-0.701-0.003-1.426,0.065-2.099,0.252c-2.007,0.556-3.005,2.063-3.408,3.984c-0.218,1.03-0.315,2.104-0.323,3.159
	c-0.034,4.668-0.015,9.336-0.015,14.004C102.208,35.055,102.208,35.238,102.208,35.516z"/>
<path fill="#77797D" d="M68.189,35.523c-0.791-0.043-1.518-0.035-2.229-0.129c-1.49-0.199-2.215-1.041-2.262-2.549
	c-0.016-0.558-0.008-1.111-0.008-1.666c0-3.683,0.028-7.363-0.017-11.042c-0.012-1.038-0.131-2.097-0.368-3.104
	c-0.506-2.155-1.896-3.439-4.087-3.881c-3.37-0.677-6.42,0.91-7.681,4.039c-0.449,1.116-0.599,2.285-0.599,3.48
	c0.004,4.729,0.001,9.457,0.001,14.187c0,0.18,0,0.363,0,0.656c-0.922-0.084-1.806-0.082-2.654-0.257
	c-1.121-0.229-1.686-1.069-1.771-2.396c-0.015-0.23-0.011-0.461-0.011-0.691c-0.001-10.475-0.001-20.95-0.001-31.424
	c0-0.166,0-0.332,0-0.633c0.949,0.099,1.864,0.101,2.73,0.305c1.126,0.27,1.747,1.248,1.786,2.622
	c0.034,1.247,0.017,2.494,0.018,3.741c0.002,2.141,0.001,4.279,0.001,6.558c0.156-0.245,0.25-0.388,0.343-0.534
	c1.175-1.886,2.711-3.395,4.959-3.766c3.689-0.613,7.081,0.012,9.613,3.072c1.306,1.577,1.853,3.493,2.067,5.495
	c0.121,1.131,0.157,2.274,0.162,3.411c0.017,4.622,0.007,9.24,0.007,13.863C68.189,35.063,68.189,35.246,68.189,35.523z"/>
<path fill="#77797D" d="M157.865,29.199c0,0.867,0.047,1.609-0.01,2.342c-0.084,1.107-0.662,1.969-1.527,2.637
	c-1.125,0.873-2.439,1.295-3.818,1.525c-2.441,0.406-4.879,0.461-7.258-0.346c-3.592-1.213-6.063-3.654-7.242-7.229
	c-1.629-4.926-1.162-9.709,1.811-14.02c2.529-3.66,6.188-5.203,10.609-4.764c4.006,0.399,7.394,3.365,8.236,7.104
	c0.281,1.247,0.27,2.511,0.027,3.761c-0.31,1.607-1.271,2.698-2.767,3.333c-1.407,0.599-2.896,0.879-4.403,0.926
	c-3.094,0.097-6.189,0.105-9.285,0.152c-0.182,0-0.363,0-0.594,0c0.143,1.479,0.571,2.803,1.379,3.994
	c1.313,1.934,3.188,2.969,5.467,3.227c2.344,0.265,4.654,0.048,6.813-0.987c0.74-0.354,1.391-0.894,2.082-1.349
	C157.516,29.418,157.648,29.338,157.865,29.199z M141.561,21.239c3.349-0.136,6.664-0.25,9.979-0.428
	c0.688-0.036,1.383-0.273,2.043-0.507c0.606-0.218,0.92-0.723,1.004-1.379c0.256-1.98-0.707-3.926-2.474-4.874
	c-1.602-0.862-3.323-1.009-5.063-0.606C143.654,14.229,141.377,17.439,141.561,21.239z"/>
<path fill="#77797D" d="M94.78,22.227c-0.108,2.393-0.44,4.727-1.373,6.947c-1.853,4.408-5.543,6.832-10.346,6.793
	c-5.789-0.047-10.422-3.896-11.5-9.613c-0.694-3.678-0.417-7.285,1.195-10.694c1.751-3.7,4.728-5.779,8.797-6.248
	c3.149-0.363,6.078,0.227,8.62,2.215c2.478,1.938,3.774,4.574,4.291,7.619C94.63,20.229,94.677,21.232,94.78,22.227z M90.32,23.004
	c-0.156-1.188-0.232-2.393-0.481-3.559c-1.02-4.77-4.524-6.397-8.498-5.838c-2.602,0.368-4.22,2.066-5.05,4.471
	c-1.042,3.018-0.95,6.068,0.191,9.037c0.995,2.596,2.902,4.156,5.688,4.631c3.203,0.543,5.859-0.846,7.161-3.822
	C90.015,26.361,90.23,24.705,90.32,23.004z"/>
<path fill="#77797D" d="M194.158,9.762c0.768,0.032,1.543,0.016,2.301,0.116c0.852,0.11,1.398,0.687,1.344,1.548
	c-0.066,1.018-0.246,2.043-0.502,3.033c-0.951,3.688-2.34,7.223-3.918,10.682c-2.012,4.408-4.139,8.762-6.557,12.965
	c-0.838,1.457-1.793,2.838-3.01,4.019c-1.322,1.28-2.881,1.978-4.75,1.865c-0.75-0.046-1.457-0.236-2.078-0.683
	c-0.58-0.416-0.938-0.959-0.902-1.715c0.021-0.459,0.002-0.92,0.002-1.445c0.594,0,1.16-0.039,1.723,0.006
	c1.754,0.146,3.103-0.565,4.064-1.975c0.869-1.27,1.648-2.596,2.443-3.912c0.072-0.117,0.008-0.381-0.078-0.52
	c-3.479-5.543-6.152-11.459-8.098-17.695c-0.584-1.876-0.996-3.807-1.482-5.711c-0.041-0.164-0.055-0.333-0.082-0.502
	c0.998,0,1.982-0.055,2.961,0.018c0.949,0.07,1.588,0.69,1.893,1.555c0.334,0.955,0.558,1.947,0.822,2.926
	c1.438,5.261,3.441,10.291,6.18,15.013c0.101,0.172,0.205,0.34,0.363,0.604C190.158,23.52,192.668,16.875,194.158,9.762z"/>
<path fill="#77797D" d="M174.098,31.633c-0.033,0.721-0.021,1.381-0.106,2.035c-0.115,0.873-0.668,1.424-1.482,1.723
	c-0.995,0.367-2.043,0.373-3.059,0.238c-1.027-0.139-2.08-0.336-3.029-0.727c-2.17-0.896-3.188-2.707-3.528-4.941
	c-0.107-0.711-0.15-1.441-0.15-2.164c-0.008-8.793-0.006-17.59-0.006-26.387c0-0.15,0-0.301,0-0.562
	c0.82,0.063,1.613,0.036,2.363,0.2c1.151,0.251,1.916,1.267,2.032,2.521c0.035,0.381,0.054,0.77,0.054,1.154
	c0.002,7.484,0,14.971,0.008,22.457c0,0.535,0.018,1.082,0.111,1.607c0.315,1.777,1.387,2.721,3.192,2.809
	c0.998,0.049,2.002,0.025,3.002,0.035C173.666,31.635,173.834,31.633,174.098,31.633z"/>
<path fill="#848484" d="M12.389,35.025c-0.249,0.146-0.498,0.291-0.747,0.438c-1.277,0.049-2.551,0.061-3.785-0.348
	c0-3.74,0.001-7.48-0.002-11.221c0-2.771-0.006-5.542-0.011-8.312c1.074-0.373,2.189-0.363,3.304-0.35
	c0.351,0.004,0.703,0.012,1.055,0.019c-0.002,6.4-0.003,12.805,0.006,19.204C12.208,34.646,12.326,34.836,12.389,35.025z"/>
<path fill="#77797D" d="M225.723,35.863c-0.402-0.031-0.742-0.025-1.068-0.092c-0.538-0.111-0.928-0.5-0.93-1.064
	c-0.002-2.324-0.17-4.672,0.117-6.961c0.412-3.307,3.455-4.471,5.986-3.797c1.053,0.277,1.799,0.971,2.307,1.918
	c0.326-0.352,0.611-0.715,0.953-1.016c1.434-1.273,3.664-1.463,5.291-0.457c1.238,0.768,1.742,1.981,1.857,3.346
	c0.109,1.285,0.088,2.582,0.102,3.875c0.014,1.383,0.004,2.768,0.004,4.148c-1.369,0.159-1.982-0.347-1.988-1.568
	c-0.01-1.664,0.025-3.328-0.016-4.992c-0.016-0.684-0.098-1.385-0.285-2.041c-0.272-0.959-0.998-1.447-1.996-1.49
	c-0.338-0.012-0.684-0.012-1.012,0.045c-1.107,0.199-1.734,0.906-1.902,2.137c-0.061,0.457-0.09,0.922-0.092,1.381
	c-0.01,2.021-0.004,4.037-0.004,6.054c0,0.166,0,0.334,0,0.553c-0.219,0-0.398,0.002-0.578,0c-1.012-0.01-1.438-0.418-1.447-1.43
	c-0.012-1.711,0.021-3.42-0.016-5.132c-0.014-0.637-0.09-1.295-0.279-1.897c-0.358-1.164-1.295-1.741-2.514-1.687
	c-1.24,0.06-2.012,0.654-2.299,1.88c-0.137,0.575-0.178,1.188-0.184,1.782c-0.023,1.986-0.008,3.974-0.008,5.959
	C225.723,35.467,225.723,35.621,225.723,35.863z"/>
<path fill="#8F8F8F" d="M7.844,15.584c0.005,2.77,0.011,5.54,0.011,8.311c0.003,3.74,0.002,7.48,0.002,11.222
	c-1.559-0.361-2.911-1.104-4.082-2.187c0.004-0.047,0.009-0.092,0.009-0.137c0.002-4.844,0.005-9.684,0-14.523
	c0-0.146-0.058-0.295-0.088-0.443C4.89,16.732,6.258,15.954,7.844,15.584z"/>
<path fill="#77797D" d="M222.148,29.885c-0.14,0.764-0.224,1.676-0.486,2.533c-0.617,1.996-1.979,3.254-4.084,3.504
	c-2.25,0.271-4.105-0.479-5.34-2.447c-1.344-2.146-1.207-5.668,0.305-7.707c1.363-1.84,3.273-2.324,5.42-1.914
	c2.127,0.406,3.348,1.84,3.875,3.879C222.006,28.379,222.035,29.064,222.148,29.885z M220.135,29.811
	c-0.178-0.721-0.295-1.584-0.607-2.367c-0.446-1.131-1.396-1.666-2.598-1.771c-1.217-0.104-2.221,0.257-2.902,1.313
	c-0.998,1.537-0.879,4.381,0.252,5.822c0.847,1.077,2.011,1.395,3.304,1.18c1.188-0.193,1.869-1.023,2.19-2.127
	C219.953,31.246,220.002,30.596,220.135,29.811z"/>
<path fill="#77797D" d="M254.063,28.553c-0.018-0.457-0.002-0.857-0.061-1.246c-0.141-0.893-0.689-1.451-1.568-1.592
	c-1.797-0.287-3.477-0.094-4.771,1.385c-0.039,0.045-0.093,0.08-0.144,0.109c-0.022,0.01-0.059,0-0.086-0.004
	c-0.248-1.164,0.063-1.99,0.994-2.645c1.533-1.074,4.275-1.14,5.846-0.129c1.166,0.75,1.642,1.896,1.688,3.217
	c0.052,1.463,0.029,2.926,0.017,4.391c-0.017,2.209-1.078,3.463-3.261,3.834c-1.202,0.205-2.399,0.16-3.532-0.35
	c-1.332-0.604-2.205-1.551-2.197-3.111c0.008-1.594,0.76-2.74,2.229-3.281c0.895-0.326,1.877-0.439,2.83-0.563
	C252.68,28.486,253.332,28.553,254.063,28.553z M254.105,30.219c-0.469,0-0.84-0.031-1.201,0.006
	c-0.883,0.092-1.779,0.133-2.633,0.351c-0.863,0.219-1.252,0.829-1.258,1.616c-0.005,0.838,0.481,1.336,1.192,1.644
	c0.84,0.36,1.705,0.354,2.571,0.099c0.632-0.187,1.064-0.611,1.152-1.252C254.043,31.893,254.049,31.09,254.105,30.219z"/>
<path fill="#7B7B7B" d="M12.389,35.025c-0.063-0.189-0.181-0.379-0.181-0.568c-0.009-6.4-0.008-12.804-0.006-19.204
	c0.984-0.011,1.971-0.019,2.953-0.027c0.001,5.26,0.027,10.519-0.01,15.778C15.133,32.848,13.936,34.33,12.389,35.025z"/>
<path fill="#77797D" d="M265.582,23.881c0.322,0,0.568-0.025,0.811,0.006c0.732,0.09,1.181,0.451,1.185,1.182
	c0.012,2.398,0.258,4.812-0.154,7.191c-0.397,2.299-2,3.59-4.346,3.701c-1.795,0.088-3.316-0.406-4.356-1.971
	c-0.578-0.867-0.865-1.85-0.884-2.875c-0.041-2.354-0.021-4.711-0.021-7.07c0-0.041,0.02-0.086,0.026-0.127
	c1.306-0.26,1.99,0.297,1.994,1.615c0.006,1.678-0.017,3.357,0.021,5.035c0.013,0.514,0.111,1.047,0.277,1.531
	c0.574,1.678,2.449,2.409,4.041,1.618c0.67-0.334,1.045-0.911,1.199-1.612c0.121-0.551,0.191-1.123,0.197-1.689
	c0.023-2,0.01-4.002,0.01-6.006C265.582,24.246,265.582,24.08,265.582,23.881z"/>
<path fill="#77797D" d="M209.568,27.123c-1.488-1.941-4.369-1.963-5.814-0.406c-1.264,1.359-1.373,2.979-0.857,4.662
	c0.467,1.521,1.535,2.441,3.111,2.668c1.289,0.186,2.514-0.039,3.531-0.961c0.287,0.895-0.043,1.756-0.902,2.289
	c-1.006,0.625-2.131,0.748-3.254,0.516c-4.389-0.904-6.068-5.641-3.895-9.399c1.191-2.06,3.4-3.101,5.711-2.75
	C208.975,24.006,209.869,25.258,209.568,27.123z"/>
<path fill="#989898" d="M3.696,17.826c0.03,0.148,0.088,0.297,0.088,0.443c0.005,4.84,0.002,9.68,0,14.523
	c0,0.045-0.005,0.09-0.009,0.138c-0.527-0.572-1.121-1.097-1.573-1.722c-2.947-4.069-2.328-9.926,1.379-13.313
	C3.612,17.867,3.657,17.85,3.696,17.826z"/>
<path fill="#77797D" d="M198.143,35.773c-0.805,0-1.43-0.625-1.43-1.428c0.002-0.804,0.662-1.438,1.488-1.433
	c0.773,0.006,1.373,0.629,1.373,1.433C199.576,35.143,198.945,35.771,198.143,35.773z"/>
<path fill="#77797D" d="M243.773,35.773c-0.803-0.002-1.426-0.631-1.42-1.435c0.004-0.807,0.66-1.435,1.489-1.426
	c0.769,0.008,1.378,0.646,1.371,1.438C245.209,35.143,244.57,35.773,243.773,35.773z"/>
<path fill="#FCFCFC" d="M31.891,17.914c0.004,0.793-0.647,1.453-1.431,1.451c-0.78-0.003-1.438-0.676-1.431-1.461
	c0.009-0.772,0.647-1.414,1.416-1.428C31.226,16.465,31.888,17.123,31.891,17.914z"/>
</svg>
