<?xml version="1.0" encoding="utf-8"?>
<!-- Generator: Adobe Illustrator 16.0.0, SVG Export Plug-In . SVG Version: 6.00 Build 0)  -->
<!DOCTYPE svg PUBLIC "-//W3C//DTD SVG 1.1//EN" "http://www.w3.org/Graphics/SVG/1.1/DTD/svg11.dtd">
<svg version="1.1" id="Layer_1" xmlns="http://www.w3.org/2000/svg" xmlns:xlink="http://www.w3.org/1999/xlink" x="0px" y="0px"
	 width="192.25px" height="202.333px" viewBox="0 0 192.25 202.333" enable-background="new 0 0 192.25 202.333"
	 xml:space="preserve">
<g>
	<path fill-rule="evenodd" clip-rule="evenodd" fill="none" stroke="#0680AE" stroke-width="3.5" stroke-miterlimit="10" d="
		M189.657,127.22c0,21.715,0.012,43.43-0.002,65.146c-0.004,4.889-2.281,7.408-7.146,7.514c-6.117,0.141-12.242,0.125-18.355-0.039
		c-4.922-0.129-7.164-2.604-7.178-7.467c-0.139-43.303-0.287-86.601-0.357-129.904c-0.004-1.642,0.4-3.428,1.131-4.886
		c1.063-2.101,3.156-2.854,5.48-2.854c6.385-0.005,12.771-0.053,19.152,0.009c4.346,0.043,6.832,2.572,6.855,6.936
		c0.051,9.677,0.051,19.348,0.057,29.021c0.006,12.175,0,24.348,0,36.524C189.419,127.22,189.538,127.22,189.657,127.22z"/>
	<path fill-rule="evenodd" clip-rule="evenodd" fill="none" stroke="#E32960" stroke-width="3.5" stroke-miterlimit="10" d="
		M123.29,51.728c-2.676,3.622-4.92,6.945-7.443,10.034c-9.852,12.036-22.02,21.25-35.539,28.755
		c-12.663,7.029-26.029,12.234-40.306,14.862c-9.742,1.794-19.559,2.428-29.286-0.254c-2.138-0.589-4.235-1.447-6.202-2.473
		c-0.814-0.427-1.744-1.635-1.719-2.466c0.04-1.446,1.383-1.824,2.778-1.836c13.772-0.106,26.983-3.052,39.64-8.34
		C66.014,81.328,83.771,68.552,97.3,50.326c2.107-2.838,3.74-6.027,5.582-9.061c0.705-1.16,0.646-1.813-0.957-2.13
		c-4.691-0.931-9.348-2.065-14.035-3.046c-2.013-0.419-3.19-1.646-3.417-3.563c-0.213-1.771,0.705-3.138,2.308-4.015
		c15.455-8.464,30.9-16.951,46.363-25.403c2.316-1.269,4.717-1.199,6.945,0.187c2.412,1.499,3.221,3.906,3.176,6.609
		c-0.041,2.83-0.246,5.651-0.285,8.476c-0.178,11.582-0.299,23.162-0.471,34.744c-0.049,3.09-0.271,6.176-0.328,9.267
		c-0.031,1.832-0.916,3.037-2.566,3.534c-1.654,0.499-3.268,0.3-4.488-1.168c-2.609-3.133-5.18-6.308-7.865-9.371
		C126.11,54.08,124.694,53.008,123.29,51.728z"/>
	<path fill-rule="evenodd" clip-rule="evenodd" fill="none" stroke="#0680AE" stroke-width="3.5" stroke-miterlimit="10" d="
		M138.386,144.025c0,15.934,0,31.863-0.004,47.793c0,5.846-2.115,8.023-7.932,8.068c-5.529,0.041-11.061,0.025-16.594-0.014
		c-5.865-0.043-8.113-2.289-8.135-8.162c-0.086-24.754-0.143-49.506-0.232-74.254c-0.021-7.109-0.143-14.218-0.188-21.328
		c-0.033-5.604,2.449-8.085,8.047-8.089c5.654-0.004,11.32-0.021,16.982,0.013c5.248,0.033,7.633,2.405,7.633,7.591
		c0.012,16.128,0.006,32.256,0.006,48.381C138.108,144.025,138.247,144.025,138.386,144.025z"/>
	<path fill-rule="evenodd" clip-rule="evenodd" fill="none" stroke="#0680AE" stroke-width="3.5" stroke-miterlimit="10" d="
		M54.174,160.294c0-10.531-0.025-21.063,0.009-31.592c0.019-5.432,2.209-7.627,7.693-7.68c5.858-0.063,11.72-0.074,17.577-0.01
		c4.966,0.053,7.375,2.459,7.384,7.469c0.034,21.322,0.034,42.648,0.003,63.971c-0.012,4.859-2.39,7.338-7.263,7.436
		c-6.057,0.121-12.113,0.115-18.167-0.035c-5.094-0.127-7.219-2.461-7.228-7.576C54.158,181.619,54.174,170.953,54.174,160.294z"/>
	<path fill-rule="evenodd" clip-rule="evenodd" fill="none" stroke="#0680AE" stroke-width="3.5" stroke-miterlimit="10" d="
		M35.186,176.96c0,5.131,0.013,10.262-0.003,15.393c-0.019,4.906-2.234,7.387-7.133,7.51c-6.184,0.154-12.37,0.154-18.548-0.01
		c-4.746-0.125-6.98-2.637-6.993-7.445c-0.022-10.393-0.022-20.789,0.007-31.186c0.012-4.641,2.561-7.197,7.225-7.236
		c6.116-0.051,12.238-0.057,18.354,0.006c4.525,0.043,7.048,2.627,7.08,7.178C35.214,166.435,35.186,171.699,35.186,176.96z"/>
</g>
</svg>
