<?xml version="1.0" encoding="utf-8"?>
<!-- Generator: Adobe Illustrator 16.0.0, SVG Export Plug-In . SVG Version: 6.00 Build 0)  -->
<!DOCTYPE svg PUBLIC "-//W3C//DTD SVG 1.1//EN" "http://www.w3.org/Graphics/SVG/1.1/DTD/svg11.dtd">
<svg version="1.1" id="Layer_1" xmlns="http://www.w3.org/2000/svg" xmlns:xlink="http://www.w3.org/1999/xlink" x="0px" y="0px"
	 width="151px" height="46px" viewBox="0 0 151 46" enable-background="new 0 0 151 46" xml:space="preserve">
<rect x="24.827" y="24.809" fill="#77797D" width="1.655" height="0.301"/>
<path fill="#77797D" d="M69.077,0.401c-0.5,0-1.197,0-2.849,0c-1.791,0-2.748,0-3.243,0c0,0.234,0,0.77,0,1.168v42.986
	c0,0.393,0.003,0.725,0.003,1.016c0.437,0,3.114-0.002,3.22-0.002c1.927,0,3.09,0,3.526,0c0-0.238,0-0.689,0-1.144V1.632
	c0-0.348,0.001-0.998,0-1.23c-0.116,0-0.228,0-0.411,0L69.077,0.401L69.077,0.401z"/>
<path fill="#77797D" d="M121.234,13.563c1.385,0,2.336-0.005,2.336-0.005s-0.002-0.55-0.002-0.755v-1.691
	c0-0.442,0.002-1.269,0.002-1.497c0.275,0,0.865,0,1.354,0h0.276h24.917c0.207,0,0.574,0,0.574,0s0.004-1.209,0.004-2.479
	c0-1.313-0.004-2.781-0.004-2.781s-0.357,0.002-0.574,0.002L125.201,4.35c0,0-0.268-0.003-0.279-0.003
	c-0.013,0-1.352,0.003-1.352,0.003s0-1.069,0-1.511V0.872c0-0.128,0-0.467,0-0.467s-0.981,0-2.428,0c-1.076,0-2.252,0-2.252,0
	s0.002,0.348,0.002,0.512v12.066c0,0.208-0.002,0.579-0.002,0.579s1.041-0.002,2.342-0.002L121.234,13.563z M144.258,16.007h-24.557
	c-0.311,0-0.809,0-0.809,0s0,1.523,0,2.779c0,1.086,0,2.413,0,2.413s0.49,0.004,0.854,0.004l23.52-0.002
	c1.657,0,2.398,0.495,2.398,1.608c0,1.114-0.739,1.608-2.396,1.608l-23.476-0.002c-0.332,0-0.899,0-0.899,0
	c0.002,1.321,0,1.323,0,2.465c0,1.431,0,2.688,0,2.688s0.608,0,0.897,0.002h24.515c3.176,0,6.391-2.322,6.391-6.761
	c0-2.086-0.615-3.82-1.786-5.02C147.771,16.623,146.163,16.007,144.258,16.007L144.258,16.007z M144.079,32.014h-18.61
	c-3.931,0-6.57,2.734-6.57,6.801c0,3.98,2.701,6.761,6.57,6.761h18.61c3.959,0,6.616-2.718,6.616-6.761
	C150.695,34.555,148.225,32.014,144.079,32.014L144.079,32.014z M143.089,40.424H126.37c-0.962,0-2.576-0.209-2.576-1.609
	c0-1.522,1.972-1.606,2.576-1.606h16.719c1.545,0,2.575,0.274,2.575,1.606C145.664,40.305,144.497,40.424,143.089,40.424"/>
<path fill="#77797D" d="M45.039,11.097c0-1.012,0.043-1.509,0.171-2.534c0.112-0.987,0.893-1.97,1.945-1.97
	c0.492,0,1.055,0.242,1.44,0.703c0.437,0.521,0.617,1.267,0.617,2.062v2.961c0,0.169-0.002,0.577-0.002,0.577s1.821,0,3.648,0h0.687
	c1.372,0,2.354,0,2.354,0s0-0.161,0-0.514V9.229c0-5.063-3.759-8.881-8.745-8.881c-4.59,0-6.681,3.254-7.212,4.25
	c-0.905,1.689-1.56,4.133-1.504,6.311c0,5.522,3.647,10.366,6.891,14.646c2.441,3.228,4.55,6.008,4.55,8.387
	c0,0.332,0.017,0.572,0.012,0.816c-0.007,0.338,0.01,0.674-0.021,1.234l-0.058,0.891c-0.137,1.322-0.663,2.162-1.981,2.27
	c-1.47-0.071-2.245-0.993-2.245-3.668v-2.7c0-0.16-0.001-0.647-0.001-0.647s-1.734-0.003-3.701,0
	c-1.458,0.002-3.113,0.002-3.113,0.002s-0.001,0.491-0.001,0.774l0.006,3.603c0,5.553,3.505,9.139,8.927,9.139
	c3.684-0.158,6.352-1.615,7.941-5.41l0,0c0.915-1.777,0.985-4.928,0.985-5.852c0-5.713-3.465-9.939-6.523-13.672
	C47.499,17.542,45.039,14.539,45.039,11.097L45.039,11.097z M6.396,0.407c-0.5,0-1.196,0-2.85,0c-1.789,0-2.746,0-3.241,0
	c0,0.232-0.001,0.768-0.001,1.165v42.987c0,0.393,0.003,0.725,0.003,1.016c0.436,0,3.115-0.002,3.219-0.002c1.927,0,3.092,0,3.528,0
	c0.001-0.236,0-0.687,0-1.146V1.636c0-0.348,0.001-1,0-1.229c-0.116,0-0.228,0-0.411,0H6.396z M28.992,0.405
	c-1.448,0-3.346,0.002-3.346,0.002s0,0.715,0,1.229v19.627c0,0.444,0,3.103,0,3.557c-0.468-1.828-0.431-1.729-0.809-3.238
	c-1.622-6.206-3.101-13.084-4.461-19.079c-0.191-0.845-0.479-2.095-0.479-2.095s-2.066,0-3.535,0c-1.365,0-2.614,0-2.97,0
	c0,0.127-0.003,0.207,0,0.971V44.43c0,0.467-0.003,0.907-0.003,1.145c0.279,0,1.443,0,3.163,0c1.962,0,3.166,0,3.466,0
	c0-0.252,0.001-0.77,0.001-1.207V23.193c0-0.51-0.002-3.12-0.002-3.397c0.058,0.249,0.763,3.221,1.001,4.202l0.205,0.926
	c0.923,3.828,1.504,6.318,2.114,8.971c0.701,3.043,1.366,5.904,2.286,9.926c0.141,0.636,0.399,1.742,0.399,1.742
	s2.06,0.011,3.09,0.011c1.725,0.004,3.161,0,3.161,0s0.003-1.089,0.002-1.82V1.572c0-0.399-0.002-1.165-0.002-1.165
	S30.985,0.405,28.992,0.405L28.992,0.405z M114.626,39.088h-5.765c-0.838,0-1.627,0.002-1.998,0.002
	c0-0.324-0.002-1.711,0.003-2.383l-0.003-9.588l-0.002-0.389c0-0.631,0.002-1.541,0.002-1.541s1.158,0,1.816,0h2.729
	c0.416,0,0.575-0.002,0.92-0.002c0-0.453-0.002-1.841-0.002-3.219c0-1.773,0-3.346,0-3.346s-0.601,0-0.918,0h-2.903l-0.218,0.002
	c-0.326,0-1.425,0-1.425,0s-0.004-1.012,0-1.506l-0.002-0.299V8.327c0-0.736,0.002-1.076,0.002-1.414h0.334c0.145,0,0.642,0,1.301,0
	h6.066c0.433,0,0.977,0,0.977,0s0-1.85,0-3.41c0-1.262,0-2.021,0-2.479c0-0.191,0.002-0.616,0.002-0.616s-0.648-0.002-0.917-0.002
	h-12.562c-0.611,0-1.444,0-1.947,0v0.549c0,0.552,0,0.622,0,1.454V43.08l-0.008,0.387c0.009,0.695,0.009,2.105,0.009,2.105
	s1.53,0,2.332,0h0.586h11.651c0.321,0,0.854,0,0.854,0s0-1.504,0-3.268c0-1.604,0-2.767,0-3.218
	C115.322,39.088,115,39.088,114.626,39.088L114.626,39.088z M84.021,0.407l-6.188-0.002h-0.261c-0.487,0-1.688,0-1.688,0
	s-0.002,0.243-0.002,0.365c0,0.449,0,0.959,0,1.703v41.054c0,0.68,0,2.045,0,2.045s0.988,0,1.652,0h0.238h6.309
	c1.684,0,4.838-0.285,7.072-2.729c1.804-1.969,2.644-4.225,2.644-7.102V10.194c0-3.06-0.874-5.539-2.526-7.172
	C89.534,1.299,86.958,0.407,84.021,0.407L84.021,0.407z M86.343,37.537c-0.543,0.857-1.319,1.148-2.01,1.123l-0.563-0.008
	c-0.359,0.002-1.143-0.004-1.143-0.004s0.005-0.75,0.005-1.299L82.629,8.394c0-0.375,0-0.773,0-1.034c0.246,0,0.801,0,1.696,0
	c1.036,0,1.442,0.241,1.909,0.737c0.695,0.922,0.755,2.109,0.755,3.449v22.909l0.001,0.207
	C86.993,35.549,86.998,36.555,86.343,37.537"/>
</svg>
