<?xml version="1.0" encoding="utf-8"?>
<!-- Generator: Adobe Illustrator 16.0.0, SVG Export Plug-In . SVG Version: 6.00 Build 0)  -->
<!DOCTYPE svg PUBLIC "-//W3C//DTD SVG 1.1//EN" "http://www.w3.org/Graphics/SVG/1.1/DTD/svg11.dtd">
<svg version="1.1" id="Layer_1" xmlns="http://www.w3.org/2000/svg" xmlns:xlink="http://www.w3.org/1999/xlink" x="0px" y="0px"
	 width="261.25px" height="78.375px" viewBox="0 0 261.25 78.375" enable-background="new 0 0 261.25 78.375" xml:space="preserve">
<path fill="#77797D" d="M18.416,15.449H9.605V27.01h8.86c4.333,0,7.087-2.267,7.087-5.806
	C25.553,17.412,22.896,15.449,18.416,15.449 M25.652,44.379L17.185,32.37H9.604v12.009H3.551V9.935h15.358
	c7.923,0,12.794,4.185,12.794,10.924c0,5.705-3.395,9.149-8.219,10.478l9.304,13.042H25.652z"/>
<path fill="#77797D" d="M68.412,36.254c0,2.314,1.181,3.25,3.197,3.25c1.331,0,2.512-0.293,3.692-0.887v4.879
	c-1.475,0.836-3.151,1.324-5.364,1.324c-4.383,0-7.482-1.92-7.482-7.631V23.513h-3.298v-5.115h3.298v-7.134h5.957v7.134h6.987v5.115
	h-6.987V36.254z"/>
<path fill="#77797D" d="M95.73,29.567c-0.396-3.838-2.657-6.837-6.596-6.837c-3.645,0-6.2,2.803-6.745,6.837H95.73z M89.922,40.096
	c2.902,0,4.972-1.082,7.037-3.104l3.497,3.104c-2.461,2.955-5.859,4.875-10.632,4.875c-7.531,0-13.339-5.467-13.339-13.535
	c0-7.48,5.267-13.581,12.698-13.581c8.27,0,12.453,6.496,12.453,14.022c0,0.543-0.048,1.034-0.098,1.623H82.44
	C83.129,37.732,86.082,40.096,89.922,40.096"/>
<path fill="#77797D" d="M122.121,44.971c-10.043,0-17.53-7.832-17.53-17.766c0-9.84,7.338-17.859,17.774-17.859
	c6.352,0,10.188,2.214,13.491,5.365l-3.889,4.474c-2.76-2.556-5.715-4.281-9.649-4.281c-6.595,0-11.377,5.414-11.377,12.202
	c0,6.787,4.782,12.303,11.377,12.303c4.232,0,6.939-1.729,9.891-4.479l3.891,3.938C132.504,42.614,128.567,44.971,122.121,44.971"/>
<path fill="#77797D" d="M138.904,18.398h5.957v25.983h-5.957V18.398z M138.662,9.935h6.396v5.66h-6.396V9.935z"/>
<path fill="#77797D" d="M156.74,36.254c0,2.314,1.184,3.25,3.195,3.25c1.332,0,2.512-0.293,3.691-0.887v4.879
	c-1.473,0.836-3.146,1.324-5.363,1.324c-4.375,0-7.479-1.92-7.479-7.631V23.513h-3.297v-5.115h3.297v-7.134h5.955v7.134h6.99v5.115
	h-6.99V36.254L156.74,36.254z"/>
<path fill="#77797D" d="M182.271,45.118c-2.064,5.315-4.381,7.282-8.563,7.282c-2.51,0-4.332-0.59-6.152-1.571l2.021-4.433
	c1.076,0.592,2.262,0.982,3.49,0.982c1.678,0,2.709-0.738,3.689-3l-10.824-25.98h6.352l7.381,19.281l6.744-19.281h6.197
	L182.271,45.118z"/>
<path fill="#77797D" d="M44.256,39.426c-3.867,0-7.014-3.605-7.014-8.035s3.146-8.031,7.014-8.031c3.872,0,7.019,3.602,7.019,8.031
	S48.128,39.426,44.256,39.426 M51.16,18.398v2.284c-2.026-1.805-4.575-2.878-7.345-2.878c-6.586,0-11.928,6.08-11.928,13.582
	c0,7.503,5.341,13.582,11.928,13.582c2.77,0,5.32-1.071,7.345-2.877v2.291h5.907V18.398H51.16z"/>
<path fill="#77797D" d="M228.773,7.879c-16.443,0-29.82,13.166-29.82,29.348c0,16.188,13.377,29.354,29.82,29.354
	c2.084,0,4.008-0.265,3.416-0.197h-0.002c2.428-0.437,3.162-2.586,2.266-4.895l-0.004-0.011c2.4-0.539,4.67-1.414,6.756-2.576
	l0.004,0.007c0.906,2.334,3.393,3.133,4.789,2.258c7.613-5.319,12.602-14.063,12.602-23.938
	C258.596,21.045,245.215,7.879,228.773,7.879"/>
<path fill="#8C8C8C" d="M254.074,37.227c0,13.75-11.326,24.892-25.305,24.892c-13.971,0-25.301-11.142-25.301-24.892
	c0-13.742,11.33-24.88,25.301-24.88C242.748,12.346,254.074,23.485,254.074,37.227"/>
<path fill="#FFFFFF" d="M232.188,66.381c5.211-0.363,11.354-3.127,13.811-5.215c-1.396,0.875-3.883,0.076-4.789-2.258l-0.391-1
	l-3.188-8.184l-1.484-3.813l4.088,0.19l1.328,0.062l1.326,0.063h0.004c2.246,0.103,2.83-1.16,1.295-2.803l-19.549-20.958
	c-1.537-1.648-2.795-1.153-2.795,1.1V52.23c0,2.25,1.287,2.771,2.861,1.166l0,0l0.928-0.953l0.928-0.952l2.861-2.929l1.48,3.812
	l3.189,8.187l0.361,0.932C235.35,63.795,234.611,65.948,232.188,66.381"/>
<path fill="#77797D" d="M5.41,60.008c0.442,0,0.663,0.182,0.663,0.541c0,0.271-0.204,0.477-0.615,0.613
	c-0.706,0.256-1.057,0.709-1.057,1.363c0,0.522,0.205,0.936,0.614,1.229c0.353,0.246,0.8,0.369,1.341,0.369
	c1.082,0,2.029-0.313,2.841-0.944c0.508-0.402,0.763-0.91,0.763-1.523c0-0.379-0.074-0.719-0.221-1.021
	c-0.156-0.313-0.394-0.703-0.713-1.18c-0.492-0.738-0.906-1.41-1.243-2.018c-0.377-0.672-0.565-1.332-0.565-1.979
	c0-1.529,0.758-2.967,2.275-4.303c0.803-0.695,1.688-1.262,2.657-1.695c0.802-0.352,1.578-0.527,2.324-0.527
	c0.484,0,0.893,0.129,1.229,0.383c0.41,0.304,0.615,0.718,0.615,1.24c0,0.818-0.443,1.703-1.329,2.652
	c-0.836,0.896-1.812,1.623-2.927,2.188c-0.558,0.278-0.979,0.418-1.267,0.418c-0.189,0-0.356-0.076-0.504-0.232
	c-0.098-0.104-0.147-0.225-0.147-0.354c0-0.305,0.271-0.549,0.812-0.735c0.991-0.354,1.869-0.851,2.632-1.486
	c0.983-0.819,1.476-1.536,1.476-2.151c0-0.236-0.099-0.431-0.295-0.578c-0.156-0.113-0.341-0.172-0.553-0.172
	c-0.567,0-1.275,0.218-2.128,0.651c-1.148,0.582-2.05,1.332-2.706,2.25c-0.574,0.793-0.861,1.566-0.861,2.322
	c0,0.549,0.151,1.112,0.455,1.694c0.254,0.47,0.578,0.994,0.972,1.584c0.376,0.564,0.696,1.093,0.959,1.574
	c0.304,0.57,0.456,1.109,0.456,1.609c0,0.965-0.554,1.82-1.661,2.566c-0.942,0.623-2.01,0.936-3.197,0.936
	c-1.172,0-2.09-0.322-2.755-0.971C3.25,63.83,3,63.264,3,62.625c0-0.713,0.238-1.311,0.713-1.793C4,60.535,4.34,60.314,4.734,60.168
	C5.003,60.063,5.229,60.008,5.41,60.008"/>
<path fill="#77797D" d="M15.106,60.661c0.689-0.722,1.295-1.287,1.82-1.697c0.795-0.612,1.328-0.92,1.599-0.92
	c0.131,0,0.246,0.049,0.344,0.146c0.09,0.09,0.135,0.188,0.135,0.295c0,0.156-0.143,0.41-0.43,0.763
	c-0.443,0.56-0.75,1.032-0.923,1.426c1.919-1.926,3.23-2.889,3.937-2.889c0.147,0,0.274,0.047,0.38,0.137
	c0.115,0.099,0.172,0.222,0.172,0.367c0,0.229-0.176,0.524-0.529,0.885c-1.549,1.601-2.324,2.91-2.324,3.937
	c0,0.418,0.074,0.719,0.222,0.896l0.319,0.404c0.065,0.073,0.099,0.168,0.099,0.282c0,0.132-0.054,0.254-0.16,0.369
	c-0.123,0.131-0.262,0.195-0.418,0.195c-0.271,0-0.521-0.172-0.75-0.516c-0.279-0.41-0.418-0.896-0.418-1.451
	c0-0.746,0.213-1.5,0.64-2.264c0.147-0.271,0.393-0.629,0.738-1.082c-0.697,0.525-1.406,1.246-2.127,2.164
	c-0.492,0.623-0.935,1.318-1.329,2.09c-0.188,0.367-0.41,0.555-0.664,0.555c-0.279,0-0.418-0.154-0.418-0.469
	c0-0.334,0.229-1.027,0.688-2.074c0.263-0.6,0.586-1.23,0.973-1.896c-1.402,1.082-2.456,2.549-3.161,4.397
	c-0.171,0.41-0.401,0.615-0.688,0.615c-0.131,0-0.238-0.05-0.32-0.146c-0.09-0.102-0.135-0.219-0.135-0.356
	c0-0.484,0.271-1.355,0.812-2.617c0.566-1.338,1.205-2.537,1.918-3.604c0.492-0.746,0.873-1.117,1.144-1.117
	c0.246,0,0.369,0.132,0.369,0.394c0,0.115-0.152,0.401-0.456,0.861C15.63,59.604,15.278,60.243,15.106,60.661"/>
<path fill="#77797D" d="M25.295,62.725c-0.271,0.476-0.537,0.877-0.799,1.205c-0.517,0.639-1.029,0.959-1.537,0.959
	c-0.443,0-0.787-0.209-1.033-0.629c-0.156-0.27-0.234-0.59-0.234-0.957c0-0.91,0.287-1.914,0.861-3.012
	c0.639-1.225,1.411-2.16,2.312-2.814c0.59-0.428,1.16-0.641,1.709-0.641c0.344,0,0.631,0.105,0.861,0.32
	c0.196,0.188,0.294,0.4,0.294,0.639c0,0.182-0.069,0.432-0.208,0.75c0.123,0.172,0.185,0.324,0.185,0.455
	c0,0.172-0.115,0.455-0.344,0.848c-0.238,0.4-0.475,0.937-0.713,1.598c-0.254,0.707-0.381,1.271-0.381,1.697
	c0,0.344,0.103,0.627,0.308,0.849c0.057,0.059,0.226,0.151,0.504,0.282c0.205,0.099,0.307,0.271,0.307,0.517
	c0,0.155-0.058,0.283-0.172,0.381c-0.123,0.106-0.266,0.16-0.43,0.16c-0.442,0-0.824-0.195-1.144-0.588
	c-0.262-0.32-0.394-0.724-0.394-1.205C25.245,63.374,25.262,63.102,25.295,62.725 M26.832,58.682
	c-0.099-0.182-0.205-0.313-0.32-0.399c-0.114-0.087-0.238-0.13-0.369-0.13c-0.624,0-1.299,0.545-2.029,1.636
	c-0.804,1.205-1.206,2.228-1.206,3.063c0,0.203,0.04,0.358,0.117,0.467c0.078,0.104,0.195,0.158,0.35,0.158
	c0.395,0,0.854-0.416,1.378-1.252c0.295-0.459,0.66-1.138,1.094-2.027c0.287-0.583,0.496-0.969,0.628-1.156
	C26.541,58.939,26.659,58.82,26.832,58.682"/>
<path fill="#77797D" d="M30.687,60.708c0.804-0.858,1.73-1.696,2.779-2.519c0.377-0.295,0.779-0.569,1.205-0.823
	c0.214-0.123,0.349-0.187,0.406-0.187c0.124,0,0.246,0.092,0.369,0.271c0.074,0.098,0.11,0.188,0.11,0.271
	c0,0.146-0.156,0.348-0.467,0.603c-0.837,0.664-1.255,1.163-1.255,1.5c0,0.188,0.107,0.282,0.32,0.282
	c0.353,0,0.959-0.291,1.82-0.873c0.147-0.1,0.27-0.146,0.368-0.146c0.066,0,0.131,0.031,0.197,0.1
	c0.074,0.07,0.111,0.148,0.111,0.23c0,0.246-0.345,0.623-1.033,1.131c-0.723,0.541-1.407,0.813-2.054,0.813
	c-0.263,0-0.504-0.067-0.726-0.209c-0.188-0.112-0.282-0.317-0.282-0.614c0-0.203,0.086-0.438,0.258-0.699
	c-0.647,0.459-1.411,1.244-2.288,2.358c-0.509,0.688-1.013,1.537-1.513,2.546c-0.188,0.375-0.422,0.563-0.701,0.563
	c-0.303,0-0.455-0.145-0.455-0.43c0-0.279,0.238-1.023,0.713-2.236c0.704-1.805,1.443-3.201,2.213-4.19
	c0.476-0.615,0.873-0.923,1.193-0.923c0.107,0,0.206,0.033,0.295,0.099c0.106,0.082,0.16,0.187,0.16,0.31s-0.083,0.295-0.247,0.518
	c-0.033,0.041-0.25,0.314-0.652,0.822C31.167,59.754,30.884,60.234,30.687,60.708"/>
<path fill="#77797D" d="M40.9,56.836c-0.533,0.828-1.025,1.754-1.476,2.775c-0.647,1.459-0.971,2.551-0.971,3.271
	c0,0.205,0.043,0.361,0.129,0.469c0.085,0.105,0.215,0.158,0.387,0.158c0.41,0,0.906-0.385,1.489-1.154
	c0.369-0.475,0.697-0.948,0.983-1.426c0.155-0.271,0.324-0.404,0.504-0.404c0.106,0,0.196,0.035,0.271,0.109
	c0.065,0.074,0.099,0.146,0.099,0.221c0,0.306-0.398,0.979-1.193,2.027c-0.951,1.264-1.82,1.895-2.607,1.895
	c-0.418,0-0.767-0.19-1.046-0.577c-0.171-0.244-0.257-0.595-0.257-1.043c0-0.992,0.287-2.148,0.861-3.468
	c0.139-0.328,0.524-1.119,1.156-2.373c-0.222,0.06-0.39,0.086-0.504,0.086c-0.172,0-0.325-0.041-0.456-0.123
	c-0.18-0.112-0.271-0.258-0.271-0.43c0-0.205,0.119-0.369,0.357-0.492c0.065-0.03,0.369-0.086,0.91-0.159
	c0.197-0.031,0.483-0.109,0.861-0.232c0.287-0.518,0.754-1.217,1.402-2.103c0.36-0.491,0.61-0.813,0.75-0.959
	c0.197-0.204,0.369-0.307,0.516-0.307c0.107,0,0.213,0.057,0.32,0.172c0.099,0.105,0.148,0.213,0.148,0.318
	c0,0.213-0.229,0.635-0.688,1.268c-0.304,0.408-0.529,0.74-0.677,0.996c0.91-0.248,1.562-0.369,1.955-0.369
	c0.451,0,0.676,0.188,0.676,0.563c0,0.188-0.078,0.328-0.233,0.42c-0.083,0.049-0.295,0.09-0.64,0.123
	c-0.14-0.01-0.759,0.146-1.857,0.467C41.494,56.645,41.195,56.739,40.9,56.836"/>
<path fill="#77797D" d="M43.759,62.393v0.224c0,0.18,0.044,0.334,0.135,0.465c0.204,0.305,0.541,0.457,1.008,0.457
	c1.025,0,2.209-0.787,3.554-2.361c0.238-0.27,0.438-0.403,0.603-0.403c0.09,0,0.172,0.045,0.246,0.137
	c0.049,0.063,0.074,0.127,0.074,0.186c0,0.318-0.394,0.859-1.181,1.621c-0.615,0.6-1.271,1.086-1.968,1.463
	c-0.697,0.379-1.345,0.566-1.942,0.566c-0.615,0-1.099-0.215-1.451-0.643C42.6,63.811,42.48,63.41,42.48,62.9
	c0-1.385,0.652-2.74,1.956-4.066c1.058-1.082,1.979-1.623,2.768-1.623c0.212,0,0.405,0.064,0.577,0.195
	c0.213,0.174,0.319,0.396,0.319,0.678c0,0.436-0.2,0.967-0.602,1.598C46.669,60.988,45.423,61.893,43.759,62.393 M44.029,61.434
	c0.574-0.195,1.025-0.416,1.353-0.662c0.574-0.442,1.029-0.942,1.366-1.5c0.123-0.196,0.185-0.373,0.185-0.526
	c0-0.166-0.078-0.246-0.234-0.246c-0.213,0-0.517,0.158-0.91,0.479C45.084,59.542,44.497,60.361,44.029,61.434"/>
<path fill="#77797D" d="M52.202,60.708c0.803-0.858,1.729-1.696,2.778-2.519c0.377-0.295,0.779-0.569,1.205-0.823
	c0.214-0.123,0.349-0.187,0.406-0.187c0.123,0,0.246,0.092,0.369,0.271c0.074,0.098,0.11,0.188,0.11,0.271
	c0,0.146-0.155,0.348-0.467,0.603c-0.836,0.664-1.254,1.163-1.254,1.5c0,0.188,0.106,0.282,0.319,0.282
	c0.353,0,0.959-0.291,1.82-0.873c0.147-0.1,0.271-0.146,0.369-0.146c0.065,0,0.131,0.031,0.197,0.1c0.074,0.07,0.11,0.148,0.11,0.23
	c0,0.246-0.344,0.623-1.033,1.131c-0.722,0.541-1.406,0.813-2.053,0.813c-0.263,0-0.505-0.067-0.726-0.209
	c-0.188-0.112-0.283-0.317-0.283-0.614c0-0.203,0.086-0.438,0.258-0.699c-0.647,0.459-1.41,1.244-2.288,2.358
	c-0.509,0.688-1.013,1.537-1.513,2.546c-0.188,0.375-0.422,0.563-0.701,0.563c-0.303,0-0.455-0.145-0.455-0.43
	c0-0.279,0.238-1.023,0.713-2.236c0.705-1.805,1.442-3.201,2.214-4.19c0.474-0.615,0.873-0.923,1.192-0.923
	c0.106,0,0.206,0.033,0.295,0.099c0.106,0.082,0.16,0.187,0.16,0.31s-0.083,0.295-0.246,0.518c-0.033,0.041-0.25,0.314-0.652,0.822
	C52.681,59.754,52.398,60.234,52.202,60.708"/>
<path fill="#77797D" d="M66.983,58.299c0.697-0.59,1.324-0.885,1.882-0.885c0.344,0,0.627,0.145,0.848,0.432
	c0.205,0.254,0.307,0.549,0.307,0.885c0,0.64-0.209,1.414-0.627,2.322c-0.467,1.008-1.144,1.945-2.029,2.814
	c-0.73,0.721-1.427,1.082-2.091,1.082c-0.246,0-0.469-0.047-0.67-0.139c-0.201-0.09-0.378-0.226-0.535-0.402
	c-0.065,0.113-0.106,0.188-0.123,0.221c-0.139,0.305-0.236,0.488-0.289,0.555c-0.053,0.064-0.136,0.099-0.251,0.099
	c-0.148,0-0.287-0.087-0.418-0.259c-0.091-0.114-0.136-0.237-0.136-0.369c0-0.229,0.472-1.389,1.415-3.479
	c1.32-2.916,2.85-5.816,4.587-8.701c0.705-1.18,1.135-1.873,1.292-2.078c0.172-0.244,0.332-0.367,0.479-0.367
	c0.18,0,0.34,0.091,0.48,0.271c0.09,0.115,0.135,0.25,0.135,0.406c0,0.172-0.079,0.392-0.234,0.651
	c-0.033,0.058-0.291,0.479-0.775,1.267C68.746,54.917,67.665,56.809,66.983,58.299 M64.912,63.624
	c0.126,0.08,0.26,0.123,0.399,0.123c0.713,0,1.467-0.619,2.263-1.854c0.369-0.56,0.66-1.109,0.873-1.66
	c0.188-0.488,0.283-0.854,0.283-1.094c0-0.164-0.037-0.285-0.11-0.361c-0.073-0.078-0.188-0.115-0.345-0.115
	c-0.376,0-0.832,0.258-1.365,0.771c-0.533,0.508-1.058,1.239-1.574,2.198c-0.246,0.459-0.459,0.892-0.639,1.291l-0.16,0.332
	C64.66,63.417,64.785,63.542,64.912,63.624"/>
<path fill="#77797D" d="M75.13,61.311c-0.73,0.861-1.312,1.5-1.746,1.918c-0.861,0.818-1.579,1.229-2.152,1.229
	c-0.278,0-0.5-0.103-0.664-0.308c-0.123-0.164-0.184-0.368-0.184-0.612c0-0.888,0.523-2.063,1.574-3.527
	c1.065-1.491,1.836-2.235,2.312-2.235c0.131,0,0.247,0.059,0.345,0.172c0.09,0.092,0.135,0.195,0.135,0.318
	c0,0.182-0.047,0.34-0.142,0.473c-0.094,0.139-0.363,0.438-0.806,0.904c-0.468,0.481-0.897,1.008-1.291,1.571
	c-0.451,0.642-0.676,1.104-0.676,1.402c0,0.172,0.082,0.256,0.246,0.256c0.328,0,0.942-0.445,1.844-1.338
	c0.566-0.566,1.009-1.041,1.329-1.427c0.065-0.082,0.353-0.473,0.861-1.168c0.458-0.614,0.742-0.979,0.848-1.096
	c0.246-0.285,0.476-0.43,0.689-0.43c0.13,0,0.249,0.059,0.356,0.172c0.098,0.105,0.147,0.229,0.147,0.369
	c0,0.236-0.165,0.635-0.492,1.189c-0.394,0.684-0.754,1.313-1.083,1.903c-0.516,0.92-0.914,1.738-1.193,2.459
	c0.525-0.303,1.004-0.676,1.439-1.118c0.738-0.736,1.189-1.285,1.353-1.646c0.156-0.326,0.315-0.49,0.48-0.49
	c0.229,0,0.344,0.115,0.344,0.345c0,0.436-0.368,1.082-1.106,1.94c-0.886,1.03-1.976,1.91-3.272,2.631
	c-0.689,1.654-1.34,3.026-1.956,4.117c-1.147,2.008-2.332,3.012-3.554,3.012c-0.5,0-0.902-0.192-1.205-0.577
	c-0.237-0.296-0.356-0.668-0.356-1.119c0-1.275,0.897-2.584,2.694-3.92c0.524-0.396,1.303-0.886,2.336-1.476
	c0.418-0.238,0.746-0.433,0.984-0.578c0.147-0.377,0.373-0.877,0.676-1.5C74.582,62.459,74.877,61.854,75.13,61.311 M72.868,66.143
	c-0.869,0.441-1.759,1.07-2.669,1.894c-0.918,0.844-1.377,1.629-1.377,2.358c0,0.154,0.045,0.285,0.135,0.394
	c0.124,0.147,0.283,0.223,0.479,0.223c0.615,0,1.296-0.645,2.042-1.93c0.123-0.215,0.459-0.922,1.008-2.127
	C72.602,66.708,72.729,66.438,72.868,66.143"/>
<path fill="#77797D" d="M96.086,48.945c0.549,0,0.972,0.199,1.267,0.593c0.237,0.313,0.357,0.688,0.357,1.131
	c0,0.795-0.267,1.699-0.8,2.715c-0.466,0.877-1.049,1.664-1.746,2.359c-0.46,0.452-0.82,0.678-1.083,0.678
	c-0.172,0-0.332-0.086-0.479-0.258c-0.107-0.123-0.16-0.265-0.16-0.42c0-0.285,0.25-0.613,0.75-0.981
	c0.705-0.521,1.267-1.099,1.685-1.722c0.615-0.899,0.923-1.662,0.923-2.285c0-0.254-0.056-0.44-0.166-0.563
	c-0.111-0.123-0.277-0.187-0.499-0.187c-0.451,0-1.09,0.328-1.918,0.981c-0.943,0.738-1.939,1.742-2.989,3.013
	c-1.336,1.614-2.353,3.205-3.049,4.771c-0.722,1.623-1.083,3.008-1.083,4.153c0,0.55,0.16,1.019,0.48,1.4
	c0.352,0.434,0.782,0.651,1.291,0.651c0.885,0,2-0.688,3.346-2.063c0.401-0.418,0.889-1.024,1.463-1.82
	c0.376-0.508,0.619-0.866,0.726-1.079c0.123-0.238,0.266-0.357,0.431-0.357c0.18,0,0.27,0.088,0.27,0.26
	c0,0.369-0.459,1.195-1.377,2.48c-0.763,1.073-1.603,1.951-2.521,2.631c-1.033,0.764-2.008,1.145-2.926,1.145
	c-0.96,0-1.702-0.431-2.227-1.289c-0.335-0.549-0.504-1.176-0.504-1.881c0-1.771,0.836-4.002,2.509-6.697
	c1.427-2.295,2.931-4.143,4.513-5.545C93.939,49.549,95.111,48.945,96.086,48.945"/>
<path fill="#77797D" d="M100.532,56.825c0.672,0,1.008,0.409,1.008,1.229c0,1.09-0.503,2.471-1.512,4.141
	c-1.099,1.813-2.161,2.718-3.185,2.718c-0.476,0-0.824-0.222-1.046-0.662c-0.114-0.224-0.172-0.487-0.172-0.801
	c0-1.05,0.361-2.188,1.083-3.416c0.672-1.14,1.463-2.023,2.373-2.654C99.613,57.008,100.097,56.825,100.532,56.825 M99.253,61.471
	c-0.205-0.162-0.308-0.289-0.308-0.381c0-0.064,0.132-0.244,0.394-0.541c0.738-0.826,1.107-1.494,1.107-2.004
	c0-0.064-0.02-0.131-0.062-0.195c-0.065-0.125-0.167-0.186-0.307-0.186c-0.263,0-0.648,0.254-1.156,0.762
	c-0.656,0.656-1.156,1.332-1.5,2.027c-0.402,0.795-0.603,1.455-0.603,1.979c0,0.141,0.037,0.262,0.111,0.367
	c0.106,0.146,0.242,0.223,0.406,0.223c0.394,0,0.815-0.295,1.266-0.886c0.197-0.245,0.356-0.499,0.48-0.763
	C99.204,61.616,99.261,61.48,99.253,61.471"/>
<path fill="#77797D" d="M103.993,60.661c0.689-0.722,1.295-1.287,1.82-1.697c0.795-0.612,1.328-0.92,1.598-0.92
	c0.131,0,0.246,0.049,0.345,0.146c0.09,0.09,0.135,0.188,0.135,0.295c0,0.156-0.144,0.41-0.431,0.763
	c-0.442,0.56-0.75,1.032-0.922,1.426c1.918-1.926,3.23-2.889,3.936-2.889c0.147,0,0.274,0.047,0.381,0.137
	c0.115,0.099,0.172,0.222,0.172,0.367c0,0.229-0.177,0.524-0.529,0.885c-1.549,1.601-2.324,2.91-2.324,3.937
	c0,0.418,0.074,0.719,0.222,0.896l0.319,0.404c0.065,0.073,0.099,0.168,0.099,0.282c0,0.132-0.054,0.254-0.161,0.369
	c-0.123,0.131-0.262,0.195-0.418,0.195c-0.27,0-0.521-0.172-0.75-0.516c-0.279-0.41-0.418-0.896-0.418-1.451
	c0-0.746,0.213-1.5,0.639-2.264c0.148-0.271,0.394-0.629,0.738-1.082c-0.696,0.525-1.406,1.246-2.127,2.164
	c-0.492,0.623-0.935,1.318-1.328,2.09c-0.189,0.367-0.41,0.555-0.664,0.555c-0.278,0-0.418-0.154-0.418-0.469
	c0-0.334,0.229-1.027,0.689-2.074c0.262-0.6,0.586-1.23,0.971-1.896c-1.402,1.082-2.456,2.549-3.16,4.397
	c-0.172,0.41-0.401,0.615-0.689,0.615c-0.131,0-0.238-0.05-0.32-0.146c-0.09-0.102-0.135-0.219-0.135-0.356
	c0-0.484,0.271-1.355,0.812-2.617c0.566-1.338,1.206-2.537,1.918-3.604c0.492-0.746,0.874-1.117,1.144-1.117
	c0.246,0,0.369,0.132,0.369,0.394c0,0.115-0.151,0.401-0.455,0.861C104.518,59.604,104.166,60.243,103.993,60.661"/>
<path fill="#77797D" d="M114.612,58.227c0.336-0.213,0.586-0.36,0.75-0.442c0.336-0.162,0.664-0.244,0.983-0.244
	c0.361,0,0.632,0.104,0.812,0.313c0.181,0.209,0.271,0.521,0.271,0.938c0,0.574-0.199,1.263-0.603,2.063
	c-0.623,1.271-1.377,2.271-2.263,3c-0.746,0.613-1.447,0.922-2.104,0.922c-0.36,0-0.716-0.141-1.07-0.418
	c-1.122,2.271-2.127,4.584-3.013,6.945c-0.188,0.563-0.41,0.846-0.664,0.846c-0.124,0-0.246-0.082-0.369-0.246
	c-0.09-0.112-0.135-0.239-0.135-0.381c0-0.44,0.541-1.879,1.623-4.313c1.672-3.754,3.26-6.871,4.76-9.354
	c0.312-0.524,0.52-0.885,0.627-1.082c0.287-0.532,0.565-0.799,0.836-0.799c0.279,0,0.418,0.168,0.418,0.504
	c0,0.188-0.098,0.441-0.295,0.763C114.94,57.652,114.751,57.98,114.612,58.227 M111.845,63.327c0.181,0.188,0.406,0.284,0.676,0.284
	c0.762,0,1.606-0.678,2.534-2.028c0.344-0.5,0.619-1.013,0.824-1.537c0.163-0.418,0.245-0.731,0.245-0.944
	c0-0.146-0.035-0.261-0.104-0.332c-0.069-0.074-0.178-0.109-0.326-0.109c-0.386,0-0.856,0.268-1.415,0.801
	c-0.533,0.518-1.045,1.242-1.537,2.176C112.292,62.491,111.993,63.057,111.845,63.327"/>
<path fill="#77797D" d="M121.075,62.725c-0.271,0.476-0.536,0.877-0.799,1.205c-0.517,0.639-1.028,0.959-1.538,0.959
	c-0.441,0-0.787-0.209-1.033-0.629c-0.154-0.27-0.231-0.59-0.231-0.957c0-0.91,0.286-1.914,0.86-3.012
	c0.64-1.225,1.41-2.16,2.313-2.814c0.59-0.428,1.16-0.641,1.709-0.641c0.344,0,0.632,0.105,0.859,0.32
	c0.197,0.188,0.295,0.4,0.295,0.639c0,0.182-0.068,0.432-0.209,0.75c0.123,0.172,0.187,0.324,0.187,0.455
	c0,0.172-0.114,0.455-0.344,0.848c-0.238,0.4-0.478,0.937-0.713,1.598c-0.255,0.707-0.382,1.271-0.382,1.697
	c0,0.344,0.103,0.627,0.308,0.849c0.058,0.059,0.228,0.151,0.504,0.282c0.205,0.099,0.308,0.271,0.308,0.517
	c0,0.155-0.059,0.283-0.172,0.381c-0.123,0.106-0.267,0.16-0.431,0.16c-0.442,0-0.823-0.195-1.146-0.588
	c-0.263-0.32-0.394-0.724-0.394-1.205C121.025,63.374,121.042,63.102,121.075,62.725 M122.612,58.682
	c-0.099-0.182-0.205-0.313-0.319-0.399c-0.115-0.087-0.237-0.13-0.369-0.13c-0.625,0-1.299,0.545-2.028,1.636
	c-0.806,1.205-1.206,2.228-1.206,3.063c0,0.203,0.04,0.358,0.117,0.467c0.076,0.104,0.193,0.158,0.351,0.158
	c0.394,0,0.854-0.416,1.38-1.252c0.295-0.459,0.658-1.138,1.094-2.027c0.287-0.583,0.496-0.969,0.627-1.156
	C122.321,58.939,122.44,58.82,122.612,58.682"/>
<path fill="#77797D" d="M126.466,60.708c0.805-0.858,1.729-1.696,2.779-2.519c0.379-0.295,0.777-0.569,1.204-0.823
	c0.216-0.123,0.351-0.187,0.405-0.187c0.123,0,0.246,0.092,0.37,0.271c0.072,0.098,0.109,0.188,0.109,0.271
	c0,0.146-0.154,0.348-0.469,0.603c-0.836,0.664-1.254,1.163-1.254,1.5c0,0.188,0.105,0.282,0.32,0.282
	c0.354,0,0.957-0.291,1.819-0.873c0.145-0.1,0.27-0.146,0.369-0.146c0.063,0,0.131,0.031,0.195,0.1
	c0.074,0.07,0.107,0.148,0.107,0.23c0,0.246-0.346,0.623-1.031,1.131c-0.723,0.541-1.405,0.813-2.055,0.813
	c-0.262,0-0.504-0.067-0.726-0.209c-0.188-0.112-0.282-0.317-0.282-0.614c0-0.203,0.086-0.438,0.258-0.699
	c-0.647,0.459-1.41,1.244-2.287,2.358c-0.51,0.688-1.014,1.537-1.514,2.546c-0.188,0.375-0.422,0.563-0.701,0.563
	c-0.303,0-0.455-0.145-0.455-0.43c0-0.279,0.238-1.023,0.713-2.236c0.705-1.805,1.443-3.201,2.215-4.19
	c0.476-0.615,0.873-0.923,1.191-0.923c0.106,0,0.205,0.033,0.295,0.099c0.107,0.082,0.16,0.187,0.16,0.31s-0.082,0.295-0.246,0.518
	c-0.033,0.041-0.25,0.314-0.65,0.822C126.947,59.754,126.664,60.234,126.466,60.708"/>
<path fill="#77797D" d="M135.4,57.391c0.141,0,0.254,0.055,0.346,0.158c0.064,0.092,0.098,0.182,0.098,0.271
	c0,0.146-0.117,0.396-0.354,0.738c-0.854,1.316-1.459,2.402-1.82,3.256c-0.387,0.877-0.727,1.775-1.021,2.705
	c-0.131,0.408-0.336,0.611-0.615,0.611c-0.162,0-0.295-0.063-0.393-0.193c-0.094-0.104-0.139-0.225-0.139-0.348
	c0-0.244,0.264-1.063,0.787-2.457c0.41-1.098,1.074-2.311,1.992-3.639c0.297-0.436,0.518-0.727,0.664-0.873
	C135.096,57.467,135.246,57.391,135.4,57.391 M137.736,52.831c0.369,0,0.557,0.188,0.557,0.565c0,0.345-0.184,0.726-0.541,1.144
	c-0.348,0.399-0.68,0.604-0.998,0.604c-0.154,0-0.281-0.06-0.381-0.172c-0.1-0.105-0.146-0.238-0.146-0.396
	c0-0.396,0.217-0.812,0.65-1.254C137.197,52.995,137.482,52.831,137.736,52.831"/>
<path fill="#77797D" d="M141.398,56.592c0.508,0,0.891,0.09,1.145,0.27c0.254,0.181,0.381,0.455,0.381,0.824
	c0,0.482-0.182,0.949-0.541,1.4c-0.344,0.428-0.857,0.771-1.549,1.031c-0.377,0.141-0.691,0.209-0.949,0.209
	c-0.342,0-0.514-0.15-0.514-0.453c0-0.205,0.098-0.359,0.295-0.469c0.047-0.023,0.326-0.096,0.836-0.209
	c0.303-0.064,0.58-0.209,0.836-0.432c0.225-0.188,0.332-0.394,0.332-0.615c0-0.17-0.049-0.297-0.146-0.381
	c-0.102-0.082-0.248-0.123-0.443-0.123c-0.479,0-1,0.192-1.574,0.578c-0.662,0.438-0.994,0.95-0.994,1.549
	c0,0.43,0.215,0.959,0.65,1.6c0.48,0.695,0.725,1.287,0.725,1.771c0,0.721-0.318,1.283-0.957,1.693
	c-0.396,0.254-0.842,0.383-1.342,0.383c-0.785,0-1.385-0.283-1.795-0.85c-0.287-0.4-0.434-0.877-0.434-1.426
	c0-0.641,0.164-1.178,0.494-1.609c0.211-0.287,0.436-0.432,0.662-0.432c0.203,0,0.309,0.082,0.309,0.246
	c0,0.063-0.035,0.164-0.107,0.293c-0.191,0.354-0.285,0.768-0.285,1.242c0,0.401,0.146,0.741,0.432,1.021
	c0.256,0.246,0.547,0.369,0.873,0.369c0.32,0,0.57-0.105,0.75-0.32c0.148-0.18,0.223-0.406,0.223-0.688
	c0-0.344-0.195-0.791-0.59-1.34c-0.541-0.754-0.814-1.438-0.814-2.054c0-0.817,0.447-1.545,1.344-2.176
	C139.512,56.895,140.432,56.592,141.398,56.592"/>
<path fill="#77797D" d="M147.156,56.825c0.674,0,1.012,0.409,1.012,1.229c0,1.09-0.506,2.471-1.518,4.141
	c-1.098,1.813-2.156,2.718-3.184,2.718c-0.479,0-0.824-0.222-1.045-0.662c-0.115-0.224-0.174-0.487-0.174-0.801
	c0-1.05,0.359-2.188,1.084-3.416c0.672-1.14,1.463-2.023,2.373-2.654C146.236,57.008,146.725,56.825,147.156,56.825 M145.879,61.471
	c-0.205-0.162-0.309-0.289-0.309-0.381c0-0.064,0.133-0.244,0.395-0.541c0.738-0.826,1.105-1.494,1.105-2.004
	c0-0.064-0.021-0.131-0.063-0.195c-0.064-0.125-0.17-0.186-0.309-0.186c-0.264,0-0.648,0.254-1.156,0.762
	c-0.654,0.656-1.154,1.332-1.5,2.027c-0.4,0.795-0.604,1.455-0.604,1.979c0,0.141,0.037,0.262,0.109,0.367
	c0.105,0.146,0.242,0.223,0.404,0.223c0.395,0,0.814-0.295,1.27-0.886c0.195-0.245,0.355-0.499,0.479-0.763
	C145.83,61.616,145.887,61.48,145.879,61.471"/>
<path fill="#77797D" d="M150.777,60.538c0.105-0.101,0.211-0.197,0.311-0.295c1.713-1.673,2.859-2.509,3.439-2.509
	c0.32,0,0.48,0.177,0.48,0.529c0,0.244-0.146,0.535-0.43,0.873c-1.566,1.826-2.352,3.438-2.352,4.828
	c0,0.451,0.123,0.883,0.369,1.291c0.113,0.188,0.172,0.336,0.172,0.443c0,0.098-0.049,0.189-0.145,0.279
	c-0.107,0.114-0.236,0.172-0.385,0.172c-0.336,0-0.615-0.213-0.85-0.639c-0.223-0.4-0.33-0.89-0.33-1.464
	c0-1.104,0.416-2.33,1.254-3.676c-1.113,0.713-2.148,1.978-3.109,3.785c-0.246,0.438-0.51,0.651-0.787,0.651
	c-0.141,0-0.254-0.05-0.346-0.147c-0.113-0.113-0.174-0.263-0.174-0.44c0-0.439,0.506-1.603,1.518-3.479
	c0.539-1.018,0.967-1.754,1.275-2.213c0.313-0.449,0.576-0.676,0.801-0.676c0.105,0,0.209,0.049,0.309,0.146
	c0.113,0.115,0.172,0.246,0.172,0.394c0,0.182-0.119,0.438-0.357,0.774C151.271,59.672,150.99,60.127,150.777,60.538"/>
</svg>
