<?xml version="1.0" encoding="utf-8"?>
<!-- Generator: Adobe Illustrator 16.0.0, SVG Export Plug-In . SVG Version: 6.00 Build 0)  -->
<!DOCTYPE svg PUBLIC "-//W3C//DTD SVG 1.1//EN" "http://www.w3.org/Graphics/SVG/1.1/DTD/svg11.dtd">
<svg version="1.1" id="Layer_1" xmlns="http://www.w3.org/2000/svg" xmlns:xlink="http://www.w3.org/1999/xlink" x="0px" y="0px"
	 width="302px" height="79px" viewBox="0 0 302 79" enable-background="new 0 0 302 79" xml:space="preserve">
<path fill="#77797D" d="M273.191,67.127c-0.332,0.176-0.689,0.094-1.037,0.096c-4.127,0.019-8.254,0.027-12.383,0.037
	c-0.976-0.191-1.685,0.123-2.369,0.891c-2.887,3.236-5.857,6.398-8.76,9.621c-0.535,0.595-0.826,0.65-1.394,0.029
	c-2.94-3.229-5.944-6.398-8.885-9.627c-0.601-0.658-1.199-0.938-2.109-0.934c-8.592,0.041-17.185,0.031-25.776,0.035
	c-0.381-0.664-1.041-0.459-1.543-0.369c-2.015,0.365-4.015,0.186-6.021,0.008c-0.115-0.012-0.243-0.074-0.346-0.041
	c-1.008,0.336-1.62-0.42-2.32-0.867c-0.627-0.4-1.081-1.094-1.971-0.99c-0.229,0.027-0.362-0.197-0.375-0.416
	c-0.037-0.615-0.327-1.137-0.657-1.608c-0.958-1.373-1.108-2.918-1.108-4.521c0.008-10.58,0.008-21.161-0.002-31.741
	c0-0.725,0.04-1.445-0.212-2.17c-0.159-0.457,0.003-0.977,0.541-1.232c0.214-0.012,0.382,0.075,0.521,0.232
	c1.543,3.064,2.475,6.371,3.722,9.553c0.758,1.934,1.433,3.899,2.172,5.839c0.187,0.486,0.431,0.969,0.361,1.521
	c-0.55,0.6-0.621,1.313-0.618,2.098c0.023,5.504,0.021,11.006,0.009,16.508c-0.006,1.949,0.563,3.664,1.892,5.107
	c0.08,0.086-0.033,0.063,0.049,0.063c1.24-0.006,1.809,1.602,3.224,1.281c0.657-0.146,1.381,0.229,2.082,0.016
	c0.146-0.039,0.292-0.061,0.442-0.072c0.298-0.01,0.597-0.004,0.895-0.022c3.08,0.059,6.159,0.014,9.238,0.055
	c2.138,0.027,4.275,0.312,6.41,0.113c2.578-0.238,5.158-0.099,7.736-0.181c1.469-0.047,2.92,0.293,4.389,0.113
	c0.4-0.047,0.744,0.154,1.02,0.438c1.496,1.532,3.15,2.895,4.704,4.364c0.873,0.824,1.927,1.438,2.757,2.316
	c0.396,0.42,0.756,0.172,1.07-0.111c0.633-0.565,1.258-1.146,1.879-1.725c1.734-1.615,3.76-2.9,5.33-4.703
	c0.313-0.361,0.693-0.615,1.223-0.58c1.965,0.131,3.922,0.041,5.887-0.066c2.341-0.127,4.693-0.063,7.039-0.02
	c1.267,0.023,2.517-0.273,3.773-0.166c2.194,0.186,4.393,0.193,6.587,0.135c1.249-0.033,2.519,0.127,3.747-0.268
	c0.253-0.082,0.523-0.018,0.787,0.018c2.238,0.314,4.164-0.399,5.818-1.867c0.395-0.35,0.35-1.028,0.773-1.416
	c0.215-0.245,0.489-0.414,0.756-0.6c0.493-0.342,0.928-0.656,1.229,0.254c0.192,0.574,0.793,0.373,1.233,0.314
	c0.529-0.072,0.465-0.537,0.469-0.904c0.019-2.695-0.004-5.391,0.011-8.084c0.004-0.088,0.008-0.178,0.012-0.268
	c-0.002-0.336,0.119-0.799-0.44-0.738c-0.555,0.061-1.348-0.453-1.574,0.559c-0.008,0.09-0.023,0.178-0.042,0.267
	c-0.017,0.096-0.041,0.187-0.069,0.274c-0.063,1.254-0.008,2.504-0.029,3.756c-0.004,0.316,0.028,0.642-0.105,0.943
	c-0.047,0.092-0.12,0.154-0.218,0.184c-0.729-0.268-0.767-0.944-0.722-1.512c0.127-1.621-0.107-3.26,0.242-4.871
	c0.088-0.401-0.172-0.787-0.205-1.199c-0.065-0.819,0.041-1.629,0.076-2.442c0.199-1.549,0.799-2.987,1.246-4.465
	c1.666-5.481,3.352-10.955,5.045-16.428c0.114-0.369,0.115-0.844,0.635-0.962c0.553-0.021,0.582,0.333,0.578,0.759
	c-0.08,9.622-0.016,19.246-0.037,28.869c-0.004,1.261,0.148,2.537,0.023,3.779c-0.295,2.967-1.782,5.234-4.441,6.662
	c-0.836,0.447-1.651,1.084-2.709,0.639c-6.053,0.58-12.121,0.082-18.179,0.256C273.838,66.949,273.458,66.777,273.191,67.127z"/>
<path fill="#77797D" d="M196.57,23.449c-0.312,0.289-0.479,0.93-0.24,1.11c0.346,0.265-0.016,0.475-0.014,0.703
	c0.039,11.079,0.082,22.159,0.055,33.239c-0.005,1.924,0.461,3.619,1.586,5.14c0.292,0.395,0.127,0.772,0.139,1.266
	c1.205-0.721,1.588,0.529,2.33,0.926c0.239,0.129,0.398,0.357,0.729,0.352c0.105-0.002,0.68-0.102,0.341,0.426
	c-0.108,0.168,0.188,0.252,0.25,0.203c0.711-0.58,1.446-0.057,2.149-0.021c1.15,0.06,2.306,0.188,3.453,0.125
	c1.09-0.06,2.146-0.521,3.275-0.211c-0.031,0.129-0.088,0.351-0.145,0.569c-2.963,0.004-5.941,0.207-8.883-0.041
	c-3.773-0.319-6.938-3.37-7.479-7.334c-0.099-0.723-0.121-1.461-0.121-2.192c-0.007-16.164,0.034-32.33-0.028-48.496
	c-0.021-5.319,4.307-9.118,9.038-9.065c9.647,0.106,19.302-0.029,28.951-0.049c14.961-0.027,29.922-0.041,44.883-0.063
	c0.234,0,0.47-0.022,0.703-0.033c5.403,0.002,10.81,0.005,16.215,0.007c4.486,0.517,7.609,3.778,7.945,8.292
	c-0.013,0.264-0.031,0.527-0.031,0.791c-0.002,16.438-0.002,32.877,0,49.316c0,0.264,0.019,0.525,0.027,0.789
	c-0.161,3.613-3.597,7-6.572,7.633c-0.839,0.178-1.653,0.301-2.493,0.301c-6.48,0.006-12.962,0-19.441-0.002
	c-0.117-0.014-0.232-0.025-0.414-0.043c0.393-0.373,0.834-0.33,1.26-0.326c4.949,0.049,9.9-0.092,14.85,0.07
	c0.867,0.029,1.769,0.047,2.6-0.148c0.615-0.146,1.183-0.416,1.753-0.041c0.317,0.207,0.385-0.149,0.502-0.205
	c2.955-1.35,5.03-3.426,5.503-6.813c0.07-0.514-0.051-0.979-0.048-1.467c0.016-10.285,0.01-20.572,0.012-30.857
	c0-0.233-0.053-0.504,0.045-0.693c0.267-0.518-0.222-0.381-0.396-0.514c-0.359-0.537,0.021-1.008,0.145-1.495
	c0.193-0.764,0.143-0.87-0.662-0.882c-1.313-0.021-2.625,0.002-3.939-0.01c-0.4-0.004-0.822,0.061-1.178-0.219
	c0.086-0.627,0.607-0.439,0.953-0.451c1.398-0.047,2.801-0.002,4.201-0.027c0.417-0.008,0.918-0.006,0.518-0.672
	c-0.155-0.394-0.133-0.807-0.133-1.215c-0.004-2.457,0.004-4.916-0.008-7.374c-0.002-0.65,0.074-1.279,0.303-1.886
	c-0.057-0.402,0.129-0.73,0.32-1.057c0.191-0.314,0.362-0.643,0.516-0.979c0.102-0.213,0.158-0.435,0.156-0.67
	c-0.002-0.117-0.002-0.235,0-0.353c-0.016-0.353,0.08-0.698,0.059-1.052c-0.045-0.296-0.03-0.6-0.12-0.889
	c-0.027-0.068-0.05-0.139-0.074-0.207c-0.043-0.1-0.084-0.202-0.119-0.305c-0.062-0.203-0.081-0.42-0.196-0.607
	c-0.063-0.092-0.123-0.185-0.18-0.281c-0.165-0.301-0.289-0.623-0.493-0.902c-0.155-0.214-0.356-0.391-0.514-0.606
	c-0.188-0.327-0.453-0.591-0.729-0.846c-0.271-0.29-0.602-0.503-0.942-0.702c-0.542-0.338-1.138-0.538-1.757-0.684
	c-0.69-0.188-1.395-0.168-2.1-0.168c-20.578-0.002-41.158,0.002-61.736-0.002c-7.035-0.002-14.071,0.01-21.106-0.002
	c-2.692-0.004-5.383,0.268-8.078,0.146c-0.263-0.012-0.528-0.008-0.778,0.092c-0.639,0.084-1.193,0.391-1.756,0.674
	c-0.351,0.178-0.678,0.395-0.974,0.652c-0.252,0.222-0.483,0.463-0.72,0.702c-0.213,0.196-0.397,0.417-0.541,0.669
	c-0.172,0.232-0.332,0.472-0.488,0.715c-0.078,0.125-0.148,0.252-0.215,0.383c-0.146,0.266-0.239,0.553-0.321,0.843
	c-0.071,0.229-0.11,0.465-0.168,0.696c-0.14,0.491-0.08,0.978,0.036,1.461c0.025,0.122,0.044,0.244,0.061,0.367
	c0.055,0.453,0.225,0.865,0.441,1.261c0.136,0.278,0.35,0.524,0.355,0.856c0.002,0.098-0.01,0.192-0.028,0.288
	c-0.414,3.372-0.132,6.759-0.19,10.138c-0.005,0.234,0.065,0.461,0.198,0.659c0.051,0.073,0.088,0.155,0.115,0.239
	C196.637,22.659,196.922,23.179,196.57,23.449z"/>
<path fill="#FEFEFE" d="M293.234,23.492c1.934-0.016,3.865-0.023,5.798-0.055c0.438-0.006,0.573,0.09,0.417,0.549
	c-0.234,0.689-0.4,1.402-0.594,2.104c-0.892,2.835-1.787,5.668-2.666,8.507c-1.32,4.266-2.629,8.536-3.939,12.805
	c-0.051,0.166-0.064,0.345-0.098,0.515c-0.004,0.726-0.303,1.156-1.092,1.149c-2.217-0.016-4.437,0.074-6.65-0.045
	c-0.594-0.125-0.725-0.608-0.859-1.098c-0.973-3.52-2.002-7.021-3-10.535c-0.683-2.561-1.521-5.08-2.082-7.676
	c0.019-0.125-0.17,0.003-0.055-0.023c0.031-0.007,0.053,0.004,0.051,0.03c-0.309,2.708-1.422,5.212-1.99,7.854
	c-0.94,3.27-1.832,6.553-2.762,9.822c-0.445,1.571-0.547,1.649-2.188,1.649c-1.612,0.002-3.227,0.006-4.838-0.002
	c-1.194-0.006-1.334-0.117-1.722-1.215c-1.239-3.515-2.409-7.047-3.587-10.58c-1.275-4.053-2.74-8.041-4.068-12.075
	c-0.073-0.222-0.15-0.444-0.221-0.668c-0.352-1.122-0.289-1.21,0.932-1.321c1.929,0.034,3.857-0.121,5.779,0.082
	c0.514,0.203,0.596,0.703,0.725,1.14c1.063,3.595,2.168,7.176,3.218,10.773c0.575,1.968,1.172,3.928,1.771,5.888
	c0.033,0.111-0.023-0.027,0.051,0.063c0.037,0.043,0.107,0,0.134-0.074c0.479-1.76,1.063-3.486,1.358-5.285
	c1.215-3.916,2.258-7.881,3.314-11.844c0.166-0.527,0.561-0.729,1.075-0.734c2.112-0.027,4.224-0.022,6.335-0.003
	c0.832,0.008,1.068,0.592,1.252,1.24c0.813,3.146,1.799,6.243,2.705,9.364c0.74,2.551,1.492,5.099,2.255,7.721
	c0.239-1.108,0.565-2.112,0.833-3.125c1.365-4.671,2.605-9.375,3.977-14.044C292.885,24.03,292.939,23.699,293.234,23.492z"/>
<path fill="#FEFEFE" d="M203.086,40.348c-1.148-3.155-2.293-6.312-3.445-9.466c-0.692-1.893-1.418-3.774-2.086-5.677
	c-0.191-0.542-0.691-0.951-0.65-1.584c0.089-0.445,0.464-0.404,0.764-0.404c2.021-0.002,4.042-0.072,6.063,0.032
	c0.543,0.146,0.646,0.631,0.797,1.069c1.086,3.154,2.149,6.314,3.227,9.473c0.819,2.41,1.643,4.818,2.52,7.41
	c1.983-5.926,3.918-11.701,5.814-17.49c0.07-0.191,0.189-0.338,0.383-0.416c1.961-0.18,3.926-0.068,5.887-0.063
	c0.701,0.003,0.865,0.277,0.636,0.992c-0.423,1.311-0.917,2.6-1.41,3.885c-0.422,1.096-0.761,2.221-1.188,3.312
	c-0.055,0.123-0.119,0.243-0.185,0.36c-0.196,0.368-0.295,0.775-0.44,1.164c-0.113,0.259-0.236,0.514-0.313,0.787
	c-0.139,0.386-0.252,0.778-0.391,1.162c-0.182,0.373-0.328,0.76-0.441,1.156c-0.081,0.25-0.18,0.494-0.273,0.74
	c-1.225,3.424-2.522,6.817-3.762,10.233c-0.852,2.353-0.777,1.951-2.859,2.029c-1.196,0.018-2.393,0.029-3.588-0.002
	c-2.539-0.016-2.063,0.127-2.906-2.115c-0.256-0.682-0.373-1.41-0.685-2.076c-0.272-0.885-0.618-1.748-0.952-2.612
	C203.355,41.631,203.129,41.016,203.086,40.348z"/>
<path fill="#77797D" d="M204.697,44.703c0.602,0.996,0.783,2.156,1.168,3.232c0.256,0.717,0.525,0.912,1.191,0.844
	c0.313-0.031,0.639,0.014,0.957,0.025c0.129,0.146,0.182,0.338,0.079,0.485c-0.479,0.715-0.358,1.519-0.36,2.299
	c-0.006,2.486-0.074,4.976,0.021,7.457c0.075,1.97,0.933,3.568,2.763,4.531c0.517,0.271,1.047,0.51,1.534,0.842
	c0.802,0.545,2.136,0.127,2.333-0.676c0.206-0.152,0.412-0.111,0.617,0.002c0.221,0.176,0.458,0.301,0.755,0.278
	c0.084,0.019,0.162,0.047,0.238,0.086c0.883,0.24,1.789,0.3,2.69,0.289c2.894-0.028,5.787,0.117,8.682,0.019
	c0.039-0.002,0.068-0.002,0.087,0.002c3.909,0.543,7.834-0.032,11.748,0.156c0.907,0.045,1.836-0.035,2.446,0.846
	c0.006,0.011,0.029,0.033,0.074,0.047c1.008,0.32,1.987,0.669,2.236,1.896c0.023,0.11,0.186,0.221,0.348,0.266
	c0.041-0.312,0.051-0.653,0.494-0.659c0.387-0.005,0.504,0.271,0.543,0.571c0.168,1.293,1.293,1.808,2.09,2.582
	c0.246,0.239,0.619,0.319,0.89,0.071c0.632-0.571,1.423-0.93,2.016-1.553c0.298-0.311,0.574-0.539-0.037-0.811
	c-0.229-0.104-0.223-0.391-0.167-0.635c0.557-0.842,1.487-1.191,2.274-1.729c0.214-0.145,0.508-0.188,0.688-0.379
	c1.101-1.137,2.479-1.307,3.963-1.237c1.867,0.088,3.74-0.088,5.609,0.151c0.795,0.101,1.619-0.334,2.42,0.058
	c0.322,0.176,0.676,0.168,1.027,0.168c1.172,0,2.344,0.01,3.515-0.004c0.921-0.011,1.81,0.03,2.573,0.664
	c0.332,0.274,0.783,0.239,1.188,0.204c2.742-0.239,5.508-0.024,8.24-0.377c0.912-0.116,1.855-0.307,2.71-0.575
	c0.688-0.218,1.392-0.64,2.097-0.955c0.381-0.17,0.578-0.459,0.48-0.92c-0.079-0.373-0.014-0.716,0.479-0.759
	c0.184,0.009,0.344,0.078,0.483,0.188c0.138,0.375,0.412,0.462,0.775,0.359c0.938,0.215,1.868-0.135,2.803-0.031
	c0.058,0.443-0.824,0.74-0.207,1.281c0.017,0.014-0.062,0.199-0.104,0.203c-1.11,0.123-1.616,1.326-2.588,1.545
	c-1.178,0.264-2.381,0.688-3.619,0.422c-0.541-0.115-0.974-0.067-1.506,0.119c-0.781,0.273-1.656,0.068-2.485,0.072
	c-2.189,0.01-4.392-0.09-6.572-0.078c-3.948,0.021-7.901,0.006-11.849,0.146c-1.928,0.068-3.842,0.24-5.762-0.01
	c-0.272-0.035-0.44,0.141-0.594,0.315c-1.91,2.187-4.363,3.763-6.467,5.729c-0.509,0.476-0.922,1.056-1.555,1.396
	c-0.25,0.135-0.383,0.176-0.654-0.067c-2.307-2.072-4.65-4.105-6.977-6.158c-0.215-0.189-0.373-0.445-0.549-0.676
	c-0.225-0.293-0.535-0.589-0.869-0.521c-1.726,0.34-3.433-0.084-5.148-0.084c-3.219,0.002-6.436,0.328-9.65,0.195
	c-4.375-0.181-8.748-0.131-13.123-0.156c-0.295-0.225-0.588-0.225-0.881,0c-0.117,0-0.234,0-0.352,0
	c-1.254-0.471-2.547-0.828-3.58-1.781c-1.313-1.207-1.948-2.666-1.947-4.43c0-3.512,0-7.025-0.001-10.537
	c0-0.496-0.101-0.998-0.099-1.482c0.003-0.768,0.479-1.525-0.064-2.307C204.166,45.029,204.439,44.762,204.697,44.703z"/>
<path fill="#77797D" d="M287.57,61.652c-0.613,0.006-0.635,0.35-0.357,0.738c0.283,0.399,0.072,0.684-0.227,0.758
	c-0.534,0.135-0.822,1.018-1.562,0.522c0.028,0.088-0.18,0.063-0.204,0.127c-0.379,0.94-1.21,0.558-1.882,0.736
	c-0.979,0.264-1.938,0.493-2.948,0.545c-0.173,0.008-0.345,0.092-0.515,0.086c-2.336-0.078-4.666,0.114-6.998,0.187
	c-0.426,0.012-0.788-0.037-1.088-0.416c-0.354-0.447-0.917-0.457-1.435-0.461c-1.465-0.019-2.93,0-4.393-0.013
	c-0.309-0.002-0.652,0.117-0.912-0.17c0.365-0.347,0.826-0.256,1.256-0.258c2.609-0.011,5.223,0.032,7.832-0.019
	c1.99-0.039,3.992-0.063,5.957-0.393c0.973-0.164,2.035-0.328,2.742-1.209c0.166-0.205,0.434-0.297,0.682-0.389
	c0.496-0.232,1.215,0.16,1.537-0.379c0.267-0.441-0.022-1.023-0.027-1.547c-0.01-1.691,0.068-3.384-0.063-5.072
	c0.16-1.029-0.127-1.906-0.896-2.619c-0.129-0.121-0.247-0.248-0.303-0.426c-0.092-0.709-0.023-1.424-0.09-2.137
	c-0.041-0.441,0.051-0.869,0.562-1.041c2.196-0.013,4.395-0.06,6.589-0.017c0.718,0.014,1.154-0.17,1.324-0.875
	c0.201,0.672-0.161,1.342-0.004,2.022c0.091,0.388-0.059,0.816,0.256,1.164c0.066,0.074,0.107,0.236,0.074,0.326
	c-0.619,1.621-0.11,3.334-0.397,4.986c-0.078,0.461,0.211,0.934,0.438,1.363c0.271,0.391,0.08,0.723-0.146,1.033
	c-0.5,0.684-1.209,0.854-2.008,0.774c-0.832-0.082-1.178-0.651-1.379-1.367c-0.168-1.428-0.064-2.86-0.07-4.293
	c-0.003-0.685-0.199-1.032-0.951-0.998c-0.869,0.037-0.986,0.107-0.992,1.035c-0.012,1.692-0.004,3.39-0.004,5.086
	c0.002,0.595,0.129,1.154,0.377,1.695C287.479,61.031,287.697,61.301,287.57,61.652z"/>
<path fill="#77797D" d="M204.697,44.703c-0.271,0.369-0.482,0.641,0.08,1.047c0.397,0.289,0.484,0.902-0.203,1.162
	c-0.199,0.076-0.25,0.162-0.145,0.293c0.418,0.523,0.228,1.129,0.229,1.693c0.018,3.598,0.041,7.194-0.002,10.793
	c-0.027,2.233,1.78,4.713,3.978,5.233c0.475,0.113,0.984,0.334,1.315,0.775c-0.228,0.276-0.56,0.213-0.82,0.161
	c-0.854-0.159-1.723-0.002-2.59-0.186c-0.461-0.096-0.584-0.156-0.685-0.611c-0.133-0.606-0.627-0.477-1.053-0.274
	c-0.177,0.084-0.49,0.271-0.434-0.041c0.104-0.574-0.295-0.815-0.566-1.097c-1.242-1.278-1.41-2.887-1.417-4.524
	c-0.02-5.543-0.01-11.084-0.005-16.625c0.002-0.789-0.216-1.66,0.703-2.155C203.703,41.77,204.256,43.215,204.697,44.703z"/>
<path fill="#FEFEFE" d="M287.57,61.652c-0.779-1.033-0.965-2.211-0.928-3.476c0.045-1.579,0.024-3.161,0.002-4.743
	c-0.008-0.523,0.08-0.779,0.707-0.781c1.793-0.006,1.789-0.037,1.793,1.791c0.004,1.287,0.018,2.576,0.024,3.861
	c0.285,1.223,0.789,1.834,1.533,1.86c0.702,0.022,1.437-0.644,1.817-1.666c0.07-0.19,0.117-0.394,0.188-0.584
	c0.164-1.433,0.026-2.865,0.078-4.297c0.011-0.316-0.086-0.644,0.084-0.945l-0.002,0.002c0.821-0.377,1.641-0.399,2.457,0.017
	c0.002,2.889-0.019,5.776,0.024,8.664c0.01,0.688-0.227,0.893-0.852,0.799c-0.086-0.014-0.176-0.01-0.262-0.002
	c-0.783,0.08-1.494,0.07-1.242-1.137c-0.58,0.381-1.057,0.696-1.535,1.012c-0.979,0.342-1.966,0.484-2.977,0.143
	c-0.193-0.088-0.459-0.047-0.554-0.313C287.813,61.791,287.691,61.721,287.57,61.652z"/>
<path fill="#727272" d="M292.721,58.182c-0.053,0.254-0.072,0.521-0.162,0.762c-0.403,1.089-1.258,1.634-2.207,1.433
	c-0.813-0.174-1.186-0.828-1.182-2.069c0.357,0.93,1.061,1.245,1.988,1.041c0.814-0.181,1.303-0.701,1.361-1.566
	c0.055,0.004,0.106,0.008,0.16,0.016C292.801,57.912,292.773,58.045,292.721,58.182z"/>
<path fill="#707070" d="M292.869,52.494c-0.096-0.652,0.127-0.982,0.839-0.881c0.282,0.041,0.573,0.008,0.86,0.008
	c0.586,0,0.916,0.225,0.764,0.871C294.512,52.641,293.689,52.639,292.869,52.494z"/>
<path fill="#77797D" d="M203.966,23.445c-2.089,0-4.179-0.007-6.269,0.007c-0.266,0.002-0.588-0.151-0.793,0.169
	c-0.111-0.057-0.223-0.113-0.334-0.172c0.158-0.276-0.25-0.776,0.348-0.88c0.391,0.362,0.861,0.442,1.377,0.44
	c1.463-0.012,2.926-0.01,4.387-0.002c0.406,0.002,0.822-0.043,1.203,0.163C203.988,23.24,204.016,23.332,203.966,23.445z"/>
<path fill="#878787" d="M292.721,58.182c-0.014-0.131-0.027-0.26-0.041-0.387c0.004-1.406,0-2.811,0.018-4.215
	c0.004-0.307-0.12-0.65,0.175-0.906c-0.004,1.494-0.006,2.988-0.017,4.482C292.852,57.502,292.938,57.863,292.721,58.182z"/>
<path fill="#878787" d="M292.869,52.494c0.82,0,1.643-0.002,2.463-0.002c-0.002,0.066-0.004,0.133-0.006,0.199
	c-0.818-0.004-1.639-0.012-2.457-0.017C292.869,52.615,292.869,52.555,292.869,52.494z"/>
<path fill="#77797D" d="M210.303,65.701c0.293-0.473,0.586-0.473,0.881,0C210.889,65.701,210.596,65.701,210.303,65.701z"/>
<path fill="#DADADA" d="M296.92,2.318c0.357,0.151,0.664,0.37,0.887,0.693c-0.01,0.633-0.465,0.769-0.953,0.79
	c-0.729,0.034-1.469,0.072-2.194-0.025c-0.729-0.097-1.461-0.11-2.193-0.11c-29.608,0-59.219,0.007-88.827-0.016
	c-1.468-0.002-2.921,0.183-4.382,0.151c-0.465-0.009-1.086,0.023-0.93-0.786c0.229-0.315,0.557-0.5,0.894-0.676
	c2.866-0.16,5.737-0.088,8.605-0.098c5.836-0.018,11.673-0.004,17.508-0.004c22.641,0,45.277-0.006,67.917,0.012
	C294.473,2.25,295.701,2.111,296.92,2.318z"/>
<path fill="#77797D" d="M196.797,22.672c-0.436,0.035-0.408-0.482-0.406-0.869c0.01-2.974-0.037-5.946,0.043-8.916
	c0.017-0.564-0.178-1.256,0.316-1.77c0.625,0.018,0.699,0.691,1.129,0.939c0.291,0.307,0.592,0.605,0.895,0.902
	c0.291,0.294,0.57,0.602,0.895,0.865c0.271,0.208,0.568,0.379,0.854,0.566c0.449,0.381,0.939,0.701,1.438,1.014
	c0.625,0.373,1.238,0.764,1.899,1.073c0.858,0.503,1.736,0.968,2.654,1.354c0.766,0.357,1.521,0.734,2.314,1.028
	c0.566,0.417,1.355,0.374,1.865,0.905c-0.072,0.409-0.433,0.464-0.726,0.502c-2.082,0.273-3.905,1.037-5.295,2.676
	c-0.11,0.131-0.271,0.217-0.46,0.222c-0.1-0.024-0.186-0.069-0.261-0.136c-0.361-0.39-0.839-0.366-1.308-0.367
	c-1.519-0.006-3.037,0.003-4.556-0.005C197.686,22.655,197.139,22.971,196.797,22.672z"/>
<path fill="#B4B4B4" d="M300.264,9.189c0.026,0.257-0.06,0.484-0.188,0.699c-0.719,0.52-1.512,0.672-2.398,0.658
	c-1.668-0.023-3.33,0.259-5.006,0.142c-0.439-0.03-0.88-0.009-1.277-0.245c-0.242-0.143-0.521-0.146-0.772-0.096
	c-1.364,0.283-2.744,0.174-4.118,0.174c-26.419,0.014-52.839-0.027-79.258-0.012c-0.616,0-1.243,0.045-1.839-0.117
	c-0.571-0.155-1.013,0.23-1.529,0.258c-1.288,0.067-2.58,0.122-3.864-0.004c-0.91-0.09-1.813-0.189-2.716-0.013
	c-0.407,0.08-0.672-0.095-0.903-0.388c-0.34-0.34-0.414-0.787-0.506-1.229c1.489-0.042,2.979-0.01,4.451,0.238
	c0.614,0.104,1.212,0.199,1.83,0.09c0.553-0.098,1.109-0.088,1.667-0.088c29.827,0,59.654-0.006,89.479,0.016
	c1.793,0.002,3.558-0.27,5.341-0.309C299.205,8.952,299.771,8.796,300.264,9.189z"/>
<path fill="#B8B8B8" d="M300.264,9.189c-1.365,0.059-2.76-0.035-4.087,0.221c-1.306,0.25-2.583,0.114-3.866,0.115
	c-29.176,0.021-58.352-0.005-87.526,0.051c-2.763,0.005-5.5-0.205-8.25-0.314c-0.22-0.008-0.433-0.16-0.647-0.244
	c-0.007-0.119-0.014-0.237-0.021-0.357c0.268-0.338,0.643-0.373,1.034-0.357c4.449,0.172,8.899,0.27,13.354,0.26
	c13.228-0.033,26.456-0.033,39.683-0.006c13.142,0.027,26.279-0.021,39.418,0.033c3.226,0.016,6.438-0.272,9.66-0.191
	c0.467,0.012,0.959-0.055,1.254,0.441C300.268,8.956,300.266,9.072,300.264,9.189z"/>
<path fill="#77797D" d="M299.188,11.648c0.056,0.066,0.17,0.15,0.156,0.194c-0.682,2.172-0.178,4.4-0.301,6.597
	c-0.072,1.314-0.014,2.635-0.014,3.953c-0.303,0.307-0.697,0.249-1.068,0.253c-1.076,0.014-2.152-0.004-3.229,0.008
	c-1.203,0.014-1.426,0.192-1.762,1.359c-0.181,0.474-0.166,1.021-0.548,1.417c-0.496-0.119-0.584-0.547-0.644-0.94
	c-0.303-2.03-2.606-3.687-4.728-4.138c-0.665-0.143-1.464,0.08-1.976-0.596c0.328-0.533,0.961-0.428,1.424-0.682
	c1.175-0.338,2.309-0.795,3.451-1.221c0.879-0.461,1.83-0.788,2.633-1.396c0.67-0.438,1.454-0.688,2.057-1.238
	c0.443-0.387,1.045-0.545,1.441-0.998c0.143-0.137,0.283-0.276,0.432-0.407c0.572-0.418,1.191-0.774,1.648-1.335
	c0.203-0.234,0.352-0.514,0.592-0.717C298.885,11.668,299.016,11.574,299.188,11.648z"/>
<path fill="#C7C7C7" d="M299.744,5.665c0.23,0.183,0.162,0.454,0.203,0.691c-0.422,0.573-1.064,0.384-1.613,0.423
	c-1.838,0.135-3.682,0.016-5.521,0.016c-29.224,0.004-58.446-0.004-87.67,0.017c-1.783,0.002-3.57-0.03-5.357,0.078
	c-1.034,0.063-2.102-0.087-3.155-0.099c-0.289-0.002-0.502-0.141-0.604-0.425c-0.004-0.347,0.104-0.649,0.355-0.894
	c1.604,0.228,3.221,0.149,4.824,0.14c14.521-0.087,29.043-0.01,43.564-0.026c15.725-0.018,31.45-0.004,47.176-0.004
	c2.404,0,4.808,0.046,7.209-0.059C299.369,5.514,299.561,5.566,299.744,5.665z"/>
<path fill="#D1D1D1" d="M298.533,3.897c0.178,0.175,0.354,0.349,0.531,0.524c-0.48,0.71-1.28,0.503-1.929,0.582
	c-0.948,0.116-1.93,0.122-2.887-0.096c-0.709-0.16-1.394,0.134-2.092,0.14c-1.203,0.01-2.406,0.003-3.608,0.003
	c-27.311,0-54.619,0.014-81.931-0.022c-2.425-0.002-4.849,0.015-7.271,0.023c-0.589,0.002-1.173-0.01-1.742-0.183
	c-0.248-0.076-0.539-0.1-0.529-0.467c0.074-0.313,0.283-0.516,0.55-0.673c1.753,0.102,3.507,0.067,5.26,0.068
	c29.523,0.004,59.048,0.002,88.569,0.006c2.107,0,4.217,0.12,6.322-0.07C298.045,3.709,298.305,3.738,298.533,3.897z"/>
<path fill="#D6D6D6" d="M298.533,3.897c-1.994,0.229-3.993,0.2-5.998,0.2c-30.21-0.02-60.42-0.014-90.629-0.016
	c-1.271,0-2.541-0.049-3.813-0.047c-0.262,0-0.368-0.118-0.468-0.306c0.18-0.292,0.421-0.521,0.7-0.714
	c0.047,0.539,0.434,0.521,0.834,0.545c1.229,0.072,2.437-0.203,3.672-0.203c30.069,0.029,60.14,0.023,90.21,0.02
	c1.229,0,2.438,0.271,3.675,0.191c0.474-0.031,0.873-0.082,1.091-0.557C298.129,3.242,298.461,3.463,298.533,3.897z"/>
<path fill="#ADADAD" d="M197.793,12.191c-0.486-0.223-0.617-0.791-1.043-1.074c0.002-0.057,0.004-0.111,0.006-0.168
	c0.307-0.268,0.66-0.178,1.008-0.131c2.047,0.275,4.084,0.402,6.088-0.273c0.895-0.302,1.805-0.027,2.705-0.029
	c9.741-0.008,19.482-0.004,29.223-0.004c5.047,0,10.095-0.094,15.14,0.018c11.908,0.265,23.817,0.063,35.728,0.137
	c1.291,0.009,2.565-0.16,3.849-0.275c1.046-0.094,2.056,0.296,3.058,0.582c0.146,0.041,0.227,0.18,0.215,0.346
	c-0.312,0.316-0.725,0.4-1.131,0.402c-1.348,0.008-2.695,0.109-4.039-0.076c-0.524-0.072-1.053-0.057-1.58-0.057
	c-10.17-0.002-20.342-0.092-30.51,0.031c-6.705,0.08-13.41,0.078-20.115,0.131c-2.137,0.018-4.266-0.098-6.396-0.189
	c-1.481-0.098-2.929,0.059-4.312,0.637c-8.541,0.197-17.084,0.041-25.623,0.082C199.305,12.281,198.539,12.439,197.793,12.191z"/>
<path fill="#E3E3E3" d="M200.799,1.656c0.52-0.242,1.086-0.274,1.637-0.282c3.367-0.044,6.735-0.078,10.104-0.082
	c19.883-0.02,39.765-0.029,59.646-0.044c6.979-0.005,13.955-0.02,20.934-0.022c0.757,0,1.533-0.062,2.215,0.39
	c0.104,0.701-0.427,0.676-0.833,0.652c-0.731-0.043-1.465-0.031-2.196-0.031c-20.185-0.004-40.367-0.002-60.55-0.004
	c-9.562,0-19.121,0-28.68,0.006c-0.618,0-1.224-0.127-1.841-0.129C200.994,2.109,200.664,2.072,200.799,1.656z"/>
<path fill="#B0B0B0" d="M293.748,11.302c-1.618-0.647-3.289-0.802-4.994-0.464c-0.379,0.074-0.748,0.111-1.128,0.111
	c-10.938,0-21.878,0.146-32.813-0.033c-16.299-0.271-32.595-0.008-48.891-0.184c-1.273-0.015-2.404,0.307-3.604,0.495
	c-1.612,0.253-3.317,0.223-4.955-0.218c-0.192-0.053-0.403-0.043-0.606-0.061c-0.125-0.232-0.373-0.402-0.362-0.703
	c0.489,0.413,0.983,0.023,1.471-0.012c1.205-0.085,2.383,0.289,3.584,0.188c1.119-0.094,2.258,0.207,3.361-0.318
	c0.529-0.254,1.135,0.151,1.725,0.151c27.621-0.011,55.242,0.009,82.865-0.051c1.854-0.003,3.668,0.428,5.526,0.235
	c1.24-0.129,2.483-0.321,3.753-0.145c0.452,0.061,0.823-0.605,1.397-0.406c-0.146,0.31-0.236,0.648-0.504,0.889
	c-0.203,0.262-0.472,0.499-0.785,0.506c-1.558,0.033-3.099,0.42-4.664,0.22C293.977,11.485,293.848,11.419,293.748,11.302z"/>
<path fill="#BBBBBB" d="M300.27,8.84c-0.401-0.252-0.854-0.182-1.287-0.176c-31.871,0.395-63.742,0.087-95.613,0.126
	c-2.174,0.002-4.383,0.038-6.563-0.247c-0.303-0.039-0.627,0.074-0.94,0.117c-0.214-0.527-0.281-1.058-0.011-1.59
	c0.037,0.03,0.072,0.061,0.11,0.092c0.124,0.146,0.167,0.354,0.345,0.463c0.867,0.129,1.725,0.162,2.606,0.146
	c1.306-0.025,2.629,0.064,3.938,0.188c0.965,0.092,1.922,0.172,2.881-0.004c0.408-0.076,0.818-0.068,1.229-0.068
	c14.308-0.012,28.616-0.163,42.921,0.039c12.926,0.181,25.848,0.043,38.771,0.111c2.563,0.014,5.129-0.051,7.693-0.266
	c1.289-0.106,2.615,0.031,3.926,0.002C300.275,8.129,300.271,8.484,300.27,8.84z"/>
<path fill="#CACACA" d="M299.744,5.665c-0.752,0.272-1.533,0.178-2.307,0.178c-31.461,0.002-62.922-0.007-94.383,0.021
	c-1.919,0.001-3.841-0.147-5.76,0.042c-0.367,0.037-0.67-0.16-0.914-0.434c0.063-0.113,0.122-0.229,0.184-0.343
	c0.568-0.145,1.137-0.249,1.733-0.168c1.49,0.201,2.988,0.021,4.474-0.05c0.893-0.041,1.739,0.152,2.614,0.151
	c28.857-0.012,57.716,0.015,86.57-0.061c2.03-0.006,4.084,0.261,6.117-0.106c0.588-0.105,1.177-0.033,1.516,0.59
	C299.641,5.545,299.693,5.605,299.744,5.665z"/>
<path fill="#CFCFCF" d="M299.59,5.486c-0.461-0.554-1.133-0.421-1.65-0.313c-1.149,0.241-2.266-0.002-3.391-0.049
	c-0.916-0.037-1.795,0.202-2.705,0.202c-28.762-0.012-57.523-0.002-86.285-0.031c-1.455,0-2.93-0.312-4.371-0.12
	c-1.364,0.183-2.724-0.166-4.069,0.13c-0.199,0.043-0.414,0.027-0.554-0.175c0.123-0.276,0.248-0.55,0.513-0.728
	c0.541,0.32,1.138,0.406,1.75,0.383c1.519-0.057,3.036,0.102,4.557-0.143c0.671-0.108,1.39,0.139,2.085,0.139
	c28.741,0.008,57.481,0.021,86.223-0.033c1.687-0.002,3.371,0.102,5.058,0.035c0.783-0.031,1.563-0.115,2.317-0.361
	C299.299,4.746,299.506,5.087,299.59,5.486z"/>
<path fill="#E0E0E0" d="M200.799,1.656c0.672,0.371,1.428,0.233,2.141,0.313c1.062,0.116,2.146,0.059,3.205,0.022
	c1.654-0.057,3.305,0.002,4.955-0.008c5.336-0.032,10.674-0.012,16.012-0.012c22.063,0,44.125-0.001,66.188,0.003
	c0.377,0,0.756,0.047,1.133,0.077c0.387,0.03,0.767,0.05,0.901-0.437c0.618,0.031,1.114,0.343,1.587,0.703
	c-0.619,0.361-1.314,0.057-1.971,0.228c-0.404,0.105-0.868-0.043-1.305-0.043c-21.121-0.004-42.24-0.003-63.359-0.003
	c-7.615,0-15.23-0.021-22.846,0.015c-1.918,0.009-3.836-0.03-5.758,0.057c-0.765,0.034-1.703,0.384-2.463-0.231
	C199.71,2.029,200.215,1.75,200.799,1.656z"/>
<path fill="#ADADAD" d="M293.748,11.302c1.074-0.136,2.141,0.061,3.252-0.226c0.777-0.201,1.736,0.111,2.572-0.299
	c-0.129,0.291-0.256,0.581-0.385,0.871c-0.109,0.063-0.22,0.123-0.328,0.184c-1.111,0.265-2.23,0.457-3.381,0.457
	c-13.049-0.004-26.101-0.002-39.149-0.004c-7.238,0-14.476,0.002-21.714,0c-1.318,0-2.641,0.029-3.918-0.385
	c-0.37-0.076-0.795-0.078-0.857-0.597c7.664,0.358,15.337,0.286,22.998,0.129c11.25-0.229,22.498-0.011,33.746-0.138
	c1.697-0.02,3.377,0.268,5.078,0.202C292.367,11.471,293.051,11.338,293.748,11.302z"/>
<path fill="#C2C2C2" d="M196.025,6.366c0.233,0.181,0.482,0.14,0.77,0.144c1.508,0.031,3.014,0.057,4.523,0.057
	c31.121-0.023,62.242-0.021,93.365-0.006c1.76,0.002,3.517,0.068,5.264-0.204c0.043,0.065,0.084,0.131,0.127,0.196
	c-0.232,0.576-0.729,0.613-1.244,0.609c-2.17-0.016-4.338,0.004-6.508,0.004c-28.809-0.021-57.617-0.02-86.424-0.012
	c-2.072,0.397-4.188,0.329-6.258,0.211c-1.244-0.072-2.541,0.161-3.763-0.284l-0.022-0.011
	C195.875,6.827,195.807,6.563,196.025,6.366z"/>
<path fill="#BEBEBE" d="M300.277,7.773c-0.562,0.281-1.153,0.425-1.781,0.357c-1.834-0.193-3.65-0.022-5.475,0.162
	c-1.149,0.117-2.313-0.026-3.472-0.021c-12.635,0.058-25.272,0.192-37.905-0.004c-14.828-0.231-29.654-0.06-44.481-0.094
	c-2.065-0.005-4.14,0.123-6.196-0.065c-1.535-0.141-3.07,0.07-4.596-0.146c-0.25-0.035-0.473-0.045-0.501-0.359
	c0.313-0.287,0.7-0.266,1.083-0.246c7.674,0.382,15.354,0.316,23.033,0.315c9.179-0.002,18.356-0.001,27.535-0.001
	c0.674,0,1.347,0.02,1.996-0.229c0.303-0.116,0.655-0.14,0.955-0.036c1.116,0.383,2.264,0.261,3.401,0.261
	c10.41,0.008,20.819,0.023,31.231-0.009c2.599-0.007,5.213,0.271,7.789-0.303c1.043-0.006,2.092,0.076,3.125,0.049
	c1.146-0.029,2.287-0.292,3.447-0.258c0.287,0.01,0.438-0.256,0.623-0.436C300.376,7.026,300.229,7.418,300.277,7.773z"/>
<path fill="#C2C2C2" d="M300.092,6.711c0.037,0.392-0.17,0.633-0.525,0.678c-1.104,0.134-2.217,0.169-3.319,0.298
	c-1.009,0.118-2.131-0.035-3.201-0.082c-0.135-0.117-0.29-0.267-0.461-0.226c-1.055,0.259-2.103-0.031-3.151-0.029
	c-12.143,0.02-24.285,0.014-36.427,0.014c-15.159,0-30.319,0-45.479-0.002c-0.381,0-0.766,0.025-1.143-0.029
	c-0.275-0.041-0.609-0.029-0.658-0.431c28.818,0,57.638,0,86.457,0c2.252,0,4.504-0.011,6.756,0.008
	c0.435,0.004,0.808-0.077,1.136-0.356C300.09,6.605,300.096,6.658,300.092,6.711z"/>
<path fill="#717171" d="M196.924,22.393c2.127,0,4.254,0.008,6.381-0.004c0.506-0.002,0.877,0.092,0.84,0.705
	c0.043,0.163-0.017,0.223-0.18,0.18c-2.091,0-4.183-0.013-6.273,0.008c-0.526,0.004-0.858-0.099-0.772-0.712
	C196.92,22.51,196.922,22.451,196.924,22.393z"/>
<path fill="#717171" d="M292.864,24.152c0.294-1.742,0.312-1.758,2.04-1.758c1.375,0,2.75-0.002,4.126-0.002
	c0.28,0.002,0.552,0.023,0.509,0.412c-0.045,0.432-0.365,0.468-0.707,0.467c-1.574,0-3.148-0.008-4.725,0.007
	c-0.297,0.003-0.654-0.146-0.873,0.214c-0.076,0.275-0.152,0.552-0.229,0.828C292.869,24.338,292.777,24.32,292.864,24.152z"/>
<path fill="#77797D" d="M284.24,48.807c-0.395,0.396-0.436,0.904-0.33,1.389c0.131,0.604,0.053,1.183-0.02,1.773
	c-0.359,0.17-0.691-0.012-1.021-0.102c-1.354-0.369-2.67-0.162-3.981,0.205c-0.486,0.135-0.755,0.426-0.686,0.959
	c-0.122,1.67-0.12,1.676,1.468,1.182c0.683-0.211,1.384-0.281,2.063-0.115c0.615,0.15,1.25,0.389,1.13,1.252
	c-0.361,0.271-0.783,0.199-1.185,0.195c-0.762-0.008-1.509,0.068-2.258,0.215c-1.127,0.219-2.361,1.266-2.223,2.723
	c-0.219,1.313,0,2.47,1.264,3.17c1.236,0.687,2.469,0.599,3.653-0.159c1.192-0.765,1.19-0.769,1.42,0.69
	c-0.722,0.832-1.675,1.316-2.702,1.582c-0.891,0.232-1.824,0.367-2.744,0.398c-2.503,0.084-5.008,0.102-7.512,0.125
	c-1.842,0.018-3.686,0.004-5.527,0.004c-0.262-0.152-0.547-0.199-0.846-0.176c-2.77,0.221-5.537-0.139-8.307,0.002
	c-0.289,0.014-0.621-0.029-0.859,0.096c-1.684,0.879-3.295,1.875-4.775,3.07c-0.295,0.326-0.623,0.604-0.988,0.857
	c-1.372,0.961-2.45,0.133-3.497-0.593c-0.527-0.364-1.07-0.694-1.611-1.032c-0.889-0.56-1.825-1.037-2.631-1.732
	c-0.552-0.477-1.231-0.611-1.97-0.598c-3.305,0.063-6.592,0.533-9.907,0.364c-3.795-0.192-7.595-0.036-11.392-0.09
	c-0.848-0.012-1.692-0.086-2.51-0.346c-0.059,0-0.117,0-0.176,0c-0.191-0.011-0.375-0.048-0.527-0.179
	c-0.177-0.059-0.353-0.117-0.529-0.176c-1.844-0.348-2.898-1.604-2.904-3.494c-0.012-3.401-0.006-6.805,0-10.205
	c0.001-0.434-0.059-0.889,0.266-1.26c1.524,0.289,2.069-0.531,2.518-1.875c1.097-3.307,2.377-6.551,3.588-9.82
	c0.061-0.16,0.152-0.309,0.229-0.465c0.471,0.594,1.11,0.658,1.812,0.638c1.289-0.035,2.58-0.005,3.871-0.017
	c0.657-0.006,0.961-0.257,0.938-0.945c-0.033-0.997-0.008-1.994-0.011-2.992c-0.002-0.64-0.265-0.938-0.93-0.764
	c-0.634,0.165-1.281,0.125-1.927,0.107c-0.469-0.013-0.881-0.121-0.971-0.684c-0.098-0.603-0.13-1.183,0.494-1.555
	c0.549-0.325,1.492-0.239,2.049,0.23c-0.449,0.162-0.873,0.051-1.217,0.088c0.496,0.095,1.064,0.006,1.637,0.074
	c0.573,0.068,0.861-0.462,0.863-1.059c0.006-1.496,0-2.992,0.003-4.489c0.001-0.409-0.011-0.821,0.009-1.23
	c0.018-0.321,0.014-0.653,0.303-0.884c0.41-0.211,0.854-0.168,1.287-0.168c1.426-0.006,2.854-0.01,4.28,0.002
	c0.349,0.002,0.703-0.01,1.013,0.199c0.097,0.088,0.108,0.188,0.037,0.297c-0.354,0.271-0.776,0.227-1.185,0.23
	c-1.349,0.014-2.698,0.021-4.047-0.002c-0.71-0.012-0.99,0.262-0.989,0.981c0.01,7.597,0,15.192,0.014,22.79
	c0.002,0.896,0.123,1.004,1.029,1.02c1.291,0.02,2.582,0.018,3.872,0.002c0.952-0.014,1.036-0.1,1.04-1.088
	c0.012-2.727,0.002-5.455,0.005-8.182c0.001-0.441-0.019-0.88,0.046-1.314c0.051-0.445,0.383-0.678,0.697-0.929
	c0.152-0.122,0.364-0.255,0.285-0.48c-0.09-0.261-0.338-0.133-0.525-0.131c-0.156,0.002-0.275-0.056-0.351-0.196
	c-0.114-0.311-0.122-0.615,0.051-0.911c0.485,0.165,0.919-0.021,1.362-0.191c0.16-0.063,0.352-0.011,0.496,0.101
	c0.674,0.514,0.197,1.2,0.219,1.795c0.018,0.447-0.477,0.344-0.76,0.432c0.352,0.02,0.758-0.189,1.139,0.01
	c0.367,0.267,0.293,0.674,0.338,1.045c0.448,3.787,2.035,6.884,5.417,8.876c1.835,1.084,3.868,1.533,5.958,1.683
	c2.982,0.209,5.904-0.105,8.709-1.255c0.905-0.37,1.34-0.881,1.271-1.909c-0.086-1.283-0.024-2.578-0.021-3.867
	c-0.035-0.728-0.447-0.438-0.771-0.267c-1.379,0.729-2.813,1.324-4.334,1.66c-2.895,0.642-5.721,0.652-8.19-1.309
	c-0.979-0.775-1.681-1.791-1.876-3.061c-0.052-0.333-0.389,0.09-0.354-0.214c-0.211-0.656,0.112-0.933,0.717-1.003
	c0.35-0.04,0.701-0.026,1.054-0.026c4.599-0.001,9.199,0,13.799-0.001c1.565,0,1.565-0.001,1.753-1.513
	c0.047-0.133,0.084-0.309,0.238-0.322c0.268-0.022,0.371,0.232,0.354,0.404c-0.096,0.934,0.39,0.871,1.121,0.885
	c0.744,0.013,1.479-0.041,2.217-0.067c0.812,2.348,1.625,4.695,2.431,7.046c0.446,1.3,0.91,2.597,1.312,3.91
	c0.159,0.522,0.43,0.664,0.946,0.658c1.992-0.027,3.986-0.039,5.979,0.004c0.646,0.016,0.92-0.193,1.088-0.813
	c0.904-3.332,1.85-6.654,2.785-9.977c0.047-0.165,0.127-0.321,0.19-0.482c1.05-0.486,2.134-0.254,3.188-0.07
	c0.465,0.08,0.854,0.08,1.26-0.119c0.996,3.44,1.986,6.881,2.997,10.315C283.85,48.045,283.801,48.539,284.24,48.807z"/>
<path fill="#77797D" d="M261.557,37.169c-0.428,0.358-0.951,0.358-1.459,0.353c-0.506-0.004-0.98-0.237-1.527,0.027
	c-0.269,0.13-0.657-0.154-0.549-0.613c0.088-0.357,0.078-0.686-0.149-0.988c-0.277-0.19-0.29-0.502-0.319-0.783
	c-0.158-1.512-0.443-3.001-0.742-4.488c0.184-0.956-0.259-1.78-0.617-2.596c-1.086-2.457-2.813-4.277-5.396-5.197
	c-0.262-0.094-0.588-0.152-0.6-0.541c0.086-0.255,0.301-0.297,0.527-0.318c0.528-0.063,0.92,0.422,1.518,0.313
	c0.313-0.057,0.607-0.031,0.924-0.211c0.439-0.248,0.969-0.146,1.455-0.118c0.82,0.047,1.656-0.017,2.447,0.292
	c0.096,0.483,0.574,0.705,0.768,1.123c-0.23,0.016-0.46,0.03-0.814,0.055c0.367,1.111,0.713,2.176,1.07,3.236
	c1.061,3.15,2.127,6.297,3.186,9.447C261.387,36.491,261.463,36.832,261.557,37.169z"/>
<path fill="#77797D" d="M280.734,37.326c-0.098,0.484-0.492,0.658-0.855,0.514c-1.082-0.43-2.158-0.451-3.271-0.194
	c-0.092,0.021-0.213-0.083-0.32-0.13c0.711-2.645,1.422-5.29,2.133-7.936c0.063-0.005,0.124-0.01,0.186-0.015
	C279.314,32.152,280.025,34.739,280.734,37.326z"/>
<path fill="#737373" d="M282.859,24.676c-0.135-1.074-0.736-1.336-1.785-1.275c-1.83,0.105-3.67,0.056-5.506,0.014
	c-0.59-0.014-0.945,0.125-1.031,0.734c-0.217,0.01-0.268-0.15-0.314-0.312c0.069-1.413,0.354-1.702,1.726-1.709
	c1.635-0.009,3.271-0.004,4.907-0.003c1.859,0.002,2.179,0.309,2.318,2.234C283.127,24.521,283.076,24.681,282.859,24.676z"/>
<path fill="#737373" d="M257.834,23.422c-0.521-0.146-0.848-0.457-0.875-1.023c0.25-0.264,0.58-0.247,0.898-0.248
	c1.779-0.008,3.559-0.01,5.338,0.001c0.449,0.002,0.888,0.036,1.111,0.521c0.039,0.106,0.057,0.216,0.057,0.329
	c-0.04,0.217-0.051,0.46-0.369,0.448C261.941,23.44,259.887,23.432,257.834,23.422z"/>
<path fill="#787878" d="M282.859,24.676c0.052-0.058,0.103-0.115,0.152-0.173c0.45,0.032,0.424,0.435,0.508,0.709
	c1.086,3.519,2.1,7.058,3.121,10.595c0.467,1.621,1.045,3.212,1.397,4.865c0.035,0.113,0.176-0.02,0.067,0.025
	c-0.037,0.016-0.063-0.004-0.063-0.059c0.012-0.947,0.254-1.825,0.785-2.614c0.297,0.041,0.271,0.215,0.177,0.418
	c-0.306,1.183-0.612,2.368-0.917,3.551c-0.057,0.008-0.113,0.016-0.17,0.023c-0.357-1.216-0.719-2.433-1.074-3.649
	C285.518,33.805,284.189,29.24,282.859,24.676z"/>
<path fill="#797979" d="M263.994,23.45c0.145-0.076,0.176-0.208,0.18-0.354c0.42,0.006,0.398,0.375,0.482,0.625
	c0.275,0.834,0.492,1.688,0.744,2.529c1.387,4.494,2.688,9.016,4.033,13.521c0.101,0.336,0.211,0.67,0.359,0.989
	c0.085,0.174,0.119,0.352,0.04,0.537c-0.021,0.201,0.006,0.414-0.285,0.695C267.682,35.76,265.838,29.604,263.994,23.45z"/>
<path fill="#7A7A7A" d="M289.007,38.443c-0.013-0.15-0.032-0.299-0.185-0.383c-0.202-0.512,0.029-0.983,0.164-1.447
	c1.005-3.453,1.957-6.921,2.938-10.381c0.089-0.305,0.132-0.635,0.414-0.846c0.317-0.353,0.164-0.902,0.524-1.234
	c0.048,0.055,0.095,0.111,0.142,0.168C291.721,29.041,290.438,33.764,289.007,38.443z"/>
<path fill="#7B7B7B" d="M274.381,23.976c0.053,0.058,0.104,0.116,0.156,0.173c-0.893,3.483-1.807,6.959-2.873,10.395
	c-0.131,0.424-0.111,0.9-0.439,1.256c-0.127-0.094-0.179-0.23-0.203-0.379c-0.032-0.298,0.035-0.586,0.123-0.865
	c0.938-3.026,1.644-6.117,2.53-9.158C273.947,24.941,273.718,24.236,274.381,23.976z"/>
<path fill="#818181" d="M271.212,35.42c0.005,0.125,0.009,0.252,0.013,0.379c0.098,0.91-0.326,1.713-0.539,2.557
	c-0.248,0.99-0.563,1.962-0.852,2.941c-0.027-0.158-0.041-0.324-0.204-0.418c0.112-1.85,0.806-3.559,1.302-5.314
	C270.967,35.445,271.082,35.399,271.212,35.42z"/>
<path fill="#77797D" d="M234.096,37.527c-0.408,0-0.818,0-1.229,0c0.555-0.386,0.674-1.087,0.816-1.668
	c0.129-0.536-0.367-0.803-0.773-0.52c-0.473,0.332-0.756,0.16-1.102-0.097c-0.285-0.228-0.3-0.56-0.302-0.878
	c-0.021-3.362-0.022-6.724,0-10.084c0.002-0.295,0.041-0.588,0.267-0.813c0.002-0.066,0.004-0.133,0.006-0.199
	c-0.305-0.509-0.769-0.634-1.334-0.624c-1.334,0.022-2.67,0.023-4.006,0c-0.569-0.01-1.021,0.147-1.349,0.622
	c0,2.23,0,4.46-0.004,6.689c-0.002,0.858-0.624,1.301-1.392,0.988c-0.563-0.228-1.161-0.002-1.741-0.258c0.455,0,0.912,0,1.366,0
	c-0.389-0.277-0.795-0.188-1.188-0.189c-0.546-0.002-0.977,0.16-0.955,0.843c0.021,0.642,0,1.266,0.965,1.095
	c0.646-0.115,1.305,0.09,1.976-0.235c0.358-0.173,0.998-0.088,0.979,0.696c-0.033,1.318-0.02,2.641-0.005,3.961
	c0.007,0.457-0.073,0.6-0.628,0.629c-1.701,0.088-3.4-0.031-5.097,0.061c-0.716,0.039-1.13-0.137-1.147-0.902
	c-0.035-0.264,0.135-0.461,0.227-0.684c0.377-0.22,0.729,0.014,1.099,0.045c1.106,0.096,2.216,0.064,3.325,0.043
	c0.217-0.004,0.555,0.021,0.541-0.291c-0.014-0.295-0.346-0.256-0.566-0.264c-0.846-0.031-1.693,0.01-2.539-0.027
	c-0.115-0.004-0.229-0.008-0.338,0.057c-0.854,0.52-0.994,0.427-1.072-0.695c0.043-0.422,0.174-0.813,0.408-1.168
	c0.221-0.192,0.391-0.404,0.283-0.725c0.055-0.434,0.186-0.839,0.428-1.205c0.104-0.031,0.176-0.078,0.084-0.195
	c0.896-2.469,1.771-4.944,2.699-7.4c0.248-0.656,0.018-0.707-0.544-0.7c-1.931,0.022-3.86,0.004-5.79,0.002
	c0.167-0.562,0.656-0.397,1.021-0.407c1.287-0.035,2.576-0.008,3.863-0.018c0.344-0.004,0.705,0.068,1.022-0.15
	c-0.021-0.219-0.201-0.194-0.326-0.196c-1.552-0.023-3.104-0.01-4.653-0.01c-0.537,0-0.869,0.282-1.129,0.704
	c-1.832,5.576-3.679,11.148-5.535,16.717c-0.084,0.256-0.047,0.666-0.434,0.678c-0.396,0.011-0.369-0.416-0.453-0.662
	c-1.837-5.357-3.609-10.734-5.479-16.081c-0.1-0.282-0.309-0.596-0.047-0.911c1.302-1.812,3.125-2.701,5.285-2.987
	c0.379-0.05,0.75-0.1,1.053-0.36c0.641-0.438,1.171,0.166,1.764,0.184c1.238,0.269,2.441,0.689,3.698,0.883
	c0.614,0.164,1.245,0.25,1.868,0.377c1.945,0.42,3.914,0.617,5.902,0.598c4.512-0.041,9.022-0.029,13.534,0
	c1.022,0.008,2.046,0.014,3.069,0.016c0.445,0,0.882,0.035,1.23,0.36c0.213,0.231,0.139,0.419-0.104,0.566
	c-0.276,0.169-0.571,0.298-0.863,0.433c-3.497,1.623-5.156,4.603-6.046,8.157c-0.067,0.271,0.047,0.521,0.06,0.782
	c-0.192,1.617-0.483,3.224-0.463,4.861C234.309,37.172,234.255,37.375,234.096,37.527z"/>
<path fill="#77797D" d="M211.887,48.805c0,3.865,0,7.732,0,11.596c0,1.435,0.813,2.57,2.176,3.011
	c0.211,0.067,0.373,0.153,0.465,0.354c0.336,0.539,0.195,0.836-0.439,0.936c-0.677,0.105-1.473,0.459-1.997,0.102
	c-0.446-0.305-0.894-0.656-1.387-0.814c-0.929-0.295-1.763-0.961-2.147-1.616c-0.486-0.826-1.07-1.785-1.068-2.869
	c0-3.071,0.039-6.146-0.031-9.215c-0.016-0.646,0.676-0.884,0.559-1.479C209.305,48.805,210.596,48.805,211.887,48.805z"/>
<path fill="#757575" d="M204.316,23.1c0.494,1.951,1.264,3.813,1.894,5.72c1.235,3.739,2.507,7.468,3.774,11.196
	c0.07,0.203,0.067,0.465,0.396,0.648c0.57-1.694,1.141-3.359,1.691-5.029c1.207-3.654,2.404-7.313,3.607-10.97
	c0.133-0.409,0.286-0.812,0.432-1.218c0.133,0.08,0.054,0.254,0.154,0.35c-1.377,4.189-2.755,8.379-4.135,12.567
	c-0.581,1.765-1.166,3.526-1.832,5.538c-2.17-6.324-4.252-12.392-6.334-18.458c0.001-0.057,0.001-0.115-0.001-0.172
	c0.06-0.061,0.119-0.119,0.179-0.18C204.201,23.096,204.258,23.098,204.316,23.1z"/>
<path fill="#727272" d="M216.268,23.797c-0.053-0.117-0.104-0.232-0.156-0.35c0.082-0.808,0.482-1.113,1.332-1.074
	c1.574,0.072,3.154,0.012,4.73,0.029c0.273,0.004,0.74-0.189,0.748,0.316c0.008,0.488-0.385,0.563-0.813,0.559
	c-1.605-0.014-3.211-0.01-4.818-0.001c-0.279,0.002-0.591-0.098-0.826,0.16C216.398,23.557,216.332,23.676,216.268,23.797z"/>
<path fill="#77797D" d="M218.896,34.828c0.24,0.329,0.147,0.885,0.771,1.047c-0.715-0.125,0.239-0.667,0.725-0.644
	c0.899,0.044,1.805,0.015,2.709,0.012c0.373,0,0.733,0.035,0.736,0.524c0.003,0.488-0.352,0.537-0.729,0.533
	c-1.563-0.018-3.137,0.131-4.664-0.34C218.561,35.568,218.65,35.167,218.896,34.828z"/>
<path fill="#77797D" d="M219.588,32.936c0.346,0.412,0.35,0.691-0.283,0.725C219.32,33.388,219.428,33.15,219.588,32.936z"/>
<path fill="#77797D" d="M220.1,31.535c0.109-0.013,0.219-0.024,0.328-0.036c-0.008,0.075,0.008,0.169-0.029,0.222
	c-0.114,0.158-0.254,0.064-0.383,0.01C220.043,31.666,220.072,31.601,220.1,31.535z"/>
<path fill="#77797D" d="M215.76,64.117c0.686-0.326,1.271,0.227,1.951,0.203c2.285-0.074,4.576-0.027,6.865-0.027
	c2.596,0,5.193-0.059,7.785,0.016c2.466,0.07,4.885-0.457,7.35-0.404c0.895,0.021,1.613,0.31,2.223,0.81
	c1.43,1.17,3.08,1.979,4.604,2.994c0.047,0.033,0.104,0.056,0.153,0.084c1.303,0.729,1.844,0.67,3.082-0.369
	c0.154-0.129,0.317-0.129,0.492-0.137c0.012,0.266-0.029,0.567,0.42,0.426c0.252-0.082,0.383,0.095,0.435,0.313
	c0.049,0.217-0.074,0.332-0.226,0.502c-0.676,0.762-1.654,1.123-2.334,1.889c-0.375,0.422-0.912,0.324-1.321-0.088
	c-0.539-0.541-1.105-1.035-1.728-1.486c-0.4-0.291-0.281-0.904-0.422-1.363c-0.072-0.235-0.078-0.383-0.33-0.348
	c-0.352,0.053-0.332,0.279-0.182,0.514c0.129,0.205,0.32,0.424,0.011,0.586c-0.315,0.166-0.241-0.246-0.38-0.321
	c-0.59-0.322-0.898-0.775-0.861-1.47c0.006-0.102-0.302-0.336-0.365-0.305c-0.596,0.285-0.926-0.627-1.516-0.318
	c-0.039,0.021-0.242-0.125-0.24-0.188c0.047-0.994-0.812-0.766-1.244-0.773c-2.873-0.063-5.766-0.223-8.619,0.033
	c-1.949,0.174-3.797-0.348-5.713-0.266c-2.239,0.098-4.488,0.037-6.733,0.018c-0.81-0.008-1.617-0.092-2.426-0.146
	C216.197,64.473,215.895,64.453,215.76,64.117z"/>
<path fill="#77797D" d="M206.027,49.348c0,3.613,0,7.228,0,10.842c-0.021,0-0.043,0-0.063,0c0-3.612,0-7.229,0-10.842
	C205.984,49.348,206.007,49.348,206.027,49.348z"/>
<path fill="#77797D" d="M287.932,61.857c0.185,0.104,0.369,0.209,0.553,0.313c-0.188,0.029-0.211,0.432-0.477,0.236
	C287.83,62.275,287.807,62.063,287.932,61.857z"/>
<path fill="#77797D" d="M285.787,65.234c-0.113-0.451,0.047-0.635,0.283-0.873C286.113,64.691,286.023,64.904,285.787,65.234z"/>
<path fill="#77797D" d="M287.59,63.818c-0.064,0.022-0.166,0.09-0.27,0.092c-0.127,0.004-0.234-0.096-0.146-0.217
	c0.051-0.07,0.204-0.082,0.313-0.086C287.564,63.604,287.671,63.637,287.59,63.818z"/>
<path fill="#77797D" d="M215.057,63.939c0.193,0.006,0.4-0.031,0.527,0.178C215.283,64.432,215.188,64.129,215.057,63.939z"/>
<path fill="#FEFEFE" d="M283.538,62.184c-0.56-0.227-0.233-0.776-0.438-1.219c-0.867,0.877-1.854,1.449-3.102,1.373
	c-2.236-0.135-3.307-1.521-2.994-3.863c0.232-1.563,1.43-2.01,2.723-2.281c0.709-0.147,1.435-0.274,2.168-0.231
	c0.498,0.027,0.854-0.137,0.97-0.66c-0.205-0.788-0.829-0.971-1.524-1.038c-1.146-0.115-2.164,0.284-3.203,0.883
	c-0.191-0.746-0.343-1.424-0.063-2.125c0.163-0.271,0.442-0.367,0.72-0.453c1.451-0.447,2.93-0.457,4.393-0.133
	c1.189,0.268,1.834,1.1,1.976,2.336c0.325,1.799,0.114,3.614,0.16,5.42c0.018,0.627,0.452,1.432-0.009,1.83
	C284.943,62.336,284.145,62.148,283.538,62.184z"/>
<path fill="#747474" d="M285.158,54.77c-0.443-1.522-1.529-2.184-3.047-2.307c-1.394-0.111-2.732,0.086-4.041,0.557
	c-0.469-0.69,0.029-0.967,0.551-1.127c1.758-0.539,3.523-0.729,5.27,0.076C284.82,52.672,285.365,53.553,285.158,54.77z"/>
<path fill="#737373" d="M287.885,52.494c-0.293-0.002-0.585-0.004-0.878,0c-0.269,0.002-0.468-0.08-0.454-0.393
	c0.012-0.271,0.164-0.451,0.434-0.461c0.556-0.021,1.113-0.021,1.668-0.011c0.304,0.006,0.496,0.172,0.496,0.494
	c0,0.396-0.299,0.362-0.563,0.369C288.354,52.5,288.119,52.496,287.885,52.494z"/>
<path fill="#77797D" d="M203.301,58.932c0.164,0.531,0.215,0.873,0.029,1.189c-0.053,0.09-0.221,0.047-0.293-0.063
	C202.773,59.666,202.977,59.375,203.301,58.932z"/>
<path fill="#77797D" d="M206.355,64.406c-0.033-0.031-0.115-0.072-0.14-0.137c-0.039-0.104,0.052-0.146,0.136-0.127
	c0.065,0.018,0.151,0.069,0.174,0.127C206.555,64.354,206.496,64.422,206.355,64.406z"/>
<path fill="#999999" d="M203.787,16.588c-0.74-0.181-1.326-0.639-1.932-1.063c0.18-0.221,0.438-0.328,0.697-0.311
	c1.229,0.082,2.443-0.258,3.674-0.067c0.815,0.126,1.629-0.08,2.447-0.077c4.59,0.019,9.18,0.006,13.77,0.013
	c0.559,0,1.108-0.037,1.647-0.185c0.111-0.008,0.218,0.018,0.313,0.07c0.16,0.741,0.168,1.47-0.18,2.169
	c-6.002-0.217-12.004-0.146-18.007-0.025C205.339,17.13,204.54,17.033,203.787,16.588z"/>
<path fill="#A8A8A8" d="M197.793,12.191c0.555-0.215,1.137-0.182,1.711-0.182c8.191-0.005,16.383-0.009,24.574,0.007
	c0.572,0.001,1.146-0.241,1.72-0.009c0.091,0.33-0.153,0.496-0.341,0.69c-0.152,0.126-0.318,0.226-0.505,0.294
	c-0.377,0.252-0.78,0.346-1.243,0.343c-5.832-0.03-11.666,0.073-17.494-0.058c-1.627-0.036-3.263,0.109-4.887-0.104
	c-0.316-0.041-0.65-0.04-0.961,0.058c-0.594,0.187-1.152,0.136-1.693-0.161C198.32,12.838,198.025,12.544,197.793,12.191z"/>
<path fill="#9E9E9E" d="M224.207,14.999c-0.271,0.417-0.695,0.353-1.102,0.353c-4.92,0-9.842-0.018-14.763,0.008
	c-2.161,0.012-4.325,0.109-6.487,0.166c-0.517-0.288-1.072-0.523-1.418-1.044c0.367-0.498,0.949-0.548,1.461-0.54
	c1.951,0.031,3.91-0.078,5.848-0.008c5.184,0.188,10.363-0.001,15.543,0.099c0.32,0.007,0.646,0.007,0.93,0.204
	C224.424,14.494,224.4,14.748,224.207,14.999z"/>
<path fill="#959595" d="M203.787,16.588c1.027,0.433,2.105,0.262,3.162,0.234c5.465-0.145,10.932-0.016,16.396-0.068
	c0.346-0.004,0.635,0.043,0.823,0.359c0.302,0.289,0.506,0.587,0.104,0.953c-3.303,0.063-6.604,0-9.907,0.029
	c-1.666,0.016-3.332-0.086-4.992,0.149c-0.994,0.141-1.976-0.048-2.944-0.253C205.498,17.618,204.57,17.238,203.787,16.588z"/>
<path fill="#919191" d="M206.43,17.992c0.566-0.351,1.125,0.055,1.699,0.016c5.04-0.354,10.088-0.135,15.135-0.189
	c0.375-0.006,0.764-0.06,1.103,0.176c0.434,0.224,0.639,0.523,0.319,0.99c-0.289,0.199-0.617,0.135-0.935,0.139
	c-3.122,0.025-6.246,0.031-9.368,0c-1.889-0.018-3.781,0.238-5.664-0.076C207.955,18.695,207.191,18.344,206.43,17.992z"/>
<path fill="#A1A1A1" d="M224.211,14.295c-4.779,0-9.561,0.069-14.338-0.037c-1.719-0.037-3.43,0.063-5.145,0.045
	c-0.641-0.006-1.324-0.439-1.92,0.163c-0.101,0.101-0.201,0.045-0.289-0.064c-0.393-0.483-0.881-0.343-1.246-0.05
	c-0.301,0.24-0.57,0.04-0.836,0.13c-0.367-0.055-0.613-0.308-0.877-0.534c0.012-0.375,0.321-0.359,0.563-0.418
	c1.315-0.322,2.653-0.297,3.995-0.254c3.063,0.099,6.113,0.244,9.189,0.117c3.701-0.153,7.424-0.244,11.131,0.088
	C224.779,13.868,224.684,14.135,224.211,14.295z"/>
<path fill="#8F8F8F" d="M208.719,19.047c0.426-0.461,0.891-0.063,1.336-0.084c4.605-0.215,9.211,0,13.814-0.122
	c0.309-0.008,0.611,0.179,0.918,0.015c0.597,0.147,0.855,0.49,0.641,1.109c-0.385,0.29-0.838,0.231-1.27,0.224
	c-2.867-0.049-5.732,0.057-8.602-0.066c-1.035-0.044-2.096-0.249-3.143-0.018c-0.635,0.12-1.126-0.474-1.762-0.353
	C209.967,19.633,209.322,19.395,208.719,19.047z"/>
<path fill="#A4A4A4" d="M224.563,13.59c-0.932,0-1.862,0-2.793,0c-2.49,0-4.981-0.07-7.469,0.023
	c-1.896,0.072-3.791,0.202-5.688,0.144c-1.629-0.05-3.254-0.22-4.881-0.269c-1.406-0.043-2.813,0.031-4.172,0.459
	c-0.354-0.234-0.652-0.523-0.888-0.877c1.084,0.171,2.152-0.44,3.252-0.037c0.517,0.188,1.032-0.17,1.554-0.141
	c6.803,0.381,13.61,0.025,20.412,0.23c0.516,0.015,0.756-0.425,1.201-0.412C225.15,13.146,224.921,13.407,224.563,13.59z"/>
<path fill="#77797D" d="M274.381,23.976c-0.354,0.403-0.17,1.007-0.525,1.409c-0.772-0.65-1.521-0.594-2.475-0.235
	c-1.02,0.386-2.189,0.113-3.295,0.126c-0.738,0.008-1.414-0.06-1.736,0.885c-0.147,0.435-0.688,0.641-1.119,0.105
	c-0.353-1.057-0.703-2.113-1.057-3.17c0-0.059,0.001-0.117,0.002-0.176c0.799-0.38,1.457,0.123,2.057,0.458
	c0.539,0.302,0.992,0.43,1.55,0.214c0.336-0.131,0.672-0.184,1.024-0.07c1.293,0.417,2.594,0.223,3.895,0.049
	c0.423-0.057,0.697-0.234,0.408-0.689c-0.325-0.514-0.059-0.742,0.379-0.92c0.08-0.036,0.162-0.062,0.248-0.082
	c0.34-0.068,0.691-0.047,1.022-0.166c0.212-0.059,0.433-0.078,0.647-0.117c1.178-0.248,2.389-0.29,3.553-0.607
	c0.729-0.231,1.492-0.308,2.229-0.506c0.697-0.239,1.441-0.264,2.146-0.465c0.078-0.033,0.158-0.057,0.24-0.08
	c0.365-0.084,0.713-0.229,1.076-0.319c0.178-0.022,0.344-0.014,0.473,0.134c0.518,0.366,1.17,0.28,1.729,0.374
	c1.918,0.321,3.368,1.235,4.534,2.759c0.582,0.76,0.457,1.738,0.953,2.502c-0.631,2.325-1.254,4.652-1.897,6.975
	c-0.526,1.904-1.078,3.801-1.619,5.699c-0.25,0.949-0.5,1.896-0.75,2.846c-0.053,0.01-0.107,0.018-0.162,0.024
	c-0.518-1.777-1.01-3.563-1.561-5.33c-1.148-3.688-2.074-7.445-3.339-11.099c-0.129-0.537-0.252-1.074-0.391-1.606
	c-0.095-0.355-0.32-0.51-0.707-0.508c-2.192,0.014-4.388,0.014-6.578,0c-0.426-0.002-0.664,0.161-0.752,0.563
	C274.511,23.291,274.448,23.633,274.381,23.976z"/>
<path fill="#999999" d="M294.797,15.348c-0.591,0.598-1.393,0.84-2.104,1.238c-1.795,0.885-3.721,0.349-5.584,0.488
	c-0.547,0.041-1.111-0.033-1.668-0.033c-16.623,0-33.244,0-49.866-0.002c-0.878,0-1.759,0.029-2.627-0.148
	c-0.479-0.429-0.522-0.953-0.337-1.529c0.091-0.074,0.195-0.114,0.312-0.122c19.609-0.386,39.222-0.064,58.831-0.168
	c0.791-0.004,1.581,0.109,2.373-0.005C294.396,15.028,294.659,15.05,294.797,15.348z"/>
<path fill="#9E9E9E" d="M294.797,15.348c-0.988,0-1.979,0.004-2.967,0.004c-18.979,0-37.959,0.006-56.938-0.021
	c-0.687,0-1.371,0.497-2.058,0.021c-0.224-0.364-0.499-0.726-0.071-1.133c1.313-0.119,2.625-0.211,3.946-0.21
	c17.656,0.011,35.313,0.007,52.968,0.009c1.889,0,3.776-0.118,5.665,0.013c0.321,0.022,0.652-0.049,0.878,0.267
	C295.934,14.9,295.211,14.916,294.797,15.348z"/>
<path fill="#959595" d="M232.843,16.76c0.698,0,1.396,0,2.095,0c16.799,0,33.6-0.018,50.398,0.021
	c2.055,0.004,4.115-0.152,6.168,0.086c0.213,0.024,0.348-0.047,0.439-0.205c0.221-0.383,0.486-0.201,0.75-0.076
	c-0.76,0.693-1.729,0.998-2.644,1.406c-0.896,0.175-1.799,0.107-2.7,0.107c-17.293,0-34.584,0-51.877-0.002
	c-0.558,0-1.113,0.014-1.668,0.07c-0.386,0.041-0.765,0.042-1.095-0.209C232.355,17.516,232.418,17.117,232.843,16.76z"/>
<path fill="#919191" d="M232.658,17.816c0.658,0.301,1.316-0.006,1.975-0.006c17.813,0.008,35.626,0.002,53.439,0.016
	c0.656,0.002,1.335-0.076,1.979,0.166c-1.133,0.523-2.283,0.999-3.52,1.232c-0.875,0.18-1.738-0.082-2.611-0.082
	c-16.624,0.021-33.248,0.016-49.871,0.014c-0.555,0-1.115,0.055-1.662-0.095C231.712,18.482,232.236,18.16,232.658,17.816z"/>
<path fill="#8F8F8F" d="M232.146,18.875c17.599-0.001,35.196,0.004,52.797-0.026c0.597-0.002,1.027,0.396,1.588,0.376
	c-0.395,0.376-0.971,0.268-1.408,0.527c-0.178,0-0.354,0-0.527,0c-0.341,0.154-0.756,0.084-1.058,0.353l0,0
	c-1.455,0.111-2.907-0.058-4.358-0.058c-3.834-0.001-7.672,0.063-11.506,0.096c-11.188,0.096-22.377,0.034-33.566,0.034
	c-0.557,0-1.111-0.004-1.666-0.056c-0.508,0.145-0.871,0.044-0.928-0.563C231.615,19.23,231.662,18.852,232.146,18.875z"/>
<path fill="#A8A8A8" d="M230.547,11.656c7.447,0.783,14.916,0.172,22.373,0.336c3.475,0.077,6.951,0.014,10.428,0.014
	c10.59,0,21.18,0.003,31.771-0.004c0.903-0.001,1.813,0.094,2.687-0.357c0.252-0.131,0.698,0.115,1.057,0.188
	c-0.18,0.234-0.36,0.467-0.541,0.7c-0.512,0.594-1.238,0.686-1.92,0.635c-1.365-0.103-2.732,0.272-4.094-0.04
	c-0.638-0.113-1.261-0.154-1.912-0.026c-0.933,0.185-1.861-0.128-2.797-0.128c-17.943,0-35.888,0-53.83,0
	c-0.441,0-0.881-0.012-1.295,0.171c-0.59,0.158-0.9-0.271-1.261-0.599C231.021,12.225,230.533,12.127,230.547,11.656z"/>
<path fill="#A1A1A1" d="M296.221,14.297c-0.709-0.127-1.451,0.257-2.152-0.162c-0.159-0.096-0.394,0.02-0.522,0.221
	c-0.098,0.148-0.293,0.346-0.42,0.199c-0.704-0.811-1.558-0.234-2.313-0.236c-18.537-0.031-37.076-0.021-55.612-0.033
	c-0.847-0.002-1.691,0.447-2.536,0.008c-0.38-0.242-0.436-0.518-0.079-0.832c0.481-0.189,0.985-0.116,1.479-0.116
	c18.806-0.004,37.608-0.005,56.412,0c1.728,0,3.455-0.161,5.178,0.073c0.392,0.053,0.771,0.072,0.916,0.527
	C296.454,14.063,296.338,14.18,296.221,14.297z"/>
<path fill="#A4A4A4" d="M296.57,13.945c-0.963-0.439-2.01-0.297-3.016-0.422c-0.399-0.047-0.814,0.064-1.223,0.064
	c-19.95,0.004-39.9,0.004-59.854,0.004c-0.201,0.027-0.334-0.078-0.369-0.258c-0.021-0.114,0.095-0.189,0.219-0.207
	c0.423-0.148,0.859-0.152,1.302-0.152c18.029,0.002,36.06-0.01,54.089,0.02c1.604,0.004,3.2,0.064,4.797-0.107
	c1.616,0.265,3.231-0.102,4.846,0.004c0.392,0.027,0.594-0.366,0.957-0.358C297.898,13.203,297.243,13.586,296.57,13.945z"/>
<path fill="#999999" d="M230.547,11.656c0.213,0.257,0.582,0.354,0.709,0.699c-0.318,0.386-0.832-0.117-1.156,0.255
	c-1.381-0.347-2.711-0.142-4.014,0.364c-0.299-0.025-0.536-0.139-0.645-0.441c0.117-0.176,0.236-0.35,0.354-0.525
	c1.246-0.822,2.649-0.726,4.043-0.704C230.021,11.527,230.268,11.625,230.547,11.656z"/>
<path fill="#C0C0C0" d="M205.727,6.901c0.32,0.317,0.725,0.168,1.088,0.168c12.957,0.009,25.914,0.007,38.871,0.007
	c14.086,0,28.172,0.014,42.258-0.018c1.539-0.003,3.074,0.225,4.615,0.048c0.328-0.037,0.463,0.198,0.486,0.498
	c-6.855,0.79-13.734,0.224-20.602,0.329c-6.895,0.105-13.789,0.023-20.685,0.021c-0.373,0-0.735,0.039-1.079-0.242
	c-0.279-0.228-0.755-0.224-1.009-0.06c-0.685,0.444-1.412,0.296-2.123,0.296c-13.965,0.01-27.931,0.068-41.896-0.037
	c-3.256-0.025-6.529,0.012-9.783-0.309c0.003-0.174,0.005-0.348,0.008-0.523C199.156,6.817,202.453,7.493,205.727,6.901z"/>
<path fill="#FEFEFE" d="M234.096,37.527c-0.076-1.9,0.131-3.775,0.479-5.639c0.297-2.137,1.161-4.021,2.604-5.617
	c2.207-2.435,4.969-3.581,8.266-3.604c2.47-0.017,4.865,0.184,7.041,1.463c2.441,1.438,3.972,3.542,4.49,6.352
	c0.477,1.791,0.729,3.622,0.896,5.465c-0.009,0.322-0.037,0.647-0.017,0.967c0.088,1.368,0.078,1.199-1.215,1.199
	c-5.162,0.004-10.324,0.012-15.484-0.008c-0.721-0.004-0.928,0.211-0.59,0.863c0.201,0.42,0.345,0.861,0.522,1.293
	c0.97,2.339,2.794,3.552,5.228,3.894c2.963,0.414,5.664-0.494,8.295-1.734c0.453-0.215,0.861-0.652,1.451-0.434
	c-0.004,1.555-0.013,3.109-0.014,4.664c0,0.354,0.014,0.672-0.387,0.887c-4.314,2.322-12.438,2.684-16.834-0.588
	c-2.85-2.121-4.174-5.047-4.59-8.477C234.201,38.156,234.145,37.843,234.096,37.527z"/>
<path fill="#FEFEFE" d="M231.773,23.469c0.012,3.924,0.022,7.851,0.035,11.774c0,0.353,0,0.705,0,1.058
	c0.309,0.41,0.205,0.816,0,1.227c-0.01,3.458-0.037,6.917-0.015,10.376c0.006,0.681-0.158,0.908-0.869,0.886
	c-1.67-0.054-3.342-0.033-5.014-0.006c-0.531,0.008-0.709-0.162-0.707-0.701c0.014-7.976,0.017-15.948,0.004-23.922
	c0-0.504,0.103-0.736,0.672-0.726C227.844,23.473,229.809,23.461,231.773,23.469z"/>
<path fill="#FEFEFE" d="M271.941,54.248c0.416,2.445,0.076,4.91,0.172,7.363c0.011,0.281-0.102,0.443-0.406,0.438
	c-0.559-0.004-1.113,0.002-1.67,0c-0.531-0.002-0.401-0.407-0.402-0.698c0-1.582,0.016-3.164,0.021-4.746
	c0-0.295-0.004-0.588-0.031-0.879c-0.063-0.654-0.275-1.205-1.018-1.355c-0.719-0.145-1.271,0.129-1.651,0.725
	c-0.392,0.609-0.489,1.309-0.493,2.021c-0.005,1.405-0.018,2.813,0.006,4.221c0.008,0.492-0.076,0.728-0.662,0.736
	c-1.832,0.03-1.832,0.059-1.832-1.765c0-1.35,0.008-2.697-0.004-4.045c-0.01-1.209-0.418-1.84-1.227-1.94
	c-0.898-0.115-1.652,0.547-1.875,1.715c-0.277,1.448-0.137,2.92-0.163,4.383c-0.006,0.322-0.021,0.646,0.003,0.968
	c0.036,0.477-0.13,0.659-0.639,0.682c-1.856,0.076-1.855,0.096-1.855-1.744c0-2.287,0.021-4.572-0.014-6.857
	c-0.012-0.652,0.166-0.936,0.835-0.832c0.2,0.029,0.413,0.027,0.614-0.002c0.684-0.1,0.951,0.158,0.873,0.865
	c-0.041,0.373,0.146,0.314,0.301,0.053c0.863-1.537,3.379-1.906,4.806-0.629c0.507,0.455,0.759,0.477,1.263,0.027
	c0.976-0.869,2.842-1.014,3.961-0.377C271.49,52.936,271.92,53.469,271.941,54.248z"/>
<path fill="#FEFEFE" d="M257.346,56.002c0.219,1.23,0.228,2.439-0.316,3.607c-0.973,2.092-3.143,3.061-5.771,2.567
	c-2.088-0.393-3.534-2.12-3.667-4.346c-0.044-0.738,0.053-1.457,0.19-2.177c0.065-1.176,0.729-2.002,1.651-2.61
	c2.021-1.34,4.691-1.205,6.566,0.322C256.82,54.035,257.324,54.906,257.346,56.002z"/>
<path fill="#FEFEFE" d="M247.061,52.52c0.375,0.324,0.502,1.613,0.186,1.957c-0.223,0.244-0.434-0.008-0.633-0.051
	c-2.348-0.518-3.975,1.174-3.407,3.561c0.226,0.304,0.313,0.679,0.517,0.996c0.596,0.927,1.346,1.271,2.437,1.097
	c0.312-0.052,0.622-0.168,0.94-0.035c0.797-0.021,0.457,0.617,0.49,0.957c0.034,0.349,0.28,0.813-0.264,1.067
	c-2.008,0.949-5.208-0.088-6.229-2.049c-0.758-1.455-0.649-2.994-0.359-4.539c0.031-1.116,0.644-1.92,1.519-2.479
	C243.756,52.041,245.363,51.725,247.061,52.52z"/>
<path fill="#747474" d="M256.063,41.986c-1.746,0.807-3.453,1.713-5.356,2.133c-1.997,0.439-3.994,0.607-5.959-0.098
	c-2.377-0.853-3.797-2.533-4.181-5.054c0.056-0.056,0.119-0.289,0.152-0.16c1.045,4.119,5.415,5.124,8.68,4.59
	c2.049-0.334,3.929-1.043,5.752-1.969C256.061,40.967,256.064,40.973,256.063,41.986z"/>
<path fill="#747474" d="M271.941,54.248c-0.771-2.5-4.377-2.334-5.756-0.328c-0.566-1.006-1.442-1.49-2.552-1.543
	c-1.118-0.055-2.038,0.389-2.811,1.174c-0.369-0.496-0.107-0.857,0.249-1.211c1.414-1.402,3.67-1.16,5.156,0.605
	c0.801-1.23,1.992-1.59,3.379-1.506C271.07,51.527,272.275,52.969,271.941,54.248z"/>
<path fill="#747474" d="M257.346,56.002c-0.703-2.275-2.117-3.422-4.494-3.637c-2.051-0.186-4.004,0.928-5.004,2.867
	c-0.063,0.121-0.047,0.281-0.065,0.424c-0.22-0.188-0.15-0.41-0.093-0.643c0.599-2.371,2.672-3.742,5.41-3.572
	c2.273,0.143,4.086,1.865,4.373,4.162C257.49,55.754,257.462,55.893,257.346,56.002z"/>
<path fill="#FDFDFD" d="M274.855,59.533c1.455,0.02,1.254-0.182,1.258,1.24c0.003,1.426,0.179,1.285-1.229,1.278
	c-1.603-0.008-1.36,0.216-1.378-1.293C273.492,59.533,273.504,59.533,274.855,59.533z"/>
<path fill="#FDFDFD" d="M238.329,62.025c-1.452-0.023-1.231,0.205-1.235-1.441c-0.004-1.289-0.164-1.074,1.512-1.074
	c1.302-0.002,1.078-0.197,1.096,1.395C239.711,62.025,239.701,62.025,238.329,62.025z"/>
<path fill="#747474" d="M247.061,52.52c-1.041-0.102-2.08-0.285-3.129-0.035c-1.643,0.392-2.666,1.425-3.192,2.996
	c-0.396-0.582,0.024-1.104,0.241-1.541c0.748-1.496,1.943-2.455,3.695-2.487c0.779-0.017,1.572-0.119,2.342,0.147
	c0.2,0.07,0.396,0.088,0.422,0.353C247.471,52.252,247.398,52.471,247.061,52.52z"/>
<path fill="#737373" d="M225.092,23.268c-0.089-0.714,0.271-0.896,0.93-0.883c1.631,0.031,3.267,0.045,4.896-0.006
	c0.707-0.021,0.967,0.214,0.861,0.891C229.551,23.27,227.32,23.269,225.092,23.268z"/>
<path fill="#747474" d="M282.863,55.301c0.377,0.717,0.162,0.973-0.641,0.943c-0.752-0.025-1.513,0.033-2.259,0.131
	c-1.342,0.178-2.444,0.736-2.961,2.1c-0.075-1.373,0.597-2.354,1.89-2.817C280.189,55.195,281.534,55.35,282.863,55.301z"/>
<path fill="#767676" d="M247.098,60.043c-2.141,0.77-3.623-0.014-3.893-2.057c0.063-0.041,0.025-0.396,0.189-0.104
	c0.78,1.394,1.764,1.787,3.326,1.351c0.268-0.074,0.65-0.482,0.875,0.051C247.785,59.729,247.373,59.861,247.098,60.043z"/>
<path fill="#7A7A7A" d="M238.506,58.484c0.325,0.213,1.169-0.424,1.148,0.463c-0.019,0.742-0.771,0.313-1.193,0.398
	c-0.279,0.057-0.58,0.006-0.871,0.01c-0.293,0.006-0.518-0.058-0.521-0.42c-0.006-0.345,0.181-0.457,0.49-0.451
	C237.85,58.488,238.143,58.484,238.506,58.484z"/>
<path fill="#787878" d="M274.83,59.361c-0.264,0-0.525-0.004-0.789,0c-0.291,0.006-0.523-0.045-0.531-0.414
	c-0.01-0.344,0.168-0.465,0.484-0.463c0.525,0.006,1.053-0.002,1.578,0.006c0.34,0.006,0.566,0.16,0.547,0.531
	c-0.021,0.393-0.335,0.328-0.588,0.338C275.297,59.367,275.063,59.361,274.83,59.361z"/>
<path fill="#7E7E7E" d="M259.291,52.49c-0.301-0.191-1.09,0.389-1.064-0.469c0.023-0.736,0.728-0.304,1.119-0.396
	c0.25-0.058,0.521-0.006,0.783-0.01c0.299-0.007,0.512,0.073,0.518,0.428c0.004,0.351-0.188,0.453-0.496,0.447
	C259.887,52.486,259.626,52.49,259.291,52.49z"/>
<path fill="#77797D" d="M231.811,37.527c0-0.41,0-0.816,0-1.227c0.129-0.053,0.275-0.082,0.385-0.16
	c0.343-0.248,0.453,0.086,0.619,0.24c0.224,0.204,0.021,0.346-0.11,0.494C232.455,37.161,232.152,37.371,231.811,37.527z"/>
<path fill="#717171" d="M256.977,30.482c-0.942-2.896-2.506-5.292-5.404-6.567c-3.938-1.731-10.459-1.687-13.98,2.198
	c-1.518,1.674-2.431,3.631-3.017,5.775c-0.345-0.734,0.147-1.357,0.338-1.984c1.06-3.5,3.19-6.064,6.7-7.354
	c0.076-0.027,0.138-0.103,0.205-0.155c0.738-0.631,1.709-0.437,2.548-0.721c0.719-0.116,1.442-0.057,2.166-0.07
	c0.944,0.072,1.889,0.168,2.817,0.355c0.342,0.069,0.68,0.144,0.914,0.436c1.305,0.564,2.615,1.1,3.685,2.096
	c1.651,1.539,2.602,3.461,3.172,5.604C257.158,30.241,257.105,30.383,256.977,30.482z"/>
<path fill="#77797D" d="M273.68,22.041c-0.193,0.115-0.386,0.232-0.576,0.348c-0.078,0.297,0.254,0.292,0.324,0.459
	c0.166,0.388,0.187,0.887-0.3,0.924c-1.489,0.108-2.999,0.561-4.476-0.094c-0.053-0.021-0.133-0.057-0.166-0.035
	c-1.187,0.765-2.176-0.092-3.25-0.351c-0.375-0.09-0.576-0.647-1.062-0.372c-0.065-0.6-0.521-0.523-0.924-0.523
	c-2.099-0.002-4.194,0-6.293,0.002c-1.129-0.104-2.256-0.234-3.394-0.184c-0.207,0.01-0.49-0.008-0.53,0.201
	c-0.111,0.576-0.285,0.59-0.61,0.145c-0.046-0.064-0.186-0.146-0.208-0.129c-0.557,0.441-0.938-0.241-1.424-0.215
	c0.049-0.402,0.383-0.387,0.657-0.43c0.347-0.053,0.699-0.031,1.052-0.031c5.704,0,11.408,0.002,17.11,0
	c0.878-0.002,1.753,0.006,2.628-0.105C272.746,21.586,273.311,21.509,273.68,22.041z"/>
<path fill="#888888" d="M273.68,22.041c-0.92-0.418-1.84,0.007-2.76,0.006c-6.377-0.011-12.752-0.008-19.129,0
	c-0.334,0-0.709-0.133-0.998,0.17c-0.193,0.006-0.402-0.03-0.527,0.178c-1.223-0.246-2.443-0.502-3.697-0.533
	c0.021-0.571,0.476-0.697,0.863-0.637c1.437,0.221,2.848-0.064,4.264-0.088c6.42-0.105,12.841-0.092,19.261-0.008
	c1.297,0.018,2.593,0.386,3.918,0.233c0.299-0.033,0.59,0.098,0.565,0.503c-0.233,0-0.469,0-0.703,0
	C274.411,22.085,274.003,21.811,273.68,22.041z"/>
<path fill="#77797D" d="M265.23,26.266c0.592,0.204,1.016,0.149,1.076-0.617c0.034-0.442,0.313-0.633,0.78-0.623
	c1.078,0.025,2.156,0.011,3.236,0.006c0.571,0,1.104,0.021,1.636-0.396c0.589-0.462,1.301-0.115,1.896,0.749
	c-0.731,2.754-1.465,5.508-2.194,8.262c-0.156,0.59-0.3,1.182-0.449,1.773c-0.413,1.492-0.821,2.986-1.241,4.476
	c-0.094,0.334-0.227,0.655-0.341,0.983c-0.633-1.288-0.896-2.697-1.312-4.055c-1.023-3.341-2.008-6.694-3.002-10.045
	C265.268,26.615,265.258,26.438,265.23,26.266z"/>
<path fill="#898989" d="M275.439,21.865c-0.135-0.273-0.33-0.346-0.646-0.303c-1.092,0.152-2.188,0.355-3.25-0.187
	c-0.188-0.096-0.462-0.038-0.694-0.038c-6.334-0.001-12.668,0.011-19-0.02c-0.619-0.003-1.115,0.365-1.697,0.361
	c-0.875-0.008-1.75-0.021-2.617-0.249c-0.329-0.087-0.764,0.021-0.967,0.431c-0.762,0.002-1.523,0.004-2.285,0.006
	c-1.678,0.209-3.32-0.254-4.986-0.256c-4.516-0.012-9.031,0.008-13.547-0.014c-1.172-0.004-2.301,0.433-3.49,0.232
	c-1.451-0.242-2.947-0.117-4.387-0.493c-0.613,0.011-1.203-0.089-1.762-0.353c0.277-0.285,0.643-0.27,0.99-0.263
	c1.991,0.04,3.987-0.138,5.975,0.131c0.146,0.02,0.297,0.032,0.439,0.005c1.325-0.256,2.67-0.199,4.008-0.229
	c0.863-0.086,1.729-0.168,2.6-0.176c0.891,0.21,1.799,0.24,2.707,0.242c10.699,0.012,21.4,0.003,32.102,0.008
	c4.279,0.001,8.561,0.047,12.84,0.044c0.42,0,0.963-0.204,1.189,0.413c-0.936,0.426-1.965,0.344-2.943,0.545
	C275.818,21.748,275.625,21.785,275.439,21.865z"/>
<path fill="#888888" d="M217.873,21.337c1.848-0.029,3.682,0.563,5.508,0.325c5.447-0.715,10.906-0.163,16.355-0.293
	c1.512-0.036,3.031,0.32,4.547,0.498c-0.822,0.176-1.645,0.352-2.465,0.527c-0.637-0.512-1.402-0.335-2.105-0.339
	c-5.496-0.025-10.99-0.031-16.484-0.004c-1.539,0.007-3.035-0.364-4.565-0.39C218.395,21.658,218.084,21.571,217.873,21.337z"/>
<path fill="#8B8B8B" d="M227.563,20.777c-0.207,0.305-0.547,0.256-0.803,0.191c-1.001-0.259-1.961-0.004-2.926,0.174
	c-0.719,0.13-1.385-0.176-2.09-0.166c-1.877,0.023-3.754,0.008-5.633,0.008c-1.288-0.055-2.48-0.516-3.696-0.88
	c0.321-0.394,0.772-0.38,1.208-0.349c3.682,0.267,7.368,0.146,11.053,0.168c0.279,0.002,0.598,0.087,0.787-0.235
	C226.291,19.807,226.98,20.186,227.563,20.777z"/>
<path fill="#77797D" d="M238.719,22.42c0.174,0.002,0.262,0.111,0.313,0.256c0.047,0.137-0.003,0.23-0.154,0.221
	c-0.153-0.01-0.285-0.088-0.33-0.242C238.508,22.522,238.58,22.438,238.719,22.42z"/>
<path fill="#77797D" d="M246.693,68.805c0.309,0.385,0.481,0.6,0.658,0.816C247.006,69.541,246.619,69.508,246.693,68.805z"/>
<path fill="#8A8A8A" d="M279.346,59.023c0.219-0.92,0.98-1.107,1.739-1.213c0.574-0.08,1.167-0.021,1.751-0.021
	c0.072,0.924-0.289,1.451-1.248,1.819C280.699,59.953,279.879,59.738,279.346,59.023z"/>
<path fill="#757575" d="M279.346,59.023c1.573,1.026,3.174,0.463,3.49-1.234c0.33,0.771,0.006,1.771-0.747,2.303
	c-0.728,0.516-1.905,0.539-2.452,0.045C279.298,59.83,279.23,59.449,279.346,59.023z"/>
<path fill="#FEFEFE" d="M227.563,20.777c-0.75-0.264-1.447-0.632-2.1-1.089c-0.225-0.277-0.451-0.556-0.676-0.833
	c-0.141-0.287-0.281-0.575-0.422-0.861c-0.064-0.295-0.129-0.588-0.195-0.881c0.018-0.711,0.004-1.423,0.21-2.114
	c0.155-0.989,0.589-1.771,1.582-2.14c1.363-0.682,2.765-0.939,4.237-0.372c1.299,0.23,2.309,1.395,2.48,2.862
	c0.055,0.47,0.108,0.94,0.162,1.41c-0.063,0.352-0.124,0.703-0.185,1.057c-0.171,0.353-0.343,0.705-0.513,1.059
	c-0.184,0.232-0.367,0.465-0.551,0.697c-0.302,0.717-0.924,0.936-1.619,1.037C229.186,20.843,228.375,20.831,227.563,20.777z"/>
<path fill="#939393" d="M225.962,12.859c-0.688,0.592-1.19,1.326-1.582,2.14h-0.087h-0.086c0.001-0.235,0.002-0.47,0.004-0.704
	c0.116-0.234,0.234-0.47,0.352-0.705c0.176-0.292,0.354-0.586,0.53-0.879c0.116-0.06,0.231-0.119,0.349-0.178
	C225.613,12.642,225.788,12.75,225.962,12.859z"/>
<path fill="#8B8B8B" d="M229.977,20.609c0.541-0.346,1.08-0.691,1.619-1.037c0.105,0.252,0.25,0.465,0.537,0.532
	c7.534,0.003,15.068-0.002,22.604,0.003c2.814,0.002,5.635,0.107,8.441-0.028c4.047-0.198,8.037,0.671,12.078,0.46
	c1.404-0.072,2.813-0.01,4.217-0.15c0.594-0.059,1.234-0.191,1.777,0.244c-0.729,0.33-1.525,0.357-2.289,0.527
	c-0.32-0.316-0.725-0.168-1.088-0.168c-14.975-0.008-29.948-0.002-44.922-0.021C231.957,20.971,230.92,21.121,229.977,20.609z"/>
<path fill="#8B8B8B" d="M281.25,20.633c-3.533,0.184-7.066,0.197-10.604,0.18c-0.535-0.002-1.053-0.003-1.492-0.375
	c-0.301-0.253-0.676-0.156-1.021-0.153c-4.336,0.042-8.674,0.062-13.008,0.036c-7.239-0.042-14.478,0.018-21.715-0.061
	c-0.414-0.004-0.917,0.365-1.279-0.155c0.101-0.194,0.228-0.358,0.478-0.282c0.72,0.218,1.455,0.098,2.184,0.1
	c10.876,0.01,21.754,0.085,32.628-0.035c3.95-0.045,7.901-0.07,11.851-0.148c1.043-0.021,2.07,0.396,3.125,0.031
	c0.406-0.14,0.691,0.44,1.143,0.335C282.832,20.527,282.008,20.438,281.25,20.633z"/>
<path fill="#8B8B8B" d="M283.538,20.104c0.229-0.488,0.676-0.319,1.058-0.353C284.289,20.011,283.924,20.089,283.538,20.104z"/>
<path fill="#888888" d="M273.68,22.041c0.309-0.32,0.704-0.119,1.057-0.176C274.428,22.185,274.031,21.983,273.68,22.041z"/>
<path fill="#939393" d="M232.68,15.35c-0.438-1.291-1.25-2.258-2.479-2.862c0.038-0.146-0.087-0.491,0.262-0.286
	c0.265,0.154,0.521,0.152,0.795,0.154c0.291,0.236,0.582,0.473,0.874,0.709c0.063,0.036,0.083,0.073,0.064,0.113
	c-0.02,0.04-0.037,0.061-0.057,0.061c0.063,0.168,0.178,0.285,0.342,0.354c-0.021,0.256,0.062,0.484,0.184,0.701
	c0.054,0.354,0.236,0.687,0.173,1.059C232.784,15.352,232.732,15.35,232.68,15.35z"/>
<path fill="#A5A5A5" d="M232.139,13.238c-0.005-0.059-0.008-0.115-0.009-0.174c0.462-0.294,0.964-0.362,1.509-0.362
	c17.978,0.01,35.955-0.018,53.932,0.053c1.642,0.006,3.306-0.11,4.945,0.132c-0.68,0.273-1.392,0.354-2.119,0.354
	C270.977,13.238,251.557,13.238,232.139,13.238z"/>
<path fill="#888888" d="M240.607,32.608c0.453-3.028,2.619-4.931,5.619-4.936c2.905-0.004,4.717,1.704,5.229,4.938
	c-0.332,0.323-0.76,0.271-1.162,0.272c-2.84,0.01-5.682,0.01-8.521,0.001C241.367,32.883,240.941,32.926,240.607,32.608z"/>
<path fill="#767676" d="M240.607,32.608c3.617,0,7.231,0.001,10.848,0.002c0.279,0.807-0.004,1.03-0.846,1.017
	c-3.068-0.047-6.139-0.018-9.209-0.018C240.346,33.607,240.346,33.605,240.607,32.608z"/>
<path fill="#8A8A8A" d="M250.246,57.811c-0.283-1.135,0.004-2.145,0.816-2.94c0.629-0.615,1.438-0.72,2.275-0.402
	c0.998,0.38,1.525,1.354,1.503,2.783c-0.327,1.75-1.118,2.44-2.635,2.328C251.086,59.496,250.6,58.732,250.246,57.811z"/>
<path fill="#767676" d="M250.246,57.811c0.197-0.051,0.207-0.053,0.244,0.072c0.523,1.773,2.345,1.768,3.393,1.072
	c0.612-0.406,0.637-1.137,0.959-1.705c0.025,0.471-0.013,0.928-0.156,1.383c-0.354,1.109-1.11,1.727-2.146,1.729
	c-1.087,0.002-1.803-0.547-2.159-1.692C250.293,58.395,250.288,58.098,250.246,57.811z"/>
<g>
	<path fill="#77797D" d="M142.926,46.91c-0.296,0.197-0.419,0.258-0.516,0.348c-3.606,3.33-7.743,3.441-12.044,1.799
		c-2.861-1.092-4.269-3.801-4.159-7.178c0.106-3.254,1.854-5.333,4.648-6.677c1.924-0.925,3.98-1.374,6.111-1.429
		c1.378-0.037,2.758-0.02,4.137-0.002c1.35,0.016,1.35,0.029,1.201-1.305c-0.274-2.461-1.385-3.83-3.706-4.276
		c-3.12-0.602-5.98,0.134-8.565,1.967c-0.208,0.146-0.411,0.3-0.76,0.556c-0.092-1.504-0.193-2.862-0.236-4.222
		c-0.006-0.191,0.232-0.468,0.428-0.579c3.915-2.184,8.049-2.809,12.372-1.52c3.417,1.02,5.016,3.602,5.444,6.964
		c0.21,1.649,0.188,3.331,0.215,5c0.068,4.046,0.085,8.093,0.171,12.138c0.016,0.746-0.199,0.982-0.927,0.947
		c-1.025-0.049-2.053-0.027-3.08-0.01c-0.518,0.008-0.758-0.193-0.737-0.726C142.942,48.164,142.926,47.619,142.926,46.91z
		 M142.446,39.191c0.003-1.72,0.021-1.44-1.385-1.467c-0.174-0.004-0.349-0.05-0.523-0.053c-2.264-0.039-4.516,0.044-6.61,1.04
		c-1.832,0.871-2.619,2.33-2.278,4.102c0.275,1.431,1.914,2.771,3.583,2.938C139.606,46.182,142.445,43.6,142.446,39.191z"/>
	<path fill="#77797D" d="M58.473,49.424c-1.295,0-2.64,0.027-3.982-0.029c-0.206-0.01-0.528-0.387-0.567-0.631
		c-0.086-0.539-0.027-1.102-0.027-1.799c-0.278,0.168-0.459,0.238-0.589,0.361c-2.354,2.229-5.174,3.039-8.331,2.592
		c-1.343-0.189-2.727-0.475-3.956-1.021c-2.555-1.139-3.701-3.348-3.812-6.053c-0.164-3.983,1.597-6.514,5.414-7.994
		c2.216-0.858,4.519-1.172,6.888-1.094c0.996,0.033,1.997-0.027,2.989,0.039c0.797,0.053,0.94-0.289,0.855-0.984
		c-0.498-4.07-2.793-4.938-6.054-4.795c-3.051,0.135-4.048,0.635-7.074,2.688c-0.078-1.372-0.179-2.7-0.208-4.03
		c-0.005-0.256,0.205-0.635,0.427-0.758c3.999-2.236,8.221-2.854,12.611-1.436c3.158,1.02,4.673,3.479,5.148,6.625
		c0.191,1.268,0.242,2.564,0.254,3.85c0.033,3.607,0.011,7.215,0.011,10.822C58.473,46.943,58.473,48.111,58.473,49.424z
		 M53.388,39.351c0.001-1.533,0.001-1.532-1.47-1.629c-0.146-0.01-0.29-0.051-0.436-0.053c-2.264-0.04-4.512,0.061-6.606,1.048
		c-1.648,0.777-2.438,2.074-2.315,3.68c0.108,1.429,1.255,2.688,2.892,3.179C49.643,46.828,53.385,43.895,53.388,39.351z"/>
	<path fill="#77797D" d="M34.974,43.139c0,1.664,0.014,3.215-0.018,4.766c-0.004,0.195-0.21,0.49-0.395,0.566
		c-4.591,1.881-9.246,2.236-13.923,0.367c-2.504-1-4.337-2.816-5.354-5.307c-1.789-4.381-2.011-8.854-0.059-13.228
		c2.253-5.05,7.172-6.936,11.96-6.479c5.597,0.531,8.362,4.275,9.198,9.18c0.234,1.377,0.242,2.793,0.393,4.186
		c0.087,0.799-0.245,0.99-0.996,0.986c-5.014-0.027-10.027-0.014-15.042-0.014c-0.264,0-0.528,0.012-0.791,0.006
		c-0.5-0.012-0.652,0.223-0.612,0.712c0.294,3.651,3.698,6.841,7.37,6.884C29.5,45.797,31.212,45.26,34.974,43.139z M19.459,34.16
		c0.097,0.035,0.202,0.107,0.308,0.107c3.697,0.01,7.394,0.01,11.09,0.018c0.594,0,0.567-0.403,0.517-0.789
		c-0.184-1.424-0.656-2.732-1.652-3.803c-1.541-1.656-4.082-2.18-6.328-1.314C21.198,29.227,19.504,31.701,19.459,34.16z"/>
	<path fill="#77797D" d="M74.327,38.162c-0.269,2.457,1.514,5.398,3.892,6.68c2.266,1.221,4.63,1.193,6.986,0.434
		c1.541-0.498,3.009-1.225,4.578-1.877c0,1.478,0.013,3.07-0.02,4.66c-0.003,0.16-0.255,0.387-0.44,0.461
		c-4.514,1.832-9.087,2.154-13.685,0.367c-2.58-1-4.453-2.852-5.491-5.404c-1.721-4.232-1.931-8.565-0.189-12.833
		c2.117-5.186,7.14-7.331,12.177-6.816c5.771,0.59,8.354,4.516,9.169,9.324c0.214,1.266,0.292,2.559,0.357,3.842
		c0.058,1.156,0.012,1.164-1.124,1.164c-4.986,0.002-9.972,0-14.958,0C75.173,38.162,74.767,38.162,74.327,38.162z M74.345,34.229
		c0.33,0.02,0.668,0.057,1.007,0.057c3.132,0.006,6.265,0.004,9.397,0.004c1.739,0,1.739,0,1.356-1.694
		c-0.728-3.224-3.262-4.947-6.662-4.532C76.767,28.389,74.309,31.311,74.345,34.229z"/>
	<path fill="#77797D" d="M169.531,38.225c-0.24,3.207,2.416,6.604,5.773,7.33c3.254,0.703,6.186-0.313,8.963-1.932
		c0.178-0.104,0.344-0.223,0.516-0.332c0.021-0.014,0.055-0.006,0.203-0.016c0,1.598,0.009,3.19-0.016,4.785
		c-0.004,0.146-0.195,0.366-0.349,0.428c-4.942,1.971-9.916,2.344-14.787-0.111c-3.259-1.643-4.832-4.607-5.455-8.076
		c-0.526-2.938-0.551-5.887,0.438-8.765c1.983-5.77,7.191-8.262,12.55-7.703c5.657,0.59,8.338,4.367,9.176,9.423
		c0.215,1.295,0.229,2.621,0.377,3.929c0.09,0.788-0.217,0.997-0.979,0.991c-5.104-0.027-10.207-0.014-15.312-0.01
		C170.26,38.166,169.889,38.205,169.531,38.225z M181.443,34.211c0.34-3.259-2.305-6.135-5.655-6.238
		c-3.279-0.102-6.356,2.956-6.213,6.238C173.532,34.211,177.492,34.211,181.443,34.211z"/>
	<path fill="#77797D" d="M119.133,17.097c0,2.478,0,4.811,0,7.28c1.516,0,2.945,0,4.374,0c2.131,0,2.131,0,2.131,2.099
		c0,0.667,0,1.333,0,2.087c-2.192,0-4.29,0-6.459,0c-0.021,0.366-0.052,0.648-0.053,0.931c-0.003,4.075-0.02,8.15,0.015,12.227
		c0.007,0.686,0.132,1.413,0.391,2.045c0.723,1.766,2.651,2.463,4.763,1.78c0.546-0.176,1.056-0.465,1.693-0.75
		c0,1.41,0.017,2.744-0.02,4.076c-0.005,0.18-0.248,0.451-0.435,0.512c-2.428,0.798-4.884,0.949-7.314,0.062
		c-2.548-0.932-3.987-2.863-4.072-5.514c-0.151-4.66-0.076-9.323-0.1-13.982c-0.002-0.432-0.042-0.864-0.067-1.357
		c-1.833,0-3.585,0-5.48,0c0-1.311-0.024-2.557,0.033-3.801c0.007-0.147,0.456-0.383,0.706-0.391
		c1.318-0.041,2.639-0.045,3.958-0.012c0.653,0.016,0.876-0.236,0.862-0.877c-0.03-1.377-0.022-2.756,0.008-4.133
		c0.005-0.25,0.134-0.658,0.303-0.717C115.904,18.117,117.461,17.636,119.133,17.097z"/>
	<path fill="#77797D" d="M163.872,28.58c-2.19,0-4.261,0-6.388,0c-0.028,0.408-0.07,0.725-0.07,1.041
		c-0.004,3.93-0.01,7.859,0.006,11.789c0.002,0.553,0.039,1.121,0.178,1.654c0.598,2.33,2.754,3.313,5.228,2.414
		c0.433-0.158,0.842-0.379,1.427-0.646c0,1.465,0.016,2.824-0.021,4.183c-0.002,0.145-0.281,0.352-0.472,0.409
		c-2.407,0.75-4.829,0.882-7.235,0.009c-2.637-0.957-4.156-3.257-4.181-6.398c-0.034-4.428-0.014-8.855-0.016-13.283
		c0-0.348,0-0.693,0-1.137c-1.828,0-3.573,0-5.463,0c0-1.338-0.025-2.586,0.033-3.828c0.007-0.146,0.461-0.381,0.714-0.389
		c1.289-0.041,2.58-0.041,3.87-0.014c0.63,0.012,0.882-0.193,0.86-0.863c-0.047-1.377-0.026-2.756,0-4.134
		c0.007-0.249,0.13-0.657,0.295-0.716c1.509-0.531,3.037-1.002,4.69-1.533c0.035,0.47,0.081,0.805,0.082,1.139
		c0.008,1.73,0.025,3.461-0.006,5.191c-0.014,0.678,0.216,0.936,0.908,0.92c1.584-0.035,3.168,0.006,4.752-0.018
		c0.592-0.01,0.845,0.175,0.82,0.804C163.843,26.256,163.872,27.342,163.872,28.58z"/>
	<path fill="#77797D" d="M93.209,43.895c2.066,1.211,4.133,2.027,6.43,1.836c0.845-0.069,1.748-0.332,2.473-0.762
		c1.629-0.967,1.807-3.133,0.322-4.305c-1.044-0.825-2.291-1.395-3.458-2.061c-1.067-0.609-2.176-1.148-3.218-1.797
		c-4.786-2.977-3.267-9.826,0.688-11.84c2.576-1.309,5.273-1.441,8.042-0.955c1.057,0.186,2.092,0.488,3.188,0.748
		c-0.162,1.569-0.313,3.028-0.447,4.328c-1.676-0.377-3.218-0.837-4.792-1.031c-0.856-0.105-1.825,0.098-2.643,0.417
		c-1.833,0.718-2.23,2.794-0.776,4.134c0.759,0.699,1.732,1.182,2.651,1.684c1.284,0.701,2.647,1.258,3.904,2
		c1.753,1.035,2.884,2.58,3.152,4.633c0.561,4.285-1.699,7.686-5.872,8.725c-3.035,0.756-6.04,0.461-8.976-0.612
		c-0.664-0.244-0.986-0.578-0.903-1.349C93.109,46.471,93.133,45.24,93.209,43.895z"/>
	<path fill="#77797D" d="M61.641,12.863c1.73,0,3.328,0,5.054,0c0,0.391,0,0.732,0,1.072c0,11.436,0,22.871,0,34.305
		c0,1.186-0.002,1.188-1.21,1.189c-1.056,0-2.111-0.013-3.167,0c-0.474,0.006-0.722-0.164-0.677-0.669c0.015-0.174,0-0.352,0-0.526
		c0-11.435,0-22.869,0-34.306C61.641,13.609,61.641,13.291,61.641,12.863z"/>
	<path fill="#77797D" d="M5.046,27.127c0.777-0.721,1.393-1.381,2.097-1.925c2.037-1.577,4.347-1.728,6.758-1.147
		c0.204,0.049,0.512,0.287,0.517,0.445c0.041,1.392,0.023,2.787,0.023,4.082c-1.191-0.105-2.269-0.352-3.317-0.261
		c-2.102,0.183-3.513,1.466-4.473,3.278c-1.085,2.049-1.36,4.285-1.386,6.551c-0.041,3.459-0.028,6.918,0.003,10.377
		c0.006,0.69-0.205,0.938-0.896,0.912c-1.112-0.041-2.228-0.031-3.341-0.002c-0.584,0.014-0.823-0.158-0.821-0.797
		c0.019-7.826,0.017-15.655,0.003-23.481c-0.001-0.556,0.149-0.802,0.736-0.786c1.114,0.027,2.228,0.023,3.342,0
		c0.549-0.012,0.81,0.154,0.766,0.753C5.011,25.754,5.046,26.386,5.046,27.127z"/>
</g>
</svg>
