<?xml version="1.0" encoding="utf-8"?>
<!-- Generator: Adobe Illustrator 16.0.0, SVG Export Plug-In . SVG Version: 6.00 Build 0)  -->
<!DOCTYPE svg PUBLIC "-//W3C//DTD SVG 1.1//EN" "http://www.w3.org/Graphics/SVG/1.1/DTD/svg11.dtd">
<svg version="1.1" id="Layer_1" xmlns="http://www.w3.org/2000/svg" xmlns:xlink="http://www.w3.org/1999/xlink" x="0px" y="0px"
	 width="228px" height="258.5px" viewBox="0 0 228 258.5" enable-background="new 0 0 228 258.5" xml:space="preserve">
<g>
	<g>
		<path fill="#0680AE" d="M137.024,224.111H90.39c-4.676,0-8.481-3.805-8.481-8.482c0-4.676,3.805-8.48,8.481-8.48h46.634
			c4.679,0,8.484,3.805,8.484,8.48C145.508,220.307,141.703,224.111,137.024,224.111z M90.39,211.031
			c-2.535,0-4.598,2.063-4.598,4.598s2.063,4.6,4.598,4.6h46.634c2.537,0,4.601-2.064,4.601-4.6s-2.063-4.598-4.601-4.598H90.39z"/>
		<path fill="#0680AE" d="M113.722,257.32c-6.512,0-12.027-4.352-13.636-10.545c-8.373-1.217-14.729-8.396-14.729-16.963v-1.941
			h56.702v1.941c0,8.557-6.343,15.734-14.695,16.959C125.756,252.967,120.24,257.32,113.722,257.32z M89.382,231.756
			c0.908,6.117,6.041,10.924,12.428,11.293l1.573,0.092l0.235,1.557c0.765,5.063,5.014,8.738,10.103,8.738
			c5.094,0,9.343-3.674,10.107-8.736l0.234-1.557l1.57-0.094c6.371-0.375,11.491-5.182,12.397-11.293H89.382z"/>
		<path fill="#0680AE" d="M144.364,203.258H82.708v-22.337c-5.93-10.021-12.851-20.121-20.037-29.243
			c-9.093-11.533-13.898-25.385-13.898-40.054c0-35.808,29.133-64.94,64.942-64.94c35.804,0,64.934,29.133,64.934,64.94
			c0,14.679-4.809,28.53-13.904,40.065c-6.479,8.221-14.075,19.327-20.382,29.793V203.258z M86.592,199.375h53.888v-18.968
			l0.277-0.461c6.439-10.736,14.267-22.197,20.938-30.661c8.551-10.843,13.071-23.864,13.071-37.661
			c0-33.667-27.388-61.057-61.05-61.057c-33.668,0-61.059,27.39-61.059,61.057c0,13.788,4.518,26.808,13.065,37.651
			c7.401,9.391,14.525,19.811,20.603,30.127l0.268,0.459V199.375z"/>
	</g>
	
		<rect x="63.659" y="163.989" transform="matrix(0.214 0.9768 -0.9768 0.214 239.4775 34.805)" fill="#0680AE" width="68.906" height="4.438"/>
	
		<rect x="127.151" y="131.771" transform="matrix(0.9777 0.2098 -0.2098 0.9777 37.8932 -23.3671)" fill="#0680AE" width="3.882" height="70.326"/>
	<polygon fill="#0680AE" points="110.244,155.685 106.36,140.794 95.805,147.857 94.263,145.551 108.059,136.319 110.833,146.953 
		117.956,129.62 123.829,146.374 134.223,141.621 135.376,144.142 122.215,150.16 117.75,137.417 	"/>
	<path fill="#E32960" d="M116.14,33.143c-0.92,0-1.665-0.745-1.665-1.665V2.629c0-0.92,0.745-1.665,1.665-1.665
		c0.919,0,1.664,0.745,1.664,1.665v28.849C117.803,32.398,117.059,33.143,116.14,33.143z"/>
	<path fill="#E32960" d="M160.349,43.946c-0.295,0-0.592-0.079-0.861-0.241c-0.786-0.478-1.037-1.501-0.561-2.286l14.952-24.673
		c0.478-0.786,1.499-1.039,2.286-0.561c0.785,0.476,1.037,1.5,0.561,2.286l-14.952,24.673
		C161.46,43.66,160.912,43.946,160.349,43.946z"/>
	<path fill="#E32960" d="M187.818,78.77c-0.6,0-1.18-0.326-1.477-0.895c-0.425-0.814-0.11-1.82,0.705-2.246l25.576-13.351
		c0.814-0.425,1.82-0.108,2.245,0.705c0.425,0.816,0.11,1.821-0.705,2.246l-25.575,13.351
		C188.341,78.709,188.078,78.77,187.818,78.77z"/>
	<path fill="#E32960" d="M224.925,119.881c-0.037,0-0.072,0-0.108-0.004l-28.79-1.839c-0.918-0.058-1.614-0.85-1.556-1.766
		c0.06-0.917,0.847-1.607,1.769-1.556l28.79,1.839c0.917,0.058,1.612,0.849,1.555,1.767
		C226.529,119.204,225.796,119.881,224.925,119.881z"/>
	<path fill="#E32960" d="M206.556,177.983c-0.328,0-0.66-0.098-0.95-0.301l-23.669-16.494c-0.754-0.525-0.939-1.563-0.414-2.316
		s1.563-0.941,2.316-0.414l23.67,16.494c0.754,0.525,0.939,1.563,0.414,2.316C207.599,177.733,207.083,177.983,206.556,177.983z"/>
	<path fill="#E32960" d="M67.734,43.946c-0.562,0-1.112-0.286-1.425-0.802L51.356,18.471c-0.477-0.786-0.225-1.811,0.561-2.286
		c0.787-0.479,1.811-0.226,2.286,0.561l14.953,24.673c0.477,0.785,0.226,1.809-0.561,2.286
		C68.326,43.867,68.028,43.946,67.734,43.946z"/>
	<path fill="#E32960" d="M40.265,78.77c-0.26,0-0.523-0.061-0.769-0.189L13.92,65.23c-0.813-0.425-1.13-1.43-0.705-2.246
		c0.426-0.813,1.431-1.129,2.246-0.705l25.576,13.351c0.814,0.426,1.13,1.432,0.705,2.246C41.444,78.444,40.865,78.77,40.265,78.77z
		"/>
	<path fill="#E32960" d="M3.158,119.881c-0.872,0-1.604-0.678-1.66-1.559c-0.06-0.918,0.637-1.709,1.554-1.767l28.792-1.839
		c0.922-0.057,1.709,0.638,1.768,1.556c0.059,0.916-0.638,1.708-1.555,1.766l-28.792,1.839
		C3.229,119.881,3.194,119.881,3.158,119.881z"/>
	<path fill="#E32960" d="M21.526,177.983c-0.526,0-1.043-0.25-1.367-0.715c-0.525-0.754-0.34-1.791,0.414-2.316l23.67-16.494
		c0.753-0.527,1.792-0.342,2.317,0.414c0.526,0.754,0.34,1.791-0.414,2.316l-23.67,16.494
		C22.186,177.886,21.855,177.983,21.526,177.983z"/>
</g>
</svg>
