<?xml version="1.0" encoding="utf-8"?>
<!-- Generator: Adobe Illustrator 24.0.1, SVG Export Plug-In . SVG Version: 6.00 Build 0)  -->
<!DOCTYPE svg PUBLIC "-//W3C//DTD SVG 1.1//EN" "http://www.w3.org/Graphics/SVG/1.1/DTD/svg11.dtd" [
	<!ENTITY ns_extend "http://ns.adobe.com/Extensibility/1.0/">
	<!ENTITY ns_ai "http://ns.adobe.com/AdobeIllustrator/10.0/">
	<!ENTITY ns_graphs "http://ns.adobe.com/Graphs/1.0/">
	<!ENTITY ns_vars "http://ns.adobe.com/Variables/1.0/">
	<!ENTITY ns_imrep "http://ns.adobe.com/ImageReplacement/1.0/">
	<!ENTITY ns_sfw "http://ns.adobe.com/SaveForWeb/1.0/">
	<!ENTITY ns_custom "http://ns.adobe.com/GenericCustomNamespace/1.0/">
	<!ENTITY ns_adobe_xpath "http://ns.adobe.com/XPath/1.0/">
]>
<svg version="1.1" id="Layer_1" xmlns:x="&ns_extend;" xmlns:i="&ns_ai;" xmlns:graph="&ns_graphs;"
	 xmlns="http://www.w3.org/2000/svg" xmlns:xlink="http://www.w3.org/1999/xlink" x="0px" y="0px" width="45.9px" height="45.9px"
	 viewBox="0 0 45.9 45.9" style="enable-background:new 0 0 45.9 45.9;" xml:space="preserve">
<style type="text/css">
	.st0{fill:#FDDA2E;stroke:#000000;stroke-width:1.5;stroke-linecap:round;stroke-linejoin:round;stroke-miterlimit:22.9256;}
	.st1{fill:none;stroke:#000000;stroke-width:1.5;stroke-linecap:round;stroke-linejoin:round;stroke-miterlimit:22.9256;}
</style>
<metadata>
	<sfw  xmlns="&ns_sfw;">
		<slices></slices>
		<sliceSourceBounds  bottomLeftOrigin="true" height="45.9" width="45.9" x="660" y="-407.5"></sliceSourceBounds>
	</sfw>
</metadata>
<g>
	<path class="st0" d="M42.3,4.5l-0.8-0.8c-3.9-3.9-10.2-3.9-14,0l-9.9,9.9c-3.9,3.9-3.9,10.2,0,14l0.8,0.8c0.9,0.9,1.9,1.5,2.9,2
		l2.8-2.8c0.7-0.7,1-1.8,0.9-2.7c-0.6-0.1-1.2-0.4-1.6-0.9l-1.4-1.4c-1.2-1.2-1.2-3.2,0-4.4L32.2,8c1.2-1.2,3.2-1.2,4.4,0L38,9.4
		c1.2,1.2,1.2,3.2,0,4.4l-7.5,7.5c1.3,2.8,1.1,6.1-0.3,8.8c0.8-0.4,1.6-1,2.3-1.7l9.9-9.9C46.1,14.6,46.1,8.3,42.3,4.5L42.3,4.5z"/>
	<path class="st1" d="M3.6,41.5l0.8,0.8c3.9,3.9,10.2,3.9,14,0l9.9-9.9c3.9-3.9,3.9-10.2,0-14l-0.8-0.8c-0.9-0.9-1.9-1.5-2.9-2
		l-2.8,2.8c-0.7,0.7-1,1.8-0.9,2.7c0.6,0.1,1.2,0.4,1.6,0.9l1.4,1.4c1.2,1.2,1.2,3.2,0,4.4L13.8,38c-1.2,1.2-3.2,1.2-4.4,0L8,36.5
		c-1.2-1.2-1.2-3.2,0-4.4l7.5-7.5c-1.3-2.8-1.1-6.1,0.3-8.8c-0.8,0.4-1.6,1-2.3,1.7l-9.9,9.9C-0.2,31.3-0.2,37.6,3.6,41.5L3.6,41.5z
		"/>
</g>
</svg>
