<?xml version="1.0" encoding="utf-8"?>
<!-- Generator: Adobe Illustrator 24.0.1, SVG Export Plug-In . SVG Version: 6.00 Build 0)  -->
<!DOCTYPE svg PUBLIC "-//W3C//DTD SVG 1.1//EN" "http://www.w3.org/Graphics/SVG/1.1/DTD/svg11.dtd" [
	<!ENTITY ns_extend "http://ns.adobe.com/Extensibility/1.0/">
	<!ENTITY ns_ai "http://ns.adobe.com/AdobeIllustrator/10.0/">
	<!ENTITY ns_graphs "http://ns.adobe.com/Graphs/1.0/">
	<!ENTITY ns_vars "http://ns.adobe.com/Variables/1.0/">
	<!ENTITY ns_imrep "http://ns.adobe.com/ImageReplacement/1.0/">
	<!ENTITY ns_sfw "http://ns.adobe.com/SaveForWeb/1.0/">
	<!ENTITY ns_custom "http://ns.adobe.com/GenericCustomNamespace/1.0/">
	<!ENTITY ns_adobe_xpath "http://ns.adobe.com/XPath/1.0/">
]>
<svg version="1.1" id="Layer_1" xmlns:x="&ns_extend;" xmlns:i="&ns_ai;" xmlns:graph="&ns_graphs;"
	 xmlns="http://www.w3.org/2000/svg" xmlns:xlink="http://www.w3.org/1999/xlink" x="0px" y="0px" width="37.6px" height="47.6px"
	 viewBox="0 0 37.6 47.6" style="enable-background:new 0 0 37.6 47.6;" xml:space="preserve">
<style type="text/css">
	.st0{fill:none;stroke:#000000;stroke-width:1.44;stroke-linecap:round;stroke-linejoin:round;stroke-miterlimit:22.9256;}
	.st1{fill:#FFDA30;stroke:#000000;stroke-width:1.44;stroke-linecap:round;stroke-linejoin:round;stroke-miterlimit:22.9256;}
</style>
<metadata>
	<sfw  xmlns="&ns_sfw;">
		<slices></slices>
		<sliceSourceBounds  bottomLeftOrigin="true" height="16390.8" width="1420" x="-27" y="-8579.9"></sliceSourceBounds>
	</sfw>
</metadata>
<g>
</g>
<g>
	<path class="st0" d="M18.8,0.7c5,0,9.5,2,12.8,5.3c3.3,3.3,5.3,7.8,5.3,12.8c0,2.9-0.7,5.7-1.9,8.1c-2.3,4.7-11.8,15.6-16.2,20
		C14.4,42.5,5,31.5,2.6,26.9c-1.2-2.4-1.9-5.2-1.9-8.1C0.7,8.8,8.8,0.7,18.8,0.7L18.8,0.7z"/>
	<polygon class="st1" points="18.8,6.5 22.6,13.7 30.7,15.1 25,21 26.1,29.1 18.8,25.5 11.5,29.1 12.6,21 6.9,15.1 15,13.7 
		18.8,6.5 	"/>
</g>
</svg>
