<?xml version="1.0" encoding="utf-8"?>
<!-- Generator: Adobe Illustrator 24.0.1, SVG Export Plug-In . SVG Version: 6.00 Build 0)  -->
<!DOCTYPE svg PUBLIC "-//W3C//DTD SVG 1.1//EN" "http://www.w3.org/Graphics/SVG/1.1/DTD/svg11.dtd" [
	<!ENTITY ns_extend "http://ns.adobe.com/Extensibility/1.0/">
	<!ENTITY ns_ai "http://ns.adobe.com/AdobeIllustrator/10.0/">
	<!ENTITY ns_graphs "http://ns.adobe.com/Graphs/1.0/">
	<!ENTITY ns_vars "http://ns.adobe.com/Variables/1.0/">
	<!ENTITY ns_imrep "http://ns.adobe.com/ImageReplacement/1.0/">
	<!ENTITY ns_sfw "http://ns.adobe.com/SaveForWeb/1.0/">
	<!ENTITY ns_custom "http://ns.adobe.com/GenericCustomNamespace/1.0/">
	<!ENTITY ns_adobe_xpath "http://ns.adobe.com/XPath/1.0/">
]>
<svg version="1.1" id="Layer_1" xmlns:x="&ns_extend;" xmlns:i="&ns_ai;" xmlns:graph="&ns_graphs;"
	 xmlns="http://www.w3.org/2000/svg" xmlns:xlink="http://www.w3.org/1999/xlink" x="0px" y="0px" width="51px" height="45.4px"
	 viewBox="0 0 51 45.4" style="enable-background:new 0 0 51 45.4;" xml:space="preserve">
<style type="text/css">
	.st0{fill:none;stroke:#000000;stroke-width:1.44;stroke-linecap:round;stroke-linejoin:round;stroke-miterlimit:22.9256;}
	.st1{fill:#FFDA30;stroke:#000000;stroke-width:1.44;stroke-miterlimit:22.9256;}
</style>
<metadata>
	<sfw  xmlns="&ns_sfw;">
		<slices></slices>
		<sliceSourceBounds  bottomLeftOrigin="true" height="16390.8" width="1420" x="-27" y="-8579.9"></sliceSourceBounds>
	</sfw>
</metadata>
<g>
</g>
<g>
	<path class="st0" d="M50.3,0.7H0.7V36c27.8,0,35.4,0,49.6,0V0.7L50.3,0.7z"/>
	<path class="st1" d="M9.5,19.9c-1.8,0-3.3,1.5-3.3,3.3c0,1.8,1.5,3.3,3.3,3.3c1.8,0,3.3-1.5,3.3-3.3C12.7,21.4,11.3,19.9,9.5,19.9
		L9.5,19.9z M20.2,9c-1.8,0-3.3,1.5-3.3,3.3c0,1.8,1.5,3.3,3.3,3.3c1.8,0,3.3-1.5,3.3-3.3C23.4,10.5,22,9,20.2,9L20.2,9z M30.9,18.7
		c-1.8,0-3.3,1.5-3.3,3.3c0,1.8,1.5,3.3,3.3,3.3c1.8,0,3.3-1.5,3.3-3.3C34.1,20.2,32.7,18.7,30.9,18.7L30.9,18.7z M41.5,13.8
		c-1.8,0-3.3,1.5-3.3,3.3c0,1.8,1.5,3.3,3.3,3.3c1.8,0,3.3-1.5,3.3-3.3C44.8,15.3,43.3,13.8,41.5,13.8L41.5,13.8z"/>
	<line class="st0" x1="12.4" y1="20.2" x2="17.4" y2="15.2"/>
	<line class="st0" x1="23.1" y1="15" x2="28.2" y2="19.6"/>
	<line class="st0" x1="34.1" y1="20.6" x2="37.9" y2="18.8"/>
	<line class="st0" x1="13.7" y1="44.7" x2="37.4" y2="44.7"/>
	<line class="st0" x1="19.5" y1="43.5" x2="19.5" y2="36.5"/>
	<line class="st0" x1="31.5" y1="43.5" x2="31.5" y2="36.5"/>
</g>
</svg>
