<?xml version="1.0" encoding="utf-8"?>
<!-- Generator: Adobe Illustrator 22.0.1, SVG Export Plug-In . SVG Version: 6.00 Build 0)  -->
<svg version="1.1" id="Layer_1" xmlns="http://www.w3.org/2000/svg" xmlns:xlink="http://www.w3.org/1999/xlink" x="0px" y="0px"
	 width="54.3px" height="65.8px" viewBox="0 0 54.3 65.8" style="enable-background:new 0 0 54.3 65.8;" xml:space="preserve">
<g>
	<path d="M52.1,61.8c0,0.3-0.1,0.5-0.1,0.7c-0.1,0.3-0.4,0.6-0.7,0.8s-0.6,0.3-1,0.3H4c-0.3,0-0.5-0.1-0.7-0.1
		c-0.3-0.1-0.6-0.4-0.8-0.7c-0.2-0.3-0.3-0.6-0.3-1V4c0-0.3,0.1-0.5,0.1-0.7C2.5,3,2.7,2.7,3,2.5s0.6-0.3,1-0.3h46.3
		c0.3,0,0.5,0.1,0.7,0.1c0.3,0.1,0.6,0.4,0.8,0.7s0.3,0.6,0.3,1V61.8L52.1,61.8z M53.9,61.8V4c0-0.5-0.1-1-0.3-1.4
		c-0.3-0.7-0.7-1.2-1.3-1.6s-1.3-0.6-2-0.6H4c-0.5,0-1,0.1-1.4,0.3C1.9,0.9,1.4,1.4,1,2S0.4,3.3,0.4,4v57.8c0,0.5,0.1,1,0.3,1.4
		C1,63.9,1.4,64.4,2,64.8s1.3,0.6,2,0.6h46.3c0.5,0,1-0.1,1.4-0.3c0.7-0.3,1.2-0.7,1.6-1.3C53.7,63.3,53.9,62.6,53.9,61.8L53.9,61.8
		z"/>
	<polygon points="41.1,37.4 41.1,37.4 41.1,37.4 	"/>
	<path d="M29.3,58.9c-0.1,0.1-0.2,0.2-0.3,0.3c-0.1,0.1-0.3,0.1-0.4,0.1s-0.2,0-0.3,0c-0.1,0-0.2-0.1-0.3-0.1l0,0
		c-0.1-0.1-0.2-0.2-0.3-0.3c-0.1-0.1-0.1-0.3-0.1-0.4c0-0.1,0-0.2,0-0.3s0.1-0.2,0.1-0.3l0,0l14.6-19.3l0,0c0.1-0.1,0.2-0.2,0.3-0.3
		s0.3-0.1,0.4-0.1c0,0,0,0,0.1,0l0.8,0.5c0.1,0.1,0.1,0.2,0.1,0.4c0,0.1,0,0.2,0,0.3s-0.1,0.2-0.1,0.3l0,0L43,40.9l0,0l0,0
		L29.3,58.9L29.3,58.9z M48.5,41.8c-0.4-0.3-1-0.2-1.3,0.2l-0.5,0.6L45,41.2l0.4-0.5l0,0c0.2-0.2,0.3-0.5,0.4-0.8
		c0.1-0.3,0.1-0.6,0.1-0.9c0-0.5-0.2-1.1-0.5-1.5c0,0,0,0,0-0.1l1.3-1.7c0.3-0.4,0.2-1-0.2-1.3s-1-0.2-1.3,0.2L44,36.5
		c-0.1,0-0.1,0-0.2-0.1c-0.2,0-0.4-0.1-0.6-0.1c-0.4,0-0.8,0.1-1.2,0.3s-0.7,0.5-1,0.8L26.4,56.7l0,0c-0.2,0.2-0.3,0.5-0.4,0.8
		s-0.1,0.6-0.1,0.9c0,0.4,0.1,0.8,0.3,1.2c0.2,0.4,0.5,0.7,0.8,1c0.2,0.2,0.5,0.3,0.8,0.4c0.3,0.1,0.6,0.1,0.9,0.1
		c0.4,0,0.8-0.1,1.2-0.3c0.4-0.2,0.7-0.5,1-0.8L44,42.7l1.7,1.3l-6.9,9c-0.3,0.4-0.2,1,0.2,1.3s1,0.2,1.3-0.2L48.7,43
		C49,42.6,48.9,42.1,48.5,41.8L48.5,41.8z"/>
	<polygon points="27,60.6 27,60.6 27,60.6 	"/>
	<path d="M17.1,9.8h20.4c0.5,0,0.9-0.4,0.9-0.9C38.4,8.4,38,8,37.5,8H17.1c-0.5,0-0.9,0.4-0.9,0.9S16.6,9.8,17.1,9.8L17.1,9.8z"/>
	<path d="M10.9,18.8h25c0.5,0,0.9-0.4,0.9-0.9S36.4,17,35.9,17h-25c-0.5,0-0.9,0.4-0.9,0.9C9.9,18.4,10.4,18.8,10.9,18.8L10.9,18.8z
		"/>
	<path d="M10.8,24.6h25c0.5,0,0.9-0.4,0.9-0.9s-0.4-0.9-0.9-0.9h-25c-0.5,0-0.9,0.4-0.9,0.9C9.8,24.2,10.3,24.6,10.8,24.6L10.8,24.6
		z"/>
	<path d="M10.7,30.4h25c0.5,0,0.9-0.4,0.9-0.9s-0.4-0.9-0.9-0.9h-25c-0.5,0-0.9,0.4-0.9,0.9C9.8,30,10.2,30.4,10.7,30.4L10.7,30.4z"
		/>
	<path d="M10.6,36.2h25c0.5,0,0.9-0.4,0.9-0.9s-0.4-0.9-0.9-0.9h-25c-0.5,0-0.9,0.4-0.9,0.9C9.7,35.8,10.1,36.2,10.6,36.2L10.6,36.2
		z"/>
	<path d="M23.3,60c-0.4,0-0.7,0.3-0.7,0.7s0.3,0.7,0.7,0.7s0.7-0.3,0.7-0.7S23.7,60,23.3,60L23.3,60z"/>
	<polygon points="21,48 21,48 21,48 	"/>
	<path d="M22.6,51.3c-0.2,0.6-0.5,1.3-0.9,2.1c-0.3,0.5-0.7,1.1-1.2,1.6c0,0.1-0.1,0.1-0.1,0.1c0-0.3-0.1-0.7-0.1-1.1
		c0-0.5,0-1,0.1-1.5c0-0.4,0.1-0.7,0.2-1.1c0.1-0.2,0.1-0.5,0.2-0.7c0.1-0.3,0.3-0.5,0.4-0.7c0.1-0.1,0.1-0.1,0.2-0.2
		c0.1,0,0.1-0.1,0.2-0.1l0,0c0.1,0,0.2,0,0.3,0c0.1,0,0.2,0,0.3,0c0.1,0,0.3,0.1,0.4,0.2l0.1,0.1c0,0,0,0.1,0.1,0.1v0.1
		c0,0.1,0,0.1,0,0.2C22.7,50.6,22.7,50.9,22.6,51.3L22.6,51.3z M18.2,56.9c-0.4,0.2-0.8,0.4-1.2,0.6c-0.4,0.1-0.8,0.2-1.1,0.2
		c-0.2,0-0.4,0-0.5-0.1c-0.3-0.1-0.6-0.2-0.8-0.3c-0.1-0.1-0.2-0.1-0.3-0.2c1.2-1.2,2.3-2.3,3.1-3.4c0.5-0.7,1-1.4,1.3-2.1
		c0,0.1,0,0.2-0.1,0.3c-0.1,0.7-0.1,1.4-0.1,2c0,0.5,0,1.1,0.1,1.6c0,0.4,0.1,0.7,0.2,1C18.5,56.6,18.3,56.8,18.2,56.9L18.2,56.9z
		 M11.6,53.4c-0.4-1-0.6-2.2-0.6-3.2c0-0.6,0.1-1.1,0.2-1.6c0.1-0.5,0.3-0.9,0.6-1.3c0.1-0.2,0.3-0.4,0.5-0.5
		c0.3-0.3,0.7-0.6,1.1-0.7c0.4-0.2,0.9-0.3,1.4-0.3c0.1,0,0.2,0,0.2,0c0.3,0,0.6,0.1,0.9,0.2c0.4,0.2,0.8,0.4,1.1,0.7
		c0.2,0.1,0.3,0.3,0.4,0.4c0.1,0.1,0.2,0.3,0.3,0.4c0.1,0.1,0.1,0.2,0.1,0.4c0,0.1,0,0.3,0,0.5s0,0.5-0.1,0.8
		c-0.1,0.5-0.4,1.2-0.8,1.9c-0.6,1-1.5,2.2-2.6,3.4c-0.4,0.5-0.9,0.9-1.4,1.4C12.3,55.1,11.9,54.3,11.6,53.4L11.6,53.4z M24.2,49.2
		L24.2,49.2c-0.1-0.2-0.3-0.4-0.5-0.6c-0.3-0.2-0.6-0.4-0.9-0.5s-0.7-0.2-1-0.2s-0.6,0-0.8,0.1c-0.3,0.1-0.5,0.2-0.8,0.4
		c-0.2,0.2-0.4,0.3-0.5,0.5c-0.1,0.1-0.1,0.2-0.2,0.2c0.1-0.3,0.1-0.6,0.1-0.9c0-0.3,0-0.6-0.1-0.8c-0.1-0.3-0.1-0.5-0.3-0.8
		c-0.2-0.3-0.4-0.7-0.7-1c-0.4-0.4-0.9-0.8-1.5-1.2c-0.6-0.3-1.3-0.5-2-0.6c-0.1,0-0.3,0-0.4,0c-0.5,0-1,0.1-1.4,0.2
		c-0.7,0.2-1.3,0.5-1.8,0.9s-0.9,0.8-1.2,1.3c-0.4,0.6-0.6,1.2-0.8,1.8c-0.2,0.7-0.2,1.4-0.2,2.1c0,1,0.1,1.9,0.4,2.9
		c0.2,0.7,0.5,1.4,0.8,2.1c0.3,0.6,0.7,1.2,1.1,1.8c-0.4,0.4-0.9,0.7-1.3,1.1c-0.4,0.3-0.5,0.9-0.2,1.3c0.3,0.4,0.9,0.5,1.3,0.2l0,0
		c0.5-0.4,1-0.8,1.5-1.2c0.2,0.2,0.5,0.3,0.7,0.5c0.5,0.3,1,0.4,1.5,0.5c0.3,0.1,0.6,0.1,0.9,0.1c0.6,0,1.2-0.1,1.7-0.3
		c0.6-0.2,1.1-0.5,1.6-0.8c0.3,0.7,0.5,1.2,0.8,1.6c0.3,0.4,0.8,0.6,1.2,0.3c0.4-0.3,0.6-0.8,0.3-1.2c-0.3-0.4-0.6-1.1-0.8-1.8
		c0.4-0.4,0.8-0.8,1.2-1.2c0.8-0.9,1.4-1.9,1.8-2.8c0.2-0.5,0.4-0.9,0.5-1.4s0.2-0.9,0.2-1.3c0-0.2,0-0.4-0.1-0.6
		C24.4,49.6,24.3,49.4,24.2,49.2L24.2,49.2z"/>
</g>
</svg>
