<?xml version="1.0" encoding="utf-8"?>
<!-- Generator: Adobe Illustrator 22.0.1, SVG Export Plug-In . SVG Version: 6.00 Build 0)  -->
<svg version="1.1" id="Layer_1" xmlns="http://www.w3.org/2000/svg" xmlns:xlink="http://www.w3.org/1999/xlink" x="0px" y="0px"
	 width="47.5px" height="60.5px" viewBox="0 0 47.5 60.5" style="enable-background:new 0 0 47.5 60.5;" xml:space="preserve">
<style type="text/css">
	.st0{fill:none;stroke:#000000;stroke-linecap:round;stroke-linejoin:round;stroke-miterlimit:22.9256;}
</style>
<g>
	<polyline class="st0" points="4.6,5.1 0.5,5.1 0.5,60 47,60 47,5.1 38.4,5.1 	"/>
	<rect x="9.3" y="1.9" class="st0" width="28.9" height="6.1"/>
	<line class="st0" x1="23.8" y1="0" x2="23.8" y2="1.9"/>
	<g>
		<line class="st0" x1="13.7" y1="8" x2="13.7" y2="10.7"/>
		<line class="st0" x1="20.4" y1="8" x2="20.4" y2="10.7"/>
		<line class="st0" x1="27.2" y1="8" x2="27.2" y2="10.7"/>
		<line class="st0" x1="33.9" y1="8" x2="33.9" y2="10.7"/>
	</g>
	<polyline class="st0" points="5.7,10.7 5.7,54.9 41.8,54.9 41.8,10.7 	"/>
	<g>
		<line class="st0" x1="12.2" y1="19.4" x2="16.2" y2="23.4"/>
		<line class="st0" x1="16.2" y1="19.4" x2="12.2" y2="23.4"/>
	</g>
	<g>
		<line class="st0" x1="31.5" y1="42.2" x2="35.4" y2="46.2"/>
		<line class="st0" x1="35.4" y1="42.2" x2="31.5" y2="46.2"/>
	</g>
	<line class="st0" x1="12.2" y1="49.3" x2="34.2" y2="16.8"/>
	<polyline class="st0" points="30.5,17.1 34.3,16.7 35,20.2 	"/>
</g>
</svg>
