<?xml version="1.0" encoding="utf-8"?>
<!-- Generator: Adobe Illustrator 23.1.0, SVG Export Plug-In . SVG Version: 6.00 Build 0)  -->
<svg version="1.1" id="Layer_1" xmlns="http://www.w3.org/2000/svg" xmlns:xlink="http://www.w3.org/1999/xlink" x="0px" y="0px"
	 width="56.05px" height="51px" viewBox="0 0 56.05 51" style="enable-background:new 0 0 56.05 51;" xml:space="preserve">
<style type="text/css">
	.st0{fill:none;stroke:#000000;stroke-linecap:round;stroke-miterlimit:10;}
	.st1{fill:none;stroke:#000000;stroke-linecap:round;stroke-linejoin:round;stroke-miterlimit:22.9256;}
</style>
<g>
	<path class="st0" d="M19.93,46.01C12.12,42.03,6.77,33.92,6.77,24.56"/>
	<path class="st0" d="M52.76,14.64c1.37,3.03,2.14,6.39,2.14,9.92c0,9.28-5.25,17.33-12.95,21.35"/>
	<path class="st0" d="M15.36,6.13c4.18-3.52,9.58-5.63,15.47-5.63c1.97,0,3.88,0.24,5.71,0.68"/>
	<path class="st1" d="M22.95,40.13h15.76V50.5H22.95L22.95,40.13L22.95,40.13z M38.71,40.13l-7.88,6.47l-7.88-6.47"/>
	<path class="st1" d="M53.58,11.62h-8.41l-3.67,2.96l-0.01-2.96c-1.08,0-1.97-0.88-1.97-1.97V3.15c0-1.08,0.88-1.97,1.97-1.97h12.09
		c1.08,0,1.97,0.88,1.97,1.97v6.51C55.55,10.73,54.66,11.62,53.58,11.62z"/>
	<g>
		<circle class="st1" cx="6.15" cy="9.69" r="3.18"/>
		<path class="st1" d="M0.5,20.45c0-3.12,2.53-5.65,5.65-5.65s5.65,2.53,5.65,5.65"/>
		<circle class="st1" cx="13.93" cy="11.92" r="2.52"/>
		<path class="st1" d="M10.95,17.1c0.79-0.7,1.83-1.13,2.98-1.13c2.47,0,4.48,2.01,4.48,4.48"/>
	</g>
	<g>
		<path class="st1" d="M30.58,23.41c-0.39,0.14-0.6,0.59-0.46,0.97c0.14,0.39,0.59,0.6,0.97,0.46c0.39-0.14,0.6-0.59,0.46-0.97
			C31.41,23.48,30.97,23.27,30.58,23.41L30.58,23.41z"/>
		<path class="st1" d="M26.18,24.99c-0.39,0.14-0.6,0.59-0.46,0.97c0.14,0.39,0.59,0.6,0.97,0.46c0.39-0.14,0.6-0.59,0.46-0.97
			C26.96,25.09,26.56,24.85,26.18,24.99L26.18,24.99z"/>
		<path class="st1" d="M33.58,14.81l0.17-0.06c0.55-0.2,1.15,0.08,1.35,0.63l4.71,13.1c0.2,0.55-0.08,1.15-0.63,1.35L39,29.89
			c-0.55,0.2-5.86-3.67-9.6-2.33l-4.62,1.66c-0.77,0.28-1.59-0.11-1.87-0.88l-0.75-2.09c-0.28-0.77,0.11-1.59,0.88-1.87l4.62-1.66
			C31.4,21.37,33.03,15.01,33.58,14.81L33.58,14.81z"/>
		<path class="st1" d="M36.58,19.51c1.16-0.05,2.27,0.61,2.71,1.82c0.42,1.16,0,2.42-0.93,3.13"/>
		<line class="st1" x1="27.77" y1="22.68" x2="29.53" y2="27.58"/>
		<path class="st1" d="M28.43,27.97c0.54,0.99,0.68,2.24,1.7,2.99l1.73,1.37c0.43,0.34,0.27,1.27-0.22,1.45l-1.65,0.59
			c-0.5,0.18-1.18-0.01-1.49-0.52l-3.15-4.77L28.43,27.97L28.43,27.97z"/>
	</g>
</g>
</svg>
