<?xml version="1.0" encoding="utf-8"?>
<!-- Generator: Adobe Illustrator 22.0.1, SVG Export Plug-In . SVG Version: 6.00 Build 0)  -->
<svg version="1.1" id="Layer_1" xmlns="http://www.w3.org/2000/svg" xmlns:xlink="http://www.w3.org/1999/xlink" x="0px" y="0px"
	 width="83.6px" height="48px" viewBox="0 0 83.6 48" style="enable-background:new 0 0 83.6 48;" xml:space="preserve">
<g>
	<path d="M41.5,0.4H29.9c-4.1,0-7.9,2.3-9.8,6H16c-0.4,0-0.7,0.3-0.7,0.7v21.5c0,0.4,0.3,0.7,0.7,0.7h3.4c0.4,0,0.7-0.3,0.7-0.7
		c0-0.4-0.3-0.7-0.7-0.7h-2.8V7.6h3.8c0.3,0,0.5-0.1,0.6-0.4c1.6-3.4,5.1-5.6,8.8-5.6h11.6c2.3,0,2.9,0.8,3.3,1.4
		c0.2,0.3,0.6,0.5,0.9,0.3c0.3-0.2,0.5-0.6,0.3-0.9C45.2,1.1,43.7,0.4,41.5,0.4z"/>
	<path d="M67.7,11.4h-4.8C62.3,7.7,59.4,2.2,48,2.2c-0.4,0-0.7,0.3-0.7,0.7s0.3,0.7,0.7,0.7c8.1,0,13,3.1,13.7,8.6
		c0,0.3,0.3,0.6,0.6,0.6H67v23.1h-5.5c-0.4,0-0.7,0.3-0.7,0.7s0.3,0.7,0.7,0.7h6.1c0.4,0,0.7-0.3,0.7-0.7V12
		C68.4,11.7,68.1,11.4,67.7,11.4z"/>
	<path d="M82.6,9.4H67.7c-0.4,0-0.7,0.3-0.7,0.7v28c0,0.4,0.3,0.7,0.7,0.7h14.9c0.4,0,0.7-0.3,0.7-0.7v-28C83.3,9.7,83,9.4,82.6,9.4
		z M82,37.4H68.4V10.7H82V37.4z"/>
	<path d="M54.5,14.9c-0.2-0.3-0.7-0.3-0.9-0.1c-0.3,0.2-0.3,0.7-0.1,0.9L65.3,29c0.7,0.8,0.4,2.3-0.7,3.3c-0.6,0.5-1.2,0.8-1.9,0.8
		c-0.6,0-1.1-0.2-1.5-0.6L48.5,18.1c-0.1-0.2-0.4-0.2-0.6-0.2c-0.2,0-0.4,0.2-0.5,0.3c-0.2,0.2-0.1,0.6,0.1,0.8l13.1,14.7
		c0.3,0.4,0.5,0.9,0.4,1.5s-0.5,1.3-1,1.8c-1.1,1-2.6,1.1-3.4,0.2L44.7,23.8c-0.1-0.2-0.3-0.2-0.5-0.2s-0.4,0.1-0.5,0.3L43.6,24
		c-0.2,0.2-0.1,0.6,0.1,0.8L56,38.7c0.3,0.4,0.5,0.9,0.4,1.5s-0.5,1.3-1,1.8c-1.1,1-2.6,1.1-3.4,0.2L43.6,33
		c-0.2-0.3-0.6-0.3-0.9-0.1c-0.3,0.2-0.3,0.6-0.1,0.9l5.8,6.6c0.4,0.4,0.4,0.9,0.4,1.3c0,0.7-0.4,1.5-1.1,2
		c-0.6,0.5-1.2,0.8-1.9,0.8c-0.6,0-1.1-0.2-1.5-0.6l-0.9-1c-0.2-0.3-0.6-0.3-0.9-0.1c-0.3,0.2-0.3,0.6-0.1,0.9l0.9,1
		c0.6,0.7,1.4,1,2.3,1c0.1,0,0.1,0,0.2,0c1,0,1.9-0.4,2.7-1.1c0.8-0.7,1.3-1.6,1.5-2.5l0.8,0.9c1.2,1.4,3.5,1.3,5.2-0.1
		c0.8-0.7,1.3-1.6,1.5-2.5c0.1-0.4,0.1-0.8,0-1.2c1.1,0.1,2.2-0.3,3.2-1.1c0.8-0.7,1.3-1.6,1.5-2.5c0.1-0.4,0.1-0.7,0-1.1
		c0.2,0,0.4,0,0.6,0c1,0,1.9-0.4,2.7-1.1c1.6-1.4,2-3.8,0.8-5.1L54.5,14.9z"/>
	<g>
		<g>
			<path d="M26.7,23.9c-0.8-0.5-1.6-0.8-2.5-0.8c-1.3,0-2.4,0.6-3.1,1.6l-3,4.2c-0.6,0.8-0.8,1.9-0.6,3c0.2,1,0.8,2,1.7,2.6
				c0.8,0.5,1.6,0.8,2.5,0.8c1.3,0,2.4-0.6,3.1-1.6l3-4.2c0.6-0.8,0.8-1.9,0.6-3C28.2,25.5,27.6,24.6,26.7,23.9z M26.8,28.7l-3,4.2
				c-0.5,0.6-1.2,1-2,1c-0.6,0-1.2-0.2-1.8-0.6c-0.6-0.4-1.1-1.1-1.2-1.8c-0.2-0.7,0-1.4,0.4-1.9l3-4.2c0.5-0.6,1.2-1,2-1
				c0.6,0,1.2,0.2,1.8,0.6c0.6,0.5,1.1,1.1,1.2,1.8C27.4,27.5,27.2,28.2,26.8,28.7z"/>
			<path d="M34.9,25.1c-0.8-0.5-1.7-0.8-2.6-0.8c-1.5,0-2.8,0.7-3.7,1.9l-4.4,6.3c-0.7,1-1,2.2-0.8,3.4s0.9,2.2,1.8,2.9
				c0.8,0.5,1.7,0.8,2.6,0.8c1.5,0,2.8-0.7,3.7-1.9l4.4-6.3c0.7-1,1-2.2,0.8-3.4C36.6,26.8,35.9,25.8,34.9,25.1z M35,30.6l-4.4,6.3
				C30,37.7,29,38.2,28,38.2c-0.7,0-1.3-0.2-1.8-0.6c-0.7-0.5-1.2-1.2-1.3-2.1c-0.1-0.8,0-1.7,0.5-2.4l4.4-6.3
				c0.6-0.8,1.6-1.3,2.6-1.3c0.7,0,1.3,0.2,1.8,0.6c0.7,0.5,1.2,1.2,1.3,2.1C35.6,29,35.4,29.9,35,30.6z"/>
			<path d="M41.6,29c-0.8-0.5-1.7-0.8-2.6-0.8c-1.5,0-2.8,0.7-3.7,1.9l-4.8,6.8c-1.4,2-0.9,4.8,1.1,6.3c0.8,0.5,1.7,0.8,2.6,0.8l0,0
				c1.5,0,2.8-0.7,3.7-1.9l4.8-6.8c0.7-1,1-2.2,0.8-3.4C43.2,30.7,42.6,29.7,41.6,29z M41.6,34.5l-4.8,6.8c-0.6,0.8-1.6,1.3-2.6,1.3
				c-0.7,0-1.3-0.2-1.8-0.6c-1.4-1-1.8-3-0.8-4.4l4.8-6.8C37,30,38,29.5,39,29.5c0.7,0,1.3,0.2,1.8,0.6c0.7,0.5,1.2,1.2,1.3,2.1
				C42.3,32.9,42.1,33.8,41.6,34.5z"/>
		</g>
		<path d="M45,35.8c-0.6-0.4-1.4-0.7-2.1-0.7c-1.1,0-2.1,0.5-2.7,1.3l-4.1,5.8c-0.5,0.7-0.7,1.6-0.5,2.5s0.7,1.7,1.5,2.2
			c0.6,0.4,1.4,0.7,2.1,0.7c1.1,0,2.1-0.5,2.7-1.3l4.1-5.8C47,39,46.6,36.9,45,35.8z M44.9,39.8l-4.1,5.8c-0.4,0.5-0.9,0.8-1.6,0.8
			c-0.5,0-1-0.2-1.4-0.4c-0.5-0.3-0.8-0.9-0.9-1.4c-0.1-0.5,0-1.1,0.3-1.5l4.1-5.8c0.4-0.5,0.9-0.8,1.6-0.8c0.5,0,1,0.2,1.4,0.4
			C45.3,37.6,45.5,38.9,44.9,39.8z"/>
	</g>
	<path d="M56,13.7c-0.5,0.3-1.1,0.6-1.9,0.9c-0.1,0-0.2,0.1-0.4,0.1c-5.1,1.5-7.8-2-8.6-4.3C45,10.2,44.8,10,44.6,10s-0.5,0-0.6,0.2
		c0,0-0.1,0.1-0.1,0.2l-7.2,7.2c-2.9,2.1-7.5,0.5-8.6-0.8c-0.2-0.3-0.2-0.4-0.1-0.4l11-11c0,0,1.6-1.5,3.8-1.8c0.6-0.1,4.9,0,7.4,0
		c0.4,0,0.7-0.3,0.7-0.6c0-0.4-0.3-0.7-0.6-0.7c-0.7,0-6.8-0.2-7.7,0c-2.6,0.4-4.5,2.1-4.5,2.2l-11,11c-0.5,0.5-0.7,1.3,0.1,2.2
		c1,1.2,3.5,2.2,6.1,2.2c1.5,0,3-0.4,4.3-1.3c0,0,0.1,0,0.1-0.1l6.7-6.7c1.3,2.6,4.4,5.8,9.8,4.2c0.1,0,0.3-0.1,0.4-0.1
		c0.9-0.3,1.6-0.6,2.2-1c0.3-0.2,0.4-0.6,0.2-0.9C56.7,13.6,56.3,13.5,56,13.7z"/>
	<path d="M15.9,3.4H1C0.7,3.4,0.4,3.6,0.4,4v27.4c0,0.4,0.3,0.7,0.7,0.7H16c0.4,0,0.7-0.3,0.7-0.7V4C16.6,3.6,16.3,3.4,15.9,3.4z
		 M15.3,30.8H1.7V4.7h13.6V30.8z"/>
</g>
</svg>
