<?xml version="1.0" encoding="utf-8"?>
<!-- Generator: Adobe Illustrator 23.1.0, SVG Export Plug-In . SVG Version: 6.00 Build 0)  -->
<svg version="1.1" id="Layer_1" xmlns="http://www.w3.org/2000/svg" xmlns:xlink="http://www.w3.org/1999/xlink" x="0px" y="0px"
	 width="49.11px" height="49.11px" viewBox="0 0 49.11 49.11" style="enable-background:new 0 0 49.11 49.11;" xml:space="preserve"
	>
<style type="text/css">
	.st0{fill:none;stroke:#000000;stroke-linecap:round;stroke-linejoin:round;stroke-miterlimit:22.9256;}
</style>
<g>
	<g>
		<path class="st0" d="M24.55,0.5c1.61,0,3.18,0.19,4.69,0.53l0.56,5.96c1.21,0.36,2.36,0.84,3.45,1.43l4.61-3.82
			c1.32,0.82,2.56,1.8,3.69,2.94c1.14,1.14,2.11,2.38,2.94,3.69l-3.82,4.61c0.59,1.09,1.07,2.24,1.43,3.45l5.96,0.56
			c0.35,1.51,0.53,3.08,0.53,4.69c0,1.61-0.19,3.18-0.53,4.69l-5.96,0.56c-0.36,1.21-0.84,2.36-1.43,3.45l3.82,4.61
			c-0.82,1.32-1.8,2.56-2.94,3.69c-1.14,1.14-2.38,2.11-3.69,2.94l-4.61-3.82c-1.09,0.59-2.24,1.07-3.45,1.43l-0.56,5.96
			c-1.51,0.35-3.08,0.54-4.69,0.54c-1.61,0-3.18-0.19-4.69-0.54l-0.56-5.96c-1.21-0.36-2.36-0.84-3.45-1.43l-4.61,3.82
			c-1.32-0.82-2.56-1.8-3.69-2.94c-1.14-1.14-2.11-2.38-2.94-3.69l3.82-4.61c-0.59-1.09-1.07-2.24-1.43-3.45l-5.96-0.56
			c-0.35-1.51-0.54-3.08-0.54-4.69c0-1.61,0.19-3.18,0.54-4.69l5.96-0.56c0.36-1.21,0.84-2.36,1.43-3.45l-3.82-4.61
			c0.82-1.32,1.8-2.56,2.94-3.69c1.14-1.14,2.38-2.11,3.69-2.94l4.61,3.82c1.09-0.59,2.24-1.07,3.45-1.43l0.56-5.96
			C21.38,0.69,22.95,0.5,24.55,0.5L24.55,0.5z"/>
		<path class="st0" d="M39.71,24.55c0,8.37-6.78,15.15-15.15,15.15c-8.37,0-15.15-6.78-15.15-15.15c0-8.37,6.79-15.15,15.15-15.15
			l0,0c2.77,0,5.36,0.74,7.59,2.04"/>
	</g>
	<path class="st0" d="M33.58,25.15v5.64H14.54V18.31l0,0h13.06 M28.7,22.31l-4.64,3.8l-9.52-7.8"/>
	<g>
		<circle class="st0" cx="34.06" cy="18.81" r="4.57"/>
		<line class="st0" x1="34.06" y1="16.51" x2="34.06" y2="19.59"/>
		<line class="st0" x1="34.06" y1="20.97" x2="34.06" y2="21.32"/>
	</g>
</g>
</svg>
