<?xml version="1.0" encoding="utf-8"?>
<!-- Generator: Adobe Illustrator 22.0.1, SVG Export Plug-In . SVG Version: 6.00 Build 0)  -->
<svg version="1.1" id="Layer_1" xmlns="http://www.w3.org/2000/svg" xmlns:xlink="http://www.w3.org/1999/xlink" x="0px" y="0px"
	 width="61px" height="61px" viewBox="0 0 61 61" style="enable-background:new 0 0 61 61;" xml:space="preserve">
<style type="text/css">
	.st0{fill:none;stroke:#000000;stroke-linecap:round;stroke-linejoin:round;stroke-miterlimit:22.9256;}
</style>
<g>
	<polyline class="st0" points="18.3,11.5 16.6,12.4 12.2,10 4.9,17.4 7,21.8 5.1,26.5 0.5,27.9 0.5,38.4 5.1,39.9 7,44.5 4.9,48.8 
		12.2,56.2 16.5,53.9 21.2,55.9 22.6,60.5 33.1,60.5 34.5,55.8 39.2,53.9 43.4,56.2 50.9,48.7 48.6,44.5 49.4,42.7 	"/>
	<path class="st0" d="M37,47.2C34.4,49,31.2,50,27.8,50C18.5,50,11,42.4,11,33.2c0-3.4,1-6.6,2.7-9.2"/>
	<polygon class="st0" points="27.6,3.9 22.1,9.4 23.7,12.9 22.3,16.3 18.8,17.5 18.8,25.5 22.2,26.6 23.6,30.3 22.1,33.4 27.7,39 
		31.1,37.2 34.5,38.8 35.6,42.3 43.7,42.3 44.8,38.8 48.4,37.3 51.5,39 57.2,33.2 55.5,30 57.1,26.4 60.5,25.4 60.5,17.5 57.1,16.4 
		55.6,12.8 57.2,9.5 51.5,3.8 48.3,5.6 44.7,4 43.6,0.5 35.5,0.5 34.4,4.1 30.9,5.6 	"/>
	<polygon class="st0" points="32.5,18.1 28.3,22.4 36.6,30.7 50.9,16.5 46.4,12 36.5,22 	"/>
</g>
</svg>
