<?xml version="1.0" encoding="utf-8"?>
<!-- Generator: Adobe Illustrator 22.0.1, SVG Export Plug-In . SVG Version: 6.00 Build 0)  -->
<svg version="1.1" id="Layer_1" xmlns="http://www.w3.org/2000/svg" xmlns:xlink="http://www.w3.org/1999/xlink" x="0px" y="0px"
	 width="61.3px" height="69.3px" viewBox="0 0 61.3 69.3" style="enable-background:new 0 0 61.3 69.3;" xml:space="preserve">
<g>
	<g>
		<g>
			<path d="M53.4,62H7.8C7.4,62,7,62.3,7,62.8v5.4C7,68.6,7.3,69,7.8,69h45.6c0.4,0,0.8-0.3,0.8-0.8v-5.4C54.2,62.4,53.8,62,53.4,62
				z M52.7,67.4H8.6v-3.9h44.1C52.7,63.5,52.7,67.4,52.7,67.4z"/>
			<path d="M48.4,56.7H12.9c-0.4,0-0.8,0.3-0.8,0.8v5.4c0,0.4,0.3,0.8,0.8,0.8h35.4c0.4,0,0.8-0.3,0.8-0.8v-5.4
				C49.1,57.1,48.8,56.7,48.4,56.7z M47.6,62.1H13.7v-3.9h33.9C47.6,58.2,47.6,62.1,47.6,62.1z"/>
			<path d="M31,37.2c-0.4,0-0.8,0.3-0.8,0.8v20c0,0.4,0.3,0.8,0.8,0.8c0.4,0,0.8-0.3,0.8-0.8V37.9C31.8,37.5,31.4,37.2,31,37.2z"/>
			<g>
				<path d="M50,0.4H12.3c-0.4,0-0.8,0.3-0.8,0.8V19c0,10.8,8.8,19.6,19.6,19.6S50.7,29.8,50.7,19V1.1C50.7,0.7,50.4,0.4,50,0.4z
					 M49.2,19c0,10-8.1,18.1-18.1,18.1S13,29,13,19V1.9h36.2V19z"/>
				<path d="M14,26.1c-0.1,0-11.4-0.7-12.1-12.7c-0.1-2.3,0.4-4,1.7-5.1c2.6-2.4,7.5-1.7,7.6-1.7c0.4,0,0.8-0.3,0.8-0.7
					c0.1-0.4-0.2-0.8-0.6-0.9c-0.2,0-5.6-0.8-8.8,2.1C1,8.6,0.2,10.7,0.4,13.4C1.1,25.2,11.3,27.6,14,27.6c0.4,0,0.8-0.3,0.8-0.8
					C14.7,26.4,14.4,26.1,14,26.1z"/>
				<path d="M49.9,5c-0.4,0.1-0.7,0.4-0.6,0.9c0.1,0.4,0.4,0.7,0.9,0.6c0,0,4.9-0.7,7.6,1.7c1.3,1.1,1.8,2.9,1.7,5.1
					c-0.6,9.6-7.9,12-11,12.6c-0.4,0.1-0.7,0.5-0.6,0.9c0.1,0.4,0.4,0.6,0.7,0.6h0.1c2.7-0.5,11.5-3,12.2-14
					c0.2-2.7-0.6-4.9-2.2-6.3C55.5,4.2,50.1,5,49.9,5z"/>
			</g>
		</g>
	</g>
	<path d="M42,13.8l-7.1-1l-3.2-6.4c-0.3-0.5-1.1-0.5-1.3,0l-3.2,6.4l-7.1,1c-0.3,0-0.5,0.2-0.6,0.5s0,0.6,0.2,0.8l5.1,5l-1.2,7.1
		c0,0.3,0.1,0.6,0.3,0.7c0.2,0.2,0.5,0.2,0.8,0.1l6.3-3.3l6.3,3.3c0.1,0.1,0.2,0.1,0.3,0.1c0.2,0,0.3,0,0.4-0.1
		c0.2-0.2,0.3-0.5,0.3-0.7l-1-7.3l5.1-5c0.2-0.2,0.3-0.5,0.2-0.8C42.6,14,42.3,13.8,42,13.8z M36,19.2c-0.2,0.2-0.3,0.4-0.2,0.7
		l1,5.9L31.5,23c-0.2,0-0.3,0-0.4,0s-0.2,0-0.3,0.1l-5.3,2.8l1-5.9c0-0.2,0-0.5-0.2-0.7L21.9,15l6-0.9c0.2,0,0.5-0.2,0.6-0.4
		l2.7-5.4l2.7,5.4c0.1,0.2,0.3,0.4,0.6,0.4l6,0.9L36,19.2z"/>
</g>
</svg>
