<?xml version="1.0" encoding="utf-8"?>
<!-- Generator: Adobe Illustrator 22.0.1, SVG Export Plug-In . SVG Version: 6.00 Build 0)  -->
<svg version="1.1" id="Layer_1" xmlns="http://www.w3.org/2000/svg" xmlns:xlink="http://www.w3.org/1999/xlink" x="0px" y="0px"
	 width="48px" height="38.4px" viewBox="0 0 48 38.4" style="enable-background:new 0 0 48 38.4;" xml:space="preserve">
<g id="euro_x2C__currency_x2C__money_1_">
	<g id="purse_1_">
		<g>
			<g>
				<path d="M0.8,8C0.4,8,0,7.6,0,7.2s0.4-0.8,0.8-0.8c23,0,36.9,0,40.9-6c0.2-0.3,0.6-0.4,0.9-0.3c0.3,0.1,0.6,0.4,0.6,0.8v4
					c0,0.4-0.4,0.8-0.8,0.8s-0.8-0.4-0.8-0.8v-2C35.9,8,22.2,8,0.8,8z"/>
			</g>
		</g>
		<g>
			<g>
				<g>
					<path d="M20.8,11.3c-2.8,0-5.9,0-9.1,0c-3.4,0-7.1,0-10.8,0c-0.4,0-0.8-0.4-0.8-0.8s0.4-0.8,0.8-0.8c3.8,0,7.4,0,10.8,0
						C28.6,9.8,42,9.9,45,6.6c0.2-0.2,0.6-0.3,0.9-0.2c0.3,0.1,0.5,0.4,0.5,0.7v3.2c0,0.4-0.4,0.8-0.8,0.8c-0.4,0-0.8-0.4-0.8-0.8
						V8.8C41,10.9,32.6,11.3,20.8,11.3z"/>
				</g>
			</g>
		</g>
	</g>
	<g>
		<g>
			<g>
				<path d="M26.1,33.6c-4,0-7.3-3.3-7.3-7.3s3.3-7.3,7.3-7.3c1.2,0,2.3,0.3,3.4,0.8c0.4,0.2,0.5,0.7,0.3,1.1s-0.7,0.5-1.1,0.3
					c-0.8-0.4-1.7-0.6-2.6-0.6c-3.1,0-5.7,2.5-5.7,5.7S23,32,26.1,32c1.3,0,2.5-0.4,3.5-1.2c0.3-0.3,0.8-0.2,1.1,0.1
					c0.3,0.3,0.2,0.8-0.1,1.1C29.4,33.1,27.8,33.6,26.1,33.6z"/>
			</g>
		</g>
		<g>
			<g>
				<path d="M27.2,28.8h-8.8c-0.4,0-0.8-0.4-0.8-0.8s0.4-0.8,0.8-0.8h8.8c0.4,0,0.8,0.4,0.8,0.8S27.6,28.8,27.2,28.8z"/>
			</g>
		</g>
		<g>
			<g>
				<path d="M27.2,25.6h-8.8c-0.4,0-0.8-0.4-0.8-0.8S18,24,18.4,24h8.8c0.4,0,0.8,0.4,0.8,0.8S27.6,25.6,27.2,25.6z"/>
			</g>
		</g>
	</g>
	<g>
		<g>
			<g>
				<path d="M0.8,12.8c-0.4,0-0.8,0.4-0.8,0.8s0.4,0.8,0.8,0.8h45.6v22.4H0.8c-0.4,0-0.8,0.4-0.8,0.8l0,0c0,0.4,0.4,0.8,0.8,0.8
					h46.4c0.4,0,0.8-0.4,0.8-0.8v-24c0-0.4-0.4-0.8-0.8-0.8C47.2,12.8,0.8,12.8,0.8,12.8z"/>
			</g>
		</g>
		<g>
			<g>
				<path d="M0,16.8v20.8c0,0.4,0.4,0.8,0.8,0.8l0,0c0.4,0,0.8-0.4,0.8-0.8V16.8c0-0.4-0.4-0.8-0.8-0.8S0,16.4,0,16.8z"/>
			</g>
		</g>
	</g>
</g>
</svg>
