<?xml version="1.0" encoding="utf-8"?>
<!-- Generator: Adobe Illustrator 22.0.1, SVG Export Plug-In . SVG Version: 6.00 Build 0)  -->
<svg version="1.1" id="Layer_1" xmlns="http://www.w3.org/2000/svg" xmlns:xlink="http://www.w3.org/1999/xlink" x="0px" y="0px"
	 width="46.5px" height="46.6px" viewBox="0 0 46.5 46.6" style="enable-background:new 0 0 46.5 46.6;" xml:space="preserve">
<style type="text/css">
	.st0{fill:none;stroke:#000000;stroke-width:1.5;stroke-linecap:round;stroke-linejoin:round;stroke-miterlimit:10;}
</style>
<g>
	<path class="st0" d="M7.2,13.5L1,22.6c0,0-1.4,3.2,2,5.8l19,13l5.6-8.1L10,20.8C10,20.8,4.5,17,7.2,13.5s9.9,1.8,9.9,1.8"/>
	<line class="st0" x1="5" y1="22.8" x2="7.9" y2="18.9"/>
	<line class="st0" x1="8.8" y1="26" x2="11.6" y2="21.9"/>
	<line class="st0" x1="12.6" y1="28.7" x2="15.4" y2="24.6"/>
	<line class="st0" x1="16.4" y1="31.3" x2="19.2" y2="27.3"/>
	<line class="st0" x1="20.2" y1="33.8" x2="22.9" y2="30"/>
	<path class="st0" d="M11.8,22c0,0,1.4-7,7.9-7s5,2.6,8.4,2.6s4.2-2.6,8.6-2.6s9.1,4.2,9.1,14.3S39,45.8,35.3,45.8s-5.4-1.4-7.2-1.4
		c-1.9,0-3.2,1.4-5.6,1.4s-9-1.8-11.1-11.7"/>
	<path class="st0" d="M22.9,4.5c0,0,6,3.8,5.2,13.2"/>
	<path class="st0" d="M29.9,10.6c0,0-1.6-11.5,12.3-9.6C42.2,1,41,13.7,29.9,10.6z"/>
</g>
</svg>
