<?xml version="1.0" encoding="utf-8"?>
<!-- Generator: Adobe Illustrator 22.0.1, SVG Export Plug-In . SVG Version: 6.00 Build 0)  -->
<svg version="1.1" id="Layer_1" xmlns="http://www.w3.org/2000/svg" xmlns:xlink="http://www.w3.org/1999/xlink" x="0px" y="0px"
	 width="48.1px" height="47.9px" viewBox="0 0 48.1 47.9" style="enable-background:new 0 0 48.1 47.9;" xml:space="preserve">
<style type="text/css">
	.st0{stroke:#000000;stroke-width:0.75;stroke-miterlimit:10;}
</style>
<g id="food__x2C__dish__x2C__kitchen__x2C__1_">
	<g>
		<g>
			<path class="st0" d="M47.2,44.2L47.2,44.2h-46c-0.2,0-0.4-0.2-0.4-0.4c0-12.9,10.5-23.4,23.5-23.4c6.2,0,12.1,2.4,16.5,6.9
				s6.9,10.3,6.9,16.5c0,0,0,0,0,0C47.7,44,47.5,44.2,47.2,44.2z M1.6,43.3h45.1c-0.2-12.2-10.3-22.1-22.5-22.1
				C11.9,21.2,1.9,31.1,1.6,43.3z"/>
		</g>
		<g>
			<path class="st0" d="M47.3,47.5H0.8c-0.2,0-0.4-0.2-0.4-0.4c0-0.2,0.2-0.4,0.4-0.4h46.5c0.2,0,0.4,0.2,0.4,0.4
				C47.7,47.3,47.5,47.5,47.3,47.5z"/>
		</g>
		<g>
			<path class="st0" d="M38.4,33.4c-0.2,0-0.3-0.1-0.4-0.2c-3-4.9-8.4-7.9-14.1-7.9c-0.2,0-0.4-0.2-0.4-0.4s0.2-0.4,0.4-0.4
				c3,0,6,0.8,8.6,2.3c2.5,1.5,4.7,3.5,6.2,6c0.1,0.2,0.1,0.5-0.2,0.6C38.6,33.4,38.5,33.4,38.4,33.4z"/>
		</g>
		<g>
			<path class="st0" d="M23.7,21.2c-2.5,0-4.4-2-4.4-4.5c0-2.5,2-4.4,4.4-4.4c2.5,0,4.5,2,4.5,4.4c0,1.2-0.5,2.4-1.3,3.2
				C26,20.7,24.9,21.2,23.7,21.2z M23.7,13.1c-2,0-3.6,1.6-3.6,3.6c0,2,1.6,3.6,3.6,3.6c2,0,3.6-1.6,3.6-3.6
				C27.4,14.7,25.7,13.1,23.7,13.1z"/>
		</g>
		<g>
			<path class="st0" d="M8.5,35.1H6.6c-0.2,0-0.4-0.2-0.4-0.4s0.2-0.4,0.4-0.4h1.9c0.2,0,0.4,0.2,0.4,0.4S8.7,35.1,8.5,35.1z"/>
		</g>
		<g>
			<path class="st0" d="M9.7,39H7.8c-0.2,0-0.4-0.2-0.4-0.4s0.2-0.4,0.4-0.4h1.9c0.2,0,0.4,0.2,0.4,0.4S9.9,39,9.7,39z"/>
		</g>
		<g>
			<path class="st0" d="M14,36h-1.8c-0.2,0-0.4-0.2-0.4-0.4s0.2-0.4,0.4-0.4H14c0.2,0,0.4,0.2,0.4,0.4S14.3,36,14,36z"/>
		</g>
		<g>
			<path class="st0" d="M16.3,40.2h-1.8c-0.2,0-0.4-0.2-0.4-0.4c0-0.2,0.2-0.4,0.4-0.4h1.8c0.2,0,0.4,0.2,0.4,0.4
				C16.7,40,16.5,40.2,16.3,40.2z"/>
		</g>
		<g>
			<path class="st0" d="M12.4,32.4h-1.8c-0.2,0-0.4-0.2-0.4-0.4s0.2-0.4,0.4-0.4h1.8c0.2,0,0.4,0.2,0.4,0.4S12.7,32.4,12.4,32.4z"/>
		</g>
		<g>
			<path class="st0" d="M17.7,31h-1.9c-0.2,0-0.4-0.2-0.4-0.4s0.2-0.4,0.4-0.4h1.9c0.2,0,0.4,0.2,0.4,0.4C18.1,30.9,17.9,31,17.7,31
				z"/>
		</g>
		<g>
			<path class="st0" d="M19.6,35.1h-1.8c-0.2,0-0.4-0.2-0.4-0.4s0.2-0.4,0.4-0.4h1.8c0.2,0,0.4,0.2,0.4,0.4S19.8,35.1,19.6,35.1z"/>
		</g>
		<g>
			<path class="st0" d="M20.6,38.9h-1.9c-0.2,0-0.4-0.2-0.4-0.4s0.2-0.4,0.4-0.4h1.9c0.2,0,0.4,0.2,0.4,0.4S20.9,38.9,20.6,38.9z"/>
		</g>
		<g>
			<path class="st0" d="M14.7,14.7c-0.2,0-0.4-0.2-0.4-0.4V7.1c0-0.2,0.2-0.4,0.4-0.4s0.4,0.2,0.4,0.4v7.2
				C15.1,14.5,14.9,14.7,14.7,14.7z"/>
		</g>
		<g>
			<path class="st0" d="M30.9,12.9c-0.2,0-0.4-0.2-0.4-0.4V7.3c0-0.2,0.2-0.4,0.4-0.4s0.4,0.2,0.4,0.4v5.1
				C31.4,12.7,31.2,12.9,30.9,12.9z"/>
		</g>
		<g>
			<path class="st0" d="M37.6,20c-0.2,0-0.4-0.2-0.4-0.4v-6c0-0.2,0.2-0.4,0.4-0.4c0.2,0,0.4,0.2,0.4,0.4v6
				C38.1,19.8,37.9,20,37.6,20z"/>
		</g>
		<g>
			<path class="st0" d="M7.9,21.7c-0.2,0-0.4-0.2-0.4-0.4v-7.2c0-0.2,0.2-0.4,0.4-0.4s0.4,0.2,0.4,0.4v7.2
				C8.3,21.5,8.1,21.7,7.9,21.7z"/>
		</g>
		<g>
			<path class="st0" d="M23.8,7.3c-0.2,0-0.4-0.2-0.4-0.4v-6c0-0.2,0.2-0.4,0.4-0.4s0.4,0.2,0.4,0.4v6C24.2,7.1,24,7.3,23.8,7.3z"/>
		</g>
	</g>
</g>
</svg>
