<?xml version="1.0" encoding="utf-8"?>
<!-- Generator: Adobe Illustrator 22.0.1, SVG Export Plug-In . SVG Version: 6.00 Build 0)  -->
<svg version="1.1" id="Layer_1" xmlns="http://www.w3.org/2000/svg" xmlns:xlink="http://www.w3.org/1999/xlink" x="0px" y="0px"
	 width="44.5px" height="44.5px" viewBox="0 0 44.5 44.5" style="enable-background:new 0 0 44.5 44.5;" xml:space="preserve">
<g>
	<g>
		<path d="M43.3,10.9c-1.7,5.6-5.8,11.4-11.9,9.6c-0.2,0-0.8-0.3-1.1-0.5l-0.4-0.2c-0.2-0.1-0.3-0.1-0.5-0.2l-0.2-0.1l-0.1,0.2
			c-0.3,0.6-1.1,2.6-1.2,4.7c0,0.4-0.3,0.6-0.7,0.7c-0.4,0-0.7-0.3-0.7-0.7c0.1-2,1.4-6.2,2.3-6.4h0.1c0.1,0,0.3,0,0.5,0.2
			c0.4,0.2,2.1,1,2.4,1.1c6.7,2,9.9-7.6,10.2-8.7c0.9-3,1.3-6.1,1.1-8.9V1.4h-0.3C38.3,2,31.9,3.6,28,8.2c-2,2.4-2.2,5.7-0.3,8.2
			c0.1,0.2,0.1,0.3,0.1,0.5s-0.1,0.3-0.3,0.4l0,0c-0.3,0.2-0.7,0.1-1-0.1c-2.2-3-2-7,0.4-9.9c3.5-4.1,9.3-6.7,16.6-7.4
			c0.4-0.1,0.7,0.2,0.8,0.6v0.1l0,0C44.7,3.8,44.4,7.4,43.3,10.9z"/>
	</g>
	<g>
		<path d="M24.3,25c-0.1,0-0.2,0-0.3,0c-0.3,0-0.5-0.2-0.6-0.4C22.8,23.4,22,22.1,21,21l-0.2-0.2L20.7,21c-0.8,0.7-2,1.6-3.8,1.4
			c-3.3-0.5-6-3.4-8.1-8.7c-1-2.4-0.9-2.6-0.8-2.8c0.1-0.2,0.2-0.3,0.4-0.4c2.4-0.5,8.3-1.4,12.1,1.2c1.8,1.3,2.7,3.6,2.2,5.8
			c-0.1,0.2-0.2,0.3-0.3,0.4C22.2,18,22.1,18,21.9,18s-0.3-0.2-0.4-0.3c-0.1-0.2-0.1-0.3-0.1-0.5c0.4-1.6-0.2-3.4-1.6-4.4
			c-3-2.1-7.5-1.7-10-1.2H9.5l0.1,0.3c0.1,0.4,0.3,0.8,0.4,1.1l0.1,0.2c1.3,3.3,3.5,7.4,7,7.9c1.8,0.1,2.9-1.2,3.2-1.7
			c0.1-0.2,0.3-0.3,0.5-0.3s0.4,0,0.5,0.2c1.5,1.4,2.6,3.1,3.4,4.9C24.8,24.5,24.6,24.9,24.3,25z"/>
	</g>
	<g>
		<path d="M43.9,29.3c-0.8-1-2.1-1.3-3.2-0.8l-11.4,4.8c-0.3,0.2-0.5,0.5-0.4,0.9c0.1,0.3,0.5,0.5,0.9,0.4l11.4-4.8
			c0.6-0.2,1.3-0.1,1.7,0.4c0.3,0.3,0.4,0.7,0.3,1.1c-0.1,0.4-0.3,0.8-0.7,1c-4.8,3.1-15.7,9.3-16.8,9.9l0,0h-0.1
			c-1.5,0.8-3.1,1.1-5,0.7c-0.1,0-2.5-0.3-9-1.1l-3.4-0.4V28.6h0.2c0.5,0,1,0,1.2,0h0.1c4.3-0.3,8.4,0.5,12.8,1.4l1.7,0.3
			c0.7,0.1,1.2,0.8,1.2,1.5c0,0,0,0.1,0,0.2c0,0.5-0.4,0.8-0.4,0.9c-0.3,0.3-0.7,0.4-1.1,0.4h-8.7c-0.4,0-0.7,0.3-0.7,0.7
			c0,0.3,0.3,0.7,0.7,0.7h8.7c0.8,0,1.5-0.3,2-0.8s0.7-1,0.8-1.6c0-0.1,0-0.3,0-0.4c0-1.4-1-2.5-2.3-2.8c-0.5-0.1-1.1-0.2-1.7-0.3
			h-0.1c-4.2-0.9-8.6-1.7-13.1-1.4l0,0c-0.2,0-0.6,0-1.1,0H8.2V27c-0.1-0.3-0.3-0.5-0.6-0.5H0.7c-0.4,0-0.7,0.3-0.7,0.7v15.5
			c0,0.4,0.3,0.7,0.7,0.7h6.9c0.3,0,0.5-0.2,0.6-0.4l0.1-0.2l3.3,0.4c1.8,0.2,4,0.5,5.8,0.7c1.7,0.2,3,0.4,3.1,0.4
			c0.7,0.1,1.3,0.2,1.9,0.2c1.5,0,2.8-0.3,4-1h0.1c0.1-0.1,0.3-0.2,0.6-0.4c7.9-4.5,13.3-7.7,16.2-9.6c0.7-0.4,1.1-1.1,1.2-1.9
			C44.6,30.7,44.4,29.9,43.9,29.3z M6.9,42H1.4V27.8h5.5V42z"/>
	</g>
</g>
</svg>
