<?xml version="1.0" encoding="utf-8"?>
<!-- Generator: Adobe Illustrator 22.0.1, SVG Export Plug-In . SVG Version: 6.00 Build 0)  -->
<svg version="1.1" id="Layer_1" xmlns="http://www.w3.org/2000/svg" xmlns:xlink="http://www.w3.org/1999/xlink" x="0px" y="0px"
	 width="35.6px" height="40.3px" viewBox="0 0 35.6 40.3" style="enable-background:new 0 0 35.6 40.3;" xml:space="preserve">
<style type="text/css">
	.st0{fill:none;stroke:#000000;stroke-width:1.5;stroke-miterlimit:10;}
	.st1{fill:none;stroke:#000000;stroke-width:1.5;stroke-linecap:round;stroke-linejoin:round;stroke-miterlimit:10;}
</style>
<g>
	<rect x="10.7" y="0.8" class="st0" width="14.1" height="6.3"/>
	<circle class="st0" cx="17.7" cy="13" r="8.9"/>
	<path class="st1" d="M26.3,10.7c0,0-6.4,1.1-7-3.7c0,0-2,6.6-10.5,5.3"/>
	<path class="st1" d="M11.8,19.6v4.2c0,0,1.8,2.2,6.4,2.2s5.7-2.5,5.7-2.5v-3.9"/>
	<path class="st1" d="M11.8,23.9c-9.5-0.3-11,8.6-11,8.6v7.1h34.1v-7.9c0,0-1.6-7.5-11-8.1"/>
	<circle class="st1" cx="11" cy="28.7" r="0.6"/>
	<circle class="st1" cx="11" cy="32.7" r="0.6"/>
	<circle class="st1" cx="11" cy="36.7" r="0.6"/>
	<circle class="st1" cx="18" cy="28.7" r="0.6"/>
	<circle class="st1" cx="18" cy="32.7" r="0.6"/>
	<circle class="st1" cx="18" cy="36.7" r="0.6"/>
	<circle class="st1" cx="25" cy="28.7" r="0.6"/>
	<circle class="st1" cx="25" cy="32.7" r="0.6"/>
	<circle class="st1" cx="25" cy="36.7" r="0.6"/>
</g>
</svg>
