<?xml version="1.0" encoding="utf-8"?>
<!-- Generator: Adobe Illustrator 22.0.1, SVG Export Plug-In . SVG Version: 6.00 Build 0)  -->
<svg version="1.1" id="Layer_1" xmlns="http://www.w3.org/2000/svg" xmlns:xlink="http://www.w3.org/1999/xlink" x="0px" y="0px"
	 width="44.9px" height="46.7px" viewBox="0 0 44.9 46.7" style="enable-background:new 0 0 44.9 46.7;" xml:space="preserve">
<style type="text/css">
	.st0{stroke:#000000;stroke-width:0.75;stroke-miterlimit:10;}
</style>
<g>
	<g>
		<path class="st0" d="M44.1,24.7c-0.2,0-0.4-0.2-0.4-0.4C43.7,12.6,34.2,3,22.5,3S1.2,12.6,1.2,24.3c0,0.2-0.2,0.4-0.4,0.4
			s-0.4-0.2-0.4-0.4c0-12.2,9.9-22.1,22.1-22.1s22.1,9.9,22.1,22.1C44.5,24.5,44.3,24.7,44.1,24.7z"/>
	</g>
	<g>
		<path class="st0" d="M11.7,24.7c-0.2,0-0.4-0.2-0.4-0.4c0-2.8-2.2-5-5-5s-5,2.2-5,5c0,0.2-0.2,0.4-0.4,0.4s-0.4-0.2-0.4-0.4
			c0-3.2,2.6-5.8,5.8-5.8s5.8,2.6,5.8,5.8C12.1,24.5,11.9,24.7,11.7,24.7z"/>
	</g>
	<g>
		<path class="st0" d="M22.5,24.7c-0.2,0-0.4-0.2-0.4-0.4c0-2.8-2.2-5-5-5s-5,2.2-5,5c0,0.2-0.2,0.4-0.4,0.4s-0.4-0.2-0.4-0.4
			c0-3.2,2.6-5.8,5.8-5.8s5.8,2.6,5.8,5.8C22.9,24.5,22.7,24.7,22.5,24.7z"/>
	</g>
	<g>
		<path class="st0" d="M19.8,46.3c-1.7,0-3.1-1.4-3.1-3.1c0-0.2,0.2-0.4,0.4-0.4c0.2,0,0.4,0.2,0.4,0.4c0,1.3,1,2.3,2.3,2.3
			s2.3-1,2.3-2.3c0-0.2,0.2-0.4,0.4-0.4c0.2,0,0.4,0.2,0.4,0.4C22.9,44.9,21.5,46.3,19.8,46.3z"/>
	</g>
	<g>
		<path class="st0" d="M33.2,24.7c-0.2,0-0.4-0.2-0.4-0.4c0-2.8-2.2-5-5-5s-5,2.2-5,5c0,0.2-0.2,0.4-0.4,0.4c-0.2,0-0.4-0.2-0.4-0.4
			c0-3.2,2.6-5.8,5.8-5.8s5.8,2.6,5.8,5.8C33.7,24.5,33.5,24.7,33.2,24.7z"/>
	</g>
	<g>
		<path class="st0" d="M44,24.7c-0.2,0-0.4-0.2-0.4-0.4c0-2.8-2.2-5-5-5c-2.8,0-5,2.2-5,5c0,0.2-0.2,0.4-0.4,0.4s-0.4-0.2-0.4-0.4
			c0-3.2,2.6-5.8,5.8-5.8s5.8,2.6,5.8,5.8C44.4,24.5,44.3,24.7,44,24.7z"/>
	</g>
	<g>
		<path class="st0" d="M22.5,43.5c-0.2,0-0.4-0.2-0.4-0.4l0-17.2c0-0.2,0.2-0.4,0.4-0.4l0,0c0.2,0,0.4,0.2,0.4,0.4l0,17.2
			C22.9,43.3,22.7,43.5,22.5,43.5C22.5,43.5,22.5,43.5,22.5,43.5z"/>
	</g>
	<g>
		<path class="st0" d="M23.4,2.1c-0.2,0-0.4-0.2-0.4-0.4c0-0.3-0.2-0.5-0.5-0.5s-0.5,0.2-0.5,0.5c0,0.2-0.2,0.4-0.4,0.4
			c-0.2,0-0.4-0.2-0.4-0.4c0-0.7,0.6-1.3,1.3-1.3s1.3,0.6,1.3,1.3C23.8,1.9,23.6,2.1,23.4,2.1z"/>
	</g>
</g>
</svg>
