<?xml version="1.0" encoding="utf-8"?>
<!-- Generator: Adobe Illustrator 22.0.1, SVG Export Plug-In . SVG Version: 6.00 Build 0)  -->
<svg version="1.1" id="Layer_1" xmlns="http://www.w3.org/2000/svg" xmlns:xlink="http://www.w3.org/1999/xlink" x="0px" y="0px"
	 width="61.1px" height="61px" viewBox="0 0 61.1 61" style="enable-background:new 0 0 61.1 61;" xml:space="preserve">
<style type="text/css">
	.st0{fill:none;stroke:#000000;stroke-linecap:round;stroke-linejoin:round;stroke-miterlimit:22.9256;}
</style>
<g>
	<path class="st0" d="M18.4,36.3c-9.9,0-17.9-8-17.9-17.9s8-17.9,17.9-17.9s17.9,8,17.9,17.9c0,0.6,0,1.2-0.1,1.8"/>
	<path class="st0" d="M60.6,42.5c0,9.9-8,18-18,18s-18-8-18-18s8-18,18-18c2.7,0,5.3,0.6,7.6,1.7C54,28,57,31,58.8,34.7
		C59.9,37.1,60.6,39.8,60.6,42.5z"/>
	<polyline class="st0" points="42.6,29.7 42.6,42.3 48.7,48.5 	"/>
	<line class="st0" x1="18.7" y1="6.9" x2="18.7" y2="10.3"/>
	<path class="st0" d="M24.7,14.9c0,0-0.6-4.5-6-4.5s-5.8,3.7-5.8,4.2c0.1,0.5,0.3,3.6,6.2,3.6s5.7,4.3,5.6,4.4s0.1,3.4-6,3.4
		s-5.8-4-5.8-4"/>
	<line class="st0" x1="18.7" y1="29.5" x2="18.7" y2="26.1"/>
	<path class="st0" d="M55.9,21.5c0.3-1,0.4-2.1,0.4-3.3c0-7.6-6.1-13.7-13.7-13.7c-0.9,0-1.7,0.1-2.5,0.2l5.3-4.3"/>
	<path class="st0" d="M5.2,39.2c-0.3,1-0.4,2.1-0.4,3.3c0,7.6,6.1,13.7,13.7,13.7c0.9,0,1.7-0.1,2.5-0.2l-5.3,4.3"/>
</g>
</svg>
