<?xml version="1.0" encoding="utf-8"?>
<!-- Generator: Adobe Illustrator 22.0.1, SVG Export Plug-In . SVG Version: 6.00 Build 0)  -->
<svg version="1.1" id="Layer_1" xmlns="http://www.w3.org/2000/svg" xmlns:xlink="http://www.w3.org/1999/xlink" x="0px" y="0px"
	 width="48.1px" height="47.9px" viewBox="0 0 48.1 47.9" style="enable-background:new 0 0 48.1 47.9;" xml:space="preserve">
<style type="text/css">
	.st0{fill:none;stroke:#000000;stroke-width:1.5;stroke-linejoin:round;stroke-miterlimit:10;}
	.st1{fill:none;stroke:#000000;stroke-width:1.5;stroke-miterlimit:10;}
</style>
<g>
	<polygon class="st0" points="9.7,4.3 39.6,4.3 46.8,19 1.8,19 	"/>
	<path class="st1" d="M10.8,19c0,2.5-2,4.5-4.5,4.5s-4.5-2-4.5-4.5"/>
	<path class="st1" d="M19.8,19c0,2.5-2,4.5-4.5,4.5s-4.5-2-4.5-4.5"/>
	<path class="st1" d="M28.8,19c0,2.5-2,4.5-4.5,4.5s-4.5-2-4.5-4.5"/>
	<path class="st1" d="M37.8,19c0,2.5-2,4.5-4.5,4.5s-4.5-2-4.5-4.5"/>
	<path class="st1" d="M46.8,19c0,2.5-2,4.5-4.5,4.5s-4.5-2-4.5-4.5"/>
	<line class="st0" x1="15" y1="4.3" x2="10.8" y2="19.2"/>
	<line class="st0" x1="20.9" y1="4.3" x2="19.8" y2="19.5"/>
	<line class="st0" x1="27.4" y1="4.3" x2="28.8" y2="19"/>
	<line class="st0" x1="33.3" y1="4.3" x2="37.8" y2="19.5"/>
	<line class="st0" x1="5" y1="23.3" x2="5" y2="44.9"/>
	<line class="st0" x1="43.3" y1="23.4" x2="43.3" y2="44.9"/>
	<line class="st0" x1="2" y1="44.9" x2="46.5" y2="44.9"/>
	<polyline class="st0" points="11.1,44.9 11.1,28.3 21,28.3 21,44.9 	"/>
	<rect x="24.5" y="28.3" class="st0" width="12.5" height="11.2"/>
	<line class="st0" x1="31.6" y1="30.8" x2="28.5" y2="33.9"/>
	<line class="st0" x1="34.1" y1="31.3" x2="28.5" y2="37"/>
	<line class="st0" x1="16.8" y1="37" x2="19" y2="37"/>
</g>
</svg>
