<?xml version="1.0" encoding="utf-8"?>
<!-- Generator: Adobe Illustrator 22.0.1, SVG Export Plug-In . SVG Version: 6.00 Build 0)  -->
<svg version="1.1" id="Layer_1" xmlns="http://www.w3.org/2000/svg" xmlns:xlink="http://www.w3.org/1999/xlink" x="0px" y="0px"
	 width="58.7px" height="56.2px" viewBox="0 0 58.7 56.2" style="enable-background:new 0 0 58.7 56.2;" xml:space="preserve">
<style type="text/css">
	.st0{fill:none;stroke:#000000;stroke-linecap:round;stroke-linejoin:round;stroke-miterlimit:22.9256;}
</style>
<path class="st0" d="M0.5,6.9c0-1.9,0.7-3.4,2-4.6c1.3-1.2,3-1.8,5.1-1.8c2,0,3.7,0.6,5,1.8c1.3,1.2,2,2.8,2,4.8
	c0,1.8-0.6,3.3-1.9,4.5c-1.3,1.2-3,1.8-5.1,1.8H7.4c-2,0-3.7-0.6-5-1.8S0.5,8.8,0.5,6.9z M1.2,55.7V18.4h12.4v37.2H1.2z M20.5,55.7
	h12.4V34.9c0-1.3,0.1-2.3,0.4-3c0.5-1.3,1.3-2.3,2.4-3.2c1.1-0.9,2.4-1.3,4-1.3c4.2,0,6.2,2.8,6.2,8.4v19.9h12.4V34.3
	c0-5.5-1.3-9.7-3.9-12.5s-6-4.3-10.3-4.3c-4.8,0-8.5,2.1-11.2,6.2v0.1h-0.1l0.1-0.1v-5.3H20.5c0.1,1.2,0.1,4.9,0.1,11.1
	C20.6,35.7,20.5,44.5,20.5,55.7z"/>
</svg>
