<?xml version="1.0" encoding="utf-8"?>
<!-- Generator: Adobe Illustrator 22.0.1, SVG Export Plug-In . SVG Version: 6.00 Build 0)  -->
<svg version="1.1" id="Layer_1" xmlns="http://www.w3.org/2000/svg" xmlns:xlink="http://www.w3.org/1999/xlink" x="0px" y="0px"
	 width="65.7px" height="52.8px" viewBox="0 0 65.7 52.8" style="enable-background:new 0 0 65.7 52.8;" xml:space="preserve">
<style type="text/css">
	.st0{fill:none;stroke:#000000;stroke-linecap:round;stroke-linejoin:round;stroke-miterlimit:22.9256;}
</style>
<g>
	<path class="st0" d="M7.1,34.3h19v12.5h-19V34.3L7.1,34.3z M26.1,34.3l-9.5,7.8l-9.5-7.8"/>
	<path class="st0" d="M53.2,2.5H0.5v49.8c31.7,0,40.4,0,56.6,0V29.2"/>
	<line class="st0" x1="31.5" y1="14.3" x2="0.5" y2="14.3"/>
	<line class="st0" x1="33.1" y1="34.3" x2="48.7" y2="34.3"/>
	<line class="st0" x1="33.1" y1="37.9" x2="48.7" y2="37.9"/>
	<line class="st0" x1="33.1" y1="41.1" x2="48.7" y2="41.1"/>
	<line class="st0" x1="7.2" y1="20.9" x2="22.8" y2="20.9"/>
	<line class="st0" x1="7.2" y1="24.5" x2="22.8" y2="24.5"/>
	<line class="st0" x1="7.2" y1="27.7" x2="22.8" y2="27.7"/>
	<g>
		<path class="st0" d="M49.9,12.6c-0.7,0-1.3,0.6-1.3,1.3c0,0.7,0.6,1.3,1.3,1.3c0.7,0,1.3-0.6,1.3-1.3
			C51.2,13.2,50.6,12.6,49.9,12.6L49.9,12.6z"/>
		<path class="st0" d="M41.9,12.6c-0.7,0-1.3,0.6-1.3,1.3c0,0.7,0.6,1.3,1.3,1.3c0.7,0,1.3-0.6,1.3-1.3
			C43.1,13.2,42.6,12.6,41.9,12.6L41.9,12.6z"/>
		<path class="st0" d="M59.7,0.5H60c1,0,1.8,0.8,1.8,1.8v23.8c0,1-0.8,1.8-1.8,1.8h-0.3c-1,0-7.3-9.3-14.1-9.3h-8.4
			c-1.4,0-2.5-1.1-2.5-2.5v-3.8c0-1.4,1.1-2.5,2.5-2.5h8.4C52.4,9.8,58.7,0.5,59.7,0.5L59.7,0.5z"/>
		<path class="st0" d="M61.8,9.8c1.9,0.6,3.3,2.3,3.3,4.5c0,2.1-1.4,3.9-3.3,4.5"/>
		<line class="st0" x1="45.8" y1="9.8" x2="45.8" y2="18.7"/>
		<path class="st0" d="M43.8,18.7c0.3,1.9-0.2,4,1,5.8l2,3.2c0.5,0.8-0.3,2.2-1.2,2.2h-3c-0.9,0-1.9-0.7-2.1-1.7l-2.3-9.5H43.8
			L43.8,18.7z"/>
	</g>
</g>
</svg>
