<?xml version="1.0" encoding="utf-8"?>
<!-- Generator: Adobe Illustrator 22.0.1, SVG Export Plug-In . SVG Version: 6.00 Build 0)  -->
<svg version="1.1" id="Layer_1" xmlns="http://www.w3.org/2000/svg" xmlns:xlink="http://www.w3.org/1999/xlink" x="0px" y="0px"
	 width="51.1px" height="51.1px" viewBox="0 0 51.1 51.1" style="enable-background:new 0 0 51.1 51.1;" xml:space="preserve">
<style type="text/css">
	.st0{fill:none;stroke:#000000;stroke-linecap:round;stroke-linejoin:round;stroke-miterlimit:22.926;}
</style>
<g>
	<path class="st0" d="M47.3,4.7l-0.9-0.9c-4.4-4.4-11.5-4.4-15.8,0L19.5,15c-4.4,4.4-4.4,11.5,0,15.8l0.9,0.9c1,1,2.1,1.7,3.3,2.3
		l3.2-3.2c0.8-0.8,1.1-2,1-3c-0.7-0.1-1.4-0.5-1.8-1l-1.6-1.6c-1.4-1.4-1.4-3.6,0-5L36,8.6c1.4-1.4,3.6-1.4,5,0l1.6,1.6
		c1.4,1.4,1.4,3.6,0,5L34,23.6c1.5,3.2,1.2,6.9-0.3,9.9c0.9-0.5,1.8-1.1,2.6-1.9l11.2-11.2C51.6,16.1,51.6,9,47.3,4.7z"/>
	<path class="st0" d="M3.7,46.4l0.9,0.9c4.4,4.4,11.5,4.4,15.8,0l11.2-11.2c4.4-4.4,4.4-11.5,0-15.8l-0.9-0.9c-1-1-2.1-1.7-3.3-2.3
		l-3.2,3.2c-0.8,0.8-1.1,2-1,3c0.7,0.1,1.4,0.5,1.8,1l1.6,1.6c1.4,1.4,1.4,3.6,0,5L15.2,42.5c-1.4,1.4-3.6,1.4-5,0l-1.6-1.7
		c-1.4-1.4-1.4-3.6,0-5l8.5-8.5c-1.5-3.2-1.2-6.9,0.3-9.9c-0.9,0.5-1.8,1.1-2.6,1.9L3.7,30.5C-0.6,34.9-0.6,42,3.7,46.4z"/>
</g>
</svg>
