<?xml version="1.0" encoding="utf-8"?>
<!-- Generator: Adobe Illustrator 22.0.1, SVG Export Plug-In . SVG Version: 6.00 Build 0)  -->
<svg version="1.1" id="Layer_1" xmlns="http://www.w3.org/2000/svg" xmlns:xlink="http://www.w3.org/1999/xlink" x="0px" y="0px"
	 width="52.3px" height="51.8px" viewBox="0 0 52.3 51.8" style="enable-background:new 0 0 52.3 51.8;" xml:space="preserve">
<style type="text/css">
	.st0{fill:none;stroke:#000000;stroke-linecap:round;stroke-linejoin:round;stroke-miterlimit:22.9256;}
</style>
<g>
	<g>
		<path class="st0" d="M39.1,25.7c0.9,0,1.7,0.1,2.5,0.3l0.3,3.2c0.6,0.2,1.3,0.4,1.8,0.8l2.5-2c0.7,0.4,1.4,1,2,1.6
			c0.6,0.6,1.1,1.3,1.6,2l-2,2.5c0.3,0.6,0.6,1.2,0.8,1.8l3.2,0.3c0.2,0.8,0.3,1.6,0.3,2.5c0,0.9-0.1,1.7-0.3,2.5l-3.2,0.3
			c-0.2,0.6-0.4,1.3-0.8,1.8l2,2.5c-0.4,0.7-1,1.4-1.6,2c-0.6,0.6-1.3,1.1-2,1.6l-2.5-2c-0.6,0.3-1.2,0.6-1.8,0.8L41.5,51
			c-0.8,0.2-1.6,0.3-2.5,0.3c-0.9,0-1.7-0.1-2.5-0.3l-0.3-3.2c-0.6-0.2-1.3-0.4-1.8-0.8l-2.5,2c-0.7-0.4-1.4-1-2-1.6
			c-0.6-0.6-1.1-1.3-1.6-2l2-2.5c-0.3-0.6-0.6-1.2-0.8-1.8L26.5,41c-0.2-0.8-0.3-1.6-0.3-2.5c0-0.9,0.1-1.7,0.3-2.5l3.2-0.3
			c0.2-0.6,0.4-1.3,0.8-1.8l-2-2.5c0.4-0.7,1-1.4,1.6-2c0.6-0.6,1.3-1.1,2-1.6l2.5,2c0.6-0.3,1.2-0.6,1.8-0.8l0.3-3.2
			C37.4,25.8,38.2,25.7,39.1,25.7L39.1,25.7z"/>
		<path class="st0" d="M39.1,33.4c2.8,0,5.1,2.3,5.1,5.1c0,2.8-2.3,5.1-5.1,5.1c-2.8,0-5.1-2.3-5.1-5.1
			C33.9,35.7,36.2,33.4,39.1,33.4L39.1,33.4z"/>
	</g>
	<path class="st0" d="M24.2,43.6c-1.8,2-3.5,3.9-4.8,5.1C14.8,44.2,4.9,32.7,2.5,27.9c-1.3-2.5-2-5.4-2-8.5C0.5,9,9,0.5,19.4,0.5
		l0,0c5.2,0,9.9,2.1,13.4,5.5c3.4,3.4,5.5,8.1,5.5,13.4c0,0.5,0,1-0.1,1.5"/>
	<circle class="st0" cx="19.4" cy="19.5" r="9.5"/>
</g>
</svg>
