<?xml version="1.0" encoding="utf-8"?>
<!-- Generator: Adobe Illustrator 22.0.1, SVG Export Plug-In . SVG Version: 6.00 Build 0)  -->
<svg version="1.1" id="Layer_1" xmlns="http://www.w3.org/2000/svg" xmlns:xlink="http://www.w3.org/1999/xlink" x="0px" y="0px"
	 width="51.2px" height="51.2px" viewBox="0 0 51.2 51.2" style="enable-background:new 0 0 51.2 51.2;" xml:space="preserve">
<style type="text/css">
	.st0{fill:none;stroke:#000000;stroke-linecap:round;stroke-linejoin:round;stroke-miterlimit:22.9256;}
</style>
<g>
	<path class="st0" d="M17.2,25.6c0-4.6,3.7-8.4,8.4-8.4S34,21,34,25.6S30.2,34,25.6,34S17.2,30.2,17.2,25.6 M12.7,25.6
		c0,7.1,5.8,12.9,12.9,12.9s12.9-5.8,12.9-12.9s-5.8-12.9-12.9-12.9S12.7,18.5,12.7,25.6 M36,12.2c0,1.7,1.3,3,3,3c1.7,0,3-1.4,3-3
		s-1.3-3-3-3S36,10.5,36,12.2 M15.5,46c-2.4-0.1-3.8-0.5-4.7-0.9c-1.2-0.5-2-1-2.9-1.9C7,42.4,6.5,41.6,6,40.4
		c-0.3-0.9-0.8-2.2-0.9-4.7C5,33.1,5,32.3,5,25.6s0-7.5,0.1-10.1C5.3,13,5.7,11.7,6,10.8c0.5-1.2,1-2,1.9-2.9C8.8,7,9.6,6.5,10.8,6
		c0.9-0.3,2.2-0.8,4.7-0.9C18.1,5,18.9,5,25.6,5c6.7,0,7.5,0,10.1,0.1c2.4,0.1,3.8,0.5,4.7,0.9c1.2,0.5,2,1,2.9,1.9
		c0.9,0.9,1.4,1.7,1.9,2.9c0.3,0.9,0.8,2.2,0.9,4.7c0.1,2.6,0.1,3.4,0.1,10.1c0,6.7,0,7.5-0.1,10.1c-0.1,2.4-0.5,3.8-0.9,4.7
		c-0.5,1.2-1,2-1.9,2.9s-1.7,1.4-2.9,1.9c-0.9,0.3-2.2,0.8-4.7,0.9c-2.6,0.1-3.4,0.1-10.1,0.1C18.9,46.2,18.1,46.2,15.5,46
		 M15.3,0.7c-2.7,0.1-4.5,0.5-6.1,1.2C7.5,2.5,6.1,3.3,4.7,4.7C3.3,6.1,2.5,7.5,1.8,9.2c-0.6,1.6-1,3.4-1.2,6.1
		c-0.1,2.7-0.2,3.5-0.2,10.4s0,7.7,0.2,10.4c0.1,2.7,0.5,4.5,1.2,6.1c0.6,1.7,1.5,3.1,2.9,4.4c1.4,1.4,2.8,2.3,4.4,2.9
		c1.6,0.6,3.4,1,6.1,1.2c2.7,0.1,3.5,0.2,10.4,0.2c6.8,0,7.7,0,10.4-0.2c2.7-0.1,4.5-0.5,6.1-1.2c1.7-0.6,3.1-1.5,4.4-2.9
		c1.4-1.4,2.3-2.8,2.9-4.4c0.6-1.6,1-3.4,1.2-6.1c0.1-2.7,0.2-3.5,0.2-10.4s0-7.7-0.2-10.4c-0.1-2.7-0.5-4.5-1.2-6.1
		c-0.6-1.7-1.5-3.1-2.9-4.4c-1.4-1.4-2.8-2.3-4.4-2.9c-1.6-0.6-3.4-1-6.1-1.2c-2.7-0.1-3.5-0.2-10.4-0.2C18.8,0.5,17.9,0.5,15.3,0.7
		"/>
</g>
</svg>
