<?xml version="1.0" encoding="utf-8"?>
<!-- Generator: Adobe Illustrator 22.0.1, SVG Export Plug-In . SVG Version: 6.00 Build 0)  -->
<svg version="1.1" id="Layer_1" xmlns="http://www.w3.org/2000/svg" xmlns:xlink="http://www.w3.org/1999/xlink" x="0px" y="0px"
	 width="60.7px" height="55.7px" viewBox="0 0 60.7 55.7" style="enable-background:new 0 0 60.7 55.7;" xml:space="preserve">
<style type="text/css">
	.st0{fill:none;stroke:#000000;stroke-linecap:round;stroke-linejoin:round;stroke-miterlimit:22.926;}
</style>
<g>
	<polyline class="st0" points="1.8,40.4 1.7,40.3 20.7,7.5 	"/>
	<line class="st0" x1="30.3" y1="30.6" x2="19.5" y2="49.3"/>
	<path class="st0" d="M58.8,40.2L39,5.8c-2.6-4.9-8.6-6.7-13.4-4.1c-4.9,2.6-6.7,8.6-4.1,13.4c0.1,0.2,0.2,0.4,0.4,0.6l19.9,34.4
		c2.7,4.8,8.7,6.5,13.5,3.8c4.8-2.7,6.5-8.7,3.8-13.5C58.9,40.3,58.9,40.3,58.8,40.2L58.8,40.2z"/>
	<path class="st0" d="M10.4,35.3c5.5,0,9.9,4.4,9.9,9.9c0,5.5-4.5,9.9-9.9,9.9c-5.5,0-9.9-4.4-9.9-9.9C0.5,39.7,4.9,35.3,10.4,35.3z
		"/>
</g>
</svg>
