<?xml version="1.0" encoding="utf-8"?>
<!-- Generator: Adobe Illustrator 25.0.1, SVG Export Plug-In . SVG Version: 6.00 Build 0)  -->
<svg version="1.1" id="Layer_1" xmlns="http://www.w3.org/2000/svg" xmlns:xlink="http://www.w3.org/1999/xlink" x="0px" y="0px"
	 width="70px" height="63px" viewBox="0 0 70 63" style="enable-background:new 0 0 70 63;" xml:space="preserve">
<style type="text/css">
	.st0{fill:#61DAFB;}
</style>
<g>
	<path class="st0" d="M68.8,31.5c0-4.5-5.6-8.7-14.2-11.4c2-8.8,1.1-15.7-2.8-18c-0.9-0.5-1.9-0.8-3.1-0.8v3.1
		c0.6,0,1.1,0.1,1.6,0.4c1.9,1.1,2.7,5.2,2.1,10.4c-0.2,1.3-0.4,2.7-0.7,4.1c-2.7-0.7-5.7-1.2-8.8-1.5c-1.9-2.6-3.8-4.9-5.7-6.9
		c4.5-4.2,8.7-6.5,11.6-6.5V1.4C45,1.4,40,4.1,35,8.8c-5-4.7-10-7.3-13.8-7.3v3.1c2.9,0,7.1,2.3,11.6,6.4c-1.9,2-3.9,4.3-5.7,6.9
		c-3.1,0.3-6.1,0.8-8.8,1.5c-0.3-1.4-0.6-2.7-0.7-4c-0.6-5.3,0.2-9.4,2-10.5c0.4-0.2,1-0.4,1.6-0.4V1.5c-1.2,0-2.2,0.2-3.1,0.8
		c-3.9,2.2-4.7,9.2-2.7,17.9C6.8,22.8,1.2,27.1,1.2,31.5c0,4.5,5.6,8.7,14.2,11.4c-2,8.8-1.1,15.7,2.8,18c0.9,0.5,1.9,0.8,3.1,0.8
		c3.8,0,8.8-2.7,13.8-7.4c5,4.7,10,7.3,13.8,7.3c1.2,0,2.2-0.2,3.1-0.8c3.9-2.2,4.7-9.2,2.7-17.9C63.2,40.2,68.8,36,68.8,31.5
		L68.8,31.5z M50.9,22.3c-0.5,1.8-1.1,3.6-1.9,5.4c-0.6-1.1-1.2-2.2-1.8-3.3c-0.6-1.1-1.3-2.2-2-3.2C47.2,21.5,49.1,21.9,50.9,22.3
		L50.9,22.3z M44.6,37c-1.1,1.9-2.2,3.6-3.3,5.3c-2.1,0.2-4.1,0.3-6.2,0.3c-2.1,0-4.2-0.1-6.2-0.3c-1.1-1.6-2.3-3.4-3.3-5.2
		c-1-1.8-2-3.6-2.9-5.5c0.9-1.8,1.8-3.7,2.9-5.5c1.1-1.9,2.2-3.6,3.3-5.3c2.1-0.2,4.1-0.3,6.2-0.3c2.1,0,4.2,0.1,6.2,0.3
		c1.1,1.6,2.3,3.4,3.3,5.2c1,1.8,2,3.6,2.9,5.5C46.5,33.4,45.6,35.2,44.6,37L44.6,37z M49,35.2c0.7,1.8,1.4,3.7,1.9,5.5
		c-1.8,0.4-3.7,0.8-5.7,1.1c0.7-1.1,1.4-2.2,2-3.3C47.9,37.4,48.4,36.3,49,35.2L49,35.2z M35,49.9c-1.3-1.3-2.6-2.8-3.8-4.4
		c1.2,0.1,2.5,0.1,3.8,0.1c1.3,0,2.6,0,3.8-0.1C37.6,47.1,36.3,48.6,35,49.9z M24.8,41.8c-2-0.3-3.8-0.6-5.7-1.1
		c0.5-1.8,1.1-3.6,1.9-5.4c0.6,1.1,1.2,2.2,1.8,3.3C23.4,39.7,24.1,40.8,24.8,41.8z M35,13.1c1.3,1.3,2.6,2.8,3.8,4.4
		c-1.2-0.1-2.5-0.1-3.8-0.1c-1.3,0-2.6,0-3.8,0.1C32.4,15.9,33.7,14.4,35,13.1z M24.8,21.2c-0.7,1.1-1.4,2.2-2,3.3
		c-0.6,1.1-1.2,2.2-1.8,3.3c-0.7-1.8-1.4-3.7-1.9-5.5C20.9,21.9,22.8,21.5,24.8,21.2L24.8,21.2z M12.3,38.5c-4.9-2.1-8-4.8-8-7
		s3.2-4.9,8-7c1.2-0.5,2.5-1,3.8-1.4c0.8,2.7,1.8,5.5,3.1,8.4c-1.3,2.9-2.3,5.7-3.1,8.4C14.8,39.5,13.5,39,12.3,38.5L12.3,38.5z
		 M19.7,58.2c-1.9-1.1-2.7-5.2-2.1-10.4c0.2-1.3,0.4-2.7,0.7-4.1c2.7,0.7,5.7,1.2,8.8,1.5c1.9,2.6,3.8,4.9,5.7,6.9
		c-4.5,4.2-8.7,6.5-11.6,6.5C20.6,58.6,20.1,58.4,19.7,58.2L19.7,58.2z M52.4,47.7c0.6,5.3-0.2,9.4-2,10.5c-0.4,0.2-1,0.4-1.6,0.4
		c-2.9,0-7.1-2.3-11.6-6.4c1.9-2,3.9-4.3,5.7-6.9c3.1-0.3,6.1-0.8,8.8-1.5C52,45.1,52.3,46.4,52.4,47.7z M57.7,38.5
		c-1.2,0.5-2.5,1-3.8,1.4c-0.8-2.7-1.8-5.5-3.1-8.4c1.3-2.9,2.3-5.7,3.1-8.4c1.4,0.4,2.7,0.9,3.9,1.4c4.9,2.1,8,4.8,8,7
		C65.8,33.7,62.6,36.4,57.7,38.5L57.7,38.5z"/>
	<circle class="st0" cx="35" cy="31.5" r="6.3"/>
</g>
</svg>
