<?xml version="1.0" encoding="utf-8"?>
<!-- Generator: Adobe Illustrator 26.0.1, SVG Export Plug-In . SVG Version: 6.00 Build 0)  -->
<!DOCTYPE svg PUBLIC "-//W3C//DTD SVG 1.1//EN" "http://www.w3.org/Graphics/SVG/1.1/DTD/svg11.dtd" [
	<!ENTITY ns_extend "http://ns.adobe.com/Extensibility/1.0/">
	<!ENTITY ns_ai "http://ns.adobe.com/AdobeIllustrator/10.0/">
	<!ENTITY ns_graphs "http://ns.adobe.com/Graphs/1.0/">
	<!ENTITY ns_vars "http://ns.adobe.com/Variables/1.0/">
	<!ENTITY ns_imrep "http://ns.adobe.com/ImageReplacement/1.0/">
	<!ENTITY ns_sfw "http://ns.adobe.com/SaveForWeb/1.0/">
	<!ENTITY ns_custom "http://ns.adobe.com/GenericCustomNamespace/1.0/">
	<!ENTITY ns_adobe_xpath "http://ns.adobe.com/XPath/1.0/">
]>
<svg version="1.1" id="Layer_1" xmlns:x="&ns_extend;" xmlns:i="&ns_ai;" xmlns:graph="&ns_graphs;"
	 xmlns="http://www.w3.org/2000/svg" xmlns:xlink="http://www.w3.org/1999/xlink" x="0px" y="0px" width="64.3px" height="23.8px"
	 viewBox="0 0 64.3 23.8" style="enable-background:new 0 0 64.3 23.8;" xml:space="preserve">
<style type="text/css">
	.st0{fill-rule:evenodd;clip-rule:evenodd;fill:#FFFFFF;}
</style>
<metadata>
	<sfw  xmlns="&ns_sfw;">
		<slices></slices>
		<sliceSourceBounds  bottomLeftOrigin="true" height="19.3" width="64" x="-0.1" y="0"></sliceSourceBounds>
	</sfw>
</metadata>
<path class="st0" d="M39.6,19.6c-3.7,2.7-9.1,4.2-13.7,4.2c-6.5,0-12.3-2.4-16.8-6.4c-0.3-0.3,0-0.7,0.4-0.5
	c4.8,2.8,10.7,4.5,16.8,4.5c4.1,0,8.6-0.9,12.8-2.6C39.7,18.5,40.3,19.2,39.6,19.6"/>
<path class="st0" d="M41.2,17.9c-0.5-0.6-3.1-0.3-4.3-0.1c-0.4,0-0.4-0.3-0.1-0.5c2.1-1.5,5.6-1.1,6-0.6s-0.1,4-2.1,5.7
	c-0.3,0.3-0.6,0.1-0.5-0.2C40.7,21,41.7,18.5,41.2,17.9"/>
<path class="st0" d="M36.9,6.7V5.2c0-0.2,0.2-0.4,0.4-0.4h6.5c0.2,0,0.4,0.2,0.4,0.4v1.2c0,0.2-0.2,0.5-0.5,0.9l-3.4,4.8
	c1.3,0,2.6,0.2,3.7,0.8c0.3,0.1,0.3,0.4,0.3,0.6V15c0,0.2-0.2,0.5-0.5,0.3c-2-1-4.7-1.2-6.9,0c-0.2,0.1-0.5-0.1-0.5-0.3v-1.5
	c0-0.2,0-0.6,0.2-1L40.7,7h-3.4C37.1,7,36.9,6.9,36.9,6.7"/>
<path class="st0" d="M13.2,15.7h-2c-0.2,0-0.3-0.2-0.4-0.3V5.2c0-0.2,0.2-0.4,0.4-0.4H13c0.2,0,0.3,0.2,0.4,0.3v1.3l0,0
	c0.5-1.3,1.4-1.9,2.6-1.9s2,0.6,2.6,1.9c0.5-1.3,1.6-1.9,2.7-1.9c0.8,0,1.7,0.3,2.3,1.1c0.6,0.9,0.5,2.1,0.5,3.2v6.4
	c0,0.2-0.2,0.4-0.4,0.4h-2c-0.2,0-0.4-0.2-0.4-0.4V9.8c0-0.4,0-1.5-0.1-1.9C21.1,7.2,20.6,7,20,7c-0.5,0-1,0.3-1.2,0.8
	s-0.2,1.4-0.2,1.9v5.4c0,0.2-0.2,0.4-0.4,0.4h-2c-0.2,0-0.4-0.2-0.4-0.4V9.7c0-1.1,0.2-2.8-1.2-2.8s-1.4,1.6-1.4,2.8v5.4
	C13.6,15.6,13.4,15.7,13.2,15.7"/>
<path class="st0" d="M49.8,4.7c2.9,0,4.5,2.5,4.5,5.7c0,3.1-1.8,5.6-4.5,5.6c-2.9,0-4.5-2.5-4.5-5.7S46.9,4.7,49.8,4.7 M49.8,6.7
	c-1.5,0-1.6,2-1.6,3.2s0,3.9,1.5,3.9s1.6-2.1,1.6-3.4c0-0.9,0-1.9-0.3-2.7C50.9,7,50.4,6.7,49.8,6.7"/>
<path class="st0" d="M58.1,15.7h-2c-0.2,0-0.4-0.2-0.4-0.4V5.1c0-0.2,0.2-0.3,0.4-0.3H58c0.2,0,0.3,0.1,0.4,0.3v1.6l0,0
	c0.6-1.4,1.3-2.1,2.7-2.1c0.9,0,1.8,0.3,2.3,1.2S63.9,8,63.9,9v6.4c0,0.2-0.2,0.3-0.4,0.3h-2c-0.2,0-0.3-0.1-0.4-0.3V9.9
	c0-1.1,0.1-2.7-1.2-2.7c-0.5,0-0.9,0.3-1.1,0.8c-0.3,0.6-0.3,1.2-0.3,1.9v5.5C58.5,15.6,58.3,15.7,58.1,15.7"/>
<path class="st0" d="M31.8,10.9c0,0.8,0,1.4-0.4,2.1c-0.3,0.6-0.8,0.9-1.4,0.9c-0.8,0-1.2-0.6-1.2-1.4c0-1.7,1.5-2,2.9-2v0.4H31.8z
	 M33.8,15.7c-0.1,0.1-0.3,0.1-0.5,0c-0.7-0.5-0.8-0.8-1.1-1.3c-1.1,1.1-1.9,1.4-3.3,1.4c-1.7,0-3-1-3-3.1c0-1.6,0.9-2.7,2.1-3.2
	c1.1-0.5,2.6-0.6,3.7-0.7V8.6c0-0.5,0-1-0.2-1.4s-0.7-0.5-1.1-0.5c-0.8,0-1.4,0.4-1.6,1.2c0,0.2-0.2,0.4-0.3,0.4L26.6,8
	c-0.2,0-0.3-0.2-0.3-0.4c0.4-2.3,2.5-3,4.4-3c1,0,2.2,0.3,3,1c1,0.9,0.9,2.1,0.9,3.4v3c0,0.9,0.4,1.3,0.7,1.8c0.1,0.2,0.2,0.4,0,0.5
	C34.9,14.7,34.2,15.3,33.8,15.7L33.8,15.7z"/>
<path class="st0" d="M5.8,10.9c0,0.8,0,1.4-0.4,2.1c-0.3,0.6-0.8,0.9-1.4,0.9c-0.8,0-1.2-0.6-1.2-1.4c0-1.7,1.5-2,2.9-2v0.4H5.8z
	 M7.8,15.7c-0.1,0.1-0.3,0.1-0.5,0c-0.7-0.5-0.8-0.8-1.1-1.3c-1.1,1.1-1.9,1.4-3.3,1.4c-1.7,0-3-1-3-3.1c0-1.6,0.9-2.7,2.1-3.2
	C3.2,9.1,4.7,9,5.8,8.9V8.6c0-0.5,0-1-0.2-1.4C5.3,6.8,4.9,6.7,4.5,6.7C3.7,6.7,3.1,7,2.9,7.8c0,0.2-0.2,0.4-0.3,0.4L0.6,8
	C0.5,8,0.3,7.8,0.3,7.6c0.4-2.3,2.5-3,4.4-3c1,0,2.2,0.3,3,1c1,0.9,0.9,2.1,0.9,3.4v3c0,0.9,0.4,1.3,0.7,1.8c0.1,0.2,0.2,0.4,0,0.5
	C8.9,14.7,8.2,15.3,7.8,15.7L7.8,15.7z"/>
</svg>
