<?xml version="1.0" encoding="utf-8"?>
<!-- Generator: Adobe Illustrator 26.0.1, SVG Export Plug-In . SVG Version: 6.00 Build 0)  -->
<!DOCTYPE svg PUBLIC "-//W3C//DTD SVG 1.1//EN" "http://www.w3.org/Graphics/SVG/1.1/DTD/svg11.dtd" [
	<!ENTITY ns_extend "http://ns.adobe.com/Extensibility/1.0/">
	<!ENTITY ns_ai "http://ns.adobe.com/AdobeIllustrator/10.0/">
	<!ENTITY ns_graphs "http://ns.adobe.com/Graphs/1.0/">
	<!ENTITY ns_vars "http://ns.adobe.com/Variables/1.0/">
	<!ENTITY ns_imrep "http://ns.adobe.com/ImageReplacement/1.0/">
	<!ENTITY ns_sfw "http://ns.adobe.com/SaveForWeb/1.0/">
	<!ENTITY ns_custom "http://ns.adobe.com/GenericCustomNamespace/1.0/">
	<!ENTITY ns_adobe_xpath "http://ns.adobe.com/XPath/1.0/">
]>
<svg version="1.1" id="Layer_1" xmlns:x="&ns_extend;" xmlns:i="&ns_ai;" xmlns:graph="&ns_graphs;"
	 xmlns="http://www.w3.org/2000/svg" xmlns:xlink="http://www.w3.org/1999/xlink" x="0px" y="0px" width="130px" height="25.7px"
	 viewBox="0 0 130 25.7" style="enable-background:new 0 0 130 25.7;" xml:space="preserve">
<style type="text/css">
	.st0{fill:#FFFFFF;}
</style>
<metadata>
	<sfw  xmlns="&ns_sfw;">
		<slices></slices>
		<sliceSourceBounds  bottomLeftOrigin="true" height="25.8" width="130" x="0" y="-0.1"></sliceSourceBounds>
	</sfw>
</metadata>
<g>
	<path class="st0" d="M66.9,12.5c-1.1,0-1.9,0.4-2.7,0.7v8.1c0.8,0.1,1.2,0.1,1.9,0.1c2.5,0,2.9-1.2,2.9-2.8v-4
		C69.1,13.5,68.7,12.5,66.9,12.5L66.9,12.5z M49.7,12c-1.7,0-2.1,0.9-2.1,2.1v0.7H52v-0.7C52,13.1,51.6,12,49.7,12z M16.7,20.5
		c0,0.9,0.4,1.5,1.5,1.5s1.7-0.4,2.5-0.7v-1.9h-2.4C17.2,19.3,16.7,19.5,16.7,20.5L16.7,20.5z M83.6,12.5c-1.7,0-2.4,0.9-2.4,2.1V19
		c0,1.2,0.7,2.1,2.4,2.1S86,20.2,86,19v-4.4C86,13.5,85.3,12.5,83.6,12.5z M7.9,25.5H2.7V12.7H0V8.4h2.7V5.7C2.7,2.1,4.1,0,8.3,0
		h3.5v4.4H9.6C8,4.4,7.9,5.1,7.9,6.1v2.1h4l-0.4,4.4H7.9V25.5L7.9,25.5z M25.9,25.5h-4.4l-0.1-1.1c-2,1.1-3.7,1.3-4.9,1.3
		c-3.2,0-4.9-2.1-4.9-5.1c0-3.5,2-4.8,5.6-4.8h3.6V15c0-1.7-0.3-2.3-2.9-2.3h-4.6l0.4-4.4h4.9c6,0,7.3,1.9,7.3,6.8L25.9,25.5
		L25.9,25.5z M40.8,13.1c-2.7-0.5-3.5-0.5-4.8-0.5c-2.4,0-3.1,0.5-3.1,2.5v3.7c0,2,0.7,2.5,3.1,2.5c1.3,0,2.1-0.1,4.8-0.5v4.3
		c-2.4,0.5-4,0.7-5.2,0.7c-5.6,0-7.9-2.9-7.9-7.2v-3.1c0-4.3,2.3-7.3,7.9-7.3c1.3,0,2.9,0.1,5.2,0.7V13.1L40.8,13.1z M57.2,18.4
		h-9.6v0.4c0,2,0.7,2.5,3.1,2.5c2.1,0,3.5-0.1,6.1-0.5v4.3c-2.7,0.5-4,0.7-6.5,0.7c-5.6,0-7.9-2.9-7.9-7.2v-3.5
		c0-3.7,1.7-6.8,7.5-6.8s7.5,3.1,7.5,6.8v3.3C57.3,18.4,57.2,18.4,57.2,18.4z M74.4,18.5c0,4.1-1.2,7.2-8.4,7.2
		c-2.5,0-4.1-0.3-6.9-0.7V1.3l5.2-0.9v8.3C65.5,8.3,67,8,68.3,8c5.2,0,6.1,2.4,6.1,6.1L74.4,18.5L74.4,18.5z M91.2,18.7
		c0,3.6-1.5,7.1-7.6,7.1s-7.7-3.5-7.7-7.1v-3.5c0-3.6,1.5-7.1,7.7-7.1c6.1,0,7.6,3.5,7.6,7.1V18.7L91.2,18.7z M108,18.7
		c0,3.6-1.5,7.1-7.6,7.1s-7.7-3.5-7.7-7.1v-3.5c0-3.6,1.5-7.1,7.7-7.1c6.1,0,7.6,3.5,7.6,7.1V18.7L108,18.7z M125.3,25.5h-5.7
		l-4.8-8v8h-5.2V1.3l5.2-0.9V16l4.8-7.6h5.7l-5.2,8.4L125.3,25.5z M100.4,12.5c-1.7,0-2.4,0.9-2.4,2.1V19c0,1.2,0.7,2.1,2.4,2.1
		s2.4-0.9,2.4-2.1v-4.4C102.8,13.5,102.1,12.5,100.4,12.5L100.4,12.5z M128.4,22.4c0.9,0,1.6,0.7,1.6,1.6s-0.7,1.6-1.6,1.6
		c-0.9,0-1.6-0.7-1.6-1.6C126.8,23.2,127.5,22.4,128.4,22.4L128.4,22.4z M128.4,22.7c-0.7,0-1.3,0.7-1.3,1.3c0,0.8,0.5,1.3,1.3,1.3
		c0.7,0,1.3-0.7,1.3-1.3C129.6,23.3,129.1,22.7,128.4,22.7L128.4,22.7z M128,25.1h-0.3v-1.9c0.1,0,0.3,0,0.5,0c0.3,0,0.4,0,0.5,0.1
		s0.1,0.3,0.1,0.4c0,0.3-0.1,0.4-0.4,0.4l0,0c0.1,0,0.3,0.1,0.3,0.4s0.1,0.4,0.1,0.4h-0.3c0,0-0.1-0.3-0.1-0.4
		c0-0.3-0.1-0.3-0.4-0.3h0V25.1L128,25.1z M128,24h0.3c0.3,0,0.4-0.1,0.4-0.3c0-0.1-0.1-0.3-0.4-0.3c-0.1,0-0.1,0-0.3,0V24L128,24z"
		/>
</g>
</svg>
