<?xml version="1.0" encoding="utf-8"?>
<!-- Generator: Adobe Illustrator 16.0.0, SVG Export Plug-In . SVG Version: 6.00 Build 0)  -->
<!DOCTYPE svg PUBLIC "-//W3C//DTD SVG 1.1//EN" "http://www.w3.org/Graphics/SVG/1.1/DTD/svg11.dtd">
<svg version="1.1" id="Layer_1" xmlns="http://www.w3.org/2000/svg" xmlns:xlink="http://www.w3.org/1999/xlink" x="0px" y="0px"
	 width="78.3px" height="35.7px" viewBox="0 0 78.3 35.7" style="enable-background:new 0 0 78.3 35.7;" xml:space="preserve">
<style type="text/css">
<![CDATA[
	.st0{fill-rule:evenodd;clip-rule:evenodd;fill:#727272;}
	.st1{fill:#727272;}
]]>
</style>
<g>
	<path class="st0" d="M20.2,5.7c-0.6-0.3-1-0.1-1.4-0.3c-0.1-0.4,0-0.8,0-1.2c1.3,0,2.5,0,3.9,0c0,1.6,0,3.3,0,4.9
		C22.9,9.2,23,9.1,23.1,9c1.6-1.8,4.5-1.2,5.5,0.6c0.7,1.1,0.9,2.4,0.8,3.6c-0.1,0.8-0.2,1.7-0.5,2.4c-0.6,1.3-1.6,2.1-3.1,2.2
		c-1.4,0.1-2.6-0.2-3.4-1.3c-0.4,0.3-0.5,0.8-0.9,1.1c-1.1-0.1-2.3,0-3.5,0c-1.2,0-2.4,0-3.5,0c-0.2-0.3,0-0.6-0.2-0.9
		c0,0-0.1,0-0.1,0c-0.7,1.4-2.5,1.5-3.5,1.1c-1-0.4-1.3-1.2-1.3-2.2c0-0.7,0-1.4-0.1-2.2c-0.2-1.4-0.8-2-2.2-2.1
		c-0.6-0.1-1.2,0-1.9,0c0,1.5,0,2.9,0,4.5c0.6,0.6,1.4,0.1,2.2,0.4c0.1,0.4,0,0.9,0,1.3c-2.4,0-4.8,0-7.2,0C0,17,0,16.6,0.1,16.2
		c0.7-0.3,1.5,0.2,2.1-0.4c0-3.3,0-6.5,0-9.8C1.6,5.4,0.8,5.9,0.1,5.6c-0.2-0.4,0-0.9-0.1-1.3c0.2-0.2,0.3-0.1,0.5-0.1
		c2.8,0,5.7,0,8.5,0c0.7,0,1.4,0.1,2,0.4c1.2,0.5,1.7,1.4,1.8,2.6c0,1.7-0.7,2.7-2.3,3.2c-0.3,0.1-0.7,0.2-1,0.3
		C9.7,11,9.9,11,10.1,11c1.1,0.3,1.5,0.9,1.6,2.1c0,0.6,0.1,1.1,0.1,1.7c0,0.4,0.1,0.8,0.4,1.1c0.2,0.1,0.4,0.1,0.7,0
		c0.5-0.6,0.2-1.3,0.4-2c0.4-0.1,0.7,0,1.1-0.1c0.2,0.8,0,1.6-0.1,2.3c0.1,0.1,0.1,0.1,0.1,0.1c1.4,0.1,1.5,0,1.5-1.4
		c0-1.4,0-2.9,0-4.3c0-0.8-0.2-1-1-1c-0.2,0-0.4,0-0.6,0c-0.2-0.4-0.1-0.8-0.1-1.2c1.3,0,2.6,0,3.9,0c0.1,0.2,0.1,0.5,0.1,0.7
		c0,2,0,4,0,6c0,0.4,0,0.7,0.2,1.1c0.5,0.4,1.1,0.1,1.8,0.2c0-1.8,0-3.6,0-5.4C20.3,9.2,20.5,7.4,20.2,5.7z M26.8,12.7
		c0-0.6,0-1.3-0.2-1.9c-0.2-0.6-0.5-1.2-1.2-1.4c-1.3-0.4-2.3,0.2-2.6,1.6c-0.3,1.3-0.3,2.6,0,3.8c0.2,0.9,0.8,1.4,1.8,1.4
		c1,0,1.7-0.6,2-1.7C26.7,14,26.8,13.4,26.8,12.7z M5,9.8c0.2,0,0.4,0,0.5,0c0.9,0,1.7,0,2.6,0c0.3,0,0.7-0.1,1-0.2
		C9.6,9.4,9.9,9,10,8.6C10.4,7,10,5.8,8.1,5.7c-0.1,0-0.2,0-0.3,0c-0.9,0-1.9,0-2.8,0C5,7,5,8.4,5,9.8z"/>
	<path class="st0" d="M38.8,15.6c0.6,1.7,1.7,2.5,3.1,3.2c1.9,0.9,3.9,1.2,5.9,1.3c1.1,0,2.2-0.1,3.3-0.2c1.3-0.2,2.5-0.5,3.6-1.1
		c1.4-0.7,2.4-1.8,2.8-3.3c0.2-0.9,0.2-1.7-0.4-2.5c-0.6-0.9-1.5-1.4-2.5-1.8c-0.2-0.1-0.5-0.1-0.6-0.3c0-0.2,0.2-0.2,0.4-0.3
		c1-0.6,1.8-1.4,2-2.7c0.1-0.5,0-1-0.3-1.4c-0.3-0.4-0.8-0.6-1.3-0.7c-0.2,0-0.3,0.1-0.5,0.1c-0.7,0.2-1.2,0.7-1.3,1.4
		c0,0.8,0.3,1.3,1.1,1.5c0.3,0.1,0.7,0,0.9,0.4c-0.1,0.4-0.3,0.7-0.6,0.9c-0.6,0.4-1.2,0.5-1.9,0.6c-1.1,0-2.2,0.1-3.3,0.5
		c-1.3,0.5-2,1.4-2.3,2.7c-0.2,1.1,0.3,1.8,1.3,2.1c0.9,0.3,1.8-0.2,2-1c0.2-0.8-0.3-2-1.2-2c-0.2,0-0.4-0.1-0.6-0.2
		c0-0.6,0.3-1,0.9-1.2c1.2-0.4,2.4-0.6,3.6-0.3c0.9,0.2,1.7,0.7,2,1.7c0.2,0.5,0.2,1.1,0.2,1.7c0,1.9-0.9,3.3-2.6,4.1
		c-2.6,1.2-5.4,1.2-8.1,0.2c-0.9-0.3-1.6-0.9-2.2-1.6c-1.1-1.4-1.2-3.1-0.8-4.7c0.4-1.7,1.5-2.8,3.2-3.3C45.6,9,46.3,9,47.1,9
		c0.1,0,0.2,0,0.3-0.1c0-0.1,0.1-0.2-0.1-0.3c-0.1,0-0.4,0-0.6,0C45.6,8.4,44.6,8,44,7c-0.7-1.1-0.7-2.3-0.5-3.5
		c0.1-0.8,0.5-1.6,1.2-2c1.8-1.2,3.7-1.2,5.7-0.2c0.4,0.2,0.7,0.6,0.6,1.1c-0.4,0.4-1,0.3-1.4,0.6c-0.5,0.3-0.5,0.8-0.6,1.3
		c0,0.1,0,0.1,0.1,0.2c0.3,0.8,0.7,1.2,1.5,1.2c0.7,0,1.4-0.6,1.6-1.2c0.3-1,0-1.9-0.7-2.7c-1.1-1.3-2.6-1.6-4.2-1.7
		c-1.1-0.1-2.2,0.1-3.2,0.5c-1.5,0.6-2.7,1.6-3.1,3.3C40.7,5,40.9,6.1,41.8,7c0.6,0.6,1.4,1.1,2.2,1.4c0,0.1,0.1,0.2-0.1,0.4
		c-2.8,0.7-5.1,2.2-5.4,5.4C38.5,14.2,38.5,14.9,38.8,15.6z"/>
	<path class="st0" d="M38.5,15.5c-0.3,1.3-1.3,2.1-2.7,2.3c-1.5,0.2-2.9,0.1-4.1-0.9c-0.3,0.1-0.3,0.4-0.6,0.6c-0.3,0.1-0.7,0-1.2,0
		c0-1.2,0-2.4,0-3.6c0.4,0,0.9,0,1.3,0c0.2,0.2,0.2,0.4,0.3,0.6c0.6,1.4,2.2,2.2,3.6,1.9c0.3-0.1,0.6-0.2,0.8-0.4
		c0.5-0.5,0.4-1.1-0.1-1.5c-0.5-0.3-1-0.4-1.5-0.6c-0.9-0.2-1.8-0.4-2.7-0.8c-0.7-0.3-1.2-0.7-1.5-1.5c-0.4-1.2,0.1-2.5,1.2-3.2
		c1.5-0.9,3-0.8,4.5-0.1c0.1,0.1,0.2,0.1,0.4,0.2c0.1,0.1,0.2,0.1,0.4,0.2c0.2-0.1,0.3-0.4,0.5-0.6c0.3-0.1,0.6,0,1,0
		c0,1.1,0,2.1,0,3.2c-0.4,0.1-0.8,0.1-1.1,0.1c-0.2-0.2-0.3-0.4-0.4-0.6c-0.7-1.5-2.4-1.8-3.4-1.5c-0.6,0.2-0.8,0.5-0.8,1.2
		c0.2,0.4,0.7,0.5,1.1,0.7c0.8,0.2,1.6,0.5,2.3,0.7c0.4,0.1,0.8,0.3,1.2,0.5c0.7,0.3,1.1,0.9,1.5,1.7C38.5,14.1,38.7,14.7,38.5,15.5
		z"/>
	<path class="st0" d="M42.5,22.7c0.8-0.8,1.8-1.2,2.9-0.8c1,0.4,1.3,1.2,1.3,2.3c0.9-1.4,2.1-2.3,3.7-2.4c0.9-0.1,1.8,0.1,2.5,0.5
		c1.6,0.9,2.6,2.9,2.2,4.7c-2.1,0-4.1,0-6.2,0c-0.4,1.4,0.4,2.9,1.5,3.2c1.5,0.4,2.5-0.2,3.2-2c0.5,0,1,0,1.5,0c0,1.1-0.4,2-1.3,2.7
		c-1.7,1.4-4.9,1.2-6.4-0.4c-0.9-0.9-1.1-2.1-1.2-3.3c-0.1-0.7,0-1.4,0.2-2c0-0.1,0.1-0.3,0-0.4c-0.5,0.3-1,0.5-1.5,0.3
		c-0.3-0.1-0.5-0.2-0.6-0.5c-0.3-0.6-0.1-1.2,0.7-1.7c-0.7-0.5-1.3-0.3-1.9,0.6c0,0.1,0,0.2,0.1,0.3c1,1.7,0.4,4.2-2.4,4.9
		c-1.2,0.3-2.5,0.2-3.7-0.1c-0.6,0.4-0.6,0.4-0.5,1.1c0.4,0.3,0.9,0.4,1.4,0.4c1.2,0,2.5,0,3.7,0c0.4,0,0.9,0,1.3,0.2
		c0.9,0.3,1.6,0.8,1.8,1.8c0.2,1,0,2-0.9,2.7c-0.6,0.5-1.3,0.8-2.1,0.9c-1.9,0.3-3.8,0.3-5.7-0.1c-0.4-0.1-0.9-0.3-1.2-0.5
		c-0.5-0.4-0.8-0.9-0.7-1.5c0.1-0.6,0.4-1,1-1.2c0.3-0.1,0.6-0.2,1-0.2c-1.4-0.5-1.7-0.8-1.6-2c0-0.9,0.6-1.4,1.7-1.7
		c0-0.1,0-0.1-0.1-0.2c-1.9-1.4-1.7-4.2,0.3-5.5c1-0.6,2.1-0.8,3.3-0.7C40.7,21.9,41.6,22.1,42.5,22.7z M39.1,34.6
		c0.4,0,0.6,0,0.9,0c0.6,0,1.2-0.1,1.8-0.4c0.4-0.2,0.7-0.4,0.7-0.9c0.1-0.8-0.4-1.3-1.2-1.3c-1.2,0-2.3,0-3.5,0
		c-0.3,0-0.5,0.1-0.8,0.2c-0.6,0.2-1,0.7-0.9,1.2c0,0.6,0.4,0.8,0.9,1C37.8,34.6,38.5,34.6,39.1,34.6z M40.9,25.3c0-0.5,0-1-0.2-1.4
		c-0.2-0.7-0.8-1.1-1.5-1.1c-0.7,0-1.3,0.3-1.6,1c-0.4,1-0.4,2,0,2.9c0.2,0.7,0.8,1,1.5,1c0.7,0,1.3-0.4,1.5-1
		C40.9,26.2,40.9,25.8,40.9,25.3z M52.5,25.6c0-0.9-0.1-1.8-0.9-2.3c-0.6-0.3-1.2-0.3-1.8,0c-0.8,0.5-1,1.3-1,2.2
		C50.1,25.6,51.3,25.6,52.5,25.6z"/>
	<path class="st0" d="M19.3,23.3c0-0.5,0-0.8,0-1.3c1.4,0,2.8,0,4.2,0c0.1,0.3,0.1,0.5,0.1,0.8c0,2.1,0,4.1,0,6.2
		c0,0.9,0.2,1.1,1.1,1.1c0.5,0,1,0,1.6,0c0.6,0,0.9-0.2,0.9-0.8c0-1.7,0-3.5,0-5.2c0-0.5-0.3-0.8-0.8-0.8c-0.3,0-0.7,0-1,0
		c-0.1-0.4,0-0.8,0-1.3c1.4,0,2.7,0,4.1,0c0,0.5,0,0.9,0,1.5c0.4-0.3,0.6-0.6,0.8-0.9c0.7-0.8,1.6-1,2.6-0.7
		c1.1,0.4,1.8,1.6,1.4,2.7c-0.3,0.9-1.2,1.3-2,0.9c-0.5-0.2-0.8-0.6-0.8-1.1c0-0.5,0.3-0.9,0.8-1.1c0.1-0.1,0.3-0.1,0.4-0.1
		c-0.3-0.3-0.6-0.3-0.9-0.3c-1,0.1-1.9,0.9-2.2,2c-0.1,0.3-0.2,0.7-0.2,1.1c0,1.1,0,2.1,0,3.2c0,0.8,0.2,1,1,1c0.3,0,0.6,0,1,0
		c0.1,0.4,0.1,0.8,0,1.2c-0.5,0.1-9.2,0.2-10.1,0c0-0.5,0-0.9,0-1.5c-0.3,0.1-0.3,0.3-0.4,0.5c-1,1.5-3.5,1.7-4.7,1
		c-0.9-0.5-1.2-1.4-1.2-2.4c0-1.5,0-3,0-4.5c0-1-0.1-1.1-1.1-1.1c-0.2,0-0.4,0-0.6-0.1c0-0.4,0-0.7,0-1.2c1.3,0,2.6,0,4,0
		c0.2,0.2,0.1,0.5,0.1,0.7c0,1.7,0,3.5,0,5.2c0,0.1,0,0.3,0,0.4c0,1.5,1.1,2.2,2.5,1.6c1-0.4,1.5-1.3,1.5-2.4c0.1-1.1,0-2.3,0-3.4
		c0-0.6-0.3-0.9-0.9-0.9c-0.2,0-0.4,0-0.5,0C19.7,23.3,19.5,23.3,19.3,23.3z"/>
	<path class="st0" d="M2.1,29.7c0.2-0.9,0.1-9.5-0.1-10c-0.6-0.4-1.3-0.1-2-0.3c-0.1-0.4-0.1-0.9,0-1.3c0.1,0,0.2-0.1,0.3-0.1
		c2.8,0,5.7-0.1,8.5,0.1c0.7,0,1.4,0.2,2,0.5c1.2,0.6,1.6,1.5,1.6,2.8c0,1.2-0.6,2-1.6,2.5c-0.3,0.1-0.7,0.2-1,0.4
		c0.3,0.2,0.6,0.2,1,0.4c1.5,0.5,2.3,1.5,2.1,3.5c-0.2,1.9-1.2,2.9-3.1,3.2c-0.7,0.1-1.3,0.1-2,0.1c-2.4,0-4.7,0-7.1,0
		c-0.2,0-0.5,0-0.8-0.1c-0.1-0.4,0-0.9,0-1.3C0.7,29.8,1.5,30.2,2.1,29.7z M5,30c1.1,0,2,0.1,3,0c0.6-0.1,1.2-0.2,1.6-0.7
		c0.5-0.5,0.5-1.2,0.5-1.8c0-1.2-0.7-1.9-1.8-2.1c-0.8-0.1-1.6-0.1-2.4-0.1c-0.3,0-0.7-0.1-1,0.1C5,26.9,5,28.4,5,30z M5,23.7
		c1,0,2,0.1,2.9,0c1.3-0.1,2-0.9,1.8-2.4c-0.1-0.8-0.5-1.4-1.3-1.6c-1.1-0.3-2.3-0.2-3.4-0.2C5,21,5,22.3,5,23.7z"/>
	<path class="st0" d="M66.3,24.2c0.1,0.5,0.4,0.7,0.8,0.8c0.7,0.2,1.3,0.4,2,0.6c0.8,0.2,1.6,0.5,2.4,1c1.5,0.9,1.5,3.6-0.2,4.5
		c-1.1,0.6-2.2,0.7-3.4,0.5c-0.8-0.1-1.6-0.4-2.2-0.9c-0.3,0.1-0.3,0.4-0.5,0.6c-0.3,0.1-0.7,0-1.2,0c0-1.2,0-2.4,0-3.6
		c0.5-0.1,0.9-0.1,1.4,0c0.2,0.7,0.5,1.3,1.1,1.8c0.8,0.7,1.8,0.8,2.8,0.7c0.3,0,0.5-0.2,0.7-0.4c0.5-0.5,0.5-1.2-0.1-1.6
		c-0.4-0.3-0.8-0.4-1.2-0.5c-0.8-0.2-1.6-0.4-2.4-0.7c-0.4-0.2-0.9-0.4-1.3-0.7c-0.7-0.5-0.9-1.2-1-2.1c-0.4,0.8-1,1.2-1.8,1.1
		c-0.6-0.1-1-0.5-1-1c-0.1-0.7,0.1-1,1.1-1.5c-0.5-0.3-1.1-0.3-1.7,0c-0.9,0.5-1.3,1.4-1.4,2.4c-0.1,1.3,0,2.6,0,3.9
		c0,0.5,0.2,0.7,0.7,0.7c0.4,0,0.8,0,1.2,0c0.1,0.4,0.1,0.8,0.1,1.3c-2.1,0-4.1,0-6.2,0c-0.1-0.4-0.1-0.8,0-1.2
		c0.4-0.1,0.7,0,1.1-0.1c0.5,0,0.6-0.2,0.7-0.6c0,0,0-0.1,0-0.1c0-1.8,0-3.5,0-5.3c0-0.2-0.1-0.3-0.1-0.4c-0.5-0.5-1.1-0.2-1.7-0.4
		c-0.1-0.4,0-0.7,0-1.1c0.5-0.2,3.4-0.2,4.1,0c0.1,0.4,0,0.8,0.1,1.3c0.3-0.2,0.4-0.5,0.6-0.8c0.7-0.9,1.7-1.2,2.8-0.8
		c1,0.4,1.4,1.1,1.4,2.2c0.1,0,0.1,0,0.1,0c0.7-1.6,2.4-2.6,4.1-2.3c0.4,0.1,0.8,0.1,1.2,0.3c0.4,0.2,0.7,0.4,1.1,0.5
		c0.3-0.1,0.3-0.4,0.5-0.6c0.3-0.1,0.6,0,0.9,0c0.1,0.2,0.1,0.4,0.1,0.5c0,0.9,0,1.8,0,2.7c-0.5,0-0.8,0-1.3,0
		c-0.1-0.3-0.3-0.5-0.4-0.8c-0.7-1.3-2.1-1.5-3.2-1.3C66.8,23.3,66.4,23.7,66.3,24.2z"/>
	<path class="st0" d="M72.7,24.1c0-1.6,1.4-2.4,2.5-2.3c1.4,0,2.4,1.1,2.4,2.4c0,1.4-1.1,2.4-2.5,2.3C73.6,26.6,72.6,25.5,72.7,24.1
		z M75.1,26.1c1.1,0,1.9-0.8,1.8-1.9c0-1.2-0.8-1.9-1.8-1.9c-1,0-1.8,0.8-1.8,1.8C73.3,25.1,73.8,26.1,75.1,26.1z"/>
	<path class="st0" d="M15.5,5.4c0.3-1,0.8-1.5,1.6-1.4c0.7,0.1,1.2,0.7,1.2,1.4c0,0.8-0.4,1.3-1.1,1.4C16.3,6.9,15.8,6.5,15.5,5.4z"
		/>
	<path class="st0" d="M39.1,34.6c-0.6,0-1.3,0-2-0.2c-0.5-0.2-0.9-0.4-0.9-1c0-0.5,0.3-1,0.9-1.2c0.3-0.1,0.5-0.2,0.8-0.2
		c1.2,0,2.3,0,3.5,0c0.8,0,1.3,0.6,1.2,1.3c0,0.5-0.3,0.7-0.7,0.9c-0.6,0.3-1.2,0.3-1.8,0.4C39.7,34.6,39.5,34.6,39.1,34.6z"/>
	<path class="st0" d="M75.1,26.1c-1.3,0-1.8-1-1.8-2c0-1.1,0.8-1.9,1.8-1.8c1,0,1.8,0.7,1.8,1.9C76.9,25.3,76.1,26.1,75.1,26.1z
		 M76.1,25.4c-0.1-0.4-0.4-0.6-0.5-1c0.1-0.2,0.3-0.2,0.4-0.3c0.4-0.4,0.3-1.1-0.3-1.2c-0.5-0.1-1-0.2-1.4,0c0,0.9,0,1.7,0,2.5
		c0.1,0.1,0.3,0.1,0.4,0c0.1-0.3-0.1-0.7,0.2-1c0.6,0.1,0.6,0.8,0.9,1.1C75.8,25.5,75.9,25.6,76.1,25.4z"/>
	<rect x="0.1" y="33.7" class="st0" width="7.1" height="0.7"/>
	<rect x="8.3" y="33.7" class="st0" width="7.1" height="0.7"/>
	<rect x="16.5" y="33.7" class="st0" width="7.1" height="0.7"/>
	<rect x="24.7" y="33.7" class="st0" width="7.1" height="0.7"/>
	<g>
		<path class="st1" d="M74.8,24.5v0.9h-0.4V23h0.7c0.2,0,0.3,0,0.4,0c0.1,0,0.2,0.1,0.3,0.1c0.1,0.1,0.1,0.1,0.2,0.2
			c0,0.1,0.1,0.2,0.1,0.3c0,0.1,0,0.2,0,0.2s-0.1,0.1-0.1,0.2c0,0.1-0.1,0.1-0.2,0.1c-0.1,0-0.1,0.1-0.2,0.1c0.1,0,0.1,0.1,0.1,0.1
			l0.6,0.9h-0.4c0,0-0.1,0-0.1,0c0,0,0,0-0.1-0.1l-0.5-0.7c0,0,0,0-0.1-0.1c0,0-0.1,0-0.1,0H74.8z M74.8,24.1h0.3c0.1,0,0.2,0,0.2,0
			c0.1,0,0.1,0,0.2-0.1c0,0,0.1-0.1,0.1-0.1c0,0,0-0.1,0-0.2c0-0.1,0-0.2-0.1-0.3c-0.1-0.1-0.2-0.1-0.4-0.1h-0.3V24.1z"/>
	</g>
	<rect x="46.7" y="33.7" class="st0" width="7.1" height="0.7"/>
	<rect x="54.8" y="33.7" class="st0" width="7.1" height="0.7"/>
	<rect x="63.1" y="33.7" class="st0" width="7.1" height="0.7"/>
	<rect x="71.2" y="33.7" class="st0" width="7.1" height="0.7"/>
</g>
</svg>
