<?xml version="1.0" encoding="utf-8"?>
<!-- Generator: Adobe Illustrator 24.0.0, SVG Export Plug-In . SVG Version: 6.00 Build 0)  -->
<svg version="1.1" id="Layer_1" xmlns="http://www.w3.org/2000/svg" xmlns:xlink="http://www.w3.org/1999/xlink" x="0px" y="0px"
	 viewBox="0 0 155 45" style="enable-background:new 0 0 155 45;" xml:space="preserve">
<style type="text/css">
	.st0{fill-rule:evenodd;clip-rule:evenodd;fill:#727272;}
</style>
<g id="Page-1_3_">
	<g id="Global-Elements_3_" transform="translate(-389.000000, -140.000000)">
		<g id="Global-Nav-Copy-16_3_" transform="translate(290.000000, 125.000000)">
			<g id="WWR_logo_3_" transform="translate(99.000000, 15.000000)">
				<g id="Group-10_3_">
					<path id="Fill-1_3_" class="st0" d="M39.23,41.1c0,0.68-0.53,1.17-1.17,1.17c-0.65,0-1.17-0.49-1.17-1.17
						c0-0.68,0.53-1.17,1.17-1.17C38.71,39.93,39.23,40.43,39.23,41.1z M39.04,41.1c0-0.56-0.43-0.99-0.98-0.99
						c-0.54,0-0.98,0.42-0.98,0.99c0,0.56,0.43,0.99,0.98,0.99C38.6,42.09,39.04,41.67,39.04,41.1z M38.31,41.68
						c-0.03-0.04-0.05-0.07-0.06-0.13l-0.03-0.17c-0.03-0.1-0.08-0.13-0.17-0.13h-0.18v0.43h-0.28V40.5h0.55
						c0.27,0,0.43,0.11,0.43,0.35c0,0.17-0.12,0.28-0.25,0.3c0.1,0.02,0.17,0.07,0.19,0.19l0.06,0.21c0.01,0.05,0.03,0.1,0.07,0.14
						H38.31z M38.08,40.72h-0.22v0.32h0.22c0.11,0,0.18-0.05,0.18-0.16C38.26,40.78,38.19,40.72,38.08,40.72z"/>
					<path id="Fill-3_3_" class="st0" d="M42.01,22.5c0-11.33-9.18-20.51-20.51-20.51C10.18,1.99,1,11.17,1,22.5
						c0,11.33,9.18,20.51,20.51,20.51C32.83,43.01,42.01,33.83,42.01,22.5z M27.63,23.28h4.04l-4.04,13.67h-4.21l-1.89-8.4h-0.05
						l-1.89,8.4h-4.21l-4.04-13.67h4.04L11.34,9.61h4.29l1.95,8.83h0.05l2.04-8.83h3.66l2.04,8.83h0.05l1.95-8.83h4.29L27.63,23.28z
						 M25.43,32.12l1.95-8.83h-3.96l-1.89-8.4h-0.05l-1.89,8.4h-3.96l1.95,8.83h0.05l2.04-8.83h3.66l2.04,8.83H25.43z"/>
					<path id="Fill-6_3_" class="st0" d="M54.37,25.45c-1.39-0.25-2.38,0.54-2.67,1.79l-0.28-1.67h-2.08v7.34h2.39v-3.38
						c0-1.25,0.73-1.81,1.6-1.81c0.35,0,0.68,0.06,0.91,0.16L54.37,25.45z M58.11,31.31c-0.81,0-1.36-0.61-1.38-1.65h4.46
						c0.07-0.25,0.13-0.67,0.13-0.97c0-1.81-1.04-3.29-3.19-3.29c-2.29,0-3.69,1.52-3.69,3.92c0,2.37,1.42,3.77,3.63,3.77
						c1.42,0,2.74-0.62,3.19-2.05l-1.95-0.67C59.13,31.02,58.7,31.31,58.11,31.31z M56.76,28.53c0.07-0.9,0.57-1.45,1.31-1.45
						c0.68,0,1.04,0.52,1.04,1.12c0,0.12,0,0.23-0.03,0.33H56.76z M65.02,23.51c0-0.83-0.67-1.29-1.39-1.29
						c-0.73,0-1.39,0.46-1.39,1.29c0,0.81,0.67,1.28,1.39,1.28C64.35,24.78,65.02,24.32,65.02,23.51z M62.42,32.91h2.39v-7.34h-2.39
						V32.91z M73.05,26.94c-0.29-1.02-1.12-1.55-2.16-1.55c-1.03,0-1.92,0.55-2.25,1.58l-0.29-1.41H66.3v7.34h2.39v-3.99
						c0-1.1,0.52-1.54,1.13-1.54c0.7,0,0.93,0.42,0.93,1.15v4.38h2.39v-3.99c0-1.1,0.54-1.54,1.13-1.54c0.71,0,0.93,0.42,0.93,1.15
						v4.38h2.41v-5.17c0-1.57-0.97-2.35-2.28-2.35C74.3,25.39,73.41,25.96,73.05,26.94z M85.19,27.86c0-1.55-0.94-2.47-3.03-2.47
						c-1.86,0-3.03,0.91-3.16,2.38l2.19,0.3c0-0.62,0.31-0.99,0.87-0.99c0.55,0,0.83,0.32,0.83,0.86v0.74
						c-0.25-0.01-0.62-0.04-0.91-0.04c-2.08,0-3.34,0.81-3.34,2.28c0,1.35,0.94,2.13,2.32,2.13c0.97,0,1.81-0.44,2.12-1.15
						c0.06,0.19,0.13,0.35,0.25,0.48c0.32,0.42,0.84,0.67,1.51,0.67c0.49,0,0.99-0.13,1.32-0.36l-0.09-1.55
						c-0.12,0.1-0.25,0.16-0.41,0.16c-0.26,0-0.46-0.15-0.46-0.52V27.86z M82.88,30.3c0,0.88-0.55,1.2-1.09,1.2
						c-0.55,0-0.87-0.3-0.87-0.77c0-0.59,0.49-0.9,1.45-0.9c0.19,0,0.38,0.01,0.51,0.03V30.3z M89.09,27.86
						c0-0.7,0.35-1.09,0.99-1.09c0.61,0,0.97,0.38,0.97,1.09c0,0.7-0.36,1.09-0.97,1.09C89.44,28.95,89.09,28.53,89.09,27.86z
						 M94.15,33.23c0-1.44-0.99-2.21-3.02-2.21h-1.94c-0.29,0-0.51-0.1-0.51-0.36c0-0.22,0.13-0.36,0.35-0.47
						c0.33,0.07,0.68,0.1,1.04,0.1c1.89,0,3.34-0.78,3.34-2.42c0-0.48-0.15-0.9-0.39-1.25c0.62-0.14,1.25-0.61,1.35-1.36l-1.9-0.62
						c-0.04,0.45-0.16,0.93-0.39,1.19c-0.55-0.28-1.23-0.44-2-0.44c-1.99,0-3.32,0.87-3.32,2.48c0,0.97,0.54,1.65,1.39,2.05
						c-0.75,0.17-1.33,0.71-1.33,1.45c0,0.71,0.43,1.19,1.04,1.36c-0.93,0.13-1.58,0.62-1.58,1.39c0,1.38,1.83,1.83,3.56,1.83
						C91.98,35.96,94.15,35.23,94.15,33.23z M88.2,33.72c0-0.41,0.33-0.64,0.84-0.64h2.08c0.59,0,0.94,0.19,0.94,0.58
						c0,0.6-0.84,0.87-2.15,0.87C88.86,34.53,88.2,34.27,88.2,33.72z M97.63,23.51c0-0.83-0.67-1.29-1.39-1.29
						c-0.73,0-1.39,0.46-1.39,1.29c0,0.81,0.67,1.28,1.39,1.28C96.97,24.78,97.63,24.32,97.63,23.51z M95.04,32.91h2.39v-7.34h-2.39
						V32.91z M100.97,25.57h-2.05v7.34h2.39v-3.98c0-1.12,0.57-1.55,1.23-1.55c0.7,0,0.96,0.43,0.96,1.16v4.37h2.39v-5.14
						c0-1.57-0.97-2.38-2.29-2.38c-1.1,0-1.99,0.57-2.35,1.58L100.97,25.57z M110.63,31.31c-0.81,0-1.36-0.61-1.38-1.65h4.46
						c0.07-0.25,0.13-0.67,0.13-0.97c0-1.81-1.04-3.29-3.19-3.29c-2.29,0-3.69,1.52-3.69,3.92c0,2.37,1.42,3.77,3.63,3.77
						c1.42,0,2.74-0.62,3.19-2.05l-1.94-0.67C111.65,31.02,111.23,31.31,110.63,31.31z M109.28,28.53c0.07-0.9,0.57-1.45,1.31-1.45
						c0.68,0,1.04,0.52,1.04,1.12c0,0.12,0,0.23-0.03,0.33H109.28z M119.69,29.53c0,1.15-0.6,1.7-1.31,1.7
						c-0.83,0-1.35-0.67-1.35-1.92c0-1.45,0.52-2.18,1.39-2.18c0.64,0,1.26,0.49,1.26,1.52V29.53z M120.02,32.91h2.08V22.43h-2.41
						v4.08c-0.26-0.67-0.99-1.12-2.02-1.12c-1.84,0-3.09,1.44-3.09,4.01c0,2.34,1.31,3.69,2.95,3.69c1.06,0,1.92-0.52,2.22-1.52
						L120.02,32.91z"/>
					<path id="Fill-8_3_" class="st0" d="M53.77,12.5l-1.07,4.75h-0.03l-1.02-4.75h-2.38l1.99,7.34h2.31l1.06-4.51h0.03l1.06,4.51
						h2.31l1.99-7.34h-2.29l-1.02,4.75h-0.03l-1.09-4.75H53.77z M63.93,18.25c-0.81,0-1.36-0.61-1.38-1.65h4.45
						c0.07-0.25,0.13-0.67,0.13-0.97c0-1.81-1.04-3.29-3.19-3.29c-2.29,0-3.69,1.52-3.69,3.92c0,2.37,1.42,3.77,3.63,3.77
						c1.42,0,2.74-0.62,3.19-2.05l-1.95-0.67C64.95,17.96,64.53,18.25,63.93,18.25z M62.58,15.47c0.07-0.9,0.57-1.45,1.31-1.45
						c0.68,0,1.04,0.52,1.04,1.12c0,0.12,0,0.23-0.03,0.33H62.58z M70.84,10.44c0-0.83-0.67-1.29-1.39-1.29
						c-0.73,0-1.39,0.47-1.39,1.29c0,0.81,0.67,1.28,1.39,1.28C70.17,11.72,70.84,11.26,70.84,10.44z M68.24,19.85h2.4V12.5h-2.4
						V19.85z M74.17,14.8c0-0.7,0.35-1.09,0.99-1.09c0.61,0,0.97,0.38,0.97,1.09c0,0.7-0.36,1.09-0.97,1.09
						C74.52,15.89,74.17,15.47,74.17,14.8z M79.23,20.17c0-1.44-0.99-2.21-3.02-2.21h-1.95c-0.29,0-0.51-0.1-0.51-0.36
						c0-0.22,0.13-0.36,0.35-0.46c0.33,0.07,0.68,0.1,1.05,0.1c1.89,0,3.34-0.78,3.34-2.42c0-0.48-0.14-0.9-0.39-1.25
						c0.62-0.15,1.25-0.61,1.35-1.36l-1.9-0.62c-0.04,0.45-0.16,0.93-0.39,1.19c-0.55-0.28-1.23-0.43-2-0.43
						c-1.99,0-3.32,0.87-3.32,2.48c0,0.97,0.54,1.65,1.39,2.05c-0.76,0.17-1.33,0.71-1.33,1.45c0,0.71,0.43,1.19,1.04,1.36
						c-0.93,0.13-1.58,0.62-1.58,1.39c0,1.38,1.83,1.83,3.55,1.83C77.06,22.9,79.23,22.17,79.23,20.17z M73.28,20.66
						c0-0.41,0.33-0.64,0.84-0.64h2.07c0.6,0,0.94,0.19,0.94,0.58c0,0.6-0.84,0.87-2.15,0.87C73.94,21.47,73.28,21.21,73.28,20.66z
						 M82.53,9.37h-2.4v10.48h2.4v-3.98c0-1.12,0.57-1.55,1.23-1.55c0.7,0,0.96,0.43,0.96,1.16v4.37h2.39v-5.14
						c0-1.57-0.97-2.38-2.29-2.38c-1.04,0-1.9,0.52-2.29,1.48V9.37z M93.17,17.73c-0.38,0.26-0.71,0.38-1.1,0.38
						c-0.52,0-0.83-0.28-0.83-0.89v-2.96h1.92V12.5h-1.9v-1.84l-2.39,0.29v1.55H87.9v1.76h0.94v3.28c0,1.73,1.07,2.48,2.63,2.48
						c0.77,0,1.48-0.22,2-0.61L93.17,17.73z M98.31,12.5l-1.07,4.75H97.2l-1.02-4.75h-2.38l1.99,7.34h2.31l1.06-4.51h0.03l1.06,4.51
						h2.31l1.99-7.34h-2.29l-1.02,4.75h-0.03l-1.09-4.75H98.31z M111.29,14.8c0-1.55-0.94-2.47-3.03-2.47
						c-1.86,0-3.03,0.91-3.16,2.38l2.19,0.3c0-0.62,0.31-0.99,0.87-0.99c0.55,0,0.83,0.32,0.83,0.86v0.74
						c-0.25-0.01-0.62-0.04-0.91-0.04c-2.08,0-3.34,0.81-3.34,2.28c0,1.35,0.94,2.13,2.32,2.13c0.97,0,1.81-0.44,2.12-1.15
						c0.06,0.19,0.13,0.35,0.25,0.48c0.32,0.42,0.84,0.67,1.51,0.67c0.49,0,0.99-0.13,1.32-0.36l-0.09-1.55
						c-0.12,0.1-0.25,0.16-0.41,0.16c-0.26,0-0.46-0.14-0.46-0.52V14.8z M108.99,17.24c0,0.89-0.55,1.2-1.09,1.2
						c-0.55,0-0.87-0.3-0.87-0.77c0-0.6,0.49-0.9,1.45-0.9c0.19,0,0.38,0.01,0.51,0.03V17.24z M117.6,17.73
						c-0.38,0.26-0.71,0.38-1.1,0.38c-0.52,0-0.83-0.28-0.83-0.89v-2.96h1.92V12.5h-1.9v-1.84l-2.4,0.29v1.55h-0.96v1.76h0.94v3.28
						c0,1.73,1.07,2.48,2.63,2.48c0.77,0,1.48-0.22,2-0.61L117.6,17.73z M118.35,16.18c0,2.4,1.44,3.85,3.67,3.85
						c1.64,0,2.84-0.87,3.12-2.31l-2.08-0.64c-0.07,0.74-0.46,1.18-1.06,1.18c-0.86,0-1.28-0.75-1.28-2.08
						c0-1.25,0.39-2.09,1.28-2.09c0.67,0,0.97,0.52,1.03,1.19l2.06-0.45c-0.15-1.49-1.31-2.5-3.14-2.5
						C119.78,12.33,118.35,13.78,118.35,16.18z M128.51,9.37h-2.39v10.48h2.39v-3.98c0-1.12,0.57-1.55,1.23-1.55
						c0.7,0,0.96,0.43,0.96,1.16v4.37h2.39v-5.14c0-1.57-0.97-2.38-2.29-2.38c-1.04,0-1.9,0.52-2.29,1.48V9.37z M137.83,18.25
						c-0.81,0-1.36-0.61-1.38-1.65h4.46c0.07-0.25,0.13-0.67,0.13-0.97c0-1.81-1.04-3.29-3.19-3.29c-2.29,0-3.69,1.52-3.69,3.92
						c0,2.37,1.42,3.77,3.63,3.77c1.42,0,2.74-0.62,3.19-2.05l-1.95-0.67C138.84,17.96,138.42,18.25,137.83,18.25z M136.48,15.47
						c0.07-0.9,0.57-1.45,1.31-1.45c0.68,0,1.04,0.52,1.04,1.12c0,0.12,0,0.23-0.03,0.33H136.48z M147.19,12.39
						c-1.39-0.25-2.38,0.54-2.67,1.79l-0.28-1.67h-2.08v7.34h2.4v-3.38c0-1.25,0.73-1.81,1.6-1.81c0.35,0,0.68,0.06,0.91,0.16
						L147.19,12.39z M147.53,18.02c0.32,1.35,1.6,2,3.19,2c1.92,0,3.28-0.86,3.28-2.45c0-2.93-3.99-1.73-3.99-3.02
						c0-0.44,0.34-0.7,0.89-0.7c0.62,0,0.99,0.33,1.04,0.84l1.99-0.23c-0.22-1.36-1.31-2.13-3.05-2.13c-1.71,0-3.11,0.86-3.11,2.47
						c0,2.85,3.96,1.7,3.96,2.98c0,0.46-0.39,0.7-1,0.7c-0.61,0-1.1-0.36-1.2-0.9L147.53,18.02z"/>
				</g>
			</g>
		</g>
	</g>
</g>
</svg>
