<svg xmlns="http://www.w3.org/2000/svg" viewBox="0 0 43.96 57.29"><defs><style>.cls-1{fill:#ffdb2d;}.cls-1,.cls-2{stroke:#161616;stroke-linecap:round;stroke-linejoin:round;stroke-width:1.5px;}.cls-2{fill:none;}</style></defs><g id="Layer_2" data-name="Layer 2"><g id="_1170px_grid" data-name="1170px grid"><polygon class="cls-1" points="43.21 53.91 40.58 56.54 33.83 49.79 36.5 47.2 43.21 53.91 43.21 53.91"/><path class="cls-2" d="M27.17,29.32A11.19,11.19,0,1,1,16,40.51,11.19,11.19,0,0,1,27.17,29.32Z"/><path class="cls-2" d="M27.07,32.49a8.1,8.1,0,0,1,8.09,8.1"/><path class="cls-2" d="M21.25,53.61H2.48A1.72,1.72,0,0,1,.75,51.88V2.48A1.72,1.72,0,0,1,2.48.75H26l12.74,13V34"/><path class="cls-2" d="M25.34,1V12.2a1.52,1.52,0,0,0,1.53,1.53H38.78"/><line class="cls-2" x1="8.17" y1="10.95" x2="20.23" y2="10.95"/><line class="cls-2" x1="8.17" y1="17.76" x2="31.17" y2="17.76"/><line class="cls-2" x1="8.17" y1="22.4" x2="31.17" y2="22.4"/></g></g></svg>