<svg xmlns="http://www.w3.org/2000/svg" viewBox="0 0 65.25 63.19"><defs><style>.cls-1{fill:#161616;}.cls-2{fill:none;}.cls-2,.cls-3{stroke:#161616;stroke-linecap:round;stroke-linejoin:round;stroke-width:1.5px;}.cls-3{fill:#ffdb2d;}</style></defs><g id="Layer_2" data-name="Layer 2"><g id="_1170px_grid" data-name="1170px grid"><path class="cls-1" d="M45,11.88l-.71-3.83,1.28-.23-.09-1.53L44,6.56l-.18-.95c-.08-.43,0-.75.61-.86l.79-.15L45,3.27a11.2,11.2,0,0,0-1.16.15,1.83,1.83,0,0,0-1.55,2.33l.2,1.1-1.29.24.28,1.49,1.29-.24.71,3.83L45,11.88Z"/><rect class="cls-2" x="37.51" y="1.75" width="12.11" height="12.11" transform="translate(-0.69 8.08) rotate(-10.52)"/><rect class="cls-2" x="51.31" y="15.55" width="12.11" height="12.11" transform="translate(-0.55 1.52) rotate(-1.51)"/><rect class="cls-2" x="51.97" y="32.63" width="12.11" height="12.11" transform="matrix(1, 0.07, -0.07, 1, 2.97, -4.13)"/><rect class="cls-2" x="42.77" y="49.71" width="12.11" height="12.11" transform="translate(6.37 -4.99) rotate(6.26)"/><path class="cls-1" d="M55.68,21.82a1.44,1.44,0,1,1,1.48,1.4,1.44,1.44,0,0,1-1.48-1.4m-.78,0a2.22,2.22,0,1,0,2.16-2.28,2.23,2.23,0,0,0-2.16,2.28m4-2.41a.52.52,0,0,0,1,0,.52.52,0,1,0-1,0m-3.38,5.92a2.65,2.65,0,0,1-.81-.13,1.24,1.24,0,0,1-.5-.31,1.28,1.28,0,0,1-.34-.49,2.48,2.48,0,0,1-.17-.8c0-.45,0-.59-.07-1.74s0-1.3,0-1.75a2.68,2.68,0,0,1,.12-.81,1.52,1.52,0,0,1,.32-.51,1.25,1.25,0,0,1,.48-.33,2.23,2.23,0,0,1,.8-.17c.46,0,.59,0,1.75-.07s1.29,0,1.75,0a2.31,2.31,0,0,1,.8.12,1.44,1.44,0,0,1,.85.8,2.48,2.48,0,0,1,.17.8c0,.46,0,.59.07,1.75s0,1.29,0,1.75a2.25,2.25,0,0,1-.13.8,1.28,1.28,0,0,1-.31.51,1.37,1.37,0,0,1-.49.33,2.23,2.23,0,0,1-.8.17c-.45,0-.59.05-1.74.08s-1.29,0-1.75,0m-.24-7.82a3.22,3.22,0,0,0-1,.23,2.08,2.08,0,0,0-.75.52,2.15,2.15,0,0,0-.48.78,3.19,3.19,0,0,0-.17,1.05c0,.46,0,.61,0,1.79s0,1.32.07,1.78a3.43,3.43,0,0,0,.23,1,2.08,2.08,0,0,0,.52.75,2,2,0,0,0,.78.48,3.16,3.16,0,0,0,1.05.18c.47,0,.61,0,1.79,0s1.32,0,1.78-.07a2.92,2.92,0,0,0,1-.23,2.2,2.2,0,0,0,.76-.52,2,2,0,0,0,.47-.78,3.11,3.11,0,0,0,.18-1.05c0-.46,0-.61,0-1.78s0-1.32-.08-1.78a3,3,0,0,0-.23-1.05,2,2,0,0,0-.52-.75,2,2,0,0,0-.77-.48,3.25,3.25,0,0,0-1.06-.17c-.46,0-.61,0-1.78,0s-1.32,0-1.78.07"/><path class="cls-1" d="M54.64,35.84a.79.79,0,0,1,.3-.58.93.93,0,0,1,.67-.18.87.87,0,0,1,.62.27.8.8,0,0,1,.21.64.74.74,0,0,1-.29.55.91.91,0,0,1-.68.19h0a.86.86,0,0,1-.62-.28A.8.8,0,0,1,54.64,35.84Zm-.36,6.29.35-4.8,1.59.12-.35,4.79Zm2.48.18,1.59.12.2-2.68a1.15,1.15,0,0,1,.08-.39A1,1,0,0,1,59,39a.81.81,0,0,1,.52-.13c.54,0,.78.42.73,1.14L60,42.55l1.6.11.2-2.75a2.32,2.32,0,0,0-.39-1.65,1.71,1.71,0,0,0-1.29-.64,1.63,1.63,0,0,0-1.5.69h0l.05-.68-1.59-.12c0,.15,0,.63-.09,1.43S56.87,40.86,56.76,42.31Z"/><path class="cls-1" d="M50.67,53.45h0l.33,0,.12,0,.21.09.18.12a1,1,0,0,1,.15.13.71.71,0,0,1,.12.13c0,.05.09.06.18.06l.28,0,.3-.08.19-.05,0,0h0v0l-.08.12a1.62,1.62,0,0,1-.18.2.6.6,0,0,1-.18.15l-.1.07-.06,0,0,0h.16l.36,0,.18,0h0l-.1.09-.1.1,0,0-.16.12-.28.19a.27.27,0,0,0-.15.22c0,.09,0,.2-.07.32a3.61,3.61,0,0,1-.1.38,3.5,3.5,0,0,1-.18.45,4.52,4.52,0,0,1-.25.49,4.85,4.85,0,0,1-.29.41,3,3,0,0,1-.26.31l-.23.23-.29.24-.19.14-.14.08-.27.15-.25.12-.28.1a2.75,2.75,0,0,1-.34.1l-.38.07-.38,0h-.65l-.42-.07h0l-.09,0-.26-.07-.35-.12a2.89,2.89,0,0,1-.37-.18,3.67,3.67,0,0,1-.42-.24L45.36,58l-.1-.08,0,0h0l.16,0,.27,0,.3,0,.37,0a2.26,2.26,0,0,0,.39-.07l.26-.08a1.56,1.56,0,0,0,.24-.1l.16-.08h0l-.1,0-.15,0-.21-.11a1.37,1.37,0,0,1-.21-.15l-.15-.14s-.06-.09-.1-.15a1,1,0,0,1-.11-.2,1.13,1.13,0,0,1-.08-.22l0-.12h0l.07,0,.22,0a.82.82,0,0,0,.21,0h.07l0,0-.16-.1a1,1,0,0,1-.21-.15,1,1,0,0,1-.14-.15,1.16,1.16,0,0,1-.13-.2,1.69,1.69,0,0,1-.13-.27,1.77,1.77,0,0,1-.06-.3,1.22,1.22,0,0,1,0-.27v-.13h0l.1.06a1.67,1.67,0,0,0,.23.11l.17.06h.05l-.05,0-.1-.12-.09-.15a1.3,1.3,0,0,1-.08-.17,1.94,1.94,0,0,1-.07-.22,2,2,0,0,1,0-.26,2.18,2.18,0,0,1,0-.25.88.88,0,0,1,0-.2.89.89,0,0,1,.07-.19.9.9,0,0,1,.11-.22l.07-.11h0l.07.11.17.25.12.14s0,0,0,0l.11.14a3,3,0,0,0,.25.24l.36.3c.13.09.27.18.43.27a2.64,2.64,0,0,0,.33.17l.32.13L49,55l.16,0h0v-.08s0-.13,0-.22,0-.19.06-.27a2.4,2.4,0,0,1,.11-.23c0-.08.08-.14.11-.19l.14-.15.21-.18a2,2,0,0,1,.29-.14,1.21,1.21,0,0,1,.28-.08l.21,0Z"/><path class="cls-2" d="M19,32.93a1.51,1.51,0,1,0,1.5,1.51A1.51,1.51,0,0,0,19,32.93Z"/><path class="cls-2" d="M9.32,32.93a1.51,1.51,0,1,0,1.5,1.51,1.51,1.51,0,0,0-1.5-1.51Z"/><path class="cls-3" d="M30.63,18.43H31a2.2,2.2,0,0,1,2.19,2.19V49.09A2.2,2.2,0,0,1,31,51.28h-.36c-1.21,0-8.77-11.16-16.85-11.16H3.72a3,3,0,0,1-3-3V32.56a3,3,0,0,1,3-3H13.78c8.09,0,15.64-11.16,16.85-11.16Z"/><path class="cls-2" d="M35.12,29.53a5.55,5.55,0,0,1,0,10.65"/><line class="cls-2" x1="13.97" y1="29.59" x2="13.97" y2="40.12"/><path class="cls-2" d="M11.57,40.12c.4,2.32-.19,4.75,1.22,7l2.4,3.77a1.89,1.89,0,0,1-1.46,2.6H10.14a2.72,2.72,0,0,1-2.5-2L4.94,40.12Z"/><path class="cls-2" d="M35.4,21.63a13.6,13.6,0,0,1,0,26.11"/></g></g></svg>