<svg xmlns="http://www.w3.org/2000/svg" viewBox="0 0 46.63 59.38"><defs><style>.cls-1{fill:none;}.cls-1,.cls-2{stroke:#161616;stroke-linecap:round;stroke-linejoin:round;stroke-width:1.5px;}.cls-2{fill:#ffdb2d;}</style></defs><g id="Layer_2" data-name="Layer 2"><g id="_1170px_grid" data-name="1170px grid"><path class="cls-1" d="M18.68,53.25H3.4A2.65,2.65,0,0,1,.75,50.61V3.4A2.65,2.65,0,0,1,3.4.75H24.32L37.42,14V33.27"/><path class="cls-1" d="M24.09.75V12.87a1.21,1.21,0,0,0,1.21,1.21H37.42"/><line class="cls-1" x1="7.42" y1="11.58" x2="19.08" y2="11.58"/><line class="cls-1" x1="7.42" y1="21.58" x2="29.92" y2="21.58"/><line class="cls-1" x1="7.42" y1="27.42" x2="29.92" y2="27.42"/><line class="cls-1" x1="7.42" y1="33.25" x2="29.92" y2="33.25"/><line class="cls-1" x1="7.42" y1="39.09" x2="19.08" y2="39.09"/><path class="cls-2" d="M21.11,49.76a4.17,4.17,0,0,1-.57-2,2.06,2.06,0,0,1,1-2c1.67-.83,7.21-1.43,8.61-2.8a72.17,72.17,0,0,0,4.6-5.87.79.79,0,0,1,1.4.26l4.12,15.12a.79.79,0,0,1-1.07.94,32.22,32.22,0,0,0-9-2.59,6.09,6.09,0,0,0-2,.17c-1.65.43-5.18,1.24-5.81.61A10.26,10.26,0,0,1,21.11,49.76Z"/><line class="cls-1" x1="27.42" y1="44.92" x2="29.09" y2="50.75"/><path class="cls-1" d="M27.16,51.24s1.3,3.33,3.28,4.76-1.87,3.33-3.28,2.37-3.44-6.56-3.44-6.56"/><path class="cls-1" d="M39.09,40.84A4.17,4.17,0,0,1,41,48.09"/><path class="cls-1" d="M39,36.92A8.67,8.67,0,0,1,42.85,52"/></g></g></svg>