<svg xmlns="http://www.w3.org/2000/svg" viewBox="0 0 45.25 57.94"><defs><style>.cls-1{fill:none;}.cls-1,.cls-2{stroke:#161616;stroke-linecap:round;stroke-linejoin:round;stroke-width:1.5px;}.cls-2{fill:#ffdb2d;}</style></defs><g id="Layer_2" data-name="Layer 2"><g id="_1170px_grid" data-name="1170px grid"><path class="cls-1" d="M21.84,48.36a9.67,9.67,0,1,1,13.3-10.83"/><path class="cls-1" d="M23.51,45.39a5.66,5.66,0,1,1,7.78-6.34"/><path class="cls-1" d="M21.52,54.32H2.5A1.76,1.76,0,0,1,.75,52.57V2.5A1.76,1.76,0,0,1,2.5.75H26.38l12.9,13.16V34.46"/><path class="cls-1" d="M25.66,1V12.35a1.56,1.56,0,0,0,1.56,1.56H39.28"/><line class="cls-1" x1="8.27" y1="11.09" x2="20.49" y2="11.09"/><line class="cls-1" x1="8.27" y1="17.99" x2="31.57" y2="17.99"/><line class="cls-1" x1="8.27" y1="22.69" x2="31.57" y2="22.69"/><path class="cls-2" d="M39.8,57a10.66,10.66,0,0,1-6.52-.94c-3.15-1.5-8.57-4.11-9-4.58-.94-.94-1.88-2.82,5.63-1.88L24,41.53a2,2,0,0,1,.37-2.74h0a2,2,0,0,1,2.94.45L29.88,43s1.88-1.88,3.76-.94c0,0,.94-2.82,3.76-.94,0,0,.94-2.82,2.82,0A28.14,28.14,0,0,1,44,48.68C44.72,50.91,45.53,56,39.8,57Z"/></g></g></svg>