<?xml version="1.0" encoding="utf-8"?>
<!-- Generator: Adobe Illustrator 16.0.0, SVG Export Plug-In . SVG Version: 6.00 Build 0)  -->
<!DOCTYPE svg PUBLIC "-//W3C//DTD SVG 1.1//EN" "http://www.w3.org/Graphics/SVG/1.1/DTD/svg11.dtd">
<svg version="1.1" id="Layer_1" xmlns="http://www.w3.org/2000/svg" xmlns:xlink="http://www.w3.org/1999/xlink" x="0px" y="0px"
	 width="1120.6px" height="564.9px" viewBox="0 0 1120.6 564.9" style="enable-background:new 0 0 1120.6 564.9;"
	 xml:space="preserve">
<style type="text/css">
<![CDATA[
	.st0{fill:#E8D5CF;}
	.st1{opacity:0.42;fill:url(#SVGID_2_);}
	.st2{fill:#F99F1B;}
	.st3{fill:url(#SVGID_3_);}
	.st4{opacity:0.2;fill:url(#SVGID_1_);}
	.st5{fill:#FFFFFF;}
	.st6{fill:#002D3D;}
	.st7{fill:#081E24;}
]]>
</style>
<g>
	<linearGradient id="SVGID_1_" gradientUnits="userSpaceOnUse" x1="559.9966" y1="439.6675" x2="559.9966" y2="4.882813e-004">
		<stop  offset="0.1117" style="stop-color:#F2F3F4"/>
		<stop  offset="0.4365" style="stop-color:#959696"/>
		<stop  offset="0.826" style="stop-color:#2B2B2B"/>
		<stop  offset="1" style="stop-color:#000000"/>
	</linearGradient>
	<polygon class="st4" points="1120,126.2 341.9,439.7 263.5,439.7 0,439.7 1120,0 	"/>
	<polygon class="st6" points="711.1,160.5 625.9,194 509,107.1 474.6,116.7 441.9,40.4 593.3,86.3 555.4,93.6 	"/>
	<polygon class="st6" points="865.8,227.8 1119.9,337.1 1119.9,441.3 1120.6,564.9 737.6,279.5 	"/>
	<polygon class="st7" points="625.9,194 711.1,160.5 711.1,290.9 625.9,325.3 	"/>
	<g>
		
			<linearGradient id="SVGID_2_" gradientUnits="userSpaceOnUse" x1="1117.5352" y1="107.4517" x2="875.5667" y2="248.145" gradientTransform="matrix(0.9743 0.2254 -0.2254 0.9743 -143.6887 -66.7402)">
			<stop  offset="0" style="stop-color:#1D1D1B"/>
			<stop  offset="1" style="stop-color:#FFFFFF"/>
		</linearGradient>
		<path class="st1" d="M697,361.6l-9-1.3l0,0C693.7,361.2,697,361.6,697,361.6c29.4-4.7,59.1-14.6,66.4-18.1
			c7.2-3.5,24.7-6.6,24.7-6.6l-7.4-1l99.4-30.6l-0.1,0l0.1,0l-4-0.5c0,0-0.1,0-0.2,0l-0.4-0.1l-0.1,0c-0.9,0-2.6-0.1-4.7-0.1
			l2.2-0.7l-4-0.5l-6.1-1c-0.6,0.7-0.9,2,2.1,2.4l-97.4,29.6l-4.8-0.4c0,0-22.8,5.6-42.1,12.9c-15.9,6-31.6,10.7-33.5,12.7l0,0
			l-1.4,1.3l-4.7,0.6c0,0-4-1.3-5.3-1.2c-1.3,0.2-7.2,2.5-7.2,2.5s-1.8-0.3-3.4,0c-0.9,0.1-2.6,1.3-5.5,2.4c-2.3,0.9-6,1.8-6,1.8
			s-0.1,2.4,6.1,2.9c6.2,0.5,14.8,0,14.8,0c8.4-1.7,17.7-6.8,17.7-6.8l2.1-0.7L697,361.6z M870.7,306.1l-67.5,19.8
			C803.3,325.9,869.6,306,870.7,306.1z"/>
		<g>
			<path class="st0" d="M866.9,165.9c0,0,0.3,2.2,0,4c-0.4,2.3-1.5,4.5-1.3,4.9c0.4,0.7,1.9,0.7,1.9,0.7s-1,4.8-0.6,5.4
				c0.4,0.5,4.8-0.6,4.8-0.6l1.5,1.9l7.6-0.8v-1.4l-5.6-11.6L866.9,165.9z"/>
			<path class="st2" d="M871.4,307.9l3,0.1l0-1.5c1.2,0.3,2.2,0.6,2.7,0.8l0,0.1h0.3c0.1,0,0.1,0,0.1,0l3,0.1l0-0.1h0.1v-67.3h5.8
				c0,0-4-8.4-1.7-15.2c2.2-6.8,3.6-28.2-4-41.5c0,0-2.7,0-7.1,0s-3.6,12.2-6,27.4s0,28.5,0,28.5l3.3,0.4l0.4,64.2
				c-2.2-0.1-4-0.2-4.4-0.1c-0.4,0.1,0.4,0.5,1.8,0.9c-3.5-0.3-7.3-0.5-8-0.4C859.4,304.5,871.4,307.9,871.4,307.9z M877.1,304.2
				c-0.8-0.1-1.7-0.1-2.6-0.2l0.9-44.1L877.1,304.2z"/>
			<polygon class="st5" points="880.8,183.3 880.8,181.3 873.2,182.1 871.7,184.4 873.8,183.3 			"/>
			
				<linearGradient id="SVGID_3_" gradientUnits="userSpaceOnUse" x1="-29.6152" y1="157.481" x2="3.7783" y2="196.476" gradientTransform="matrix(-1 0 0 1 857.4082 0)">
				<stop  offset="0.1369" style="stop-color:#3B485D"/>
				<stop  offset="0.3974" style="stop-color:#3C4A5E"/>
				<stop  offset="0.5405" style="stop-color:#424F62"/>
				<stop  offset="0.6551" style="stop-color:#4C596A"/>
				<stop  offset="0.7547" style="stop-color:#5A6774"/>
				<stop  offset="0.8445" style="stop-color:#6D7B84"/>
				<stop  offset="0.926" style="stop-color:#869898"/>
				<stop  offset="1" style="stop-color:#A9C1B5"/>
			</linearGradient>
			<path class="st3" d="M883.1,165.9c1.4,4.4-2.3,14-2.3,14l-6.4,0.9v-4.7c0,0,1.8-2.1,1.1-3.2c-0.7-1-0.8-1.4-1.8-1
				c-1,0.4-1.9,2.6-1.9,2.6l-1.3-0.5c0,0,0.5-3.9,0-4.6c-0.5-0.7-3.5-3.5-3.5-3.5s4.2-3.7,8.3-3.1
				C879.3,163.4,883.1,165.9,883.1,165.9z"/>
		</g>
	</g>
</g>
</svg>
