<?xml version="1.0" encoding="utf-8"?>
<!-- Generator: Adobe Illustrator 16.0.0, SVG Export Plug-In . SVG Version: 6.00 Build 0)  -->
<!DOCTYPE svg PUBLIC "-//W3C//DTD SVG 1.1//EN" "http://www.w3.org/Graphics/SVG/1.1/DTD/svg11.dtd">
<svg version="1.1" id="Layer_1" xmlns="http://www.w3.org/2000/svg" xmlns:xlink="http://www.w3.org/1999/xlink" x="0px" y="0px"
	 width="159.5px" height="165.8px" viewBox="0 0 159.5 165.8" style="enable-background:new 0 0 159.5 165.8;" xml:space="preserve"
	>
<style type="text/css">
<![CDATA[
	.st0{fill:none;stroke:#FFFFFF;stroke-width:1.5;stroke-linecap:round;stroke-linejoin:round;stroke-miterlimit:10;}
	.st1{fill:#F99F1B;stroke:#FFFFFF;stroke-width:1.5;stroke-linecap:round;stroke-linejoin:round;stroke-miterlimit:10;}
]]>
</style>
<g>
	<polyline class="st1" points="35.2,0.8 35.2,37.3 0.8,37.3 	"/>
	<polygon class="st0" points="35.2,0.8 128.5,0.8 128.5,165.1 0.8,165.1 0.8,37.3 	"/>
	<line class="st1" x1="86.5" y1="35.5" x2="108.9" y2="35.5"/>
	<line class="st1" x1="50.3" y1="51.3" x2="108.9" y2="51.3"/>
	<line class="st1" x1="21.1" y1="67.1" x2="108.9" y2="67.1"/>
	<line class="st1" x1="21.1" y1="82.4" x2="108.9" y2="82.4"/>
	<line class="st1" x1="21.1" y1="98.1" x2="71.9" y2="98.1"/>
	<line class="st1" x1="21.1" y1="113.6" x2="36" y2="113.6"/>
	<g>
		<path class="st1" d="M30,145c0,0-0.4-1,0.6-1.6c1-0.6,16.9-10.9,16.9-10.9l3.6,16.3l-20.1-3.1C31.1,145.7,30.3,145.7,30,145z"/>
		<polygon class="st1" points="47.6,132.5 138.9,112.2 142.7,129.9 51.2,148.8 		"/>
		<path class="st1" d="M138.9,112.2l9.6-2.2c0,0,7.7-1.7,9.7,7c1.7,7.1-0.9,9.9-4.5,10.7c-3.6,0.8-11.1,2.2-11.1,2.2L138.9,112.2z"
			/>
	</g>
</g>
</svg>
