<?xml version="1.0" encoding="utf-8"?>
<!-- Generator: Adobe Illustrator 16.0.0, SVG Export Plug-In . SVG Version: 6.00 Build 0)  -->
<!DOCTYPE svg PUBLIC "-//W3C//DTD SVG 1.1//EN" "http://www.w3.org/Graphics/SVG/1.1/DTD/svg11.dtd">
<svg version="1.1" id="Layer_1" xmlns="http://www.w3.org/2000/svg" xmlns:xlink="http://www.w3.org/1999/xlink" x="0px" y="0px"
	 width="160.5px" height="160.7px" viewBox="0 0 160.5 160.7" style="enable-background:new 0 0 160.5 160.7;" xml:space="preserve"
	>
<style type="text/css">
<![CDATA[
	.st0{fill:none;stroke:#FFFFFF;stroke-width:1.5;stroke-linecap:round;stroke-linejoin:round;stroke-miterlimit:10;}
	.st1{fill:#F99F1B;stroke:#FFFFFF;stroke-width:1.5;stroke-linecap:round;stroke-linejoin:round;stroke-miterlimit:10;}
]]>
</style>
<g>
	<path class="st0" d="M33.4,104.8V57.4c0,0-1.2-30.1,31.4-34.6h30.1c0,0,31.7,2.4,31.7,32.7v38.4"/>
	<polyline class="st1" points="66,22.8 55.8,0.8 104.9,0.8 93.9,22.8 	"/>
	<path class="st0" d="M50.6,40.8c-3.1,3.2-5.7,7.9-5.7,14.4v11.2"/>
	<path class="st0" d="M60.9,34.4c0,0-1.4,0.4-3.4,1.4"/>
	<path class="st0" d="M102,129.5H62.2h-1.6l-43.3-21.7c0,0-9.1-4.3-14.4,5c-5.2,9.3-0.1,14.4,3,16.7l46.9,26c0,0,7.1,4.5,20,4.5
		s64.8,0,64.8,0v-50c0,0-21-18.5-49.6-2.3H66.4c0,0-10.6,0.1-10.6,11s10.7,10.8,10.7,10.8"/>
	<rect x="137.8" y="110" class="st0" width="21.9" height="50"/>
	<path class="st0" d="M93.9,53.2H73.8c0,0-6.8,0-6.8,8.2s7.7,8.1,7.7,8.1h11.6c0,0,7.5-0.2,7.5,8c0,8.2-7.3,8.5-7.3,8.5H66.4"/>
	<line class="st0" x1="80.2" y1="44.9" x2="80.2" y2="53.2"/>
	<line class="st0" x1="80.2" y1="94" x2="80.2" y2="85.6"/>
</g>
</svg>
