<?xml version="1.0" encoding="utf-8"?>
<!-- Generator: Adobe Illustrator 16.0.0, SVG Export Plug-In . SVG Version: 6.00 Build 0)  -->
<!DOCTYPE svg PUBLIC "-//W3C//DTD SVG 1.1//EN" "http://www.w3.org/Graphics/SVG/1.1/DTD/svg11.dtd">
<svg version="1.1" id="Layer_1" xmlns="http://www.w3.org/2000/svg" xmlns:xlink="http://www.w3.org/1999/xlink" x="0px" y="0px"
	 width="67.5px" height="67.5px" viewBox="0 0 67.5 67.5" style="enable-background:new 0 0 67.5 67.5;" xml:space="preserve">
<style type="text/css">
<![CDATA[
	.st0{fill:none;stroke:#002E3E;stroke-width:1.5;stroke-linecap:round;stroke-linejoin:round;stroke-miterlimit:10;}
	.st1{fill:#F99F1B;stroke:#002E3E;stroke-width:1.5;stroke-linecap:round;stroke-linejoin:round;stroke-miterlimit:10;}
]]>
</style>
<g>
	<circle class="st0" cx="33.8" cy="33.8" r="33"/>
	<path class="st0" d="M21.8,13.1c0,0-1.2,3.9-7.3,6.1"/>
	<path class="st0" d="M53.1,19.2c0,0-4-0.6-7.3-6.1"/>
	<ellipse class="st0" cx="22.1" cy="29.4" rx="2.9" ry="3.7"/>
	<ellipse class="st0" cx="45.6" cy="29.4" rx="2.9" ry="3.7"/>
	<path class="st1" d="M59,0.8c0,0-5.8,6.2-5.8,10.3c0,4.1,3.6,5.9,5.8,5.9s6.2-1.7,6.2-5.8S59,0.8,59,0.8z"/>
	<path class="st0" d="M57,34.6c0,0-3.1,3.2-3.1,5.4s1.9,3.1,3.1,3.1c1.2,0,3.2-0.9,3.2-3S57,34.6,57,34.6z"/>
	<path class="st0" d="M20.5,52c0,0,4.3-8.4,13.3-8.4S47.3,52,47.3,52S36.4,48.3,20.5,52z"/>
</g>
</svg>
