<?xml version="1.0" encoding="utf-8"?>
<!-- Generator: Adobe Illustrator 16.0.0, SVG Export Plug-In . SVG Version: 6.00 Build 0)  -->
<!DOCTYPE svg PUBLIC "-//W3C//DTD SVG 1.1//EN" "http://www.w3.org/Graphics/SVG/1.1/DTD/svg11.dtd">
<svg version="1.1" id="Layer_1" xmlns="http://www.w3.org/2000/svg" xmlns:xlink="http://www.w3.org/1999/xlink" x="0px" y="0px"
	 width="216.7px" height="102px" viewBox="0 0 216.7 102" style="enable-background:new 0 0 216.7 102;" xml:space="preserve">
<style type="text/css">
<![CDATA[
	.st0{fill:#002D3D;}
]]>
</style>
<g>
	<g>
		<polygon class="st0" points="172.7,87.9 173.1,18.8 147.7,18.6 147.8,0.5 216.7,1 216.6,19 191.2,18.9 190.8,88 		"/>
		<path class="st0" d="M0.1,83.9c15.8-1.8,28.1-15.1,28.2-31.4l0.2-34.3l-12.7-0.1l0.1-18l30.7,0.2l-0.3,52.3
			C46.1,78.8,25.7,100.2,0,102L0.1,83.9z"/>
		<g>
			<polygon class="st0" points="134.5,1.8 116.6,1.7 97.1,30.4 77.9,1.5 60,1.4 88,43.8 59.5,85.8 77.4,85.9 96.9,57.2 116,86.2 
				134,86.3 106,43.9 			"/>
			<path class="st0" d="M136.6,87.7l-21.3-0.1L96.9,59.7L78.2,87.3l-21.3-0.1l29.5-43.4L57.4,0l21.3,0.1L97.1,28l18.7-27.6l21.3,0.1
				l-29.5,43.4L136.6,87.7z M116.8,84.8l14.6,0.1l-27.1-41l27.6-40.7l-14.6-0.1L97.1,32.9l-19.9-30L62.5,2.8l27.1,41L62.1,84.5
				l14.6,0.1l20.2-29.8L116.8,84.8z"/>
		</g>
	</g>
</g>
</svg>
