<?xml version="1.0" encoding="utf-8"?>
<!-- Generator: Adobe Illustrator 16.0.0, SVG Export Plug-In . SVG Version: 6.00 Build 0)  -->
<!DOCTYPE svg PUBLIC "-//W3C//DTD SVG 1.1//EN" "http://www.w3.org/Graphics/SVG/1.1/DTD/svg11.dtd">
<svg version="1.1" id="Layer_1" xmlns="http://www.w3.org/2000/svg" xmlns:xlink="http://www.w3.org/1999/xlink" x="0px" y="0px"
	 width="159.5px" height="135.7px" viewBox="0 0 159.5 135.7" style="enable-background:new 0 0 159.5 135.7;" xml:space="preserve"
	>
<style type="text/css">
<![CDATA[
	.st0{fill:none;stroke:#FFFFFF;stroke-width:1.5;stroke-linecap:round;stroke-linejoin:round;stroke-miterlimit:10;}
	.st1{fill:#F99F1B;stroke:#FFFFFF;stroke-width:1.5;stroke-linecap:round;stroke-linejoin:round;stroke-miterlimit:10;}
]]>
</style>
<g>
	<circle class="st0" cx="26.5" cy="14.7" r="12.2"/>
	<line class="st0" x1="49.9" y1="9.8" x2="158.8" y2="9.8"/>
	<line class="st0" x1="104.3" y1="0.8" x2="104.3" y2="9.8"/>
	<line class="st0" x1="55.5" y1="9.8" x2="55.5" y2="24.5"/>
	<path class="st0" d="M12.6,86.8c0,3.3-2.7,5.9-5.9,5.9s-5.9-2.7-5.9-5.9v-41c0-9.5,9.1-9.7,9.1-9.7h60.8c3.3,0,6,2.7,6,6
		c0,3.3-2.7,6-6,6H41.1v79.8c0,3.9-3.2,7.1-7.1,7.1s-7.1-3.2-7.1-7.1v-27.3"/>
	<path class="st0" d="M26.9,127.8c0,3.9-3.2,7.1-7.1,7.1c-3.9,0-7.1-3.2-7.1-7.1V49.3"/>
	<line class="st0" x1="12.6" y1="84.7" x2="41.1" y2="84.7"/>
	<line class="st0" x1="55.5" y1="58.7" x2="55.5" y2="79.4"/>
	<path class="st1" d="M151.7,90.2H57.4c-3,0-5.4-2.4-5.4-5.4l0,0c0-3,2.4-5.4,5.4-5.4h94.3c3,0,5.4,2.4,5.4,5.4l0,0
		C157.1,87.7,154.7,90.2,151.7,90.2z"/>
	<line class="st0" x1="104.6" y1="90.2" x2="104.6" y2="132.3"/>
	<polyline class="st0" points="90.6,135 104.6,118.3 118.6,135 	"/>
	<line class="st0" x1="153.1" y1="9.8" x2="153.1" y2="79.4"/>
</g>
</svg>
