<?xml version="1.0" encoding="utf-8"?>
<!-- Generator: Adobe Illustrator 16.0.0, SVG Export Plug-In . SVG Version: 6.00 Build 0)  -->
<!DOCTYPE svg PUBLIC "-//W3C//DTD SVG 1.1//EN" "http://www.w3.org/Graphics/SVG/1.1/DTD/svg11.dtd">
<svg version="1.1" id="Layer_1" xmlns="http://www.w3.org/2000/svg" xmlns:xlink="http://www.w3.org/1999/xlink" x="0px" y="0px"
	 width="108.1px" height="56.3px" viewBox="0 0 108.1 56.3" style="enable-background:new 0 0 108.1 56.3;" xml:space="preserve">
<style type="text/css">
<![CDATA[
	.st0{fill:#F99F1B;}
	.st1{fill:none;stroke:#002E3E;stroke-width:1.5;stroke-linecap:round;stroke-linejoin:round;stroke-miterlimit:10;}
]]>
</style>
<g>
	<polyline class="st1" points="73.7,8.9 63.6,9 53.3,9 	"/>
	<line class="st1" x1="73.6" y1="28.4" x2="70.3" y2="28.4"/>
	<polyline class="st1" points="74.6,38.1 73.6,38.1 72.5,38.1 70.3,38.1 	"/>
	<path class="st1" d="M72.6,38.1C72.6,38.1,72.5,38.1,72.6,38.1l1,0c3,0,5.5-1.1,5.5-4.9c0-3.5-2.5-4.9-5.5-4.9"/>
	<line class="st1" x1="73.6" y1="18.6" x2="70.3" y2="18.7"/>
	<path class="st1" d="M72.6,28.4C72.6,28.4,72.5,28.4,72.6,28.4l1,0c3,0,5.5-1.1,5.5-4.9c0-3.5-2.5-4.9-5.5-4.9"/>
	<path class="st1" d="M72.6,18.6C72.6,18.6,72.5,18.6,72.6,18.6l1,0c3,0,5.5-1.1,5.5-4.9c0-3.5-2.3-4.9-5.3-4.9"/>
	<polyline class="st1" points="73.7,8.9 63.6,9 53.3,9 	"/>
	<line class="st1" x1="73.6" y1="28.4" x2="70.3" y2="28.4"/>
	<polyline class="st1" points="74.6,38.1 73.6,38.1 72.5,38.1 70.3,38.1 	"/>
	<path class="st1" d="M24.3,40.1c4.7,0,4.3-0.6,7,0.8c5.6,2.8,12.6,6.6,23.1,6.5l17,0.4c3.1,0.1,5.6-1.7,5.7-4.6
		c0.1-3.4-1.6-5-4.6-5"/>
	<path class="st1" d="M60.3,4.3c-1.5-2.1-4.1-4-6.6-3.4c-4.3,1-11,3.4-15,4.3c-2.4,0.5-4.6,1.7-6.3,3.5c-0.7,0.8-1.8,2-2.8,3.1
		c-1.3,1.5-3.2,2.4-5.2,2.4"/>
	<path class="st1" d="M72.6,38.1C72.6,38.1,72.5,38.1,72.6,38.1l1,0c3,0,5.5-1.1,5.5-4.9c0-3.5-2.5-4.9-5.5-4.9"/>
	<line class="st1" x1="73.6" y1="18.6" x2="70.3" y2="18.7"/>
	<path class="st1" d="M72.6,28.4C72.6,28.4,72.5,28.4,72.6,28.4l1,0c3,0,5.5-1.1,5.5-4.9c0-3.5-2.5-4.9-5.5-4.9"/>
	<path class="st1" d="M72.6,18.6C72.6,18.6,72.5,18.6,72.6,18.6l1,0c3,0,5.5-1.1,5.5-4.9c0-3.5-2.3-4.9-5.3-4.9"/>
	<rect x="12.6" y="10.8" class="st0" width="11.6" height="33.1"/>
	<polyline class="st1" points="0.8,43.9 24.4,43.9 24.4,10.8 0.8,10.8 	"/>
	<line class="st1" x1="13" y1="11.2" x2="13" y2="43.9"/>
	<line class="st1" x1="18.3" y1="13.7" x2="18.1" y2="19.4"/>
	<g>
		<rect x="98.8" y="2.8" class="st0" width="8.5" height="8.6"/>
		<rect x="98.8" y="46.5" class="st0" width="8.5" height="8.6"/>
		<line class="st1" x1="98.8" y1="46" x2="98.8" y2="55.6"/>
		<path class="st1" d="M76.3,46H107v9.6H68.8c-7.7,0.2-13.9-3-18-8.3"/>
		<line class="st1" x1="98.8" y1="2.8" x2="98.8" y2="11.7"/>
		<path class="st1" d="M53.3,8.7c4-3.6,9.3-5.8,15.5-5.9h38.4l0.1,8.9H78.9"/>
	</g>
</g>
</svg>
