<?xml version="1.0" encoding="utf-8"?>
<!-- Generator: Adobe Illustrator 16.0.0, SVG Export Plug-In . SVG Version: 6.00 Build 0)  -->
<!DOCTYPE svg PUBLIC "-//W3C//DTD SVG 1.1//EN" "http://www.w3.org/Graphics/SVG/1.1/DTD/svg11.dtd">
<svg version="1.1" id="Layer_1" xmlns="http://www.w3.org/2000/svg" xmlns:xlink="http://www.w3.org/1999/xlink" x="0px" y="0px"
	 width="67.5px" height="67.6px" viewBox="0 0 67.5 67.6" style="enable-background:new 0 0 67.5 67.6;" xml:space="preserve">
<style type="text/css">
<![CDATA[
	.st0{fill:none;stroke:#002E3E;stroke-width:1.5;stroke-linecap:round;stroke-linejoin:round;stroke-miterlimit:10;}
	.st1{fill:#F99F1B;stroke:#002E3E;stroke-width:1.5;stroke-linecap:round;stroke-linejoin:round;stroke-miterlimit:10;}
]]>
</style>
<g>
	<polyline class="st0" points="6.2,31.1 6.2,23.6 20.3,23.6 	"/>
	<polyline class="st0" points="12,31.1 12,29.4 36.1,29.4 	"/>
	<g>
		<path class="st0" d="M37.7,22c-1.8,1.1-3.8,1.7-6,1.7c-6.3,0-11.5-5.1-11.5-11.5c0-6.3,5.1-11.5,11.5-11.5c5.4,0,10,3.8,11.2,8.8"
			/>
		<path class="st0" d="M35.6,8.5c0,0-0.3-1.8-3.2-1.8c-3,0-3.1,2.5-3.1,2.5s-0.1,2.4,3.4,3.4c3.1,0.9,2,5.2-0.7,5.2
			c-2.7,0-4.4-2.3-4.4-2.3"/>
		<line class="st0" x1="33.2" y1="5" x2="33" y2="6.7"/>
		<line class="st0" x1="31.1" y1="17.8" x2="30.8" y2="19.7"/>
	</g>
	<g>
		<circle class="st1" cx="48.9" cy="19.4" r="11.5"/>
		<path class="st0" d="M52.9,15.6c0,0-0.3-1.8-3.2-1.8c-3,0-3.1,2.5-3.1,2.5s-0.1,2.4,3.4,3.4c3.1,0.9,2,5.2-0.7,5.2
			s-4.4-2.3-4.4-2.3"/>
		<line class="st0" x1="50.5" y1="12.2" x2="50.2" y2="13.8"/>
		<line class="st0" x1="48.3" y1="24.9" x2="48.1" y2="26.9"/>
	</g>
	<polyline class="st0" points="60.7,29.4 66.7,29.4 66.7,61 62.3,61 	"/>
	<rect x="0.8" y="35.3" class="st0" width="57.4" height="31.5"/>
	<path class="st0" d="M0.8,44.2c4.8-0.3,8.6-4.1,9-8.8"/>
	<path class="st0" d="M49.3,35.2c0.3,4.8,4.1,8.6,8.9,9"/>
	<path class="st0" d="M9.7,66.8c-0.4-4.8-4.2-8.5-9-8.9"/>
	<path class="st0" d="M58.1,57.9c-4.8,0.4-8.5,4.2-8.9,9"/>
	<path class="st0" d="M33.5,45.4c0,0-1-2.4-4.1-2.4c-4.6,0-4.5,4.2-4.5,4.2s-0.3,3.6,4.5,3.6c6.2,0,5.2,7.1,1.2,7.5
		c-3.9,0.5-6.4-1.9-6.4-1.9"/>
	<path class="st0" d="M28.8,59"/>
	<line class="st0" x1="29.4" y1="41.1" x2="29.4" y2="60.3"/>
</g>
</svg>
