<?xml version="1.0" encoding="utf-8"?>
<!-- Generator: Adobe Illustrator 22.0.1, SVG Export Plug-In . SVG Version: 6.00 Build 0)  -->
<svg version="1.1" id="Layer_1" xmlns="http://www.w3.org/2000/svg" xmlns:xlink="http://www.w3.org/1999/xlink" x="0px" y="0px"
	 width="164.8px" height="57.2px" viewBox="0 0 164.8 57.2" style="enable-background:new 0 0 164.8 57.2;" xml:space="preserve">
<style type="text/css">
	.st0{fill:#2C2569;}
	.st1{fill:#949599;}
	.st2{fill:#95969A;}
	.st3{fill:#2D266A;}
</style>
<g>
	<path class="st0" d="M19.2,55.7C8.7,51.4,2.1,44,0.4,32.8S2.9,12.5,11.8,5.3c5.8,12,11.6,23.9,17.4,35.9
		C25.9,46,22.6,50.8,19.2,55.7z"/>
	<path class="st0" d="M32.7,36.2c-3.2-12-6.3-23.8-9.4-35.7c9-1.9,20.3,1.1,27.3,9.9C44.7,19,38.7,27.5,32.7,36.2z"/>
	<path class="st0" d="M56.3,21.6c3.6,13.7-4,29.2-18.5,34c-1.1-4.3-2.2-8.5-3.4-12.8C41.7,35.7,49,28.7,56.3,21.6z"/>
	<path class="st1" d="M105.9,36.5c-1.3,0-2.6,0-4,0c-1-1.3-2-2.7-3-4.1c-1-1.4-2-2.7-3.1-4.2c0,2.8,0,5.5,0,8.3c-1.5,0-2.9,0-4.4,0
		c0-5.3,0-10.7,0-16.1c1.3,0,2.6,0,4.1,0c1.8,2.5,3.7,5,5.7,7.7c0-2.7,0-5.2,0-7.8c1.6,0,3.1,0,4.7,0
		C105.9,25.7,105.9,31.1,105.9,36.5z"/>
	<path class="st1" d="M84.2,56.4c-3.9,0-6.7-1.8-7.9-4.9c-1.4-3.4-0.6-7.4,1.9-9.8c1.9-1.9,4.4-2.4,6.9-2.1c3.9,0.4,6.4,2.7,7.2,6.5
		c1,4.4-1.2,9-6,10.1C85.6,56.3,84.8,56.4,84.2,56.4z M87.4,48.5c0-1.3-0.2-2.1-0.7-2.9c-1.2-2.1-4-2.1-5.4-0.1
		c-1,1.5-0.9,3.9,0.1,5.3c1.1,1.6,3.2,1.8,4.7,0.4C87.1,50.4,87.4,49.3,87.4,48.5z"/>
	<path class="st1" d="M142.6,31.2c-0.3-0.1-0.5-0.1-0.8,0c0,1.7,0,3.5,0,5.3c-1.6,0-3.2,0-4.7,0c0-5.4,0-10.7,0-16.1
		c0.1,0,0.1-0.1,0.2-0.1c2.7,0,5.3-0.2,8,0.1c2.5,0.2,4.3,1.6,4.8,3.7c0.6,2.6-0.2,4.7-2.4,6.1c-0.1,0.1-0.3,0.2-0.4,0.3
		c0.5,0.9,1,1.8,1.5,2.7s1,1.8,1.5,2.8c-1.6,0.4-3.2,0.7-4.8,1C144.4,35.1,143.5,33.1,142.6,31.2z M141.7,27.5c1,0,1.9,0.1,2.8-0.3
		c0.6-0.3,0.9-0.9,0.8-1.6c-0.1-0.7-0.5-1.1-1.1-1.2c-0.8-0.2-1.6-0.1-2.5-0.1C141.7,25.3,141.7,26.4,141.7,27.5z"/>
	<path class="st1" d="M130.4,20.3c1.7,0,3.2,0,4.8,0c0.2,0.2,0.1,0.3,0.1,0.5c0,3,0,6.1,0,9.1c0,1-0.2,2.1-0.6,3.1
		c-0.6,1.8-1.9,3-3.7,3.5c-2.1,0.6-4.2,0.6-6.3-0.1c-2.4-0.8-3.9-2.6-4-5c-0.2-3.6,0-7.3,0-11c1.5,0,3.1,0,4.6,0
		c0.2,0.2,0.1,0.5,0.1,0.7c0,2.8,0,5.6,0,8.3c0,0.4,0,0.8,0.1,1.2c0.3,1.3,1.3,2.1,2.5,2.1c1.2-0.1,2.1-1,2.3-2.3
		c0.1-0.6,0.1-1.2,0.1-1.9c0-2.5,0-4.9,0-7.4C130.4,20.9,130.4,20.7,130.4,20.3z"/>
	<path class="st1" d="M96.1,56.1c-1.8,0-3.6,0-5.5,0c0.9-1.5,1.7-2.8,2.5-4.2s1.6-2.7,2.5-4.1c-1.6-2.6-3.1-5.1-4.7-7.8
		c2,0,3.8,0,5.7,0c0.6,1.1,1.2,2.3,1.9,3.6c0.6-1.3,1.2-2.4,1.8-3.6c1.9,0,3.7,0,5.6,0c-1.6,2.6-3.1,5.2-4.7,7.9
		c1.6,2.7,3.3,5.5,5,8.3c-1.8,0-3.6,0-5.5,0c-0.7-1.3-1.5-2.6-2.3-4C97.6,53.4,96.9,54.7,96.1,56.1z"/>
	<path class="st1" d="M77.4,17.1c-4.1,0-8.1,0-12.2,0c0-1,0-2.1,0-3.2c1.3-1.1,2.7-2.3,4.1-3.5C70.1,9.7,71,9,71.8,8.2
		c0.5-0.6,1-1.3,1-2.1c0-0.6-0.2-1.2-0.8-1.5c-0.7-0.2-1.3-0.2-1.8,0.3S69.5,6,69.3,6.7c-1.5-0.3-2.9-0.6-4.4-0.9
		c0.5-3.1,2.3-4.8,5.4-5c1-0.1,2.1,0,3.1,0.1c4.1,0.7,5.5,5.4,3.1,8.4c-0.9,1.2-2.1,2-3.1,3c-0.2,0.2-0.5,0.4-0.9,0.8
		c1.9,0,3.6,0,5.4,0C77.8,14.5,77.6,15.7,77.4,17.1z"/>
	<path class="st1" d="M78.4,22.5c-0.9,1.2-1.7,2.3-2.6,3.5c-0.6-0.4-1.1-0.9-1.7-1.1c-2-0.8-3.9,0.2-4.4,2.2
		c-0.2,0.9-0.3,1.7-0.1,2.6c0.6,2.5,3,3.5,5.4,2.2c0.4-0.2,0.8-0.5,1.2-0.8c0.9,1.1,1.7,2.3,2.6,3.5C78,35.4,77.1,36,76,36.3
		c-3.3,1-6.4,0.8-9.1-1.4c-1.4-1.2-2.3-2.7-2.6-4.5c-0.5-3.1,0.2-5.8,2.5-8.1C69.8,19.3,75.6,19.4,78.4,22.5z"/>
	<path class="st1" d="M89.9,24.8c-1.9,0-3.7,0-5.6,0c-0.1,0.7-0.1,1.2-0.1,1.9c1.3,0,2.7,0,4.1,0c0,1.3,0,2.5,0,3.9
		c-1.3,0-2.6,0-4,0c-0.1,0.6-0.1,1.2,0,1.9c1.9,0,3.7,0,5.6,0c-0.2,1.4-0.3,2.8-0.5,4.1c-3.3,0-6.6,0-9.9,0c0-5.4,0-10.7,0-16.1
		c3.3,0,6.5,0,9.9,0C89.6,21.8,89.8,23.2,89.9,24.8z"/>
	<path class="st1" d="M87.6,15.5c0.7-1.3,1.3-2.4,2-3.7c0.7,0.4,1.3,0.8,1.9,1.1c0.9,0.5,1.8,0.7,2.8,0.6c0.6-0.1,1.1-0.2,1.3-0.9
		c0.1-0.7-0.4-1-0.9-1.2c-1-0.4-2-0.7-3-1.1c-2.5-1-3.5-2.5-3.4-4.8c0.1-2,1.6-3.9,3.8-4.6c2.6-0.8,5.1-0.4,7.4,0.9
		c0.1,0.1,0.3,0.2,0.4,0.3c-0.6,1.1-1.3,2.3-1.9,3.4c-0.4-0.2-0.8-0.5-1.3-0.7c-0.9-0.4-1.8-0.6-2.8-0.5c-0.6,0.1-1.1,0.3-1.2,0.9
		s0.3,0.9,0.8,1.1c0.6,0.2,1.2,0.4,1.8,0.6c0.7,0.2,1.4,0.4,2,0.8c2.1,1,2.9,2.7,2.7,5c-0.2,2.1-1.4,3.4-3.2,4.1
		C93.6,18.2,90.6,17.3,87.6,15.5z"/>
	<path class="st1" d="M65.3,56c0-5.4,0-10.7,0-16.1c3.2,0,6.5,0,9.8,0c0.1,1.4,0.3,2.9,0.4,4.4c-1.8,0-3.5,0-5.3,0
		c-0.2,0.8,0,1.5-0.1,2.2c1.5,0,2.9,0,4.3,0c0,1.5,0,2.8,0,4.3c-1.4,0-2.8,0-4.3,0c0,1.8,0,3.5,0,5.2C68.4,56,66.9,56,65.3,56z"/>
	<path class="st1" d="M159.2,36.5c-1.6,0-3.1,0-4.6,0c0-1.7,0-3.4,0-5c0-0.5-0.1-1-0.4-1.4c-1.6-2.9-3.2-5.8-4.8-8.7
		c-0.2-0.3-0.4-0.6-0.4-1c1.7,0,3.5,0,5.3,0c0.9,1.8,1.7,3.7,2.7,5.7c0.9-2,1.8-3.8,2.7-5.7c1.8,0,3.5,0,5.2,0
		c0,0.5-0.3,0.8-0.6,1.2c-1.6,2.9-3.2,5.7-4.8,8.6c-0.2,0.4-0.3,0.7-0.3,1.1C159.2,33,159.2,34.7,159.2,36.5z"/>
	<path class="st2" d="M100.2,5.3c0.2-1.5,0.3-2.9,0.4-4.3c3.9,0,7.7,0,11.6,0c0.1,1.4,0.2,2.8,0.4,4.2c-1.3,0-2.5,0-3.8,0
		c0,4,0,7.9,0,11.8c-1.6,0-3.2,0-4.8,0c0-3.9,0-7.8,0-11.8C102.7,5.3,101.5,5.3,100.2,5.3z"/>
	<path class="st1" d="M107.3,20.3c3.9,0,7.7,0,11.6,0c0.1,1.4,0.3,2.8,0.4,4.2c-1.3,0-2.5,0-3.8,0c0,4,0,7.9,0,11.9
		c-1.6,0-3.2,0-4.8,0c0-3.9,0-7.8,0-11.8c-1.3,0-2.5,0-3.8,0C107,23.1,107.3,21.8,107.3,20.3z"/>
	<path class="st3" d="M36.4,56.1c-5.2,1.4-10.4,1.4-15.7,0c3.6-3.5,7.1-6.9,10.7-10.3C33.1,49.2,34.7,52.6,36.4,56.1z"/>
	<path class="st2" d="M86.6,17.1c-1.6,0-3.1,0-4.7,0c0-3.3,0-6.6,0-10c-1.1,0.6-2.2,1-3.5,0.8c0-1.2,0-2.4,0-3.6
		c2-0.3,3.4-1.6,4.3-3.3c1.3,0,2.6,0,3.9,0C86.6,6.4,86.6,11.7,86.6,17.1z"/>
</g>
</svg>
