<?xml version="1.0" encoding="utf-8"?>
<!-- Generator: Adobe Illustrator 22.0.1, SVG Export Plug-In . SVG Version: 6.00 Build 0)  -->
<svg version="1.1" id="Layer_1" xmlns="http://www.w3.org/2000/svg" xmlns:xlink="http://www.w3.org/1999/xlink" x="0px" y="0px"
	 width="109.1px" height="110.6px" viewBox="0 0 109.1 110.6" style="enable-background:new 0 0 109.1 110.6;" xml:space="preserve"
	>
<style type="text/css">
	.st0{fill:none;stroke:#000000;stroke-width:2;stroke-linecap:round;stroke-linejoin:round;stroke-miterlimit:10;}
	.st1{fill:#FFDA30;stroke:#000000;stroke-width:2;stroke-linecap:round;stroke-linejoin:round;stroke-miterlimit:10;}
	.st2{fill:none;stroke:#FFDA30;stroke-width:2;stroke-linecap:round;stroke-linejoin:round;stroke-miterlimit:10;}
	.st3{fill:#FFDA30;stroke:#000000;stroke-width:2;stroke-miterlimit:10;}
	.st4{fill:none;stroke:#000000;stroke-width:2;stroke-miterlimit:10;}
</style>
<g>
</g>
<g>
	<circle class="st0" cx="69.1" cy="40" r="39"/>
	<line class="st0" x1="41.1" y1="69" x2="32.1" y2="78"/>
	<rect x="13" y="72.8" transform="matrix(0.7071 0.7071 -0.7071 0.7071 70.5532 13.8632)" class="st1" width="11" height="38.6"/>
	<line class="st2" x1="80.1" y1="34" x2="97.1" y2="34"/>
	<line class="st2" x1="80.1" y1="41" x2="97.1" y2="41"/>
	<line class="st2" x1="80.1" y1="49" x2="92.1" y2="49"/>
	<g>
		<path class="st3" d="M41.7,56V45.9c0-5.4,4.9-9.8,10.9-9.8h10.6c6,0,10.9,4.4,10.9,9.8V56"/>
		<path class="st4" d="M64.4,25.2c0,4-2.9,7.2-6.5,7.2c-3.6,0-6.5-3.2-6.5-7.2s2.9-7.2,6.5-7.2C61.5,18,64.4,21.2,64.4,25.2z"/>
	</g>
</g>
</svg>
