<?xml version="1.0" encoding="utf-8"?>
<!-- Generator: Adobe Illustrator 22.0.1, SVG Export Plug-In . SVG Version: 6.00 Build 0)  -->
<svg version="1.1" id="Layer_1" xmlns="http://www.w3.org/2000/svg" xmlns:xlink="http://www.w3.org/1999/xlink" x="0px" y="0px"
	 width="180.9px" height="53.9px" viewBox="0 0 180.9 53.9" style="enable-background:new 0 0 180.9 53.9;" xml:space="preserve">
<style type="text/css">
	.st0{fill:#F9D12D;}
	.st1{fill:#3D3F3D;}
	.st2{fill:#393A39;}
	.st3{fill:#3A3B3A;}
	.st4{fill:#383938;}
	.st5{fill:#3B3C3B;}
	.st6{fill:#373837;}
	.st7{fill:#3F403E;}
</style>
<g>
	<path class="st0" d="M36.9,53.9c-12.3,0-24.6,0-36.9,0C0,35.9,0,18,0,0c12.3,0,24.5,0,36.9,0C36.9,17.9,36.9,35.9,36.9,53.9z
		 M5.3,5.4c0,14.4,0,28.7,0,43.1c8.8,0,17.5,0,26.3,0c0-14.4,0-28.7,0-43.1C22.8,5.4,14.1,5.4,5.3,5.4z"/>
	<path class="st1" d="M159.3,48.4c-1.1,0-2.1,0-3.2,0c0-3,0-5.9,0-8.9c-2.2,0-4.3,0-6.6,0c0,3,0,5.9,0,8.9c-1.1,0-2.1,0-3.1,0
		c0-6.2,0-12.4,0-18.7c1,0,2,0,3.1,0c0,2.4,0,4.7,0,7.2c2.2,0,4.3,0,6.6,0c0-2.4,0-4.7,0-7.1c1.1,0,2.1,0,3.2,0
		C159.3,36,159.3,42.1,159.3,48.4z"/>
	<path class="st2" d="M94.5,14c0.1-2.8,1-5.8,4-7.7c3.2-2.2,7.2-1.4,9.6,1.6c3.1,4,2.8,10.8-0.6,14.4c-3.1,3.3-8.6,2.7-11-1.1
		C95.1,19.2,94.6,16.9,94.5,14z M97.9,14.4c0.1,1.9,0.3,3.5,1,5c0.7,1.4,1.8,2.4,3.4,2.4s2.8-0.8,3.5-2.2c1.5-3.2,1.6-6.5,0.1-9.7
		c-0.7-1.4-1.9-2.2-3.5-2.1c-1.6,0-2.7,0.9-3.5,2.2C98.1,11.4,97.9,13,97.9,14.4z"/>
	<path class="st3" d="M72.9,38.4c0.1-2.8,1-5.7,3.9-7.7c3.2-2.1,7.1-1.5,9.6,1.5c3.2,3.9,2.9,10.8-0.5,14.5c-3.1,3.3-8.6,2.8-11.1-1
		C73.5,43.6,73,41.4,72.9,38.4z M76.3,38.8c0,1.6,0.2,3.3,0.9,4.7c0.7,1.4,1.7,2.5,3.4,2.5c1.6,0.1,2.8-0.6,3.5-2
		c1.6-3.3,1.7-6.7,0-10c-0.7-1.4-1.9-2.1-3.5-2c-1.6,0-2.7,0.9-3.4,2.3C76.5,35.7,76.3,37.2,76.3,38.8z"/>
	<path class="st4" d="M125.9,24.2c-0.8,0-1.5,0-2.2,0c-3-4.3-6-8.7-8.9-13.4c0,4.5,0,8.8,0,13.2c-0.9,0.1-1.7,0.1-2.6,0.1
		c0-6.3,0-12.4,0-18.7c0.7-0.2,1.4,0,2.2-0.1c3.1,4.3,6.1,8.6,9,13.1c0-4.3,0-8.7,0-13c0.9,0,1.7,0,2.5,0
		C125.9,11.6,125.9,17.9,125.9,24.2z"/>
	<path class="st4" d="M59.1,5.4c0.9,0,1.7,0,2.6,0c0,6.2,0,12.4,0,18.7c-0.7,0.2-1.4,0-2.2,0.1c-3.1-4.4-6-8.8-9-13.5
		c0,4.6,0,9,0,13.4c-0.9,0.1-1.7,0.1-2.5,0c0-6.2,0-12.4,0-18.7c0.7,0,1.4,0,2.2,0c3.1,4.2,6,8.6,9,13.3
		C59.1,14.1,59.1,9.8,59.1,5.4z"/>
	<path class="st2" d="M117.8,48.4c-1.1,0-2.2,0-3.3,0c-1-2.3-2-4.6-3-7c-0.5-0.1-1-0.1-1.6,0c0,2.3,0,4.6,0,7c-1.1,0-2.1,0-3.1,0
		c0-6.2,0-12.4,0-18.8c2.4,0.1,4.7-0.3,7.1,0.3c2.5,0.6,3.9,3,3.5,5.9c-0.3,2.1-1.2,3.7-3.1,4.9c1.2,2.5,2.4,4.9,3.5,7.4
		C117.8,48.2,117.8,48.3,117.8,48.4z M110,32.3c0,2.3,0,4.5,0,6.8c3.2-0.3,4.5-1.6,4.3-4.2C114.1,32.8,112.8,32,110,32.3z"/>
	<path class="st5" d="M103.7,47.5c-3.7,1.9-8.2,1.5-10.9-0.9c-2.2-2-3.2-4.6-3.2-7.5c0-3.5,1.2-6.5,4.3-8.5c2.8-1.8,6.7-1.7,9.2,0.2
		c-0.3,0.7-0.6,1.4-0.9,2.1c-0.6-0.2-1.2-0.5-1.8-0.7c-3-0.8-5.5,0.5-6.7,3.4c-1.2,3.1-0.5,7.1,1.7,9.1c1.4,1.3,3.4,1.6,5.3,0.8
		c0-1.9,0-3.8,0-5.8c1.1,0,2.1,0,3.1,0C103.7,42.4,103.7,44.9,103.7,47.5z"/>
	<path class="st2" d="M56.5,45.6c0-1.9,0-3.8,0-5.8c1,0,2,0,3.1,0c0,2.5,0,5.1,0,7.6c-4.3,2-8.9,1.5-11.5-1.5S45,39.4,46,35.6
		s4.4-6.4,8.3-6.4c1.7,0,3.2,0.4,4.7,1.5c-0.3,0.7-0.6,1.4-1,2.2c-0.4-0.2-0.8-0.4-1.2-0.5c-3.1-1.2-6.1,0.1-7.2,3.2
		c-1.1,2.9-0.9,5.7,0.9,8.3C51.8,45.9,54.4,46.6,56.5,45.6z"/>
	<path class="st3" d="M117.8,48.4c0-0.1,0-0.2,0-0.3c0.1,0.1,0.2,0.1,0.3,0.2c2.1-6.2,4.2-12.4,6.4-18.6c0.9,0,1.7,0,2.6,0
		c1.9,6.2,3.9,12.4,5.8,18.7c-1.2,0-2.3,0-3.5,0c-0.5-1.7-1-3.4-1.5-5.1c-1.9,0-3.7,0-5.6,0c-0.5,1.7-1,3.4-1.6,5.1
		C119.8,48.4,118.8,48.4,117.8,48.4z M123.3,40.9c1.5,0,2.8,0,4.2,0c-0.7-2.5-1.4-4.9-2-7.2C124.7,36.1,124,38.5,123.3,40.9z"/>
	<path class="st3" d="M141.7,24.1c-1.2,0-2.3,0-3.5,0c-0.5-1.7-1-3.4-1.5-5.1c-1.9,0-3.7,0-5.6,0c-0.5,1.7-1,3.4-1.6,5.1
		c-0.9,0-1.7,0-2.7,0c2.1-6.3,4.3-12.5,6.4-18.7c0.9,0,1.7,0,2.6,0C137.8,11.6,139.7,17.8,141.7,24.1z M132,16.7c1.5,0,2.8,0,4.2,0
		c-0.7-2.5-1.4-4.9-2.1-7.6C133.5,11.7,132.8,14.2,132,16.7z"/>
	<path class="st3" d="M77.3,24.1c-1.2,0-2.3,0-3.5,0c-0.5-1.7-1-3.4-1.5-5.1c-1.8,0-3.6,0-5.5,0c-0.5,1.7-1,3.4-1.6,5.1
		c-0.9,0-1.7,0-2.7,0c2.1-6.3,4.2-12.4,6.4-18.7c0.8,0,1.7,0,2.6,0C73.5,11.5,75.4,17.8,77.3,24.1z M69.8,9.1
		c-0.6,2.7-1.3,5.1-2.1,7.6c1.4,0,2.8,0,4.2,0C71.3,14.2,70.6,11.7,69.8,9.1z"/>
	<path class="st5" d="M134,29.7c2,0,4-0.1,5.9,0c3.4,0.3,5.4,3.1,4.6,6.6c-0.7,3.2-2.9,5-6.2,5.1c-0.4,0-0.7-0.1-1.1,0.1
		c0,2.3,0,4.5,0,6.9c-1.1,0-2.1,0-3.1,0C134,42.2,134,36,134,29.7z M137.1,39c3.2-0.2,4.6-1.6,4.3-4.2c-0.3-2.1-1.8-3-4.3-2.6
		C137.1,34.5,137.1,36.7,137.1,39z"/>
	<path class="st5" d="M65.9,37.4c1.7,0,3.4,0,5.1,0c0,0.8,0,1.6,0,2.5c-1.6,0-3.3,0-5.1,0c0,2.1,0,4,0,6.1c2,0,4,0,6.1,0
		c0.2,0.8,0.1,1.6,0.1,2.4c-3.2,0-6.2,0-9.4,0c0-6.2,0-12.4,0-18.7c2.8,0,5.5,0,8.4,0c0,0.8,0,1.6,0,2.5c-1.7,0-3.4,0-5.1,0
		C65.9,34,65.9,35.7,65.9,37.4z"/>
	<path class="st3" d="M180.9,30.8c-0.3,0.7-0.7,1.4-1,2.2c-0.3-0.1-0.6-0.2-0.8-0.3c-3.2-1.4-6.2-0.3-7.4,3c-1.1,3-1,6.1,1.2,8.7
		c1.6,1.9,4.3,2.2,6.4,1.1c0.2-0.1,0.4-0.2,0.6-0.3c0.3,0.8,0.6,1.5,0.9,2.3c-2,1.2-4.1,1.5-6.3,1c-3.6-0.9-6.2-4-6.7-7.8
		c-0.4-3.4,0.3-6.5,2.8-9C173.5,28.9,177.7,28.6,180.9,30.8z"/>
	<path class="st4" d="M83.6,24.1c-1.1,0-2.1,0-3.2,0c0-5.4,0-10.7,0-16.1c-1.6,0-3.2,0-4.8,0c0-0.9,0-1.7,0-2.5c4.2,0,8.4,0,12.7,0
		c0.2,0.8,0,1.6,0.1,2.5c-1.6,0-3.2,0-4.8,0C83.6,13.3,83.6,18.7,83.6,24.1z"/>
	<path class="st6" d="M142.8,5.4c1,0,2,0,3.1,0c0,5.4,0,10.8,0,16.3c2.1,0,4.2,0,6.3,0c0.1,0.8,0.1,1.6,0,2.4c-3.1,0-6.2,0-9.3,0
		C142.8,17.9,142.8,11.7,142.8,5.4z"/>
	<path class="st7" d="M162.4,48.4c0-6.2,0-12.4,0-18.7c1,0,2,0,3.1,0c0,6.2,0,12.4,0,18.7C164.5,48.4,163.5,48.4,162.4,48.4z"/>
	<path class="st6" d="M89.5,24.1c0-6.2,0-12.4,0-18.6c1,0,2,0,3,0c0,6.2,0,12.4,0,18.6C91.6,24.1,90.6,24.1,89.5,24.1z"/>
</g>
</svg>
