<?xml version="1.0" encoding="utf-8"?>
<!-- Generator: Adobe Illustrator 22.0.1, SVG Export Plug-In . SVG Version: 6.00 Build 0)  -->
<svg version="1.1" id="Layer_1" xmlns="http://www.w3.org/2000/svg" xmlns:xlink="http://www.w3.org/1999/xlink" x="0px" y="0px"
	 width="117px" height="73px" viewBox="0 0 117 73" style="enable-background:new 0 0 117 73;" xml:space="preserve">
<style type="text/css">
	.st0{fill:#FFDA30;stroke:#000000;stroke-width:2;stroke-linecap:round;stroke-linejoin:round;stroke-miterlimit:10;}
	.st1{fill:none;stroke:#000000;stroke-width:2;stroke-linecap:round;stroke-linejoin:round;stroke-miterlimit:10;}
</style>
<g>
</g>
<g>
	<path class="st0" d="M100.6,43.2c-1,0.4-2,0.8-3,1c-1.3,0.3-2.8-0.2-3.6-1.3c-1.3-1.6-3.4-4.3-5.9-7.4C73.7,18.1,64.7,14,53.6,15.6
		c-4.9,0.7-6.9,2.4-11.3,4.1c-4.4,1.7-12,1.7-12.2-3.3c-0.1-3.2,6-6.1,13-10.6c10.5-6.7,16.5-5.3,25.8-2.4C79.4,6.6,86.6,9,91.7,9.8
		"/>
	<path class="st1" d="M102,1.9l-8.4,2.5c-1.7,0.6-2.7,2.4-2.3,4.2l9.4,35.1c0.5,1.9,2.5,3,4.4,2.4l8.5-2.5c1.8-0.6,2.8-2.4,2.3-4.2
		l-9.5-35.1C105.9,2.4,103.9,1.3,102,1.9z"/>
	<path class="st1" d="M55.1,69.8c10.3,4.8,13.1-1.6,13.1-1.6s7.1-0.4,8.4-7.2c4.3,0.4,9.6-2.8,9.4-7.6c6.1,0.1,11.7-6.5,6.7-12.1"/>
	<path class="st1" d="M16.4,43.5c0,0,2.8,2.1,5.6,3.9"/>
	<path class="st1" d="M34.7,11.1c-5.1-0.9-9.3-1.7-9.3-1.7"/>
	<path class="st0" d="M42.9,69.1c-0.3-0.4-0.8-0.7-1.3-0.7c-1.2,0-3.5-0.3-4.9-1.7c-0.7-0.8-1.3-1.6-1.6-2.5c-0.3-0.9-1.3-1.3-2.2-1
		c-3.1,0.8-6.3-2-6.5-5.3c0-0.8-0.6-1.4-1.4-1.4c-4.5-0.3-7-5.5-4.2-8.3c1.7-1.7,6.3-1,7.7,2.2c0.3,0.7,1.1,1,1.7,0.6
		c2.7-1.5,5.9,0.2,6.9,3.1c0.2,0.6,0.9,1,1.5,0.9c4.5-0.5,6.5,2.2,6.9,6c0.1,0.9,0.9,1.6,1.8,1.6c3-0.1,4.9,1.4,5.2,3.1
		c0.6,3.1,2.6,4.1,2.6,4.1C55.6,71.6,46.3,74,42.9,69.1z"/>
	<path class="st1" d="M15,1.9l8.4,2.5c1.7,0.6,2.7,2.4,2.3,4.2l-9.4,35.1c-0.5,1.9-2.5,3-4.4,2.4l-8.5-2.5c-1.8-0.6-2.8-2.4-2.3-4.2
		l9.5-35.1C11.1,2.4,13.1,1.3,15,1.9z"/>
	<line class="st1" x1="86" y1="53.5" x2="77.2" y2="43.5"/>
	<line class="st1" x1="76.6" y1="61.1" x2="69.5" y2="53.1"/>
	<line class="st1" x1="68.2" y1="68.2" x2="62.9" y2="62"/>
</g>
</svg>
