<?xml version="1.0" encoding="utf-8"?>
<!-- Generator: Adobe Illustrator 22.0.1, SVG Export Plug-In . SVG Version: 6.00 Build 0)  -->
<svg version="1.1" id="Layer_1" xmlns="http://www.w3.org/2000/svg" xmlns:xlink="http://www.w3.org/1999/xlink" x="0px" y="0px"
	 width="110.1px" height="89.9px" viewBox="0 0 110.1 89.9" style="enable-background:new 0 0 110.1 89.9;" xml:space="preserve">
<style type="text/css">
	.st0{fill:#FFDA30;stroke:#000000;stroke-width:2;stroke-linecap:round;stroke-linejoin:round;stroke-miterlimit:10;}
	.st1{fill:none;stroke:#000000;stroke-width:2;stroke-linecap:round;stroke-linejoin:round;stroke-miterlimit:10;}
	.st2{fill:none;stroke:#FFDA30;stroke-width:2;stroke-linecap:round;stroke-linejoin:round;stroke-miterlimit:10;}
</style>
<g>
</g>
<g>
	<g>
		<path class="st0" d="M56.6,88.5V70.6c0-9.6-8.4-17.5-18.6-17.5H20C9.8,53.1,1.4,61,1.4,70.6v17.9H56.6z"/>
		<ellipse class="st1" cx="29.2" cy="31.7" rx="11" ry="12.5"/>
	</g>
	<line class="st2" x1="59.5" y1="12.4" x2="97" y2="12.4"/>
	<line class="st2" x1="59.5" y1="20.3" x2="97" y2="20.3"/>
	<line class="st2" x1="59.5" y1="29.4" x2="83.4" y2="29.4"/>
	<g>
		<polyline class="st1" points="83.3,88.3 94.5,66 63.3,66 56.7,81.6 43.3,81.6 		"/>
		<path class="st1" d="M50.6,6v31.1c0,2.5,2,4.4,4.4,4.4h4.4v9.6c0,2.1,2.6,3,3.9,1.4l9.4-11h28.9c2.5,0,4.4-2,4.4-4.4V6
			c0-2.5-2-4.4-4.4-4.4H55C52.6,1.6,50.6,3.5,50.6,6z"/>
		<line class="st1" x1="1.6" y1="88.3" x2="108.4" y2="88.3"/>
	</g>
</g>
</svg>
