<?xml version="1.0" encoding="utf-8"?>
<!-- Generator: Adobe Illustrator 16.0.0, SVG Export Plug-In . SVG Version: 6.00 Build 0)  -->
<!DOCTYPE svg PUBLIC "-//W3C//DTD SVG 1.1//EN" "http://www.w3.org/Graphics/SVG/1.1/DTD/svg11.dtd">
<svg version="1.1" id="Layer_1" xmlns="http://www.w3.org/2000/svg" xmlns:xlink="http://www.w3.org/1999/xlink" x="0px" y="0px"
	 width="165.67px" height="44.41px" viewBox="0 0 165.67 44.41" enable-background="new 0 0 165.67 44.41" xml:space="preserve">
<g id="Page-1_2_">
	<g id="Global-Elements_2_" transform="translate(-389.000000, -140.000000)">
		<g id="Global-Nav-Copy-16_2_" transform="translate(290.000000, 125.000000)">
			<g id="WWR_logo_2_" transform="translate(99.000000, 15.000000)">
				<g id="Group-10_2_">
					<path id="Fill-1_2_" fill-rule="evenodd" clip-rule="evenodd" fill="#2A2C79" d="M41.4,42.349c0,0.736-0.572,1.271-1.271,1.271
						c-0.699,0-1.271-0.535-1.271-1.271c0-0.734,0.572-1.271,1.271-1.271C40.829,41.078,41.4,41.615,41.4,42.349z M41.189,42.349
						c0-0.611-0.471-1.07-1.061-1.07c-0.588,0-1.059,0.459-1.059,1.07s0.471,1.072,1.059,1.072
						C40.719,43.421,41.189,42.96,41.189,42.349z M40.395,42.974c-0.035-0.041-0.053-0.077-0.065-0.137l-0.035-0.188
						c-0.029-0.113-0.082-0.142-0.188-0.142h-0.194v0.466h-0.307v-1.283H40.2c0.289,0,0.464,0.123,0.464,0.377
						c0,0.188-0.134,0.305-0.275,0.324c0.11,0.023,0.182,0.08,0.205,0.205l0.06,0.23c0.011,0.059,0.035,0.105,0.077,0.146H40.395z
						 M40.147,41.937h-0.235v0.342h0.235c0.123,0,0.194-0.059,0.194-0.176C40.341,41.996,40.27,41.937,40.147,41.937z"/>
					<path id="Fill-3_2_" fill-rule="evenodd" clip-rule="evenodd" fill="#2A2C79" d="M44.409,22.204
						C44.409,9.941,34.467,0,22.205,0C9.94,0,0,9.941,0,22.204C0,34.468,9.94,44.41,22.205,44.41
						C34.467,44.41,44.409,34.468,44.409,22.204z M28.838,23.052h4.374l-4.374,14.803h-4.56l-2.045-9.1h-0.057l-2.045,9.1h-4.559
						l-4.374-14.803h4.374L11.199,8.249h4.646l2.115,9.566h0.059l2.205-9.566h3.963l2.206,9.566h0.058l2.115-9.566h4.646
						L28.838,23.052z M26.45,32.617l2.115-9.564h-4.287l-2.045-9.098h-0.057l-2.045,9.098h-4.287l2.115,9.564h0.059l2.205-9.564
						h3.963l2.206,9.564H26.45z"/>
					<path id="Fill-6_2_" fill-rule="evenodd" clip-rule="evenodd" fill="#2A2C79" d="M57.785,25.398
						c-1.509-0.266-2.577,0.582-2.891,1.934l-0.299-1.807h-2.247v7.951h2.591v-3.66c0-1.354,0.787-1.966,1.729-1.966
						c0.377,0,0.738,0.063,0.99,0.173L57.785,25.398z M61.838,31.748c-0.879,0-1.477-0.66-1.492-1.791h4.824
						c0.079-0.268,0.141-0.723,0.141-1.055c0-1.963-1.13-3.566-3.456-3.566c-2.482,0-3.993,1.65-3.993,4.243
						c0,2.562,1.541,4.085,3.929,4.085c1.54,0,2.97-0.676,3.458-2.215l-2.106-0.723C62.939,31.433,62.482,31.748,61.838,31.748z
						 M60.377,28.73c0.079-0.975,0.614-1.572,1.414-1.572c0.738,0,1.131,0.566,1.131,1.211c0,0.127,0,0.252-0.031,0.361H60.377z
						 M69.32,23.294c0-0.896-0.723-1.4-1.509-1.4c-0.786,0-1.507,0.503-1.507,1.4c0,0.879,0.722,1.381,1.507,1.381
						C68.597,24.675,69.32,24.173,69.32,23.294z M66.507,33.476h2.592v-7.951h-2.592V33.476z M78.02,27.017
						c-0.315-1.1-1.21-1.682-2.342-1.682c-1.116,0-2.074,0.598-2.435,1.713l-0.314-1.523h-2.216v7.951h2.592v-4.321
						c0-1.194,0.566-1.665,1.226-1.665c0.755,0,1.006,0.455,1.006,1.24v4.746h2.592v-4.321c0-1.194,0.583-1.665,1.227-1.665
						c0.77,0,1.005,0.455,1.005,1.24v4.746h2.609V27.88c0-1.695-1.054-2.545-2.467-2.545C79.37,25.335,78.412,25.949,78.02,27.017z
						 M91.157,28.007c0-1.682-1.021-2.672-3.285-2.672c-2.012,0-3.283,0.99-3.425,2.578l2.372,0.33c0-0.676,0.33-1.068,0.943-1.068
						c0.598,0,0.896,0.346,0.896,0.927v0.8c-0.268-0.015-0.676-0.046-0.99-0.046c-2.247,0-3.614,0.88-3.614,2.467
						c0,1.462,1.021,2.311,2.514,2.311c1.055,0,1.965-0.472,2.295-1.241c0.064,0.204,0.142,0.377,0.267,0.519
						c0.347,0.455,0.913,0.723,1.634,0.723c0.535,0,1.07-0.142,1.431-0.394l-0.095-1.682c-0.125,0.109-0.266,0.174-0.439,0.174
						c-0.281,0-0.502-0.158-0.502-0.565V28.007z M88.658,30.648c0,0.958-0.597,1.303-1.179,1.303c-0.598,0-0.943-0.329-0.943-0.832
						c0-0.645,0.535-0.974,1.572-0.974c0.203,0,0.409,0.015,0.55,0.03V30.648z M95.382,28.007c0-0.754,0.378-1.179,1.069-1.179
						c0.66,0,1.053,0.409,1.053,1.179c0,0.754-0.393,1.178-1.053,1.178C95.76,29.185,95.382,28.73,95.382,28.007z M100.868,33.822
						c0-1.555-1.068-2.389-3.27-2.389h-2.104c-0.314,0-0.55-0.11-0.55-0.393c0-0.236,0.141-0.393,0.377-0.504
						c0.361,0.079,0.739,0.111,1.131,0.111c2.043,0,3.615-0.85,3.615-2.625c0-0.518-0.158-0.975-0.426-1.352
						c0.676-0.156,1.353-0.66,1.463-1.477l-2.061-0.676c-0.046,0.486-0.172,1.006-0.424,1.288c-0.598-0.298-1.336-0.472-2.168-0.472
						c-2.152,0-3.598,0.943-3.598,2.688c0,1.053,0.58,1.793,1.508,2.215c-0.816,0.189-1.445,0.771-1.445,1.572
						c0,0.771,0.471,1.289,1.131,1.477c-1.006,0.143-1.713,0.676-1.713,1.51c0,1.492,1.98,1.98,3.851,1.98
						C98.511,36.777,100.868,35.99,100.868,33.822z M94.424,34.356c0-0.439,0.361-0.692,0.912-0.692h2.248
						c0.644,0,1.021,0.205,1.021,0.629c0,0.645-0.913,0.943-2.326,0.943C95.133,35.236,94.424,34.953,94.424,34.356z
						 M104.637,23.294c0-0.896-0.723-1.4-1.508-1.4s-1.51,0.503-1.51,1.4c0,0.879,0.725,1.381,1.51,1.381
						S104.637,24.173,104.637,23.294z M101.825,33.476h2.593v-7.951h-2.593V33.476z M108.246,25.525h-2.216v7.951h2.592v-4.307
						c0-1.209,0.614-1.68,1.336-1.68c0.755,0,1.038,0.471,1.038,1.256v4.73h2.593v-5.563c0-1.697-1.055-2.578-2.484-2.578
						c-1.193,0-2.151,0.613-2.545,1.713L108.246,25.525z M118.709,31.748c-0.879,0-1.477-0.66-1.493-1.791h4.825
						c0.078-0.268,0.141-0.723,0.141-1.055c0-1.963-1.131-3.566-3.456-3.566c-2.483,0-3.992,1.65-3.992,4.243
						c0,2.562,1.541,4.085,3.929,4.085c1.54,0,2.971-0.676,3.457-2.215l-2.105-0.723C119.809,31.433,119.354,31.748,118.709,31.748z
						 M117.249,28.73c0.078-0.975,0.611-1.572,1.414-1.572c0.738,0,1.131,0.566,1.131,1.211c0,0.127,0,0.252-0.031,0.361H117.249z
						 M128.518,29.816c0,1.24-0.645,1.836-1.414,1.836c-0.896,0-1.463-0.723-1.463-2.073c0-1.571,0.566-2.356,1.51-2.356
						c0.691,0,1.367,0.533,1.367,1.649V29.816z M128.879,33.476h2.248V22.13h-2.609v4.415c-0.283-0.723-1.068-1.21-2.185-1.21
						c-1.996,0-3.347,1.557-3.347,4.338c0,2.529,1.414,3.99,3.189,3.99c1.147,0,2.074-0.564,2.405-1.648L128.879,33.476z"/>
					<path id="Fill-8_2_" fill-rule="evenodd" clip-rule="evenodd" fill="#3568B2" d="M57.145,11.382l-1.164,5.138h-0.031
						l-1.099-5.138h-2.578l2.153,7.951h2.499l1.147-4.887h0.031l1.147,4.887h2.499l2.153-7.951h-2.482l-1.1,5.138h-0.031
						l-1.178-5.138H57.145z M68.143,17.604c-0.879,0-1.477-0.66-1.492-1.791h4.824c0.079-0.268,0.141-0.724,0.141-1.054
						c0-1.964-1.13-3.566-3.456-3.566c-2.482,0-3.993,1.649-3.993,4.242c0,2.561,1.541,4.085,3.929,4.085
						c1.54,0,2.97-0.676,3.458-2.216l-2.106-0.723C69.243,17.29,68.787,17.604,68.143,17.604z M66.682,14.588
						c0.079-0.975,0.614-1.572,1.414-1.572c0.738,0,1.131,0.566,1.131,1.21c0,0.125,0,0.252-0.032,0.362H66.682z M75.625,9.15
						c0-0.895-0.723-1.399-1.509-1.399c-0.786,0-1.508,0.504-1.508,1.399c0,0.88,0.722,1.383,1.508,1.383
						C74.902,10.533,75.625,10.03,75.625,9.15z M72.812,19.333h2.593v-7.951h-2.593V19.333z M79.228,13.864
						c0-0.754,0.376-1.178,1.069-1.178c0.658,0,1.052,0.409,1.052,1.178c0,0.755-0.394,1.179-1.052,1.179
						C79.604,15.043,79.228,14.588,79.228,13.864z M84.711,19.679c0-1.556-1.068-2.389-3.268-2.389h-2.106
						c-0.314,0-0.551-0.11-0.551-0.393c0-0.235,0.142-0.393,0.377-0.502c0.362,0.079,0.738,0.109,1.133,0.109
						c2.042,0,3.612-0.848,3.612-2.624c0-0.518-0.156-0.974-0.422-1.351c0.674-0.157,1.35-0.66,1.461-1.478l-2.06-0.676
						c-0.045,0.487-0.172,1.006-0.423,1.289c-0.597-0.299-1.335-0.471-2.168-0.471c-2.154,0-3.6,0.943-3.6,2.686
						c0,1.053,0.582,1.792,1.509,2.217c-0.818,0.188-1.445,0.77-1.445,1.571c0,0.77,0.471,1.288,1.131,1.477
						c-1.005,0.142-1.713,0.676-1.713,1.509c0,1.493,1.98,1.979,3.849,1.979C82.354,22.632,84.711,21.848,84.711,19.679z
						 M78.268,20.213c0-0.44,0.362-0.692,0.913-0.692h2.246c0.645,0,1.021,0.205,1.021,0.629c0,0.645-0.91,0.943-2.326,0.943
						C78.976,21.094,78.268,20.811,78.268,20.213z M88.288,7.988h-2.594v11.345h2.594v-4.306c0-1.21,0.612-1.681,1.335-1.681
						c0.754,0,1.036,0.471,1.036,1.257v4.729h2.594v-5.563c0-1.697-1.053-2.577-2.482-2.577c-1.132,0-2.059,0.565-2.482,1.602V7.988
						z M99.803,17.039c-0.407,0.283-0.771,0.409-1.193,0.409c-0.566,0-0.896-0.298-0.896-0.959v-3.206h2.074v-1.901h-2.059V9.387
						l-2.592,0.314v1.681h-1.038v1.901h1.021v3.552c0,1.87,1.164,2.687,2.846,2.687c0.833,0,1.603-0.235,2.169-0.66L99.803,17.039z
						 M105.367,11.382l-1.163,5.138h-0.031l-1.101-5.138h-2.577l2.152,7.951h2.498l1.148-4.887h0.031l1.146,4.887h2.5l2.153-7.951
						h-2.483l-1.1,5.138h-0.031l-1.18-5.138H105.367z M119.428,13.864c0-1.681-1.023-2.67-3.285-2.67
						c-2.012,0-3.285,0.989-3.426,2.577l2.371,0.33c0-0.676,0.331-1.069,0.944-1.069c0.597,0,0.896,0.347,0.896,0.927v0.801
						c-0.268-0.016-0.676-0.046-0.99-0.046c-2.247,0-3.615,0.879-3.615,2.467c0,1.462,1.021,2.311,2.516,2.311
						c1.052,0,1.963-0.472,2.293-1.241c0.063,0.204,0.143,0.376,0.268,0.517c0.347,0.457,0.912,0.724,1.635,0.724
						c0.535,0,1.068-0.142,1.43-0.393l-0.094-1.681c-0.126,0.108-0.268,0.172-0.44,0.172c-0.282,0-0.501-0.156-0.501-0.565V13.864z
						 M116.928,16.504c0,0.959-0.598,1.305-1.179,1.305c-0.597,0-0.942-0.33-0.942-0.833c0-0.645,0.533-0.974,1.572-0.974
						c0.203,0,0.408,0.015,0.549,0.031V16.504z M126.253,17.039c-0.409,0.283-0.77,0.409-1.194,0.409
						c-0.565,0-0.896-0.298-0.896-0.959v-3.206h2.074v-1.901h-2.058V9.387l-2.593,0.314v1.681h-1.037v1.901h1.021v3.552
						c0,1.87,1.162,2.687,2.844,2.687c0.833,0,1.602-0.235,2.168-0.66L126.253,17.039z M127.063,15.357
						c0,2.593,1.557,4.164,3.977,4.164c1.775,0,3.08-0.942,3.379-2.498l-2.248-0.692c-0.078,0.803-0.502,1.273-1.146,1.273
						c-0.928,0-1.383-0.817-1.383-2.247c0-1.352,0.425-2.263,1.383-2.263c0.723,0,1.053,0.566,1.115,1.289l2.232-0.487
						c-0.158-1.619-1.415-2.703-3.396-2.703C128.62,11.194,127.063,12.765,127.063,15.357z M138.071,7.988h-2.592v11.345h2.592
						v-4.306c0-1.21,0.613-1.681,1.336-1.681c0.754,0,1.037,0.471,1.037,1.257v4.729h2.593v-5.563c0-1.697-1.053-2.577-2.482-2.577
						c-1.132,0-2.059,0.565-2.483,1.602V7.988z M148.159,17.604c-0.88,0-1.478-0.66-1.492-1.791h4.824
						c0.078-0.268,0.141-0.724,0.141-1.054c0-1.964-1.131-3.566-3.457-3.566c-2.482,0-3.992,1.649-3.992,4.242
						c0,2.561,1.541,4.085,3.93,4.085c1.539,0,2.969-0.676,3.457-2.216l-2.106-0.723C149.259,17.29,148.803,17.604,148.159,17.604z
						 M146.697,14.588c0.079-0.975,0.612-1.572,1.415-1.572c0.738,0,1.131,0.566,1.131,1.21c0,0.125,0,0.252-0.031,0.362H146.697z
						 M158.292,11.256c-1.508-0.268-2.576,0.582-2.891,1.933l-0.299-1.807h-2.246v7.951h2.593v-3.662
						c0-1.351,0.786-1.964,1.729-1.964c0.376,0,0.738,0.063,0.989,0.172L158.292,11.256z M158.662,17.354
						c0.347,1.461,1.729,2.168,3.458,2.168c2.074,0,3.551-0.927,3.551-2.655c0-3.174-4.322-1.871-4.322-3.269
						c0-0.472,0.363-0.755,0.959-0.755c0.677,0,1.07,0.362,1.132,0.911l2.153-0.25c-0.236-1.477-1.415-2.31-3.301-2.31
						c-1.854,0-3.362,0.927-3.362,2.67c0,3.081,4.29,1.839,4.29,3.222c0,0.503-0.424,0.754-1.084,0.754s-1.194-0.392-1.305-0.974
						L158.662,17.354z"/>
				</g>
			</g>
		</g>
	</g>
</g>
</svg>
