<?xml version="1.0" encoding="utf-8"?>
<!-- Generator: Adobe Illustrator 22.0.1, SVG Export Plug-In . SVG Version: 6.00 Build 0)  -->
<svg version="1.1" id="Layer_1" xmlns="http://www.w3.org/2000/svg" xmlns:xlink="http://www.w3.org/1999/xlink" x="0px" y="0px"
	 width="29.1px" height="26px" viewBox="0 0 29.1 26" style="enable-background:new 0 0 29.1 26;" xml:space="preserve">
<style type="text/css">
	.st0{fill:#FF7B79;}
</style>
<g>
	<polygon class="st0" points="13,6.8 16.1,6.8 16.1,3.7 19.2,3.7 19.2,0.6 22.3,0.6 25.4,0.6 25.4,3.7 28.5,3.7 28.5,6.8 28.5,9.9 
		28.5,13 25.4,13 25.4,16.1 22.3,16.1 22.3,19.2 19.2,19.2 19.2,22.3 16.1,22.3 16.1,25.4 13,25.4 13,22.3 9.9,22.3 9.9,19.2 
		6.8,19.2 6.8,16.1 3.7,16.1 3.7,13 0.6,13 0.6,9.9 0.6,6.8 0.6,3.7 3.7,3.7 3.7,0.6 6.8,0.6 9.9,0.6 9.9,3.7 13,3.7 	"/>
	<path d="M16.1,26H13c-0.3,0-0.6-0.3-0.6-0.6v-2.5H9.9c-0.3,0-0.6-0.3-0.6-0.6v-2.5H6.8c-0.3,0-0.6-0.3-0.6-0.6v-2.5H3.7
		c-0.3,0-0.6-0.3-0.6-0.6v-2.5H0.6C0.3,13.6,0,13.3,0,13V3.7c0-0.3,0.3-0.6,0.6-0.6h2.5V0.6C3.1,0.3,3.4,0,3.7,0h6.2
		c0.3,0,0.6,0.3,0.6,0.6v2.5H13c0.3,0,0.6,0.3,0.6,0.6v2.5h2V3.7c0-0.3,0.3-0.6,0.6-0.6h2.5V0.6c0-0.3,0.3-0.6,0.6-0.6h6.2
		C25.7,0,26,0.3,26,0.6v2.5h2.5c0.3,0,0.6,0.3,0.6,0.6v2.1c0,0.3-0.3,0.6-0.6,0.6s-0.6-0.3-0.6-0.6V4.2h-2.5c-0.3,0-0.6-0.3-0.6-0.6
		V1.1h-5.1v2.5c0,0.3-0.3,0.6-0.6,0.6h-2.5v2.5c0,0.3-0.3,0.6-0.6,0.6H13c-0.3,0-0.6-0.3-0.6-0.6V4.2H9.9C9.6,4.2,9.3,4,9.3,3.7V1.1
		H4.2v2.5C4.2,4,4,4.2,3.7,4.2H1.1v8.2h2.5c0.3,0,0.6,0.3,0.6,0.6v2.5h2.5c0.3,0,0.6,0.3,0.6,0.6v2.5h2.5c0.3,0,0.6,0.3,0.6,0.6v2.5
		H13c0.3,0,0.6,0.3,0.6,0.6v2.5h2v-2.5c0-0.3,0.3-0.6,0.6-0.6h2.5v-2.5c0-0.3,0.3-0.6,0.6-0.6h2.5v-2.5c0-0.3,0.3-0.6,0.6-0.6h2.5
		V13c0-0.3,0.3-0.6,0.6-0.6h2.5v-1.5c0-0.3,0.3-0.6,0.6-0.6s0.6,0.3,0.6,0.6V13c0,0.3-0.3,0.6-0.6,0.6H26v2.5c0,0.3-0.3,0.6-0.6,0.6
		h-2.5v2.5c0,0.3-0.3,0.6-0.6,0.6h-2.5v2.5c0,0.3-0.3,0.6-0.6,0.6h-2.5v2.5C16.7,25.7,16.4,26,16.1,26"/>
</g>
</svg>
