<?xml version="1.0" encoding="utf-8"?>
<!-- Generator: Adobe Illustrator 22.0.1, SVG Export Plug-In . SVG Version: 6.00 Build 0)  -->
<svg version="1.1" id="Layer_1" xmlns="http://www.w3.org/2000/svg" xmlns:xlink="http://www.w3.org/1999/xlink" x="0px" y="0px"
	 width="28.1px" height="28.1px" viewBox="0 0 28.1 28.1" style="enable-background:new 0 0 28.1 28.1;" xml:space="preserve">
<style type="text/css">
	.st0{fill:#4370FF;}
	.st1{fill:none;stroke:#000000;stroke-width:1.5;stroke-miterlimit:10;}
</style>
<g>
	<path class="st0" d="M14.1,0.8c7.3,0,13.3,6,13.3,13.3c0,7.3-6,13.3-13.3,13.3c-7.3,0-13.3-6-13.3-13.3C0.8,6.7,6.7,0.8,14.1,0.8"
		/>
	<path class="st1" d="M14.1,0.8c7.3,0,13.3,6,13.3,13.3c0,7.3-6,13.3-13.3,13.3c-7.3,0-13.3-6-13.3-13.3C0.8,6.7,6.7,0.8,14.1,0.8z"
		/>
	<polygon points="13.1,8.1 13.1,14.4 17.6,18.9 18.9,17.6 15,13.7 15,8.1 	"/>
</g>
</svg>
