<?xml version="1.0" encoding="utf-8"?>
<!-- Generator: Adobe Illustrator 23.1.0, SVG Export Plug-In . SVG Version: 6.00 Build 0)  -->
<svg version="1.1" id="Layer_1" xmlns="http://www.w3.org/2000/svg" xmlns:xlink="http://www.w3.org/1999/xlink" x="0px" y="0px"
	 width="48.1px" height="47.9px" viewBox="0 0 48.1 47.9" style="enable-background:new 0 0 48.1 47.9;" xml:space="preserve">
<style type="text/css">
	.st0{fill:#FDD931;stroke:#FDD931;stroke-width:0.75;stroke-miterlimit:10;}
</style>
<g id="food__x2C__dish__x2C__kitchen__x2C__1_">
	<g>
		<g>
			<path class="st0" d="M47.22,44.18C47.22,44.18,47.22,44.18,47.22,44.18H1.2c-0.24,0-0.44-0.2-0.44-0.44
				c0-12.91,10.53-23.41,23.48-23.41c6.22,0,12.09,2.44,16.52,6.86c4.43,4.42,6.88,10.28,6.89,16.5c0,0.01,0,0.03,0,0.04
				C47.66,43.98,47.46,44.18,47.22,44.18z M1.64,43.31h45.14c-0.23-12.23-10.25-22.1-22.54-22.1C11.93,21.2,1.88,31.08,1.64,43.31z"
				/>
		</g>
		<g>
			<path class="st0" d="M47.29,47.53H0.81c-0.24,0-0.44-0.2-0.44-0.44c0-0.24,0.2-0.44,0.44-0.44h46.48c0.24,0,0.44,0.2,0.44,0.44
				C47.72,47.33,47.53,47.53,47.29,47.53z"/>
		</g>
		<g>
			<path class="st0" d="M38.43,33.41c-0.15,0-0.29-0.07-0.37-0.21c-2.98-4.89-8.37-7.93-14.07-7.93c-0.24,0-0.44-0.2-0.44-0.44
				s0.2-0.44,0.44-0.44c3.02,0,6,0.8,8.62,2.31c2.54,1.46,4.68,3.55,6.19,6.04c0.13,0.21,0.06,0.47-0.15,0.6
				C38.58,33.39,38.5,33.41,38.43,33.41z"/>
		</g>
		<g>
			<path class="st0" d="M23.72,21.2c-2.49,0-4.44-1.98-4.44-4.51c0-2.49,1.95-4.44,4.44-4.44c2.48,0,4.51,1.99,4.51,4.44
				c0,1.22-0.47,2.36-1.33,3.21C26.05,20.74,24.92,21.2,23.72,21.2z M23.72,13.13c-2,0-3.57,1.57-3.57,3.57
				c0,2.04,1.57,3.64,3.57,3.64c2.04,0,3.63-1.6,3.63-3.64C27.35,14.73,25.72,13.13,23.72,13.13z"/>
		</g>
		<g>
			<path class="st0" d="M8.49,35.12h-1.9c-0.24,0-0.44-0.2-0.44-0.44s0.2-0.44,0.44-0.44h1.9c0.24,0,0.44,0.2,0.44,0.44
				S8.73,35.12,8.49,35.12z"/>
		</g>
		<g>
			<path class="st0" d="M9.67,38.99h-1.9c-0.24,0-0.44-0.2-0.44-0.44s0.2-0.44,0.44-0.44h1.9c0.24,0,0.44,0.2,0.44,0.44
				S9.91,38.99,9.67,38.99z"/>
		</g>
		<g>
			<path class="st0" d="M14.01,35.97h-1.84c-0.24,0-0.44-0.2-0.44-0.44s0.2-0.44,0.44-0.44h1.84c0.24,0,0.44,0.2,0.44,0.44
				S14.25,35.97,14.01,35.97z"/>
		</g>
		<g>
			<path class="st0" d="M16.3,40.17h-1.84c-0.24,0-0.44-0.2-0.44-0.44c0-0.24,0.2-0.44,0.44-0.44h1.84c0.24,0,0.44,0.2,0.44,0.44
				C16.74,39.98,16.54,40.17,16.3,40.17z"/>
		</g>
		<g>
			<path class="st0" d="M12.43,32.43h-1.84c-0.24,0-0.44-0.2-0.44-0.44s0.2-0.44,0.44-0.44h1.84c0.24,0,0.44,0.2,0.44,0.44
				S12.67,32.43,12.43,32.43z"/>
		</g>
		<g>
			<path class="st0" d="M17.68,31.05h-1.9c-0.24,0-0.44-0.2-0.44-0.44c0-0.24,0.2-0.44,0.44-0.44h1.9c0.24,0,0.44,0.2,0.44,0.44
				C18.12,30.85,17.92,31.05,17.68,31.05z"/>
		</g>
		<g>
			<path class="st0" d="M19.58,35.12h-1.84c-0.24,0-0.44-0.2-0.44-0.44s0.2-0.44,0.44-0.44h1.84c0.24,0,0.44,0.2,0.44,0.44
				S19.83,35.12,19.58,35.12z"/>
		</g>
		<g>
			<path class="st0" d="M20.64,38.93h-1.9c-0.24,0-0.44-0.2-0.44-0.44s0.2-0.44,0.44-0.44h1.9c0.24,0,0.44,0.2,0.44,0.44
				S20.88,38.93,20.64,38.93z"/>
		</g>
		<g>
			<path class="st0" d="M14.66,14.7c-0.24,0-0.44-0.2-0.44-0.44V7.11c0-0.24,0.2-0.44,0.44-0.44s0.44,0.2,0.44,0.44v7.16
				C15.1,14.51,14.9,14.7,14.66,14.7z"/>
		</g>
		<g>
			<path class="st0" d="M30.94,12.87c-0.24,0-0.44-0.2-0.44-0.44V7.31c0-0.24,0.2-0.44,0.44-0.44c0.24,0,0.44,0.2,0.44,0.44v5.12
				C31.38,12.67,31.18,12.87,30.94,12.87z"/>
		</g>
		<g>
			<path class="st0" d="M37.64,19.95c-0.24,0-0.44-0.2-0.44-0.44v-6.04c0-0.24,0.2-0.44,0.44-0.44c0.24,0,0.44,0.2,0.44,0.44v6.04
				C38.07,19.76,37.88,19.95,37.64,19.95z"/>
		</g>
		<g>
			<path class="st0" d="M7.9,21.66c-0.24,0-0.44-0.2-0.44-0.44v-7.16c0-0.24,0.2-0.44,0.44-0.44c0.24,0,0.44,0.2,0.44,0.44v7.16
				C8.34,21.47,8.14,21.66,7.9,21.66z"/>
		</g>
		<g>
			<path class="st0" d="M23.79,7.28c-0.24,0-0.44-0.2-0.44-0.44V0.81c0-0.24,0.2-0.44,0.44-0.44c0.24,0,0.44,0.2,0.44,0.44v6.04
				C24.22,7.09,24.03,7.28,23.79,7.28z"/>
		</g>
	</g>
</g>
</svg>
