<?xml version="1.0" encoding="utf-8"?>
<!-- Generator: Adobe Illustrator 23.1.0, SVG Export Plug-In . SVG Version: 6.00 Build 0)  -->
<svg version="1.1" id="Layer_1" xmlns="http://www.w3.org/2000/svg" xmlns:xlink="http://www.w3.org/1999/xlink" x="0px" y="0px"
	 width="44.91px" height="46.65px" viewBox="0 0 44.91 46.65" style="enable-background:new 0 0 44.91 46.65;" xml:space="preserve"
	>
<style type="text/css">
	.st0{fill:#FDD931;stroke:#FDD931;stroke-width:0.75;stroke-miterlimit:10;}
</style>
<g>
	<g>
		<path class="st0" d="M44.13,24.72c-0.22,0-0.41-0.18-0.41-0.41c0-11.73-9.54-21.27-21.27-21.27S1.19,12.58,1.19,24.31
			c0,0.22-0.18,0.41-0.41,0.41s-0.41-0.18-0.41-0.41c0-12.17,9.9-22.08,22.08-22.08s22.08,9.9,22.08,22.08
			C44.53,24.54,44.35,24.72,44.13,24.72z"/>
	</g>
	<g>
		<path class="st0" d="M11.68,24.72c-0.22,0-0.41-0.18-0.41-0.41c0-2.75-2.24-4.99-4.99-4.99c-2.75,0-4.99,2.24-4.99,4.99
			c0,0.22-0.18,0.41-0.41,0.41s-0.41-0.18-0.41-0.41c0-3.2,2.6-5.8,5.8-5.8c3.2,0,5.8,2.6,5.8,5.8
			C12.09,24.54,11.91,24.72,11.68,24.72z"/>
	</g>
	<g>
		<path class="st0" d="M22.47,24.72c-0.22,0-0.41-0.18-0.41-0.41c0-2.75-2.24-4.99-4.99-4.99c-2.75,0-4.99,2.24-4.99,4.99
			c0,0.22-0.18,0.41-0.41,0.41s-0.41-0.18-0.41-0.41c0-3.2,2.6-5.8,5.8-5.8s5.8,2.6,5.8,5.8C22.88,24.54,22.7,24.72,22.47,24.72z"/>
	</g>
	<g>
		<path class="st0" d="M19.77,46.27c-1.71,0-3.1-1.39-3.1-3.1c0-0.22,0.18-0.41,0.41-0.41c0.22,0,0.41,0.18,0.41,0.41
			c0,1.26,1.02,2.28,2.28,2.28c1.26,0,2.28-1.02,2.28-2.28c0-0.22,0.18-0.41,0.41-0.41c0.22,0,0.41,0.18,0.41,0.41
			C22.86,44.88,21.47,46.27,19.77,46.27z"/>
	</g>
	<g>
		<path class="st0" d="M33.24,24.72c-0.22,0-0.41-0.18-0.41-0.41c0-2.75-2.24-4.99-4.99-4.99c-2.75,0-4.99,2.24-4.99,4.99
			c0,0.22-0.18,0.41-0.41,0.41c-0.22,0-0.41-0.18-0.41-0.41c0-3.2,2.6-5.8,5.8-5.8c3.2,0,5.8,2.6,5.8,5.8
			C33.65,24.54,33.46,24.72,33.24,24.72z"/>
	</g>
	<g>
		<path class="st0" d="M44.02,24.72c-0.22,0-0.41-0.18-0.41-0.41c0-2.75-2.24-4.99-4.99-4.99c-2.75,0-4.99,2.24-4.99,4.99
			c0,0.22-0.18,0.41-0.41,0.41s-0.41-0.18-0.41-0.41c0-3.2,2.6-5.8,5.8-5.8c3.2,0,5.8,2.6,5.8,5.8
			C44.43,24.54,44.25,24.72,44.02,24.72z"/>
	</g>
	<g>
		<path class="st0" d="M22.45,43.47c-0.22,0-0.41-0.18-0.41-0.41L22,25.88c0-0.22,0.18-0.41,0.41-0.41c0,0,0,0,0,0
			c0.22,0,0.41,0.18,0.41,0.41l0.05,17.19C22.86,43.29,22.68,43.47,22.45,43.47C22.46,43.47,22.46,43.47,22.45,43.47z"/>
	</g>
	<g>
		<path class="st0" d="M23.37,2.1c-0.22,0-0.41-0.18-0.41-0.41c0-0.28-0.23-0.51-0.51-0.51c-0.28,0-0.51,0.23-0.51,0.51
			c0,0.22-0.18,0.41-0.41,0.41c-0.22,0-0.41-0.18-0.41-0.41c0-0.73,0.59-1.32,1.32-1.32c0.73,0,1.32,0.59,1.32,1.32
			C23.78,1.92,23.59,2.1,23.37,2.1z"/>
	</g>
</g>
</svg>
