<?xml version="1.0" encoding="utf-8"?>
<!-- Generator: Adobe Illustrator 23.1.0, SVG Export Plug-In . SVG Version: 6.00 Build 0)  -->
<svg version="1.1" id="Layer_1" xmlns="http://www.w3.org/2000/svg" xmlns:xlink="http://www.w3.org/1999/xlink" x="0px" y="0px"
	 width="45.5px" height="31.9px" viewBox="0 0 45.5 31.9" style="enable-background:new 0 0 45.5 31.9;" xml:space="preserve">
<style type="text/css">
	.st0{fill:#FFDA30;}
</style>
<g>
	<g>
		<g>
			<path class="st0" d="M32.9,0c-0.4,0-3.5-0.3-7.5,2.4l-0.1,0.1c0,0-0.7,0.6-2.6,0.6c-1.5,0-2.2-0.3-2.4-0.5h0l-0.1-0.1
				c0,0,0,0-0.1-0.1C15.9-0.4,12.7,0,12.7,0C0.5,0.5-0.1,20,0,26c0,1.6,0.6,3.1,1.5,4.3c1.4,1.7,3.3,2.1,5.4,1.2
				c0.8-0.3,1.5-0.9,2.3-1.6l5.2-5.2c0.1-0.1,1.2-0.9,4.2-0.9h8.3c2.6,0,3.8,0.6,4.1,0.8h0l5.3,5.3c0.7,0.8,1.5,1.3,2.3,1.6
				c2,0.9,4,0.5,5.4-1.2c0.9-1.1,1.5-2.6,1.5-4.3C45.6,20,45.1,0.5,32.9,0z M44.2,25.9c0,1.3-0.5,2.5-1.2,3.5
				c-1,1.2-2.3,1.5-3.9,0.9c-0.6-0.3-1.3-0.7-1.9-1.4L32,23.7c-0.2-0.2-1.4-1.2-5.1-1.2h-8.3c-3.7,0-4.9,1-5.1,1.2l-5.2,5.3
				C7.7,29.5,7,30,6.4,30.3c-0.5,0.2-1,0.3-1.5,0.3c-0.9,0-1.7-0.4-2.4-1.2c-0.8-0.9-1.2-2.1-1.2-3.5C1.2,20.3,1.7,1.8,12.8,1.3
				c0,0,0.1,0,0.3,0c0.9,0,3.3,0.2,6.3,2.2c0.3,0.2,1.2,0.9,3.4,0.9c2.2,0,3.1-0.7,3.4-0.9c3.6-2.4,6.4-2.3,6.7-2.2
				C43.8,1.8,44.3,20.3,44.2,25.9z"/>
		</g>
	</g>
	<g>
		<g>
			<g>
				<path class="st0" d="M32.4,8.7c0,0.9-0.7,1.6-1.6,1.6c-0.9,0-1.6-0.7-1.6-1.6c0-0.9,0.7-1.6,1.6-1.6C31.7,7.1,32.4,7.8,32.4,8.7
					z"/>
			</g>
		</g>
		<g>
			<g>
				<circle class="st0" cx="30.8" cy="17.3" r="1.6"/>
			</g>
		</g>
		<g>
			<g>
				<path class="st0" d="M39.4,13c0,0.9-0.7,1.6-1.6,1.6c-0.9,0-1.6-0.7-1.6-1.6c0-0.9,0.7-1.6,1.6-1.6C38.6,11.4,39.4,12.1,39.4,13
					z"/>
			</g>
		</g>
	</g>
	<g>
		<g>
			<path class="st0" d="M18.3,10.7h-2.2V8.5c0-1.3-1-2.3-2.3-2.3c-1.3,0-2.3,1-2.3,2.3v2.2H9.3C8,10.7,7,11.7,7,13
				c0,1.3,1,2.3,2.3,2.3h2.2v2.2c0,1.3,1,2.3,2.3,2.3c1.3,0,2.3-1,2.3-2.3v-2.2h2.2c1.3,0,2.3-1,2.3-2.3
				C20.6,11.7,19.6,10.7,18.3,10.7z M18.3,14.1h-2.8c-0.3,0-0.6,0.3-0.6,0.6v2.8c0,0.6-0.5,1.1-1.1,1.1c-0.6,0-1.1-0.5-1.1-1.1v-2.8
				c0-0.3-0.3-0.6-0.6-0.6H9.3c-0.6,0-1.1-0.5-1.1-1.1c0-0.6,0.5-1.1,1.1-1.1h2.8c0.3,0,0.6-0.3,0.6-0.6V8.5c0-0.6,0.5-1.1,1.1-1.1
				c0.6,0,1.1,0.5,1.1,1.1v2.8c0,0.3,0.3,0.6,0.6,0.6h2.8c0.6,0,1.1,0.5,1.1,1.1C19.4,13.6,18.9,14.1,18.3,14.1z"/>
		</g>
	</g>
</g>
</svg>
