<?xml version="1.0" encoding="utf-8"?>
<!-- Generator: Adobe Illustrator 23.1.0, SVG Export Plug-In . SVG Version: 6.00 Build 0)  -->
<svg version="1.1" id="Layer_1" xmlns="http://www.w3.org/2000/svg" xmlns:xlink="http://www.w3.org/1999/xlink" x="0px" y="0px"
	 width="48.1px" height="47.9px" viewBox="0 0 48.1 47.9" style="enable-background:new 0 0 48.1 47.9;" xml:space="preserve">
<style type="text/css">
	.st0{fill:none;stroke:#FDD931;stroke-width:1.5;stroke-linecap:round;stroke-linejoin:round;stroke-miterlimit:10;}
</style>
<path class="st0" d="M1.5,46.5h45 M5.4,46.5v-45h27.4v45 M33.4,9h9.3v36.2 M16.6,45.9v-4.1h5.1v4.1 M9.5,6.3h19.2 M37.6,16.9v-2.3
	 M37.6,24.8v-2.3 M37.6,32.6v-2.3 M37.6,40.5v-2.3 M9.5,10.8h19.2 M9.5,15.4h19.2 M9.5,19.9h19.2 M9.5,24.5h19.2 M9.5,29h19.2
	 M9.5,33.6h19.2 M9.5,38.1h19.2 M9.4,42.8h3.6 M25.2,42.8h3.6"/>
</svg>
