<?xml version="1.0" encoding="utf-8"?>
<!-- Generator: Adobe Illustrator 26.0.1, SVG Export Plug-In . SVG Version: 6.00 Build 0)  -->
<!DOCTYPE svg PUBLIC "-//W3C//DTD SVG 1.1//EN" "http://www.w3.org/Graphics/SVG/1.1/DTD/svg11.dtd" [
	<!ENTITY ns_extend "http://ns.adobe.com/Extensibility/1.0/">
	<!ENTITY ns_ai "http://ns.adobe.com/AdobeIllustrator/10.0/">
	<!ENTITY ns_graphs "http://ns.adobe.com/Graphs/1.0/">
	<!ENTITY ns_vars "http://ns.adobe.com/Variables/1.0/">
	<!ENTITY ns_imrep "http://ns.adobe.com/ImageReplacement/1.0/">
	<!ENTITY ns_sfw "http://ns.adobe.com/SaveForWeb/1.0/">
	<!ENTITY ns_custom "http://ns.adobe.com/GenericCustomNamespace/1.0/">
	<!ENTITY ns_adobe_xpath "http://ns.adobe.com/XPath/1.0/">
]>
<svg version="1.1" id="Layer_1" xmlns:x="&ns_extend;" xmlns:i="&ns_ai;" xmlns:graph="&ns_graphs;"
	 xmlns="http://www.w3.org/2000/svg" xmlns:xlink="http://www.w3.org/1999/xlink" x="0px" y="0px" width="61px" height="61px"
	 viewBox="0 0 61 61" style="enable-background:new 0 0 61 61;" xml:space="preserve">
<style type="text/css">
	.st0{fill:none;stroke:#010101;stroke-linecap:round;stroke-linejoin:round;stroke-miterlimit:10;}
</style>
<metadata>
	<sfw  xmlns="&ns_sfw;">
		<slices></slices>
		<sliceSourceBounds  bottomLeftOrigin="true" height="61" width="61" x="9.4" y="-51.3"></sliceSourceBounds>
	</sfw>
</metadata>
<g>
	<path class="st0" d="M41.2,46.3c3-2.1,5.5-5,6.9-8.4c1-2.3,1.5-4.8,1.5-7.4c0-3.9-1.2-7.6-3.3-10.7c-2.1-3-5-5.5-8.4-6.9
		c-2.3-1-4.8-1.5-7.4-1.5c-3.9,0-7.6,1.2-10.7,3.3c-3,2.1-5.5,5-6.9,8.4c-1,2.3-1.5,4.8-1.5,7.4c0,3.9,1.2,7.6,3.3,10.7
		c2.1,3,5,5.5,8.4,6.9c2.3,1,4.8,1.5,7.4,1.5C34.4,49.6,38.1,48.4,41.2,46.3L41.2,46.3z"/>
	<path class="st0" d="M59.4,27.3c-0.7-0.9-1.6-1.5-2.8-1.8h0l-0.1,0l0,0c-1.3-0.3-2.3-1.3-2.7-2.5c-0.4-1.3-0.9-2.5-1.5-3.6
		c-0.3-0.6-0.4-1.2-0.4-1.8c0-0.7,0.2-1.3,0.5-1.9l0,0l0-0.1l0,0c0.5-0.8,0.7-1.7,0.7-2.6c0-0.7-0.1-1.3-0.4-2
		c-0.3-0.6-0.6-1.2-1.1-1.7l0,0c-0.5-0.5-1.1-0.9-1.7-1.1c-0.6-0.3-1.3-0.4-2-0.4c-0.9,0-1.8,0.2-2.6,0.7l0,0l-0.1,0l0,0
		C44.8,8.8,44.1,9,43.4,9c-0.6,0-1.2-0.1-1.8-0.4C40.5,8,39.3,7.5,38,7.1c-1.2-0.4-2.2-1.4-2.5-2.7l0-0.1l0,0
		c-0.3-1.1-1-2.1-1.8-2.8c-0.9-0.7-2-1.1-3.2-1.1c-1.2,0-2.3,0.4-3.2,1.1c-0.9,0.7-1.5,1.6-1.8,2.8l0,0.1c-0.3,1.3-1.3,2.3-2.5,2.7
		c-1.3,0.4-2.5,0.9-3.6,1.5C18.7,8.9,18.1,9,17.5,9c-0.7,0-1.3-0.2-1.9-0.5l-0.1,0l0,0c-0.8-0.5-1.7-0.7-2.6-0.7
		c-0.7,0-1.3,0.1-2,0.4c-0.6,0.3-1.2,0.6-1.7,1.1C8.8,9.8,8.4,10.4,8.1,11c-0.3,0.6-0.4,1.3-0.4,2c0,0.9,0.2,1.8,0.7,2.6l0,0.1
		C8.8,16.2,9,16.9,9,17.6c0,0.6-0.1,1.2-0.4,1.8C8,20.5,7.5,21.7,7.1,23c-0.4,1.2-1.4,2.2-2.7,2.5l-0.1,0c-1.1,0.3-2.1,1-2.8,1.8
		c-0.7,0.9-1.1,2-1.1,3.2c0,1.2,0.4,2.3,1.1,3.2c0.7,0.9,1.6,1.5,2.8,1.8l0.1,0c1.3,0.3,2.3,1.3,2.7,2.5c0.4,1.3,0.9,2.5,1.5,3.6
		C8.9,42.3,9,42.9,9,43.5c0,0.7-0.2,1.3-0.5,1.9l0,0l0,0.1l0,0c-0.5,0.8-0.7,1.7-0.7,2.6c0,0.7,0.1,1.3,0.4,2
		c0.3,0.6,0.6,1.2,1.1,1.7l0,0c0.5,0.5,1.1,0.9,1.7,1.1c0.6,0.3,1.3,0.4,2,0.4c0.9,0,1.8-0.2,2.6-0.7l0,0l0.1,0l0,0
		c0.6-0.3,1.3-0.5,1.9-0.5c0.6,0,1.2,0.1,1.8,0.4c1.2,0.6,2.4,1.1,3.6,1.5c1.2,0.4,2.2,1.4,2.5,2.7l0,0l0,0.1l0,0
		c0.3,1.1,1,2.1,1.8,2.8c0.9,0.7,2,1.1,3.2,1.1c1.2,0,2.3-0.4,3.2-1.1c0.9-0.7,1.5-1.6,1.8-2.8l0-0.1c0.3-1.3,1.3-2.3,2.5-2.7
		c1.3-0.4,2.5-0.9,3.6-1.5c0.6-0.3,1.2-0.4,1.8-0.4c0.7,0,1.3,0.2,1.9,0.5l0.1,0c0.8,0.5,1.7,0.7,2.6,0.7c0.7,0,1.3-0.1,2-0.4
		c0.6-0.3,1.2-0.6,1.7-1.1c0.5-0.5,0.9-1.1,1.1-1.7c0.3-0.6,0.4-1.3,0.4-2c0-0.9-0.2-1.8-0.7-2.6h0l0-0.1c-0.3-0.6-0.5-1.3-0.5-1.9
		c0-0.6,0.1-1.2,0.4-1.8c0.6-1.2,1.1-2.4,1.5-3.6c0.4-1.2,1.4-2.2,2.7-2.5l0.1,0c1.1-0.3,2.1-1,2.8-1.8c0.7-0.9,1.1-2,1.1-3.2
		C60.5,29.3,60.1,28.2,59.4,27.3L59.4,27.3z"/>
	<g>
		<path class="st0" d="M37.9,20.6h0.9c0.8,0,1.5,0.6,1.5,1.5c0,0.8-0.6,1.5-1.5,1.5h-0.9"/>
		<path class="st0" d="M32.8,23.6H22.3c-0.8,0-1.5-0.6-1.5-1.5c0-0.8,0.6-1.5,1.5-1.5h10.6"/>
		<path class="st0" d="M35.3,25L35.3,25c-1.6,0-2.9-1.3-2.9-2.9v0c0-1.6,1.3-2.9,2.9-2.9h0c1.6,0,2.9,1.3,2.9,2.9v0
			C38.2,23.7,36.9,25,35.3,25z"/>
	</g>
	<g>
		<path class="st0" d="M37.9,28.4h0.9c0.8,0,1.5,0.6,1.5,1.5c0,0.8-0.6,1.5-1.5,1.5h-0.9"/>
		<path class="st0" d="M32.8,31.3H22.3c-0.8,0-1.5-0.6-1.5-1.5c0-0.8,0.6-1.5,1.5-1.5h10.6"/>
		<path class="st0" d="M35.3,32.7L35.3,32.7c-1.6,0-2.9-1.3-2.9-2.9v0c0-1.6,1.3-2.9,2.9-2.9h0c1.6,0,2.9,1.3,2.9,2.9v0
			C38.2,31.4,36.9,32.7,35.3,32.7z"/>
	</g>
	<g>
		<path class="st0" d="M28.2,36.1h10.6c0.8,0,1.5,0.6,1.5,1.5S39.5,39,38.7,39H28.2"/>
		<path class="st0" d="M23.1,39h-0.9c-0.8,0-1.5-0.6-1.5-1.5s0.6-1.5,1.5-1.5h0.9"/>
		<path class="st0" d="M25.7,34.7L25.7,34.7c1.6,0,2.9,1.3,2.9,2.9v0c0,1.6-1.3,2.9-2.9,2.9h0c-1.6,0-2.9-1.3-2.9-2.9v0
			C22.8,36,24.1,34.7,25.7,34.7z"/>
	</g>
</g>
</svg>
