<?xml version="1.0" encoding="utf-8"?>
<!-- Generator: Adobe Illustrator 26.0.1, SVG Export Plug-In . SVG Version: 6.00 Build 0)  -->
<!DOCTYPE svg PUBLIC "-//W3C//DTD SVG 1.1//EN" "http://www.w3.org/Graphics/SVG/1.1/DTD/svg11.dtd" [
	<!ENTITY ns_extend "http://ns.adobe.com/Extensibility/1.0/">
	<!ENTITY ns_ai "http://ns.adobe.com/AdobeIllustrator/10.0/">
	<!ENTITY ns_graphs "http://ns.adobe.com/Graphs/1.0/">
	<!ENTITY ns_vars "http://ns.adobe.com/Variables/1.0/">
	<!ENTITY ns_imrep "http://ns.adobe.com/ImageReplacement/1.0/">
	<!ENTITY ns_sfw "http://ns.adobe.com/SaveForWeb/1.0/">
	<!ENTITY ns_custom "http://ns.adobe.com/GenericCustomNamespace/1.0/">
	<!ENTITY ns_adobe_xpath "http://ns.adobe.com/XPath/1.0/">
]>
<svg version="1.1" id="Layer_1" xmlns:x="&ns_extend;" xmlns:i="&ns_ai;" xmlns:graph="&ns_graphs;"
	 xmlns="http://www.w3.org/2000/svg" xmlns:xlink="http://www.w3.org/1999/xlink" x="0px" y="0px" width="61px" height="61px"
	 viewBox="0 0 61 61" style="enable-background:new 0 0 61 61;" xml:space="preserve">
<style type="text/css">
	.st0{fill:none;stroke:#010101;stroke-linecap:round;stroke-linejoin:round;stroke-miterlimit:10;}
</style>
<metadata>
	<sfw  xmlns="&ns_sfw;">
		<slices></slices>
		<sliceSourceBounds  bottomLeftOrigin="true" height="61" width="61" x="6" y="-50.2"></sliceSourceBounds>
	</sfw>
</metadata>
<g>
	<circle class="st0" cx="30.1" cy="30.5" r="10.6"/>
	<g>
		<path class="st0" d="M30.5,14.8l3.3-5l3.3,1.3c0,0,1.8,0.9,1.8,2.6l0.5,4.4"/>
		<path class="st0" d="M30.5,14.8l-3.3-5l-3.3,1.3c0,0-1.8,0.9-1.8,2.6l-0.5,4.4"/>
		<circle class="st0" cx="30.5" cy="4.5" r="4"/>
	</g>
	<g>
		<path class="st0" d="M30.5,46.2l-3.3,5l-3.3-1.3c0,0-1.8-0.9-1.8-2.6l-0.5-4.4"/>
		<path class="st0" d="M30.5,46.2l3.3,5l3.3-1.3c0,0,1.8-0.9,1.8-2.6l0.5-4.4"/>
		<circle class="st0" cx="30.5" cy="56.5" r="4"/>
	</g>
	<g>
		<path class="st0" d="M46.2,30.5l5,3.3l-1.3,3.3c0,0-0.9,1.8-2.6,1.8l-4.4,0.5"/>
		<path class="st0" d="M46.2,30.5l5-3.3l-1.3-3.3c0,0-0.9-1.8-2.6-1.8l-4.4-0.5"/>
		<circle class="st0" cx="56.5" cy="30.5" r="4"/>
	</g>
	<g>
		<path class="st0" d="M14.8,30.5l-5-3.3l1.3-3.3c0,0,0.9-1.8,2.6-1.8l4.4-0.5"/>
		<path class="st0" d="M14.8,30.5l-5,3.3l1.3,3.3c0,0,0.9,1.8,2.6,1.8l4.4,0.5"/>
		<circle class="st0" cx="4.5" cy="30.5" r="4"/>
	</g>
</g>
</svg>
