<?xml version="1.0" encoding="utf-8"?>
<!-- Generator: Adobe Illustrator 26.0.1, SVG Export Plug-In . SVG Version: 6.00 Build 0)  -->
<!DOCTYPE svg PUBLIC "-//W3C//DTD SVG 1.1//EN" "http://www.w3.org/Graphics/SVG/1.1/DTD/svg11.dtd" [
	<!ENTITY ns_extend "http://ns.adobe.com/Extensibility/1.0/">
	<!ENTITY ns_ai "http://ns.adobe.com/AdobeIllustrator/10.0/">
	<!ENTITY ns_graphs "http://ns.adobe.com/Graphs/1.0/">
	<!ENTITY ns_vars "http://ns.adobe.com/Variables/1.0/">
	<!ENTITY ns_imrep "http://ns.adobe.com/ImageReplacement/1.0/">
	<!ENTITY ns_sfw "http://ns.adobe.com/SaveForWeb/1.0/">
	<!ENTITY ns_custom "http://ns.adobe.com/GenericCustomNamespace/1.0/">
	<!ENTITY ns_adobe_xpath "http://ns.adobe.com/XPath/1.0/">
]>
<svg version="1.1" id="Layer_1" xmlns:x="&ns_extend;" xmlns:i="&ns_ai;" xmlns:graph="&ns_graphs;"
	 xmlns="http://www.w3.org/2000/svg" xmlns:xlink="http://www.w3.org/1999/xlink" x="0px" y="0px" width="53.4px" height="61px"
	 viewBox="0 0 53.4 61" style="enable-background:new 0 0 53.4 61;" xml:space="preserve">
<style type="text/css">
	.st0{fill:none;stroke:#010101;stroke-linecap:round;stroke-linejoin:round;stroke-miterlimit:10;}
</style>
<metadata>
	<sfw  xmlns="&ns_sfw;">
		<slices></slices>
		<sliceSourceBounds  bottomLeftOrigin="true" height="61" width="53.4" x="13.2" y="-51.3"></sliceSourceBounds>
	</sfw>
</metadata>
<g>
	<g>
		<path class="st0" d="M26.4,3.9l-2.1,6.4c0,0.1-0.2,0.2-0.3,0.2h-6.7c-0.3,0-0.4,0.4-0.2,0.5l5.4,3.9c0.1,0.1,0.1,0.2,0.1,0.3
			l-2.1,6.4c-0.1,0.3,0.2,0.5,0.5,0.3l5.4-3.9c0.1-0.1,0.2-0.1,0.3,0l5.4,3.9c0.2,0.2,0.5-0.1,0.5-0.3l-2.1-6.4c0-0.1,0-0.3,0.1-0.3
			l5.4-3.9c0.2-0.2,0.1-0.5-0.2-0.5h-6.7c-0.1,0-0.2-0.1-0.3-0.2L27,3.9C26.9,3.6,26.5,3.6,26.4,3.9z"/>
		<path class="st0" d="M45.5,0.7l-1.5,4.8c0,0.1-0.1,0.2-0.2,0.2h-5c-0.2,0-0.3,0.3-0.1,0.4l4.1,2.9c0.1,0.1,0.1,0.2,0.1,0.2
			l-1.5,4.8c-0.1,0.2,0.2,0.4,0.3,0.2l4.1-2.9c0.1-0.1,0.2-0.1,0.3,0l4.1,2.9c0.2,0.1,0.4,0,0.3-0.2l-1.5-4.8c0-0.1,0-0.2,0.1-0.2
			L52.8,6c0.2-0.1,0.1-0.4-0.1-0.4h-5c-0.1,0-0.2-0.1-0.2-0.2l-1.5-4.8C45.8,0.4,45.5,0.4,45.5,0.7z"/>
		<path class="st0" d="M7.5,0.7L5.9,5.4c0,0.1-0.1,0.2-0.2,0.2h-5C0.5,5.6,0.4,5.8,0.6,6l4.1,2.9C4.7,9,4.8,9.1,4.7,9.2l-1.5,4.8
			c-0.1,0.2,0.2,0.4,0.3,0.2l4.1-2.9c0.1-0.1,0.2-0.1,0.3,0l4.1,2.9c0.2,0.1,0.4,0,0.3-0.2l-1.5-4.8c0-0.1,0-0.2,0.1-0.2L14.8,6
			c0.2-0.1,0.1-0.4-0.1-0.4h-5c-0.1,0-0.2-0.1-0.2-0.2L7.9,0.7C7.8,0.4,7.6,0.4,7.5,0.7z"/>
	</g>
	<g>
		<ellipse transform="matrix(0.9732 -0.2298 0.2298 0.9732 -7.0705 7.0391)" class="st0" cx="26.7" cy="33.9" rx="6.5" ry="6.5"/>
		<path class="st0" d="M19,60.5v-9c0-0.5-0.2-0.9-0.5-1.2L6.6,38.4c-1.1-1.1-1.1-3,0-4.2l0,0c1.1-1.1,3-1.1,4.2,0l9,8.9
			c0.3,0.3,0.8,0.5,1.2,0.5h11.5c0.5,0,0.9-0.2,1.2-0.5l8.9-8.9c1.1-1.1,3-1.1,4.2,0l0,0c1.1,1.1,1.1,3,0,4.2L34.9,50.2
			c-0.3,0.3-0.5,0.8-0.5,1.2v9"/>
	</g>
	<line class="st0" x1="40.1" y1="17.9" x2="38.8" y2="20.1"/>
	<line class="st0" x1="13.3" y1="18" x2="15.1" y2="19.7"/>
	<line class="st0" x1="6.3" y1="27" x2="8.8" y2="27.7"/>
	<line class="st0" x1="47" y1="27" x2="44.8" y2="28.2"/>
</g>
</svg>
