<?xml version="1.0" encoding="utf-8"?>
<!-- Generator: Adobe Illustrator 26.0.1, SVG Export Plug-In . SVG Version: 6.00 Build 0)  -->
<!DOCTYPE svg PUBLIC "-//W3C//DTD SVG 1.1//EN" "http://www.w3.org/Graphics/SVG/1.1/DTD/svg11.dtd" [
	<!ENTITY ns_extend "http://ns.adobe.com/Extensibility/1.0/">
	<!ENTITY ns_ai "http://ns.adobe.com/AdobeIllustrator/10.0/">
	<!ENTITY ns_graphs "http://ns.adobe.com/Graphs/1.0/">
	<!ENTITY ns_vars "http://ns.adobe.com/Variables/1.0/">
	<!ENTITY ns_imrep "http://ns.adobe.com/ImageReplacement/1.0/">
	<!ENTITY ns_sfw "http://ns.adobe.com/SaveForWeb/1.0/">
	<!ENTITY ns_custom "http://ns.adobe.com/GenericCustomNamespace/1.0/">
	<!ENTITY ns_adobe_xpath "http://ns.adobe.com/XPath/1.0/">
]>
<svg version="1.1" id="Layer_1" xmlns:x="&ns_extend;" xmlns:i="&ns_ai;" xmlns:graph="&ns_graphs;"
	 xmlns="http://www.w3.org/2000/svg" xmlns:xlink="http://www.w3.org/1999/xlink" x="0px" y="0px" width="57.4px" height="61px"
	 viewBox="0 0 57.4 61" style="enable-background:new 0 0 57.4 61;" xml:space="preserve">
<style type="text/css">
	.st0{fill:none;stroke:#010101;stroke-linecap:round;stroke-linejoin:round;stroke-miterlimit:10;}
</style>
<metadata>
	<sfw  xmlns="&ns_sfw;">
		<slices></slices>
		<sliceSourceBounds  bottomLeftOrigin="true" height="61" width="57.4" x="11.2" y="-51.3"></sliceSourceBounds>
	</sfw>
</metadata>
<g>
	<polyline class="st0" points="21.1,47.1 0.5,47.1 0.5,0.5 44.4,0.5 44.4,23.8 	"/>
	<g>
		<polyline class="st0" points="33.6,45.7 33.6,37.2 41.2,37.2 		"/>
		<polyline class="st0" points="47.5,37.2 56.9,37.2 56.9,60.5 33.6,60.5 33.6,52 		"/>
		<path class="st0" d="M41.2,37.2c0.8,0,1.4-0.6,1.4-1.4c0-0.4-0.2-0.8-0.4-1l-0.2-0.2c-0.8-0.7-1.3-1.6-1.3-2.7
			c0-2,1.6-3.6,3.6-3.6s3.6,1.6,3.6,3.6c0,1.1-0.5,2.1-1.3,2.8l-0.1,0.1c-0.3,0.3-0.4,0.6-0.4,1c0,0.8,0.6,1.4,1.4,1.4"/>
		<path class="st0" d="M33.6,45.7c0,0.8,0.6,1.4,1.4,1.4c0.4,0,0.8-0.2,1-0.4l0.2-0.2c0.7-0.8,1.6-1.3,2.7-1.3c2,0,3.6,1.6,3.6,3.6
			S41,52.4,39,52.4c-1.1,0-2.1-0.5-2.8-1.3L36.1,51c-0.3-0.3-0.6-0.4-1-0.4c-0.8,0-1.4,0.6-1.4,1.4"/>
	</g>
	<g>
		<polyline class="st0" points="21.1,32.3 21.1,23.8 28.7,23.8 		"/>
		<line class="st0" x1="21.1" y1="47.1" x2="21.1" y2="38.6"/>
		<line class="st0" x1="44.4" y1="23.8" x2="35" y2="23.8"/>
		<path class="st0" d="M28.7,23.8c0.8,0,1.4-0.6,1.4-1.4c0-0.4-0.2-0.8-0.4-1l-0.2-0.2c-0.8-0.7-1.3-1.6-1.3-2.7
			c0-2,1.6-3.6,3.6-3.6s3.6,1.6,3.6,3.6c0,1.1-0.5,2.1-1.3,2.8L34,21.3c-0.3,0.3-0.4,0.6-0.4,1c0,0.8,0.6,1.4,1.4,1.4"/>
		<path class="st0" d="M21.1,32.3c0,0.8,0.6,1.4,1.4,1.4c0.4,0,0.8-0.2,1-0.4l0.2-0.2c0.7-0.8,1.6-1.3,2.7-1.3c2,0,3.6,1.6,3.6,3.6
			c0,2-1.6,3.6-3.6,3.6c-1.1,0-2.1-0.5-2.8-1.3l-0.1-0.1c-0.3-0.3-0.6-0.4-1-0.4c-0.8,0-1.4,0.6-1.4,1.4"/>
	</g>
	<line class="st0" x1="21.1" y1="0.5" x2="21.1" y2="5.9"/>
	<line class="st0" x1="0.5" y1="23.8" x2="5" y2="23.8"/>
</g>
</svg>
