<?xml version="1.0" encoding="utf-8"?>
<!-- Generator: Adobe Illustrator 26.0.1, SVG Export Plug-In . SVG Version: 6.00 Build 0)  -->
<!DOCTYPE svg PUBLIC "-//W3C//DTD SVG 1.1//EN" "http://www.w3.org/Graphics/SVG/1.1/DTD/svg11.dtd" [
	<!ENTITY ns_extend "http://ns.adobe.com/Extensibility/1.0/">
	<!ENTITY ns_ai "http://ns.adobe.com/AdobeIllustrator/10.0/">
	<!ENTITY ns_graphs "http://ns.adobe.com/Graphs/1.0/">
	<!ENTITY ns_vars "http://ns.adobe.com/Variables/1.0/">
	<!ENTITY ns_imrep "http://ns.adobe.com/ImageReplacement/1.0/">
	<!ENTITY ns_sfw "http://ns.adobe.com/SaveForWeb/1.0/">
	<!ENTITY ns_custom "http://ns.adobe.com/GenericCustomNamespace/1.0/">
	<!ENTITY ns_adobe_xpath "http://ns.adobe.com/XPath/1.0/">
]>
<svg version="1.1" id="Layer_1" xmlns:x="&ns_extend;" xmlns:i="&ns_ai;" xmlns:graph="&ns_graphs;"
	 xmlns="http://www.w3.org/2000/svg" xmlns:xlink="http://www.w3.org/1999/xlink" x="0px" y="0px" width="61px" height="45.2px"
	 viewBox="0 0 61 45.2" style="enable-background:new 0 0 61 45.2;" xml:space="preserve">
<style type="text/css">
	.st0{fill:none;stroke:#010101;stroke-linecap:round;stroke-linejoin:round;stroke-miterlimit:10;}
</style>
<metadata>
	<sfw  xmlns="&ns_sfw;">
		<slices></slices>
		<sliceSourceBounds  bottomLeftOrigin="true" height="45.2" width="61" x="41.3" y="-49.8"></sliceSourceBounds>
	</sfw>
</metadata>
<g>
	<path class="st0" d="M37.2,12.2V1.9c0-0.8-0.6-1.4-1.4-1.4H1.9c-0.8,0-1.4,0.6-1.4,1.4v20.6c0,0.8,0.6,1.4,1.4,1.4h4.7V33l9.2-9.2
		h8.1"/>
	<path class="st0" d="M45.2,35.5h-20c-0.8,0-1.4-0.6-1.4-1.4V13.6c0-0.8,0.6-1.4,1.4-1.4h33.9c0.8,0,1.4,0.6,1.4,1.4v20.6
		c0,0.8-0.6,1.4-1.4,1.4h-4.7v9.2L45.2,35.5z"/>
	<g>
		<g>
			<line class="st0" x1="11.6" y1="7.3" x2="32.4" y2="7.3"/>
			<line class="st0" x1="4.3" y1="12.3" x2="20" y2="12.3"/>
			<line class="st0" x1="4.1" y1="17.3" x2="20" y2="17.3"/>
		</g>
		<line class="st0" x1="34.2" y1="27.3" x2="36" y2="27.3"/>
		<line class="st0" x1="40.8" y1="27.3" x2="43" y2="27.3"/>
		<line class="st0" x1="47.2" y1="27.3" x2="49.6" y2="27.3"/>
	</g>
</g>
</svg>
