<?xml version="1.0" encoding="utf-8"?>
<!-- Generator: Adobe Illustrator 26.0.1, SVG Export Plug-In . SVG Version: 6.00 Build 0)  -->
<!DOCTYPE svg PUBLIC "-//W3C//DTD SVG 1.1//EN" "http://www.w3.org/Graphics/SVG/1.1/DTD/svg11.dtd" [
	<!ENTITY ns_extend "http://ns.adobe.com/Extensibility/1.0/">
	<!ENTITY ns_ai "http://ns.adobe.com/AdobeIllustrator/10.0/">
	<!ENTITY ns_graphs "http://ns.adobe.com/Graphs/1.0/">
	<!ENTITY ns_vars "http://ns.adobe.com/Variables/1.0/">
	<!ENTITY ns_imrep "http://ns.adobe.com/ImageReplacement/1.0/">
	<!ENTITY ns_sfw "http://ns.adobe.com/SaveForWeb/1.0/">
	<!ENTITY ns_custom "http://ns.adobe.com/GenericCustomNamespace/1.0/">
	<!ENTITY ns_adobe_xpath "http://ns.adobe.com/XPath/1.0/">
]>
<svg version="1.1" id="Layer_1" xmlns:x="&ns_extend;" xmlns:i="&ns_ai;" xmlns:graph="&ns_graphs;"
	 xmlns="http://www.w3.org/2000/svg" xmlns:xlink="http://www.w3.org/1999/xlink" x="0px" y="0px" width="44.3px" height="61px"
	 viewBox="0 0 44.3 61" style="enable-background:new 0 0 44.3 61;" xml:space="preserve">
<style type="text/css">
	.st0{fill:none;stroke:#010101;stroke-linecap:round;stroke-linejoin:round;stroke-miterlimit:10;}
</style>
<metadata>
	<sfw  xmlns="&ns_sfw;">
		<slices></slices>
		<sliceSourceBounds  bottomLeftOrigin="true" height="61" width="44.3" x="7.8" y="-60.5"></sliceSourceBounds>
	</sfw>
</metadata>
<g>
	<g>
		<path class="st0" d="M22.2,60.5v-10c0-3,1.3-5.9,3.5-7.9l6.6-5.9c1.2-1.3,3.3-1.3,4.5,0.1c0.9,1.1,0.7,2.8-0.2,3.9l-5.1,5.6l0,0
			l4.7-5.2c1.5-1.7,2.3-3.8,2.3-6.1l-0.1-8.3c0-1.5,1.2-2.7,2.7-2.7l0,0c1.5,0,2.7,1.2,2.7,2.7v10.8c0,3.2-1,6.3-2.9,8.9l-5.7,7.7
			c-0.7,1-1.1,2.2-1.2,3.5l0,2.7"/>
		<path class="st0" d="M22.2,60.5v-10c0-3-1.3-5.9-3.5-7.9l-6.6-5.9c-1.2-1.3-3.3-1.3-4.5,0.1c-0.9,1.1-0.7,2.8,0.2,3.9l5.1,5.6l0,0
			l-4.7-5.2c-1.5-1.7-2.3-3.8-2.3-6.1l0.1-8.3c0-1.5-1.2-2.7-2.7-2.7l0,0c-1.5,0-2.7,1.2-2.7,2.7v10.8c0,3.2,1,6.3,2.9,8.9l5.7,7.7
			c0.7,1,1.1,2.2,1.2,3.5l0,2.7"/>
	</g>
	<g>
		<path class="st0" d="M11.2,11.5c0-6.9,6.3-12.2,13.4-10.7c4.2,0.9,7.6,4.4,8.4,8.6c0.7,3.8-0.5,7.3-2.8,9.7
			c-1.7,1.7-2.8,4-2.8,6.4V29H17v-3.6c0-2.4-1.1-4.7-2.8-6.4C12.3,17.1,11.2,14.4,11.2,11.5z"/>
		<g>
			<line class="st0" x1="26.2" y1="31.8" x2="18.1" y2="31.8"/>
			<line class="st0" x1="25.7" y1="34.7" x2="18.7" y2="34.7"/>
			<path class="st0" d="M19.6,37.7c0.5,1,1.5,1.6,2.6,1.6s2.1-0.7,2.6-1.6"/>
		</g>
		<line class="st0" x1="22.2" y1="16.2" x2="22.2" y2="29"/>
		<line class="st0" x1="25" y1="16.2" x2="19.3" y2="16.2"/>
		<path class="st0" d="M28.5,8.8c-0.8-2.1-2.6-3.6-4.8-4.1"/>
	</g>
</g>
</svg>
