<?xml version="1.0" encoding="utf-8"?>
<!-- Generator: Adobe Illustrator 26.0.1, SVG Export Plug-In . SVG Version: 6.00 Build 0)  -->
<!DOCTYPE svg PUBLIC "-//W3C//DTD SVG 1.1//EN" "http://www.w3.org/Graphics/SVG/1.1/DTD/svg11.dtd" [
	<!ENTITY ns_extend "http://ns.adobe.com/Extensibility/1.0/">
	<!ENTITY ns_ai "http://ns.adobe.com/AdobeIllustrator/10.0/">
	<!ENTITY ns_graphs "http://ns.adobe.com/Graphs/1.0/">
	<!ENTITY ns_vars "http://ns.adobe.com/Variables/1.0/">
	<!ENTITY ns_imrep "http://ns.adobe.com/ImageReplacement/1.0/">
	<!ENTITY ns_sfw "http://ns.adobe.com/SaveForWeb/1.0/">
	<!ENTITY ns_custom "http://ns.adobe.com/GenericCustomNamespace/1.0/">
	<!ENTITY ns_adobe_xpath "http://ns.adobe.com/XPath/1.0/">
]>
<svg version="1.1" id="Layer_1" xmlns:x="&ns_extend;" xmlns:i="&ns_ai;" xmlns:graph="&ns_graphs;"
	 xmlns="http://www.w3.org/2000/svg" xmlns:xlink="http://www.w3.org/1999/xlink" x="0px" y="0px" width="51.2px" height="61px"
	 viewBox="0 0 51.2 61" style="enable-background:new 0 0 51.2 61;" xml:space="preserve">
<style type="text/css">
	.st0{fill:none;stroke:#010101;stroke-linecap:round;stroke-linejoin:round;stroke-miterlimit:10;}
</style>
<metadata>
	<sfw  xmlns="&ns_sfw;">
		<slices></slices>
		<sliceSourceBounds  bottomLeftOrigin="true" height="61" width="51.2" x="46.2" y="-57.7"></sliceSourceBounds>
	</sfw>
</metadata>
<g>
	<path class="st0" d="M33.6,35.4c2.9-2.3,4.7-5.9,4.7-9.8c0-7-5.7-12.7-12.7-12.7c-7,0-12.7,5.7-12.7,12.7c0,4,1.8,7.5,4.7,9.8"/>
	<path class="st0" d="M28.6,60.5V32.6c2.7-1.2,4.6-3.9,4.6-7c0-3-1.8-5.6-4.3-6.8l0,6.1h-6.6v-6.1C19.7,20,18,22.6,18,25.6
		c0,3.1,1.9,5.8,4.6,7v24.8L28.6,60.5z"/>
	<path class="st0" d="M33.5,43.2c0,0,1.4-0.7,2.3-1.2l5.3,3.5l4.3-4.3L42,35.8c1.1-1.8,1.9-3.8,2.4-5.9l6.2-1.3v-6.1l-6.2-1.3
		c-0.5-2.1-1.3-4.1-2.4-5.9l3.4-5.3l-4.3-4.3l-5.3,3.4c-1.8-1.1-3.8-2-5.9-2.4l-1.3-6.2h-6l-1.4,6.2c-2.1,0.5-4.1,1.3-5.9,2.4
		L10,5.7L5.7,10l3.4,5.3c-1.1,1.8-1.9,3.8-2.4,5.9l-6.2,1.3v6.1L6.7,30c0.5,2.1,1.3,4.1,2.4,5.9l-3.4,5.3l4.3,4.3l5.3-3.5
		c0.8,0.5,2.3,1.2,2.3,1.2"/>
</g>
</svg>
