<?xml version="1.0" encoding="utf-8"?>
<!-- Generator: Adobe Illustrator 26.0.1, SVG Export Plug-In . SVG Version: 6.00 Build 0)  -->
<!DOCTYPE svg PUBLIC "-//W3C//DTD SVG 1.1//EN" "http://www.w3.org/Graphics/SVG/1.1/DTD/svg11.dtd" [
	<!ENTITY ns_extend "http://ns.adobe.com/Extensibility/1.0/">
	<!ENTITY ns_ai "http://ns.adobe.com/AdobeIllustrator/10.0/">
	<!ENTITY ns_graphs "http://ns.adobe.com/Graphs/1.0/">
	<!ENTITY ns_vars "http://ns.adobe.com/Variables/1.0/">
	<!ENTITY ns_imrep "http://ns.adobe.com/ImageReplacement/1.0/">
	<!ENTITY ns_sfw "http://ns.adobe.com/SaveForWeb/1.0/">
	<!ENTITY ns_custom "http://ns.adobe.com/GenericCustomNamespace/1.0/">
	<!ENTITY ns_adobe_xpath "http://ns.adobe.com/XPath/1.0/">
]>
<svg version="1.1" id="Layer_1" xmlns:x="&ns_extend;" xmlns:i="&ns_ai;" xmlns:graph="&ns_graphs;"
	 xmlns="http://www.w3.org/2000/svg" xmlns:xlink="http://www.w3.org/1999/xlink" x="0px" y="0px" width="57.2px" height="61px"
	 viewBox="0 0 57.2 61" style="enable-background:new 0 0 57.2 61;" xml:space="preserve">
<style type="text/css">
	.st0{fill:none;stroke:#010101;stroke-linecap:round;stroke-linejoin:round;stroke-miterlimit:10;}
</style>
<metadata>
	<sfw  xmlns="&ns_sfw;">
		<slices></slices>
		<sliceSourceBounds  bottomLeftOrigin="true" height="61" width="57.2" x="7.9" y="-50.2"></sliceSourceBounds>
	</sfw>
</metadata>
<g>
	<path class="st0" d="M45.6,60.5c0-10.9,11.1-23.7,11.1-35.4c0-6.8-2.7-12.9-7.2-17.4c-4.5-4.5-10.6-7.2-17.4-7.2
		c-6.8,0-12.9,2.7-17.4,7.2c-4.1,4.1-6.8,9.7-7.2,15.8c-0.1,1-0.3,2-0.7,2.9L0.6,39.1c-0.4,0.8,0.2,1.7,1.1,1.7h4.1
		c1,0,1.8,0.8,1.8,1.8v6.9c0,2,1.6,3.6,3.6,3.6h4.8c1,0,1.8,0.8,1.8,1.8v5.6"/>
	<path class="st0" d="M45.6,60.5c0-10.9,11.1-23.7,11.1-35.4c0-6.8-2.7-12.9-7.2-17.4c-4.5-4.5-10.6-7.2-17.4-7.2
		c-6.8,0-12.9,2.7-17.4,7.2c-4.1,4.1-6.8,9.7-7.2,15.8c-0.1,1-0.3,2-0.7,2.9L0.6,39.1c-0.4,0.8,0.2,1.7,1.1,1.7h4.1
		c1,0,1.8,0.8,1.8,1.8v6.9c0,2,1.6,3.6,3.6,3.6h4.8c1,0,1.8,0.8,1.8,1.8v5.6"/>
	<g>
		<g>
			<g>
				<path class="st0" d="M44.8,29.1c-0.3,1.4-0.9,2.8-1.6,4l2.3,3.6l-2.9,2.9L39,37.3c-1.2,0.8-2.6,1.3-4,1.6l-0.9,4.2H30l-0.9-4.2
					c-1.4-0.3-2.8-0.9-4-1.6l-3.6,2.3l-2.9-2.9l2.3-3.6c-0.8-1.2-1.3-2.6-1.6-4L15,28.2v-4.1l4.2-0.9c0.3-1.4,0.9-2.8,1.6-4
					l-2.3-3.6l2.9-2.9l3.6,2.3c1.2-0.8,2.6-1.3,4-1.7L30,9.1h4.1l0.9,4.2c1.4,0.3,2.8,0.9,4,1.7l3.6-2.3l2.9,2.9l-2.3,3.6
					c0.8,1.2,1.3,2.6,1.6,4l4.2,0.9v4.1L44.8,29.1z"/>
			</g>
		</g>
		<path class="st0" d="M39.2,26.1c0,3.9-3.2,7.1-7.1,7.1c-3.9,0-7.1-3.2-7.1-7.1c0-3.9,3.2-7.1,7.1-7.1C36,19,39.2,22.2,39.2,26.1z"
			/>
	</g>
</g>
</svg>
