<?xml version="1.0" encoding="utf-8"?>
<!-- Generator: Adobe Illustrator 22.0.1, SVG Export Plug-In . SVG Version: 6.00 Build 0)  -->
<svg version="1.1" id="Layer_1" xmlns="http://www.w3.org/2000/svg" xmlns:xlink="http://www.w3.org/1999/xlink" x="0px" y="0px"
	 width="77.1px" height="93.8px" viewBox="0 0 77.1 93.8" style="enable-background:new 0 0 77.1 93.8;" xml:space="preserve">
<style type="text/css">
	.st0{fill:#999999;}
	.st1{opacity:0.6;fill:#FFFFFF;}
</style>
<g>
</g>
<g>
	<g>
		<path class="st0" d="M7.9,78.1c0-19.1,15.5-34.6,34.6-34.6S77.1,59,77.1,78.1"/>
		
			<ellipse transform="matrix(0.7071 -0.7071 0.7071 0.7071 -1.3853 36.1254)" class="st0" cx="42.9" cy="19.7" rx="19.7" ry="19.7"/>
	</g>
	<g>
		
			<ellipse transform="matrix(0.2298 -0.9732 0.9732 0.2298 -59.5825 69.6578)" class="st1" cx="14.2" cy="72.5" rx="12.4" ry="12.4"/>
		<path d="M32.8,93.8c-0.6-0.4-1.2-0.8-1.7-1.2c-2.2-2.1-4.3-4.3-6.5-6.5c-1-1-2-1.9-2-3.5c-4,3-8.2,3.9-12.9,2.6
			c-3.2-0.9-5.7-2.8-7.5-5.6c-3.6-5.5-2.8-13.1,1.9-17.4c5.1-4.8,12.5-5.2,18-1c3.1,2.3,4.8,5.5,5.2,9.3c0.4,3.8-0.7,7.2-3.1,10.3
			c1.8,0,2.7,1.2,3.8,2.2c2.1,2.1,4.2,4.3,6.4,6.4c1.5,1.4,1.5,3.5-0.7,4.4C33.4,93.8,33.1,93.8,32.8,93.8z M13.6,83.6
			c6.3,0.1,11.5-5,11.7-11.5c0.1-6.4-5-11.6-11.5-11.7C7.6,60.2,2.2,65.4,2.1,71.8C2,78.2,7.1,83.4,13.6,83.6z"/>
	</g>
</g>
</svg>
