<?xml version="1.0" encoding="utf-8"?>
<!-- Generator: Adobe Illustrator 22.0.1, SVG Export Plug-In . SVG Version: 6.00 Build 0)  -->
<svg version="1.1" id="Layer_1" xmlns="http://www.w3.org/2000/svg" xmlns:xlink="http://www.w3.org/1999/xlink" x="0px" y="0px"
	 width="192.4px" height="32.3px" viewBox="0 0 192.4 32.3" style="enable-background:new 0 0 192.4 32.3;" xml:space="preserve">
<style type="text/css">
	.st0{fill:#0C80AE;}
</style>
<g>
	<g>
		<path class="st0" d="M2.3,3.7C2.1,3.8,1.9,4.6,1.8,4.8C1.8,5.1,1.9,5.5,1.9,5.9"/>
	</g>
	<g>
		<path class="st0" d="M29.8,2.3c-0.6-0.2-1.8-0.2-2.4-0.1"/>
	</g>
	<g>
		<path class="st0" d="M26.5,2.1c0.5,0,0.9,0,1.4,0c0.4,0,0.8-0.2,1.3-0.2c-0.5,0.1-1-0.2-1.6,0"/>
	</g>
	<g>
		<path class="st0" d="M30,2.5c-0.5-0.3-0.9-0.7-1.5-0.8c-0.5,0-1.1-0.1-1.5,0.1"/>
	</g>
	<g>
		<path class="st0" d="M1.7,3.6c0,0.8-0.2,1.6-0.2,2.4c0-0.5-0.1-1-0.1-1.5c-0.1,0.4-0.1,1-0.1,1.5c0.1,0.7,0.6,1.2,0.7,1.9"/>
	</g>
	<g>
		<path class="st0" d="M185.8,11.7c0.4-1.9-0.6-2-1.8-1.9c-1.3,0.1-2.6,0.1-3.8,0c-0.7,0-1.1,0.2-1,1c0,6.2,0,12.4,0,18.5
			c0,0.7,0.2,1,0.9,1c1.6,0,3.2,0,4.8,0c0.8,0,1-0.3,1-1c0-2.4,0-4.8,0-7.1c0-3.6,1.9-5.8,5.4-6.4c0.8-0.1,1.1-0.3,1.1-1.2
			c-0.1-1.4-0.1-2.8,0-4.1c0-1-0.4-1-1.1-0.9C189.3,9.8,187.6,10.4,185.8,11.7z"/>
		<path class="st0" d="M48.4,0c-0.2,0.6,0.2,1.1,0.4,1.7c3.4,9.1,6.8,18.1,10.3,27.2c0.4,1,0.4,1.5-0.9,1.4c-1.6-0.1-3.3-0.1-4.9,0
			c-0.8,0-1.2-0.2-1.4-1c-0.4-1.3-0.9-2.5-1.3-3.8c-0.2-0.6-0.5-0.9-1.2-0.8c-3,0-6,0-8.9,0c-0.7,0-1,0.2-1.2,0.8
			c-0.4,1.3-0.9,2.6-1.4,3.9c-0.2,0.5-0.3,0.8-0.9,0.8c-3.8-0.1-7.5,0.3-11.3-0.2c-5.6-0.8-10.1-3.3-11.8-9.2
			c-0.2-0.7-0.8-0.7-1.3-0.8C5.7,18.4,0.8,13,0.3,6.1c0-0.7,0.2-1.4-0.3-2C0,3.1,0.1,2,0,1c-0.1-0.8,0.2-1,1-1C10,0,19,0,28,0
			c0.4,0.4,0.9,0.3,1.4,0.2c2.6,0.4,4.8,1.5,6.4,3.6c0.4,0.5,0.7,0.9,0.4,1.6c-0.8,2-1.5,4-2.3,6.2c-0.4-0.9-0.7-1.6-1-2.3
			C31.8,7,30,5.7,27.4,5.7c-6.9,0-13.7,0-20.6-0.1c-0.9,0-0.9,0.4-0.8,1.1c0.8,3.2,2.5,5.5,5.5,6.9c1.9,0.9,3.9,1.3,6,1.1
			c1.3-0.1,2,0.2,1.7,1.7c0,0.2,0,0.4,0,0.5c0,3.9,1.5,5.9,5.3,7c2.3,0.7,4.6,0.5,6.9,0.6c0.9,0,1.4-0.3,1.7-1.2
			c2.8-7.4,5.6-14.8,8.3-22.2c0.2-0.4,0.5-0.8,0.2-1.3C44,0,46.2,0,48.4,0z M45,9.8c-1,2.9-1.9,5.4-2.8,7.9
			c-0.2,0.5-0.1,0.7,0.5,0.7c1.7,0,3.4,0,5.2,0C47,15.6,46,12.9,45,9.8z"/>
		<path class="st0" d="M139.4,0.3c2.9,0.6,3.9,1.9,4,5c0,3.7,0,7.4,0,11.1c0,0.4-0.1,0.9,0.2,1.4c1.9-2.4,3.8-4.6,5.5-7
			c0.6-0.8,1.2-1.1,2.2-1.1c2.1,0.1,4.3,0,6.7,0c-0.8,1-1.3,1.7-1.9,2.5c-1.6,2.1-3.3,4.2-5,6.2c-0.5,0.6-0.6,1,0,1.7
			c2.6,3.2,5.2,6.5,8,10.1c-2,0-3.6-0.1-5.3,0c-2.2,0.3-3.5-0.5-4.8-2.3c-1.7-2.5-3.6-4.7-5.5-7.1c-0.4,0.5-0.2,1-0.2,1.4
			c0,2.3,0,4.6,0,6.9c0,0.8-0.2,1.1-1.1,1.1c-1.5-0.1-3,0-4.5,0c-0.7,0-1-0.1-1-0.9c0-9.8,0.1-19.6,0.1-29.4c0.5,0,0.9,0,1.4,0
			C138.6,0.4,139,0.3,139.4,0.3z"/>
		<path class="st0" d="M165.4,30.8c-0.3-0.5-0.7-0.3-1.1-0.4c-5.7-1.5-8.6-6-8-12c0.6-5.2,4.8-9,10.3-9.3c6.9-0.3,11.3,4.6,11,11.9
			c0,1-0.6,0.8-1.2,0.8c-4.2,0-8.3,0-12.5,0c-1.3,0-1.2,0.5-0.8,1.4c1.4,2.7,5.6,3.4,8.1,1.2c0.8-0.7,1.3-0.6,2.1-0.1
			c0.9,0.6,1.7,1.2,2.7,1.7c0.8,0.4,0.7,0.8,0.2,1.4c-1.7,1.9-3.8,3-6.3,3.3c-0.8,0-1.5-0.3-2.2,0.3c-0.1,0-0.2,0-0.3,0
			c-0.3-0.4-0.6-0.4-0.8,0C166.2,30.8,165.8,30.8,165.4,30.8z M167,17.4c1.1,0,2.1,0,3.1,0c1.3,0,1.4-0.3,0.9-1.4
			c-0.6-1.6-2-2.3-4-2.2c-1.9,0.1-3.6,1.3-4.1,2.8c-0.2,0.7,0.1,0.9,0.7,0.9C164.8,17.4,165.9,17.4,167,17.4z"/>
		<path class="st0" d="M89.3,30.5c-2.9-0.5-4.5-2-4.9-4.9c-0.1-0.8-0.2-1.6-0.2-2.5c0-7.2,0-14.5,0-21.7c0-0.5-0.1-1-0.1-1.5
			c0.6,0,1.1,0,1.7,0c0.2,0.3,0.6,0.3,0.9,0.2c2.9,0.5,4.1,1.9,4.1,4.9c0,1,0.1,2,0,3C90.6,9,91,9.2,91.8,9.2c1.2-0.1,2.5,0,3.7,0
			c0.8,0,1,0.3,1,1c-0.1,1.4,0,2.8,0,4.3c0,0.7-0.2,1-0.9,0.9c-1.3-0.1-2.7,0-4,0c-0.6,0-0.9,0.2-0.9,0.8c0,2,0,4,0,6
			c0.1,2,0.8,2.6,2.7,2.5c0.5,0,0.9,0,1.4-0.1c1.4-0.5,1.9,0,1.7,1.4c-0.1,0.4,0,0.7,0,1.1c0,3,0,3-3,3.3
			C92.1,30.5,90.7,30.5,89.3,30.5z"/>
		<path class="st0" d="M65.7,0.3c1.9,1,2.7,2.6,2.2,4.5c-0.4,1.6-2,2.7-3.7,2.7c-1.7,0-3.2-1.3-3.6-3C60.2,2.7,61,1.3,63.2,0
			c0.5,0,1.1,0,1.7,0C65.1,0.3,65.4,0.3,65.7,0.3z"/>
		<path class="st0" d="M115.9,22.8c0,2.1,0,4.3,0,6.4c0,0.5,0.1,1-0.7,1c-3.9-0.1-7.8,0.3-11.7-0.3c-4.4-0.8-6.4-3.8-5.2-7.8
			c0.7-2.3,2.4-3.5,4.5-4.2c1.8-0.6,3.6-0.7,5.4-0.6c1.1,0.1,1.2-0.4,1.1-1.3c-0.3-1.6-1.5-2.5-3.3-2.2c-1.3,0.2-2.6,0.7-3.6,1.5
			c-0.7,0.5-1.1,0.4-1.5-0.2c-0.7-1-1.5-1.9-2.2-2.8c-0.4-0.5-0.3-0.7,0.1-1.1c3.2-2.7,10.1-3.2,13.7-1.1c2.4,1.4,3.4,3.6,3.4,6.3
			C116,18.6,115.9,20.7,115.9,22.8z M109.5,23.9c0-2.6,0.2-2.3-1.3-2.3c-2.4,0-3.4,0.7-3.4,2.2c0,1.5,1,2,3.3,2.2
			C110,26.2,109.4,24.9,109.5,23.9z"/>
		<path class="st0" d="M128.1,30.6c-0.3,0-0.6,0-0.8,0c-1.1,0-2.2,0-3.3,0c-2.2-0.2-4.2-1-6-2.3c-0.6-0.5-0.9-0.9-0.2-1.5
			c0.1-0.1,0.2-0.3,0.3-0.4c0.7-0.9,1.3-2.2,2.2-2.6c1-0.5,1.8,1,2.8,1.4c1.3,0.5,2.7,1,4.1,0.5c0.7-0.2,1.1-0.6,1.2-1.3
			c0.1-0.8-0.3-1.3-1-1.6c-0.9-0.4-1.9-0.6-2.9-0.9c-0.7-0.2-1.5-0.4-2.2-0.7c-2-0.8-3.6-2.1-3.9-4.4c-0.4-2.6,0.4-4.7,2.6-6.2
			c2.8-1.9,5.9-2,9.1-1.3c1.5,0.3,3,0.9,4.3,1.8c0.6,0.4,1,0.8,0.2,1.5c-0.1,0.1-0.2,0.3-0.3,0.4c-0.7,0.9-1.2,2-2.1,2.5
			c-1,0.5-1.8-0.9-2.8-1.2c-1.3-0.4-2.5-0.6-3.8-0.2c-0.6,0.2-1,0.6-1.1,1.3c0,0.7,0.4,1.1,1,1.3c0.8,0.3,1.7,0.5,2.5,0.7
			c1.1,0.3,2.2,0.5,3.3,1.1c2.1,1,3.5,2.5,3.6,4.9c0.1,2.6-0.9,4.6-3.1,6C130.7,30.1,129.5,30.5,128.1,30.6z"/>
		<path class="st0" d="M185.8,11.7c1.8-1.4,3.5-1.9,5.4-2.2c0.8-0.1,1.2-0.1,1.1,0.9c-0.1,1.4-0.1,2.8,0,4.1
			c0.1,0.8-0.3,1.1-1.1,1.2c-3.6,0.6-5.4,2.9-5.4,6.4c0,2.4,0,4.8,0,7.1c0,0.8-0.2,1-1,1c-1.6-0.1-3.2,0-4.8,0c-0.7,0-0.9-0.3-0.9-1
			c0-6.2,0-12.4,0-18.5c0-0.8,0.3-1,1-1c1.3,0.1,2.6,0.1,3.8,0C185.2,9.8,186.2,9.8,185.8,11.7z"/>
		<path class="st0" d="M76.1,11.8c1.8-1.5,3.6-2,5.4-2.3c0.9-0.1,1.2,0.1,1.1,1c0,0.5,0,1.1,0,1.6c0,1,0.3,2.1-0.1,3
			c-0.4,1-1.7,0.6-2.6,1c-2.4,1.1-3.8,3-3.8,5.7c0,2.5,0,5,0,7.4c0,0.8-0.2,1.1-1.1,1.1c-1.6-0.1-3.1,0-4.7,0c-0.7,0-1-0.1-1-0.9
			c0-6.2,0-12.4,0-18.7c0-0.8,0.3-0.9,1-0.9c1.4,0,2.8,0.1,4.1,0C75.8,9.7,76.6,10,76.1,11.8z"/>
		<path class="st0" d="M60.8,19.7c0-3.2,0-6.3,0-9.5c0-0.9,0.3-1.1,1.1-1c1,0.1,1.9,0.1,2.8,0.5c1.8,0.6,2.8,1.9,2.9,3.8
			c0.1,5.3,0,10.6,0,15.9c0,0.8-0.3,0.9-1,0.9c-1.6,0-3.2-0.1-4.8,0c-0.9,0-1.1-0.3-1.1-1.1C60.9,26,60.8,22.9,60.8,19.7z"/>
		<g>
			<path class="st0" d="M139.9,2.5c-0.1-0.3-0.7-0.3-1-0.3c0.8-0.1,2.1,0.5,2.2,1.3"/>
		</g>
		<g>
			<path class="st0" d="M138.8,2.1c0.1,0,0.3,0,0.4,0.1"/>
		</g>
		<g>
			<path class="st0" d="M86.1,3c0-0.2,0-0.8-0.2-0.9"/>
		</g>
		<g>
			<path class="st0" d="M65.7,3.8c0-0.4,0-0.7-0.2-1c-0.2-0.3-0.5-0.8-0.9-0.5"/>
		</g>
		<g>
			<path class="st0" d="M163.5,28.2c0,0.2,0.3,0.3,0.5,0.5c0.2,0.2,0.4,0.4,0.6,0.6c0.4,0.2,0.7,0.5,1.1,0.7c0.7,0.3,1.8,0.1,2.6,0
				c1.3-0.2,2.5-0.4,3.6-1.1"/>
		</g>
		<g>
			<path class="st0" d="M164.8,29.6c0.3,0.1,0.7,0.2,1,0.3"/>
		</g>
		<g>
			<path class="st0" d="M165.1,29.7c0.2,0.3,0.8,0.3,1.1,0.3c0.6,0,1.2,0.1,1.8-0.1"/>
		</g>
		<g>
			<path class="st0" d="M140.2,5.6c0-0.8-0.4-1.7-0.6-2.4c-0.1-0.3-0.1-0.8-0.2-1.1c-0.2-0.3-0.6-0.3-0.9-0.3"/>
		</g>
		<g>
			<path class="st0" d="M86.8,6.3c0.2-0.9-0.1-1.9-0.2-2.8c-0.1-0.3-0.1-0.7-0.1-1c0-0.5,0-0.7-0.6-0.7"/>
		</g>
		<g>
			<path class="st0" d="M65.6,3.7c0-0.4,0-0.6-0.2-1c-0.1-0.2-0.3-0.9-0.5-1"/>
		</g>
		<g>
			<path class="st0" d="M189.1,32.3c-1.1,0-1.9-0.9-1.9-1.9s0.9-1.9,1.9-1.9c1.1,0,1.9,0.9,1.9,1.9
				C191.1,31.5,190.2,32.3,189.1,32.3z M189.1,29c-0.8,0-1.4,0.6-1.4,1.4c0,0.8,0.6,1.4,1.4,1.4c0.8,0,1.4-0.6,1.4-1.4
				C190.5,29.7,189.9,29,189.1,29z"/>
		</g>
		<g>
			<path class="st0" d="M189,30.6v0.6h-0.4v-1.7h0.5c0.2,0,0.4,0,0.5,0.1s0.2,0.2,0.2,0.4c0,0.1,0,0.2-0.1,0.3s-0.1,0.1-0.2,0.2
				l0.5,0.7h-0.4l-0.4-0.6L189,30.6L189,30.6z M189,30.4h0.1c0.1,0,0.2,0,0.2-0.1c0.1,0,0.1-0.1,0.1-0.2c0-0.1,0-0.1-0.1-0.2
				c-0.1,0-0.1,0-0.3,0H189L189,30.4L189,30.4z"/>
		</g>
	</g>
</g>
</svg>
