<?xml version="1.0" encoding="utf-8"?>
<!-- Generator: Adobe Illustrator 21.0.0, SVG Export Plug-In . SVG Version: 6.00 Build 0)  -->
<svg version="1.1" id="Layer_1" xmlns="http://www.w3.org/2000/svg" xmlns:xlink="http://www.w3.org/1999/xlink" x="0px" y="0px"
	 viewBox="0 0 149 44.8" style="enable-background:new 0 0 149 44.8;" xml:space="preserve">
<style type="text/css">
	.st0{fill-rule:evenodd;clip-rule:evenodd;fill:#E11F26;}
	.st1{fill-rule:evenodd;clip-rule:evenodd;}
	.st2{fill:#2C2569;}
	.st3{fill:#949599;}
	.st4{fill:#95969A;}
	.st5{fill:#2D266A;}
	.st6{fill:#EB1E24;}
	.st7{fill:#F9D12D;}
	.st8{fill:#3D3F3D;}
	.st9{fill:#393A39;}
	.st10{fill:#3A3B3A;}
	.st11{fill:#383938;}
	.st12{fill:#3B3C3B;}
	.st13{fill:#373837;}
	.st14{fill:#3F403E;}
	.st15{fill:#D01F31;}
	.st16{fill:#3B5998;}
	.st17{fill-rule:evenodd;clip-rule:evenodd;fill:#FF9900;}
</style>
<g>
	<path class="st0" d="M400.3,33.2c-3.3,0-6.5,0-9.7,0c-1.4-10.1-2.8-20.1-4.3-30.1c-0.1,0-0.2,0-0.2-0.1c-2.3,4.4-4.7,8.9-7.1,13.5
		c2.7,0,5.2,0,7.7,0c0.4,2.7,0.8,5.4,1.2,8.2c-4.5,0-8.8,0-13.2,0c-1.5,2.9-3,5.7-4.5,8.6c-3.6,0-7.1,0-10.8,0
		c1.4-2.8,2.7-5.6,4.2-8.5c-2,0-3.9,0-5.9,0c1.5-2.8,2.8-5.5,4.2-8.2c2,0,4,0,6.1,0c4.8-9,9.5-18,14.3-27c4,0,8,0,12.1,0
		C396.2,4.1,398.2,18.6,400.3,33.2z"/>
	<path class="st1" d="M375.7,52.9c-0.6,0.1-1.1,0.1-1.7,0c0-1.1,0-2.3,0-3.5c0-0.7-0.1-1.5-1-1.6c-0.7-0.1-1.2,0.6-1.3,1.7
		c0,1.1,0,2.3,0,3.4c-0.6,0.2-1.1,0.2-1.8,0c0-1.2,0-2.4,0-3.6c0-0.7,0-1.5-0.9-1.5c-0.9,0-1.3,0.7-1.3,1.5c0,1.2,0,2.4,0,3.5
		c-0.6,0.3-1.1,0.2-1.7,0.1c0-2,0-4.1,0-6.2c0.6,0,1.3-0.4,1.8,0.4c1.7-0.9,2.4-0.9,3.6,0.3c0.3-0.2,0.5-0.4,0.8-0.6
		c1.7-0.9,3.4,0,3.4,1.9C375.7,50.1,375.7,51.5,375.7,52.9z"/>
	<path class="st1" d="M420.7,49.5c-0.4-0.1-0.7-0.1-1,0c0,1.1,0,2.2,0,3.3c-0.6,0.3-1.2,0.2-1.8,0.1c0-2.8,0-5.7,0-8.7
		c1.4-0.1,2.9-0.2,4.3,0.2c1.6,0.5,2.1,2.5,1,3.8c-0.3,0.3-0.5,0.6-0.8,1c0.2,0.4,0.6,1,0.9,1.6c0.3,0.6,0.7,1.2,1,1.9
		c-0.6,0.1-1.2,0.2-1.8,0.4C421.9,51.9,421.3,50.7,420.7,49.5z M419.7,48.3c0.9,0.1,1.6,0,2.1-0.7c0.3-0.5,0.3-1.1,0-1.6
		c-0.5-0.7-1.3-0.7-2-0.6C419.7,46.4,419.7,47.3,419.7,48.3z"/>
	<path class="st1" d="M379.1,52.4c0,1.3,0,2.4,0,3.5c-0.6,0.3-1.1,0.1-1.7,0.1c0-3.1,0-6.2,0-9.2c0.5-0.2,1-0.1,1.4-0.1
		c0.3,0.1,0.2,0.5,0.4,0.5c1.6-1,3-0.9,3.9,0.1c1.1,1.2,1.1,3.3,0.1,4.7C382.3,53.2,381.1,53.4,379.1,52.4z M382.1,50
		c0-0.4,0-0.5,0-0.6c-0.1-0.9-0.4-1.7-1.4-1.8c-0.9-0.1-1.3,0.7-1.6,1.5c-0.1,0.5-0.1,1.1,0,1.6c0.2,0.8,0.5,1.4,1.5,1.4
		c0.9,0,1.2-0.8,1.4-1.5C382.1,50.3,382.1,50,382.1,50z"/>
	<path class="st1" d="M392,47c0.6-0.3,1.1-0.4,1.7-0.3c0.4,1.3,0.8,2.5,1.3,4.1c0.6-1.5,1.1-2.7,1.5-3.9c0.4-0.2,0.8-0.1,1.2,0
		c0.4,1.2,0.9,2.5,1.5,4c0.5-1.5,1-2.8,1.4-4.2c0.5,0,0.9,0.1,1.5,0.1c-0.8,2.1-1.6,4.2-2.4,6.1c-0.5,0.1-0.8,0.1-1.3,0
		c-0.5-1.2-1-2.4-1.6-3.9c-0.6,1.5-1.1,2.7-1.5,3.9c-0.4,0.1-0.8,0.1-1.2,0C393.4,51,392.7,49,392,47z"/>
	<path class="st1" d="M361.2,51.7c1.2,0,2.2,0,3.3,0c0.3,0.4,0.2,0.8,0.1,1.2c-1.7,0-3.4,0-5.1,0c0-2.9,0-5.7,0-8.6
		c1.6,0,3.1,0,4.6,0c0.2,0.4,0.1,0.7,0.1,1.2c-1,0-1.9,0-2.9,0c0,0.8,0,1.5,0,2.2c0.9,0,1.9,0,2.7,0c0.3,0.4,0.1,0.8,0.2,1.2
		c-1,0.3-1.9,0-2.9,0.2C361.2,49.9,361.2,50.7,361.2,51.7z"/>
	<path class="st1" d="M437.4,46.7c0.6,0,1.1,0,1.7,0c0,1.2,0,2.3,0,3.4c0,0.8,0,1.7,1.1,1.7c0.9,0.1,1.3-0.6,1.3-1.8
		c0-1.1,0-2.2,0-3.3c0.6,0,1.1,0,1.6,0c0,2,0,4,0,6.1c-0.5,0.3-1,0.1-1.5,0.1c-0.1-0.2-0.2-0.3-0.3-0.6c-0.6,0.4-1.2,0.7-1.9,0.7
		c-1.3,0-2.1-0.7-2.1-1.9C437.3,49.8,437.4,48.3,437.4,46.7z"/>
	<path class="st1" d="M388.2,53.1c-2,0-3.4-1.4-3.3-3.4c0.1-1.9,1.4-3.1,3.3-3.1c2,0,3.3,1.3,3.3,3.3
		C391.5,51.8,390.2,53.1,388.2,53.1z M389.8,49.8c0-1.4-0.6-2.3-1.6-2.3c-0.9,0-1.5,0.9-1.5,2.2c0,1.4,0.6,2.5,1.5,2.5
		C389.1,52.2,389.8,51.2,389.8,49.8z"/>
	<path class="st1" d="M430.7,50c-1.3,0-2.6,0-3.9,0c0.1,1.9,1.1,2.3,3.4,1.6c0.3,0.2,0.4,0.4,0.4,0.8c-1.3,0.9-3.1,1.1-4.3,0.3
		c-1.2-0.8-1.7-2.3-1.3-3.9c0.4-1.6,1.9-2.4,3.7-2.1C430.2,46.9,430.9,48.1,430.7,50z M429.2,48.9c0.1-0.9-0.2-1.5-1.1-1.5
		c-0.9,0-1.2,0.6-1.2,1.5C427.6,49,428.4,49.1,429.2,48.9z"/>
	<path class="st1" d="M408.2,50.1c-1.2,0-2.5,0-3.8,0c0,1.8,1.1,2.3,3.3,1.5c0.3,0.2,0.4,0.5,0.5,0.8c-0.2,0.3-0.6,0.4-0.9,0.5
		c-1.5,0.5-2.9,0.5-4.1-0.8c-1-1.1-1.1-2.4-0.6-3.8c0.6-1.4,2.3-2.1,3.9-1.6C407.9,47.1,408.6,48.5,408.2,50.1z M406.8,49
		c0.1-0.9-0.2-1.5-1.1-1.5c-0.9,0-1.3,0.6-1.3,1.5C405.2,49.1,406,49.1,406.8,49z"/>
	<path class="st1" d="M448.7,46.4c0-0.4,0-0.8,0-1.2c0.5-0.2,1-0.3,1.6-0.3c0.3,0.5,0,1.1,0.3,1.7c0.5,0,0.9,0.1,1.3,0.1
		c0.3,0.3,0.2,0.5,0,0.8c-0.4,0-0.9,0.1-1.5,0.1c0.1,1.5-0.3,2.9,0.3,4.2c0.5,0.3,0.9,0.1,1.3,0.2c0.2,0.2,0.3,0.4,0.2,0.7
		c-0.5,0.3-1,0.4-1.6,0.4c-1.2,0-1.9-0.6-1.9-1.8c0-1.1,0-2.3,0-3.5c-0.3-0.1-0.5-0.2-0.8-0.3c0-0.2,0-0.4,0-0.6
		C448,46.6,448.4,46.8,448.7,46.4z"/>
	<path class="st1" d="M435.9,47c0,0.4-0.1,0.6-0.4,0.8c-0.6-0.1-1.2-0.6-1.7,0.2c-0.2,0.5,0.2,0.7,0.5,1c0.4,0.4,0.8,0.7,1.2,1
		c1,1,0.7,2.3-0.5,2.9c-1.1,0.5-2.2,0.3-3.2-0.4c0-0.4,0.2-0.6,0.4-0.9c0.8,0.3,1.6,1,2.2-0.1c0-0.7-0.6-1-1-1.3
		c-1.3-1-1.7-1.8-1.2-2.6c0.4-0.9,1.9-1.2,3.2-0.8C435.6,46.8,435.7,46.9,435.9,47z"/>
	<path class="st1" d="M453.6,51.6c1.4,0.7,1.6,0.7,2.2-0.2c-0.1-0.6-0.5-0.9-0.9-1.2c-1.4-1-1.7-1.8-1.3-2.7
		c0.5-0.9,1.9-1.2,3.3-0.7c0.1,0.1,0.2,0.1,0.4,0.2c0.1,0.4-0.1,0.5-0.3,0.8c-0.6,0-1.2-0.6-1.7,0.2c-0.2,0.5,0.1,0.7,0.4,1
		c0.1,0.1,0.3,0.2,0.4,0.3c1.4,1.2,1.8,2,1.2,2.9c-0.6,0.9-2.2,1.2-3.5,0.7c-0.2-0.1-0.4-0.2-0.5-0.3
		C453.1,52.1,453.3,51.8,453.6,51.6z"/>
	<path class="st1" d="M445.1,43.9c0.5,0,1,0,1.6,0c0,1.5,0,3,0,4.4c0,1.5,0,3,0,4.5c-0.6,0.1-1.1,0.1-1.6,0
		C445.1,49.9,445.1,46.9,445.1,43.9z"/>
	<path class="st1" d="M411.4,52.9c-0.5,0-1,0-1.5,0c0-2,0-4,0-6.1c0.5-0.2,0.9-0.1,1.4-0.1c0.4,0.1,0.1,0.5,0.4,0.6
		c1-0.9,1.4-0.9,2.4-0.2c0.1,0.4-0.2,0.8-0.4,1.1c-1.6-0.1-2,0.2-2.1,1.9C411.5,50.9,411.7,51.9,411.4,52.9z"/>
	<path class="st1" d="M463.3,46.6c0,1.4-1,2.4-2.3,2.4c-1.4,0-2.4-1.1-2.4-2.4c0-1.4,1.1-2.4,2.5-2.4
		C462.4,44.2,463.3,45.2,463.3,46.6z M460.9,48.4c0.9,0,1.7-0.8,1.7-1.8c0-1.1-0.7-1.9-1.7-1.9c-0.9,0-1.7,0.8-1.8,1.8
		C459.1,47.5,459.9,48.4,460.9,48.4z"/>
	<path class="st0" d="M431.2,12.4c0.8-4.3,1.5-8.4,2.3-12.6c3.2,0,6.3,0,9.5,0c2.4,5.4,4.8,10.9,7.4,16.7c1.2-5.7,2.1-11.2,3-16.6
		c3.3,0,6.5,0,9.9,0c-1.9,11.2-3.9,22.3-5.8,33.5c-3.2,0-6.4,0-9.7,0c-2.3-5.4-4.7-10.9-7.1-16.4c-0.1,0-0.2,0-0.3,0
		c-0.9,5.4-1.9,10.9-2.9,16.3c-3.2,0-6.4,0-9.7,0c0.3-2.4,0.7-4.7,1-7c-1,1.1-1.9,2.2-2.9,3.2c-6.5,6.4-17.3,6.7-24.3-1
		c-0.5-0.5-0.7-1.2-0.8-1.8c-0.8-5.3-1.5-10.7-2.3-16c-0.1-0.5,0.1-1,0.3-1.4c2.2-5.2,8.9-10.8,17-10.2c7,0.6,13.1,5.6,15,12.5
		C430.9,11.8,430.8,12.1,431.2,12.4z M421.5,16.2c0-0.5,0-1.1-0.1-1.7c-0.5-2.9-1.9-5.1-4.8-6.1c-2.6-0.9-5-0.5-7.1,1.4
		c-3.3,3.2-3.9,8.1-1.6,12c1.6,2.6,5,3.9,7.9,2.8C419.6,23.2,421.2,20.2,421.5,16.2z"/>
	<g>
		<path d="M460.3,45.7h0.9c0.5,0,0.6,0.3,0.6,0.5c0,0.2-0.1,0.4-0.3,0.4c0.1,0.1,0.2,0.1,0.2,0.5c0,0.3,0,0.3,0.1,0.4v0h-0.4
			c0-0.1,0-0.2,0-0.4c0-0.2,0-0.4-0.3-0.4h-0.4v0.7h-0.4V45.7z M461.1,46.5c0.2,0,0.3-0.1,0.3-0.3c0-0.1,0-0.2-0.3-0.2h-0.5v0.5
			H461.1z"/>
	</g>
</g>
<g>
	<path class="st2" d="M339.1-96.6c-10.5-4.2-17.1-11.6-18.8-22.8c-1.7-11.3,2.5-20.4,11.5-27.5c5.8,12,11.6,23.9,17.4,35.9
		C345.8-106.3,342.5-101.5,339.1-96.6z"/>
	<path class="st2" d="M352.6-116.1c-3.2-12-6.3-23.8-9.4-35.7c9-1.9,20.3,1.1,27.3,9.9C364.6-133.3,358.6-124.8,352.6-116.1z"/>
	<path class="st2" d="M376.2-130.7c3.6,13.7-4,29.2-18.5,34c-1.1-4.3-2.2-8.5-3.4-12.8C361.6-116.6,368.9-123.6,376.2-130.7z"/>
	<path class="st3" d="M425.8-115.8c-1.3,0-2.6,0-4,0c-1-1.3-2-2.7-3-4.1c-1-1.4-2-2.7-3.1-4.2c0,2.8,0,5.5,0,8.3c-1.5,0-2.9,0-4.4,0
		c0-5.3,0-10.7,0-16.1c1.3,0,2.6,0,4.1,0c1.8,2.5,3.7,5,5.7,7.7c0-2.7,0-5.2,0-7.8c1.6,0,3.1,0,4.7,0
		C425.8-126.6,425.8-121.2,425.8-115.8z"/>
	<path class="st3" d="M404.1-95.9c-3.9,0-6.7-1.8-7.9-4.9c-1.4-3.4-0.6-7.4,1.9-9.8c1.9-1.9,4.4-2.4,6.9-2.1
		c3.9,0.4,6.4,2.7,7.2,6.5c1,4.4-1.2,9-6,10.1C405.5-96,404.7-95.9,404.1-95.9z M407.3-103.8c0-1.3-0.2-2.1-0.7-2.9
		c-1.2-2.1-4-2.1-5.4-0.1c-1,1.5-0.9,3.9,0.1,5.3c1.1,1.6,3.2,1.8,4.7,0.4C407-101.9,407.3-103,407.3-103.8z"/>
	<path class="st3" d="M462.5-121.1c-0.3-0.1-0.5-0.1-0.8,0c0,1.7,0,3.5,0,5.3c-1.6,0-3.2,0-4.7,0c0-5.4,0-10.7,0-16.1
		c0.1,0,0.1-0.1,0.2-0.1c2.7,0,5.3-0.2,8,0.1c2.5,0.2,4.3,1.6,4.8,3.7c0.6,2.6-0.2,4.7-2.4,6.1c-0.1,0.1-0.3,0.2-0.4,0.3
		c0.5,0.9,1,1.8,1.5,2.7c0.5,0.9,1,1.8,1.5,2.8c-1.6,0.4-3.2,0.7-4.8,1C464.3-117.2,463.4-119.2,462.5-121.1z M461.6-124.8
		c1,0,1.9,0.1,2.8-0.3c0.6-0.3,0.9-0.9,0.8-1.6c-0.1-0.7-0.5-1.1-1.1-1.2c-0.8-0.2-1.6-0.1-2.5-0.1
		C461.6-127,461.6-125.9,461.6-124.8z"/>
	<path class="st3" d="M450.3-132c1.7,0,3.2,0,4.8,0c0.2,0.2,0.1,0.3,0.1,0.5c0,3,0,6.1,0,9.1c0,1-0.2,2.1-0.6,3.1
		c-0.6,1.8-1.9,3-3.7,3.5c-2.1,0.6-4.2,0.6-6.3-0.1c-2.4-0.8-3.9-2.6-4-5c-0.2-3.6,0-7.3,0-11c1.5,0,3.1,0,4.6,0
		c0.2,0.2,0.1,0.5,0.1,0.7c0,2.8,0,5.6,0,8.3c0,0.4,0,0.8,0.1,1.2c0.3,1.3,1.3,2.1,2.5,2.1c1.2-0.1,2.1-1,2.3-2.3
		c0.1-0.6,0.1-1.2,0.1-1.9c0-2.5,0-4.9,0-7.4C450.3-131.4,450.3-131.6,450.3-132z"/>
	<path class="st3" d="M416-96.2c-1.8,0-3.6,0-5.5,0c0.9-1.5,1.7-2.8,2.5-4.2c0.8-1.4,1.6-2.7,2.5-4.1c-1.6-2.6-3.1-5.1-4.7-7.8
		c2,0,3.8,0,5.7,0c0.6,1.1,1.2,2.3,1.9,3.6c0.6-1.3,1.2-2.4,1.8-3.6c1.9,0,3.7,0,5.6,0c-1.6,2.6-3.1,5.2-4.7,7.9
		c1.6,2.7,3.3,5.5,5,8.3c-1.8,0-3.6,0-5.5,0c-0.7-1.3-1.5-2.6-2.3-4C417.5-98.9,416.8-97.6,416-96.2z"/>
	<path class="st3" d="M397.3-135.2c-4.1,0-8.1,0-12.2,0c0-1,0-2.1,0-3.2c1.3-1.1,2.7-2.3,4.1-3.5c0.8-0.7,1.7-1.4,2.5-2.2
		c0.5-0.6,1-1.3,1-2.1c0-0.6-0.2-1.2-0.8-1.5c-0.7-0.2-1.3-0.2-1.8,0.3c-0.5,0.5-0.7,1.1-0.9,1.8c-1.5-0.3-2.9-0.6-4.4-0.9
		c0.5-3.1,2.3-4.8,5.4-5c1-0.1,2.1,0,3.1,0.1c4.1,0.7,5.5,5.4,3.1,8.4c-0.9,1.2-2.1,2-3.1,3c-0.2,0.2-0.5,0.4-0.9,0.8
		c1.9,0,3.6,0,5.4,0C397.7-137.8,397.5-136.6,397.3-135.2z"/>
	<path class="st3" d="M398.3-129.8c-0.9,1.2-1.7,2.3-2.6,3.5c-0.6-0.4-1.1-0.9-1.7-1.1c-2-0.8-3.9,0.2-4.4,2.2
		c-0.2,0.9-0.3,1.7-0.1,2.6c0.6,2.5,3,3.5,5.4,2.2c0.4-0.2,0.8-0.5,1.2-0.8c0.9,1.1,1.7,2.3,2.6,3.5c-0.8,0.8-1.7,1.4-2.8,1.7
		c-3.3,1-6.4,0.8-9.1-1.4c-1.4-1.2-2.3-2.7-2.6-4.5c-0.5-3.1,0.2-5.8,2.5-8.1C389.7-133,395.5-132.9,398.3-129.8z"/>
	<path class="st3" d="M409.8-127.5c-1.9,0-3.7,0-5.6,0c-0.1,0.7-0.1,1.2-0.1,1.9c1.3,0,2.7,0,4.1,0c0,1.3,0,2.5,0,3.9
		c-1.3,0-2.6,0-4,0c-0.1,0.6-0.1,1.2,0,1.9c1.9,0,3.7,0,5.6,0c-0.2,1.4-0.3,2.8-0.5,4.1c-3.3,0-6.6,0-9.9,0c0-5.4,0-10.7,0-16.1
		c3.3,0,6.5,0,9.9,0C409.5-130.5,409.7-129.1,409.8-127.5z"/>
	<path class="st3" d="M407.5-136.8c0.7-1.3,1.3-2.4,2-3.7c0.7,0.4,1.3,0.8,1.9,1.1c0.9,0.5,1.8,0.7,2.8,0.6c0.6-0.1,1.1-0.2,1.3-0.9
		c0.1-0.7-0.4-1-0.9-1.2c-1-0.4-2-0.7-3-1.1c-2.5-1-3.5-2.5-3.4-4.8c0.1-2,1.6-3.9,3.8-4.6c2.6-0.8,5.1-0.4,7.4,0.9
		c0.1,0.1,0.3,0.2,0.4,0.3c-0.6,1.1-1.3,2.3-1.9,3.4c-0.4-0.2-0.8-0.5-1.3-0.7c-0.9-0.4-1.8-0.6-2.8-0.5c-0.6,0.1-1.1,0.3-1.2,0.9
		c-0.1,0.6,0.3,0.9,0.8,1.1c0.6,0.2,1.2,0.4,1.8,0.6c0.7,0.2,1.4,0.4,2,0.8c2.1,1,2.9,2.7,2.7,5c-0.2,2.1-1.4,3.4-3.2,4.1
		C413.5-134.1,410.5-135,407.5-136.8z"/>
	<path class="st3" d="M385.2-96.3c0-5.4,0-10.7,0-16.1c3.2,0,6.5,0,9.8,0c0.1,1.4,0.3,2.9,0.4,4.4c-1.8,0-3.5,0-5.3,0
		c-0.2,0.8,0,1.5-0.1,2.2c1.5,0,2.9,0,4.3,0c0,1.5,0,2.8,0,4.3c-1.4,0-2.8,0-4.3,0c0,1.8,0,3.5,0,5.2
		C388.3-96.3,386.8-96.3,385.2-96.3z"/>
	<path class="st3" d="M479.1-115.8c-1.6,0-3.1,0-4.6,0c0-1.7,0-3.4,0-5c0-0.5-0.1-1-0.4-1.4c-1.6-2.9-3.2-5.8-4.8-8.7
		c-0.2-0.3-0.4-0.6-0.4-1c1.7,0,3.5,0,5.3,0c0.9,1.8,1.7,3.7,2.7,5.7c0.9-2,1.8-3.8,2.7-5.7c1.8,0,3.5,0,5.2,0
		c0,0.5-0.3,0.8-0.6,1.2c-1.6,2.9-3.2,5.7-4.8,8.6c-0.2,0.4-0.3,0.7-0.3,1.1C479.1-119.3,479.1-117.6,479.1-115.8z"/>
	<path class="st4" d="M420.1-147c0.2-1.5,0.3-2.9,0.4-4.3c3.9,0,7.7,0,11.6,0c0.1,1.4,0.2,2.8,0.4,4.2c-1.3,0-2.5,0-3.8,0
		c0,4,0,7.9,0,11.8c-1.6,0-3.2,0-4.8,0c0-3.9,0-7.8,0-11.8C422.6-147,421.4-147,420.1-147z"/>
	<path class="st3" d="M427.2-132c3.9,0,7.7,0,11.6,0c0.1,1.4,0.3,2.8,0.4,4.2c-1.3,0-2.5,0-3.8,0c0,4,0,7.9,0,11.9
		c-1.6,0-3.2,0-4.8,0c0-3.9,0-7.8,0-11.8c-1.3,0-2.5,0-3.8,0C426.9-129.2,427.2-130.5,427.2-132z"/>
	<path class="st5" d="M356.3-96.2c-5.2,1.4-10.4,1.4-15.7,0c3.6-3.5,7.1-6.9,10.7-10.3C353-103.1,354.6-99.7,356.3-96.2z"/>
	<path class="st4" d="M406.5-135.2c-1.6,0-3.1,0-4.7,0c0-3.3,0-6.6,0-10c-1.1,0.6-2.2,1-3.5,0.8c0-1.2,0-2.4,0-3.6
		c2-0.3,3.4-1.6,4.3-3.3c1.3,0,2.6,0,3.9,0C406.5-145.9,406.5-140.6,406.5-135.2z"/>
</g>
<g>
	<path class="st6" d="M-668.6,14c0.3-0.2,0.3-0.5,0.3-0.8c1.3-5.2,5.8-8.9,11.2-8.9c4.6-0.1,9.2-0.1,13.7,0
		c5.9,0.1,11,4.6,11.5,10.3c0.6,6.2-3.3,11.5-9.3,12.8c-0.2,0-0.4,0-0.4,0.2c-5.7,0-11.5,0-17.2,0c-0.1-0.3-0.4-0.2-0.6-0.3
		c-4.7-1.2-7.7-4.2-8.9-8.9c-0.1-0.2,0-0.5-0.3-0.6C-668.6,16.5-668.6,15.2-668.6,14z M-650.2,23.4c2.1,0,4.2,0,6.2,0
		c0.6,0,1.2,0,1.8-0.1c3.7-0.8,6.1-3.9,6-7.7c-0.1-3.6-2.8-6.8-6.5-7.1c-5-0.4-10-0.4-15,0c-4,0.3-6.8,4-6.5,7.8
		c0.3,4.2,3.4,7.1,7.6,7.1C-654.4,23.4-652.3,23.4-650.2,23.4z"/>
	<path class="st6" d="M-505.9,27.5c-0.3-0.3-0.7-0.2-1-0.3c-5.6-1.4-9.2-6.4-8.8-12.4c0.3-5.3,4.8-9.9,10.2-10.5
		c0.6-0.1,1.3-0.1,1.9-0.1c4.8,0,9.6,0,14.5,0c0.3,0,0.6,0,1.1,0c-0.9,1.5-1.8,2.8-2.6,4.1c-4.5,0-8.9,0-13.3,0
		c-3.1,0-5.9,2-6.9,4.9c0,0.1-0.1,0.3-0.1,0.5c7.2,0,14.4,0,21.7,0c-0.9,1.5-1.8,2.8-2.6,4.1c-6.3,0-12.7,0-19.2,0
		c0.4,1.5,1.2,2.7,2.3,3.7c1.2,1.1,2.6,1.8,4.2,1.8c5.5,0,11.1,0,16.6,0c0.2,0.4-0.1,0.6-0.3,0.8c-0.7,1.1-1.5,2.2-2,3.4
		C-495.4,27.5-500.7,27.5-505.9,27.5z"/>
	<path class="st6" d="M-629.3,27.5c0-7.7,0-15.3,0-23c0-0.1,0-0.2,0.1-0.2c0.2-0.2,0.5-0.1,0.7-0.1c6.2,0,12.4,0,18.5,0
		c3.9,0,7,2.4,7.9,6.1c1.2,4.7-2.4,9.4-7.2,9.6c-0.7,0-1.5,0-2.3,0c0.1,0.5,0.4,0.6,0.6,0.7c2.7,2.3,5.4,4.6,8,6.8
		c-2.2,0-4.3,0-6.5,0c-0.1-0.1-0.2-0.3-0.4-0.4c-3.9-3.4-7.8-6.8-11.7-10.2c-0.3-0.3-0.6-0.6-1.1-1c0.5,0,0.8,0,1.1,0
		c3.7,0,7.4,0,11.1,0c1.5,0,2.7-0.5,3.5-1.7c0.8-1.2,0.9-2.5,0.2-3.8c-0.7-1.3-1.8-2.1-3.4-2.1c-4.8,0-9.6,0-14.4,0
		c-0.1,0-0.3,0-0.4,0.2c0,6.2,0,12.5,0,18.8c0,0.1,0,0.2,0.1,0.3C-626.3,27.5-627.8,27.5-629.3,27.5z"/>
	<path class="st6" d="M-601.6,27.5c0.8-1.2,1.5-2.5,2.3-3.7c3.7-5.8,7.5-11.7,11.2-17.5c0.7-1,1.4-1.9,2.6-2.3c0.5,0,1,0,1.4,0
		c1.2,0.4,2,1.3,2.6,2.4c4.5,7.1,9,14.1,13.5,21.1c-1.8,0-3.6,0-5.4,0c-0.5-1.5-1.6-2.8-2.3-4.2c-4.1,0-8.1,0-12.1,0
		c-0.8-1.3-1.7-2.6-2.6-4.1c4.1,0,7.9,0,11.9,0c-2.1-3.4-4.2-6.8-6.3-10.2c-3.9,6.2-7.7,12.3-11.5,18.4
		C-598.1,27.5-599.9,27.5-601.6,27.5z"/>
	<path class="st6" d="M-560.6,27.5c-0.1-0.3-0.5-0.2-0.7-0.3c-5.4-1.4-9.1-6.1-9-11.4c0.1-5.5,3.9-10.1,9.4-11.3
		c0.6-0.1,1.3-0.2,2-0.2c5.4,0,10.8,0,16.4,0c-0.9,1.4-1.8,2.7-2.6,4.1c-0.3,0-0.6,0-1,0c-4,0-8.1,0-12.1,0c-3.9,0-7.2,2.9-7.6,6.7
		c-0.4,4,2.1,7.4,6,8.3c0.7,0.2,1.4,0.1,2.1,0.1c5.1,0,10.2,0,15.5,0c-0.6,1.5-1.8,2.7-2.4,4.1C-549.9,27.5-555.2,27.5-560.6,27.5z"
		/>
	<path class="st6" d="M-538.5,27.5c-1.2-0.6-1.7-1.6-1.6-3c0.1-6.4,0-12.8,0-19.3c0-0.3,0-0.6,0-1c1.5,0,2.9,0,4.5,0
		c0,6.4,0,12.7,0,19.1c7,0,13.8,0,20.9,0c-0.9,1.5-1.7,2.8-2.6,4.2C-524.4,27.5-531.4,27.5-538.5,27.5z"/>
</g>
<g>
	<path class="st7" d="M-631.7-104.9c-12.3,0-24.6,0-36.9,0c0-18,0-35.9,0-53.9c12.3,0,24.5,0,36.9,0
		C-631.7-140.9-631.7-122.9-631.7-104.9z M-663.3-153.4c0,14.4,0,28.7,0,43.1c8.8,0,17.5,0,26.3,0c0-14.4,0-28.7,0-43.1
		C-645.8-153.4-654.5-153.4-663.3-153.4z"/>
	<path class="st8" d="M-509.3-110.4c-1.1,0-2.1,0-3.2,0c0-3,0-5.9,0-8.9c-2.2,0-4.3,0-6.6,0c0,3,0,5.9,0,8.9c-1.1,0-2.1,0-3.1,0
		c0-6.2,0-12.4,0-18.7c1,0,2,0,3.1,0c0,2.4,0,4.7,0,7.2c2.2,0,4.3,0,6.6,0c0-2.4,0-4.7,0-7.1c1.1,0,2.1,0,3.2,0
		C-509.3-122.8-509.3-116.7-509.3-110.4z"/>
	<path class="st9" d="M-574.1-144.8c0.1-2.8,1-5.8,4-7.7c3.2-2.2,7.2-1.4,9.6,1.6c3.1,4,2.8,10.8-0.6,14.4c-3.1,3.3-8.6,2.7-11-1.1
		C-573.5-139.6-574-141.9-574.1-144.8z M-570.7-144.5c0.1,1.9,0.3,3.5,1,5c0.7,1.4,1.8,2.4,3.4,2.4c1.6,0,2.8-0.8,3.5-2.2
		c1.5-3.2,1.6-6.5,0.1-9.7c-0.7-1.4-1.9-2.2-3.5-2.1c-1.6,0-2.7,0.9-3.5,2.2C-570.5-147.4-570.7-145.8-570.7-144.5z"/>
	<path class="st10" d="M-595.7-120.4c0.1-2.8,1-5.7,3.9-7.7c3.2-2.1,7.1-1.5,9.6,1.5c3.2,3.9,2.9,10.8-0.5,14.5
		c-3.1,3.3-8.6,2.8-11.1-1C-595.1-115.2-595.7-117.4-595.7-120.4z M-592.3-120c0,1.6,0.2,3.3,0.9,4.7c0.7,1.4,1.7,2.5,3.4,2.5
		c1.6,0.1,2.8-0.6,3.5-2c1.6-3.3,1.7-6.7,0-10c-0.7-1.4-1.9-2.1-3.5-2c-1.6,0-2.7,0.9-3.4,2.3C-592.1-123.1-592.3-121.6-592.3-120z"
		/>
	<path class="st11" d="M-542.7-134.6c-0.8,0-1.5,0-2.2,0c-3-4.3-6-8.7-8.9-13.4c0,4.5,0,8.8,0,13.2c-0.9,0.1-1.7,0.1-2.6,0.1
		c0-6.3,0-12.4,0-18.7c0.7-0.2,1.4,0,2.2-0.1c3.1,4.3,6.1,8.6,9,13.1c0-4.3,0-8.7,0-13c0.9,0,1.7,0,2.5,0
		C-542.7-147.2-542.7-140.9-542.7-134.6z"/>
	<path class="st11" d="M-609.5-153.4c0.9,0,1.7,0,2.6,0c0,6.2,0,12.4,0,18.7c-0.7,0.2-1.4,0-2.2,0.1c-3.1-4.4-6-8.8-9-13.5
		c0,4.6,0,9,0,13.4c-0.9,0.1-1.7,0.1-2.5,0c0-6.2,0-12.4,0-18.7c0.7,0,1.4,0,2.2,0c3.1,4.2,6,8.6,9,13.3
		C-609.5-144.7-609.5-149-609.5-153.4z"/>
	<path class="st9" d="M-550.8-110.4c-1.1,0-2.2,0-3.3,0c-1-2.3-2-4.6-3-7c-0.5-0.1-1-0.1-1.6,0c0,2.3,0,4.6,0,7c-1.1,0-2.1,0-3.1,0
		c0-6.2,0-12.4,0-18.8c2.4,0.1,4.7-0.3,7.1,0.3c2.5,0.6,3.9,3,3.5,5.9c-0.3,2.1-1.2,3.7-3.1,4.9c1.2,2.5,2.4,4.9,3.5,7.4
		C-550.8-110.6-550.8-110.5-550.8-110.4z M-558.6-126.5c0,2.3,0,4.5,0,6.8c3.2-0.3,4.5-1.6,4.3-4.2
		C-554.5-126-555.8-126.8-558.6-126.5z"/>
	<path class="st12" d="M-564.9-111.3c-3.7,1.9-8.2,1.5-10.9-0.9c-2.2-2-3.2-4.6-3.2-7.5c0-3.5,1.2-6.5,4.3-8.5
		c2.8-1.8,6.7-1.7,9.2,0.2c-0.3,0.7-0.6,1.4-0.9,2.1c-0.6-0.2-1.2-0.5-1.8-0.7c-3-0.8-5.5,0.5-6.7,3.4c-1.2,3.1-0.5,7.1,1.7,9.1
		c1.4,1.3,3.4,1.6,5.3,0.8c0-1.9,0-3.8,0-5.8c1.1,0,2.1,0,3.1,0C-564.9-116.4-564.9-113.9-564.9-111.3z"/>
	<path class="st9" d="M-612.1-113.2c0-1.9,0-3.8,0-5.8c1,0,2,0,3.1,0c0,2.5,0,5.1,0,7.6c-4.3,2-8.9,1.5-11.5-1.5
		c-2.6-3-3.1-6.5-2.1-10.3c1-3.8,4.4-6.4,8.3-6.4c1.7,0,3.2,0.4,4.7,1.5c-0.3,0.7-0.6,1.4-1,2.2c-0.4-0.2-0.8-0.4-1.2-0.5
		c-3.1-1.2-6.1,0.1-7.2,3.2c-1.1,2.9-0.9,5.7,0.9,8.3C-616.8-112.9-614.2-112.2-612.1-113.2z"/>
	<path class="st10" d="M-550.8-110.4c0-0.1,0-0.2,0-0.3c0.1,0.1,0.2,0.1,0.3,0.2c2.1-6.2,4.2-12.4,6.4-18.6c0.9,0,1.7,0,2.6,0
		c1.9,6.2,3.9,12.4,5.8,18.7c-1.2,0-2.3,0-3.5,0c-0.5-1.7-1-3.4-1.5-5.1c-1.9,0-3.7,0-5.6,0c-0.5,1.7-1,3.4-1.6,5.1
		C-548.9-110.4-549.9-110.4-550.8-110.4z M-545.4-117.9c1.5,0,2.8,0,4.2,0c-0.7-2.5-1.4-4.9-2-7.2
		C-543.9-122.7-544.6-120.3-545.4-117.9z"/>
	<path class="st10" d="M-526.9-134.7c-1.2,0-2.3,0-3.5,0c-0.5-1.7-1-3.4-1.5-5.1c-1.9,0-3.7,0-5.6,0c-0.5,1.7-1,3.4-1.6,5.1
		c-0.9,0-1.7,0-2.7,0c2.1-6.3,4.3-12.5,6.4-18.7c0.9,0,1.7,0,2.6,0C-530.8-147.3-528.9-141-526.9-134.7z M-536.6-142.2
		c1.5,0,2.8,0,4.2,0c-0.7-2.5-1.4-4.9-2.1-7.6C-535.1-147.1-535.8-144.6-536.6-142.2z"/>
	<path class="st10" d="M-591.3-134.7c-1.2,0-2.3,0-3.5,0c-0.5-1.7-1-3.4-1.5-5.1c-1.8,0-3.6,0-5.5,0c-0.5,1.7-1,3.4-1.6,5.1
		c-0.9,0-1.7,0-2.7,0c2.1-6.3,4.2-12.4,6.4-18.7c0.8,0,1.7,0,2.6,0C-595.2-147.3-593.3-141.1-591.3-134.7z M-598.8-149.7
		c-0.6,2.7-1.3,5.1-2.1,7.6c1.4,0,2.8,0,4.2,0C-597.3-144.7-598-147.1-598.8-149.7z"/>
	<path class="st12" d="M-534.6-129.1c2,0,4-0.1,5.9,0c3.4,0.3,5.4,3.1,4.6,6.6c-0.7,3.2-2.9,5-6.2,5.1c-0.4,0-0.7-0.1-1.1,0.1
		c0,2.3,0,4.5,0,6.9c-1.1,0-2.1,0-3.1,0C-534.6-116.6-534.6-122.8-534.6-129.1z M-531.5-119.8c3.2-0.2,4.6-1.6,4.3-4.2
		c-0.3-2.1-1.8-3-4.3-2.6C-531.5-124.3-531.5-122.1-531.5-119.8z"/>
	<path class="st12" d="M-602.8-121.4c1.7,0,3.4,0,5.1,0c0,0.8,0,1.6,0,2.5c-1.6,0-3.3,0-5.1,0c0,2.1,0,4,0,6.1c2,0,4,0,6.1,0
		c0.2,0.8,0.1,1.6,0.1,2.4c-3.2,0-6.2,0-9.4,0c0-6.2,0-12.4,0-18.7c2.8,0,5.5,0,8.4,0c0,0.8,0,1.6,0,2.5c-1.7,0-3.4,0-5.1,0
		C-602.8-124.8-602.8-123.2-602.8-121.4z"/>
	<path class="st10" d="M-487.7-128c-0.3,0.7-0.7,1.4-1,2.2c-0.3-0.1-0.6-0.2-0.8-0.3c-3.2-1.4-6.2-0.3-7.4,3c-1.1,3-1,6.1,1.2,8.7
		c1.6,1.9,4.3,2.2,6.4,1.1c0.2-0.1,0.4-0.2,0.6-0.3c0.3,0.8,0.6,1.5,0.9,2.3c-2,1.2-4.1,1.5-6.3,1c-3.6-0.9-6.2-4-6.7-7.8
		c-0.4-3.4,0.3-6.5,2.8-9C-495.2-129.9-490.9-130.3-487.7-128z"/>
	<path class="st11" d="M-585-134.7c-1.1,0-2.1,0-3.2,0c0-5.4,0-10.7,0-16.1c-1.6,0-3.2,0-4.8,0c0-0.9,0-1.7,0-2.5
		c4.2,0,8.4,0,12.7,0c0.2,0.8,0,1.6,0.1,2.5c-1.6,0-3.2,0-4.8,0C-585-145.5-585-140.1-585-134.7z"/>
	<path class="st13" d="M-525.8-153.4c1,0,2,0,3.1,0c0,5.4,0,10.8,0,16.3c2.1,0,4.2,0,6.3,0c0.1,0.8,0.1,1.6,0,2.4
		c-3.1,0-6.2,0-9.3,0C-525.8-140.9-525.8-147.1-525.8-153.4z"/>
	<path class="st14" d="M-506.2-110.4c0-6.2,0-12.4,0-18.7c1,0,2,0,3.1,0c0,6.2,0,12.4,0,18.7C-504.1-110.4-505.1-110.4-506.2-110.4z
		"/>
	<path class="st13" d="M-579.1-134.7c0-6.2,0-12.4,0-18.6c1,0,2,0,3,0c0,6.2,0,12.4,0,18.6C-577.1-134.7-578-134.7-579.1-134.7z"/>
</g>
<g>
	<path class="st15" d="M-970.5,3l-5.8,7.9h31.5c1.6,0,1.6,0.6,0.8,1.7c-0.8,1.1-2.1,2.9-2.9,4c-0.4,0.6-1.1,1.6,1.3,1.6h12.9
		c0,0,2.1-2.8,3.8-5.2c2.4-3.2,0.2-9.9-8.3-9.9L-970.5,3z"/>
	<path class="st15" d="M-978.6,28.6l11.6-15.8h14.4c1.6,0,1.6,0.6,0.8,1.7c-0.8,1.1-2.1,2.9-2.9,4c-0.4,0.6-1.1,1.6,1.3,1.6h19.3
		c-1.6,2.2-6.8,8.6-16.2,8.6L-978.6,28.6L-978.6,28.6z M-912.1,20l-6.3,8.6H-935c0,0,6.3-8.6,6.3-8.6L-912.1,20z M-886.6,18.1h-40.7
		L-916.1,3h16.6l-6.4,8.7h7.4l6.4-8.7h16.6L-886.6,18.1z M-888,20l-6.3,8.6h-16.6c0,0,6.3-8.6,6.3-8.6H-888L-888,20z M-1002.3,23.4
		h24.5l-1.3,1.8h-23.2V23.4z M-1002.3,20h27l-1.3,1.8h-25.6V20z M-1002.3,26.8h22l-1.3,1.8h-20.7V26.8z M-821.3,25.2h-24.4l1.3-1.8
		h23.1V25.2z M-821.3,28.6l-26.9,0l1.3-1.8h25.5V28.6z M-841.8,20h20.6v1.8l-21.9,0L-841.8,20z M-852.5,3l-11.1,15.1h-17.6
		c0,0,11.1-15.1,11.1-15.1H-852.5L-852.5,3z M-882.6,20c0,0-1.2,1.7-1.8,2.5c-2.1,2.8-0.2,6.1,6.6,6.1h26.7l6.3-8.6H-882.6z"/>
</g>
<image style="overflow:visible;" width="760" height="134" xlink:href="3BB64B7E.html"  transform="matrix(0.2288 0 0 0.2288 -337.4415 1.9319)">
</image>
<image style="overflow:visible;" width="2400" height="2400" xlink:href="3BB64B82.html"  transform="matrix(5.716071e-02 0 0 5.716071e-02 -319.1045 -192.6916)">
</image>
<g>
	<path d="M-766.4-456.3c0,0.5-0.1,1-0.2,1.5c-0.7,2.1-2.7,2.5-4.3,1.8c-0.7-0.3-1-0.9-1.2-1.5c-0.4-0.9-0.5-2-0.6-2.9
		c-0.1-0.4-0.1-0.8-0.1-1.2c-0.8-0.4-1.6-0.9-2.3-1.3c-3.2-1.9-6.2-4-8.8-6.7c-1.2-1.3-2.4-2.6-3.4-4.1c-0.4-0.6-0.7-1.3-0.9-2
		c-0.2-1.4,0.3-2.5,1.2-3.5c1-1,2.2-1.7,3.5-2.3c3.1-1.4,6.4-2.3,9.7-2.9c0.7-0.1,1.4-0.2,2.1-0.3c0-0.5,0.1-1,0.1-1.5
		c0.2-3.1,0.6-6.1,1.6-9.1c0.1-0.3,0.2-0.7,0.4-1c0.3-0.6,0.8-0.7,1.4-0.3c0.3,0.2,0.5,0.5,0.8,0.8c1,1.3,1.4,2.8,1.6,4.4
		c0.1,1.6,0.1,3.1,0.2,4.7c0,0.5,0,0.9,0,1.4c0.7,0.1,1.3,0.1,1.9,0.2c2.2,0.2,4.4,0.4,6.6,0.7c2.5,0.4,5,0.9,7.3,2
		c1.4,0.7,2.6,1.5,3.5,2.7c1.7,2.4,1.4,5.3-1,7.1c-1.4,1.1-2.9,1.5-4.6,0.9c-0.7-0.2-1.2-0.6-1.7-1.2c0.2-0.4,0.4-0.6,0.8-0.8
		c0.5-0.2,1-0.4,1.5-0.6c0.3-0.1,0.5-0.2,0.7-0.4c0.5-0.4,0.6-1.1,0.1-1.6c-0.5-0.5-1.1-0.8-1.7-1c-1.6-0.6-3.3-0.9-5-1.2
		c-2.8-0.5-5.5-0.8-8.3-0.8c-0.1,0-0.2,0-0.4,0c-0.5,5.1-0.2,10.1-0.3,15.1c0.9,0.3,1.7,0.4,2.6,0.6c2.1,0.4,4.2,0.6,6.3,0.6
		c4.4,0,8.8-0.7,12.9-2.4c2.4-1,4.5-2.4,6-4.5c1.6-2.2,2.1-4.7,2-7.4c-0.2-2.9-1.3-5.4-2.9-7.7c-2.1-3.1-4.8-5.6-7.7-8
		c-3.7-2.9-7.8-5.2-12-7.3c-4.6-2.3-9.4-4.2-14.5-5.4c-3.6-0.8-7.3-1.3-11-1.5c-2.3-0.1-4.5,0-6.8,0.4c-1,0.2-1.9,0.5-2.9,0.9
		c0.2,0.3,0.4,0.4,0.7,0.4c0.4,0.1,0.7,0.2,1.1,0.2c0.2,0,0.4,0.1,0.7,0.2c0.5,0.1,0.8,0.4,0.7,0.7c0,0.4-0.4,0.6-0.7,0.7
		c-1.5,0.4-3,0.4-4.5-0.2c-0.4-0.1-0.7-0.4-0.9-0.7c-0.5-0.5-0.5-1.1-0.2-1.7c0.3-0.6,0.7-1.2,1-1.7c0.7-1.1,1.7-1.8,3-2.2
		c1.6-0.5,3.3-0.8,5-1c1.2-0.1,2.3-0.3,3.5-0.4c0.1,0,0.3,0,0.4,0c6.1-0.2,12,0.9,17.8,2.5c9.1,2.5,17.2,6.8,24.6,12.7
		c4.3,3.5,7.9,7.6,10.4,12.6c1.2,2.4,2,5,1.9,7.7c-0.1,4.5-1.7,8.4-4.9,11.6c-2.4,2.4-5.3,3.8-8.4,4.9c-4.4,1.5-8.9,2.1-13.6,1.9
		c-3.2-0.1-6.3-0.5-9.3-1.5C-766.3-456.3-766.4-456.3-766.4-456.3z M-772.2-476.5c-0.1,0-0.2,0-0.3,0c-2.1,0.1-4.1,0.2-6.2,0.5
		c-1.9,0.3-3.8,0.6-5.7,1.2c-0.6,0.2-1.2,0.4-1.7,0.9c-0.5,0.4-0.6,0.9-0.4,1.5c0.1,0.3,0.3,0.6,0.5,0.9c0.7,0.9,1.5,1.6,2.3,2.3
		c2.7,2.4,5.8,4.2,9.1,5.6c0.5,0.2,0.9,0.4,1.4,0.6C-772.5-467.6-772.2-472-772.2-476.5z"/>
	<path d="M-645.1-480.4c0.3,0.8,0.2,1.6,0,2.4c-0.4,1.5-1.2,2.9-2.1,4.2c-0.9,1.3-1.8,2.6-2.4,4c-0.5,1.3-0.8,2.7-0.9,4.1
		c0,0.1,0,0.2,0,0.3c0,0,0,0,0,0.1c0.4-0.4,0.7-0.8,1.1-1.2c1.5-1.9,3-3.9,4.6-5.8c1.6-1.8,3.3-3.5,5.4-4.6c0.9-0.5,1.7-0.8,2.7-0.9
		c1.4-0.1,2.6,0.4,3.4,1.5c0.8,1.1,1.3,2.3,1.3,3.6c0.1,2,0.1,4.1-0.6,6.1c-0.8,2.2-2,4.1-3.5,5.8c-1.4,1.6-3,3.1-5,4
		c-2,1-4.1,1.3-6.3,0.8c-0.1,0-0.2,0-0.3,0c0,0-0.1,0-0.2,0c-0.3,0.6-0.5,1.2-0.8,1.8c-1.8,4.3-3.2,8.7-4.2,13.2
		c-0.2,1.2-0.3,2.4-0.6,3.6c-0.1,0.3-0.2,0.6-0.3,0.9c-0.3,0.7-0.7,0.9-1.5,0.6c-0.6-0.2-1-0.6-1.5-1.1c-1.8-2-2.5-4.3-2.3-7
		c0.4-3.8,1.6-7.4,3-10.9c0.7-1.8,1.5-3.5,2.4-5.2c-0.4-0.7-0.7-1.4-0.9-2.2c-0.6-2.4-0.4-4.8,0.4-7.1c1.2-3.6,3.2-6.6,5.8-9.3
		c0.7-0.7,1.4-1.4,2.4-1.7C-645.5-480.3-645.3-480.4-645.1-480.4z M-644.8-461.7c1.7-0.2,3.2-0.6,4.6-1.4c3.7-2,5.6-5.1,5.4-9.3
		c0-0.4-0.2-0.6-0.5-0.6c-0.2,0-0.4,0.1-0.6,0.2c-0.9,0.5-1.6,1.1-2.2,1.9c-1.6,1.8-3,3.7-4.4,5.7
		C-643.4-464.2-644.1-463-644.8-461.7z"/>
	<path d="M-715.2-474.4c0.5,0.5,1.1,0.7,1.7,0.8c2.2,0.2,4.3,0.5,6.5,0.7c2,0.2,4.1,0.4,6,1.1c2.4,0.8,3.8,2.4,4,4.9
		c0.2,1.8,0,3.5-0.7,5.2c-0.5,1.1-1.2,1.9-2.3,2.4c-1.8,0.8-3.7,1.2-5.6,1.5c-2.4,0.3-4.7,0.2-7-0.6c-1.9-0.6-3.7-1.6-5.1-3.1
		c-0.5-0.5-0.8-1-1.1-1.6c-0.9-1.8-0.4-3.6,1.2-4.8c1.2-0.9,2.6-1.2,4-1.3c3-0.1,6,0.5,8.8,1.6c0.4,0.2,0.8,0.4,1.1,0.7
		c0.6,0.6,0.5,1.2-0.1,1.7c-0.5,0.4-1.1,0.5-1.7,0.6c-1.6,0.3-3.2,0.2-4.8-0.2c-0.6-0.1-1.2-0.4-1.8-0.8c-0.7-0.4-1.4-0.8-2.2-1
		c-0.8-0.2-1.5,0-2,0.7c-0.6,0.7-0.5,1.4,0.3,1.9c0.6,0.4,1.2,0.6,1.9,0.7c3.9,0.7,7.6,0.4,11.2-1.2c0.6-0.3,1.1-0.6,1.6-1
		c0.8-0.8,0.8-1.7-0.1-2.4c-0.9-0.7-1.9-0.9-2.9-1.2c-1.9-0.5-3.9-0.7-5.9-0.8c-2.4-0.2-4.7-0.3-7.1-0.8c-0.3-0.1-0.6-0.2-0.9-0.3
		c-1.2-0.4-1.7-1.2-1.8-2.4c-0.1-1.4,0.2-2.6,0.9-3.8c0.5-1,1.5-1.6,2.4-2.1c1.8-1,3.8-1.5,5.9-1.9c3.3-0.6,6.6-0.6,9.9-0.2
		c1.3,0.2,2.7,0.3,3.9,0.8c0.4,0.1,0.7,0.3,1,0.5c0.4,0.3,0.5,0.6,0.4,1.1c-0.3,1.4-1,2.1-2.4,2.2c-1.7,0.1-3.3,0.1-5,0.2
		c-3.1,0.2-6.3,0.3-9.4,0.8c-0.7,0.1-1.3,0.2-1.9,0.4C-714.7-475-715-474.8-715.2-474.4z"/>
	<path d="M-671.2-471c0.9-1.1,1.2-2.4,2-3.5c-2.1-0.4-3.7-1.2-4-3.6c0.7-0.4,1.4-0.6,2.2-0.8c2-0.5,4.1-0.7,6.2-0.8
		c1.8-0.1,3.7-0.2,5.5-0.4c0.8-0.1,1.6,0,2.4,0.1c0.3,0.1,0.6,0.1,0.9,0.3c1,0.8,1.9,1.7,2.5,2.8c0.6,1.4,0.2,1.9-1,2.1
		c-1.1,0.2-2.2,0.3-3.3,0.3c-2.1,0.1-4.2,0.2-6.3,0.3c-0.1,0-0.1,0-0.2,0c-0.5,0.9-0.6,1.9-1,2.8c2.4,0.1,4.7-0.3,7,0.4
		c0.3,1.2,0.3,2.3-0.1,3.4c-1.1,0.4-2.2,0.5-3.4,0.5c-1.7,0-3.4-0.1-5.1,0.1c-0.1,0-0.1,0-0.2,0c-0.6,1.4-1.1,2.8-1.4,4.3
		c0.9,0,1.7-0.2,2.5-0.3c2-0.3,4-0.7,6-0.8c0.2,0,0.4,0,0.6,0c1.3-0.3,2.7,1.6,2.4,2.7c-0.2,0.6-0.5,1-0.9,1.4c-0.9,0.8-2,1.4-3,2
		c-1.9,1-3.9,1.8-6.1,2.2c-0.8,0.1-1.7,0.2-2.6,0.1c-2.1-0.3-3.4-1.7-4.1-3.6c-0.7-2.2-0.5-4.3,0.4-6.4c0.1-0.2,0.2-0.5,0.3-0.7
		c0.3-0.7,0.4-1.5,0.1-2.2c-0.2-0.5-0.3-1-0.3-1.6c0-0.6,0.3-0.9,0.9-1.1C-672.1-470.9-671.7-470.9-671.2-471z"/>
	<path d="M-689.7-470.9c-0.4,1.2-0.5,2.4-0.6,3.6c-0.1,2-0.1,4-0.4,6c-0.1,0.9-0.3,1.9-0.6,2.8c-0.2,0.5-0.5,0.8-1,0.9
		c-1.6,0.4-2.7-0.1-3.2-1.7c-0.1-0.4-0.2-0.9-0.3-1.3c-0.2-1.7-0.1-3.4,0.1-5.2c0.3-2.7,0.7-5.4,1.4-8.1c0.3-1.3,0.7-2.5,1.3-3.6
		c0.3-0.5,0.6-1,1-1.4c0.7-0.6,1.5-0.7,2.3-0.2c0.6,0.4,1,0.9,1.4,1.5c2.4,3.3,4.5,6.7,6.5,10.2c0.2,0.3,0.3,0.6,0.5,1
		c0.2,0.3,0.4,0.6,0.8,0.6c0.1-0.7,0.1-1.4,0-2c-0.1-3.5-0.9-6.9-1.8-10.3c-0.3-1.2-0.7-2.3-0.9-3.5c-0.1-0.6-0.1-1.2,0-1.7
		c0.2-0.8,0.6-1,1.4-0.7c0.6,0.2,1.1,0.7,1.6,1.2c2.3,2.5,3.6,5.5,4.3,8.7c0.7,3.1,0.8,6.2,0.3,9.4c-0.2,1.4-0.5,2.7-1.2,3.9
		c-0.6,1.1-1.4,2-2.7,2.3c-1.2,0.2-2.2,0-3.1-0.8c-0.9-0.8-1.5-1.7-2.1-2.7c-1.2-2-2.2-4.1-3.2-6.2c-0.4-0.8-0.9-1.7-1.4-2.4
		C-689.5-470.7-689.5-470.8-689.7-470.9z"/>
	<path d="M-727.3-485.4c-0.3,0.3-0.5,0.7-0.8,1.1c-0.7,1.1-1.8,1.2-2.6,0.2c-0.4-0.5-0.7-1-0.8-1.6c-0.1-0.4-0.2-0.9,0-1.3
		c0.3-0.6,0.1-1.1-0.3-1.6c-1-1-1.2-2.2-1.2-3.5c0-1.2,0.4-2.2,1-3.2c1.8-2.9,4.3-4.9,7.5-6c2.2-0.8,4.4-1.1,6.7-1
		c0.6,0,1.3,0.1,1.9,0.3c1.1,0.4,1.7,0.9,2.3,2c0.5,0.1,1.1,0.1,1.6,0.3c2.2,0.6,3.2,2.4,2.8,4.7c-0.3,1.7-1.1,3.2-2.3,4.5
		c-2.7,3-5.9,5-9.9,5.8c-2,0.4-3.9,0.3-5.7-0.7C-727.2-485.4-727.2-485.4-727.3-485.4z M-725.3-489c0.1,0,0.2,0,0.2,0
		c1.5,0.3,3,0.3,4.5,0.1c1.9-0.3,3.8-0.9,5.3-2.2c1-0.9,1.9-1.8,2.3-3.2c0.4-1.3-0.1-2.3-1.3-2.5c-0.4-0.1-0.7-0.1-1.1,0
		c-1.1,0.2-2.1,0.6-3,1.1c-2.2,1.3-4,3-5.6,5C-724.4-490.1-724.8-489.6-725.3-489z M-722.5-497.9c-1.3,0-2.5,0.2-3.7,0.8
		c-1.8,0.9-3,2.3-3.2,4.5c0,0.4-0.1,0.8,0.1,1.2C-727.2-493.9-725.2-496.2-722.5-497.9z"/>
	<path d="M-722.2-468.7c0,1.9,0,3.7,0,5.6c0,1.4,0,2.8-0.4,4.1c-0.3,1.1-0.5,1.3-1.7,1.4c-0.7,0.1-1.4,0-2.1-0.2
		c-0.7-0.2-1.1-0.7-1.3-1.4c-0.2-0.8-0.2-1.7-0.3-2.5c-0.1-4,0.1-8,0.4-12c0.2-1.9,0.3-3.7,0.7-5.5c0.1-0.5,0.3-1,0.6-1.5
		c0.4-0.6,1-0.8,1.7-0.4c0.4,0.2,0.8,0.6,1,1c0.8,1.1,1,2.3,1.1,3.6c0.2,2.3,0.1,4.6,0.1,6.9C-722.3-469.4-722.3-469.1-722.2-468.7
		C-722.3-468.7-722.2-468.7-722.2-468.7z"/>
	<path d="M-647.1-438.8c0,0.9-0.6,1.6-1.4,1.6c-0.9,0-1.6-0.8-1.5-1.7c0-0.8,0.7-1.4,1.6-1.4C-647.6-440.2-647.1-439.6-647.1-438.8z
		 M-648.4-440c-0.8,0-1.3,0.5-1.3,1.2c0,0.8,0.6,1.5,1.3,1.5c0.7,0,1.2-0.6,1.2-1.4C-647.3-439.5-647.8-440-648.4-440z"/>
	<path d="M-647.9-438c-0.3,0.3-0.7,0.4-1,0.1c-0.4-0.3-0.5-1-0.2-1.4c0.2-0.3,0.6-0.4,1.1-0.1c-0.1,0.1-0.3,0.1-0.5,0.1
		c-0.5,0.1-0.7,0.3-0.7,0.7c0,0.4,0.3,0.7,0.7,0.7C-648.2-438-648.1-438-647.9-438z"/>
</g>
<g>
	<path class="st16" d="M77.3-123.7c-1.6,0-2.7,0.5-3.9,1.1v12c1.1,0.1,1.8,0.1,2.8,0.1c3.8,0,4.3-1.7,4.3-4.2v-5.7
		C80.6-122.3,80-123.7,77.3-123.7L77.3-123.7z M52-124.4c-2.6,0-3.3,1.5-3.3,3.3v1h6.5v-1C55.2-122.9,54.6-124.4,52-124.4z
		 M2.8-111.9c0,1.4,0.7,2.2,2.2,2.2c1.6,0,2.5-0.5,3.7-1.1v-2.9H5.2C3.6-113.6,2.8-113.3,2.8-111.9L2.8-111.9z M102-123.7
		c-2.7,0-3.6,1.4-3.6,3.3v6.6c0,1.8,0.9,3.3,3.6,3.3c2.6,0,3.6-1.5,3.6-3.3v-6.6C105.6-122.3,104.7-123.7,102-123.7z M-10.2-104.5
		H-18v-18.9h-3.9v-6.5h3.9v-3.9c0-5.3,2.2-8.5,8.5-8.5h5.2v6.5h-3.3c-2.4,0-2.6,0.9-2.6,2.6l0,3.3h5.9l-0.7,6.5h-5.2L-10.2-104.5
		L-10.2-104.5z M16.5-104.4H10l-0.3-1.6c-3,1.6-5.6,1.9-7.4,1.9c-4.8,0-7.3-3.2-7.3-7.6c0-5.2,3-7.1,8.3-7.1h5.4v-1.1
		c0-2.7-0.3-3.4-4.4-3.4h-6.7l0.7-6.5h7.3c9,0,10.9,2.8,10.9,10L16.5-104.4L16.5-104.4z M38.6-122.9c-4-0.7-5.2-0.8-7.2-0.8
		c-3.5,0-4.6,0.8-4.6,3.7v5.6c0,3,1.1,3.7,4.6,3.7c1.9,0,3.1-0.2,7.2-0.9v6.3c-3.5,0.8-5.9,1-7.8,1c-8.4,0-11.7-4.4-11.7-10.8v-4.6
		c0-6.4,3.3-10.8,11.7-10.8c2,0,4.3,0.2,7.8,1V-122.9L38.6-122.9z M63-114.9H48.7v0.5c0,3,1.1,3.7,4.6,3.7c3.1,0,5.1-0.2,9.1-0.9
		v6.3c-3.9,0.8-5.9,1-9.7,1c-8.4,0-11.7-4.4-11.7-10.8v-5.2c0-5.6,2.5-10.1,11.1-10.1S63-125.7,63-120.1V-114.9z M88.4-114.8
		c0,6.2-1.8,10.6-12.4,10.6c-3.8,0-6.1-0.3-10.3-1v-35.2l7.8-1.3v12.3c1.7-0.6,3.9-0.9,5.9-0.9c7.8,0,9.1,3.5,9.1,9.1L88.4-114.8
		L88.4-114.8z M113.4-114.6c0,5.3-2.2,10.5-11.4,10.5c-9.2,0-11.4-5.1-11.4-10.5v-5.1c0-5.3,2.2-10.5,11.4-10.5
		c9.2,0,11.4,5.1,11.4,10.5V-114.6L113.4-114.6z M138.4-114.6c0,5.3-2.2,10.5-11.4,10.5c-9.2,0-11.4-5.1-11.4-10.5v-5.1
		c0-5.3,2.2-10.5,11.4-10.5c9.2,0,11.4,5.1,11.4,10.5V-114.6L138.4-114.6z M164-104.5h-8.5l-7.2-11.9v11.9h-7.8v-35.8l7.8-1.3v23.1
		l7.2-11.3h8.5l-7.8,12.4L164-104.5z M127-123.7c-2.6,0-3.6,1.4-3.6,3.3v6.6c0,1.8,0.9,3.3,3.6,3.3c2.6,0,3.6-1.5,3.6-3.3v-6.6
		C130.6-122.3,129.6-123.7,127-123.7L127-123.7z M168.5-108.9c1.3,0,2.4,1.1,2.4,2.4c0,1.4-1,2.4-2.4,2.4c-1.3,0-2.4-1.1-2.4-2.4
		C166.1-107.9,167.2-108.9,168.5-108.9L168.5-108.9z M168.5-108.6c-1.1,0-1.9,0.9-1.9,2c0,1.1,0.9,2,1.9,2c1.1,0,1.9-0.9,1.9-2
		C170.4-107.6,169.6-108.6,168.5-108.6L168.5-108.6z M168-105.1h-0.4v-2.7c0.2,0,0.4-0.1,0.8-0.1c0.4,0,0.7,0.1,0.8,0.2
		c0.2,0.1,0.2,0.3,0.2,0.6c0,0.4-0.2,0.6-0.5,0.7v0c0.2,0,0.4,0.3,0.4,0.7c0.1,0.4,0.1,0.6,0.2,0.7h-0.4c-0.1-0.1-0.1-0.3-0.2-0.7
		c-0.1-0.3-0.2-0.5-0.6-0.5H168L168-105.1L168-105.1z M168-106.6h0.3c0.4,0,0.7-0.1,0.7-0.5c0-0.2-0.2-0.5-0.7-0.5
		c-0.1,0-0.2,0-0.3,0V-106.6L168-106.6z"/>
</g>
<g>
	<path class="st17" d="M92.4,35.1c-8.6,6.4-21.2,9.8-32,9.8c-15.2,0-28.7-5.6-39.1-14.9c-0.8-0.7-0.1-1.7,0.9-1.2
		c11.1,6.5,24.9,10.3,39.1,10.3c9.6,0,20.1-2,29.8-6.1C92.6,32.5,93.8,34,92.4,35.1L92.4,35.1z"/>
	<path class="st17" d="M96,30.9c-1.1-1.4-7.3-0.7-10.1-0.3c-0.8,0.1-1-0.6-0.2-1.2c5-3.5,13.1-2.5,14-1.3c0.9,1.2-0.3,9.3-4.9,13.2
		c-0.7,0.6-1.4,0.3-1.1-0.5C94.8,38.2,97.1,32.4,96,30.9z"/>
	<path class="st1" d="M86.1,4.9V1.5c0-0.5,0.4-0.8,0.8-0.8h15.2c0.5,0,0.9,0.4,0.9,0.8v2.9c0,0.5-0.4,1.1-1.2,2.1L94,17.7
		c2.9-0.1,6,0.4,8.6,1.8c0.6,0.3,0.7,0.8,0.8,1.3v3.6c0,0.5-0.5,1.1-1.1,0.8c-4.7-2.5-10.9-2.7-16,0.1c-0.5,0.3-1.1-0.3-1.1-0.8
		v-3.4c0-0.5,0-1.5,0.6-2.3l9.1-13H87C86.5,5.7,86.1,5.4,86.1,4.9L86.1,4.9z M30.8,26h-4.6c-0.4-0.1-0.8-0.4-0.8-0.8V1.6
		c0-0.5,0.4-0.8,0.9-0.8h4.3c0.5,0,0.8,0.4,0.8,0.8v3.1h0.1c1.1-3,3.2-4.4,6.1-4.4c2.9,0,4.7,1.4,6,4.4c1.1-3,3.7-4.4,6.4-4.4
		c1.9,0,4,0.8,5.3,2.6c1.5,2,1.2,4.9,1.2,7.4v14.9c0,0.5-0.4,0.8-0.9,0.8H51c-0.5-0.1-0.8-0.4-0.8-0.8V12.6c0-1,0.1-3.5-0.1-4.4
		c-0.4-1.6-1.4-2-2.7-2c-1.1,0-2.3,0.7-2.8,1.9c-0.5,1.2-0.4,3.2-0.4,4.5v12.5c0,0.5-0.4,0.8-0.9,0.8h-4.6c-0.5-0.1-0.8-0.4-0.8-0.8
		V12.6c0-2.6,0.4-6.5-2.8-6.5c-3.3,0-3.2,3.8-3.2,6.5v12.5C31.7,25.6,31.4,26,30.8,26L30.8,26z M116,0.2c6.8,0,10.6,5.9,10.6,13.3
		c0,7.2-4.1,13-10.6,13c-6.7,0-10.3-5.9-10.3-13.2C105.6,6,109.4,0.2,116,0.2L116,0.2z M116,5.1c-3.4,0-3.6,4.7-3.6,7.5
		s-0.1,9,3.6,9c3.6,0,3.8-5,3.8-8c0-2-0.1-4.4-0.7-6.3C118.6,5.7,117.5,5.1,116,5.1L116,5.1z M135.4,26h-4.6
		c-0.5-0.1-0.8-0.4-0.8-0.8V1.5c0.1-0.4,0.4-0.8,0.9-0.8h4.3c0.4,0,0.7,0.3,0.8,0.7V5h0.1c1.3-3.2,3.1-4.8,6.3-4.8
		c2,0,4.1,0.7,5.4,2.8C149,4.9,149,8,149,10.3v14.9c-0.1,0.4-0.4,0.7-0.9,0.7h-4.6c-0.4-0.1-0.8-0.4-0.8-0.7V12.4
		c0-2.6,0.3-6.4-2.9-6.4c-1.1,0-2.1,0.7-2.7,1.9c-0.6,1.5-0.7,2.9-0.7,4.5v12.8C136.3,25.6,135.9,26,135.4,26L135.4,26z M74,14.7
		c0,1.8,0.1,3.3-0.8,4.9c-0.7,1.3-1.9,2.1-3.2,2.1c-1.8,0-2.8-1.4-2.8-3.3c0-3.9,3.5-4.7,6.8-4.7V14.7z M78.7,25.9
		c-0.3,0.3-0.7,0.3-1.1,0.1c-1.5-1.3-1.8-1.9-2.7-3.1c-2.5,2.6-4.3,3.3-7.6,3.3c-3.9,0-6.9-2.4-6.9-7.2c0-3.8,2-6.3,4.9-7.5
		c2.5-1.1,6-1.3,8.7-1.6V9.4c0-1.1,0.1-2.4-0.6-3.3c-0.6-0.8-1.6-1.2-2.6-1.2c-1.8,0-3.3,0.9-3.7,2.8c-0.1,0.4-0.4,0.8-0.8,0.8
		L61.9,8c-0.4-0.1-0.8-0.4-0.7-0.9c1-5.4,5.9-7.1,10.3-7.1c2.2,0,5.2,0.6,7,2.3c2.2,2.1,2,4.9,2,7.9v7.2c0,2.1,0.9,3.1,1.7,4.3
		c0.3,0.4,0.4,0.9,0,1.2C81.3,23.7,79.6,25.1,78.7,25.9L78.7,25.9z M13.6,14.7c0,1.8,0.1,3.3-0.8,4.9c-0.7,1.3-1.9,2.1-3.2,2.1
		c-1.8,0-2.8-1.4-2.8-3.3c0-3.9,3.5-4.7,6.8-4.7V14.7z M18.2,25.9c-0.3,0.3-0.7,0.3-1.1,0.1c-1.5-1.3-1.8-1.9-2.7-3.1
		c-2.5,2.6-4.3,3.3-7.6,3.3C3,26.3,0,23.9,0,19.1c0-3.8,2-6.3,4.9-7.5c2.5-1.1,6-1.3,8.7-1.6V9.4c0-1.1,0.1-2.4-0.6-3.3
		c-0.6-0.8-1.6-1.2-2.6-1.2c-1.8,0-3.3,0.9-3.7,2.8C6.6,8,6.4,8.5,6,8.5L1.5,8C1.1,7.9,0.7,7.6,0.8,7.1C1.9,1.6,6.7,0,11.1,0
		c2.2,0,5.2,0.6,7,2.3c2.2,2.1,2,4.9,2,7.9v7.2c0,2.1,0.9,3.1,1.7,4.3c0.3,0.4,0.4,0.9,0,1.2C20.9,23.7,19.2,25.1,18.2,25.9
		L18.2,25.9z"/>
</g>
</svg>
