<?xml version="1.0" encoding="utf-8"?>
<!-- Generator: Adobe Illustrator 22.0.1, SVG Export Plug-In . SVG Version: 6.00 Build 0)  -->
<svg version="1.1" id="Layer_1" xmlns="http://www.w3.org/2000/svg" xmlns:xlink="http://www.w3.org/1999/xlink" x="0px" y="0px"
	 width="105.8px" height="66.5px" viewBox="0 0 105.8 66.5" style="enable-background:new 0 0 105.8 66.5;" xml:space="preserve">
<style type="text/css">
	.st0{fill:#E11F26;}
</style>
<g>
	<path class="st0" d="M42.7,43.7c-3.3,0-6.5,0-9.7,0c-1.4-10.1-2.8-20.1-4.3-30.1c-0.1,0-0.2,0-0.2-0.1c-2.3,4.4-4.7,8.9-7.1,13.5
		c2.7,0,5.2,0,7.7,0c0.4,2.7,0.8,5.4,1.2,8.2c-4.5,0-8.8,0-13.2,0c-1.5,2.9-3,5.7-4.5,8.6c-3.6,0-7.1,0-10.8,0
		C3.2,41,4.5,38.2,6,35.3c-2,0-3.9,0-5.9,0c1.5-2.8,2.8-5.5,4.2-8.2c2,0,4,0,6.1,0c4.8-9,9.5-18,14.3-27c4,0,8,0,12.1,0
		C38.7,14.5,40.7,29.1,42.7,43.7z"/>
	<path d="M18.1,63.3c-0.6,0.1-1.1,0.1-1.7,0c0-1.1,0-2.3,0-3.5c0-0.7-0.1-1.5-1-1.6c-0.7-0.1-1.2,0.6-1.3,1.7c0,1.1,0,2.3,0,3.4
		c-0.6,0.2-1.1,0.2-1.8,0c0-1.2,0-2.4,0-3.6c0-0.7,0-1.5-0.9-1.5s-1.3,0.7-1.3,1.5c0,1.2,0,2.4,0,3.5c-0.6,0.3-1.1,0.2-1.7,0.1
		c0-2,0-4.1,0-6.2c0.6,0,1.3-0.4,1.8,0.4c1.7-0.9,2.4-0.9,3.6,0.3c0.3-0.2,0.5-0.4,0.8-0.6c1.7-0.9,3.4,0,3.4,1.9
		C18.1,60.5,18.1,61.9,18.1,63.3z"/>
	<path d="M63.2,59.9c-0.4-0.1-0.7-0.1-1,0c0,1.1,0,2.2,0,3.3c-0.6,0.3-1.2,0.2-1.8,0.1c0-2.8,0-5.7,0-8.7c1.4-0.1,2.9-0.2,4.3,0.2
		c1.6,0.5,2.1,2.5,1,3.8c-0.3,0.3-0.5,0.6-0.8,1c0.2,0.4,0.6,1,0.9,1.6s0.7,1.2,1,1.9c-0.6,0.1-1.2,0.2-1.8,0.4
		C64.3,62.3,63.7,61.1,63.2,59.9z M62.2,58.7c0.9,0.1,1.6,0,2.1-0.7c0.3-0.5,0.3-1.1,0-1.6c-0.5-0.7-1.3-0.7-2-0.6
		C62.2,56.8,62.2,57.7,62.2,58.7z"/>
	<path d="M21.6,62.8c0,1.3,0,2.4,0,3.5c-0.6,0.3-1.1,0.1-1.7,0.1c0-3.1,0-6.2,0-9.2c0.5-0.2,1-0.1,1.4-0.1c0.3,0.1,0.2,0.5,0.4,0.5
		c1.6-1,3-0.9,3.9,0.1c1.1,1.2,1.1,3.3,0.1,4.7C24.8,63.7,23.5,63.8,21.6,62.8z M24.6,60.4c0-0.4,0-0.5,0-0.6
		c-0.1-0.9-0.4-1.7-1.4-1.8c-0.9-0.1-1.3,0.7-1.6,1.5c-0.1,0.5-0.1,1.1,0,1.6c0.2,0.8,0.5,1.4,1.5,1.4c0.9,0,1.2-0.8,1.4-1.5
		C24.6,60.7,24.6,60.5,24.6,60.4z"/>
	<path d="M34.4,57.4c0.6-0.3,1.1-0.4,1.7-0.3c0.4,1.3,0.8,2.5,1.3,4.1c0.6-1.5,1.1-2.7,1.5-3.9c0.4-0.2,0.8-0.1,1.2,0
		c0.4,1.2,0.9,2.5,1.5,4c0.5-1.5,1-2.8,1.4-4.2c0.5,0,0.9,0.1,1.5,0.1c-0.8,2.1-1.6,4.2-2.4,6.1c-0.5,0.1-0.8,0.1-1.3,0
		c-0.5-1.2-1-2.4-1.6-3.9c-0.6,1.5-1.1,2.7-1.5,3.9c-0.4,0.1-0.8,0.1-1.2,0C35.9,61.4,35.2,59.5,34.4,57.4z"/>
	<path d="M3.6,62.1c1.2,0,2.2,0,3.3,0c0.3,0.4,0.2,0.8,0.1,1.2c-1.7,0-3.4,0-5.1,0c0-2.9,0-5.7,0-8.6c1.6,0,3.1,0,4.6,0
		c0.2,0.4,0.1,0.7,0.1,1.2c-1,0-1.9,0-2.9,0c0,0.8,0,1.5,0,2.2c0.9,0,1.9,0,2.7,0c0.3,0.4,0.1,0.8,0.2,1.2c-1,0.3-1.9,0-2.9,0.2
		C3.6,60.3,3.6,61.1,3.6,62.1z"/>
	<path d="M79.9,57.2c0.6,0,1.1,0,1.7,0c0,1.2,0,2.3,0,3.4c0,0.8,0,1.7,1.1,1.7c0.9,0.1,1.3-0.6,1.3-1.8c0-1.1,0-2.2,0-3.3
		c0.6,0,1.1,0,1.6,0c0,2,0,4,0,6.1c-0.5,0.3-1,0.1-1.5,0.1c-0.1-0.2-0.2-0.3-0.3-0.6c-0.6,0.4-1.2,0.7-1.9,0.7
		c-1.3,0-2.1-0.7-2.1-1.9C79.8,60.2,79.9,58.7,79.9,57.2z"/>
	<path d="M30.7,63.5c-2,0-3.4-1.4-3.3-3.4c0.1-1.9,1.4-3.1,3.3-3.1c2,0,3.3,1.3,3.3,3.3C34,62.2,32.7,63.6,30.7,63.5z M32.3,60.2
		c0-1.4-0.6-2.3-1.6-2.3c-0.9,0-1.5,0.9-1.5,2.2c0,1.4,0.6,2.5,1.5,2.5C31.6,62.6,32.3,61.6,32.3,60.2z"/>
	<path d="M73.2,60.4c-1.3,0-2.6,0-3.9,0c0.1,1.9,1.1,2.3,3.4,1.6c0.3,0.2,0.4,0.4,0.4,0.8c-1.3,0.9-3.1,1.1-4.3,0.3
		c-1.2-0.8-1.7-2.3-1.3-3.9c0.4-1.6,1.9-2.4,3.7-2.1C72.6,57.3,73.4,58.5,73.2,60.4z M71.6,59.4c0.1-0.9-0.2-1.5-1.1-1.5
		s-1.2,0.6-1.2,1.5C70.1,59.4,70.8,59.6,71.6,59.4z"/>
	<path d="M50.7,60.5c-1.2,0-2.5,0-3.8,0c0,1.8,1.1,2.3,3.3,1.5c0.3,0.2,0.4,0.5,0.5,0.8c-0.2,0.3-0.6,0.4-0.9,0.5
		c-1.5,0.5-2.9,0.5-4.1-0.8c-1-1.1-1.1-2.4-0.6-3.8c0.6-1.4,2.3-2.1,3.9-1.6C50.4,57.5,51.1,58.9,50.7,60.5z M49.2,59.4
		c0.1-0.9-0.2-1.5-1.1-1.5c-0.9,0-1.3,0.6-1.3,1.5C47.7,59.5,48.4,59.5,49.2,59.4z"/>
	<path d="M91.2,56.9c0-0.4,0-0.8,0-1.2c0.5-0.2,1-0.3,1.6-0.3c0.3,0.5,0,1.1,0.3,1.7c0.5,0,0.9,0.1,1.3,0.1c0.3,0.3,0.2,0.5,0,0.8
		c-0.4,0-0.9,0.1-1.5,0.1c0.1,1.5-0.3,2.9,0.3,4.2c0.5,0.3,0.9,0.1,1.3,0.2c0.2,0.2,0.3,0.4,0.2,0.7c-0.5,0.3-1,0.4-1.6,0.4
		c-1.2,0-1.9-0.6-1.9-1.8c0-1.1,0-2.3,0-3.5c-0.3-0.1-0.5-0.2-0.8-0.3c0-0.2,0-0.4,0-0.6C90.5,57,90.9,57.2,91.2,56.9z"/>
	<path d="M78.4,57.4c0,0.4-0.1,0.6-0.4,0.8c-0.6-0.1-1.2-0.6-1.7,0.2c-0.2,0.5,0.2,0.7,0.5,1c0.4,0.4,0.8,0.7,1.2,1
		c1,1,0.7,2.3-0.5,2.9c-1.1,0.5-2.2,0.3-3.2-0.4c0-0.4,0.2-0.6,0.4-0.9c0.8,0.3,1.6,1,2.2-0.1c0-0.7-0.6-1-1-1.3
		c-1.3-1-1.7-1.8-1.2-2.6c0.4-0.9,1.9-1.2,3.2-0.8C78,57.2,78.2,57.4,78.4,57.4z"/>
	<path d="M96,62c1.4,0.7,1.6,0.7,2.2-0.2c-0.1-0.6-0.5-0.9-0.9-1.2c-1.4-1-1.7-1.8-1.3-2.7c0.5-0.9,1.9-1.2,3.3-0.7
		c0.1,0.1,0.2,0.1,0.4,0.2c0.1,0.4-0.1,0.5-0.3,0.8c-0.6,0-1.2-0.6-1.7,0.2c-0.2,0.5,0.1,0.7,0.4,1c0.1,0.1,0.3,0.2,0.4,0.3
		c1.4,1.2,1.8,2,1.2,2.9c-0.6,0.9-2.2,1.2-3.5,0.7c-0.2-0.1-0.4-0.2-0.5-0.3C95.5,62.5,95.7,62.2,96,62z"/>
	<path d="M87.6,54.3c0.5,0,1,0,1.6,0c0,1.5,0,3,0,4.4c0,1.5,0,3,0,4.5c-0.6,0.1-1.1,0.1-1.6,0C87.6,60.3,87.6,57.4,87.6,54.3z"/>
	<path d="M53.9,63.3c-0.5,0-1,0-1.5,0c0-2,0-4,0-6.1c0.5-0.2,0.9-0.1,1.4-0.1c0.4,0.1,0.1,0.5,0.4,0.6c1-0.9,1.4-0.9,2.4-0.2
		c0.1,0.4-0.2,0.8-0.4,1.1c-1.6-0.1-2,0.2-2.1,1.9C53.9,61.4,54.1,62.3,53.9,63.3z"/>
	<path d="M105.8,57.1c0,1.4-1,2.4-2.3,2.4c-1.4,0-2.4-1.1-2.4-2.4c0-1.4,1.1-2.4,2.5-2.4C104.8,54.7,105.8,55.7,105.8,57.1z
		 M103.4,58.9c0.9,0,1.7-0.8,1.7-1.8c0-1.1-0.7-1.9-1.7-1.9c-0.9,0-1.7,0.8-1.8,1.8C101.6,58,102.4,58.8,103.4,58.9z"/>
	<path class="st0" d="M73.6,22.8c0.8-4.3,1.5-8.4,2.3-12.6c3.2,0,6.3,0,9.5,0c2.4,5.4,4.8,10.9,7.4,16.7c1.2-5.7,2.1-11.2,3-16.6
		c3.3,0,6.5,0,9.9,0c-1.9,11.2-3.9,22.3-5.8,33.5c-3.2,0-6.4,0-9.7,0c-2.3-5.4-4.7-10.9-7.1-16.4c-0.1,0-0.2,0-0.3,0
		c-0.9,5.4-1.9,10.9-2.9,16.3c-3.2,0-6.4,0-9.7,0c0.3-2.4,0.7-4.7,1-7c-1,1.1-1.9,2.2-2.9,3.2c-6.5,6.4-17.3,6.7-24.3-1
		c-0.5-0.5-0.7-1.2-0.8-1.8c-0.8-5.3-1.5-10.7-2.3-16c-0.1-0.5,0.1-1,0.3-1.4c2.2-5.2,8.9-10.8,17-10.2c7,0.6,13.1,5.6,15,12.5
		C73.3,22.2,73.3,22.5,73.6,22.8z M64,26.6c0-0.5,0-1.1-0.1-1.7c-0.5-2.9-1.9-5.1-4.8-6.1c-2.6-0.9-5-0.5-7.1,1.4
		c-3.3,3.2-3.9,8.1-1.6,12c1.6,2.6,5,3.9,7.9,2.8C62.1,33.6,63.6,30.6,64,26.6z"/>
	<g>
		<path d="M102.8,56.1h0.9c0.5,0,0.6,0.3,0.6,0.5S104.2,57,104,57c0.1,0.1,0.2,0.1,0.2,0.5c0,0.3,0,0.3,0.1,0.4l0,0h-0.4
			c0-0.1,0-0.2,0-0.4s0-0.4-0.3-0.4h-0.4v0.7h-0.4L102.8,56.1L102.8,56.1z M103.6,56.9c0.2,0,0.3-0.1,0.3-0.3c0-0.1,0-0.2-0.3-0.2
			h-0.5v0.5H103.6z"/>
	</g>
</g>
</svg>
