<?xml version="1.0" encoding="utf-8"?>
<!-- Generator: Adobe Illustrator 22.0.1, SVG Export Plug-In . SVG Version: 6.00 Build 0)  -->
<svg version="1.1" id="Layer_1" xmlns="http://www.w3.org/2000/svg" xmlns:xlink="http://www.w3.org/1999/xlink" x="0px" y="0px"
	 width="126.8px" height="44px" viewBox="0 0 126.8 44" style="enable-background:new 0 0 126.8 44;" xml:space="preserve">
<style type="text/css">
	.st0{fill:#2C2569;}
	.st1{fill:#949599;}
	.st2{fill:#95969A;}
	.st3{fill:#2D266A;}
</style>
<g>
	<path class="st0" d="M14.7,42.9c-8.1-3.3-13.1-9-14.5-17.6C-1,16.6,2.2,9.6,9.1,4.1c4.5,9.2,8.9,18.4,13.4,27.6
		C19.9,35.4,17.4,39.1,14.7,42.9z"/>
	<path class="st0" d="M25.1,27.9c-2.5-9.2-4.8-18.3-7.2-27.4C24.8-1,33.5,1.3,38.9,8C34.3,14.6,29.7,21.2,25.1,27.9z"/>
	<path class="st0" d="M43.3,16.6C46,27.2,40.2,39.1,29,42.8c-0.8-3.3-1.7-6.5-2.6-9.8C32,27.5,37.7,22.1,43.3,16.6z"/>
	<path class="st1" d="M81.4,28.1c-1,0-2,0-3.1,0c-0.8-1-1.5-2.1-2.3-3.2s-1.5-2.1-2.4-3.2c0,2.2,0,4.2,0,6.4c-1.2,0-2.2,0-3.4,0
		c0-4.1,0-8.2,0-12.4c1,0,2,0,3.2,0c1.4,1.9,2.8,3.8,4.4,5.9c0-2.1,0-4,0-6c1.2,0,2.4,0,3.6,0C81.4,19.8,81.4,23.9,81.4,28.1z"/>
	<path class="st1" d="M64.7,43.4c-3,0-5.2-1.4-6.1-3.8c-1.1-2.6-0.5-5.7,1.5-7.5c1.5-1.5,3.4-1.8,5.3-1.6c3,0.3,4.9,2.1,5.5,5
		c0.8,3.4-0.9,6.9-4.6,7.8C65.8,43.3,65.2,43.4,64.7,43.4z M67.2,37.3c0-1-0.2-1.6-0.5-2.2c-0.9-1.6-3.1-1.6-4.2-0.1
		c-0.8,1.2-0.7,3,0.1,4.1c0.8,1.2,2.5,1.4,3.6,0.3C66.9,38.8,67.2,37.9,67.2,37.3z"/>
	<path class="st1" d="M109.6,24c-0.2-0.1-0.4-0.1-0.6,0c0,1.3,0,2.7,0,4.1c-1.2,0-2.5,0-3.6,0c0-4.2,0-8.2,0-12.4
		c0.1,0,0.1-0.1,0.2-0.1c2.1,0,4.1-0.2,6.2,0.1c1.9,0.2,3.3,1.2,3.7,2.8c0.5,2-0.2,3.6-1.8,4.7c-0.1,0.1-0.2,0.2-0.3,0.2
		c0.4,0.7,0.8,1.4,1.2,2.1c0.4,0.7,0.8,1.4,1.2,2.2c-1.2,0.3-2.5,0.5-3.7,0.8C111,27,110.3,25.5,109.6,24z M108.9,21.2
		c0.8,0,1.5,0.1,2.2-0.2c0.5-0.2,0.7-0.7,0.6-1.2s-0.4-0.8-0.8-0.9c-0.6-0.2-1.2-0.1-1.9-0.1C108.9,19.5,108.9,20.3,108.9,21.2z"/>
	<path class="st1" d="M100.2,15.6c1.3,0,2.5,0,3.7,0c0.2,0.2,0.1,0.2,0.1,0.4c0,2.3,0,4.7,0,7c0,0.8-0.2,1.6-0.5,2.4
		c-0.5,1.4-1.5,2.3-2.8,2.7c-1.6,0.5-3.2,0.5-4.8-0.1c-1.8-0.6-3-2-3.1-3.8c-0.2-2.8,0-5.6,0-8.5c1.2,0,2.4,0,3.5,0
		c0.2,0.2,0.1,0.4,0.1,0.5c0,2.2,0,4.3,0,6.4c0,0.3,0,0.6,0.1,0.9c0.2,1,1,1.6,1.9,1.6c0.9-0.1,1.6-0.8,1.8-1.8
		c0.1-0.5,0.1-0.9,0.1-1.5c0-1.9,0-3.8,0-5.7C100.2,16.1,100.2,16,100.2,15.6z"/>
	<path class="st1" d="M73.9,43.2c-1.4,0-2.8,0-4.2,0C70.4,42,71,41,71.6,40c0.6-1.1,1.2-2.1,1.9-3.2c-1.2-2-2.4-3.9-3.6-6
		c1.5,0,2.9,0,4.4,0c0.5,0.8,0.9,1.8,1.5,2.8c0.5-1,0.9-1.8,1.4-2.8c1.5,0,2.8,0,4.3,0c-1.2,2-2.4,4-3.6,6.1
		c1.2,2.1,2.5,4.2,3.8,6.4c-1.4,0-2.8,0-4.2,0c-0.5-1-1.2-2-1.8-3.1C75,41.1,74.5,42.1,73.9,43.2z"/>
	<path class="st1" d="M59.5,13.2c-3.2,0-6.2,0-9.4,0c0-0.8,0-1.6,0-2.5c1-0.8,2.1-1.8,3.2-2.7c0.6-0.5,1.3-1.1,1.9-1.7
		c0.4-0.5,0.8-1,0.8-1.6c0-0.5-0.2-0.9-0.6-1.2c-0.5-0.2-1-0.2-1.4,0.2s-0.5,0.8-0.7,1.4C52.1,5,51,4.7,49.9,4.5
		c0.4-2.4,1.8-3.7,4.2-3.8c0.8-0.1,1.6,0,2.4,0.1c3.2,0.5,4.2,4.2,2.4,6.5c-0.7,0.9-1.6,1.5-2.4,2.3c-0.2,0.2-0.4,0.3-0.7,0.6
		c1.5,0,2.8,0,4.2,0C59.8,11.2,59.6,12.1,59.5,13.2z"/>
	<path class="st1" d="M60.3,17.3c-0.7,0.9-1.3,1.8-2,2.7c-0.5-0.3-0.8-0.7-1.3-0.8c-1.5-0.6-3,0.2-3.4,1.7c-0.2,0.7-0.2,1.3-0.1,2
		c0.5,1.9,2.3,2.7,4.2,1.7c0.3-0.2,0.6-0.4,0.9-0.6c0.7,0.8,1.3,1.8,2,2.7c-0.6,0.6-1.3,1.1-2.2,1.3c-2.5,0.8-4.9,0.6-7-1.1
		c-1.1-0.9-1.8-2.1-2-3.5c-0.4-2.4,0.2-4.5,1.9-6.2C53.6,14.9,58.1,15,60.3,17.3z"/>
	<path class="st1" d="M69.1,19.1c-1.5,0-2.8,0-4.3,0c-0.1,0.5-0.1,0.9-0.1,1.5c1,0,2.1,0,3.2,0c0,1,0,1.9,0,3c-1,0-2,0-3.1,0
		c-0.1,0.5-0.1,0.9,0,1.5c1.5,0,2.8,0,4.3,0c-0.2,1.1-0.2,2.2-0.4,3.2c-2.5,0-5.1,0-7.6,0c0-4.2,0-8.2,0-12.4c2.5,0,5,0,7.6,0
		C68.9,16.8,69,17.9,69.1,19.1z"/>
	<path class="st1" d="M67.3,12c0.5-1,1-1.8,1.5-2.8c0.5,0.3,1,0.6,1.5,0.8c0.7,0.4,1.4,0.5,2.2,0.5c0.5-0.1,0.8-0.2,1-0.7
		c0.1-0.5-0.3-0.8-0.7-0.9C72,8.5,71.3,8.3,70.5,8c-1.9-0.8-2.7-1.9-2.6-3.7c0.1-1.5,1.2-3,2.9-3.5c2-0.6,3.9-0.3,5.7,0.7
		c0.1,0.1,0.2,0.2,0.3,0.2c-0.5,0.8-1,1.8-1.5,2.6c-0.3-0.2-0.6-0.4-1-0.5c-0.7-0.3-1.4-0.5-2.2-0.4c-0.5,0.1-0.8,0.2-0.9,0.7
		s0.2,0.7,0.6,0.8c0.5,0.2,0.9,0.3,1.4,0.5s1.1,0.3,1.5,0.6c1.7,0.7,2.3,2,2.2,3.8c-0.2,1.6-1.1,2.6-2.5,3.2
		C71.9,14,69.6,13.3,67.3,12z"/>
	<path class="st1" d="M50.2,43.1c0-4.2,0-8.2,0-12.4c2.5,0,5,0,7.5,0c0.1,1.1,0.2,2.2,0.3,3.4c-1.4,0-2.7,0-4.1,0
		c-0.2,0.6,0,1.2-0.1,1.7c1.2,0,2.2,0,3.3,0c0,1.2,0,2.2,0,3.3c-1.1,0-2.2,0-3.3,0c0,1.4,0,2.7,0,4C52.6,43.1,51.4,43.1,50.2,43.1z"
		/>
	<path class="st1" d="M122.4,28.1c-1.2,0-2.4,0-3.5,0c0-1.3,0-2.6,0-3.8c0-0.4-0.1-0.8-0.3-1.1c-1.2-2.2-2.5-4.5-3.7-6.7
		c-0.2-0.2-0.3-0.5-0.3-0.8c1.3,0,2.7,0,4.1,0c0.7,1.4,1.3,2.8,2.1,4.4c0.7-1.5,1.4-2.9,2.1-4.4c1.4,0,2.7,0,4,0
		c0,0.4-0.2,0.6-0.5,0.9c-1.2,2.2-2.5,4.4-3.7,6.6c-0.2,0.3-0.2,0.5-0.2,0.8C122.4,25.4,122.4,26.7,122.4,28.1z"/>
	<path class="st2" d="M77,4.1c0.2-1.2,0.2-2.2,0.3-3.3c3,0,5.9,0,8.9,0C86.3,1.9,86.4,3,86.6,4c-1,0-1.9,0-2.9,0c0,3.1,0,6.1,0,9.1
		c-1.2,0-2.5,0-3.7,0c0-3,0-6,0-9.1C78.9,4.1,78,4.1,77,4.1z"/>
	<path class="st1" d="M82.5,15.6c3,0,5.9,0,8.9,0c0.1,1.1,0.2,2.2,0.3,3.2c-1,0-1.9,0-2.9,0c0,3.1,0,6.1,0,9.1c-1.2,0-2.5,0-3.7,0
		c0-3,0-6,0-9.1c-1,0-1.9,0-2.9,0C82.2,17.8,82.5,16.8,82.5,15.6z"/>
	<path class="st3" d="M28,43.2c-4,1.1-8,1.1-12.1,0c2.8-2.7,5.5-5.3,8.2-7.9C25.4,37.9,26.7,40.5,28,43.2z"/>
	<path class="st2" d="M66.6,13.2c-1.2,0-2.4,0-3.6,0c0-2.5,0-5.1,0-7.7c-0.8,0.5-1.7,0.8-2.7,0.6c0-0.9,0-1.8,0-2.8
		c1.5-0.2,2.6-1.2,3.3-2.5c1,0,2,0,3,0C66.6,5,66.6,9,66.6,13.2z"/>
</g>
</svg>
