<?xml version="1.0" encoding="utf-8"?>
<!-- Generator: Adobe Illustrator 22.0.1, SVG Export Plug-In . SVG Version: 6.00 Build 0)  -->
<svg version="1.1" id="Layer_1" xmlns="http://www.w3.org/2000/svg" xmlns:xlink="http://www.w3.org/1999/xlink" x="0px" y="0px"
	 width="166.1px" height="73px" viewBox="0 0 166.1 73" style="enable-background:new 0 0 166.1 73;" xml:space="preserve">
<g>
	<path d="M31.3,52.3c0,0.5-0.1,1-0.2,1.5c-0.7,2.1-2.7,2.5-4.3,1.8c-0.7-0.3-1-0.9-1.2-1.5c-0.4-0.9-0.5-2-0.6-2.9
		c-0.1-0.4-0.1-0.8-0.1-1.2c-0.8-0.4-1.6-0.9-2.3-1.3c-3.2-1.9-6.2-4-8.8-6.7c-1.2-1.3-2.4-2.6-3.4-4.1c-0.4-0.6-0.7-1.3-0.9-2
		c-0.2-1.4,0.3-2.5,1.2-3.5c1-1,2.2-1.7,3.5-2.3c3.1-1.4,6.4-2.3,9.7-2.9c0.7-0.1,1.4-0.2,2.1-0.3c0-0.5,0.1-1,0.1-1.5
		c0.2-3.1,0.6-6.1,1.6-9.1c0.1-0.3,0.2-0.7,0.4-1c0.3-0.6,0.8-0.7,1.4-0.3c0.3,0.2,0.5,0.5,0.8,0.8c1,1.3,1.4,2.8,1.6,4.4
		c0.1,1.6,0.1,3.1,0.2,4.7c0,0.5,0,0.9,0,1.4c0.7,0.1,1.3,0.1,1.9,0.2c2.2,0.2,4.4,0.4,6.6,0.7c2.5,0.4,5,0.9,7.3,2
		c1.4,0.7,2.6,1.5,3.5,2.7c1.7,2.4,1.4,5.3-1,7.1c-1.4,1.1-2.9,1.5-4.6,0.9c-0.7-0.2-1.2-0.6-1.7-1.2c0.2-0.4,0.4-0.6,0.8-0.8
		c0.5-0.2,1-0.4,1.5-0.6c0.3-0.1,0.5-0.2,0.7-0.4c0.5-0.4,0.6-1.1,0.1-1.6s-1.1-0.8-1.7-1c-1.6-0.6-3.3-0.9-5-1.2
		c-2.8-0.5-5.5-0.8-8.3-0.8c-0.1,0-0.2,0-0.4,0c-0.5,5.1-0.2,10.1-0.3,15.1c0.9,0.3,1.7,0.4,2.6,0.6c2.1,0.4,4.2,0.6,6.3,0.6
		c4.4,0,8.8-0.7,12.9-2.4c2.4-1,4.5-2.4,6-4.5c1.6-2.2,2.1-4.7,2-7.4c-0.2-2.9-1.3-5.4-2.9-7.7c-2.1-3.1-4.8-5.6-7.7-8
		c-3.7-2.9-7.8-5.2-12-7.3C33.9,8.8,29.1,7,24,5.8C20.4,5,16.7,4.5,13,4.3c-2.3-0.1-4.5,0-6.8,0.4c-1,0.2-1.9,0.5-2.9,0.9
		C3.5,5.9,3.8,6,4,6c0.4,0.1,0.7,0.2,1.1,0.2c0.2,0,0.4,0.1,0.7,0.2c0.5,0.1,0.8,0.4,0.7,0.7c0,0.4-0.4,0.6-0.7,0.7
		c-1.5,0.4-3,0.4-4.5-0.2C1,7.6,0.7,7.3,0.4,7c-0.5-0.5-0.5-1-0.2-1.7c0.3-0.6,0.7-1.2,1-1.7C2,2.5,3,1.8,4.2,1.4
		c1.6-0.5,3.3-0.8,5-1c1.2-0.1,2.3-0.3,3.5-0.4c0.1,0,0.3,0,0.4,0c6.1-0.2,12,0.9,17.8,2.5C40,5,48.2,9.3,55.5,15.2
		c4.3,3.5,7.9,7.6,10.4,12.6c1.2,2.4,2,5,1.9,7.7c-0.1,4.5-1.7,8.4-4.9,11.6c-2.4,2.4-5.3,3.8-8.4,4.9c-4.4,1.5-8.9,2.1-13.6,1.9
		c-3.2-0.1-6.3-0.5-9.3-1.5C31.5,52.3,31.4,52.3,31.3,52.3z M25.6,32.1c-0.1,0-0.2,0-0.3,0c-2.1,0.1-4.1,0.2-6.2,0.5
		c-1.9,0.3-3.8,0.6-5.7,1.2c-0.6,0.2-1.2,0.4-1.7,0.9c-0.5,0.4-0.6,0.9-0.4,1.5c0.1,0.3,0.3,0.6,0.5,0.9c0.7,0.9,1.5,1.6,2.3,2.3
		c2.7,2.4,5.8,4.2,9.1,5.6c0.5,0.2,0.9,0.4,1.4,0.6C25.3,41,25.6,36.6,25.6,32.1z"/>
	<path d="M152.7,28.3c0.3,0.8,0.2,1.6,0,2.4c-0.4,1.5-1.2,2.9-2.1,4.2c-0.9,1.3-1.8,2.6-2.4,4c-0.5,1.3-0.8,2.7-0.9,4.1
		c0,0.1,0,0.2,0,0.3c0,0,0,0,0,0.1c0.4-0.4,0.7-0.8,1.1-1.2c1.5-1.9,3-3.9,4.6-5.8c1.6-1.8,3.3-3.5,5.4-4.6c0.9-0.5,1.7-0.8,2.7-0.9
		c1.4-0.1,2.6,0.4,3.4,1.5c0.8,1.1,1.3,2.3,1.3,3.6c0.1,2,0.1,4.1-0.6,6.1c-0.8,2.2-2,4.1-3.5,5.8c-1.4,1.6-3,3.1-5,4
		c-2,1-4.1,1.3-6.3,0.8c-0.1,0-0.2,0-0.3,0c0,0-0.1,0-0.2,0c-0.2,0.6-0.5,1.2-0.8,1.8c-1.8,4.3-3.2,8.7-4.2,13.2
		c-0.2,1.2-0.3,2.4-0.6,3.6c-0.1,0.3-0.2,0.6-0.3,0.9c-0.3,0.7-0.7,0.9-1.5,0.6c-0.6-0.2-1-0.6-1.5-1.1c-1.8-2-2.5-4.3-2.3-7
		c0.4-3.8,1.6-7.4,3-10.9c0.7-1.8,1.5-3.5,2.4-5.2c-0.4-0.7-0.7-1.4-0.9-2.2c-0.6-2.4-0.4-4.8,0.4-7.1c1.2-3.6,3.2-6.6,5.8-9.3
		c0.7-0.7,1.4-1.4,2.4-1.7C152.3,28.3,152.5,28.2,152.7,28.3z M153,46.9c1.7-0.2,3.2-0.6,4.6-1.4c3.7-2,5.6-5.1,5.4-9.3
		c0-0.4-0.2-0.6-0.5-0.6c-0.2,0-0.4,0.1-0.6,0.2c-0.9,0.5-1.6,1.1-2.2,1.9c-1.6,1.8-3,3.7-4.4,5.7C154.4,44.4,153.7,45.6,153,46.9z"
		/>
	<path d="M82.6,34.2c0.5,0.5,1.1,0.7,1.7,0.8c2.2,0.2,4.3,0.5,6.5,0.7c2,0.2,4.1,0.4,6,1.1c2.4,0.8,3.8,2.4,4,4.9
		c0.2,1.8,0,3.5-0.7,5.2c-0.5,1.1-1.2,1.9-2.3,2.4c-1.8,0.8-3.7,1.2-5.6,1.5c-2.4,0.3-4.7,0.2-7-0.6c-1.9-0.6-3.7-1.6-5.1-3.1
		c-0.5-0.5-0.8-1-1.1-1.6c-0.9-1.8-0.4-3.6,1.2-4.8c1.2-0.9,2.6-1.2,4-1.3c3-0.1,6,0.5,8.8,1.6c0.4,0.2,0.8,0.4,1.1,0.7
		c0.6,0.6,0.5,1.2-0.1,1.7c-0.5,0.4-1.1,0.5-1.7,0.6c-1.6,0.3-3.2,0.2-4.8-0.2c-0.6-0.1-1.2-0.4-1.8-0.8c-0.7-0.4-1.4-0.8-2.2-1
		c-0.8-0.2-1.5,0-2,0.7c-0.6,0.7-0.5,1.4,0.3,1.9c0.6,0.4,1.2,0.6,1.9,0.7c3.9,0.7,7.6,0.4,11.2-1.2c0.6-0.3,1.1-0.6,1.6-1
		c0.8-0.8,0.8-1.7-0.1-2.4s-1.9-0.9-2.9-1.2c-1.9-0.5-3.9-0.7-5.9-0.8c-2.4-0.2-4.7-0.3-7.1-0.8c-0.3-0.1-0.6-0.2-0.9-0.3
		c-1.2-0.4-1.7-1.2-1.8-2.4c-0.1-1.4,0.2-2.6,0.9-3.8c0.5-1,1.5-1.6,2.4-2.1c1.8-1,3.8-1.5,5.9-1.9c3.3-0.6,6.6-0.6,9.9-0.2
		c1.3,0.2,2.7,0.3,3.9,0.8c0.4,0.1,0.7,0.3,1,0.5c0.4,0.3,0.5,0.6,0.4,1.1c-0.3,1.4-1,2.1-2.4,2.2c-1.7,0.1-3.3,0.1-5,0.2
		c-3.1,0.2-6.3,0.3-9.4,0.8c-0.7,0.1-1.3,0.2-1.9,0.4C83.1,33.6,82.8,33.8,82.6,34.2z"/>
	<path d="M126.6,37.6c0.9-1.1,1.2-2.4,2-3.5c-2.1-0.4-3.7-1.2-4-3.6c0.7-0.4,1.4-0.6,2.2-0.8c2-0.5,4.1-0.7,6.2-0.8
		c1.8-0.1,3.7-0.2,5.5-0.4c0.8-0.1,1.6,0,2.4,0.1c0.3,0.1,0.6,0.1,0.9,0.3c1,0.8,1.9,1.7,2.5,2.8c0.6,1.4,0.2,1.9-1,2.1
		c-1.1,0.2-2.2,0.3-3.3,0.3c-2.1,0.1-4.2,0.2-6.3,0.3c-0.1,0-0.1,0-0.2,0c-0.5,0.9-0.6,1.9-1,2.8c2.4,0.1,4.7-0.3,7,0.4
		c0.3,1.2,0.3,2.3-0.1,3.4c-1.1,0.4-2.2,0.5-3.4,0.5c-1.7,0-3.4-0.1-5.1,0.1c-0.1,0-0.1,0-0.2,0c-0.6,1.4-1.1,2.8-1.4,4.3
		c0.9,0,1.7-0.2,2.5-0.3c2-0.3,4-0.7,6-0.8c0.2,0,0.4,0,0.6,0c1.3-0.3,2.7,1.6,2.4,2.7c-0.2,0.6-0.5,1-0.9,1.4c-0.9,0.8-2,1.4-3,2
		c-1.9,1-3.9,1.8-6.1,2.2c-0.8,0.1-1.7,0.2-2.6,0.1c-2.1-0.3-3.4-1.7-4.1-3.6c-0.7-2.2-0.5-4.3,0.4-6.4c0.1-0.2,0.2-0.5,0.3-0.7
		c0.3-0.7,0.4-1.5,0.1-2.2c-0.2-0.5-0.3-1-0.3-1.6s0.3-0.9,0.9-1.1C125.7,37.7,126.1,37.7,126.6,37.6z"/>
	<path d="M108.1,37.8c-0.4,1.2-0.5,2.4-0.6,3.6c-0.1,2-0.1,4-0.4,6c-0.1,0.9-0.3,1.9-0.6,2.8c-0.2,0.5-0.5,0.8-1,0.9
		c-1.6,0.4-2.7-0.1-3.2-1.7c-0.1-0.4-0.2-0.9-0.3-1.3c-0.2-1.7-0.1-3.4,0.1-5.2c0.3-2.7,0.7-5.4,1.4-8.1c0.3-1.3,0.7-2.5,1.3-3.6
		c0.3-0.5,0.6-1,1-1.4c0.7-0.6,1.5-0.7,2.3-0.2c0.6,0.4,1,0.9,1.4,1.5c2.4,3.3,4.5,6.7,6.5,10.2c0.2,0.3,0.3,0.6,0.5,1
		c0.2,0.3,0.4,0.6,0.8,0.6c0.1-0.7,0.1-1.4,0-2c-0.1-3.5-0.9-6.9-1.8-10.3c-0.3-1.2-0.7-2.3-0.9-3.5c-0.1-0.6-0.1-1.2,0-1.7
		c0.2-0.8,0.6-1,1.4-0.7c0.6,0.2,1.1,0.7,1.6,1.2c2.3,2.5,3.6,5.5,4.3,8.7c0.7,3.1,0.8,6.2,0.3,9.4c-0.2,1.4-0.5,2.7-1.2,3.9
		c-0.6,1.1-1.4,2-2.7,2.3c-1.2,0.2-2.2,0-3.1-0.8s-1.5-1.7-2.1-2.7c-1.2-2-2.2-4.1-3.2-6.2c-0.4-0.8-0.9-1.7-1.4-2.4
		C108.3,37.9,108.3,37.8,108.1,37.8z"/>
	<path d="M70.5,23.2c-0.3,0.3-0.5,0.7-0.8,1.1c-0.7,1.1-1.8,1.2-2.6,0.2c-0.4-0.5-0.7-1-0.8-1.6c-0.1-0.4-0.2-0.9,0-1.3
		c0.3-0.6,0.1-1.1-0.3-1.6c-1-1-1.2-2.2-1.2-3.5c0-1.2,0.4-2.2,1-3.2c1.8-2.9,4.3-4.9,7.5-6c2.2-0.8,4.4-1.1,6.7-1
		c0.6,0,1.3,0.1,1.9,0.3c1.1,0.4,1.7,0.9,2.3,2c0.5,0.1,1.1,0.1,1.6,0.3c2.2,0.6,3.2,2.4,2.8,4.7c-0.3,1.7-1.1,3.2-2.3,4.5
		c-2.7,3-5.9,5-9.9,5.8c-2,0.4-3.9,0.3-5.7-0.7C70.6,23.2,70.6,23.2,70.5,23.2z M72.5,19.6c0.1,0,0.2,0,0.2,0c1.5,0.3,3,0.3,4.5,0.1
		c1.9-0.3,3.8-0.9,5.3-2.2c1-0.9,1.9-1.8,2.3-3.2c0.4-1.3-0.1-2.3-1.3-2.5c-0.4-0.1-0.7-0.1-1.1,0c-1.1,0.2-2.1,0.6-3,1.1
		c-2.2,1.3-4,3-5.6,5C73.4,18.5,73,19,72.5,19.6z M75.3,10.7c-1.3,0-2.5,0.2-3.7,0.8c-1.8,0.9-3,2.3-3.2,4.5c0,0.4-0.1,0.8,0.1,1.2
		C70.6,14.7,72.6,12.4,75.3,10.7z"/>
	<path d="M75.6,39.9c0,1.9,0,3.7,0,5.6c0,1.4,0,2.8-0.4,4.1c-0.3,1.1-0.5,1.3-1.7,1.4c-0.7,0.1-1.4,0-2.1-0.2s-1.1-0.7-1.3-1.4
		c-0.2-0.8-0.2-1.7-0.3-2.5c-0.1-4,0.1-8,0.4-12c0.2-1.9,0.3-3.7,0.7-5.5c0.1-0.5,0.3-1,0.6-1.5c0.4-0.6,1-0.8,1.7-0.4
		c0.4,0.2,0.8,0.6,1,1c0.8,1.1,1,2.3,1.1,3.6c0.2,2.3,0.1,4.6,0.1,6.9C75.5,39.2,75.5,39.5,75.6,39.9C75.5,39.9,75.6,39.9,75.6,39.9
		z"/>
	<path d="M150.7,69.9c0,0.9-0.6,1.6-1.4,1.6c-0.9,0-1.6-0.8-1.5-1.7c0-0.8,0.7-1.4,1.6-1.4C150.2,68.4,150.7,69,150.7,69.9z
		 M149.4,68.6c-0.8,0-1.3,0.5-1.3,1.2c0,0.8,0.6,1.5,1.3,1.5s1.2-0.6,1.2-1.4C150.5,69.1,150,68.6,149.4,68.6z"/>
	<path d="M149.9,70.6c-0.3,0.3-0.7,0.4-1,0.1c-0.4-0.3-0.5-1-0.2-1.4c0.2-0.3,0.6-0.4,1.1-0.1c-0.1,0.1-0.3,0.1-0.5,0.1
		c-0.5,0.1-0.7,0.3-0.7,0.7c0,0.4,0.3,0.7,0.7,0.7C149.6,70.6,149.7,70.6,149.9,70.6z"/>
</g>
</svg>
