<?xml version="1.0" encoding="utf-8"?>
<!-- Generator: Adobe Illustrator 22.0.1, SVG Export Plug-In . SVG Version: 6.00 Build 0)  -->
<svg version="1.1" id="Layer_1" xmlns="http://www.w3.org/2000/svg" xmlns:xlink="http://www.w3.org/1999/xlink" x="0px" y="0px"
	 width="192.7px" height="38.1px" viewBox="0 0 192.7 38.1" style="enable-background:new 0 0 192.7 38.1;" xml:space="preserve">
<style type="text/css">
	.st0{fill:#3B5998;}
</style>
<g>
	<path class="st0" d="M99.2,18.5c-1.6,0-2.7,0.5-3.9,1.1v12c1.1,0.1,1.8,0.1,2.8,0.1c3.8,0,4.3-1.7,4.3-4.2v-5.7
		C102.5,20,101.9,18.5,99.2,18.5L99.2,18.5z M73.8,17.9c-2.6,0-3.3,1.5-3.3,3.3v1H77v-1C77.1,19.3,76.5,17.9,73.8,17.9z M24.7,30.4
		c0,1.4,0.7,2.2,2.2,2.2c1.6,0,2.5-0.5,3.7-1.1v-2.9h-3.5C25.4,28.6,24.7,29,24.7,30.4L24.7,30.4z M123.9,18.5
		c-2.7,0-3.6,1.4-3.6,3.3v6.6c0,1.8,0.9,3.3,3.6,3.3c2.6,0,3.6-1.5,3.6-3.3v-6.6C127.5,20,126.5,18.5,123.9,18.5z M11.7,37.8H3.9
		V18.9H0v-6.5h3.9V8.5C3.9,3.2,6.1,0,12.4,0h5.2v6.5h-3.3c-2.4,0-2.6,0.9-2.6,2.6v3.3h5.9l-0.7,6.5h-5.2L11.7,37.8L11.7,37.8z
		 M38.4,37.8h-6.5l-0.3-1.6c-3,1.6-5.6,1.9-7.4,1.9c-4.8,0-7.3-3.2-7.3-7.6c0-5.2,3-7.1,8.3-7.1h5.4v-1.1c0-2.7-0.3-3.4-4.4-3.4
		h-6.7l0.7-6.5h7.3c9,0,10.9,2.8,10.9,10V37.8L38.4,37.8z M60.5,19.4c-4-0.7-5.2-0.8-7.2-0.8c-3.5,0-4.6,0.8-4.6,3.7v5.6
		c0,3,1.1,3.7,4.6,3.7c1.9,0,3.1-0.2,7.2-0.9V37c-3.5,0.8-5.9,1-7.8,1C44.3,38,41,33.6,41,27.2v-4.6C41,16.4,44.3,12,52.7,12
		c2,0,4.3,0.2,7.8,1V19.4L60.5,19.4z M84.9,27.3H70.6v0.5c0,3,1.1,3.7,4.6,3.7c3.1,0,5.1-0.2,9.1-0.9v6.3c-3.9,0.8-5.9,1-9.7,1
		c-8.4,0-11.7-4.4-11.7-10.8v-5.2c0-5.6,2.5-10.1,11.1-10.1s11.1,4.5,11.1,10.1v5.4H84.9z M110.3,27.5c0,6.2-1.8,10.6-12.4,10.6
		c-3.8,0-6.1-0.3-10.3-1V2l7.8-1.3V13c1.7-0.6,3.9-0.9,5.9-0.9c7.8,0,9.1,3.5,9.1,9.1L110.3,27.5L110.3,27.5z M135.3,27.6
		c0,5.3-2.2,10.5-11.4,10.5s-11.4-5.1-11.4-10.5v-5.1c0-5.3,2.2-10.5,11.4-10.5s11.4,5.1,11.4,10.5V27.6L135.3,27.6z M160.3,27.6
		c0,5.3-2.2,10.5-11.4,10.5s-11.4-5.1-11.4-10.5v-5.1c0-5.3,2.2-10.5,11.4-10.5s11.4,5.1,11.4,10.5V27.6L160.3,27.6z M185.9,37.8
		h-8.5l-7.2-11.9v11.9h-7.8V2l7.8-1.3v23.1l7.2-11.3h8.5l-7.8,12.4L185.9,37.8z M148.9,18.5c-2.6,0-3.6,1.4-3.6,3.3v6.6
		c0,1.8,0.9,3.3,3.6,3.3c2.6,0,3.6-1.5,3.6-3.3v-6.6C152.5,20,151.5,18.5,148.9,18.5L148.9,18.5z M190.3,33.3c1.3,0,2.4,1.1,2.4,2.4
		c0,1.4-1,2.4-2.4,2.4c-1.3,0-2.4-1.1-2.4-2.4C188,34.4,189,33.3,190.3,33.3L190.3,33.3z M190.3,33.7c-1.1,0-1.9,0.9-1.9,2
		s0.9,2,1.9,2c1.1,0,1.9-0.9,1.9-2S191.4,33.7,190.3,33.7L190.3,33.7z M189.9,37.1h-0.4v-2.7c0.2,0,0.4-0.1,0.8-0.1
		c0.4,0,0.7,0.1,0.8,0.2c0.2,0.1,0.2,0.3,0.2,0.6c0,0.4-0.2,0.6-0.5,0.7l0,0c0.2,0,0.4,0.3,0.4,0.7c0.1,0.4,0.1,0.6,0.2,0.7H191
		c-0.1-0.1-0.1-0.3-0.2-0.7c-0.1-0.3-0.2-0.5-0.6-0.5h-0.3V37.1L189.9,37.1z M189.9,35.6h0.3c0.4,0,0.7-0.1,0.7-0.5
		c0-0.2-0.2-0.5-0.7-0.5c-0.1,0-0.2,0-0.3,0V35.6L189.9,35.6z"/>
</g>
</svg>
