<?xml version="1.0" encoding="utf-8"?>
<!-- Generator: Adobe Illustrator 22.0.1, SVG Export Plug-In . SVG Version: 6.00 Build 0)  -->
<svg version="1.1" id="Layer_1" xmlns="http://www.w3.org/2000/svg" xmlns:xlink="http://www.w3.org/1999/xlink" x="0px" y="0px"
	 width="180.8px" height="23.5px" viewBox="0 0 180.8 23.5" style="enable-background:new 0 0 180.8 23.5;" xml:space="preserve">
<style type="text/css">
	.st0{fill:#EB1E24;}
</style>
<g>
	<path class="st0" d="M0,10c0.3-0.2,0.3-0.5,0.3-0.8C1.6,4,6.1,0.3,11.5,0.3c4.6-0.1,9.2-0.1,13.7,0c5.9,0.1,11,4.6,11.5,10.3
		c0.6,6.2-3.3,11.5-9.3,12.8c-0.2,0-0.4,0-0.4,0.2c-5.7,0-11.5,0-17.2,0c-0.1-0.3-0.4-0.2-0.6-0.3c-4.7-1.2-7.7-4.2-8.9-8.9
		c-0.1-0.2,0-0.5-0.3-0.6C0,12.5,0,11.2,0,10z M18.4,19.4c2.1,0,4.2,0,6.2,0c0.6,0,1.2,0,1.8-0.1c3.7-0.8,6.1-3.9,6-7.7
		c-0.1-3.6-2.8-6.8-6.5-7.1c-5-0.4-10-0.4-15,0c-4,0.3-6.8,4-6.5,7.8c0.3,4.2,3.4,7.1,7.6,7.1C14.2,19.4,16.3,19.4,18.4,19.4z"/>
	<path class="st0" d="M162.7,23.5c-0.3-0.3-0.7-0.2-1-0.3c-5.6-1.4-9.2-6.4-8.8-12.4c0.3-5.3,4.8-9.9,10.2-10.5
		c0.6-0.1,1.3-0.1,1.9-0.1c4.8,0,9.6,0,14.5,0c0.3,0,0.6,0,1.1,0c-0.9,1.5-1.8,2.8-2.6,4.1c-4.5,0-8.9,0-13.3,0
		c-3.1,0-5.9,2-6.9,4.9c0,0.1-0.1,0.3-0.1,0.5c7.2,0,14.4,0,21.7,0c-0.9,1.5-1.8,2.8-2.6,4.1c-6.3,0-12.7,0-19.2,0
		c0.4,1.5,1.2,2.7,2.3,3.7c1.2,1.1,2.6,1.8,4.2,1.8c5.5,0,11.1,0,16.6,0c0.2,0.4-0.1,0.6-0.3,0.8c-0.7,1.1-1.5,2.2-2,3.4
		C173.2,23.5,167.9,23.5,162.7,23.5z"/>
	<path class="st0" d="M39.3,23.5c0-7.7,0-15.3,0-23c0-0.1,0-0.2,0.1-0.2c0.2-0.2,0.5-0.1,0.7-0.1c6.2,0,12.4,0,18.5,0
		c3.9,0,7,2.4,7.9,6.1c1.2,4.7-2.4,9.4-7.2,9.6c-0.7,0-1.5,0-2.3,0c0.1,0.5,0.4,0.6,0.6,0.7c2.7,2.3,5.4,4.6,8,6.8
		c-2.2,0-4.3,0-6.5,0c-0.1-0.1-0.2-0.3-0.4-0.4c-3.9-3.4-7.8-6.8-11.7-10.2c-0.3-0.3-0.6-0.6-1.1-1c0.5,0,0.8,0,1.1,0
		c3.7,0,7.4,0,11.1,0c1.5,0,2.7-0.5,3.5-1.7s0.9-2.5,0.2-3.8S60,4.2,58.4,4.2c-4.8,0-9.6,0-14.4,0c-0.1,0-0.3,0-0.4,0.2
		c0,6.2,0,12.5,0,18.8c0,0.1,0,0.2,0.1,0.3C42.3,23.5,40.8,23.5,39.3,23.5z"/>
	<path class="st0" d="M66.9,23.5c0.8-1.2,1.5-2.5,2.3-3.7C73,13.9,76.7,8.1,80.4,2.3c0.7-1,1.4-1.9,2.6-2.3c0.5,0,1,0,1.4,0
		c1.2,0.4,2,1.3,2.6,2.4c4.5,7.1,9,14.1,13.5,21.1c-1.8,0-3.6,0-5.4,0c-0.5-1.5-1.6-2.8-2.3-4.2c-4.1,0-8.1,0-12.1,0
		c-0.8-1.3-1.7-2.6-2.6-4.1c4.1,0,7.9,0,11.9,0c-2.1-3.4-4.2-6.8-6.3-10.2c-3.9,6.2-7.7,12.3-11.5,18.4
		C70.4,23.5,68.7,23.5,66.9,23.5z"/>
	<path class="st0" d="M108,23.5c-0.1-0.3-0.5-0.2-0.7-0.3c-5.4-1.4-9.1-6.1-9-11.4c0.1-5.5,3.9-10.1,9.4-11.3c0.6-0.1,1.3-0.2,2-0.2
		c5.4,0,10.8,0,16.4,0c-0.9,1.4-1.8,2.7-2.6,4.1c-0.3,0-0.6,0-1,0c-4,0-8.1,0-12.1,0c-3.9,0-7.2,2.9-7.6,6.7c-0.4,4,2.1,7.4,6,8.3
		c0.7,0.2,1.4,0.1,2.1,0.1c5.1,0,10.2,0,15.5,0c-0.6,1.5-1.8,2.7-2.4,4.1C118.6,23.5,113.3,23.5,108,23.5z"/>
	<path class="st0" d="M130.1,23.5c-1.2-0.6-1.7-1.6-1.6-3c0.1-6.4,0-12.8,0-19.3c0-0.3,0-0.6,0-1c1.5,0,2.9,0,4.5,0
		c0,6.4,0,12.7,0,19.1c7,0,13.8,0,20.9,0c-0.9,1.5-1.7,2.8-2.6,4.2C144.2,23.5,137.1,23.5,130.1,23.5z"/>
</g>
</svg>
