<?xml version="1.0" encoding="utf-8"?>
<!-- Generator: Adobe Illustrator 22.0.1, SVG Export Plug-In . SVG Version: 6.00 Build 0)  -->
<svg version="1.1" id="Layer_1" xmlns="http://www.w3.org/2000/svg" xmlns:xlink="http://www.w3.org/1999/xlink" x="0px" y="0px"
	 width="133.8px" height="61px" viewBox="0 0 133.8 61" style="enable-background:new 0 0 133.8 61;" xml:space="preserve">
<style type="text/css">
	.st0{fill:#232261;}
	.st1{fill:#919090;}
	.st2{fill:none;}
	.st3{fill:#919191;}
	.st4{fill:#232262;}
</style>
<g>
	<path class="st0" d="M34.6,9.8c-0.9-0.5-1.7-0.2-2.5-0.5c-0.1-0.6-0.1-1.3,0-2c2.2,0,4.3,0,6.6,0c0,2.8,0,5.6,0,8.3
		c0.5,0.2,0.6-0.1,0.8-0.3c2.7-3.2,7.6-2,9.5,1c1.2,1.9,1.5,4,1.4,6.2c-0.1,1.4-0.3,2.8-0.9,4.2c-1,2.3-2.8,3.5-5.2,3.8
		c-2.3,0.2-4.4-0.3-5.9-2.3c-0.7,0.5-0.9,1.3-1.5,1.8c-2-0.1-4,0-6,0c-2,0-4.1,0-6,0c-0.4-0.5,0-1.1-0.3-1.5c-0.1,0-0.2,0-0.2,0
		c-1.1,2.4-4.2,2.5-6.1,1.9c-1.7-0.6-2.2-2.1-2.3-3.7c-0.1-1.2,0-2.5-0.2-3.7c-0.4-2.4-1.4-3.4-3.8-3.6c-1-0.1-2.1,0-3.2,0
		c0,2.5,0,5,0,7.6c1,1.1,2.4,0.2,3.7,0.7c0.1,0.7,0.1,1.5,0,2.3c-4.1,0-8.2,0-12.3,0c-0.2-0.8-0.1-1.5-0.1-2.3
		c1.2-0.4,2.5,0.3,3.6-0.6c0-5.6,0-11.1,0-16.8c-1-1-2.3-0.2-3.5-0.6c-0.3-0.7-0.1-1.5-0.1-2.2c0.3-0.3,0.6-0.2,0.9-0.2
		c4.9,0,9.7,0,14.6,0c1.2,0,2.4,0.2,3.5,0.7c2,0.8,3,2.4,3,4.5c0.1,2.9-1.2,4.6-3.9,5.5c-0.6,0.2-1.2,0.3-1.8,0.5
		c0.2,0.4,0.6,0.3,0.9,0.4c1.8,0.6,2.6,1.6,2.8,3.5c0.1,1,0.1,1.9,0.2,2.9c0.1,0.7,0.2,1.4,0.7,2c0.4,0.2,0.7,0.2,1.1,0
		c0.9-1,0.4-2.3,0.7-3.5c0.6-0.3,1.3-0.1,2-0.1c0.3,1.4,0,2.6-0.2,3.9c0.1,0.1,0.1,0.2,0.2,0.2c2.4,0.1,2.6,0,2.6-2.5
		c0-2.5,0-4.9,0-7.4c0-1.4-0.3-1.7-1.7-1.7c-0.3,0-0.7,0-1,0c-0.3-0.7-0.2-1.3-0.1-2.1c2.2,0,4.4,0,6.7,0c0.2,0.4,0.1,0.8,0.1,1.2
		c0,3.4,0,6.9,0,10.3c0,0.6,0,1.2,0.4,1.8c0.9,0.6,1.9,0.3,3.1,0.4c0-3.1,0-6.1,0-9.1C34.7,15.7,35,12.7,34.6,9.8z M45.7,21.8
		c0-1.1,0-2.2-0.3-3.2c-0.3-1.1-0.8-2-2-2.3c-2.2-0.6-3.9,0.4-4.5,2.7c-0.5,2.2-0.5,4.4,0,6.5c0.3,1.6,1.4,2.4,3.1,2.4
		c1.7,0,2.9-1,3.4-2.9C45.7,23.9,45.8,22.8,45.7,21.8z M8.6,16.7c0.4,0,0.6,0,0.9,0c1.5,0,2.9,0,4.4,0c0.6,0,1.1-0.2,1.7-0.4
		c0.8-0.3,1.3-0.8,1.5-1.6c0.7-2.6-0.1-4.7-3.2-5c-0.1,0-0.3-0.1-0.5-0.1c-1.6,0-3.2,0-4.8,0C8.6,12,8.6,14.3,8.6,16.7z"/>
	<path class="st1" d="M66.3,26.7c1.1,2.9,2.8,4.4,5.3,5.5c3.2,1.5,6.6,2,10.1,2.2c1.9,0.1,3.8-0.1,5.6-0.4c2.2-0.3,4.3-0.9,6.2-2
		c2.3-1.3,4.1-3.1,4.8-5.7c0.4-1.5,0.3-2.9-0.6-4.3c-1-1.6-2.6-2.3-4.2-3c-0.4-0.1-0.8-0.1-1-0.5c0.1-0.4,0.4-0.4,0.6-0.5
		c1.8-1.1,3.1-2.5,3.4-4.6c0.1-0.9-0.1-1.6-0.6-2.4c-0.6-0.8-1.3-1.1-2.3-1.2c-0.3,0.1-0.5,0.1-0.8,0.2c-1.2,0.3-2.1,1.3-2.1,2.4
		c-0.1,1.4,0.6,2.2,1.9,2.6c0.5,0.2,1.2,0.1,1.6,0.6c-0.1,0.7-0.5,1.1-1.1,1.5c-1,0.6-2.1,0.9-3.2,0.9c-1.9,0.1-3.8,0.2-5.6,0.9
		c-2.2,0.8-3.5,2.4-3.9,4.6c-0.4,2,0.5,3,2.2,3.5c1.6,0.5,3-0.4,3.4-1.8c0.4-1.4-0.5-3.4-2.1-3.4c-0.4,0-0.7-0.2-1.1-0.3
		c0-1.1,0.4-1.7,1.6-2.1c2-0.7,4-0.9,6.1-0.4c1.6,0.4,2.9,1.3,3.5,3c0.3,0.9,0.3,1.9,0.3,2.8c0.1,3.3-1.6,5.6-4.4,7
		c-4.5,2.1-9.2,2-13.8,0.3c-1.5-0.6-2.8-1.5-3.7-2.8c-1.8-2.5-2.1-5.3-1.3-8.1s2.6-4.7,5.5-5.6c1.3-0.4,2.7-0.4,4-0.4
		c0.2,0,0.4,0,0.5-0.2c0-0.2,0.1-0.4-0.2-0.6c-0.3,0-0.6,0-1,0c-1.9-0.2-3.6-0.9-4.7-2.7C74,10.1,74,8,74.3,6c0.2-1.4,0.8-2.7,2-3.5
		c3.1-2,6.4-2,9.7-0.3c0.7,0.4,1.2,1,1.1,1.8c-0.7,0.6-1.6,0.5-2.4,1c-0.8,0.6-0.8,1.4-1.1,2.2c0,0.1,0.1,0.2,0.1,0.3
		c0.4,1.4,1.3,2.1,2.6,2.1c1.3,0,2.4-0.9,2.7-2.1c0.5-1.8,0-3.3-1.1-4.6c-1.9-2.2-4.4-2.7-7.1-3c-1.9-0.2-3.8,0.2-5.5,0.9
		c-2.6,1-4.7,2.7-5.3,5.6c-0.4,2-0.2,3.9,1.4,5.4c1.1,1.1,2.4,1.9,3.8,2.4c0.1,0.2,0.1,0.4-0.1,0.6c-4.8,1.1-8.7,3.8-9.3,9.3
		C65.8,24.3,65.8,25.5,66.3,26.7z"/>
	<path class="st0" d="M65.8,26.5c-0.5,2.2-2.2,3.6-4.7,3.9c-2.5,0.3-4.9,0.1-7-1.5c-0.5,0.2-0.5,0.8-1,1.1c-0.5,0.1-1.2,0.1-2,0
		c0-2,0-4.1,0-6.1c0.8,0,1.5,0,2.3,0c0.3,0.3,0.3,0.7,0.5,1.1c1,2.4,3.7,3.8,6.2,3.3c0.5-0.1,1-0.3,1.3-0.7c0.8-0.8,0.7-1.9-0.2-2.6
		c-0.8-0.5-1.7-0.8-2.6-1c-1.6-0.4-3.2-0.7-4.6-1.4c-1.1-0.5-2.1-1.3-2.5-2.5c-0.7-2,0.1-4.2,2.1-5.4c2.5-1.5,5-1.4,7.6-0.2
		c0.2,0.1,0.4,0.2,0.6,0.3s0.4,0.2,0.6,0.3c0.4-0.2,0.5-0.7,0.8-1c0.5-0.1,1.1-0.1,1.7,0c0,1.9,0,3.6,0,5.5
		c-0.7,0.2-1.3,0.1-1.9,0.1c-0.4-0.3-0.4-0.7-0.6-1c-1.2-2.6-4-3.1-5.8-2.5c-1,0.3-1.4,0.9-1.3,2.1c0.4,0.7,1.1,0.9,1.8,1.1
		c1.3,0.4,2.7,0.8,4,1.2c0.7,0.2,1.4,0.5,2.1,0.9c1.2,0.6,2,1.5,2.6,2.8C65.8,24.1,66.1,25.1,65.8,26.5z"/>
	<path class="st0" d="M72.6,38.8c1.4-1.5,3-2.1,4.9-1.4c1.7,0.6,2.2,2.1,2.2,3.9c1.5-2.5,3.6-3.9,6.3-4.2c1.5-0.2,3,0.2,4.3,0.9
		c2.7,1.5,4.4,5,3.8,8c-3.5,0-7.1,0-10.6,0c-0.6,2.3,0.7,5,2.5,5.5c2.6,0.7,4.3-0.4,5.4-3.5c0.8,0,1.7,0,2.6,0
		c-0.1,1.9-0.8,3.5-2.2,4.6c-2.8,2.3-8.4,2-11-0.7c-1.5-1.6-1.9-3.6-2.1-5.6c-0.1-1.2,0-2.3,0.3-3.4c0.1-0.2,0.1-0.4,0-0.7
		c-0.8,0.5-1.6,0.8-2.6,0.5c-0.4-0.1-0.8-0.4-1.1-0.8c-0.6-1.1-0.2-2,1.3-2.9c-1.1-0.8-2.2-0.5-3.3,1c-0.1,0.2,0.1,0.4,0.1,0.5
		c1.7,2.9,0.6,7.3-4.1,8.3c-2.1,0.5-4.2,0.4-6.3-0.2c-1,0.6-1.1,0.7-0.9,1.9c0.7,0.6,1.5,0.7,2.3,0.7c2.1,0,4.3,0,6.4,0
		c0.7,0,1.5,0.1,2.2,0.3c1.6,0.4,2.8,1.4,3.1,3.1c0.3,1.8,0.1,3.4-1.5,4.6c-1.1,0.8-2.3,1.3-3.6,1.5c-3.3,0.5-6.5,0.6-9.8-0.2
		c-0.8-0.2-1.5-0.5-2.1-0.9c-0.9-0.6-1.3-1.5-1.2-2.6c0.1-1.1,0.7-1.8,1.7-2.1c0.5-0.2,1-0.4,1.7-0.4c-2.3-0.8-2.9-1.3-2.8-3.5
		c0.1-1.6,1-2.5,2.9-3c0.1-0.1,0-0.2-0.1-0.3c-3.2-2.5-3-7.3,0.5-9.3c1.8-1,3.7-1.4,5.7-1.2C69.5,37.4,71.1,37.8,72.6,38.8z
		 M66.8,59.1c0.6,0,1.1,0,1.6,0c1-0.1,2.1-0.2,3-0.7c0.7-0.3,1.2-0.8,1.2-1.5c0.1-1.3-0.7-2.2-2-2.2c-2,0-3.9,0-5.9,0
		c-0.5,0-0.9,0.2-1.3,0.3c-1,0.3-1.7,1.1-1.6,2c0.1,1,0.8,1.5,1.6,1.7C64.5,59.1,65.8,59.2,66.8,59.1z M69.9,43.3
		c0-0.8,0-1.6-0.3-2.4c-0.4-1.2-1.3-1.8-2.5-1.9s-2.2,0.5-2.7,1.7c-0.6,1.7-0.6,3.3,0,5c0.4,1.2,1.3,1.7,2.6,1.7
		c1.3,0,2.2-0.6,2.6-1.8C69.8,44.8,69.8,44,69.9,43.3z M89.7,43.8c0-1.6-0.2-3-1.6-3.9c-1-0.6-2.1-0.6-3.1,0.1
		c-1.3,0.9-1.7,2.3-1.6,3.8C85.6,43.8,87.6,43.8,89.7,43.8z"/>
	<path class="st0" d="M33,39.9c-0.1-0.8-0.1-1.4,0-2.1c2.4,0,4.8,0,7.2,0c0.2,0.5,0.1,0.9,0.1,1.3c0,3.5,0,7,0,10.5
		c0,1.6,0.3,1.9,1.9,1.9c0.9,0,1.8,0,2.7,0c1,0,1.5-0.4,1.5-1.3c0-3,0-6,0-8.9c0-0.9-0.4-1.3-1.4-1.3c-0.6,0-1.1,0-1.8,0
		c-0.1-0.8-0.1-1.4,0-2.2c2.4,0,4.7,0,7.1,0c0,0.8,0,1.5,0,2.5c0.7-0.5,1-1.1,1.4-1.6c1.2-1.4,2.7-1.8,4.5-1.3c2,0.6,3,2.7,2.4,4.6
		c-0.5,1.5-2,2.2-3.4,1.6c-0.9-0.3-1.3-1.1-1.3-2c0-0.9,0.5-1.5,1.3-1.9c0.2-0.1,0.4-0.1,0.8-0.2c-0.5-0.6-1-0.5-1.6-0.5
		c-1.8,0.2-3.2,1.5-3.7,3.5c-0.2,0.6-0.3,1.2-0.3,1.8c0,1.8,0,3.6,0,5.4c0,1.4,0.3,1.7,1.7,1.7c0.5,0,1.1,0,1.7,0
		c0.2,0.7,0.1,1.4,0.1,2.1c-0.9,0.2-15.8,0.3-17.3,0c0-0.8,0-1.6,0-2.5c-0.4,0.2-0.6,0.5-0.8,0.8c-1.7,2.6-5.9,2.9-8,1.7
		c-1.6-0.9-2.1-2.4-2.1-4.1c0-2.5,0-5.1,0-7.6c0-1.7-0.2-1.9-1.9-2c-0.3,0-0.7,0.1-1.1-0.1c0-0.6,0-1.3,0-2c2.3,0,4.5,0,6.8,0
		c0.3,0.4,0.2,0.8,0.2,1.2c0,3,0,6,0,8.9c0,0.2,0,0.5,0,0.7c0,2.6,1.9,3.7,4.2,2.7c1.8-0.8,2.5-2.2,2.6-4c0.1-1.9,0-3.9,0-5.8
		c0-1.1-0.5-1.5-1.6-1.6c-0.3,0-0.6,0-0.9,0C33.7,39.9,33.4,39.9,33,39.9z"/>
	<path class="st0" d="M3.6,50.8c0.3-1.5,0.2-16.3-0.1-17.1c-1-0.7-2.3-0.1-3.4-0.5C0,32.6,0,31.8,0.1,31C0.3,31,0.4,31,0.6,31
		c4.8,0,9.7-0.2,14.6,0.1c1.2,0.1,2.4,0.4,3.5,0.9c2,0.9,2.8,2.6,2.7,4.8c0,2-1,3.4-2.8,4.3c-0.5,0.3-1.1,0.4-1.7,0.6
		c0.5,0.4,1.1,0.4,1.6,0.6c2.5,0.9,4,2.6,3.6,5.9c-0.3,3.3-2.1,5-5.3,5.4c-1.1,0.2-2.2,0.2-3.4,0.2c-4,0-8,0-12.1,0
		c-0.4,0-0.8,0.1-1.3-0.1c-0.1-0.7-0.1-1.5,0-2.3C1.3,51,2.6,51.7,3.6,50.8z M8.6,51.2c1.8,0,3.5,0.1,5.2,0c1-0.1,2.1-0.3,2.8-1.2
		c0.8-0.9,0.9-2,0.9-3.1c-0.1-2-1.2-3.2-3.1-3.5c-1.3-0.2-2.7-0.2-4-0.2c-0.5,0-1.1-0.1-1.7,0.2C8.6,45.9,8.6,48.5,8.6,51.2z
		 M8.6,40.6c1.8,0,3.4,0.1,5,0c2.2-0.2,3.4-1.5,3-4.1c-0.2-1.3-0.8-2.3-2.2-2.7c-1.9-0.5-3.9-0.3-5.9-0.3
		C8.6,35.9,8.6,38.2,8.6,40.6z"/>
	<path class="st0" d="M113.3,41.4c0.1,0.8,0.7,1.2,1.4,1.4c1.1,0.4,2.3,0.7,3.4,1c1.4,0.4,2.8,0.9,4,1.7c2.6,1.6,2.5,6.1-0.3,7.7
		c-1.8,1-3.8,1.1-5.8,0.9c-1.4-0.2-2.7-0.7-3.8-1.5c-0.5,0.2-0.5,0.8-0.9,1.1c-0.6,0.1-1.3,0-2,0c0-2.1,0-4.1,0-6.1
		c0.8-0.2,1.5-0.1,2.3,0c0.4,1.2,0.9,2.3,1.8,3.1c1.4,1.2,3.1,1.4,4.8,1.2c0.4-0.1,0.9-0.3,1.2-0.6c0.8-0.8,0.8-2-0.2-2.7
		c-0.6-0.4-1.4-0.6-2.1-0.8c-1.4-0.4-2.8-0.7-4.1-1.1c-0.8-0.3-1.5-0.6-2.1-1.1c-1.1-0.8-1.5-2.1-1.6-3.6c-0.7,1.4-1.6,2.1-3.1,1.8
		c-1-0.2-1.7-0.9-1.8-1.7c-0.2-1.3,0.2-1.7,1.8-2.5c-0.8-0.6-1.9-0.6-2.9,0.1c-1.5,0.9-2.2,2.4-2.3,4.1c-0.1,2.2-0.1,4.5,0,6.7
		c0,0.8,0.4,1.2,1.2,1.2c0.7,0,1.4,0,2.1,0c0.2,0.7,0.1,1.4,0.1,2.2c-3.5,0-7,0-10.6,0c-0.1-0.7-0.1-1.4,0-2.1
		c0.6-0.2,1.3,0,1.9-0.1c0.8,0,1.1-0.3,1.3-1.1c0-0.1,0-0.2,0-0.2c0-3,0-6,0-9c0-0.3-0.1-0.5-0.2-0.8c-0.8-0.9-1.9-0.3-2.9-0.7
		c-0.1-0.6-0.1-1.3,0-1.9c0.8-0.3,5.9-0.3,7-0.1c0.2,0.7,0,1.4,0.2,2.2c0.5-0.4,0.8-0.9,1.1-1.3c1.3-1.5,3-2,4.8-1.3
		c1.7,0.6,2.5,1.9,2.4,3.7c0.1,0,0.2,0,0.2,0c1.2-2.8,4-4.4,7-3.8c0.7,0.1,1.4,0.3,2.1,0.6c0.6,0.3,1.2,0.6,1.9,0.9
		c0.5-0.1,0.4-0.7,0.9-1c0.5-0.1,1.1-0.1,1.6,0c0.2,0.3,0.2,0.6,0.2,0.9c0,1.5,0,3.1,0,4.7c-0.8,0-1.4,0-2.2,0
		c-0.2-0.4-0.4-0.9-0.7-1.4c-1.3-2.2-3.5-2.5-5.4-2.2C114.1,39.9,113.5,40.5,113.3,41.4z"/>
	<path class="st0" d="M124.2,41.3c0-2.7,2.3-4,4.2-4c2.4,0.1,4.1,1.8,4.1,4.1c-0.1,2.4-1.8,4.1-4.3,4
		C125.8,45.4,124.2,43.6,124.2,41.3z M128.3,44.6c1.8,0,3.2-1.3,3.1-3.3c0-2.1-1.4-3.2-3.1-3.2c-1.7-0.1-3.2,1.3-3.2,3.2
		C125.2,42.8,126.1,44.6,128.3,44.6z"/>
	<path class="st0" d="M26.5,9.3c0.4-1.7,1.4-2.6,2.7-2.5c1.2,0.2,2.1,1.2,2.1,2.3c0,1.3-0.8,2.3-1.9,2.5C27.9,11.8,27,11.1,26.5,9.3
		z"/>
	<path class="st2" d="M66.8,59.1c-1.1,0-2.3,0-3.5-0.4c-0.9-0.3-1.5-0.7-1.6-1.7c-0.1-0.9,0.6-1.7,1.6-2c0.4-0.1,0.9-0.3,1.4-0.3
		c2,0,3.9,0,5.9,0c1.4,0,2.2,1,2,2.2c-0.1,0.8-0.6,1.2-1.2,1.5c-1,0.4-2,0.6-3,0.7C67.9,59.2,67.4,59.1,66.8,59.1z"/>
	<path class="st2" d="M128.3,44.6c-2.2,0-3.1-1.8-3.1-3.3c0-1.8,1.4-3.2,3.1-3.2c1.7,0.1,3,1.2,3.1,3.2
		C131.4,43.3,130.1,44.6,128.3,44.6z M130,43.5c-0.1-0.6-0.7-1.1-0.8-1.7c0.1-0.3,0.4-0.3,0.6-0.5c0.7-0.7,0.4-1.9-0.5-2.1
		c-0.8-0.2-1.7-0.3-2.4,0c0,1.5,0,2.9,0,4.2c0.3,0.1,0.4,0.2,0.6,0c0.2-0.5-0.1-1.2,0.3-1.8c1,0.2,1,1.3,1.6,1.9
		C129.5,43.6,129.8,43.7,130,43.5z"/>
	<rect x="0.2" y="57.5" class="st3" width="12.1" height="1.3"/>
	<rect x="14.1" y="57.5" class="st3" width="12.1" height="1.3"/>
	<rect x="28.2" y="57.5" class="st3" width="12.1" height="1.3"/>
	<rect x="42.2" y="57.5" class="st3" width="12.1" height="1.3"/>
	<g>
		<path class="st4" d="M127.9,41.8v1.6h-0.7v-4h1.2c0.3,0,0.5,0,0.7,0.1c0.2,0.1,0.4,0.1,0.5,0.2c0.1,0.1,0.2,0.2,0.3,0.4
			s0.1,0.3,0.1,0.5c0,0.1,0,0.3-0.1,0.4c0,0.1-0.1,0.2-0.2,0.3c-0.1,0.1-0.2,0.2-0.3,0.3c-0.1,0.1-0.2,0.1-0.4,0.2
			c0.1,0,0.2,0.1,0.2,0.2l1,1.5h-0.7c-0.1,0-0.1,0-0.2,0c-0.1,0-0.1-0.1-0.1-0.1l-0.8-1.3c0,0-0.1-0.1-0.1-0.1c0,0-0.1,0-0.2,0
			L127.9,41.8L127.9,41.8z M127.9,41.3h0.5c0.1,0,0.3,0,0.4,0s0.2-0.1,0.3-0.2c0.1-0.1,0.1-0.1,0.1-0.2s0.1-0.2,0.1-0.3
			c0-0.2-0.1-0.4-0.2-0.5c-0.1-0.1-0.3-0.2-0.6-0.2h-0.5V41.3z"/>
	</g>
	<rect x="79.7" y="57.5" class="st3" width="12.1" height="1.3"/>
	<rect x="93.7" y="57.5" class="st3" width="12.1" height="1.3"/>
	<rect x="107.8" y="57.5" class="st3" width="12.1" height="1.3"/>
	<rect x="121.7" y="57.5" class="st3" width="12.1" height="1.3"/>
</g>
</svg>
